<svg id="routes" xmlns="http://www.w3.org/2000/svg" xmlns:xlink="http://www.w3.org/1999/xlink" viewBox="0 0 1024 1024"><defs><style>.cls-1,.cls-3,.cls-4,.cls-5,.cls-6,.cls-7{fill:none;}.cls-2{clip-path:url(#clip-path);}.cls-3,.cls-6,.cls-7{stroke:#231815;stroke-width:8.79px;}.cls-3,.cls-4,.cls-5,.cls-6,.cls-7{stroke-linecap:round;stroke-miterlimit:10;}.cls-4{stroke:#a73766;}.cls-4,.cls-5{stroke-width:4.4px;}.cls-5{stroke:#ebca1b;}.cls-6{stroke-dasharray:0 30.24;}.cls-7{stroke-dasharray:0 35.48;}</style><clipPath id="clip-path"><rect class="cls-1" x="89" y="-3068" width="11720" height="11720"/></clipPath></defs><title>3230_7144</title><g class="cls-2"><g id="日ノ丸線"><g id="長和瀬"><path class="cls-3" d="M657.37,299.41l-.12,2.17-1.65,4.5-2.43,9.65-2.1,4.11L649.32,322l-1.09,1.32-1.89,1.28-1,.64-3.73,1.17-5.33,1.26-5.1,1.35-2.09.45-.62.25-2.09.33-5.32,1.17-1.24.14-7.07.79-3.29.17-1.58.09-7.26-1.07-7.53-2.08-5-1.82-5.9-5.79M1158.48,465l51.14,6.15c6.62-7.59,13.36-15.23,19.92-22.95l22.78-27.86,22.52-27.84c3.76-4.62,7.46-9.32,11.26-13.88l12-14.56,11.8-20.89.85-2.12,2.61-20.88,3.22-25.63,9.05-23,2.35-6.22,7-18.62,1.64-4.34-1.1-2.64,1.31-8.49.42-4.58-.2-3.61-.87-3.13-.89-2.35-.94-2-1.26-2.13-1.26-1.29-2.1-1.08h-1.71l-3.72.57-4.81,9.83-2.07,2.06-1.87,1.32-3.58,2.2-4.8,1.88-2.61.45-3.08.31-3.43-.31-4.51-.6-9.34-1.08-4.47-.77-6-.46-2.79.07-4,.68-9.29,2.19-14.33,4.63-32.64,9.66-3.78,1.13-4.47,1.75-6.11,2.15-6.91,3.87-5.35,3.24-29.31,14.79-5.32,3.08-3.24,3.29-2.15,2.69-.71,1.17-2.18,3.58-2.82,7.18-1.3,11.1-.54,10.71.17,4.87-1,10.52-1,10.78-.44,4.79-.66,4.66-1.43,4.79-1.34,3.91-4.2,6.85-4.46,4.05-3.76,3.26-8.52,4.88-3.92,1-3.93,1-5.67.42-6-.29-4.71-.73-4.91-1-5.07-.82-12.14-1.89-10.39-2.18-10-2.68-4.41-1-3.32-.75-.81-.37-7.28-3.19-1.51-.69-6.41-2.94-21-8.85-10.25-4.4L963.5,337.12,956.09,334l-20-8.75-11.72-5.14-9.54-3.55-.45-.23-7.56-3.77-5.74-2.72-3.73-2.17-3.15-2-3.88-9.84-.82-4.73-.9-7L888,278l-.76-4.63-2.11-3-1.23-1.95-3.22-4.14-3.52-2.81-3.26-2.16-3.66-1.65-3.83-.81-1.82-.57-2.91-.54L855,257.66l-2.06.76-2.69,1.16-4.85,2-3.57,2.31-5.29,5L831,278.94l-2,5.71L827,290.9l-1.45,3.24-1.43,2.48-1.46,2.88-.8,1.2-6,5.44-7,3.78-8,3.23-8.21,1.12-8.21-.64-9-3.37-6.5-3.65-6.4-4.34-4.22-4.37-3-2-6.54-3.77-1.8-.81-2.11-1L737.57,288l-3.65-1.17-3.86-1-2.58-.46-3.6-.11-3.06.55L716.35,288l-6.59,2.51-2,.38-1.9-.06-5.43-.88-5.06-1.44-7-1.62-5-1.25-6.76-.26-4.26.62-6.78,4.4L659.42,296l-2,3.45-4.14,4.47-3.72,3.65-1.89,1.84-6.83,5.14-4.61,2.34-11.36,3-16.64,2.88-5.61,1-4.6.18-10-.53-5.72-1.73m715.46-44.29-1.63,21.9-.66,8.86-.13,1.67c0,.26-.12.58.11.8a2.5,2.5,0,0,0,.66.5c.41.22.84.39,1.26.58l.62.32,1.45.77,8.07,4.3,5.94,3.16"/><path class="cls-4" d="M657.37,299.41l-.12,2.17-1.65,4.5-2.43,9.65-2.1,4.11L649.32,322l-1.09,1.32-1.89,1.28-1,.64-3.73,1.17-5.33,1.26-5.1,1.35-2.09.45-.62.25-2.09.33-5.32,1.17-1.24.14-7.07.79-3.29.17-1.58.09-7.26-1.07-7.53-2.08-5-1.82-5.9-5.79M1158.48,465l51.14,6.15c6.62-7.59,13.36-15.23,19.92-22.95l22.78-27.86,22.52-27.84c3.76-4.62,7.46-9.32,11.26-13.88l12-14.56,11.8-20.89.85-2.12,2.61-20.88,3.22-25.63,9.05-23,2.35-6.22,7-18.62,1.64-4.34-1.1-2.64,1.31-8.49.42-4.58-.2-3.61-.87-3.13-.89-2.35-.94-2-1.26-2.13-1.26-1.29-2.1-1.08h-1.71l-3.72.57-4.81,9.83-2.07,2.06-1.87,1.32-3.58,2.2-4.8,1.88-2.61.45-3.08.31-3.43-.31-4.51-.6-9.34-1.08-4.47-.77-6-.46-2.79.07-4,.68-9.29,2.19-14.33,4.63-32.64,9.66-3.78,1.13-4.47,1.75-6.11,2.15-6.91,3.87-5.35,3.24-29.31,14.79-5.32,3.08-3.24,3.29-2.15,2.69-.71,1.17-2.18,3.58-2.82,7.18-1.3,11.1-.54,10.71.17,4.87-1,10.52-1,10.78-.44,4.79-.66,4.66-1.43,4.79-1.34,3.91-4.2,6.85-4.46,4.05-3.76,3.26-8.52,4.88-3.92,1-3.93,1-5.67.42-6-.29-4.71-.73-4.91-1-5.07-.82-12.14-1.89-10.39-2.18-10-2.68-4.41-1-3.32-.75-.81-.37-7.28-3.19-1.51-.69-6.41-2.94-21-8.85-10.25-4.4L963.5,337.12,956.09,334l-20-8.75-11.72-5.14-9.54-3.55-.45-.23-7.56-3.77-5.74-2.72-3.73-2.17-3.15-2-3.88-9.84-.82-4.73-.9-7L888,278l-.76-4.63-2.11-3-1.23-1.95-3.22-4.14-3.52-2.81-3.26-2.16-3.66-1.65-3.83-.81-1.82-.57-2.91-.54L855,257.66l-2.06.76-2.69,1.16-4.85,2-3.57,2.31-5.29,5L831,278.94l-2,5.71L827,290.9l-1.45,3.24-1.43,2.48-1.46,2.88-.8,1.2-6,5.44-7,3.78-8,3.23-8.21,1.12-8.21-.64-9-3.37-6.5-3.65-6.4-4.34-4.22-4.37-3-2-6.54-3.77-1.8-.81-2.11-1L737.57,288l-3.65-1.17-3.86-1-2.58-.46-3.6-.11-3.06.55L716.35,288l-6.59,2.51-2,.38-1.9-.06-5.43-.88-5.06-1.44-7-1.62-5-1.25-6.76-.26-4.26.62-6.78,4.4L659.42,296l-2,3.45-4.14,4.47-3.72,3.65-1.89,1.84-6.83,5.14-4.61,2.34-11.36,3-16.64,2.88-5.61,1-4.6.18-10-.53-5.72-1.73m715.46-44.29-1.63,21.9-.66,8.86-.13,1.67c0,.26-.12.58.11.8a2.5,2.5,0,0,0,.66.5c.41.22.84.39,1.26.58l.62.32,1.45.77,8.07,4.3,5.94,3.16"/></g><g id="勝部桑原"><path class="cls-3" d="M1274.32,275.57l-1.63,21.9-1,13c-.08,1.54-.32,3.12-.3,4.63a20.43,20.43,0,0,0,.45,4.31c.15.66.3,1.27.5,1.89a7.81,7.81,0,0,0,.94,1.9,16.26,16.26,0,0,0,2.78,3.17,26.68,26.68,0,0,0,6.15,4c1.16.56,2.37,1.09,3.54,1.64l2.58,1.38,8.07,4.3,16.14,8.59,32.29,17.2m-56.5-30.09-9.62,17.32-10.78,13c-3.83,4.6-7.52,9.28-11.29,13.92l-22.51,27.83-22.55,27.58c-3.8,4.47-7.64,8.88-11.49,13.3l-35.89-4.32-3.39-2.77c-3.63-2.94-7.24-5.9-10.83-9l-21.56-18.18-5.12-4.31L1093,455.28l1.18,2.83,7.4,17.74,3.7,8.86c1.22,3,2.45,5.92,3.8,8.81l15.75,35c5.36,11.62,10,23.52,15.36,35.14L1147.6,580l-12.1,11.8-3.08,3-3,2-5.71,2.27-3.9.81-3.68.75-9.36,1.18-8.07,2-5.11,2.2-5.12,2.81-8,5.47-6.64,5.88-.21.19-2.72,2.44-3.74,3.88-1.67,2.42-2.61,4.65-4.45,9.41-1.68,2.78-.41.7-8.87,9.09-6.72,6.08-4.25,4.08-4.27,3.12-4.79,2.43-2.64.94-1.66.59h-.52l-8.9,0-9.76.47-3.64.62-2.64,1.08-2.15,1.75-2.68,2.12L986,687.84l-2.17,2.64-3.68,2.74-4.68,2.43-3.87,1.46-3.2,1,1.95,9.19,1.94,10.3-.31,9.91c-.07,1.54,0,3.08,0,4.62l0,5.15-2.34,13.51-4.55,14.44-5.76,12.18L954.72,785c-1.51,2.4-3.11,4.73-4.66,7.1l-5.14,7.77L935.79,803l-10.63,16.08-.39.59-11.71,18.55L907.73,848l-4.18,9.37-4.81,23.06-7.6,40.34L885.75,936,881,946l-16.14,20-18.19,19.83L821,1011.44l-13.74,15-5.7,7.54-58.09,79.79-5.93,7.57-32.11,34.52-4.48,7.17-1.8,3.73-2.32,4.82-7.31,15.13-2.31,2.39-2.46,1.86-8.89,2.85-4.2,1.55-2.33,2.32-1.16,3.14-.83,5.2-3.37,34.72-2.41,56.54-1.9,7.77-2.86,10.47-2.69,11.57-.63,11.58.47,12.21,2.38,15.53-2.7,26.33-1,26.8.74,8.12.69,11.86,3.8,19.35,3.81,7.92,14.91,18.4,8.88,21.56,3.15,11.68,8.17,4.47,3,2.83.49.46,10.16,7.35,3.84,2.57,6.85,5.32,19.47,15.61,3.08,13.78-.79,10-.69,13.64,1.28,23,1.79,26.77,1.9,32.19v13.31l-2.36,12.11-4.31,13.83-10.3,29.88-.81,3.28,3.13,19.33,2.13,16.49,1.14,20.18-.57,24-12.47,29-3.22,7-8.18,16.31-4.94,11.6-5.12,10.57-7.46,21.31L691,1939.48l-5.26,30.28-3.27,10.94-7.1,11.94-5.12,6-15.91,13.93L638.66,2027l-5.26,8.17-11.91,25.33-7.38,12.91-6.24,7-10.37,13-11.21,19.72L577.35,2134l-4.54,12.91-4.54,16.89-4.65,17-.9,8.31-.91,4.56-.7,6.37-.08,7.75,1.5,7.65,1.91,5.58,8.82,15.56,1.34,2.5.49,4.16-.33,1.83-2.66,5.74.08,1.5,5.91,34.79.83,4.08-1.9,9.51-3.21,7.45-1.49,1.72"/><path class="cls-5" d="M1274.32,275.57l-1.63,21.9-1,13c-.08,1.54-.32,3.12-.3,4.63a20.43,20.43,0,0,0,.45,4.31c.15.66.3,1.27.5,1.89a7.81,7.81,0,0,0,.94,1.9,16.26,16.26,0,0,0,2.78,3.17,26.68,26.68,0,0,0,6.15,4c1.16.56,2.37,1.09,3.54,1.64l2.58,1.38,8.07,4.3,16.14,8.59,32.29,17.2m-56.5-30.09-9.62,17.32-10.78,13c-3.83,4.6-7.52,9.28-11.29,13.92l-22.51,27.83-22.55,27.58c-3.8,4.47-7.64,8.88-11.49,13.3l-35.89-4.32-3.39-2.77c-3.63-2.94-7.24-5.9-10.83-9l-21.56-18.18-5.12-4.31L1093,455.28l1.18,2.83,7.4,17.74,3.7,8.86c1.22,3,2.45,5.92,3.8,8.81l15.75,35c5.36,11.62,10,23.52,15.36,35.14L1147.6,580l-12.1,11.8-3.08,3-3,2-5.71,2.27-3.9.81-3.68.75-9.36,1.18-8.07,2-5.11,2.2-5.12,2.81-8,5.47-6.64,5.88-.21.19-2.72,2.44-3.74,3.88-1.67,2.42-2.61,4.65-4.45,9.41-1.68,2.78-.41.7-8.87,9.09-6.72,6.08-4.25,4.08-4.27,3.12-4.79,2.43-2.64.94-1.66.59h-.52l-8.9,0-9.76.47-3.64.62-2.64,1.08-2.15,1.75-2.68,2.12L986,687.84l-2.17,2.64-3.68,2.74-4.68,2.43-3.87,1.46-3.2,1,1.95,9.19,1.94,10.3-.31,9.91c-.07,1.54,0,3.08,0,4.62l0,5.15-2.34,13.51-4.55,14.44-5.76,12.18L954.72,785c-1.51,2.4-3.11,4.73-4.66,7.1l-5.14,7.77L935.79,803l-10.63,16.08-.39.59-11.71,18.55L907.73,848l-4.18,9.37-4.81,23.06-7.6,40.34L885.75,936,881,946l-16.14,20-18.19,19.83L821,1011.44l-13.74,15-5.7,7.54-58.09,79.79-5.93,7.57-32.11,34.52-4.48,7.17-1.8,3.73-2.32,4.82-7.31,15.13-2.31,2.39-2.46,1.86-8.89,2.85-4.2,1.55-2.33,2.32-1.16,3.14-.83,5.2-3.37,34.72-2.41,56.54-1.9,7.77-2.86,10.47-2.69,11.57-.63,11.58.47,12.21,2.38,15.53-2.7,26.33-1,26.8.74,8.12.69,11.86,3.8,19.35,3.81,7.92,14.91,18.4,8.88,21.56,3.15,11.68,8.17,4.47,3,2.83.49.46,10.16,7.35,3.84,2.57,6.85,5.32,19.47,15.61,3.08,13.78-.79,10-.69,13.64,1.28,23,1.79,26.77,1.9,32.19v13.31l-2.36,12.11-4.31,13.83-10.3,29.88-.81,3.28,3.13,19.33,2.13,16.49,1.14,20.18-.57,24-12.47,29-3.22,7-8.18,16.31-4.94,11.6-5.12,10.57-7.46,21.31L691,1939.48l-5.26,30.28-3.27,10.94-7.1,11.94-5.12,6-15.91,13.93L638.66,2027l-5.26,8.17-11.91,25.33-7.38,12.91-6.24,7-10.37,13-11.21,19.72L577.35,2134l-4.54,12.91-4.54,16.89-4.65,17-.9,8.31-.91,4.56-.7,6.37-.08,7.75,1.5,7.65,1.91,5.58,8.82,15.56,1.34,2.5.49,4.16-.33,1.83-2.66,5.74.08,1.5,5.91,34.79.83,4.08-1.9,9.51-3.21,7.45-1.49,1.72"/></g><g id="まる"><path class="cls-6" d="M1049.06,525.5l-6.49,7.1-7.07,5-7.53,5.33-3.38,2.4-27,16.69-1.81,1.23-.85.57-5.76,3.89-10,8-7.91,8.62-9.19,14.12-3.29,8-2.1,4.12-3.16,8-1.71,6.15-1.65,8.48-.57,6-.12,6.9.56,6.52,5.08,29.77,1.59,19.47,2.19,8.06,1.61,8.59-.27,8.82c-.07,1.58,0,3.16,0,4.74l0,4.23-2,11.72L954.2,761l-2.55,5.4"/><line class="cls-3" x1="944.28" y1="779.53" x2="944.28" y2="779.53"/><polyline class="cls-7" points="917.81 757.96 917.47 756.29 917.19 754.49 920.99 740.79"/><line class="cls-3" x1="925.65" y1="723.67" x2="925.65" y2="723.67"/></g></g></g></svg>