<svg id="routes" xmlns="http://www.w3.org/2000/svg" xmlns:xlink="http://www.w3.org/1999/xlink" viewBox="0 0 1024 1024"><defs><style>.cls-1,.cls-3,.cls-4{fill:none;}.cls-2{clip-path:url(#clip-path);}.cls-3{stroke:#231815;stroke-width:8.79px;}.cls-3,.cls-4{stroke-linecap:round;stroke-miterlimit:10;}.cls-4{stroke:#ebca1b;stroke-width:4.4px;}</style><clipPath id="clip-path"><rect class="cls-1" x="89" y="-5116" width="11720" height="11720"/></clipPath></defs><title>3232_7144</title><g class="cls-2"><g id="日ノ丸線"><g id="勝部桑原"><path class="cls-3" d="M1274.32-1772.43l-1.63,21.9-1,13c-.08,1.54-.32,3.12-.3,4.63a20.43,20.43,0,0,0,.45,4.31c.15.66.3,1.27.5,1.89a7.81,7.81,0,0,0,.94,1.9,16.26,16.26,0,0,0,2.78,3.17,26.68,26.68,0,0,0,6.15,4c1.16.56,2.37,1.09,3.54,1.64l2.58,1.38,8.07,4.3,16.14,8.59,32.29,17.2m-56.5-30.09-9.62,17.32-10.78,13c-3.83,4.6-7.52,9.28-11.29,13.92l-22.51,27.83-22.55,27.58c-3.8,4.47-7.64,8.88-11.49,13.3l-35.89-4.32-3.39-2.77c-3.63-2.94-7.24-5.9-10.83-9l-21.56-18.18-5.12-4.31L1093-1592.72l1.18,2.83,7.4,17.74,3.7,8.86c1.22,3,2.45,5.92,3.8,8.81l15.75,35c5.36,11.62,10,23.52,15.36,35.14l7.41,16.38-12.1,11.8-3.08,3-3,2-5.71,2.27-3.9.81-3.68.75-9.36,1.18-8.07,2-5.11,2.2-5.12,2.81-8,5.47-6.64,5.88-.21.19-2.72,2.44-3.74,3.88-1.67,2.42-2.61,4.65-4.45,9.41-1.68,2.78-.41.7-8.87,9.09-6.72,6.08-4.25,4.08-4.27,3.12-4.79,2.43-2.64.94-1.66.59h-.52l-8.9,0-9.76.47-3.64.62-2.64,1.08-2.15,1.75-2.68,2.12-6.78,8.78-2.17,2.64-3.68,2.74-4.68,2.43-3.87,1.46-3.2,1,1.95,9.19,1.94,10.3-.31,9.91c-.07,1.54,0,3.08,0,4.62l0,5.15-2.34,13.51-4.55,14.44-5.76,12.18-4.66,7.55c-1.51,2.4-3.11,4.73-4.66,7.1l-5.14,7.77-9.13,3.15-10.63,16.08-.39.59-11.71,18.55-5.33,9.76-4.18,9.37-4.81,23.06-7.6,40.34L885.75-1112,881-1102l-16.14,20-18.19,19.83L821-1036.56l-13.74,15-5.7,7.54-58.09,79.79-5.93,7.57-32.11,34.52-4.48,7.17-1.8,3.73-2.32,4.82-7.31,15.13-2.31,2.39L684.71-857l-8.89,2.85-4.2,1.55-2.33,2.32-1.16,3.14-.83,5.2-3.37,34.72-2.41,56.54-1.9,7.77-2.86,10.47-2.69,11.57-.63,11.58.47,12.21,2.38,15.53-2.7,26.33-1,26.8.74,8.12.69,11.86,3.8,19.35,3.81,7.92,14.91,18.4,8.88,21.56,3.15,11.68,8.17,4.47,3,2.83.49.46,10.16,7.35,3.84,2.57,6.85,5.32,19.47,15.61,3.08,13.78-.79,10-.69,13.64,1.28,23,1.79,26.77,1.9,32.19v13.31l-2.36,12.11-4.31,13.83-10.3,29.88-.81,3.28,3.13,19.33,2.13,16.49,1.14,20.18-.57,24-12.47,29-3.22,7-8.18,16.31-4.94,11.6-5.12,10.57-7.46,21.31L691-108.52,685.7-78.24,682.43-67.3l-7.1,11.94-5.12,6L654.3-35.46,638.66-21l-5.26,8.17L621.49,12.49,614.11,25.4l-6.24,7-10.37,13L586.29,65.14,577.35,86l-4.54,12.91-4.54,16.89-4.65,16.95-.9,8.31-.91,4.56-.7,6.37-.08,7.75,1.5,7.65,1.91,5.58,8.82,15.56,1.34,2.5.49,4.16-.33,1.83-2.66,5.74.08,1.5,5.91,34.79.83,4.08-1.9,9.51-3.21,7.45-1.49,1.72"/><path class="cls-4" d="M1274.32-1772.43l-1.63,21.9-1,13c-.08,1.54-.32,3.12-.3,4.63a20.43,20.43,0,0,0,.45,4.31c.15.66.3,1.27.5,1.89a7.81,7.81,0,0,0,.94,1.9,16.26,16.26,0,0,0,2.78,3.17,26.68,26.68,0,0,0,6.15,4c1.16.56,2.37,1.09,3.54,1.64l2.58,1.38,8.07,4.3,16.14,8.59,32.29,17.2m-56.5-30.09-9.62,17.32-10.78,13c-3.83,4.6-7.52,9.28-11.29,13.92l-22.51,27.83-22.55,27.58c-3.8,4.47-7.64,8.88-11.49,13.3l-35.89-4.32-3.39-2.77c-3.63-2.94-7.24-5.9-10.83-9l-21.56-18.18-5.12-4.31L1093-1592.72l1.18,2.83,7.4,17.74,3.7,8.86c1.22,3,2.45,5.92,3.8,8.81l15.75,35c5.36,11.62,10,23.52,15.36,35.14l7.41,16.38-12.1,11.8-3.08,3-3,2-5.71,2.27-3.9.81-3.68.75-9.36,1.18-8.07,2-5.11,2.2-5.12,2.81-8,5.47-6.64,5.88-.21.19-2.72,2.44-3.74,3.88-1.67,2.42-2.61,4.65-4.45,9.41-1.68,2.78-.41.7-8.87,9.09-6.72,6.08-4.25,4.08-4.27,3.12-4.79,2.43-2.64.94-1.66.59h-.52l-8.9,0-9.76.47-3.64.62-2.64,1.08-2.15,1.75-2.68,2.12-6.78,8.78-2.17,2.64-3.68,2.74-4.68,2.43-3.87,1.46-3.2,1,1.95,9.19,1.94,10.3-.31,9.91c-.07,1.54,0,3.08,0,4.62l0,5.15-2.34,13.51-4.55,14.44-5.76,12.18-4.66,7.55c-1.51,2.4-3.11,4.73-4.66,7.1l-5.14,7.77-9.13,3.15-10.63,16.08-.39.59-11.71,18.55-5.33,9.76-4.18,9.37-4.81,23.06-7.6,40.34L885.75-1112,881-1102l-16.14,20-18.19,19.83L821-1036.56l-13.74,15-5.7,7.54-58.09,79.79-5.93,7.57-32.11,34.52-4.48,7.17-1.8,3.73-2.32,4.82-7.31,15.13-2.31,2.39L684.71-857l-8.89,2.85-4.2,1.55-2.33,2.32-1.16,3.14-.83,5.2-3.37,34.72-2.41,56.54-1.9,7.77-2.86,10.47-2.69,11.57-.63,11.58.47,12.21,2.38,15.53-2.7,26.33-1,26.8.74,8.12.69,11.86,3.8,19.35,3.81,7.92,14.91,18.4,8.88,21.56,3.15,11.68,8.17,4.47,3,2.83.49.46,10.16,7.35,3.84,2.57,6.85,5.32,19.47,15.61,3.08,13.78-.79,10-.69,13.64,1.28,23,1.79,26.77,1.9,32.19v13.31l-2.36,12.11-4.31,13.83-10.3,29.88-.81,3.28,3.13,19.33,2.13,16.49,1.14,20.18-.57,24-12.47,29-3.22,7-8.18,16.31-4.94,11.6-5.12,10.57-7.46,21.31L691-108.52,685.7-78.24,682.43-67.3l-7.1,11.94-5.12,6L654.3-35.46,638.66-21l-5.26,8.17L621.49,12.49,614.11,25.4l-6.24,7-10.37,13L586.29,65.14,577.35,86l-4.54,12.91-4.54,16.89-4.65,16.95-.9,8.31-.91,4.56-.7,6.37-.08,7.75,1.5,7.65,1.91,5.58,8.82,15.56,1.34,2.5.49,4.16-.33,1.83-2.66,5.74.08,1.5,5.91,34.79.83,4.08-1.9,9.51-3.21,7.45-1.49,1.72"/></g></g></g></svg>