<svg id="routes" xmlns="http://www.w3.org/2000/svg" xmlns:xlink="http://www.w3.org/1999/xlink" viewBox="0 0 1024 1024"><defs><style>.cls-1,.cls-3,.cls-4{fill:none;}.cls-2{clip-path:url(#clip-path);}.cls-3{stroke:#231815;stroke-width:8.79px;}.cls-3,.cls-4{stroke-linecap:round;stroke-miterlimit:10;}.cls-4{stroke:#ca2e34;stroke-width:4.4px;}</style><clipPath id="clip-path"><rect class="cls-1" x="-1959" y="-6140" width="11720" height="11720"/></clipPath></defs><title>3233_7146</title><g class="cls-2"><g id="日ノ丸線"><g id="松上"><path class="cls-3" d="M4084-2171.26c-2.9-.48-5.86-.85-8.8-1.28l-4.41-.63c-1.47-.22-2.93-.41-4.4-.51l-8.25-.72-18.2-2.67-9.29-1.38-4.65-.69c-.76-.11-1.6-.22-2.18-.35L4021-2180l-28.86-3.06-3.45-.36-3.56-.49-7.13-1c-4.83-.52-9.75-.89-14.63-1.35l-14.46-1.21-14.14-.84-7.06-.41-3.54-.21-.44,0-.28,0-.56-.05-.56,0-.81-.13-14.19-2.23-15.36-1.25-14.69-1.51-10.06-1L3855-2178.87,3842.56-2162l-9.93,12.56L3813.08-2124l-15.87,20.83-1.93,2.75-1.94,2-7.68,9.56-3.49,4.63-1.53,2.57-3.83,6-4.4,6.71-9.41,14.9-7.78,10-4.81,5.93-4.88,5.7L3735.24-2022l-9.57,8.71-5.15,5.3-16.09,16.66-5,5-14.83,18-3.51,4.25-3.65,4.39-6.16,7.41-3.14,3.78-9.18,10.63-8.87,10.47-3.29,4.08-13.65,14.76-4.44,5.11-9.26,10.14v0l-.71.9-5,6.14-8.46,9.88-27.92,30.63L3560-1826.47l-11.58,12.84-5.77,6.42-3.07,3.38-2.46,2.72-.16,1.48-36.81,21.92-52.1,31.08-58.36,33-37.86,21.24-1,.83-3.8,2.16-10.31,5-9.49,4L3315.2-1676l-7.42,2-9.55,3.68-2.4,1-1.17.76-1.08.58-1.19,1.57-1,1.66-6.1,17.59-.88,2.52-1.09,1.34-.38.48-3,1.79-4.41,1.71-6.42,1.82-5.8,1.94-5.67,2.48-7.22,3.69-7.43,4.79-10.83,7.24-7,5.52L3211-1601.22l-8.8,7.12-7.72,7.06-5.25,5.55-9.6,10.73-10.19,11-6.75,6.65-6.35,5.94-15.51,13.93-23.51,19-12.19,10.72-34.19,29.59-12.25,9.92L3024.71-1436l-26.93,21.91L2985.09-1404l-1,.78-6.38,3.8-5.12,1.77-15.21,3.4-15.23,3.55-14.42,4-14.93,4.38-14.41,4-16.37,4-6.73.65-9.63,1-5.61,1.28-2.89,1.29-4.47,2.57-7.38,5.8-18.75,17.54-5.71,7.88-7.36,9.13-3.92,4.42-3.19,5.48-1.92,5.28-1.42,5.71-.43,5.15,0,5.92-4,.25-3.24,1.54-3.24,2.91-6.06,4.66-18.27,12.41-4.66,4-7.71,6.28-10.27,9.67-1.75,2.26-1.61,4.34-2.21,8.88-2.42,9-3.51,9.52-3.71,8.7-1.12,2.57-4.17,8.06-3.37,6.44-1.43,2.42-5.6,9.18-4.55,5.81-19.4,24.83-10.56,15.32-3.77,5.35-.81,2-.36,1.9.21,1.62,1.05,2.11,1,2-8.12,6.91-6.82,8.86-9.75,22.85-8.37,27.1-5.45,14.16-2.26,4.17-4.47,7-9.63,10.65-4.28,7.16-1,3.29-.81,3.74-1.42,10.93v16.1l.31,3.09v4.83l-1.12,4.66-8.5,15.15-21,35.6-6.08,9.83-6.24,10-4,5.63L2551-865l-3.51,5.8L2544.9-854l-4.33,10.32-1.44,3.55-3.84,10.28-3.38,8.87-11.27,30.33-1.07,2.89-4.8,14.49-.49,5L2514-750.9l-.49,4.86-1.11,5.63-1.59,4.52-2.72,4.83-11.39,19.64-1.94,3.2-8.84,16.44-10.72,21.67-5.94,12-3.05,5.8-2.89,3.86-2.09,2.89-13,12.58-6.9,7.43-3.84,5-4,6.6-4.17,8.06-1.93,6.29.16,4,1.77,8,.47,4.2-.47,5.14-.33,1.29-2.72,8.71-3.21,6.27-3.68,6-2.73,3.72-8.66,8.72-20.52,19-14.74,15.46-17.66,18.84-8.8,10.32-4,4.34-10.59,9.21h0l-19.9,16.61-5.14,5.15-2.23,2.89-1.45,3.85-.79,9.83-.63,2.61-1.15,2.57-3.18,4.8-1.94,1.78-15.2,13.2-10.6,7.55-4.48,2.12-3.53,1.28-3.68,1.11-9.62,1.63H2232l-15.06-.82-11.53-.09-2.58.43-7.23,2.4-7.38,2.74-8,2.26-6.73,1.29-19.23,4.83-12.67,4-5.32,3.23-6.1,4.83-12.95,14.18-5.12,5-3.38,2.75-31.3,21.12-13.62,7.72-9.93,6.43-9.12,8.2-3,2.6-6.73,4.34-13.3,6.92-9.48,3.87-3.35,2.11-4.17,3.06-4.17,3.37-2.56,2-2.24,1.74-1,.48-4.66-2.8-1.47-.08-1.86.68L1973-258.17l-12.35,11.46-9.94,8.21L1935.35-224l-3.84,2.09-1.91.65-4.14,1.35-4.83,1.57-3.88,2.22-11.71,7.9-4,2.14-10.47,1.4-10.38,2.75-7.89,2.56-5.94,3.24-1.42,1-8.32,6.74-8,6.92-18.75,18.09-17.14,16.72-5.31,6.63-11.37,17.24-6.42,8.52L1755.17-72.9l-4.4,4.46-5.59,4.49-9.66,6.33-15.26,6.82-10.34,5.72-9,8.07-4.63,4.74-1.9,1.63-1.91,2.5-6.83,10.87L1676-4.15l-7.41,7.49-5.11,2.06-4.8,1-6.87,1.92L1641.31,10l-17.61-.66-13.16-.14L1599,10l-64.45,7.4-4.16.63-7.53,1-8.5,2.12L1503.16,26,1491,31.76l-19.89,8.69-12.18,5-50.14,18.29-4,1.49-2.91-4.46-4.36-4.35-5.1-5.79-1.74-.41-1.61.23-3.4,1.14-10.25,4.66-5.59,2.26-4.84,2h-4.47L1355.83,59l-6.12-2.58-4-1.45-1.77-.52-1.91.38-2.1,1.11-5.12,4L1329,64.11l-5,2.92-21.78,10.14L1295.87,81l-5.95,5.49-3.74,3.34-2.33,1.52-3.17,1.86-6.78-1.75-6.08-1.12-8.66-1-5-.24-5.26.41-6.73,1-8,2.23-9.16,3-8,3.23-6.24,3.06-5.45,3.4-6.1,4.35-17,14.11-10.76,8.92-17.86,14.17-3.49,4.49-3,1.29-3.2.66-17.3.31-5.45.32L1105.9,158l-10.41,2.57-4.34,1.29-5.91,2.25-9.32,5.32-4.66,3.38-8.15,6.91-12,13.54-4.49,4.52-5.28,4.49-3.52,2.11-7.2,3.69-6.73,2.91-5.29,2.74-40.52,26.9-2.84,2-6.45,4.57L958,254.78l-15,10.63-7.9,5.43-4.1,2.8-4,2.58-5.12,2.39-23.55,7.58-5.12,1.94L887.44,291l-5,3.23-2.7,1.63-3.87,2.88-3.51,3.06-9,9.17-8,10.32-7.85,10.8L841,340l-11.85,6.77-13.6,6.14-7.39,4.18-3.81,2.54L800,362.52l-4,3.54L793.26,369l-2.09,3.38-.63,2.08-1.4,8.83-4.51,28.52-.5,3.11-6.57,33.49-5.44,27-.33.49L766,506l-1.89,9.17-.91,1.69-2,1.23-5.82,2-6,2.18-9,4.68L728.54,534l-10.1,6.6-5.92,3.68L706,548.19"/><path class="cls-4" d="M4084-2171.26c-2.9-.48-5.86-.85-8.8-1.28l-4.41-.63c-1.47-.22-2.93-.41-4.4-.51l-8.25-.72-18.2-2.67-9.29-1.38-4.65-.69c-.76-.11-1.6-.22-2.18-.35L4021-2180l-28.86-3.06-3.45-.36-3.56-.49-7.13-1c-4.83-.52-9.75-.89-14.63-1.35l-14.46-1.21-14.14-.84-7.06-.41-3.54-.21-.44,0-.28,0-.56-.05-.56,0-.81-.13-14.19-2.23-15.36-1.25-14.69-1.51-10.06-1L3855-2178.87,3842.56-2162l-9.93,12.56L3813.08-2124l-15.87,20.83-1.93,2.75-1.94,2-7.68,9.56-3.49,4.63-1.53,2.57-3.83,6-4.4,6.71-9.41,14.9-7.78,10-4.81,5.93-4.88,5.7L3735.24-2022l-9.57,8.71-5.15,5.3-16.09,16.66-5,5-14.83,18-3.51,4.25-3.65,4.39-6.16,7.41-3.14,3.78-9.18,10.63-8.87,10.47-3.29,4.08-13.65,14.76-4.44,5.11-9.26,10.14v0l-.71.9-5,6.14-8.46,9.88-27.92,30.63L3560-1826.47l-11.58,12.84-5.77,6.42-3.07,3.38-2.46,2.72-.16,1.48-36.81,21.92-52.1,31.08-58.36,33-37.86,21.24-1,.83-3.8,2.16-10.31,5-9.49,4L3315.2-1676l-7.42,2-9.55,3.68-2.4,1-1.17.76-1.08.58-1.19,1.57-1,1.66-6.1,17.59-.88,2.52-1.09,1.34-.38.48-3,1.79-4.41,1.71-6.42,1.82-5.8,1.94-5.67,2.48-7.22,3.69-7.43,4.79-10.83,7.24-7,5.52L3211-1601.22l-8.8,7.12-7.72,7.06-5.25,5.55-9.6,10.73-10.19,11-6.75,6.65-6.35,5.94-15.51,13.93-23.51,19-12.19,10.72-34.19,29.59-12.25,9.92L3024.71-1436l-26.93,21.91L2985.09-1404l-1,.78-6.38,3.8-5.12,1.77-15.21,3.4-15.23,3.55-14.42,4-14.93,4.38-14.41,4-16.37,4-6.73.65-9.63,1-5.61,1.28-2.89,1.29-4.47,2.57-7.38,5.8-18.75,17.54-5.71,7.88-7.36,9.13-3.92,4.42-3.19,5.48-1.92,5.28-1.42,5.71-.43,5.15,0,5.92-4,.25-3.24,1.54-3.24,2.91-6.06,4.66-18.27,12.41-4.66,4-7.71,6.28-10.27,9.67-1.75,2.26-1.61,4.34-2.21,8.88-2.42,9-3.51,9.52-3.71,8.7-1.12,2.57-4.17,8.06-3.37,6.44-1.43,2.42-5.6,9.18-4.55,5.81-19.4,24.83-10.56,15.32-3.77,5.35-.81,2-.36,1.9.21,1.62,1.05,2.11,1,2-8.12,6.91-6.82,8.86-9.75,22.85-8.37,27.1-5.45,14.16-2.26,4.17-4.47,7-9.63,10.65-4.28,7.16-1,3.29-.81,3.74-1.42,10.93v16.1l.31,3.09v4.83l-1.12,4.66-8.5,15.15-21,35.6-6.08,9.83-6.24,10-4,5.63L2551-865l-3.51,5.8L2544.9-854l-4.33,10.32-1.44,3.55-3.84,10.28-3.38,8.87-11.27,30.33-1.07,2.89-4.8,14.49-.49,5L2514-750.9l-.49,4.86-1.11,5.63-1.59,4.52-2.72,4.83-11.39,19.64-1.94,3.2-8.84,16.44-10.72,21.67-5.94,12-3.05,5.8-2.89,3.86-2.09,2.89-13,12.58-6.9,7.43-3.84,5-4,6.6-4.17,8.06-1.93,6.29.16,4,1.77,8,.47,4.2-.47,5.14-.33,1.29-2.72,8.71-3.21,6.27-3.68,6-2.73,3.72-8.66,8.72-20.52,19-14.74,15.46-17.66,18.84-8.8,10.32-4,4.34-10.59,9.21h0l-19.9,16.61-5.14,5.15-2.23,2.89-1.45,3.85-.79,9.83-.63,2.61-1.15,2.57-3.18,4.8-1.94,1.78-15.2,13.2-10.6,7.55-4.48,2.12-3.53,1.28-3.68,1.11-9.62,1.63H2232l-15.06-.82-11.53-.09-2.58.43-7.23,2.4-7.38,2.74-8,2.26-6.73,1.29-19.23,4.83-12.67,4-5.32,3.23-6.1,4.83-12.95,14.18-5.12,5-3.38,2.75-31.3,21.12-13.62,7.72-9.93,6.43-9.12,8.2-3,2.6-6.73,4.34-13.3,6.92-9.48,3.87-3.35,2.11-4.17,3.06-4.17,3.37-2.56,2-2.24,1.74-1,.48-4.66-2.8-1.47-.08-1.86.68L1973-258.17l-12.35,11.46-9.94,8.21L1935.35-224l-3.84,2.09-1.91.65-4.14,1.35-4.83,1.57-3.88,2.22-11.71,7.9-4,2.14-10.47,1.4-10.38,2.75-7.89,2.56-5.94,3.24-1.42,1-8.32,6.74-8,6.92-18.75,18.09-17.14,16.72-5.31,6.63-11.37,17.24-6.42,8.52L1755.17-72.9l-4.4,4.46-5.59,4.49-9.66,6.33-15.26,6.82-10.34,5.72-9,8.07-4.63,4.74-1.9,1.63-1.91,2.5-6.83,10.87L1676-4.15l-7.41,7.49-5.11,2.06-4.8,1-6.87,1.92L1641.31,10l-17.61-.66-13.16-.14L1599,10l-64.45,7.4-4.16.63-7.53,1-8.5,2.12L1503.16,26,1491,31.76l-19.89,8.69-12.18,5-50.14,18.29-4,1.49-2.91-4.46-4.36-4.35-5.1-5.79-1.74-.41-1.61.23-3.4,1.14-10.25,4.66-5.59,2.26-4.84,2h-4.47L1355.83,59l-6.12-2.58-4-1.45-1.77-.52-1.91.38-2.1,1.11-5.12,4L1329,64.11l-5,2.92-21.78,10.14L1295.87,81l-5.95,5.49-3.74,3.34-2.33,1.52-3.17,1.86-6.78-1.75-6.08-1.12-8.66-1-5-.24-5.26.41-6.73,1-8,2.23-9.16,3-8,3.23-6.24,3.06-5.45,3.4-6.1,4.35-17,14.11-10.76,8.92-17.86,14.17-3.49,4.49-3,1.29-3.2.66-17.3.31-5.45.32L1105.9,158l-10.41,2.57-4.34,1.29-5.91,2.25-9.32,5.32-4.66,3.38-8.15,6.91-12,13.54-4.49,4.52-5.28,4.49-3.52,2.11-7.2,3.69-6.73,2.91-5.29,2.74-40.52,26.9-2.84,2-6.45,4.57L958,254.78l-15,10.63-7.9,5.43-4.1,2.8-4,2.58-5.12,2.39-23.55,7.58-5.12,1.94L887.44,291l-5,3.23-2.7,1.63-3.87,2.88-3.51,3.06-9,9.17-8,10.32-7.85,10.8L841,340l-11.85,6.77-13.6,6.14-7.39,4.18-3.81,2.54L800,362.52l-4,3.54L793.26,369l-2.09,3.38-.63,2.08-1.4,8.83-4.51,28.52-.5,3.11-6.57,33.49-5.44,27-.33.49L766,506l-1.89,9.17-.91,1.69-2,1.23-5.82,2-6,2.18-9,4.68L728.54,534l-10.1,6.6-5.92,3.68L706,548.19"/></g></g></g></svg>