<svg id="_15zoom" data-name="15zoom" xmlns="http://www.w3.org/2000/svg" xmlns:xlink="http://www.w3.org/1999/xlink" viewBox="0 0 1024 1024"><defs><style>.cls-1,.cls-17,.cls-4,.cls-9{fill:#231815;}.cls-1,.cls-12,.cls-18,.cls-2,.cls-3,.cls-6,.cls-8{stroke:#231815;}.cls-1,.cls-12,.cls-18,.cls-2,.cls-3,.cls-6,.cls-7,.cls-8{stroke-miterlimit:10;}.cls-1,.cls-12,.cls-3{stroke-width:2.4px;}.cls-11,.cls-15,.cls-2,.cls-3{fill:#fff;}.cls-18,.cls-2{stroke-width:2px;}.cls-4{font-size:18px;}.cls-11,.cls-17,.cls-4{font-family:NotoSansMonoCJKjp-Regular-90ms-RKSJ-H, Noto Sans Mono CJK JP;}.cls-5{font-size:12px;}.cls-12,.cls-18,.cls-19,.cls-6,.cls-7,.cls-8{fill:none;}.cls-6,.cls-7{stroke-linecap:round;}.cls-6{stroke-width:5.27px;}.cls-7{stroke:#187fc4;stroke-width:2.64px;}.cls-8{stroke-width:3px;}.cls-10{clip-path:url(#clip-path);}.cls-11{font-size:28.8px;}.cls-13{letter-spacing:0.22em;}.cls-14{letter-spacing:0.5em;}.cls-16{clip-path:url(#clip-path-2);}.cls-17{font-size:15px;}</style><clipPath id="clip-path"><path id="_クリッピングパス_" data-name="&lt;クリッピングパス&gt;" class="cls-1" d="M974.21,327.86a15,15,0,0,0-15,15h0a15,15,0,0,0,15,15h21v-30Z"/></clipPath><clipPath id="clip-path-2"><rect id="_長方形_" data-name="&lt;長方形&gt;" class="cls-2" x="530.19" y="766.41" width="180" height="50"/></clipPath></defs><title>3231_7147</title><rect id="_長方形_2" data-name="&lt;長方形&gt;" class="cls-3" x="834" y="416.84" width="240" height="60"/><text class="cls-4" transform="translate(926.95 440.31)">吉岡線<tspan class="cls-5"><tspan x="-45" y="16.32">(local bus)Yoshioka line</tspan></tspan></text><line class="cls-6" x1="894" y1="464.84" x2="1014" y2="464.84"/><line class="cls-7" x1="894" y1="464.84" x2="1014" y2="464.84"/><line class="cls-8" x1="954" y1="476.84" x2="1010.98" y2="542.61"/><path class="cls-9" d="M1022.83,556.29c-8-4.37-19-8.83-27.57-10l14.16-5.44,7.4-13.24C1016.79,536.26,1019.64,547.78,1022.83,556.29Z"/><path id="_クリッピングパス_2" data-name="&lt;クリッピングパス&gt;" class="cls-9" d="M974.21,327.86a15,15,0,0,0-15,15h0a15,15,0,0,0,15,15h21v-30Z"/><g class="cls-10"><text class="cls-11" transform="translate(965.76 352.44)">90</text></g><path id="_クリッピングパス_3" data-name="&lt;クリッピングパス&gt;" class="cls-12" d="M974.21,327.86a15,15,0,0,0-15,15h0a15,15,0,0,0,15,15h21v-30Z"/><path class="cls-3" d="M1184.21,327.86h-189v30h189a15,15,0,0,0,15-15h0A15,15,0,0,0,1184.21,327.86Z"/><text class="cls-4" transform="translate(1007.16 349.7)"><tspan class="cls-13">吉岡温</tspan><tspan class="cls-14" x="66" y="0">泉</tspan><tspan class="cls-5" x="93" y="-2.28">Yoshioka Onsen</tspan></text><rect id="_長方形_3" data-name="&lt;長方形&gt;" class="cls-15" x="530.19" y="766.41" width="180" height="50"/><g class="cls-16"><text class="cls-17" transform="translate(597.69 785.15)">吉岡線<tspan x="-7.5" y="20">洞谷経由</tspan></text></g><rect id="_長方形_4" data-name="&lt;長方形&gt;" class="cls-18" x="530.19" y="766.41" width="180" height="50"/><line class="cls-8" x1="620.19" y1="816.41" x2="678.92" y2="873.91"/><path class="cls-9" d="M691.86,886.58c-8.3-3.7-19.62-7.24-28.3-7.74l13.67-6.59,6.29-13.8C684.2,867.12,688,878.36,691.86,886.58Z"/><rect class="cls-19" x="-2983" y="-4092" width="11720" height="11720"/></svg>