<svg id="_15zoom" data-name="15zoom" xmlns="http://www.w3.org/2000/svg" viewBox="0 0 1024 1024"><defs><style>.cls-1,.cls-4{fill:#231815;}.cls-2,.cls-9{fill:none;}.cls-2,.cls-3{stroke:#231815;stroke-miterlimit:10;stroke-width:2.4px;}.cls-3{fill:#fff;}.cls-4{font-size:18px;font-family:NotoSansMonoCJKjp-Regular-90ms-RKSJ-H, Noto Sans Mono CJK JP;}.cls-5{letter-spacing:1.11em;}.cls-6{letter-spacing:0.61em;}.cls-7,.cls-8{font-size:12px;}.cls-7{letter-spacing:0.17em;}</style></defs><title>3234_7147</title><path id="_クリッピングパス_" data-name="&lt;クリッピングパス&gt;" class="cls-1" d="M940.67,151.25a15,15,0,0,0-15,15h0a15,15,0,0,0,15,15h21v-30Z"/><path id="_クリッピングパス_2" data-name="&lt;クリッピングパス&gt;" class="cls-2" d="M940.67,151.25a15,15,0,0,0-15,15h0a15,15,0,0,0,15,15h21v-30Z"/><path class="cls-3" d="M1150.67,151.25h-189v30h189a15,15,0,0,0,15-15h0A15,15,0,0,0,1150.67,151.25Z"/><text class="cls-4" transform="translate(991.67 173.09)"><tspan class="cls-5">北</tspan><tspan class="cls-6" x="38" y="0">村</tspan><tspan class="cls-7" x="67" y="-2.28">Kitamur</tspan><tspan class="cls-8" x="123" y="-2.28">a</tspan></text><rect class="cls-9" x="-2983" y="-7164" width="11720" height="11720"/></svg>