<svg id="_15zoom" data-name="15zoom" xmlns="http://www.w3.org/2000/svg" xmlns:xlink="http://www.w3.org/1999/xlink" viewBox="0 0 1024 1024"><defs><style>.cls-1,.cls-10,.cls-2,.cls-21,.cls-22,.cls-23,.cls-24{fill:#fff;}.cls-1,.cls-10,.cls-2,.cls-21,.cls-22,.cls-23,.cls-27,.cls-5,.cls-7,.cls-9{stroke:#231815;}.cls-1,.cls-10,.cls-2,.cls-21,.cls-22,.cls-23,.cls-27,.cls-29,.cls-30,.cls-31,.cls-32,.cls-5,.cls-6,.cls-7,.cls-9{stroke-miterlimit:10;}.cls-1,.cls-27{stroke-width:2px;}.cls-2{stroke-width:2.4px;}.cls-3{font-size:18px;}.cls-11,.cls-3,.cls-8{fill:#231815;}.cls-11,.cls-3{font-family:NotoSansMonoCJKjp-Regular-90ms-RKSJ-H, Noto Sans Mono CJK JP;}.cls-4{font-size:12px;}.cls-27,.cls-29,.cls-30,.cls-31,.cls-32,.cls-33,.cls-5,.cls-6,.cls-7,.cls-9{fill:none;}.cls-5,.cls-6{stroke-linecap:round;}.cls-5{stroke-width:5.27px;}.cls-6{stroke:#00ada9;stroke-width:2.64px;}.cls-7{stroke-width:3px;}.cls-10,.cls-9{stroke-width:2.4px;}.cls-11{font-size:15px;}.cls-12{letter-spacing:-0.03em;}.cls-13{letter-spacing:-0.06em;}.cls-14{letter-spacing:-0.02em;}.cls-15{letter-spacing:-0.02em;}.cls-16{letter-spacing:-0.03em;}.cls-17{letter-spacing:-0.02em;}.cls-18{letter-spacing:-0.05em;}.cls-19{letter-spacing:0.26em;}.cls-20{font-size:9px;}.cls-21{stroke-width:4px;}.cls-22{stroke-width:2.4px;}.cls-23{stroke-width:4px;}.cls-25{clip-path:url(#clip-path);}.cls-26{letter-spacing:0.25em;}.cls-28{opacity:0.5;}.cls-29,.cls-30,.cls-31,.cls-32{stroke:#e60012;stroke-width:20px;}.cls-29{stroke-dasharray:9.96 9.96;}.cls-31{stroke-dasharray:9.97 9.97;}.cls-32{stroke-dasharray:10.04 10.04;}</style><clipPath id="clip-path"><rect id="_長方形_" data-name="&lt;長方形&gt;" class="cls-1" x="12.23" y="573" width="180" height="50"/></clipPath></defs><title>3235_7147</title><rect id="_長方形_2" data-name="&lt;長方形&gt;" class="cls-2" x="189.58" y="646.39" width="240" height="60"/><text class="cls-3" transform="translate(282.58 669.87)">佐治線<tspan class="cls-4"><tspan x="-33" y="16.32">(local bus)Saji line</tspan></tspan></text><line class="cls-5" x1="249.58" y1="694.39" x2="369.58" y2="694.39"/><line class="cls-6" x1="249.58" y1="694.39" x2="369.58" y2="694.39"/><line class="cls-7" x1="309.58" y1="706.4" x2="316.71" y2="738.84"/><path class="cls-8" d="M320.6,756.52c-4.92-7.64-12.45-16.81-19.44-22l15,2,12.83-8.1C324.85,736,321.85,747.52,320.6,756.52Z"/><path id="_クリッピングパス_" data-name="&lt;クリッピングパス&gt;" class="cls-8" d="M754.84,725a15,15,0,0,0-15,15h0a15,15,0,0,0,15,15h21V725Z"/><path id="_クリッピングパス_2" data-name="&lt;クリッピングパス&gt;" class="cls-9" d="M754.84,725a15,15,0,0,0-15,15h0a15,15,0,0,0,15,15h21V725Z"/><path class="cls-10" d="M964.84,725h-189v30h189a15,15,0,0,0,15-15h0A15,15,0,0,0,964.84,725Z"/><text class="cls-11" transform="translate(775.58 744.2)"><tspan class="cls-12">佐</tspan><tspan class="cls-13" x="14.48" y="0">治</tspan><tspan class="cls-14" x="28.57" y="0">町</tspan><tspan class="cls-15" x="43.24" y="0">総</tspan><tspan class="cls-16" x="57.88" y="0">合</tspan><tspan class="cls-17" x="72.47" y="0">支</tspan><tspan class="cls-18" x="87.11" y="0">所</tspan><tspan class="cls-19" x="101.44" y="0">前</tspan><tspan class="cls-20" x="120.28" y="-2.28">(Saji Town Office)</tspan></text><line class="cls-10" x1="845" y1="675" x2="871.84" y2="725"/><circle class="cls-21" cx="841" cy="679" r="10"/><line class="cls-22" x1="25.23" y1="724.94" x2="-136.61" y2="807.01"/><circle class="cls-23" cx="25.23" cy="724.94" r="10"/><rect id="_長方形_3" data-name="&lt;長方形&gt;" class="cls-24" x="12.23" y="573" width="180" height="50"/><g class="cls-25"><text class="cls-11" transform="translate(42.23 591.74)">佐治線フリー乗降<tspan x="7.5" y="20">栃</tspan><tspan class="cls-26" x="22.5" y="20">原-</tspan><tspan x="52.5" y="20">中学校前</tspan></text></g><rect id="_長方形_4" data-name="&lt;長方形&gt;" class="cls-27" x="12.23" y="573" width="180" height="50"/><g id="佐治4"><g class="cls-28"><polyline class="cls-29" points="-1288.74 880.37 -1283.98 878.07 -1278.88 876.1 -1276.88 875.13 -1272.25 873.99 -1268.29 873.73 -1266.59 873.85 -1263.37 874.33 -1257.78 875.96 -1243.23 882.55 -1240.01 883.52 -1235.07 883.98 -1232.82 883.52 -1226.9 881.9 -1218.91 878.53 -1214.23 877.02 -1209.94 876.67 -1207.71 876.9 -1203.21 877.7 -1197.79 879.5 -1193.06 880.64 -1187.59 881.47 -1183.24 881.41 -1180.67 880.93 -1177.95 879.7 -1175.71 878.18 -1171.77 875.05 -1169 872.34 -1168.42 871.39 -1167.14 869.54 -1163.72 862.29 -1160.83 856.32 -1158.43 853.1 -1153.96 849.25 -1149.63 846.36 -1138.43 841.05 -1129.95 837.68 -1123.24 835.75 -1120.98 835.26 -1120.03 835.09 -1109.97 835.09 -1104.68 835.57 -1097.48 836.71 -1090.12 837.83 -1080.86 838.17 -1077.34 837.51 -1067.91 835.26 -1058.59 832.2 -1050.6 830.44 -1049.04 830.18 -1044.71 829.46 -1035.12 828.49 -1028.38 828.01 -1024.4 828.01 -1022.49 828.06 -999.95 827.61 -994.97 827.15 -988.44 826.04 -984.95 825.04 -978.43 822.58 -970.39 818.84 -964.36 815.56 -959.48 811.93 -957.65 809.85 -955.75 806.77 -943.1 782.16 -939.73 775.57 -937.02 770.92 -935.27 769.12 -933.76 768.44 -931.66 768.29 -927.13 770.06 -916.08 777.31 -912.94 778.99 -899.59 784.71 -892.07 784.01 -885.18 781.38 -878.37 777.82 -874.96 774.57 -871.71 766.04 -868.15 758.92 -863.5 755.28 -857.69 753.11 -848.4 752.1 -842.93 750.6 -837.77 747.85 -827.87 739.92 -824.02 737.4 -813.38 733.15 -805.54 729.76 -792.42 721.08 -790.46 719.97 -786.57 719.27 -783.34 719.39 -779.03 719.97 -762.87 722.53 -746.6 723.82 -734.65 721.92 -728.82 719.85 -727.42 719.28 -725.44 718.22 -723.23 716.94 -720.67 715.06 -717.36 712.57 -711.12 707.09 -707.95 703.61 -706.11 701.13 -700.22 691.56 -692.04 675.98 -689.83 672.52 -687.44 669.55 -680.28 665.16 -665.28 664.83 -654.62 663.5 -635.78 656 -622.45 647.5 -615.9 644.11 -612.39 642.29 -609.5 641.56 -597.4 641.27 -588.27 644.43 -580 650.17 -574.67 654.14 -571.41 656.79 -566.52 664.78 -564.42 667.44 -562.51 669.27 -559.65 670.89 -557.74 671.52 -555.17 671.87 -550.82 671.87 -539.28 670.74 -514.84 668.35 -497.07 667.32 -488.69 668.41 -474.3 671.64 -467.94 672 -460.28 671.04 -452.66 668.35 -443.25 664.04 -425.39 655.98 -418.39 654.52 -387.29 657.77 -381.27 657.94 -375.09 655.65 -369.71 652.07 -363.53 646.86 -362.38 640.19 -372.97 601.28 -371.51 596.88 -368.25 593.63 -362.06 592.33 -343.34 592.65 -323.56 589.48 -285.28 583.63 -260.42 568.84 -252.64 566.85 -245.01 568.84 -235.86 573.1 -229.96 574.94 -224.76 575.34 -217.71 574.48 -211.31 575.4 -208.68 578.48 -206.68 580.71 -198.95 595.99 -165.84 619.02 -159.9 624.51 -154.86 631.99 -150.44 642.97 -145.87 666.92 -143.12 681.25 -140.22 685.98 -133.97 692.08 -125.05 696.45 -118.87 697.73 -113.68 697.88 -106.82 695.29 -101.48 691.94 -95.23 682.32 -86.86 671.96 -74.39 660.03 -59.64 645.93 -55.65 643.13 -49.92 642.69 -45.5 643.34 -41.5 645.93 -38.04 649.5 -16.61 686.17 -1.59 710.27 -0.47 712.07 8.47 719.83 17.22 724.11 22.91 725.39 67.02 720.92 71.85 719.37 75.5 715.81 78.05 710.52 80.16 700.22 83.35 692.74 87.18 689.18 92.28 684.89 97.12 682.52 102.5 681.89 125.3 684.25 139.16 686.26 144.09 688.54 152 695.73 158.04 700.94 160.41 710.16 158.88 751.23 161.04 755.1 163.64 759.78 168.44 764.92 172.28 768.46 174.12 769.55 176.8 770.61 186.84 773.6 191.59 775.51 194.03 777.25 195.08 778.31 197.25 782.14 204.6 805 205.89 807.83 207.47 810.31 209.61 812.13 211.94 813.68 214.36 814.34 216.43 814.65 221.59 814.73 226.12 813.42 229.27 812.39 233.39 810.31 237.56 807.4 254.03 794.21 259.31 790.52 270.02 781.19 275.29 776.37 288.4 765.24 299.78 759.12 305.51 758.39 310.69 757.75"/><polyline class="cls-30" points="315.64 757.14 320.6 756.52 323.4 760.67"/><polyline class="cls-31" points="331.39 766.44 335.93 768.49 340.26 769.29 348.07 769.27 360.11 767.35 370.65 764.61 380.09 761.24 395.93 754.31 427.53 738.69 432.88 736.01 438.63 733.07 441.04 731.64 449.91 726.39 452.8 724.36 456.43 721.56 471.73 710.72 477.18 706.21 481.51 702.95 490.13 697.84 499.09 693.5 512.23 687.85 514.63 686.9 517.62 685.65 521.82 684.17 531.12 680.8 540.39 678.23 545.74 677.57 552.22 676.78 560.06 675.66 564.47 675.43 569.99 675.32 576.23 675.98 584.87 677.43 594.79 679.49 601.49 681.09 610.3 683.34 621.71 684.88 632.05 686.08 639.85 686.73 647.42 687.2 661.49 687.2 666.77 686.71 678.3 686.4 693.16 686.08 703.22 685.42 709.18 685.59 713.12 686.31 717.78 687.71 724.98 690.9 729.89 692.02 733.13 692.85 737.23 692.96 739.55 692.85 759.86 686.71 762.91 686.08 766.99 685.94 787.72 686.08 796.84 684.94 800.99 684.14 805.02 682.74 815.41 679.15 822.27 676.58 824.05 675.95 830.59 674.49 835.25 673.84 836.54 673.77"/><polyline class="cls-30" points="841.52 673.53 841.79 673.52 846.52 673.55 846.52 673.54 850.24 673.54 851.51 673.62"/><polyline class="cls-32" points="861.54 674.2 863.54 674.32 872.83 674.97 878.12 674.95 883.48 674.37 903.83 669.92 907.56 668.75 911.17 667.12 918.71 663.61 923.91 661.38 927.78 659.91 931.85 658.07 941.14 653.57 951.23 649.05 956.05 646.68 959.21 644.88 962.59 642.94 980.83 633.29 991.84 628.33 1011.83 620.76 1019.51 618.34 1026.7 615.71 1045.88 608.91 1053.52 604.48 1064.18 602.16 1076.29 599.83 1089.29 596.5 1104.47 592.67 1113.62 590.15 1124.32 587.9 1133.32 585.53 1139.49 583.22 1147.04 580.54 1148.97 580.06 1159.76 577.11 1172.8 575.4 1177.55 575.4 1182.09 575.4 1182.95 575.63 1184.95 576.2 1190.87 577.97 1193.6 578.6 1197.28 579.4 1206.24 581.34 1208.47 581.45 1213.43 582.36 1224.8 583.05 1228.9 583.42 1240.44 593.94 1245.07 595.54 1250.02 594.74 1270.13 585.64 1299.84 570.47 1304.14 570.15 1314.85 571.43 1322.83 571.27 1337.84 566.48 1387.18 546.84 1411.29 532.63 1415.35 531.95 1427.57 537.5 1456.37 546.61 1459.17 547.5 1463.89 546.84 1468.21 545.58 1479.37 543.31 1490.18 540.35 1500.2 536.25 1506.69 533.18 1514.78 527.03 1530.87 514.08 1538.23 508.36 1545.52 504.71 1560.89 497.88 1566.24 497.43 1573.29 498.22 1605.25 517.13 1612.31 518.87 1621.63 519.13 1639.08 513.67 1669.3 498.75 1683.14 490.1 1698.73 475.31 1717.37 466.66 1737.88 454.94 1746.74 449.34 1752.79 443.23 1760.87 437.91 1763.31 436.3 1773.96 428.71 1780.89 424.18 1795.53 420.99 1801.19 419.02 1829.14 404.76 1836.23 400.61 1847.11 391.64 1883.16 353.46 1889.38 347.95 1907.23 335.2 1944.55 314.26 1997.81 287 2009.11 284.01 2033.25 284.83 2061.78 285.79 2068.44 286.82 2127.03 306.8 2147.6 306.21 2154.25 307.24 2172.14 317.2 2192.37 326.2 2206.04 328.4 2226.9 326.48 2271.27 320.55 2285.04 319.52 2300.73 320.41 2317.15 323.08 2334.45 328.03 2339 332.22 2361.29 350.92 2383.55 381.82 2385.27 384.41 2390.73 390.23 2403.14 401.2 2412.97 409.32 2432.64 420.87 2436.6 423.39 2451.88 431.27 2468.28 440.1 2479.67 441.96 2494.49 442.11 2504.84 441.47 2518.57 437.4 2521.21 436.69 2529.73 435 2538.44 432.54 2552.05 428.6 2555.22 427.58 2573.91 422.11 2590.43 417.04 2599.18 414.31 2609.68 411.25 2614.8 409.69 2615.68 409.46 2630.3 405.85 2636.26 404.37 2651.84 400.67 2670.91 395.99 2682.59 393.22 2693.57 390.45 2725.08 383.52 2731.66 381.16 2737.2 377.89 2742.49 374.22 2750.58 367.59 2754.74 363.39 2768.88 348.75 2771.42 346.67 2775.81 344.31 2780.88 342.13 2782.5 341.44 2807.75 333.62 2818.05 330.3"/></g></g><rect class="cls-33" x="-2983" y="-8188" width="11720" height="11720"/></svg>