<svg id="routes" xmlns="http://www.w3.org/2000/svg" xmlns:xlink="http://www.w3.org/1999/xlink" viewBox="0 0 1024 1024"><defs><style>.cls-1,.cls-3,.cls-4,.cls-5,.cls-6,.cls-7,.cls-8{fill:none;}.cls-2{clip-path:url(#clip-path);}.cls-3,.cls-8{stroke:#231815;}.cls-3,.cls-4,.cls-5,.cls-6,.cls-7,.cls-8{stroke-linecap:round;stroke-miterlimit:10;}.cls-3,.cls-7{stroke-width:8.79px;}.cls-4{stroke:#985d1b;}.cls-4,.cls-5,.cls-6,.cls-8{stroke-width:4.4px;}.cls-5{stroke:#a73766;}.cls-6{stroke:#006b4b;}.cls-7{stroke:#e7336e;}.cls-8{stroke-dasharray:0 29.3;}</style><clipPath id="clip-path"><rect class="cls-1" x="-6055" y="-6140" width="11720" height="11720"/></clipPath></defs><title>3233_7150</title><g class="cls-2"><g id="日ノ丸線"><g id="神戸"><path class="cls-3" d="M37.42-2086.76l4.26-7.16c1.3-2.2,2.56-4.43,4-6.49s2.75-4.23,4.34-6.36l5.59-7.8m-78,537.68,10.86-15.55,5.43-7.77,1.43-2.07a26.55,26.55,0,0,0,1.53-2.47,35.29,35.29,0,0,0,2.36-5.14c2.55-7,3.13-13.69,4.11-19.73a32.66,32.66,0,0,1,1.88-7.76,9.85,9.85,0,0,1,1.58-2.55,8.19,8.19,0,0,1,1-1c.44-.37,1-.8,1.53-1.18a76.33,76.33,0,0,1,7.57-4.56c1.42-.81,2.84-1.6,4.39-2.59a34.8,34.8,0,0,0,4.57-3.56c5.46-5.14,9-11,12.38-16.29,6.72-10.45,14.31-20.91,20.39-32.77,1.5-2.95,2.85-5.85,4.21-8.67.32-.65.72-1.47,1.1-2.35s.73-1.78,1.06-2.73a23.72,23.72,0,0,0,1.17-6.18,35.14,35.14,0,0,0-.25-5.74l-.62-4.8-1.24-9.4-2.46-18.8a30.77,30.77,0,0,1-.22-8,19.06,19.06,0,0,1,.88-3.54c.43-1.24,1-2.56,1.6-4s1.29-2.89,2-4.51c.33-.81.65-1.66,1-2.53l.77-2.24c1-3,2.06-5.84,3.19-8.62l.87-2.06c.29-.66.56-1.25.88-1.87.61-1.24,1.32-2.48,2.08-3.75,1.53-2.52,3.33-5.22,5-8a39.17,39.17,0,0,0,2.65-4.92,22.25,22.25,0,0,0,1.7-6.24c0-.56.1-1.11.11-1.66s0-1.13,0-1.47l0-2.38-.09-4.77-.18-9.54c-.09-3.23-.2-6.46-.39-9.67-.69-12.87-2-25.57-3.25-38.16s-2.23-25.16-3.11-37.75-1.47-25.12-1.66-37.71c-.11-6.3-.16-12.56,0-18.76.06-3.15.27-6,.37-9.53.07-3.32,0-6.53,0-9.61l0-2.28,0-1c0-.31,0-.64.06-1,.12-1.33.33-2.72.59-4.2l.85-4.68c.3-1.61.54-3.5.76-5l2.72-18.73,1.36-9.37.34-2.35.36-2.19c.26-1.45.57-2.91.9-4.37,1.36-5.85,3.27-11.76,5.15-17.88s3.51-12.51,5.17-18.46c.84-3,1.72-5.91,2.7-8.75s2.14-5.73,3.29-8.61m-62.63,23.89L36.25-2085l-.32.62-.49,1-.65.85-8.56,11.1-2.95,5.5-2,2.61c-.43.54-.93,1.28-1.39,1.91l-2.82,3.94-5.66,7.88-2.82,3.95-2.75,4-6.47,9.52L-5-2028.65l-3.78,5.22-.47,9,3.34-1.09,5.14-1.13,8.93-1.29,8.69-1.31,17.42-2.68,17.33-2.66,8.64-1.35,8.45-1.83,7.13,21.64M-2328,614.15l.76.3,3,1.14,3.5,1.51,1.95.35,2.3.41.34.07,3.17.68.95.21,5.22.28,4.83-.61,2.93-.36,8.1-1.16h8.64l5.77-.14,2.68-.14,4.87.07,3.46.09,2,0,4.12.55,5.15,1.1,3.5.82,4.88,1.65,4,1,5.21,2.13,3.43,1.51.47.27,2.48,1.51,4.06,3.13,4.77,4.12,4.12,3.44,4.44,3.18,3.31,1.19,3,.91,1.19.36,3.45.39,5.24-1.19,5.9-1.66,2.45-.66,3.12-.67,4.11-.52,3.78-.14,3.38,1.13,4.35,2.36,3.27,2,3.55,2.17,3.35,2.57,27.4,21,2.67,1.8,2.6-.33,2.12-.79,1.2.76,4.64,2.88,3.72,1.22,3.3.81,2.64.53,1.41-.13,2.36-.28,2.07-.51,4.66-2.43,5.45-3.86,8.34-5.46,4.47-2.56,13.3-7.89,5-1.63,6.73-1.63,5-2.09,2.07-1.45,2.75-2.57,5.28-7.89,1.28-1.28,2.56-2.26,3.85-2.4,14.09-6.08,7.22-1,16.81-1.77,11.53-.32,7.52.46,16,1.94,6.74.52,5.26-.2,6.1-1.77,5.45-1.72,3.61-1,2.94-.8,6.1.51,8.17,2.43,4.8,1.6.79.45,4.66,1.6,9.13,1.66,14.09,1,11.22,1.59,1.89.49,18.42,2.57,33.47,4.8,14.11,1.8,3.38.49,7.52.8,10.88-.18,4.65-.79,10.25-2.89,9.62-3.09,8-3.2,9.62-5.31,9.12-6.11,16-8.55,10.87-7.71,5.78-4.83,6.41-6.46.09,0,4.54-3,4.82-2.25,6.4-2.23,27.23-6.29,17.14-3.71,4.82-.17,14.07,5.17,3.84.94,5.87-.45,3.86-4.38.68-.63,3.38-1.77,7.68-2.28,3.68-1,5.45-1.63,4-.94,3.38-1.2,4.31-1.06,2.89-.8,10.87-3,24.2-7,29.62-8.51,4.48-1.15,5.64-1,4.14-3,3.56-2.42,5.12-2.57,5.59-1.63,1.82-.38,2.84-.57,11.86-1.94,3.68-.48,3.79-.8,2-.75,2.59-1,4.21-2.12,11.23-5.58,1.21-.43,6.43-2.88,7.31-1.69,3.28-.79,1.8-.38,2-.2,5.43-.34,5-.63,3.21-.83,5.13-2.25,2.4-2.09,1.51-1.94,11-14.32,3.85-5.14,13.13-19,6.57-9.18,5-4.37,8-3.86,5.31-2.19,4.63-2.46,3-2.6,4.31-4.66,17.93-25.6,1.77-1.78,2.21-1.45,8.18-4.83,1.93-1L-1278,400l3.21-2.25,6.41-2.61,9-1.91,7.38-1.46,2.4-1.28.47-29.46.65-3.72.48-1.14,2.1-2.4,2.56-1.95,5.76-3.45,11.39-4,9.07-2.66,1.8-.8,1.84-.64,3.93-1.3,31.54-11,5.12-1.6,27.39-9.51,9.19-3,8.44-1.24,4.29-.48,5.47-.27,9.43-.26,8.15,1.38,5.74,1.63,4.39,2.53,13.3,6.61,14.07,6.91,6.75,2.15,2.8-.52.44-.08,2.37-2.52,1-1.94-.3-3.43-1-12.49-.48-5.39.15-3.31.61-2.76,1.12-5.17,1.66-4,2.36-4,1.08-2.15,5.47-6.6,4-2.11,9.79-6.53,12.37-8,4.36-3.15,11.24-5.23,6-2.72,7.9-2.91,26.89-8.14,14-3.84,4-.79,5.12-1.74,5.43-1.85,5.94-1.61,5.29-.84,13.66-.27,7.12.08,14.26-1,14.2-1,10.57-2.59,6.71-2.49,7.09-2.75,6.93-3.45,18.44-12.24L-797.44,193l11-4.9,1.3-.39,2.64-.28h6.38l10.75-.05,3.59-.52,7.21-.63,2.42-.78,10.14-12,2.61-3.4,4.64-2.65,7.52-4.63,2.42-2.3,6-7.46,9.25-9.56L-706,141l4.3-2.29,13.9-7.68,9.18-7.46,6.06-4.84,5.29-4.12,6.58-5.49,4.33-3,3.91-2,3.84-1.33,4.66-1.41,9.76-3.06,11.3-4.37L-606,86.3l9.32-4,8.47-2.43,9.22-2.59,8-2.16,12.64-3.82L-547,68.67l7.29-1.91,3.86-1,2.55-2.3,6.53-6.42,13.32-15.94,1.15-1.42,14-16.43,3.58-5.09,2.9-6.87,11.58-27.45,4.32-6.17,4.38-3.58,12-8.54,4.5-4.52,7.39-8,4.41-3.09,2.81-1.28,2.6-.74,5.52-.72,5.94-.07,4.85.24,11.15.39,2.86-.3,1.74-.18,5-2.66,2.89-2,2.73-2.53,2.24-2.78,1.8-3.52.88-2.92.22-8.1.63-18.06,2.16-8.3,1.92-4.29,2.68-5.44,5.58-10.79.59-1.15,15.56-30.1,5.87-9.47,3.42-4.21,3.93-3,1.19-.38,1-.36,5.81-2.65,1.43-.62,61.61-24.67,7.32-3.25,10.76-3.42,8.25-2,10.64-2.29,12.86-3,3.68-1,2.85-1.33,5.74-3.27,9.39-6.5,5.91-4.06,4.19-2,5.39-2.39,1.2-.49.76-.35,4.61-1.62,7.21-1.56,7.36-2.33,38.15-11M-22.13-1577.36l-1.5,2.65L-33.72-1562c-1.6,2.06-3.31,4-4.81,6.18l-4.52,6.36-9.28,13-1.16,1.63-1.22,1.56-1.22,1.56-1.1,1.53-4.44,6.24-6.3,10.53-2.27,4.85c-4.12,12.74-8.57,27.43-12.55,40.34l-1.25,6.74c-.47,2.35-.83,4.71-1.18,7.06-.74,4.69-1.37,9.48-2,14.23s-1.3,9.54-1.83,14.3l-1.68,14.43-1.75,14.49-.88,7.25c-.13,1.2-.29,2.41-.53,3.66l-.53,3.55-1,7.07c-.33,2.37-.57,4.84-.86,7.25s-.78,4.84-1.17,7.26l-1.4,7.74-3.4,9.32-1,8.76c-.2,1.56-.31,3.16-.4,4.77l-.32,4.82c-.65,6.45-1.12,12.78-1.6,19.15l-.73,9.55-.82,9.7c-.35,6.55-1.68,12.79-2,19.17l-6.23,76.51v.41l-.87,10.5-.9,10.35-1.81,20.7c-.62,6.9-1.23,13.8-1.68,20.71l-1.44,20,1.82,10.55c.66,3.81,1.27,7.32,2.11,11,1,3.65,1.68,7.56,2.4,11.41l1,5.8c.16,1,.27,2.07.4,3l.4,3.21v12c0,3.89,0,7.79-.18,11.62l-.48,11.56-.24,5.78c-.06,1-.07,1.91-.06,2.84v3.1l-2.65,27.46c-.39,4.54-1,9-1.54,13.58L-120.54-962l-2,9.3-1.76,13.61c-.28,2.31-.61,4.6-.87,6.93l-.71,7-1.44,14c-.13,1.17-.2,2.33-.39,3.5l-.59,3.52-1.14,6.81-.81,8.79.09,9.15.58,7.26c.18,2.49.6,5,.89,7.46l2,15,2.08,15,2.16,15.26.41,5.71.35,5.51.65,11m0,.24c-.06,8.18-.37,15.94-.54,23.77l-.3,11.74c-.06,3.91-.29,7.81-.21,11.74,0,15.68.29,31.35-.05,47.07-.09,15.69,0,31.36,0,47l.11,23.62c.23,7.89-.37,15.81-.64,23.72l-5.65,16.65.25,22-.33,22.67-.16,12.41-.31,9.38-.09,47.16-.08,1.66.1,17.57-.66,32.78,0,1.8-.33,28.29.34,10.7.31,9.7-.08,2.82-.61,12.32-1.06,7.77-.37,2.79-1,7.49-1.15,8.27-.33,2.09-1.11,7.06L-137.1-312l-.07.73-.15,1.37-.33,3.24-1.09,10.44-.25,5.94,2.39,10.92,6.23,26.69m106.44-1321.9,8.21,4.93,10,5.16,3.49,1.93,13.22,5,10,3.14,18.85,4.94,18.78,3.51,84.66,18.83,4.39,1.78,3.14.44L173-1519.8l11.08,2.54,5.54,1.26,5.6,1,8.43,2.45c1.9.31,3.79.66,5.69,1m0,0,1.32-5.33,1.46-5.86.73-2.93.89-2.82.88-2.82,1-2.9,2-5.8,4-11.6,2-5.8,2.11-5.76,8.5-23.17,2.13-5.82,1.9-5.86c1.22-3.94,2.68-7.75,4.06-11.6L259-1655.9c2.82-7.71,5.53-15.55,8.18-23.28,1.34-3.88,2.66-7.76,4.07-11.61l4.28-11.94,1.75-8.25,1.53-7.88,1.51-7.83c.5-2.6,1-5.19,1.55-7.81,1-5.22,2.19-10.46,3.11-15.67.48-2.6.87-5.21,1.44-7.82s1-5.23,1.49-7.86c.93-5.25,1.83-10.58,2.79-15.76l1.44-7.8,1.56-7.83,1.57-7.84c.53-2.61.91-5.19,1.38-7.79s.82-5.21,1.51-7.73l1.78-7.38,1.58-4.83,5.28-7.77,9.74-11.78M-130.37-252.64l3.47,14.91M353.32-1447.58l-18.53-12.37-2.56-2.92c-11.37-8-23.08-15.51-35-22.65l-8.68-4-8.9-3.52-9-3.32-9-3.22-14.39-3.75-3.61-.9L240-1505l-7.27-1.55-14.55-3.09c-3-.63-5.93-1.26-8.9-1.85"/><path class="cls-4" d="M37.42-2086.76l4.26-7.16c1.3-2.2,2.56-4.43,4-6.49s2.75-4.23,4.34-6.36l5.59-7.8m-78,537.68,10.86-15.55,5.43-7.77,1.43-2.07a26.55,26.55,0,0,0,1.53-2.47,35.29,35.29,0,0,0,2.36-5.14c2.55-7,3.13-13.69,4.11-19.73a32.66,32.66,0,0,1,1.88-7.76,9.85,9.85,0,0,1,1.58-2.55,8.19,8.19,0,0,1,1-1c.44-.37,1-.8,1.53-1.18a76.33,76.33,0,0,1,7.57-4.56c1.42-.81,2.84-1.6,4.39-2.59a34.8,34.8,0,0,0,4.57-3.56c5.46-5.14,9-11,12.38-16.29,6.72-10.45,14.31-20.91,20.39-32.77,1.5-2.95,2.85-5.85,4.21-8.67.32-.65.72-1.47,1.1-2.35s.73-1.78,1.06-2.73a23.72,23.72,0,0,0,1.17-6.18,35.14,35.14,0,0,0-.25-5.74l-.62-4.8-1.24-9.4-2.46-18.8a30.77,30.77,0,0,1-.22-8,19.06,19.06,0,0,1,.88-3.54c.43-1.24,1-2.56,1.6-4s1.29-2.89,2-4.51c.33-.81.65-1.66,1-2.53l.77-2.24c1-3,2.06-5.84,3.19-8.62l.87-2.06c.29-.66.56-1.25.88-1.87.61-1.24,1.32-2.48,2.08-3.75,1.53-2.52,3.33-5.22,5-8a39.17,39.17,0,0,0,2.65-4.92,22.25,22.25,0,0,0,1.7-6.24c0-.56.1-1.11.11-1.66s0-1.13,0-1.47l0-2.38-.09-4.77-.18-9.54c-.09-3.23-.2-6.46-.39-9.67-.69-12.87-2-25.57-3.25-38.16s-2.23-25.16-3.11-37.75-1.47-25.12-1.66-37.71c-.11-6.3-.16-12.56,0-18.76.06-3.15.27-6,.37-9.53.07-3.32,0-6.53,0-9.61l0-2.28,0-1c0-.31,0-.64.06-1,.12-1.33.33-2.72.59-4.2l.85-4.68c.3-1.61.54-3.5.76-5l2.72-18.73,1.36-9.37.34-2.35.36-2.19c.26-1.45.57-2.91.9-4.37,1.36-5.85,3.27-11.76,5.15-17.88s3.51-12.51,5.17-18.46c.84-3,1.72-5.91,2.7-8.75s2.14-5.73,3.29-8.61m-62.63,23.89L36.25-2085l-.32.62-.49,1-.65.85-8.56,11.1-2.95,5.5-2,2.61c-.43.54-.93,1.28-1.39,1.91l-2.82,3.94-5.66,7.88-2.82,3.95-2.75,4-6.47,9.52L-5-2028.65l-3.78,5.22-.47,9,3.34-1.09,5.14-1.13,8.93-1.29,8.69-1.31,17.42-2.68,17.33-2.66,8.64-1.35,8.45-1.83,7.13,21.64M-2328,614.15l.76.3,3,1.14,3.5,1.51,1.95.35,2.3.41.34.07,3.17.68.95.21,5.22.28,4.83-.61,2.93-.36,8.1-1.16h8.64l5.77-.14,2.68-.14,4.87.07,3.46.09,2,0,4.12.55,5.15,1.1,3.5.82,4.88,1.65,4,1,5.21,2.13,3.43,1.51.47.27,2.48,1.51,4.06,3.13,4.77,4.12,4.12,3.44,4.44,3.18,3.31,1.19,3,.91,1.19.36,3.45.39,5.24-1.19,5.9-1.66,2.45-.66,3.12-.67,4.11-.52,3.78-.14,3.38,1.13,4.35,2.36,3.27,2,3.55,2.17,3.35,2.57,27.4,21,2.67,1.8,2.6-.33,2.12-.79,1.2.76,4.64,2.88,3.72,1.22,3.3.81,2.64.53,1.41-.13,2.36-.28,2.07-.51,4.66-2.43,5.45-3.86,8.34-5.46,4.47-2.56,13.3-7.89,5-1.63,6.73-1.63,5-2.09,2.07-1.45,2.75-2.57,5.28-7.89,1.28-1.28,2.56-2.26,3.85-2.4,14.09-6.08,7.22-1,16.81-1.77,11.53-.32,7.52.46,16,1.94,6.74.52,5.26-.2,6.1-1.77,5.45-1.72,3.61-1,2.94-.8,6.1.51,8.17,2.43,4.8,1.6.79.45,4.66,1.6,9.13,1.66,14.09,1,11.22,1.59,1.89.49,18.42,2.57,33.47,4.8,14.11,1.8,3.38.49,7.52.8,10.88-.18,4.65-.79,10.25-2.89,9.62-3.09,8-3.2,9.62-5.31,9.12-6.11,16-8.55,10.87-7.71,5.78-4.83,6.41-6.46.09,0,4.54-3,4.82-2.25,6.4-2.23,27.23-6.29,17.14-3.71,4.82-.17,14.07,5.17,3.84.94,5.87-.45,3.86-4.38.68-.63,3.38-1.77,7.68-2.28,3.68-1,5.45-1.63,4-.94,3.38-1.2,4.31-1.06,2.89-.8,10.87-3,24.2-7,29.62-8.51,4.48-1.15,5.64-1,4.14-3,3.56-2.42,5.12-2.57,5.59-1.63,1.82-.38,2.84-.57,11.86-1.94,3.68-.48,3.79-.8,2-.75,2.59-1,4.21-2.12,11.23-5.58,1.21-.43,6.43-2.88,7.31-1.69,3.28-.79,1.8-.38,2-.2,5.43-.34,5-.63,3.21-.83,5.13-2.25,2.4-2.09,1.51-1.94,11-14.32,3.85-5.14,13.13-19,6.57-9.18,5-4.37,8-3.86,5.31-2.19,4.63-2.46,3-2.6,4.31-4.66,17.93-25.6,1.77-1.78,2.21-1.45,8.18-4.83,1.93-1L-1278,400l3.21-2.25,6.41-2.61,9-1.91,7.38-1.46,2.4-1.28.47-29.46.65-3.72.48-1.14,2.1-2.4,2.56-1.95,5.76-3.45,11.39-4,9.07-2.66,1.8-.8,1.84-.64,3.93-1.3,31.54-11,5.12-1.6,27.39-9.51,9.19-3,8.44-1.24,4.29-.48,5.47-.27,9.43-.26,8.15,1.38,5.74,1.63,4.39,2.53,13.3,6.61,14.07,6.91,6.75,2.15,2.8-.52.44-.08,2.37-2.52,1-1.94-.3-3.43-1-12.49-.48-5.39.15-3.31.61-2.76,1.12-5.17,1.66-4,2.36-4,1.08-2.15,5.47-6.6,4-2.11,9.79-6.53,12.37-8,4.36-3.15,11.24-5.23,6-2.72,7.9-2.91,26.89-8.14,14-3.84,4-.79,5.12-1.74,5.43-1.85,5.94-1.61,5.29-.84,13.66-.27,7.12.08,14.26-1,14.2-1,10.57-2.59,6.71-2.49,7.09-2.75,6.93-3.45,18.44-12.24L-797.44,193l11-4.9,1.3-.39,2.64-.28h6.38l10.75-.05,3.59-.52,7.21-.63,2.42-.78,10.14-12,2.61-3.4,4.64-2.65,7.52-4.63,2.42-2.3,6-7.46,9.25-9.56L-706,141l4.3-2.29,13.9-7.68,9.18-7.46,6.06-4.84,5.29-4.12,6.58-5.49,4.33-3,3.91-2,3.84-1.33,4.66-1.41,9.76-3.06,11.3-4.37L-606,86.3l9.32-4,8.47-2.43,9.22-2.59,8-2.16,12.64-3.82L-547,68.67l7.29-1.91,3.86-1,2.55-2.3,6.53-6.42,13.32-15.94,1.15-1.42,14-16.43,3.58-5.09,2.9-6.87,11.58-27.45,4.32-6.17,4.38-3.58,12-8.54,4.5-4.52,7.39-8,4.41-3.09,2.81-1.28,2.6-.74,5.52-.72,5.94-.07,4.85.24,11.15.39,2.86-.3,1.74-.18,5-2.66,2.89-2,2.73-2.53,2.24-2.78,1.8-3.52.88-2.92.22-8.1.63-18.06,2.16-8.3,1.92-4.29,2.68-5.44,5.58-10.79.59-1.15,15.56-30.1,5.87-9.47,3.42-4.21,3.93-3,1.19-.38,1-.36,5.81-2.65,1.43-.62,61.61-24.67,7.32-3.25,10.76-3.42,8.25-2,10.64-2.29,12.86-3,3.68-1,2.85-1.33,5.74-3.27,9.39-6.5,5.91-4.06,4.19-2,5.39-2.39,1.2-.49.76-.35,4.61-1.62,7.21-1.56,7.36-2.33,38.15-11M-22.13-1577.36l-1.5,2.65L-33.72-1562c-1.6,2.06-3.31,4-4.81,6.18l-4.52,6.36-9.28,13-1.16,1.63-1.22,1.56-1.22,1.56-1.1,1.53-4.44,6.24-6.3,10.53-2.27,4.85c-4.12,12.74-8.57,27.43-12.55,40.34l-1.25,6.74c-.47,2.35-.83,4.71-1.18,7.06-.74,4.69-1.37,9.48-2,14.23s-1.3,9.54-1.83,14.3l-1.68,14.43-1.75,14.49-.88,7.25c-.13,1.2-.29,2.41-.53,3.66l-.53,3.55-1,7.07c-.33,2.37-.57,4.84-.86,7.25s-.78,4.84-1.17,7.26l-1.4,7.74-3.4,9.32-1,8.76c-.2,1.56-.31,3.16-.4,4.77l-.32,4.82c-.65,6.45-1.12,12.78-1.6,19.15l-.73,9.55-.82,9.7c-.35,6.55-1.68,12.79-2,19.17l-6.23,76.51v.41l-.87,10.5-.9,10.35-1.81,20.7c-.62,6.9-1.23,13.8-1.68,20.71l-1.44,20,1.82,10.55c.66,3.81,1.27,7.32,2.11,11,1,3.65,1.68,7.56,2.4,11.41l1,5.8c.16,1,.27,2.07.4,3l.4,3.21v12c0,3.89,0,7.79-.18,11.62l-.48,11.56-.24,5.78c-.06,1-.07,1.91-.06,2.84v3.1l-2.65,27.46c-.39,4.54-1,9-1.54,13.58L-120.54-962l-2,9.3-1.76,13.61c-.28,2.31-.61,4.6-.87,6.93l-.71,7-1.44,14c-.13,1.17-.2,2.33-.39,3.5l-.59,3.52-1.14,6.81-.81,8.79.09,9.15.58,7.26c.18,2.49.6,5,.89,7.46l2,15,2.08,15,2.16,15.26.41,5.71.35,5.51.65,11m0,.24c-.06,8.18-.37,15.94-.54,23.77l-.3,11.74c-.06,3.91-.29,7.81-.21,11.74,0,15.68.29,31.35-.05,47.07-.09,15.69,0,31.36,0,47l.11,23.62c.23,7.89-.37,15.81-.64,23.72l-5.65,16.65.25,22-.33,22.67-.16,12.41-.31,9.38-.09,47.16-.08,1.66.1,17.57-.66,32.78,0,1.8-.33,28.29.34,10.7.31,9.7-.08,2.82-.61,12.32-1.06,7.77-.37,2.79-1,7.49-1.15,8.27-.33,2.09-1.11,7.06L-137.1-312l-.07.73-.15,1.37-.33,3.24-1.09,10.44-.25,5.94,2.39,10.92,6.23,26.69m106.44-1321.9,8.21,4.93,10,5.16,3.49,1.93,13.22,5,10,3.14,18.85,4.94,18.78,3.51,84.66,18.83,4.39,1.78,3.14.44L173-1519.8l11.08,2.54,5.54,1.26,5.6,1,8.43,2.45c1.9.31,3.79.66,5.69,1m0,0,1.32-5.33,1.46-5.86.73-2.93.89-2.82.88-2.82,1-2.9,2-5.8,4-11.6,2-5.8,2.11-5.76,8.5-23.17,2.13-5.82,1.9-5.86c1.22-3.94,2.68-7.75,4.06-11.6L259-1655.9c2.82-7.71,5.53-15.55,8.18-23.28,1.34-3.88,2.66-7.76,4.07-11.61l4.28-11.94,1.75-8.25,1.53-7.88,1.51-7.83c.5-2.6,1-5.19,1.55-7.81,1-5.22,2.19-10.46,3.11-15.67.48-2.6.87-5.21,1.44-7.82s1-5.23,1.49-7.86c.93-5.25,1.83-10.58,2.79-15.76l1.44-7.8,1.56-7.83,1.57-7.84c.53-2.61.91-5.19,1.38-7.79s.82-5.21,1.51-7.73l1.78-7.38,1.58-4.83,5.28-7.77,9.74-11.78M-130.37-252.64l3.47,14.91M353.32-1447.58l-18.53-12.37-2.56-2.92c-11.37-8-23.08-15.51-35-22.65l-8.68-4-8.9-3.52-9-3.32-9-3.22-14.39-3.75-3.61-.9L240-1505l-7.27-1.55-14.55-3.09c-3-.63-5.93-1.26-8.9-1.85"/></g><g id="快速幹"><path class="cls-3" d="M-42-14.76l-1.37-4.43L-43-28-45.3-42l-13.88-55.4-14.11-57.87-4-13.3-1.79-2.66-2.25-6.19-9.06-29.78-7.38-30.68-3.39-16-1.29-5-.39-3.59L-103-266l-.56-7.34.12-4.5.39-2.53,1.77-9.93,1.88-5.65,2.58-6.19,4.79-8.07m4.24,47.63-14.64,3.7-3.66.85-10,2.08-2.85.66,3.48,14.92m8.72,2585.53-8.27,9.3-8.28,9.26-7.66,8.5-25.23,39.44M-127.39,243-102,203.87l3.76-5.93c.63-1,1.27-2,1.91-2.91l2.54-3.81,1.25-5.49,1.31-8.59.53-3.52.16-1c0-.18.14-.28.25-.39l.36-.34s.56-8.76,1.61-9.65l-.06-6.1,0-6.2.26-6.31.52-6.05.88-6.26,1.08-6.93,1.71-7.87,1.81-5.48,1.92-5.17,2.06-4.87L-71,86.55l8.08-16.37L-54.25,52l5.64-14.16,2.14-10.64,2.28-16.43,1-11.94,1.08-12.23.12-1.35,1.68-3.9.78-6.3,2.11-15.64-.2-3.46-6-25.19-7-30.34L-65.35-157l-5.57-25.8-.3-7.87-3.46-18.22-.52-2-6-24.72-.54-2.18-6.06-24.81L-89.57-268l-1.54-6.93-1.08-9.79-.57-7.55.23-9.39,0-2.06.44-6.52m0,0,6.82-19.51,4-9.3,3.37-6.28,8.89-13.4,7.36-7.89,5.12-4.71,39.52-28,10.12-9,6.5-7.13,4.87-6.24,4.12-5.5,5.13-10,2.12-4.25,3-8.57,3.74-16.17L32.07-534l1.73-10.32,3.81-12.14,4.66-13L59.9-606.35,62.74-611,87-647.44l9.92-15.47,6.94-12.7,8-15.66,4.69-10.61,4.11-11.46,2.12-6.38L122-739.07l.45-1.54,2.91-14.06,2.85-14.28,1.36-7.08,1.17-7.19,2.28-14,.17-5c0-1.79.26-3.6.39-5.4s.27-3.63.49-5.38l.71-5.22,2.78-20.68.27-4.46.33-4.63c.22-3.08.48-6.16.61-9.24l.94-18.49.39-9.12c.11-1.5,0-3.06,0-4.61s-.08-3.09-.06-4.65l.4-9.39c.14-3.14.17-6.17.26-9.26.19-6.15.23-12.32.32-18.47l.11-9.24.06-4.62c0-1.54-.07-3.09-.1-4.63l-.13-4.63v-14l-.38-18.47-.2-9.23-.1-4.62,0-2.31-.17-2.29-1.37-18.3-4.22-37c-.11-3.12-.52-6.16-.85-9.23l-1-9.2-2-18.38-1.05-9.3-.53-4.67c-.16-1.56-.21-3.12-.33-4.67l-1.21-19.45,1.16-5.76.12-5.1c0-1.88.08-3.76.19-5.61l.28-5.59c.05-.93.09-1.85.11-2.77l.1-3,.3-2.57.25-2.36c.15-1.57.4-3.24.6-4.85l.33-2.44.44-2.38.92-5,1.17-4.35.56-2.06.54-2.16c.32-1.45.79-2.86,1.24-4.28l1.4-4.43,4.13-9.91c.67-1.61,1.5-3.16,2.24-4.74l2.42-5,8.25-13.38,2-3.28,2.17-3.22c1.45-2.15,2.78-4.26,4.17-6.38l8.29-12.73c1.36-2.13,2.84-4.23,4-6.4l3.6-6.35,1.64-3.6c.58-1.28,1.19-2.54,1.71-3.85l3.1-7.55,3.45-11.62,1.52-8.91.39-2.31c.06-.35.12-.6.16-1l.13-1.12.5-4.51.51-4.51c.05-1.45.19-2.75.16-4.31l-.08-8.92-1.19-10.42c-.53-3.59-1.1-7.19-1.43-10.8s-.71-7.25-1.23-10.78-1-7-1.62-10.6l-3.58-21.54c-.66-3.57-1-7.33-1.49-11-.19-1.85-.53-3.68-.59-5.55l-.34-5.87.68-16.84L182-1447l.91-4.36c.3-1.35.55-2.72.9-4.07l1.95-8.09,2-8.09c.66-2.69,1.48-5.29,2.21-7.94l1.47-5.14-1.74-44.83.63-2.48,1-3.29,1-3.29,1-3,2-5.92,4.05-11.83,2-5.92,2.14-5.86,8.45-23,2.08-5.7,1.9-5.84c1.2-3.88,2.7-7.8,4.1-11.72l16.79-46.45c2.82-7.72,5.42-15.24,8.13-23.13,1.34-3.9,2.67-7.8,4.09-11.69l3.79-10.56,1.37-6.47,1.49-7.69,1.51-7.82.77-4,.79-3.88,1.57-7.75c.53-2.59,1.07-5.15,1.52-7.83s.9-5.34,1.46-7.93,1-5.16,1.47-7.74l1.35-7.72,1.41-7.84,1.47-8,1.55-7.79,1.56-7.78c.52-2.58.94-5.36,1.42-8s.85-5.38,1.59-8.12l2.13-8.85,2.9-8.87,7.77-11.42,11.47-13.88M157.9,1587.93,156.8,1577v-7.16l-.23-7.42-.42-14.7-.2-7.35-.1-3.68-.07-1.93-.11-1.85-.44-7.42-.54-7.54c-.18-2.51-.73-4.87-.87-7.33l-.53-7.34-.54-7.33c-.05-1.22-.26-2.46-.43-3.68l-.53-3.69-2.09-14.75c-.36-2.46-.64-4.93-1.17-7.36l-1.53-7.85-4.12-10.52-4.14-8.71c-.66-1.43-1.41-2.82-2.11-4.24l-2.4-4.75-13.44-16.88c-2.38-2.68-4.73-5.49-7.18-7.93s-4.92-5.07-7.19-7.53c-4.62-5-9.18-10.25-13.78-15.37l-6.78-7.9-7.24-8.12L70,1359.38l-4.17-3.53-4.29-3.5L44.36,1339l-34.28-27.14-11.74-7.35-4.63-1.38c-1.3-.39-2.59-.78-3.89-1.11l-7.4-2-16.57-6.85-12.2-6.25c-4.11-2.14-8.35-4.21-12.34-6.4l-5.92-3.3c-2-1.16-3.83-2.46-5.75-3.68s-3.83-2.47-5.76-3.79l-5.13-3.47-2-2.24c-.82-.93-1.64-1.88-2.55-2.85l-1.32-1.45-1.33-1.32-2.65-2.62-10.81-10.66-9.15-7.54-10-6.3-13.76-10.54-7.57-11.56M157.9,1587.93l.46,13.8-.28,6.52c-.06,1.06-.06,2.09-.18,3.17l-.3,3.58-1.13,5.09-.52,2.35-.63,2.28-2.55,9.13-5.09,18.25-2.55,9.17c-.45,1.54-.83,3.11-1.33,4.62l-1.5,4.5-6.12,18.36-4.47,9.25-7.53,11.82-2.87,6.13-1.45,5.72L118.4,1728l-2.84,12.42-.94,6.35c-.35,2.19-.6,4.39-1.09,6.56-.91,4.35-1.72,8.71-2.72,13.06-.5,2.16-.93,4.38-1.5,6.5l-1.71,6.37-3.35,12.48-3.49,20-2.56,10.09-2.94,7.23-2.8,4.1L90,1836.69l-5.23,7.42L77.19,1852l-7.57,5.35c-1.2.83-2.48,1.55-3.71,2.34l-4.09,2.52-4.46,1.89-4,1.64c-2.67,1.1-5.26,2.26-7.92,3.41l-7.92,3.49-7.57,3.53-3.38,2-2.09,1.68-6.16,7.34L13.16,1896l-5.52,9.3c-3.58,6.32-7.68,12.12-11.58,18.11-2,2.94-3.78,6-5.6,9.07l-5.43,9.16-5.47,9.22L-26,1960c-7.22,12.32-15.26,24.45-22.8,36.29l-5.37,9.22c-2,3.1-3.81,6.39-6,9.24-4.28,5.89-7.47,21.12-7.47,21.12l-16.29,23-8.15,11.51-2,2.87a2.41,2.41,0,0,0-.3.46l-.56,1.11-2.78,5.51-.62,1.89-.43,1.28-.41,1.63-1.4,4-1.91,9-.48,8.37.33,7.89,1.19,9.45,2.19,7.24,4.36,7.48,12,16.81,6.18,8.68,3,4.82,3.2,5.25,4.66,11.09,3.29,10,1.55,4.79,1.69,5.36,2.07,9.84,1,12.07.09,15.1-3,21.33-2.35,10.86c-.41,1.74-.69,3.47-1.2,5.24l-1.62,6-3.16,7.77-3.75,6.24c-1.06,1.84-2.33,3.66-3.53,5.49s-2.37,3.71-3.67,5.43l-3.86,5.2c-2.53,3.53-5.25,6.79-7.92,10.12-1.35,1.64-2.66,3.36-4,4.93l-4.11,4.75c-2.75,3.16-5.48,6.37-8.24,9.48M-127.39,243l-1.22,3.24c-.4,1.07-.95,2.19-1.42,3.28s-1.06,2.16-1.59,3.24-1.09,2-1.63,2.94l-6.54,11.57-6.53,11.57-3.23,5.73-1.55,2.81-1.46,2.95c-3.79,7.91-8.07,15.62-12.13,23.42l-5.53,11.8c-1,2-1.77,3.92-2.59,5.87-.39,1-.86,2-1.2,2.94l-1.18,3.25-2.33,4.94c-1.35,4.1-3.28,10-4.78,14.13l-1.25,5.51-.35,3.52c-.07,1.32-.09,2.66-.14,4l-.26,8.66-1.76,7.12-.59,10.55-.42,11.13,10.86,22.62-.1,11.08-.05,5.55-.19,5.72-.42,11.49c-.17,3.82-.49,7.58-.73,11.37l-1.52,22.27c-.29,3.72-.39,7.2-.59,10.8l-.32,10.65,0,5.53-.11,5.67-.26,11.34-.27,10.94c0,1.66,0,3.32,0,5l0,2.49c0,.23,0,.43,0,.5l0,.31,0,.31,1.26,6.2.87,2.82,1.09,3.64,2.68,9,.83,10.08v9.36l-1.47,12.28.67,8.22.89,9.17.6,3.12c.23,1.3.5,2.59.79,3.87l1.67,7.68c.53,2.66,1.18,4.86,1.81,7.29l1.92,6.63,3.88,9,22.64,38.55c1.25.31,2.49.61,3.74.89l19.31,4.43,21.27,4.83-1.29,5.71-4.47,19.63-1.86,10-.47,2.5-.61,2.48-1.24,4.95c-3.34,13.18-6.36,26.51-10.28,39.42l-11.18,39L-133,861.14c-.85,3.28-1.93,6.5-3,9.74l-3.11,9.71L-145.3,900l-3.55,9.61c-1.2,3.19-2.37,6.43-3.62,9.54L-159.91,938l-1.85,4.7c-.6,1.57-1.14,3.16-1.71,4.74l-3.39,9.48c-2.25,6.33-4.56,12.61-6.67,19.07l-3.24,9.62c-.55,1.6-1.07,3.21-1.64,4.8l-1.8,4.74-3.59,9.47c-1.08,3.1-2.16,6.18-3,9.24l-4.93,19.27-1.59,8.79-.68,7.2-.75,7.35c-.21,2.43-.34,4.87-.51,7.3l-.46,7.07.4,7c.1,2.47.46,4.84.67,7.27s.39,4.82.88,7.23l1.18,7,1.86,7.43c.67,2.55,1.06,5.08,1.61,7.62s1.18,5,1.78,7.5l1.82,7.21,6.45,18.61,6.86,14.31,7,11.79,3.59,6,3.84,5.88,15.4,23.51"/><path class="cls-5" d="M-42-14.76l-1.37-4.43L-43-28-45.3-42l-13.88-55.4-14.11-57.87-4-13.3-1.79-2.66-2.25-6.19-9.06-29.78-7.38-30.68-3.39-16-1.29-5-.39-3.59L-103-266l-.56-7.34.12-4.5.39-2.53,1.77-9.93,1.88-5.65,2.58-6.19,4.79-8.07m4.24,47.63-14.64,3.7-3.66.85-10,2.08-2.85.66,3.48,14.92m8.72,2585.53-8.27,9.3-8.28,9.26-7.66,8.5-25.23,39.44M-127.39,243-102,203.87l3.76-5.93c.63-1,1.27-2,1.91-2.91l2.54-3.81,1.25-5.49,1.31-8.59.53-3.52.16-1c0-.18.14-.28.25-.39l.36-.34s.56-8.76,1.61-9.65l-.06-6.1,0-6.2.26-6.31.52-6.05.88-6.26,1.08-6.93,1.71-7.87,1.81-5.48,1.92-5.17,2.06-4.87L-71,86.55l8.08-16.37L-54.25,52l5.64-14.16,2.14-10.64,2.28-16.43,1-11.94,1.08-12.23.12-1.35,1.68-3.9.78-6.3,2.11-15.64-.2-3.46-6-25.19-7-30.34L-65.35-157l-5.57-25.8-.3-7.87-3.46-18.22-.52-2-6-24.72-.54-2.18-6.06-24.81L-89.57-268l-1.54-6.93-1.08-9.79-.57-7.55.23-9.39,0-2.06.44-6.52m0,0,6.82-19.51,4-9.3,3.37-6.28,8.89-13.4,7.36-7.89,5.12-4.71,39.52-28,10.12-9,6.5-7.13,4.87-6.24,4.12-5.5,5.13-10,2.12-4.25,3-8.57,3.74-16.17L32.07-534l1.73-10.32,3.81-12.14,4.66-13L59.9-606.35,62.74-611,87-647.44l9.92-15.47,6.94-12.7,8-15.66,4.69-10.61,4.11-11.46,2.12-6.38L122-739.07l.45-1.54,2.91-14.06,2.85-14.28,1.36-7.08,1.17-7.19,2.28-14,.17-5c0-1.79.26-3.6.39-5.4s.27-3.63.49-5.38l.71-5.22,2.78-20.68.27-4.46.33-4.63c.22-3.08.48-6.16.61-9.24l.94-18.49.39-9.12c.11-1.5,0-3.06,0-4.61s-.08-3.09-.06-4.65l.4-9.39c.14-3.14.17-6.17.26-9.26.19-6.15.23-12.32.32-18.47l.11-9.24.06-4.62c0-1.54-.07-3.09-.1-4.63l-.13-4.63v-14l-.38-18.47-.2-9.23-.1-4.62,0-2.31-.17-2.29-1.37-18.3-4.22-37c-.11-3.12-.52-6.16-.85-9.23l-1-9.2-2-18.38-1.05-9.3-.53-4.67c-.16-1.56-.21-3.12-.33-4.67l-1.21-19.45,1.16-5.76.12-5.1c0-1.88.08-3.76.19-5.61l.28-5.59c.05-.93.09-1.85.11-2.77l.1-3,.3-2.57.25-2.36c.15-1.57.4-3.24.6-4.85l.33-2.44.44-2.38.92-5,1.17-4.35.56-2.06.54-2.16c.32-1.45.79-2.86,1.24-4.28l1.4-4.43,4.13-9.91c.67-1.61,1.5-3.16,2.24-4.74l2.42-5,8.25-13.38,2-3.28,2.17-3.22c1.45-2.15,2.78-4.26,4.17-6.38l8.29-12.73c1.36-2.13,2.84-4.23,4-6.4l3.6-6.35,1.64-3.6c.58-1.28,1.19-2.54,1.71-3.85l3.1-7.55,3.45-11.62,1.52-8.91.39-2.31c.06-.35.12-.6.16-1l.13-1.12.5-4.51.51-4.51c.05-1.45.19-2.75.16-4.31l-.08-8.92-1.19-10.42c-.53-3.59-1.1-7.19-1.43-10.8s-.71-7.25-1.23-10.78-1-7-1.62-10.6l-3.58-21.54c-.66-3.57-1-7.33-1.49-11-.19-1.85-.53-3.68-.59-5.55l-.34-5.87.68-16.84L182-1447l.91-4.36c.3-1.35.55-2.72.9-4.07l1.95-8.09,2-8.09c.66-2.69,1.48-5.29,2.21-7.94l1.47-5.14-1.74-44.83.63-2.48,1-3.29,1-3.29,1-3,2-5.92,4.05-11.83,2-5.92,2.14-5.86,8.45-23,2.08-5.7,1.9-5.84c1.2-3.88,2.7-7.8,4.1-11.72l16.79-46.45c2.82-7.72,5.42-15.24,8.13-23.13,1.34-3.9,2.67-7.8,4.09-11.69l3.79-10.56,1.37-6.47,1.49-7.69,1.51-7.82.77-4,.79-3.88,1.57-7.75c.53-2.59,1.07-5.15,1.52-7.83s.9-5.34,1.46-7.93,1-5.16,1.47-7.74l1.35-7.72,1.41-7.84,1.47-8,1.55-7.79,1.56-7.78c.52-2.58.94-5.36,1.42-8s.85-5.38,1.59-8.12l2.13-8.85,2.9-8.87,7.77-11.42,11.47-13.88M157.9,1587.93,156.8,1577v-7.16l-.23-7.42-.42-14.7-.2-7.35-.1-3.68-.07-1.93-.11-1.85-.44-7.42-.54-7.54c-.18-2.51-.73-4.87-.87-7.33l-.53-7.34-.54-7.33c-.05-1.22-.26-2.46-.43-3.68l-.53-3.69-2.09-14.75c-.36-2.46-.64-4.93-1.17-7.36l-1.53-7.85-4.12-10.52-4.14-8.71c-.66-1.43-1.41-2.82-2.11-4.24l-2.4-4.75-13.44-16.88c-2.38-2.68-4.73-5.49-7.18-7.93s-4.92-5.07-7.19-7.53c-4.62-5-9.18-10.25-13.78-15.37l-6.78-7.9-7.24-8.12L70,1359.38l-4.17-3.53-4.29-3.5L44.36,1339l-34.28-27.14-11.74-7.35-4.63-1.38c-1.3-.39-2.59-.78-3.89-1.11l-7.4-2-16.57-6.85-12.2-6.25c-4.11-2.14-8.35-4.21-12.34-6.4l-5.92-3.3c-2-1.16-3.83-2.46-5.75-3.68s-3.83-2.47-5.76-3.79l-5.13-3.47-2-2.24c-.82-.93-1.64-1.88-2.55-2.85l-1.32-1.45-1.33-1.32-2.65-2.62-10.81-10.66-9.15-7.54-10-6.3-13.76-10.54-7.57-11.56M157.9,1587.93l.46,13.8-.28,6.52c-.06,1.06-.06,2.09-.18,3.17l-.3,3.58-1.13,5.09-.52,2.35-.63,2.28-2.55,9.13-5.09,18.25-2.55,9.17c-.45,1.54-.83,3.11-1.33,4.62l-1.5,4.5-6.12,18.36-4.47,9.25-7.53,11.82-2.87,6.13-1.45,5.72L118.4,1728l-2.84,12.42-.94,6.35c-.35,2.19-.6,4.39-1.09,6.56-.91,4.35-1.72,8.71-2.72,13.06-.5,2.16-.93,4.38-1.5,6.5l-1.71,6.37-3.35,12.48-3.49,20-2.56,10.09-2.94,7.23-2.8,4.1L90,1836.69l-5.23,7.42L77.19,1852l-7.57,5.35c-1.2.83-2.48,1.55-3.71,2.34l-4.09,2.52-4.46,1.89-4,1.64c-2.67,1.1-5.26,2.26-7.92,3.41l-7.92,3.49-7.57,3.53-3.38,2-2.09,1.68-6.16,7.34L13.16,1896l-5.52,9.3c-3.58,6.32-7.68,12.12-11.58,18.11-2,2.94-3.78,6-5.6,9.07l-5.43,9.16-5.47,9.22L-26,1960c-7.22,12.32-15.26,24.45-22.8,36.29l-5.37,9.22c-2,3.1-3.81,6.39-6,9.24-4.28,5.89-7.47,21.12-7.47,21.12l-16.29,23-8.15,11.51-2,2.87a2.41,2.41,0,0,0-.3.46l-.56,1.11-2.78,5.51-.62,1.89-.43,1.28-.41,1.63-1.4,4-1.91,9-.48,8.37.33,7.89,1.19,9.45,2.19,7.24,4.36,7.48,12,16.81,6.18,8.68,3,4.82,3.2,5.25,4.66,11.09,3.29,10,1.55,4.79,1.69,5.36,2.07,9.84,1,12.07.09,15.1-3,21.33-2.35,10.86c-.41,1.74-.69,3.47-1.2,5.24l-1.62,6-3.16,7.77-3.75,6.24c-1.06,1.84-2.33,3.66-3.53,5.49s-2.37,3.71-3.67,5.43l-3.86,5.2c-2.53,3.53-5.25,6.79-7.92,10.12-1.35,1.64-2.66,3.36-4,4.93l-4.11,4.75c-2.75,3.16-5.48,6.37-8.24,9.48M-127.39,243l-1.22,3.24c-.4,1.07-.95,2.19-1.42,3.28s-1.06,2.16-1.59,3.24-1.09,2-1.63,2.94l-6.54,11.57-6.53,11.57-3.23,5.73-1.55,2.81-1.46,2.95c-3.79,7.91-8.07,15.62-12.13,23.42l-5.53,11.8c-1,2-1.77,3.92-2.59,5.87-.39,1-.86,2-1.2,2.94l-1.18,3.25-2.33,4.94c-1.35,4.1-3.28,10-4.78,14.13l-1.25,5.51-.35,3.52c-.07,1.32-.09,2.66-.14,4l-.26,8.66-1.76,7.12-.59,10.55-.42,11.13,10.86,22.62-.1,11.08-.05,5.55-.19,5.72-.42,11.49c-.17,3.82-.49,7.58-.73,11.37l-1.52,22.27c-.29,3.72-.39,7.2-.59,10.8l-.32,10.65,0,5.53-.11,5.67-.26,11.34-.27,10.94c0,1.66,0,3.32,0,5l0,2.49c0,.23,0,.43,0,.5l0,.31,0,.31,1.26,6.2.87,2.82,1.09,3.64,2.68,9,.83,10.08v9.36l-1.47,12.28.67,8.22.89,9.17.6,3.12c.23,1.3.5,2.59.79,3.87l1.67,7.68c.53,2.66,1.18,4.86,1.81,7.29l1.92,6.63,3.88,9,22.64,38.55c1.25.31,2.49.61,3.74.89l19.31,4.43,21.27,4.83-1.29,5.71-4.47,19.63-1.86,10-.47,2.5-.61,2.48-1.24,4.95c-3.34,13.18-6.36,26.51-10.28,39.42l-11.18,39L-133,861.14c-.85,3.28-1.93,6.5-3,9.74l-3.11,9.71L-145.3,900l-3.55,9.61c-1.2,3.19-2.37,6.43-3.62,9.54L-159.91,938l-1.85,4.7c-.6,1.57-1.14,3.16-1.71,4.74l-3.39,9.48c-2.25,6.33-4.56,12.61-6.67,19.07l-3.24,9.62c-.55,1.6-1.07,3.21-1.64,4.8l-1.8,4.74-3.59,9.47c-1.08,3.1-2.16,6.18-3,9.24l-4.93,19.27-1.59,8.79-.68,7.2-.75,7.35c-.21,2.43-.34,4.87-.51,7.3l-.46,7.07.4,7c.1,2.47.46,4.84.67,7.27s.39,4.82.88,7.23l1.18,7,1.86,7.43c.67,2.55,1.06,5.08,1.61,7.62s1.18,5,1.78,7.5l1.82,7.21,6.45,18.61,6.86,14.31,7,11.79,3.59,6,3.84,5.88,15.4,23.51"/></g><g id="普通幹"><path class="cls-3" d="M-101.53,167.32l-1.4-4.93-.1-12.68.31-7.3.61-6.86.91-6.47,1.24-7.79,1.88-8.61,2.22-6.71,2.17-5.81,2.41-5.62,15.17-30.76,8.43-17.67,5-12.47,1.79-8.9,2.16-15.58.93-11.51,1-10.82-1.27-4.12.43-9.87L-59.66-39-73.39-93.85l-14-57.57,36.34-8.94,14.68,57.48,7,30.33,6.29,26.34.36,6.17-2.29,17-1,8.3-1.58,3.67L-28.64.1l-1,12.67-2.44,17.32L-34.51,42-41,58.3l-8.77,18.36-15,30.46-1.78,4.18-1.7,4.6-1.49,4.5-1.45,6.69-1,6.4L-73,139M193.85-1401.6l10.46,2.9,8.35,2.31,6.41,1.71,3.58,1,2.32.75,5.26,2,6.3,2.66,8.91,3.77,3.66,1.46,10.11,3.8,7.58,2.27,6.59,2,7.79,2,6.52,1.43,4.49.66,3.85,0h6.77l16.49-.11h17.92l10.7-.12,9.93-.06.16-1.71,2.87-31.19.36-3.9c.12-1.31.2-2.54.45-4.06l3.52-13.34-18.46-12.48L327-1451.06l-2.65-3-3.11-2.17-4-2.7-8.75-5.76-4.2-2.76L300-1470.1l-8.32-5.07-7.78-3.6-8.65-3.43-8.54-3.15-8.51-3L244.4-1492l-3.2-.81-3.6-.76-7.28-1.54-14.55-3.09-7.31-1.55-3.17-.6-2.82-.5m0,0,.68,17.57-1.92,6.72c-.73,2.64-1.56,5.27-2.2,7.91l-1.92,7.92-1.91,7.91c-.34,1.32-.58,2.65-.87,4l-.78,3.71-1,8.93-.65,15.85.29,5c.05,1.76.38,3.5.56,5.26.37,2.83.66,5.64,1.09,8.49M308-1860.46l-10.61,12.83-6.53,9.6-2.24,6.85-1.95,8.12c-.71,2.62-1.08,5.28-1.55,7.92s-.88,5.32-1.4,7.91l-1.57,7.81-1.55,7.81-1.45,7.89c-1,5.28-1.85,10.44-2.78,15.66-.47,2.6-.87,5.21-1.48,7.8s-1,5.25-1.45,7.87c-.92,5.27-2.07,10.42-3.1,15.63-.53,2.58-1.05,5.21-1.55,7.84l-1.51,7.82-1.52,7.79-1.55,7.36-4,11.25c-1.41,3.87-2.74,7.76-4.08,11.65-2.68,7.81-5.34,15.49-8.15,23.21l-16.77,46.38c-1.39,3.88-2.87,7.75-4.08,11.66l-1.9,5.85-2.1,5.76-8.48,23.09-2.12,5.82-2,5.85-4,11.72-2,5.86-1,2.93-1,3.05-1,3.06-.13.52,1.06,27.45M-73,139l21.16-17.37L-1.38,53.43l7.94-9.86L28.13,10.76l6.4-9.66L41.08-10l3.84-7.27L51-30.16l5.61-14.67L60-56.4l1.82-8.67,1.62-8.66L64.48-83l.32-7.85.08-7.66-.74-10.25-1-9.84-3-14-1.91-6.68L54.55-149.6l-5.14-12.58-8.24-15.54L37.25-187l3.55-1.91,50.37-24.19,3.66-1.79-3.42-7.16-4.57-8.27-9.6-20L53-296.69,32.2-336.5l-6.75-14.7-1.93-5.58L18.09-373.3l-3.93-12.65-3.52-13.39-.78-5.55-.06-2.83.52-6.54,1.07-7.33,1-4,1.86-5.14,3.38-7.73,2.72-5.5,1-2.06,2.78-4.77,4-6.93L30.34-459l1-1.66L38-471.93l7.74-13.21L47-487.36l9.66-16.34,50.93-83.67,27.24-45.74,2.73-4.48L141.4-645l.81-2.57.21-1,.78-6.36,1.06-9.5.1-6.47L142.85-684l-2.52-12.11-1.22-8.22-1.4-12.33,0-7.06.6-11.86-4.88-.82.39-1.32,3-14.57,2.88-14.39,1.39-7.27,1.18-7.24,2.41-14.85.19-5.49c0-1.72.25-3.37.37-5.06s.24-3.35.46-5.06l.7-5.17,2.81-20.88.3-4.82.33-4.65c.22-3.1.48-6.19.61-9.3l.94-18.64.41-9.46c.11-1.59,0-3.13,0-4.68s-.08-3.1-.07-4.64l.4-9.18c.14-3,.18-6.22.27-9.32.19-6.24.23-12.47.32-18.7l.11-9.35.06-4.68c0-1.55-.07-3.11-.1-4.66l-.13-4.67v-13.92l-.38-18.69-.21-9.36-.1-4.68-.06-2.33-.17-2.35-1.4-18.78-4.21-36.87c-.11-3.08-.52-6.18-.86-9.28l-1-9.28-2.06-18.56-1-9.18-.52-4.56c-.17-1.52-.22-3.07-.33-4.6l-1.1-17.66,1.07-5.26.14-6.05c0-1.84.07-3.68.18-5.53l.28-5.56c0-.92.09-1.85.11-2.79l.09-2.57.25-2.14.25-2.34c.15-1.58.37-3,.55-4.54l.3-2.26.43-2.27.8-4.32,1.07-4,.57-2.1.5-2a39.55,39.55,0,0,1,1.16-4l1.19-3.78,3.81-9.14c.64-1.57,1.45-3,2.17-4.58l2.08-4.3,7.83-12.71,2-3.24,2.11-3.13c1.4-2.08,2.81-4.3,4.21-6.44l8.43-13c1.39-2.17,2.86-4.26,4.11-6.6l4-7,1.91-4.17c.6-1.32,1.23-2.63,1.76-4l3.41-8.28,3.82-12.87,1.63-9.59.39-2.31c.07-.42.17-.93.22-1.33l.13-1.2.55-4.82.53-4.81c.07-1.67.23-3.49.2-5.06l-.09-9.84-1.28-11.21c-.52-3.58-1.09-7.15-1.42-10.77s-.71-7.19-1.24-10.84-1-7.35-1.67-10.91l-3.56-21.41c-.13-.69-.23-1.38-.34-2.06M495.1,4490.84l-2.86,2.61-7.48,7.14-.42.39-12.14,11.4-.37.34-8.33,10.52-2,2.83-1.19,1.61-1.5,2.23-4.14,6.15-7.19,10.51-.34.42-1.61,1.36-1.13,1-1.6,1.14-2,1.08-2.13,1-1.61.59-2.65.59-1.05.21-2.17.43-2.73.3-4.65.51-6.47.73-.93.21-21.68,2.38.49,3.35,4.78,32.72M146.2,1588.71l.43,13-.25,5.9c-.06,1-.06,2.06-.17,3l-.22,2.61-.92,4.13-.5,2.25-.62,2.26-2.52,9.05L136.38,1649l-2.51,9c-.43,1.48-.78,3-1.28,4.45l-1.48,4.44-5.81,17.44-3.84,8-7.58,11.87-3.66,7.84-1.75,6.91-1.47,6.37-3,13-1,6.61c-.33,2.13-.57,4.28-1,6.37-.88,4.19-1.67,8.43-2.63,12.59-.48,2.09-.87,4.17-1.44,6.27l-1.68,6.28-3.45,12.83-3.51,20.11L87,1818.16l-2.17,5.33-2,3-2.47,3.5-4.68,6.63-6.16,6.4-6.39,4.52c-1.14.79-2.35,1.47-3.52,2.22l-3.19,2-3.57,1.51-4.05,1.66c-2.7,1.11-5.42,2.33-8.09,3.48l-8.05,3.55-8.23,3.84-4.56,2.71-3.64,2.91-7.56,9-5.62,9.67-5.41,9.12c-3.47,6.13-7.61,12-11.51,18-2,2.93-3.8,6.06-5.65,9.15l-5.5,9.27-5.45,9.2-5.6,9.12c-7.22,12.33-15,24-22.78,36.26l-5.41,9.29c-1.87,2.92-3.49,5.9-5.65,8.74-4.14,5.66-7.33,20.9-7.33,20.9l-16.29,23c-5.29,7.75-11.41,15-15.11,23.73l-1,2.92-.48,1.46-.38,1.49-1.49,4.19-2.25,10.62-.57,9.84.39,9,1.36,10.91,2.88,9.52,5.33,9.12L-92.65,2162l6.07,8.53,5.48,8.94,4.14,9.85c2.08,6.32,4.2,12.63,6.17,19l1.8,8.57.91,10.9.09,13.78-2.86,20c-1.54,6.81-2.77,13.69-4.75,20.39l-2.55,6.28c-8.23,14.32-18.51,27.34-29.29,39.81-5.37,6.27-10.85,12.43-16.35,18.59s-11,12.28-16.53,18.42l-25.75,40.25-6.76,24.26-15.24,21.63-7.45,12.67-3.79,6.44c-.61,1.07-1.3,2.15-1.85,3.22l-1.58,2.95-2.29,5.67-.77,3.31v8.81l.34,2.93,1.62,4.09,1.77,3.5c.63,1.26,1.33,2.41,2,3.63,1.35,2.41,2.86,4.88,4.28,7.32s2.87,4.7,4.45,7.74l4.2,8.77,1.54,15.32.21,8.05.09,3.91.21,3.86,1,15.93-.2,10-.82,5.36-1.63,4.23-2.7,5-5.08,6.21-5.41,4.72-5,4.42-5,4.42c-.81.76-1.58,1.56-2.37,2.34l-1.17,1.17-1,.9c-.24.24-1.91,2.66-2.42,3.3l-.31.54-.24.68-.4,1.87-.29,2c-.11.77-.2,1.56-.34,2.3l-.2,1.13-.14,1a7.88,7.88,0,0,0-.12,1l-.08.79-.22,18.18-1.55,13.86-5.55,22-2.73,10.87-.69,2.72-.77,2.67-1.56,5.34-3.11,10.67c-.56,1.77-.93,3.59-1.36,5.39l-1.27,5.42-2.54,10.83c-.84,3.61-1.66,7.22-2.69,10.82l-11.72,43-2.92,10.72c-1,3.58-2,7.13-2.78,10.78l-2.52,10.88c-.38,1.81-1,3.63-1.46,5.45l-1.66,5.8-1.88,4.38c-.58,1.34-1.06,2.77-1.6,4.15l-3.23,8.6-7.49,15.53c-2.45,5.09-4.93,10.18-7.31,15.32s-4.77,10.26-7.25,15.38l-3.73,7.69c-1.23,2.55-2.51,5-3.64,7.57l-1.74,3.84-.91,2-.92,1.92-3.66,7.67-7.31,15.33-7.32,15.33-7,14.92-3.45,12.39-.92,5.22-.86,11.55,0,44.17,1.11,10.2.57,5.25c.18,1.75.38,3.49.69,5.23l3.36,20.88,1.87,18.17,2.26,5.34,2.1,4.14,11.13,17.55,4.66,7,14.84,22.22,9.6,14.36,2,3,5,7.62,2.33,3.54,7.13,11,9.62,14.72,8,12.15.47.72.57.88,3.46,5.38.68,1,12.28,19.39,11.84,19.53,4,6.05,3.72,4.79,21.74,17.64,2.51,2.11,1,.83,2.93,4.65,2.16,3.72,1.75,4.15,1.31,4L-179,3356l.13,4.95.18,6.86.36,8.42.14,3.19.41,3.84,1.4,6.31,6.59,16.8,4.73,8.19,3.68,5.65,8,8.61,1.5,1.49,1.5,1.48,8.8,7.93,9.71,7.3,1.41,1.79,15.34,11.65,6.3,4.19,12.61,8.58,7.63,4.92,5.71,3.22,6.41,3.89,8.16,3.34,10.57,3.16,4.91,1.77,11.28,6.17,14.28,9.33,2.7,1.85,1.41,1.25,1.77,1.61,2.53,2.69,1.15,1.45,1.38,1.92,1.91,2.38,2,3.07,1.77,2.84.43.78,1.64,3.05,1.84,3.68,1.08,2.46,1.76,3.52,1.38,3.22,1.53,3.31,3.92,8,2.48,4.74,4.43,8.47,5.83,15.35,2.26,4.66,3.72,8.38,2.74,6.15,7.82,15.29,4.85,6.13,7,7.13,2.53,2.29L48,3636l3.85,2.54,2.9,1.64,2.07,1.17,6.72,3.8L68.4,3648l28.69,16.57,8.69,4.31,4.53,2.16,3.47,1.44,4.21,1.65,7.9,2.61,4.89,1.21,14.95,3.19,3.88.69,14.76,3,5.94,1.29,4.47,1.76,5.62,3.37,2.07,1.46,7.66,7,6.9,9.09,2.86,3.71,1.73,2.68.95,1.46,16.74,18.66,14.32,8.85,148,71.51,8.09,4.6,18.85,10.29,7.55,3.89,7.31,5.83,6.35,6.8,18.77,46.42,9.14,21.75,14.87,33.47L485,3976.14l5.29,12.43,1.92,4.58.72,2,.27.89,2.67,7.65.5,5.57.77,14.42.18,3.37.47,5.11,1.75,10.18L503,4058l2.18,6.16.77,6.42.07,8.13-2,11.66-2.69,12.47-2.66,10.32-1.18,4.3-1.13,3.08-.11.32-.26.7-2.23,4.87-1.9,2.67-3.73,5.34-3.91,3.56-3.52,2.74-.5.43-3.78,3.15-12.12,10.09L444,4171.31l-13.54,11.84-16.28,13.24-3.51,2.07-11.22,9.86-12.95,12.78-10.86,14-16.29,22.92-.55,1.09-5.23,10.38-1.57,6-1.51,27.83.2,3.45.51,8.73,1.26,22.47.26,2.39,1.39,7.36,4.62,8.28,19.59,18,16.2,14.78,20.18,18.69,9.51,9.28,23.42,21.83,8,7.46,1.59,2,20.09,22.75,1.85,2.2,9.49,11.22,4,4.21,2.51,2.44M-73,139l-1.17,1-12,12.85-3,2.54c-1.1.94-2.25,1.84-3.32,2.81l-7,6.72-1.18,1.12c-.38.38-.89.69-.84,1.3l-.5,3.2-.75,4.86-1.24,8.17-.67,3-1.38,2.05c-.66,1-1.33,2-2,3l-3.78,6-26.55,41.4-1.12,3c-.37,1-.81,1.86-1.21,2.79s-.88,1.8-1.32,2.7-1.06,1.9-1.58,2.85l-6.5,11.49-6.49,11.48-3.26,5.81-1.65,3-1.48,3c-3.84,8-8.13,15.75-12.22,23.61l-5.71,12.18c-1,2-1.86,4.12-2.75,6.24-.43,1.06-.92,2.09-1.31,3.19l-1.07,3-2.41,5.09c-1.88,5.72-3.12,9.62-5.15,15.23l-1.56,6.88-.46,4.61c-.07,1.4-.09,2.78-.14,4.17l-.24,7.67-1.72,7-.66,11.75-.42,11.2,10.86,22.75L-188,440.6l-.05,5.58-.19,5.63-.41,11.27c-.17,3.75-.48,7.48-.72,11.22-1,15-2.27,29.68-2.45,44.32l0,5.56-.11,5.61-.25,11.23-.28,11.09c0,1.8,0,3.59,0,5.39l0,2.69c0,.91.11,1.54.14,2.23l1.53,7.52,1,3.32,1.08,3.61,2.32,7.79.7,8.59,0,.62,0,7.31-1.54,12.8.78,9.49.95,9.8.71,3.73c.25,1.34.52,2.67.82,4l1.72,7.93c.53,2.68,1.26,5.18,1.93,7.76l2.17,7.48,4.45,10.29,25.51,43.47c2.87.73,5.74,1.44,8.63,2.1l19.42,4.46,9.85,2.24-3.21,14.13-1.84,9.91-.46,2.47-.61,2.44-1.21,4.87c-3.31,13-6.24,26-10.17,39l-11.15,38.88-5.39,19.44c-.84,3.26-1.91,6.44-2.93,9.63l-3.07,9.58-6.14,19.15-3.48,9.39c-1.17,3.13-2.29,6.24-3.57,9.4l-7.45,18.86-1.86,4.71c-.61,1.58-1.15,3.19-1.73,4.79l-3.43,9.59c-2.27,6.39-4.61,12.78-6.7,19.16l-3.23,9.57c-.54,1.59-1.05,3.2-1.63,4.78l-1.79,4.74-3.59,9.46c-1.14,3.27-2.29,6.57-3.26,10l-5.12,20-1.75,9.69-.87,9-1.36,3.44-7.72,18-2.17,5.21-1.24,3-6.16,14.79-.17.4-5.25,13.82-.34.9-3.35,9.27-.91,2.86-2.1,6.88-1.16,6.12-.7,4.46-.21,1.75-.09.77.18,3.76.48,4.23.87,5.08,1.15,4.41,1.07,3,3.48,7.21.33.7,3.3,5.82,5.6,8.53,4.14,5.08,4.63,3.9,8.61,7.23,5,3.66,5.87,4.64,9.21,3.29,2.65,1,11.36,3.51,23.23,6.64.14.09,4,6.06,15.76,12.09,9.83,6.18,8.18,6.74L-99.45,1264l2.61,2.58,1.3,1.29,1.17,1.28c.78.83,1.58,1.75,2.38,2.67l2.92,3.33,6.46,4.37c1.93,1.32,3.92,2.62,5.94,3.91s4,2.64,6,3.86l6.3,3.52c4.2,2.3,8.35,4.32,12.52,6.5l12.73,6.52,17.71,7.32,8,2.16c1.28.33,2.54.7,3.79,1.08l3,.91,9.85,6.16,33.8,26.77,17.11,13.28,4.12,3.36,4.11,3.48,8,6.74,6.62,7.42,6.77,7.9c4.68,5.21,9.23,10.44,14,15.63,2.43,2.64,4.79,5,7.19,7.52s4.55,5,6.79,7.5l12.49,15.7,1.83,3.61c.69,1.39,1.42,2.75,2.07,4.16l3.91,8.23,3.58,9.14,1.28,6.58c.52,2.36.79,4.76,1.14,7.16l2,14.36.51,3.59a35.93,35.93,0,0,1,.43,3.61l.53,7.33.54,7.33c.13,2.43.69,4.88.86,7.26l.5,7.13.44,7.25.11,1.82.05,1.74.1,3.67.21,7.35.41,14.69.24,7.27v7.55l1.12,11.12"/><path class="cls-6" d="M-101.53,167.32l-1.4-4.93-.1-12.68.31-7.3.61-6.86.91-6.47,1.24-7.79,1.88-8.61,2.22-6.71,2.17-5.81,2.41-5.62,15.17-30.76,8.43-17.67,5-12.47,1.79-8.9,2.16-15.58.93-11.51,1-10.82-1.27-4.12.43-9.87L-59.66-39-73.39-93.85l-14-57.57,36.34-8.94,14.68,57.48,7,30.33,6.29,26.34.36,6.17-2.29,17-1,8.3-1.58,3.67L-28.64.1l-1,12.67-2.44,17.32L-34.51,42-41,58.3l-8.77,18.36-15,30.46-1.78,4.18-1.7,4.6-1.49,4.5-1.45,6.69-1,6.4L-73,139M193.85-1401.6l10.46,2.9,8.35,2.31,6.41,1.71,3.58,1,2.32.75,5.26,2,6.3,2.66,8.91,3.77,3.66,1.46,10.11,3.8,7.58,2.27,6.59,2,7.79,2,6.52,1.43,4.49.66,3.85,0h6.77l16.49-.11h17.92l10.7-.12,9.93-.06.16-1.71,2.87-31.19.36-3.9c.12-1.31.2-2.54.45-4.06l3.52-13.34-18.46-12.48L327-1451.06l-2.65-3-3.11-2.17-4-2.7-8.75-5.76-4.2-2.76L300-1470.1l-8.32-5.07-7.78-3.6-8.65-3.43-8.54-3.15-8.51-3L244.4-1492l-3.2-.81-3.6-.76-7.28-1.54-14.55-3.09-7.31-1.55-3.17-.6-2.82-.5m0,0,.68,17.57-1.92,6.72c-.73,2.64-1.56,5.27-2.2,7.91l-1.92,7.92-1.91,7.91c-.34,1.32-.58,2.65-.87,4l-.78,3.71-1,8.93-.65,15.85.29,5c.05,1.76.38,3.5.56,5.26.37,2.83.66,5.64,1.09,8.49M308-1860.46l-10.61,12.83-6.53,9.6-2.24,6.85-1.95,8.12c-.71,2.62-1.08,5.28-1.55,7.92s-.88,5.32-1.4,7.91l-1.57,7.81-1.55,7.81-1.45,7.89c-1,5.28-1.85,10.44-2.78,15.66-.47,2.6-.87,5.21-1.48,7.8s-1,5.25-1.45,7.87c-.92,5.27-2.07,10.42-3.1,15.63-.53,2.58-1.05,5.21-1.55,7.84l-1.51,7.82-1.52,7.79-1.55,7.36-4,11.25c-1.41,3.87-2.74,7.76-4.08,11.65-2.68,7.81-5.34,15.49-8.15,23.21l-16.77,46.38c-1.39,3.88-2.87,7.75-4.08,11.66l-1.9,5.85-2.1,5.76-8.48,23.09-2.12,5.82-2,5.85-4,11.72-2,5.86-1,2.93-1,3.05-1,3.06-.13.52,1.06,27.45M-73,139l21.16-17.37L-1.38,53.43l7.94-9.86L28.13,10.76l6.4-9.66L41.08-10l3.84-7.27L51-30.16l5.61-14.67L60-56.4l1.82-8.67,1.62-8.66L64.48-83l.32-7.85.08-7.66-.74-10.25-1-9.84-3-14-1.91-6.68L54.55-149.6l-5.14-12.58-8.24-15.54L37.25-187l3.55-1.91,50.37-24.19,3.66-1.79-3.42-7.16-4.57-8.27-9.6-20L53-296.69,32.2-336.5l-6.75-14.7-1.93-5.58L18.09-373.3l-3.93-12.65-3.52-13.39-.78-5.55-.06-2.83.52-6.54,1.07-7.33,1-4,1.86-5.14,3.38-7.73,2.72-5.5,1-2.06,2.78-4.77,4-6.93L30.34-459l1-1.66L38-471.93l7.74-13.21L47-487.36l9.66-16.34,50.93-83.67,27.24-45.74,2.73-4.48L141.4-645l.81-2.57.21-1,.78-6.36,1.06-9.5.1-6.47L142.85-684l-2.52-12.11-1.22-8.22-1.4-12.33,0-7.06.6-11.86-4.88-.82.39-1.32,3-14.57,2.88-14.39,1.39-7.27,1.18-7.24,2.41-14.85.19-5.49c0-1.72.25-3.37.37-5.06s.24-3.35.46-5.06l.7-5.17,2.81-20.88.3-4.82.33-4.65c.22-3.1.48-6.19.61-9.3l.94-18.64.41-9.46c.11-1.59,0-3.13,0-4.68s-.08-3.1-.07-4.64l.4-9.18c.14-3,.18-6.22.27-9.32.19-6.24.23-12.47.32-18.7l.11-9.35.06-4.68c0-1.55-.07-3.11-.1-4.66l-.13-4.67v-13.92l-.38-18.69-.21-9.36-.1-4.68-.06-2.33-.17-2.35-1.4-18.78-4.21-36.87c-.11-3.08-.52-6.18-.86-9.28l-1-9.28-2.06-18.56-1-9.18-.52-4.56c-.17-1.52-.22-3.07-.33-4.6l-1.1-17.66,1.07-5.26.14-6.05c0-1.84.07-3.68.18-5.53l.28-5.56c0-.92.09-1.85.11-2.79l.09-2.57.25-2.14.25-2.34c.15-1.58.37-3,.55-4.54l.3-2.26.43-2.27.8-4.32,1.07-4,.57-2.1.5-2a39.55,39.55,0,0,1,1.16-4l1.19-3.78,3.81-9.14c.64-1.57,1.45-3,2.17-4.58l2.08-4.3,7.83-12.71,2-3.24,2.11-3.13c1.4-2.08,2.81-4.3,4.21-6.44l8.43-13c1.39-2.17,2.86-4.26,4.11-6.6l4-7,1.91-4.17c.6-1.32,1.23-2.63,1.76-4l3.41-8.28,3.82-12.87,1.63-9.59.39-2.31c.07-.42.17-.93.22-1.33l.13-1.2.55-4.82.53-4.81c.07-1.67.23-3.49.2-5.06l-.09-9.84-1.28-11.21c-.52-3.58-1.09-7.15-1.42-10.77s-.71-7.19-1.24-10.84-1-7.35-1.67-10.91l-3.56-21.41c-.13-.69-.23-1.38-.34-2.06M495.1,4490.84l-2.86,2.61-7.48,7.14-.42.39-12.14,11.4-.37.34-8.33,10.52-2,2.83-1.19,1.61-1.5,2.23-4.14,6.15-7.19,10.51-.34.42-1.61,1.36-1.13,1-1.6,1.14-2,1.08-2.13,1-1.61.59-2.65.59-1.05.21-2.17.43-2.73.3-4.65.51-6.47.73-.93.21-21.68,2.38.49,3.35,4.78,32.72M146.2,1588.71l.43,13-.25,5.9c-.06,1-.06,2.06-.17,3l-.22,2.61-.92,4.13-.5,2.25-.62,2.26-2.52,9.05L136.38,1649l-2.51,9c-.43,1.48-.78,3-1.28,4.45l-1.48,4.44-5.81,17.44-3.84,8-7.58,11.87-3.66,7.84-1.75,6.91-1.47,6.37-3,13-1,6.61c-.33,2.13-.57,4.28-1,6.37-.88,4.19-1.67,8.43-2.63,12.59-.48,2.09-.87,4.17-1.44,6.27l-1.68,6.28-3.45,12.83-3.51,20.11L87,1818.16l-2.17,5.33-2,3-2.47,3.5-4.68,6.63-6.16,6.4-6.39,4.52c-1.14.79-2.35,1.47-3.52,2.22l-3.19,2-3.57,1.51-4.05,1.66c-2.7,1.11-5.42,2.33-8.09,3.48l-8.05,3.55-8.23,3.84-4.56,2.71-3.64,2.91-7.56,9-5.62,9.67-5.41,9.12c-3.47,6.13-7.61,12-11.51,18-2,2.93-3.8,6.06-5.65,9.15l-5.5,9.27-5.45,9.2-5.6,9.12c-7.22,12.33-15,24-22.78,36.26l-5.41,9.29c-1.87,2.92-3.49,5.9-5.65,8.74-4.14,5.66-7.33,20.9-7.33,20.9l-16.29,23c-5.29,7.75-11.41,15-15.11,23.73l-1,2.92-.48,1.46-.38,1.49-1.49,4.19-2.25,10.62-.57,9.84.39,9,1.36,10.91,2.88,9.52,5.33,9.12L-92.65,2162l6.07,8.53,5.48,8.94,4.14,9.85c2.08,6.32,4.2,12.63,6.17,19l1.8,8.57.91,10.9.09,13.78-2.86,20c-1.54,6.81-2.77,13.69-4.75,20.39l-2.55,6.28c-8.23,14.32-18.51,27.34-29.29,39.81-5.37,6.27-10.85,12.43-16.35,18.59s-11,12.28-16.53,18.42l-25.75,40.25-6.76,24.26-15.24,21.63-7.45,12.67-3.79,6.44c-.61,1.07-1.3,2.15-1.85,3.22l-1.58,2.95-2.29,5.67-.77,3.31v8.81l.34,2.93,1.62,4.09,1.77,3.5c.63,1.26,1.33,2.41,2,3.63,1.35,2.41,2.86,4.88,4.28,7.32s2.87,4.7,4.45,7.74l4.2,8.77,1.54,15.32.21,8.05.09,3.91.21,3.86,1,15.93-.2,10-.82,5.36-1.63,4.23-2.7,5-5.08,6.21-5.41,4.72-5,4.42-5,4.42c-.81.76-1.58,1.56-2.37,2.34l-1.17,1.17-1,.9c-.24.24-1.91,2.66-2.42,3.3l-.31.54-.24.68-.4,1.87-.29,2c-.11.77-.2,1.56-.34,2.3l-.2,1.13-.14,1a7.88,7.88,0,0,0-.12,1l-.08.79-.22,18.18-1.55,13.86-5.55,22-2.73,10.87-.69,2.72-.77,2.67-1.56,5.34-3.11,10.67c-.56,1.77-.93,3.59-1.36,5.39l-1.27,5.42-2.54,10.83c-.84,3.61-1.66,7.22-2.69,10.82l-11.72,43-2.92,10.72c-1,3.58-2,7.13-2.78,10.78l-2.52,10.88c-.38,1.81-1,3.63-1.46,5.45l-1.66,5.8-1.88,4.38c-.58,1.34-1.06,2.77-1.6,4.15l-3.23,8.6-7.49,15.53c-2.45,5.09-4.93,10.18-7.31,15.32s-4.77,10.26-7.25,15.38l-3.73,7.69c-1.23,2.55-2.51,5-3.64,7.57l-1.74,3.84-.91,2-.92,1.92-3.66,7.67-7.31,15.33-7.32,15.33-7,14.92-3.45,12.39-.92,5.22-.86,11.55,0,44.17,1.11,10.2.57,5.25c.18,1.75.38,3.49.69,5.23l3.36,20.88,1.87,18.17,2.26,5.34,2.1,4.14,11.13,17.55,4.66,7,14.84,22.22,9.6,14.36,2,3,5,7.62,2.33,3.54,7.13,11,9.62,14.72,8,12.15.47.72.57.88,3.46,5.38.68,1,12.28,19.39,11.84,19.53,4,6.05,3.72,4.79,21.74,17.64,2.51,2.11,1,.83,2.93,4.65,2.16,3.72,1.75,4.15,1.31,4L-179,3356l.13,4.95.18,6.86.36,8.42.14,3.19.41,3.84,1.4,6.31,6.59,16.8,4.73,8.19,3.68,5.65,8,8.61,1.5,1.49,1.5,1.48,8.8,7.93,9.71,7.3,1.41,1.79,15.34,11.65,6.3,4.19,12.61,8.58,7.63,4.92,5.71,3.22,6.41,3.89,8.16,3.34,10.57,3.16,4.91,1.77,11.28,6.17,14.28,9.33,2.7,1.85,1.41,1.25,1.77,1.61,2.53,2.69,1.15,1.45,1.38,1.92,1.91,2.38,2,3.07,1.77,2.84.43.78,1.64,3.05,1.84,3.68,1.08,2.46,1.76,3.52,1.38,3.22,1.53,3.31,3.92,8,2.48,4.74,4.43,8.47,5.83,15.35,2.26,4.66,3.72,8.38,2.74,6.15,7.82,15.29,4.85,6.13,7,7.13,2.53,2.29L48,3636l3.85,2.54,2.9,1.64,2.07,1.17,6.72,3.8L68.4,3648l28.69,16.57,8.69,4.31,4.53,2.16,3.47,1.44,4.21,1.65,7.9,2.61,4.89,1.21,14.95,3.19,3.88.69,14.76,3,5.94,1.29,4.47,1.76,5.62,3.37,2.07,1.46,7.66,7,6.9,9.09,2.86,3.71,1.73,2.68.95,1.46,16.74,18.66,14.32,8.85,148,71.51,8.09,4.6,18.85,10.29,7.55,3.89,7.31,5.83,6.35,6.8,18.77,46.42,9.14,21.75,14.87,33.47L485,3976.14l5.29,12.43,1.92,4.58.72,2,.27.89,2.67,7.65.5,5.57.77,14.42.18,3.37.47,5.11,1.75,10.18L503,4058l2.18,6.16.77,6.42.07,8.13-2,11.66-2.69,12.47-2.66,10.32-1.18,4.3-1.13,3.08-.11.32-.26.7-2.23,4.87-1.9,2.67-3.73,5.34-3.91,3.56-3.52,2.74-.5.43-3.78,3.15-12.12,10.09L444,4171.31l-13.54,11.84-16.28,13.24-3.51,2.07-11.22,9.86-12.95,12.78-10.86,14-16.29,22.92-.55,1.09-5.23,10.38-1.57,6-1.51,27.83.2,3.45.51,8.73,1.26,22.47.26,2.39,1.39,7.36,4.62,8.28,19.59,18,16.2,14.78,20.18,18.69,9.51,9.28,23.42,21.83,8,7.46,1.59,2,20.09,22.75,1.85,2.2,9.49,11.22,4,4.21,2.51,2.44M-73,139l-1.17,1-12,12.85-3,2.54c-1.1.94-2.25,1.84-3.32,2.81l-7,6.72-1.18,1.12c-.38.38-.89.69-.84,1.3l-.5,3.2-.75,4.86-1.24,8.17-.67,3-1.38,2.05c-.66,1-1.33,2-2,3l-3.78,6-26.55,41.4-1.12,3c-.37,1-.81,1.86-1.21,2.79s-.88,1.8-1.32,2.7-1.06,1.9-1.58,2.85l-6.5,11.49-6.49,11.48-3.26,5.81-1.65,3-1.48,3c-3.84,8-8.13,15.75-12.22,23.61l-5.71,12.18c-1,2-1.86,4.12-2.75,6.24-.43,1.06-.92,2.09-1.31,3.19l-1.07,3-2.41,5.09c-1.88,5.72-3.12,9.62-5.15,15.23l-1.56,6.88-.46,4.61c-.07,1.4-.09,2.78-.14,4.17l-.24,7.67-1.72,7-.66,11.75-.42,11.2,10.86,22.75L-188,440.6l-.05,5.58-.19,5.63-.41,11.27c-.17,3.75-.48,7.48-.72,11.22-1,15-2.27,29.68-2.45,44.32l0,5.56-.11,5.61-.25,11.23-.28,11.09c0,1.8,0,3.59,0,5.39l0,2.69c0,.91.11,1.54.14,2.23l1.53,7.52,1,3.32,1.08,3.61,2.32,7.79.7,8.59,0,.62,0,7.31-1.54,12.8.78,9.49.95,9.8.71,3.73c.25,1.34.52,2.67.82,4l1.72,7.93c.53,2.68,1.26,5.18,1.93,7.76l2.17,7.48,4.45,10.29,25.51,43.47c2.87.73,5.74,1.44,8.63,2.1l19.42,4.46,9.85,2.24-3.21,14.13-1.84,9.91-.46,2.47-.61,2.44-1.21,4.87c-3.31,13-6.24,26-10.17,39l-11.15,38.88-5.39,19.44c-.84,3.26-1.91,6.44-2.93,9.63l-3.07,9.58-6.14,19.15-3.48,9.39c-1.17,3.13-2.29,6.24-3.57,9.4l-7.45,18.86-1.86,4.71c-.61,1.58-1.15,3.19-1.73,4.79l-3.43,9.59c-2.27,6.39-4.61,12.78-6.7,19.16l-3.23,9.57c-.54,1.59-1.05,3.2-1.63,4.78l-1.79,4.74-3.59,9.46c-1.14,3.27-2.29,6.57-3.26,10l-5.12,20-1.75,9.69-.87,9-1.36,3.44-7.72,18-2.17,5.21-1.24,3-6.16,14.79-.17.4-5.25,13.82-.34.9-3.35,9.27-.91,2.86-2.1,6.88-1.16,6.12-.7,4.46-.21,1.75-.09.77.18,3.76.48,4.23.87,5.08,1.15,4.41,1.07,3,3.48,7.21.33.7,3.3,5.82,5.6,8.53,4.14,5.08,4.63,3.9,8.61,7.23,5,3.66,5.87,4.64,9.21,3.29,2.65,1,11.36,3.51,23.23,6.64.14.09,4,6.06,15.76,12.09,9.83,6.18,8.18,6.74L-99.45,1264l2.61,2.58,1.3,1.29,1.17,1.28c.78.83,1.58,1.75,2.38,2.67l2.92,3.33,6.46,4.37c1.93,1.32,3.92,2.62,5.94,3.91s4,2.64,6,3.86l6.3,3.52c4.2,2.3,8.35,4.32,12.52,6.5l12.73,6.52,17.71,7.32,8,2.16c1.28.33,2.54.7,3.79,1.08l3,.91,9.85,6.16,33.8,26.77,17.11,13.28,4.12,3.36,4.11,3.48,8,6.74,6.62,7.42,6.77,7.9c4.68,5.21,9.23,10.44,14,15.63,2.43,2.64,4.79,5,7.19,7.52s4.55,5,6.79,7.5l12.49,15.7,1.83,3.61c.69,1.39,1.42,2.75,2.07,4.16l3.91,8.23,3.58,9.14,1.28,6.58c.52,2.36.79,4.76,1.14,7.16l2,14.36.51,3.59a35.93,35.93,0,0,1,.43,3.61l.53,7.33.54,7.33c.13,2.43.69,4.88.86,7.26l.5,7.13.44,7.25.11,1.82.05,1.74.1,3.67.21,7.35.41,14.69.24,7.27v7.55l1.12,11.12"/></g></g><g id="日交線"><g id="若桜"><path class="cls-7" d="M404.52-1449.65l1.18-4.35,2.22-8.72c1.44-5.81,3-11.63,4.35-17.44l3.85-17.44c2.54-11.56,5.29-23.16,7.62-34.46.31-1.42.58-2.83.93-4.27l1.1-4.36,1.09-4.37c.36-1.42.75-3,1-4.34l.42-1.69.22-.86.29-1,1.15-4.17,2.65-9.62,1.25-9.88.46-10v-.14c.72-18.17,1.32-36.22,1.87-54.48l.76-27.13.31-13.65.26-14.29-.21-3.42v2.07l.43-7.28,1.27-9.75,1.53-6.94,2.06-5,4.42-8.23-.68,1.16,1-1.5,6.07-11c1.92-3.48,3.71-6.84,5.75-10.31l11.88-20.7,5.94-10.34q3-5.17,5.85-10.34c1.93-3.43,3.77-6.94,5.82-10.25l6.41-10.74,1.37-2.84s4.79-16.9,10-25.14l-.17.26,18.57-27L534-1887c1.5-2.26,3.21-4.33,4.83-6.47l5.67-7.36L548-1908l1.22-1.39,1.78-2.77,3.58-5.53m135.6,138.28,31,89.2.67,18.07-1.62,27.22c-.19,4.54-.72,9.06-1.16,13.58l-1.4,13.56-4,21c-.68,3.5-1.32,7-2.05,10.5s-1.29,7-2.29,10.44l-.33,5.49c0,1.84,0,3.67,0,5.5,0,3.67-.16,7.34.16,11l1.06,5.65c.91,3.17,1.7,6.37,2.72,9.51l3.26,9.33,5.61,10.57c.94,1.76,1.84,3.54,2.82,5.27l3.14,5.1,6.24,10.21,6,10.36,6,10.37,3,5.18c1,1.74,2,3.44,2.9,5.24,1.76,3.58,3.78,7,5.65,10.54l5.73,10.5,5.73,10.51,2.86,5.25,1.44,2.63c.46.88.87,1.79,1.31,2.68.89,1.79,1.7,3.62,2.65,5.37l2.91,5.22,5.83,10.46,8.11,15.06,4.77,15.66,5.93,19.42c4.41,8.1,8.76,16.25,13.14,24.36l1.91,3.56,1.85,3.68,3.71,7.34,7.41,14.68L863-1241.65l15.24,29.14,7.62,14.57c2.52,4.87,4.77,9.89,7.17,14.83,4.8,9.89,9.2,19.91,14.7,29.64l3.89,7.26,2,3.63c.35.67.6,1.07.8,1.53l.74,1.73c.54,1.28,1.07,2.56,1.68,3.87l1.72,3.77,3.18,6.91.94,4.3.83,11.69c.33,4,.45,8,.67,12l1.18,24.14c.26,4,.23,8,.34,12s.19,8,.12,12l-6,24-.56,23.72q-.26,11.94-.41,23.9T918.65-953l.06,12c0,4.12.15,8.13.23,12a167.49,167.49,0,0,1-.57,22.2c-.22,1.82-.41,3.23-.75,4.86s-.73,3.25-1.2,5c-.95,3.44-2.16,7.08-3.38,11a109.69,109.69,0,0,0-3.29,12.85,76.79,76.79,0,0,0-1.21,13.93,142.31,142.31,0,0,0,2.83,25.73A206.85,206.85,0,0,0,917.11-809a124,124,0,0,0,4.16,12.44c.48,1.16,1.05,2.35,1.66,3.54s1.46,2.59,1.86,3.25l3.13,5.14a116.38,116.38,0,0,0,7.44,10.91,100.48,100.48,0,0,0,9.08,9.91l4.44,4.23,2.2,2.08c.92.87,1.84,1.66,2.74,2.41,3.61,3,6.9,5.25,9.45,7.35l18.12,15.22c6.2,5.19,12.28,10.08,17.89,15.09a138.4,138.4,0,0,1,15.3,15.75,147.05,147.05,0,0,1,12.62,18c.93,1.55,1.88,3.09,2.85,4.6l3.12-1.44,7-4.12,7-4.12,11.83-5.48,18.24-6.32m57.83,454-6.05-12.84-2.61-6.21-2.42-7.32-1.74-5.58-1.09-5.21-.94-6.23-.68-9.09-.05-1.08-.8-18.17L1115-349.64l-2-11.54c3.56-.62,7-1.15,10.11-1.76,1.58-.3,3.11-.62,4.58-1s2.91-.75,4.1-1.14c2.56-.84,5.58-2.18,9.24-3.6l1.41-.53,1.19-.42.92-.3,1.52-.48.76-.24c.25-.06.56-.18.55-.48a10.46,10.46,0,0,0,0-2l-.45-5.9-1.42-20.06L1144-420l-1.13-21.26-.55-10.57c-.09-3.13-.36-6.62-.47-10.49a67.73,67.73,0,0,1,.69-12.51c.62-4.11,1.52-7.8,2.3-11.18l11.58-3.19,8.41.25,5.34-1,5.77-1.67L1182-494l2-1,3.94-3.16,4.17-3.47,2.52-2.49,4.9-6.74,2.65-3.64c.87-1.22,1.85-2.3,2.77-3.46l11.16-13.66L1227-545.3c3.58-4.63,7.11-9.36,10.67-14,1.8-2.32,3.49-4.72,5.39-7l5.74-6.76L1260-586.59l22-26.65,2.75-4.78,3.65-7.9.88-2.47,1.76-7.1.08-.91c0-.3.06-.61.08-1,0-.77.1-1.48.08-2.29l0-4.35-1.64-7c-.55-2.5-1.28-5-2-7.46l-4.42-14.88-7.88-20.3-3.41-7-3.24-5.41-3.51-4.51-3.8-3.8-14.31-11.33-4.83-3.29c-.84-.54-1.67-1.17-2.5-1.83l-2-1.58-4.5-2.48-5-1.52-5.07-.74-6.53-.08-7.23.83-18.77,4.32c-6.34,1.5-12.72,2.78-19,4.79l-18.83,5.52-19,5.17-19.08,5-4.73,1.22-4.68,1.28c-3.12.89-6.26,1.63-9.35,2.65l-9.32,2.91c-3.08,1-6.17,1.88-9.25,3m-28.64,1177,2.65,7.15.76,2.05.48,1.3,5.49,8.05,5.18,7.13,7.52,8.29L1086,527.77l32,39,9.2,9.58,1.92,2.24,14.73,15.91,14.83,18.73,40,51.55,5,5,8.72,6.06,8.44,4,30.37,8.08,8.35,1.39,7.57,0,18.68-3.19,2.53-.43,7.37-1.67,6.74-.87,5.31.68,3.93,1.5,3.3,1.84,9.06,8.18,16.49,14.53,11.27,9.91,14.69,13.87,10.42,13,10,13.63,4.59,7.19,5.48,7.27,3.73,4.46,3.53,4,4.85,4.79,6,5.54,9.3,6.28,12,4.83.62.24,6.58,1.35,6.59,1.07,17.83,3.33,6.76,1.81,1.78.77,33.76,14.63,11.79,5.11,29.26,13.61,7.12,4.51,12.91,11.54L1596.94,892l11.3,13.24,1,1.07,23,26.31,10.56,12.31L1677,984.72l19,22.1,1,1.1,9.49,10.49,14,13.1,35,24.59,4.38,3.29M1064.53,361.74l2.43-7.89,2.09-7,1.33-4.46,5.18-18.08,7.5-26.25,9.86-34,1.13-4.58.67-2.3,3.17-10.28,6.86-15.52,5.14-9.23,8.29-11.18,6.25-6.08,27.13-30.41,6.37-7.14,1.75-2,23.13-25.92L1203.87,116l5.54-6.18,10.34-11.65,11.47-15.12,4.51-11.33,2.14-6.56,2.13-6.8,1.08-9.88.5-9.08-.9-12.74-1-6.05-2.21-9.25-15.79-43-14.76-40.76L1161.8-192.62l-2.34-6.18-1.72-3.65-22.58-44m-70.63,608.23-16.57-5.3-13.31-3.84-2.09-.6-4-1.05-4.72-1.44-6.53-1.59-6.27-1.74-2.46-1.28-2.48-1.21-6.42-3.83-1.63-.93-1.52-.61-.65-.12-.64.12-.56.44-.61.75-.45.84-1.66,4-.52,1.53-1.16,2.55-9,19.23-9.15,18-1.05,2.07-1.65,3.12-.54,1.05-7.61,15.39-1.15,2.27-1.93,3.9-2.31,4.12,1.63,1.34,1.18,1.47,2.63,3.09,2.92,3.29,2.58,3.34.21.27.79,1,1.65,2.13.37.48,9.8,12.45,1.57,1.7,4.77,6.21.08.11.36.47,3,3.87,1.59,2,2.52,3.08,2.24,2.75,1.45,1.28,3.83,3.36.64.39,6.44,3.85,2.42.85,4.84,1.7,2.73.28h3.45l27.16-1.89m3501.8,2013.31L4540.26,2476l-5.73-7.71-4.3-9-3.15-.78-1.61-.39-20.43-3.79-2.55-.72-4.08-6.2L4484,2429.18l-.84-1-2.28-1.95-12.13-14.39-13.44-15.91-3.42-4.15-7.15-8.6-6.16-7.41-7.66-9.25-2.68-3.25-10.38-12.42-20.11-24.58-.33-.4-12.57-14.74-6.76-8.32-5.09-6.24-11.92-14.3-10.81-13.11-1.69-1.49-14.72-13.59-4-3.63-.2-.17L4317,2239.14l-5.46-4.82-2.93-2.6-12.59-10.9-25.44-23.28-3.91-3.83-4.59-4.51-1.9-1.59-2.95-2.61-3-2.58-5.91-3.31-3.06-2-2.08-1.39-2.93-5.36-4.67-6.94-8.12-4.84-5.74-5.3-1.27-4.1-84.55-69.79-22.32-20.31-14-14-22.88-26.52-53.58-71.9-23.76-32.76-39.09-56.27-3-3.76-6.78-10.81-5.18-13.42-1.72-10.74-4.61-74.2-3.25-48.52-2.6-11.66-4.31-10.29-4.21-8.15-10.74-14.76-12.55-10.48-1.06-1-23-10.55-12.85-3.45-9.78-1-8.05.38-9.83,1.13-12.64,3.25-9,4-13,8.43-10.16,7.26-1.9,1.35-40,30.4-3.44,2.54-17,15.69-8.23,9.39-7.45,11.15L3694.48,1746,3660,1794.67l-7,6.54-5.72,4.54-8.83,3.73-14.91,2.82-1.91.23-18.36,2.17-8.49.66-16.72,1.06-1.17.07-22.81,1.36-14,.88-.55,0-11,.43-3,.12-8.45.57-.59,0-16.4,1.17-8.76.61-2.36.17h-9.46l-6.24-.1-5.52-.64-5.52-.82-4.75-.83-9.37-1.61-4.95-1-14.62-2.55-18.64-3.53-.54-.11-14.13-2.68-11-1.72-28.61-5.65-39.71-7.12-37.47-7-31.37-5.78-3.11-.78-60.62-11.18-14.74-3.14-9.91-4-8.31-4.87-7.38-6.38-2.37-2.81-20.9-19.68-25.83-24.33-11.45-6.54-20-8.6L3031,1675l-8.58-2.39-3.95-1.09-15.57-2.1-9.4.11-12.31.1-22.24.19-13.9-.28-56-13.24-27.65-6.35-8.37-1.44-10.83-1.23-58.82-4.71-7.88-.88-8.31-.36-8.31.89-9.5,1.89-9.8,2.46-6.36,2.56-36.09,20.84-6,2.29-6.1,1-12.39.09-86.56.66h-4.43l-32-6.74-8-1.68-.77-.16-4.73-.61-4.72.26-21.11,5.91-4.46.52h-4.47l-8.84-2.84-34.33-13.57-5.32-2.32-4.93-2.14-8.15-4.37-4.61-2.48-9.62-7.2-9.12-7.88-1.14-1-.83-.86-23.88-24.43-27.94-28.87-1-1-2.87-2.8-1.11-1.07-11.2-11.43-8.18-8.35-11.8-16.79-7.33-10.8-12-18-5.9-6.15-10.19-7.63L2269,1475.56l-26.28-16.35-49.09-31.06-8-4.89-10.94-5.21-6.64-1.62-9.94-1.6-17.14-1.75-18.35-4.44-5.18-2.55-1.25-.63-9.58-5.27L2082,1385.61l-21-12.49-9.95-5.9-20.64-12.32-84.24-49.85-2.5-2.4-1.27-.84-3.7-2.43-4.28-4.65-5.47-7-3.59-6.54-2.07-6.85-.38-1.26-1.7-5.73-1.26-5.47-3.25-11.68-2.24-6.12-1.64-3.92-1.2-2.47-2.46-5.16-2.18-4.68-.25-.54-6.58-14.78-2.21-4.71-5.31-8.28-34.92-43.89-1.28-1.61-16-20.55-22.91-29.32-3.12-3.4-1.31-1.42-10.3-9.69-.83-.59-16.22-11.62-.65-.47-7.71-5.15-2.09-1.4-3.48-2.52-2.38-1.72-2-1.47-3.76-2.73-3.69-2.55M704.7-1388.22l6.72.64,3.35.33c1.13.12,2.26.31,3.38.47l7.17,1,5.77,1.27,5.6,1.71,4.06,1.81s8,5.48,8.11,5.49l.95.2,20.47,2.07,2.51-1.09,2.74.13,4.14.19,2.06.1,2,.14,8,.29,7,.25m-395.15-72.69c.15-.66.28-1.34.44-2l.51-1.82"/><path class="cls-8" d="M404.52-1449.65l1.18-4.35,2.22-8.72c1.44-5.81,3-11.63,4.35-17.44l3.85-17.44c2.54-11.56,5.29-23.16,7.62-34.46.31-1.42.58-2.83.93-4.27l1.1-4.36,1.09-4.37c.36-1.42.75-3,1-4.34l.42-1.69.22-.86.29-1,1.15-4.17,2.65-9.62,1.25-9.88.46-10v-.14c.72-18.17,1.32-36.22,1.87-54.48l.76-27.13.31-13.65.26-14.29-.21-3.42v2.07l.43-7.28,1.27-9.75,1.53-6.94,2.06-5,4.42-8.23-.68,1.16,1-1.5,6.07-11c1.92-3.48,3.71-6.84,5.75-10.31l11.88-20.7,5.94-10.34q3-5.17,5.85-10.34c1.93-3.43,3.77-6.94,5.82-10.25l6.41-10.74,1.37-2.84s4.79-16.9,10-25.14l-.17.26,18.57-27L534-1887c1.5-2.26,3.21-4.33,4.83-6.47l5.67-7.36L548-1908l1.22-1.39,1.78-2.77,3.58-5.53m135.6,138.28,31,89.2.67,18.07-1.62,27.22c-.19,4.54-.72,9.06-1.16,13.58l-1.4,13.56-4,21c-.68,3.5-1.32,7-2.05,10.5s-1.29,7-2.29,10.44l-.33,5.49c0,1.84,0,3.67,0,5.5,0,3.67-.16,7.34.16,11l1.06,5.65c.91,3.17,1.7,6.37,2.72,9.51l3.26,9.33,5.61,10.57c.94,1.76,1.84,3.54,2.82,5.27l3.14,5.1,6.24,10.21,6,10.36,6,10.37,3,5.18c1,1.74,2,3.44,2.9,5.24,1.76,3.58,3.78,7,5.65,10.54l5.73,10.5,5.73,10.51,2.86,5.25,1.44,2.63c.46.88.87,1.79,1.31,2.68.89,1.79,1.7,3.62,2.65,5.37l2.91,5.22,5.83,10.46,8.11,15.06,4.77,15.66,5.93,19.42c4.41,8.1,8.76,16.25,13.14,24.36l1.91,3.56,1.85,3.68,3.71,7.34,7.41,14.68L863-1241.65l15.24,29.14,7.62,14.57c2.52,4.87,4.77,9.89,7.17,14.83,4.8,9.89,9.2,19.91,14.7,29.64l3.89,7.26,2,3.63c.35.67.6,1.07.8,1.53l.74,1.73c.54,1.28,1.07,2.56,1.68,3.87l1.72,3.77,3.18,6.91.94,4.3.83,11.69c.33,4,.45,8,.67,12l1.18,24.14c.26,4,.23,8,.34,12s.19,8,.12,12l-6,24-.56,23.72q-.26,11.94-.41,23.9T918.65-953l.06,12c0,4.12.15,8.13.23,12a167.49,167.49,0,0,1-.57,22.2c-.22,1.82-.41,3.23-.75,4.86s-.73,3.25-1.2,5c-.95,3.44-2.16,7.08-3.38,11a109.69,109.69,0,0,0-3.29,12.85,76.79,76.79,0,0,0-1.21,13.93,142.31,142.31,0,0,0,2.83,25.73A206.85,206.85,0,0,0,917.11-809a124,124,0,0,0,4.16,12.44c.48,1.16,1.05,2.35,1.66,3.54s1.46,2.59,1.86,3.25l3.13,5.14a116.38,116.38,0,0,0,7.44,10.91,100.48,100.48,0,0,0,9.08,9.91l4.44,4.23,2.2,2.08c.92.87,1.84,1.66,2.74,2.41,3.61,3,6.9,5.25,9.45,7.35l18.12,15.22c6.2,5.19,12.28,10.08,17.89,15.09a138.4,138.4,0,0,1,15.3,15.75,147.05,147.05,0,0,1,12.62,18c.93,1.55,1.88,3.09,2.85,4.6l3.12-1.44,7-4.12,7-4.12,11.83-5.48,18.24-6.32m57.83,454-6.05-12.84-2.61-6.21-2.42-7.32-1.74-5.58-1.09-5.21-.94-6.23-.68-9.09-.05-1.08-.8-18.17L1115-349.64l-2-11.54c3.56-.62,7-1.15,10.11-1.76,1.58-.3,3.11-.62,4.58-1s2.91-.75,4.1-1.14c2.56-.84,5.58-2.18,9.24-3.6l1.41-.53,1.19-.42.92-.3,1.52-.48.76-.24c.25-.06.56-.18.55-.48a10.46,10.46,0,0,0,0-2l-.45-5.9-1.42-20.06L1144-420l-1.13-21.26-.55-10.57c-.09-3.13-.36-6.62-.47-10.49a67.73,67.73,0,0,1,.69-12.51c.62-4.11,1.52-7.8,2.3-11.18l11.58-3.19,8.41.25,5.34-1,5.77-1.67L1182-494l2-1,3.94-3.16,4.17-3.47,2.52-2.49,4.9-6.74,2.65-3.64c.87-1.22,1.85-2.3,2.77-3.46l11.16-13.66L1227-545.3c3.58-4.63,7.11-9.36,10.67-14,1.8-2.32,3.49-4.72,5.39-7l5.74-6.76L1260-586.59l22-26.65,2.75-4.78,3.65-7.9.88-2.47,1.76-7.1.08-.91c0-.3.06-.61.08-1,0-.77.1-1.48.08-2.29l0-4.35-1.64-7c-.55-2.5-1.28-5-2-7.46l-4.42-14.88-7.88-20.3-3.41-7-3.24-5.41-3.51-4.51-3.8-3.8-14.31-11.33-4.83-3.29c-.84-.54-1.67-1.17-2.5-1.83l-2-1.58-4.5-2.48-5-1.52-5.07-.74-6.53-.08-7.23.83-18.77,4.32c-6.34,1.5-12.72,2.78-19,4.79l-18.83,5.52-19,5.17-19.08,5-4.73,1.22-4.68,1.28c-3.12.89-6.26,1.63-9.35,2.65l-9.32,2.91c-3.08,1-6.17,1.88-9.25,3m-28.64,1177,2.65,7.15.76,2.05.48,1.3,5.49,8.05,5.18,7.13,7.52,8.29L1086,527.77l32,39,9.2,9.58,1.92,2.24,14.73,15.91,14.83,18.73,40,51.55,5,5,8.72,6.06,8.44,4,30.37,8.08,8.35,1.39,7.57,0,18.68-3.19,2.53-.43,7.37-1.67,6.74-.87,5.31.68,3.93,1.5,3.3,1.84,9.06,8.18,16.49,14.53,11.27,9.91,14.69,13.87,10.42,13,10,13.63,4.59,7.19,5.48,7.27,3.73,4.46,3.53,4,4.85,4.79,6,5.54,9.3,6.28,12,4.83.62.24,6.58,1.35,6.59,1.07,17.83,3.33,6.76,1.81,1.78.77,33.76,14.63,11.79,5.11,29.26,13.61,7.12,4.51,12.91,11.54L1596.94,892l11.3,13.24,1,1.07,23,26.31,10.56,12.31L1677,984.72l19,22.1,1,1.1,9.49,10.49,14,13.1,35,24.59,4.38,3.29M1064.53,361.74l2.43-7.89,2.09-7,1.33-4.46,5.18-18.08,7.5-26.25,9.86-34,1.13-4.58.67-2.3,3.17-10.28,6.86-15.52,5.14-9.23,8.29-11.18,6.25-6.08,27.13-30.41,6.37-7.14,1.75-2,23.13-25.92L1203.87,116l5.54-6.18,10.34-11.65,11.47-15.12,4.51-11.33,2.14-6.56,2.13-6.8,1.08-9.88.5-9.08-.9-12.74-1-6.05-2.21-9.25-15.79-43-14.76-40.76L1161.8-192.62l-2.34-6.18-1.72-3.65-22.58-44m-70.63,608.23-16.57-5.3-13.31-3.84-2.09-.6-4-1.05-4.72-1.44-6.53-1.59-6.27-1.74-2.46-1.28-2.48-1.21-6.42-3.83-1.63-.93-1.52-.61-.65-.12-.64.12-.56.44-.61.75-.45.84-1.66,4-.52,1.53-1.16,2.55-9,19.23-9.15,18-1.05,2.07-1.65,3.12-.54,1.05-7.61,15.39-1.15,2.27-1.93,3.9-2.31,4.12,1.63,1.34,1.18,1.47,2.63,3.09,2.92,3.29,2.58,3.34.21.27.79,1,1.65,2.13.37.48,9.8,12.45,1.57,1.7,4.77,6.21.08.11.36.47,3,3.87,1.59,2,2.52,3.08,2.24,2.75,1.45,1.28,3.83,3.36.64.39,6.44,3.85,2.42.85,4.84,1.7,2.73.28h3.45l27.16-1.89m3501.8,2013.31L4540.26,2476l-5.73-7.71-4.3-9-3.15-.78-1.61-.39-20.43-3.79-2.55-.72-4.08-6.2L4484,2429.18l-.84-1-2.28-1.95-12.13-14.39-13.44-15.91-3.42-4.15-7.15-8.6-6.16-7.41-7.66-9.25-2.68-3.25-10.38-12.42-20.11-24.58-.33-.4-12.57-14.74-6.76-8.32-5.09-6.24-11.92-14.3-10.81-13.11-1.69-1.49-14.72-13.59-4-3.63-.2-.17L4317,2239.14l-5.46-4.82-2.93-2.6-12.59-10.9-25.44-23.28-3.91-3.83-4.59-4.51-1.9-1.59-2.95-2.61-3-2.58-5.91-3.31-3.06-2-2.08-1.39-2.93-5.36-4.67-6.94-8.12-4.84-5.74-5.3-1.27-4.1-84.55-69.79-22.32-20.31-14-14-22.88-26.52-53.58-71.9-23.76-32.76-39.09-56.27-3-3.76-6.78-10.81-5.18-13.42-1.72-10.74-4.61-74.2-3.25-48.52-2.6-11.66-4.31-10.29-4.21-8.15-10.74-14.76-12.55-10.48-1.06-1-23-10.55-12.85-3.45-9.78-1-8.05.38-9.83,1.13-12.64,3.25-9,4-13,8.43-10.16,7.26-1.9,1.35-40,30.4-3.44,2.54-17,15.69-8.23,9.39-7.45,11.15L3694.48,1746,3660,1794.67l-7,6.54-5.72,4.54-8.83,3.73-14.91,2.82-1.91.23-18.36,2.17-8.49.66-16.72,1.06-1.17.07-22.81,1.36-14,.88-.55,0-11,.43-3,.12-8.45.57-.59,0-16.4,1.17-8.76.61-2.36.17h-9.46l-6.24-.1-5.52-.64-5.52-.82-4.75-.83-9.37-1.61-4.95-1-14.62-2.55-18.64-3.53-.54-.11-14.13-2.68-11-1.72-28.61-5.65-39.71-7.12-37.47-7-31.37-5.78-3.11-.78-60.62-11.18-14.74-3.14-9.91-4-8.31-4.87-7.38-6.38-2.37-2.81-20.9-19.68-25.83-24.33-11.45-6.54-20-8.6L3031,1675l-8.58-2.39-3.95-1.09-15.57-2.1-9.4.11-12.31.1-22.24.19-13.9-.28-56-13.24-27.65-6.35-8.37-1.44-10.83-1.23-58.82-4.71-7.88-.88-8.31-.36-8.31.89-9.5,1.89-9.8,2.46-6.36,2.56-36.09,20.84-6,2.29-6.1,1-12.39.09-86.56.66h-4.43l-32-6.74-8-1.68-.77-.16-4.73-.61-4.72.26-21.11,5.91-4.46.52h-4.47l-8.84-2.84-34.33-13.57-5.32-2.32-4.93-2.14-8.15-4.37-4.61-2.48-9.62-7.2-9.12-7.88-1.14-1-.83-.86-23.88-24.43-27.94-28.87-1-1-2.87-2.8-1.11-1.07-11.2-11.43-8.18-8.35-11.8-16.79-7.33-10.8-12-18-5.9-6.15-10.19-7.63L2269,1475.56l-26.28-16.35-49.09-31.06-8-4.89-10.94-5.21-6.64-1.62-9.94-1.6-17.14-1.75-18.35-4.44-5.18-2.55-1.25-.63-9.58-5.27L2082,1385.61l-21-12.49-9.95-5.9-20.64-12.32-84.24-49.85-2.5-2.4-1.27-.84-3.7-2.43-4.28-4.65-5.47-7-3.59-6.54-2.07-6.85-.38-1.26-1.7-5.73-1.26-5.47-3.25-11.68-2.24-6.12-1.64-3.92-1.2-2.47-2.46-5.16-2.18-4.68-.25-.54-6.58-14.78-2.21-4.71-5.31-8.28-34.92-43.89-1.28-1.61-16-20.55-22.91-29.32-3.12-3.4-1.31-1.42-10.3-9.69-.83-.59-16.22-11.62-.65-.47-7.71-5.15-2.09-1.4-3.48-2.52-2.38-1.72-2-1.47-3.76-2.73-3.69-2.55M704.7-1388.22l6.72.64,3.35.33c1.13.12,2.26.31,3.38.47l7.17,1,5.77,1.27,5.6,1.71,4.06,1.81s8,5.48,8.11,5.49l.95.2,20.47,2.07,2.51-1.09,2.74.13,4.14.19,2.06.1,2,.14,8,.29,7,.25m-395.15-72.69c.15-.66.28-1.34.44-2l.51-1.82"/></g></g></g></svg>