<svg id="routes" xmlns="http://www.w3.org/2000/svg" xmlns:xlink="http://www.w3.org/1999/xlink" viewBox="0 0 1024 1024"><defs><style>.cls-1,.cls-3,.cls-4,.cls-5,.cls-6,.cls-7,.cls-8{fill:none;}.cls-2{clip-path:url(#clip-path);}.cls-3,.cls-8{stroke:#231815;}.cls-3,.cls-4,.cls-5,.cls-6,.cls-7,.cls-8{stroke-linecap:round;stroke-miterlimit:10;}.cls-3,.cls-7{stroke-width:8.79px;}.cls-4{stroke:#ebca1b;}.cls-4,.cls-5,.cls-6,.cls-8{stroke-width:4.4px;}.cls-5{stroke:#a73766;}.cls-6{stroke:#006b4b;}.cls-7{stroke:#e7336e;}.cls-8{stroke-dasharray:0 29.3;}</style><clipPath id="clip-path"><rect class="cls-1" x="-6055" y="-7164" width="11720" height="11720"/></clipPath></defs><title>3234_7150</title><g class="cls-2"><g id="日ノ丸線"><g id="江波"><path class="cls-3" d="M-342,2080.54l-3.41-21.17c-.32-1.76-.51-3.54-.7-5.32l-.58-5.35-1.2-11-.05-45.24.93-12.59,1.13-6.36,3.86-13.85,7.42-15.86,7.31-15.33,7.32-15.34,3.66-7.67.92-1.92.87-1.88,1.77-3.9c1.12-2.6,2.48-5.18,3.72-7.73l3.68-7.61c2.46-5.06,4.82-10.23,7.24-15.35s4.86-10.23,7.32-15.34l7.27-15.08,3.12-8.29c.55-1.42,1-2.85,1.64-4.26l1.68-3.91,1.4-4.92c.49-1.76,1.05-3.49,1.43-5.31l2.51-10.84c.78-3.62,1.81-7.21,2.78-10.8l2.94-10.79,11.7-43c1-3.55,1.85-7.19,2.7-10.81l2.54-10.87,1.28-5.44c.43-1.81.8-3.63,1.37-5.41l3.12-10.73,1.56-5.36.78-2.68.68-2.68,2.7-10.75,5.34-21.2,1.4-12.51.21-18.09.15-1.46c0-.41.09-.83.15-1.25l.19-1.24.19-1.1c.14-.74.22-1.45.32-2.16l.35-2.45.63-3,.89-2.46,1.12-1.93.55-.77.38-.52c.25-.32.49-.64.74-1s.47-.7.77-1.08l1.15-1.48,1.51-1.41,1.21-1.21c.81-.8,1.6-1.62,2.43-2.4l5.12-4.54,5.12-4.53,4.75-4.15,3.73-4.57,1.82-3.35.9-2.34.51-3.33.17-8.74-1-15.56-.22-4-.1-4-.19-7.73-1.3-12.84-3.2-6.7c-1.05-2-2.71-4.68-4.12-7.12s-2.92-4.91-4.37-7.49c-.7-1.3-1.48-2.59-2.12-3.89l-2.11-4.15-2.38-6-.6-5.12v-10.83l1.28-5.51,2.87-7.1,2-3.67c.6-1.15,1.26-2.19,1.89-3.29l3.82-6.5,7.77-13.21,15.16-21.5,6.83-24.35,26.27-41,8.9-9.9,8.23-9.19,8.18-9.2c2.72-3.06,5.33-6.14,8-9.21l4-4.6c1.34-1.53,2.52-3.1,3.8-4.64,2.49-3.11,5.06-6.19,7.34-9.37l3.51-4.74c1.2-1.56,2.17-3.21,3.27-4.82s2.16-3.18,3.16-4.92l2.62-4.37,1.94-4.77,1.12-4.13c.47-1.58.75-3.31,1.14-5l2.07-9.62,2.68-18.78-.07-12.45-.82-9.73-1.54-7.29-1.31-4.16-1.52-4.71-3-9-3.62-8.62-4.78-7.8-6-8.39-12.35-17.33-6.29-10.78-3.56-11.79-1.55-12.37-.43-10,.66-11.32,2.59-12.24,1.57-4.42.35-1.35.53-1.63,1.3-4,3.57-7.08,1-2a15.91,15.91,0,0,1,1.61-2.5l2-2.88,8.15-11.51,16.3-23,9.56,6.77,5.28,1.23,1.38.32,10.25,2.38,9.09,2.26,7.07,5.68,8.49,6.28,6.63,2.79,4.12,1.81,2,.89,30.44,15,17.66,8.5,2.51,1.22,15.61,8.57,16.61,8.72,10.75,5.75L83,1082.9l2,1.07,8,4.11,11,4.73,8.92,2.45,9.31,2.2,2.94.31,12.94,1.36,28.13,1.47,11.6-.62,12.18-2.77,6.93-2.59,16.1-7.43,18.4-8,8.18-3.93,3.63,3.67.45.23,4,1.8,4.94,2.29.29.14,10.57,4,6.57-.42,14.24-.88,15.67-.82,11.37-.48,11.32.15,3.76,1,3.11.82,10.8,4.14,1,.6,10.4,6.33,2.1,2.09,4.6,6.91,4.1,6.16.83,1.54.67,1.42.67,1.38.71,1,.79,1,.91,1.23,1.22,1,1.46,1.15.31.24.71.54,4.06,2.45,1.31.72,4.71,2.61,2.75,1.88,1.58,2.28.62,1.68.74,1.58.56,1.67.56,2.14m-2138,1162.77,3.31-.94,4.51-4.94,1.26-.8,12.86,3.15h14.55l6.08-.49,3.22-.8,8.5-3.06,13.08-6.62,11.86-6.59,13.27-13,5.27-4.16,6.4-3.57,8-1.59,7.1-.38,6.36-.6,4.47-1.42,8.32-5.31,5-4.4,3-7.5,4.15-7.25,10.56-10,2.72-2.08,3.21-1.43,11.34-3.71,13.9-2.42,3.39-1.12,2.55-1.6,1-1,2.07-2.57,2.4-5.3,2.24-6.11.81-1.63,3.68-11.07,2.1-4.83,2.37-3.08,2.7-2.39,5.45-3.23,7.22-2.88h2.71l3.86,2.25,5.85,5.34,4.4,4,3.68,2.71,4.31,2.43,1.6,1.12,2.08,2.08,1,2.42,2.1,8.05,1.28,6.91,1.12,4.19,1.12,1.54,2,.86h3.16l6.66-1.29,3.22-.79,6.22-1.15,7.35-1.91,10.09-4.19,13.6-7.71,16.33-8.05,17-9.64,2.73-2.43,2.56-4.82,1.44-1.6,3-1.77,5.12-2.57,3.2-1h5.91l7.85,1.29,5.75.17,7.82-1.77,9.44-.49,7.35-1.45,7.53-2.43,5.61-1.29,10.41-1h6.88l2.86,1,4.65,2.09,7.69,5.65,1.09.32,1.47.48.47-.48,1.14-.49,1.75-1.62,11.52-15.42,3.52-4,3.68-2.24,2.89-1,7.68-1.45,7.83-1.12h15.83l4.5-1,5.91-2.91,1.13-1.11,1.6-1,6.38-6.43,10.08-13.83,2.24-1.77,4.33-1,17.77-.34,3.68-.63,2.56-.37,1.58-.45,1.31-1.26.42-2.11.37-3.6.51-2.14,1.1-2.19,3-1.72,5.6-2.08,5.92-1.29,4.49-.17,11,1.6,9.13,2.09,5.45,2.73,5,3.23,5.9,6,8.66,9.19,7.17,6.08,4.29,3.27,2.75,1.65,3.79.47h3.5l6.43-1.31,4.56-5.56,16.46-2,5.12.8,6.71,2.88,5.92,3.89,3.21,2.57,1.28.79,6.68,6.42.52.49,2.86,1.77,7.38,3.54,10.72,7.39,8.64,6.57,8.8,6.28,10.48,5.82,7.6,3.34,5.12,2.25,10.38,3.71.82.32,1.12.65,10.08,4,7.67,4,4.16,2.91,1.28,1.6,1,2.91.16,4.82-.63,4.32-1.6,6.13-1.78,3.37-3.84,4.19-5.75,4.83-2.07,2.57-.49.93-1.44,4.37-1.28,5.31-1.1,8.51.47.8,1.6,4.68,7.52,13.35,6.88,10.76,3,.66,5.61.62h5.59l6.25.18,4.65.34,10.72.28,6.57.49,3.68.51,6.38,2.23,4.32,2.08.49,2,.31,6.59-.47,10.16V2300l.31,6.28-.31,4.79-2.72,7.56-4,8.85-1.44,4.65v3.08l.79,1.78.49.31,1.28.8,2.56-.49.79-.31,9.78-4.83,8.15-3.22,5.29-1.29,5.75-1,10.72.17.95-.34,6.06-3.68,1.28-.48,2.14-.29,4.06.74,7.31,4.11,4.12-.2,7.17-2.8,3.68-1,4.82.34,3.68,3,10.72,14.64,2.55,4.48,1.94,6.14.79,4.82v7.54l-1.77,9L-778,2381v13.15l1.72,23.23,1,2.8,6.12,7.93,1.21,1.77,1.89-1.23,6.47.09,3.22-.8,7.54-4.34,6.53-5.3,7.84-7.57,16.35-16.41,8.8-7.87,7-6.14,8.49-5.37,8.46-4.39,5.18-1.71,7-2.06,8.68-2.8,12.69-2.12,1.24-.2,1.17-.5,1.27-.62,1-1,1-1.67.5-1.59,2.9-8.43,2.08-2.79,2.13-1.14,2.27-1.42,6.82-2.13,2.87-.92,1.54-.5,3.84-1.14,2-.59,2.28-.68,8.68-2.67,5.25-1.6,3.26-1,4.55-1.41,10.34-3.68,7.48-4,1.15-.62,7.18-5.17,1.08-.88,9.46-7.82.89-.73,7.36-6.48,6.47-7.06,6.62-9.71,7.65-16.92.63-2.13,1.31-3.31,2.47-5.45,3.57-7.66,4.2-7.87,1.52-2.8,5-7.42,4.51-6.73,3.85-6.1,2.8-3.66,3.23-4.86,4.16-6.8,3.16-7.41,4.56-15.14,3.88-11.78,2.54-5.13,2.05-3.28,2.46-2.87,4.47-3.85,9.41-6.3,15.47-9.17,9.36-5.09,2.24-1.29.66-.27,5.95-2.49,9.87-4.12,2.79-1.18,2.69-1.15,7.8-3.34,4.15-1.43,2.56-1.31,13.69-6.16,4.14-1.38,2.66-.79,2.2-.66,6.41-2.6,3.4-1.62,3.41-2.43,2.47-1.76,1.17-.84,2.68-3.16,10.16-8.14.49-.39,1.86-1.55m-.55-3.43.55,3.43"/><path class="cls-4" d="M-342,2080.54l-3.41-21.17c-.32-1.76-.51-3.54-.7-5.32l-.58-5.35-1.2-11-.05-45.24.93-12.59,1.13-6.36,3.86-13.85,7.42-15.86,7.31-15.33,7.32-15.34,3.66-7.67.92-1.92.87-1.88,1.77-3.9c1.12-2.6,2.48-5.18,3.72-7.73l3.68-7.61c2.46-5.06,4.82-10.23,7.24-15.35s4.86-10.23,7.32-15.34l7.27-15.08,3.12-8.29c.55-1.42,1-2.85,1.64-4.26l1.68-3.91,1.4-4.92c.49-1.76,1.05-3.49,1.43-5.31l2.51-10.84c.78-3.62,1.81-7.21,2.78-10.8l2.94-10.79,11.7-43c1-3.55,1.85-7.19,2.7-10.81l2.54-10.87,1.28-5.44c.43-1.81.8-3.63,1.37-5.41l3.12-10.73,1.56-5.36.78-2.68.68-2.68,2.7-10.75,5.34-21.2,1.4-12.51.21-18.09.15-1.46c0-.41.09-.83.15-1.25l.19-1.24.19-1.1c.14-.74.22-1.45.32-2.16l.35-2.45.63-3,.89-2.46,1.12-1.93.55-.77.38-.52c.25-.32.49-.64.74-1s.47-.7.77-1.08l1.15-1.48,1.51-1.41,1.21-1.21c.81-.8,1.6-1.62,2.43-2.4l5.12-4.54,5.12-4.53,4.75-4.15,3.73-4.57,1.82-3.35.9-2.34.51-3.33.17-8.74-1-15.56-.22-4-.1-4-.19-7.73-1.3-12.84-3.2-6.7c-1.05-2-2.71-4.68-4.12-7.12s-2.92-4.91-4.37-7.49c-.7-1.3-1.48-2.59-2.12-3.89l-2.11-4.15-2.38-6-.6-5.12v-10.83l1.28-5.51,2.87-7.1,2-3.67c.6-1.15,1.26-2.19,1.89-3.29l3.82-6.5,7.77-13.21,15.16-21.5,6.83-24.35,26.27-41,8.9-9.9,8.23-9.19,8.18-9.2c2.72-3.06,5.33-6.14,8-9.21l4-4.6c1.34-1.53,2.52-3.1,3.8-4.64,2.49-3.11,5.06-6.19,7.34-9.37l3.51-4.74c1.2-1.56,2.17-3.21,3.27-4.82s2.16-3.18,3.16-4.92l2.62-4.37,1.94-4.77,1.12-4.13c.47-1.58.75-3.31,1.14-5l2.07-9.62,2.68-18.78-.07-12.45-.82-9.73-1.54-7.29-1.31-4.16-1.52-4.71-3-9-3.62-8.62-4.78-7.8-6-8.39-12.35-17.33-6.29-10.78-3.56-11.79-1.55-12.37-.43-10,.66-11.32,2.59-12.24,1.57-4.42.35-1.35.53-1.63,1.3-4,3.57-7.08,1-2a15.91,15.91,0,0,1,1.61-2.5l2-2.88,8.15-11.51,16.3-23,9.56,6.77,5.28,1.23,1.38.32,10.25,2.38,9.09,2.26,7.07,5.68,8.49,6.28,6.63,2.79,4.12,1.81,2,.89,30.44,15,17.66,8.5,2.51,1.22,15.61,8.57,16.61,8.72,10.75,5.75L83,1082.9l2,1.07,8,4.11,11,4.73,8.92,2.45,9.31,2.2,2.94.31,12.94,1.36,28.13,1.47,11.6-.62,12.18-2.77,6.93-2.59,16.1-7.43,18.4-8,8.18-3.93,3.63,3.67.45.23,4,1.8,4.94,2.29.29.14,10.57,4,6.57-.42,14.24-.88,15.67-.82,11.37-.48,11.32.15,3.76,1,3.11.82,10.8,4.14,1,.6,10.4,6.33,2.1,2.09,4.6,6.91,4.1,6.16.83,1.54.67,1.42.67,1.38.71,1,.79,1,.91,1.23,1.22,1,1.46,1.15.31.24.71.54,4.06,2.45,1.31.72,4.71,2.61,2.75,1.88,1.58,2.28.62,1.68.74,1.58.56,1.67.56,2.14m-2138,1162.77,3.31-.94,4.51-4.94,1.26-.8,12.86,3.15h14.55l6.08-.49,3.22-.8,8.5-3.06,13.08-6.62,11.86-6.59,13.27-13,5.27-4.16,6.4-3.57,8-1.59,7.1-.38,6.36-.6,4.47-1.42,8.32-5.31,5-4.4,3-7.5,4.15-7.25,10.56-10,2.72-2.08,3.21-1.43,11.34-3.71,13.9-2.42,3.39-1.12,2.55-1.6,1-1,2.07-2.57,2.4-5.3,2.24-6.11.81-1.63,3.68-11.07,2.1-4.83,2.37-3.08,2.7-2.39,5.45-3.23,7.22-2.88h2.71l3.86,2.25,5.85,5.34,4.4,4,3.68,2.71,4.31,2.43,1.6,1.12,2.08,2.08,1,2.42,2.1,8.05,1.28,6.91,1.12,4.19,1.12,1.54,2,.86h3.16l6.66-1.29,3.22-.79,6.22-1.15,7.35-1.91,10.09-4.19,13.6-7.71,16.33-8.05,17-9.64,2.73-2.43,2.56-4.82,1.44-1.6,3-1.77,5.12-2.57,3.2-1h5.91l7.85,1.29,5.75.17,7.82-1.77,9.44-.49,7.35-1.45,7.53-2.43,5.61-1.29,10.41-1h6.88l2.86,1,4.65,2.09,7.69,5.65,1.09.32,1.47.48.47-.48,1.14-.49,1.75-1.62,11.52-15.42,3.52-4,3.68-2.24,2.89-1,7.68-1.45,7.83-1.12h15.83l4.5-1,5.91-2.91,1.13-1.11,1.6-1,6.38-6.43,10.08-13.83,2.24-1.77,4.33-1,17.77-.34,3.68-.63,2.56-.37,1.58-.45,1.31-1.26.42-2.11.37-3.6.51-2.14,1.1-2.19,3-1.72,5.6-2.08,5.92-1.29,4.49-.17,11,1.6,9.13,2.09,5.45,2.73,5,3.23,5.9,6,8.66,9.19,7.17,6.08,4.29,3.27,2.75,1.65,3.79.47h3.5l6.43-1.31,4.56-5.56,16.46-2,5.12.8,6.71,2.88,5.92,3.89,3.21,2.57,1.28.79,6.68,6.42.52.49,2.86,1.77,7.38,3.54,10.72,7.39,8.64,6.57,8.8,6.28,10.48,5.82,7.6,3.34,5.12,2.25,10.38,3.71.82.32,1.12.65,10.08,4,7.67,4,4.16,2.91,1.28,1.6,1,2.91.16,4.82-.63,4.32-1.6,6.13-1.78,3.37-3.84,4.19-5.75,4.83-2.07,2.57-.49.93-1.44,4.37-1.28,5.31-1.1,8.51.47.8,1.6,4.68,7.52,13.35,6.88,10.76,3,.66,5.61.62h5.59l6.25.18,4.65.34,10.72.28,6.57.49,3.68.51,6.38,2.23,4.32,2.08.49,2,.31,6.59-.47,10.16V2300l.31,6.28-.31,4.79-2.72,7.56-4,8.85-1.44,4.65v3.08l.79,1.78.49.31,1.28.8,2.56-.49.79-.31,9.78-4.83,8.15-3.22,5.29-1.29,5.75-1,10.72.17.95-.34,6.06-3.68,1.28-.48,2.14-.29,4.06.74,7.31,4.11,4.12-.2,7.17-2.8,3.68-1,4.82.34,3.68,3,10.72,14.64,2.55,4.48,1.94,6.14.79,4.82v7.54l-1.77,9L-778,2381v13.15l1.72,23.23,1,2.8,6.12,7.93,1.21,1.77,1.89-1.23,6.47.09,3.22-.8,7.54-4.34,6.53-5.3,7.84-7.57,16.35-16.41,8.8-7.87,7-6.14,8.49-5.37,8.46-4.39,5.18-1.71,7-2.06,8.68-2.8,12.69-2.12,1.24-.2,1.17-.5,1.27-.62,1-1,1-1.67.5-1.59,2.9-8.43,2.08-2.79,2.13-1.14,2.27-1.42,6.82-2.13,2.87-.92,1.54-.5,3.84-1.14,2-.59,2.28-.68,8.68-2.67,5.25-1.6,3.26-1,4.55-1.41,10.34-3.68,7.48-4,1.15-.62,7.18-5.17,1.08-.88,9.46-7.82.89-.73,7.36-6.48,6.47-7.06,6.62-9.71,7.65-16.92.63-2.13,1.31-3.31,2.47-5.45,3.57-7.66,4.2-7.87,1.52-2.8,5-7.42,4.51-6.73,3.85-6.1,2.8-3.66,3.23-4.86,4.16-6.8,3.16-7.41,4.56-15.14,3.88-11.78,2.54-5.13,2.05-3.28,2.46-2.87,4.47-3.85,9.41-6.3,15.47-9.17,9.36-5.09,2.24-1.29.66-.27,5.95-2.49,9.87-4.12,2.79-1.18,2.69-1.15,7.8-3.34,4.15-1.43,2.56-1.31,13.69-6.16,4.14-1.38,2.66-.79,2.2-.66,6.41-2.6,3.4-1.62,3.41-2.43,2.47-1.76,1.17-.84,2.68-3.16,10.16-8.14.49-.39,1.86-1.55m-.55-3.43.55,3.43"/></g><g id="快速幹"><path class="cls-3" d="M-42-1038.76l-1.37-4.43L-43-1052l-2.29-14-13.88-55.4-14.11-57.87-4-13.3-1.79-2.66-2.25-6.19-9.06-29.78-7.38-30.68-3.39-16-1.29-5-.39-3.59L-103-1290l-.56-7.34.12-4.5.39-2.53,1.77-9.93,1.88-5.65,2.58-6.19,4.79-8.07m4.24,47.63-14.64,3.7-3.66.85-10,2.08-2.85.66,3.48,14.92m8.72,2585.53-8.27,9.3-8.28,9.26-7.66,8.5-25.23,39.44M-127.39-781-102-820.13l3.76-5.93c.63-1,1.27-2,1.91-2.91l2.54-3.81,1.25-5.49,1.31-8.59.53-3.52.16-1c0-.18.14-.28.25-.39l.36-.34s.56-8.76,1.61-9.65l-.06-6.1,0-6.2.26-6.31.52-6,.88-6.26,1.08-6.93,1.71-7.87,1.81-5.48,1.92-5.17,2.06-4.87L-71-937.45l8.08-16.37L-54.25-972l5.64-14.16,2.14-10.64,2.28-16.43,1-11.94,1.08-12.23.12-1.35,1.68-3.9.78-6.3,2.11-15.64-.2-3.46-6-25.19-7-30.34L-65.35-1181l-5.57-25.8-.3-7.87-3.46-18.22-.52-2-6-24.72-.54-2.18-6.06-24.81-1.74-5.39-1.54-6.93-1.08-9.79-.57-7.55.23-9.39,0-2.06.44-6.52m0,0,6.82-19.51,4-9.3,3.37-6.28,8.89-13.4,7.36-7.89,5.12-4.71,39.52-28,10.12-9,6.5-7.13,4.87-6.24,4.12-5.5,5.13-10,2.12-4.25,3-8.57,3.74-16.17L32.07-1558l1.73-10.32,3.81-12.14,4.66-13,17.63-36.93,2.84-4.63L87-1671.44l9.92-15.47,6.94-12.7,8-15.66,4.69-10.61,4.11-11.46,2.12-6.38-.76-19.35.45-1.54,2.91-14.06,2.85-14.28,1.36-7.08,1.17-7.19,2.28-14,.17-5c0-1.79.26-3.6.39-5.4s.27-3.63.49-5.38l.71-5.22,2.78-20.68.27-4.46.33-4.63c.22-3.08.48-6.16.61-9.24l.94-18.49.39-9.12c.11-1.5,0-3.06,0-4.61s-.08-3.09-.06-4.65l.4-9.39c.14-3.14.17-6.17.26-9.26.19-6.15.23-12.32.32-18.47l.11-9.24.06-4.62c0-1.54-.07-3.09-.1-4.63l-.13-4.63v-14l-.38-18.47-.2-9.23-.1-4.62,0-2.31-.17-2.29-1.37-18.3-4.22-37c-.11-3.12-.52-6.16-.85-9.23l-1-9.2-2-18.38-1.05-9.3-.53-4.67c-.16-1.56-.21-3.12-.33-4.67l-1.21-19.45,1.16-5.76.12-5.1c0-1.88.08-3.76.19-5.61l.28-5.59c.05-.93.09-1.85.11-2.77l.1-3,.3-2.57.25-2.36c.15-1.57.4-3.24.6-4.85l.33-2.44.44-2.38.92-5,1.17-4.35.56-2.06.54-2.16c.32-1.45.79-2.86,1.24-4.28l1.4-4.43,4.13-9.91c.67-1.61,1.5-3.16,2.24-4.74l2.42-5,8.25-13.38,2-3.28,2.17-3.22c1.45-2.15,2.78-4.26,4.17-6.38l8.29-12.73c1.36-2.13,2.84-4.23,4-6.4l3.6-6.35,1.64-3.6c.58-1.28,1.19-2.54,1.71-3.85l3.1-7.55,3.45-11.62,1.52-8.91.39-2.31c.06-.35.12-.6.16-1l.13-1.12.5-4.51.51-4.51c.05-1.45.19-2.75.16-4.31l-.08-8.92-1.19-10.42c-.53-3.59-1.1-7.19-1.43-10.8s-.71-7.25-1.23-10.78-1-7-1.62-10.6l-3.58-21.54c-.66-3.57-1-7.33-1.49-11-.19-1.85-.53-3.68-.59-5.55l-.34-5.87.68-16.84L182-2471l.91-4.36c.3-1.35.55-2.72.9-4.07l1.95-8.09,2-8.09c.66-2.69,1.48-5.29,2.21-7.94l1.47-5.14-1.74-44.83.63-2.48,1-3.29,1-3.29,1-3,2-5.92,4.05-11.83,2-5.92,2.14-5.86,8.45-23,2.08-5.7,1.9-5.84c1.2-3.88,2.7-7.8,4.1-11.72l16.79-46.45c2.82-7.72,5.42-15.24,8.13-23.13,1.34-3.9,2.67-7.8,4.09-11.69l3.79-10.56,1.37-6.47,1.49-7.69,1.51-7.82.77-4,.79-3.88,1.57-7.75c.53-2.59,1.07-5.15,1.52-7.83s.9-5.34,1.46-7.93,1-5.16,1.47-7.74l1.35-7.72,1.41-7.84,1.47-8,1.55-7.79,1.56-7.78c.52-2.58.94-5.36,1.42-8s.85-5.38,1.59-8.12l2.13-8.85,2.9-8.87,7.77-11.42,11.47-13.88M157.9,563.93,156.8,553v-7.16l-.23-7.42-.42-14.7-.2-7.35-.1-3.68-.07-1.93-.11-1.85-.44-7.42-.54-7.54c-.18-2.51-.73-4.87-.87-7.33l-.53-7.34-.54-7.33c-.05-1.22-.26-2.46-.43-3.68l-.53-3.69-2.09-14.75c-.36-2.46-.64-4.93-1.17-7.36L147,434.62l-4.12-10.52-4.14-8.71c-.66-1.43-1.41-2.82-2.11-4.24l-2.4-4.75-13.44-16.88c-2.38-2.68-4.73-5.49-7.18-7.93s-4.92-5.07-7.19-7.53c-4.62-5-9.18-10.25-13.78-15.37l-6.78-7.9-7.24-8.12L70,335.38l-4.17-3.53-4.29-3.5L44.36,315,10.08,287.87l-11.74-7.35-4.63-1.38c-1.3-.39-2.59-.78-3.89-1.11l-7.4-2-16.57-6.85-12.2-6.25c-4.11-2.14-8.35-4.21-12.34-6.4l-5.92-3.3c-2-1.16-3.83-2.46-5.75-3.68s-3.83-2.47-5.76-3.79l-5.13-3.47-2-2.24c-.82-.93-1.64-1.88-2.55-2.85l-1.32-1.45-1.33-1.32-2.65-2.62-10.81-10.66-9.15-7.54-10-6.3-13.76-10.54-7.57-11.56M157.9,563.93l.46,13.8-.28,6.52c-.06,1.06-.06,2.09-.18,3.17l-.3,3.58-1.13,5.09-.52,2.35-.63,2.28-2.55,9.13-5.09,18.25-2.55,9.17c-.45,1.54-.83,3.11-1.33,4.62l-1.5,4.5-6.12,18.36L131.71,674l-7.53,11.82L121.31,692l-1.45,5.72L118.4,704l-2.84,12.42-.94,6.35c-.35,2.19-.6,4.39-1.09,6.56-.91,4.35-1.72,8.71-2.72,13.06-.5,2.16-.93,4.38-1.5,6.5l-1.71,6.37-3.35,12.48-3.49,20L98.2,797.83l-2.94,7.23-2.8,4.1L90,812.69l-5.23,7.42L77.19,828l-7.57,5.35c-1.2.83-2.48,1.55-3.71,2.34l-4.09,2.52-4.46,1.89-4,1.64c-2.67,1.1-5.26,2.26-7.92,3.41l-7.92,3.49-7.57,3.53-3.38,2-2.09,1.68-6.16,7.34L13.16,872l-5.52,9.3C4.06,887.62,0,893.42-3.94,899.41c-2,2.94-3.78,6-5.6,9.07L-15,917.64l-5.47,9.22L-26,936c-7.22,12.32-15.26,24.45-22.8,36.29l-5.37,9.22c-2,3.1-3.81,6.39-6,9.24-4.28,5.89-7.47,21.12-7.47,21.12l-16.29,23-8.15,11.51-2,2.87a2.41,2.41,0,0,0-.3.46l-.56,1.11-2.78,5.51-.62,1.89-.43,1.28-.41,1.63-1.4,4-1.91,9-.48,8.37.33,7.89,1.19,9.45,2.19,7.24,4.36,7.48,12,16.81,6.18,8.68,3,4.82,3.2,5.25,4.66,11.09,3.29,10,1.55,4.79,1.69,5.36,2.07,9.84,1,12.07.09,15.1-3,21.33-2.35,10.86c-.41,1.74-.69,3.47-1.2,5.24l-1.62,6-3.16,7.77-3.75,6.24c-1.06,1.84-2.33,3.66-3.53,5.49s-2.37,3.71-3.67,5.43l-3.86,5.2c-2.53,3.53-5.25,6.79-7.92,10.12-1.35,1.64-2.66,3.36-4,4.93l-4.11,4.75c-2.75,3.16-5.48,6.37-8.24,9.48M-127.39-781l-1.22,3.24c-.4,1.07-.95,2.19-1.42,3.28s-1.06,2.16-1.59,3.24-1.09,2-1.63,2.94l-6.54,11.57-6.53,11.57-3.23,5.73-1.55,2.81-1.46,3c-3.79,7.91-8.07,15.62-12.13,23.42l-5.53,11.8c-1,2-1.77,3.92-2.59,5.87-.39,1-.86,1.95-1.2,2.94l-1.18,3.25-2.33,4.94c-1.35,4.1-3.28,10-4.78,14.13l-1.25,5.51-.35,3.52c-.07,1.32-.09,2.66-.14,4l-.26,8.66-1.76,7.12-.59,10.55-.42,11.13,10.86,22.62-.1,11.08-.05,5.55-.19,5.72-.42,11.49c-.17,3.82-.49,7.58-.73,11.37l-1.52,22.27c-.29,3.72-.39,7.2-.59,10.8l-.32,10.65,0,5.53-.11,5.67-.26,11.34-.27,10.94c0,1.66,0,3.32,0,5l0,2.49c0,.23,0,.43,0,.5l0,.31,0,.31,1.26,6.2.87,2.82,1.09,3.64,2.68,9,.83,10.08v9.36l-1.47,12.28.67,8.22.89,9.17.6,3.12c.23,1.3.5,2.59.79,3.87l1.67,7.68c.53,2.66,1.18,4.86,1.81,7.29l1.92,6.63,3.88,9,22.64,38.55c1.25.31,2.49.61,3.74.89l19.31,4.43,21.27,4.83-1.29,5.71-4.47,19.63-1.86,10-.47,2.5-.61,2.48-1.24,4.95c-3.34,13.18-6.36,26.51-10.28,39.42l-11.18,39L-133-162.86c-.85,3.28-1.93,6.5-3,9.74l-3.11,9.71L-145.3-124l-3.55,9.61c-1.2,3.19-2.37,6.43-3.62,9.54L-159.91-86l-1.85,4.7c-.6,1.57-1.14,3.16-1.71,4.74l-3.39,9.48c-2.25,6.33-4.56,12.61-6.67,19.07l-3.24,9.62c-.55,1.6-1.07,3.21-1.64,4.8l-1.8,4.74-3.59,9.47c-1.08,3.1-2.16,6.18-3,9.24l-4.93,19.27-1.59,8.79-.68,7.2-.75,7.35c-.21,2.43-.34,4.87-.51,7.3l-.46,7.07.4,7c.1,2.47.46,4.84.67,7.27s.39,4.82.88,7.23l1.18,7,1.86,7.43c.67,2.55,1.06,5.08,1.61,7.62s1.18,5,1.78,7.5l1.82,7.21,6.45,18.61,6.86,14.31,7,11.79,3.59,6,3.84,5.88,15.4,23.51"/><path class="cls-5" d="M-42-1038.76l-1.37-4.43L-43-1052l-2.29-14-13.88-55.4-14.11-57.87-4-13.3-1.79-2.66-2.25-6.19-9.06-29.78-7.38-30.68-3.39-16-1.29-5-.39-3.59L-103-1290l-.56-7.34.12-4.5.39-2.53,1.77-9.93,1.88-5.65,2.58-6.19,4.79-8.07m4.24,47.63-14.64,3.7-3.66.85-10,2.08-2.85.66,3.48,14.92m8.72,2585.53-8.27,9.3-8.28,9.26-7.66,8.5-25.23,39.44M-127.39-781-102-820.13l3.76-5.93c.63-1,1.27-2,1.91-2.91l2.54-3.81,1.25-5.49,1.31-8.59.53-3.52.16-1c0-.18.14-.28.25-.39l.36-.34s.56-8.76,1.61-9.65l-.06-6.1,0-6.2.26-6.31.52-6,.88-6.26,1.08-6.93,1.71-7.87,1.81-5.48,1.92-5.17,2.06-4.87L-71-937.45l8.08-16.37L-54.25-972l5.64-14.16,2.14-10.64,2.28-16.43,1-11.94,1.08-12.23.12-1.35,1.68-3.9.78-6.3,2.11-15.64-.2-3.46-6-25.19-7-30.34L-65.35-1181l-5.57-25.8-.3-7.87-3.46-18.22-.52-2-6-24.72-.54-2.18-6.06-24.81-1.74-5.39-1.54-6.93-1.08-9.79-.57-7.55.23-9.39,0-2.06.44-6.52m0,0,6.82-19.51,4-9.3,3.37-6.28,8.89-13.4,7.36-7.89,5.12-4.71,39.52-28,10.12-9,6.5-7.13,4.87-6.24,4.12-5.5,5.13-10,2.12-4.25,3-8.57,3.74-16.17L32.07-1558l1.73-10.32,3.81-12.14,4.66-13,17.63-36.93,2.84-4.63L87-1671.44l9.92-15.47,6.94-12.7,8-15.66,4.69-10.61,4.11-11.46,2.12-6.38-.76-19.35.45-1.54,2.91-14.06,2.85-14.28,1.36-7.08,1.17-7.19,2.28-14,.17-5c0-1.79.26-3.6.39-5.4s.27-3.63.49-5.38l.71-5.22,2.78-20.68.27-4.46.33-4.63c.22-3.08.48-6.16.61-9.24l.94-18.49.39-9.12c.11-1.5,0-3.06,0-4.61s-.08-3.09-.06-4.65l.4-9.39c.14-3.14.17-6.17.26-9.26.19-6.15.23-12.32.32-18.47l.11-9.24.06-4.62c0-1.54-.07-3.09-.1-4.63l-.13-4.63v-14l-.38-18.47-.2-9.23-.1-4.62,0-2.31-.17-2.29-1.37-18.3-4.22-37c-.11-3.12-.52-6.16-.85-9.23l-1-9.2-2-18.38-1.05-9.3-.53-4.67c-.16-1.56-.21-3.12-.33-4.67l-1.21-19.45,1.16-5.76.12-5.1c0-1.88.08-3.76.19-5.61l.28-5.59c.05-.93.09-1.85.11-2.77l.1-3,.3-2.57.25-2.36c.15-1.57.4-3.24.6-4.85l.33-2.44.44-2.38.92-5,1.17-4.35.56-2.06.54-2.16c.32-1.45.79-2.86,1.24-4.28l1.4-4.43,4.13-9.91c.67-1.61,1.5-3.16,2.24-4.74l2.42-5,8.25-13.38,2-3.28,2.17-3.22c1.45-2.15,2.78-4.26,4.17-6.38l8.29-12.73c1.36-2.13,2.84-4.23,4-6.4l3.6-6.35,1.64-3.6c.58-1.28,1.19-2.54,1.71-3.85l3.1-7.55,3.45-11.62,1.52-8.91.39-2.31c.06-.35.12-.6.16-1l.13-1.12.5-4.51.51-4.51c.05-1.45.19-2.75.16-4.31l-.08-8.92-1.19-10.42c-.53-3.59-1.1-7.19-1.43-10.8s-.71-7.25-1.23-10.78-1-7-1.62-10.6l-3.58-21.54c-.66-3.57-1-7.33-1.49-11-.19-1.85-.53-3.68-.59-5.55l-.34-5.87.68-16.84L182-2471l.91-4.36c.3-1.35.55-2.72.9-4.07l1.95-8.09,2-8.09c.66-2.69,1.48-5.29,2.21-7.94l1.47-5.14-1.74-44.83.63-2.48,1-3.29,1-3.29,1-3,2-5.92,4.05-11.83,2-5.92,2.14-5.86,8.45-23,2.08-5.7,1.9-5.84c1.2-3.88,2.7-7.8,4.1-11.72l16.79-46.45c2.82-7.72,5.42-15.24,8.13-23.13,1.34-3.9,2.67-7.8,4.09-11.69l3.79-10.56,1.37-6.47,1.49-7.69,1.51-7.82.77-4,.79-3.88,1.57-7.75c.53-2.59,1.07-5.15,1.52-7.83s.9-5.34,1.46-7.93,1-5.16,1.47-7.74l1.35-7.72,1.41-7.84,1.47-8,1.55-7.79,1.56-7.78c.52-2.58.94-5.36,1.42-8s.85-5.38,1.59-8.12l2.13-8.85,2.9-8.87,7.77-11.42,11.47-13.88M157.9,563.93,156.8,553v-7.16l-.23-7.42-.42-14.7-.2-7.35-.1-3.68-.07-1.93-.11-1.85-.44-7.42-.54-7.54c-.18-2.51-.73-4.87-.87-7.33l-.53-7.34-.54-7.33c-.05-1.22-.26-2.46-.43-3.68l-.53-3.69-2.09-14.75c-.36-2.46-.64-4.93-1.17-7.36L147,434.62l-4.12-10.52-4.14-8.71c-.66-1.43-1.41-2.82-2.11-4.24l-2.4-4.75-13.44-16.88c-2.38-2.68-4.73-5.49-7.18-7.93s-4.92-5.07-7.19-7.53c-4.62-5-9.18-10.25-13.78-15.37l-6.78-7.9-7.24-8.12L70,335.38l-4.17-3.53-4.29-3.5L44.36,315,10.08,287.87l-11.74-7.35-4.63-1.38c-1.3-.39-2.59-.78-3.89-1.11l-7.4-2-16.57-6.85-12.2-6.25c-4.11-2.14-8.35-4.21-12.34-6.4l-5.92-3.3c-2-1.16-3.83-2.46-5.75-3.68s-3.83-2.47-5.76-3.79l-5.13-3.47-2-2.24c-.82-.93-1.64-1.88-2.55-2.85l-1.32-1.45-1.33-1.32-2.65-2.62-10.81-10.66-9.15-7.54-10-6.3-13.76-10.54-7.57-11.56M157.9,563.93l.46,13.8-.28,6.52c-.06,1.06-.06,2.09-.18,3.17l-.3,3.58-1.13,5.09-.52,2.35-.63,2.28-2.55,9.13-5.09,18.25-2.55,9.17c-.45,1.54-.83,3.11-1.33,4.62l-1.5,4.5-6.12,18.36L131.71,674l-7.53,11.82L121.31,692l-1.45,5.72L118.4,704l-2.84,12.42-.94,6.35c-.35,2.19-.6,4.39-1.09,6.56-.91,4.35-1.72,8.71-2.72,13.06-.5,2.16-.93,4.38-1.5,6.5l-1.71,6.37-3.35,12.48-3.49,20L98.2,797.83l-2.94,7.23-2.8,4.1L90,812.69l-5.23,7.42L77.19,828l-7.57,5.35c-1.2.83-2.48,1.55-3.71,2.34l-4.09,2.52-4.46,1.89-4,1.64c-2.67,1.1-5.26,2.26-7.92,3.41l-7.92,3.49-7.57,3.53-3.38,2-2.09,1.68-6.16,7.34L13.16,872l-5.52,9.3C4.06,887.62,0,893.42-3.94,899.41c-2,2.94-3.78,6-5.6,9.07L-15,917.64l-5.47,9.22L-26,936c-7.22,12.32-15.26,24.45-22.8,36.29l-5.37,9.22c-2,3.1-3.81,6.39-6,9.24-4.28,5.89-7.47,21.12-7.47,21.12l-16.29,23-8.15,11.51-2,2.87a2.41,2.41,0,0,0-.3.46l-.56,1.11-2.78,5.51-.62,1.89-.43,1.28-.41,1.63-1.4,4-1.91,9-.48,8.37.33,7.89,1.19,9.45,2.19,7.24,4.36,7.48,12,16.81,6.18,8.68,3,4.82,3.2,5.25,4.66,11.09,3.29,10,1.55,4.79,1.69,5.36,2.07,9.84,1,12.07.09,15.1-3,21.33-2.35,10.86c-.41,1.74-.69,3.47-1.2,5.24l-1.62,6-3.16,7.77-3.75,6.24c-1.06,1.84-2.33,3.66-3.53,5.49s-2.37,3.71-3.67,5.43l-3.86,5.2c-2.53,3.53-5.25,6.79-7.92,10.12-1.35,1.64-2.66,3.36-4,4.93l-4.11,4.75c-2.75,3.16-5.48,6.37-8.24,9.48M-127.39-781l-1.22,3.24c-.4,1.07-.95,2.19-1.42,3.28s-1.06,2.16-1.59,3.24-1.09,2-1.63,2.94l-6.54,11.57-6.53,11.57-3.23,5.73-1.55,2.81-1.46,3c-3.79,7.91-8.07,15.62-12.13,23.42l-5.53,11.8c-1,2-1.77,3.92-2.59,5.87-.39,1-.86,1.95-1.2,2.94l-1.18,3.25-2.33,4.94c-1.35,4.1-3.28,10-4.78,14.13l-1.25,5.51-.35,3.52c-.07,1.32-.09,2.66-.14,4l-.26,8.66-1.76,7.12-.59,10.55-.42,11.13,10.86,22.62-.1,11.08-.05,5.55-.19,5.72-.42,11.49c-.17,3.82-.49,7.58-.73,11.37l-1.52,22.27c-.29,3.72-.39,7.2-.59,10.8l-.32,10.65,0,5.53-.11,5.67-.26,11.34-.27,10.94c0,1.66,0,3.32,0,5l0,2.49c0,.23,0,.43,0,.5l0,.31,0,.31,1.26,6.2.87,2.82,1.09,3.64,2.68,9,.83,10.08v9.36l-1.47,12.28.67,8.22.89,9.17.6,3.12c.23,1.3.5,2.59.79,3.87l1.67,7.68c.53,2.66,1.18,4.86,1.81,7.29l1.92,6.63,3.88,9,22.64,38.55c1.25.31,2.49.61,3.74.89l19.31,4.43,21.27,4.83-1.29,5.71-4.47,19.63-1.86,10-.47,2.5-.61,2.48-1.24,4.95c-3.34,13.18-6.36,26.51-10.28,39.42l-11.18,39L-133-162.86c-.85,3.28-1.93,6.5-3,9.74l-3.11,9.71L-145.3-124l-3.55,9.61c-1.2,3.19-2.37,6.43-3.62,9.54L-159.91-86l-1.85,4.7c-.6,1.57-1.14,3.16-1.71,4.74l-3.39,9.48c-2.25,6.33-4.56,12.61-6.67,19.07l-3.24,9.62c-.55,1.6-1.07,3.21-1.64,4.8l-1.8,4.74-3.59,9.47c-1.08,3.1-2.16,6.18-3,9.24l-4.93,19.27-1.59,8.79-.68,7.2-.75,7.35c-.21,2.43-.34,4.87-.51,7.3l-.46,7.07.4,7c.1,2.47.46,4.84.67,7.27s.39,4.82.88,7.23l1.18,7,1.86,7.43c.67,2.55,1.06,5.08,1.61,7.62s1.18,5,1.78,7.5l1.82,7.21,6.45,18.61,6.86,14.31,7,11.79,3.59,6,3.84,5.88,15.4,23.51"/></g><g id="普通幹"><path class="cls-3" d="M-101.53-856.68l-1.4-4.93-.1-12.68.31-7.3.61-6.86.91-6.47,1.24-7.79,1.88-8.61,2.22-6.71,2.17-5.81,2.41-5.62,15.17-30.76,8.43-17.67,5-12.47,1.79-8.9,2.16-15.58.93-11.51,1-10.82-1.27-4.12.43-9.87L-59.66-1063l-13.73-54.81-14-57.57,36.34-8.94,14.68,57.48,7,30.33,6.29,26.34.36,6.17-2.29,17-1,8.3-1.58,3.67-1,11.21-1,12.67-2.44,17.32L-34.51-982-41-965.7l-8.77,18.36-15,30.46-1.78,4.18-1.7,4.6-1.49,4.5-1.45,6.69-1,6.4L-73-885M193.85-2425.6l10.46,2.9,8.35,2.31,6.41,1.71,3.58,1,2.32.75,5.26,2,6.3,2.66,8.91,3.77,3.66,1.46,10.11,3.8,7.58,2.27,6.59,2,7.79,2,6.52,1.43,4.49.66,3.85,0h6.77l16.49-.11h17.92l10.7-.12,9.93-.06.16-1.71,2.87-31.19.36-3.9c.12-1.31.2-2.54.45-4.06l3.52-13.34-18.46-12.48L327-2475.06l-2.65-3-3.11-2.17-4-2.7-8.75-5.76-4.2-2.76L300-2494.1l-8.32-5.07-7.78-3.6-8.65-3.43-8.54-3.15-8.51-3L244.4-2516l-3.2-.81-3.6-.76-7.28-1.54-14.55-3.09-7.31-1.55-3.17-.6-2.82-.5m0,0,.68,17.57-1.92,6.72c-.73,2.64-1.56,5.27-2.2,7.91l-1.92,7.92-1.91,7.91c-.34,1.32-.58,2.65-.87,4l-.78,3.71-1,8.93-.65,15.85.29,5c.05,1.76.38,3.5.56,5.26.37,2.83.66,5.64,1.09,8.49M308-2884.46l-10.61,12.83-6.53,9.6-2.24,6.85-1.95,8.12c-.71,2.62-1.08,5.28-1.55,7.92s-.88,5.32-1.4,7.91l-1.57,7.81-1.55,7.81-1.45,7.89c-1,5.28-1.85,10.44-2.78,15.66-.47,2.6-.87,5.21-1.48,7.8s-1,5.25-1.45,7.87c-.92,5.27-2.07,10.42-3.1,15.63-.53,2.58-1.05,5.21-1.55,7.84l-1.51,7.82-1.52,7.79-1.55,7.36-4,11.25c-1.41,3.87-2.74,7.76-4.08,11.65-2.68,7.81-5.34,15.49-8.15,23.21l-16.77,46.38c-1.39,3.88-2.87,7.75-4.08,11.66l-1.9,5.85-2.1,5.76-8.48,23.09-2.12,5.82-2,5.85-4,11.72-2,5.86-1,2.93-1,3.05-1,3.06-.13.52,1.06,27.45M-73-885l21.16-17.37,50.47-68.21,7.94-9.86,21.57-32.81,6.4-9.66L41.08-1034l3.84-7.27,6.1-12.88,5.61-14.67L60-1080.4l1.82-8.67,1.62-8.66,1.06-9.3.32-7.85.08-7.66-.74-10.25-1-9.84-3-14-1.91-6.68-3.61-10.29-5.14-12.58-8.24-15.54-3.92-9.3,3.55-1.91,50.37-24.19,3.66-1.79-3.42-7.16-4.57-8.27-9.6-20L53-1320.69,32.2-1360.5l-6.75-14.7-1.93-5.58-5.43-16.52-3.93-12.65-3.52-13.39-.78-5.55-.06-2.83.52-6.54,1.07-7.33,1-4,1.86-5.14,3.38-7.73,2.72-5.5,1-2.06,2.78-4.77,4-6.93,2.14-1.29,1-1.66,6.62-11.3,7.74-13.21,1.29-2.22,9.66-16.34,50.93-83.67,27.24-45.74,2.73-4.48,3.82-7.39.81-2.57.21-1,.78-6.36,1.06-9.5.1-6.47L142.85-1708l-2.52-12.11-1.22-8.22-1.4-12.33,0-7.06.6-11.86-4.88-.82.39-1.32,3-14.57,2.88-14.39,1.39-7.27,1.18-7.24,2.41-14.85.19-5.49c0-1.72.25-3.37.37-5.06s.24-3.35.46-5.06l.7-5.17,2.81-20.88.3-4.82.33-4.65c.22-3.1.48-6.19.61-9.3l.94-18.64.41-9.46c.11-1.59,0-3.13,0-4.68s-.08-3.1-.07-4.64l.4-9.18c.14-3.05.18-6.22.27-9.32.19-6.24.23-12.47.32-18.7l.11-9.35.06-4.68c0-1.55-.07-3.11-.1-4.66l-.13-4.67v-13.92l-.38-18.69-.21-9.36-.1-4.68-.06-2.33-.17-2.35-1.4-18.78-4.21-36.87c-.11-3.08-.52-6.18-.86-9.28l-1-9.28-2.06-18.56-1-9.18-.52-4.56c-.17-1.52-.22-3.07-.33-4.6l-1.1-17.66,1.07-5.26.14-6.05c0-1.84.07-3.68.18-5.53l.28-5.56c0-.92.09-1.85.11-2.79l.09-2.57.25-2.14.25-2.34c.15-1.58.37-3,.55-4.54l.3-2.26.43-2.27.8-4.32,1.07-4,.57-2.1.5-2a39.55,39.55,0,0,1,1.16-4l1.19-3.78,3.81-9.14c.64-1.57,1.45-3.05,2.17-4.58l2.08-4.3,7.83-12.71,2-3.24,2.11-3.13c1.4-2.08,2.81-4.3,4.21-6.44l8.43-13c1.39-2.17,2.86-4.26,4.11-6.6l4-7,1.91-4.17c.6-1.32,1.23-2.63,1.76-4l3.41-8.28,3.82-12.87,1.63-9.59.39-2.31c.07-.42.17-.93.22-1.33l.13-1.2.55-4.82.53-4.81c.07-1.67.23-3.49.2-5.06l-.09-9.84-1.28-11.21c-.52-3.58-1.09-7.15-1.42-10.77s-.71-7.19-1.24-10.84-1-7.35-1.67-10.91l-3.56-21.41c-.13-.69-.23-1.38-.34-2.06M495.1,3466.84l-2.86,2.61-7.48,7.14-.42.39-12.14,11.4-.37.34-8.33,10.52-2,2.83-1.19,1.61-1.5,2.23-4.14,6.15-7.19,10.51-.34.42-1.61,1.36-1.13,1-1.6,1.14-2,1.08-2.13,1-1.61.59-2.65.59-1.05.21-2.17.43-2.73.3-4.65.51-6.47.73-.93.21-21.68,2.38.49,3.35,4.78,32.72M146.2,564.71l.43,13-.25,5.9c-.06,1-.06,2.06-.17,3l-.22,2.61-.92,4.13-.5,2.25-.62,2.26-2.52,9L136.38,625l-2.51,9c-.43,1.48-.78,3-1.28,4.45l-1.48,4.44-5.81,17.44-3.84,8-7.58,11.87L110.22,688l-1.75,6.91L107,701.28l-3,13-1,6.61c-.33,2.13-.57,4.28-1,6.37-.88,4.19-1.67,8.43-2.63,12.59-.48,2.09-.87,4.17-1.44,6.27l-1.68,6.28L92.8,765.18l-3.51,20.11L87,794.16l-2.17,5.33-2,3L80.36,806l-4.68,6.63L69.52,819l-6.39,4.52c-1.14.79-2.35,1.47-3.52,2.22l-3.19,2-3.57,1.51-4.05,1.66c-2.7,1.11-5.42,2.33-8.09,3.48l-8.05,3.55-8.23,3.84-4.56,2.71-3.64,2.91-7.56,9-5.62,9.67-5.41,9.12c-3.47,6.13-7.61,12-11.51,18-2,2.93-3.8,6.06-5.65,9.15L-25,911.6l-5.45,9.2-5.6,9.12c-7.22,12.33-15,24-22.78,36.26l-5.41,9.29c-1.87,2.92-3.49,5.9-5.65,8.74-4.14,5.66-7.33,20.9-7.33,20.9l-16.29,23c-5.29,7.75-11.41,15-15.11,23.73l-1,2.92-.48,1.46-.38,1.49-1.49,4.19-2.25,10.62-.57,9.84.39,9,1.36,10.91,2.88,9.52,5.33,9.12L-92.65,1138l6.07,8.53,5.48,8.94,4.14,9.85c2.08,6.32,4.2,12.63,6.17,19l1.8,8.57.91,10.9.09,13.78-2.86,20c-1.54,6.81-2.77,13.69-4.75,20.39l-2.55,6.28c-8.23,14.32-18.51,27.34-29.29,39.81-5.37,6.27-10.85,12.43-16.35,18.59s-11,12.28-16.53,18.42l-25.75,40.25-6.76,24.26-15.24,21.63-7.45,12.67-3.79,6.44c-.61,1.07-1.3,2.15-1.85,3.22l-1.58,3-2.29,5.67-.77,3.31v8.81l.34,2.93,1.62,4.09,1.77,3.5c.63,1.26,1.33,2.41,2,3.63,1.35,2.41,2.86,4.88,4.28,7.32s2.87,4.7,4.45,7.74l4.2,8.77,1.54,15.32.21,8.05.09,3.91.21,3.86,1,15.93-.2,10-.82,5.36-1.63,4.23-2.7,5-5.08,6.21-5.41,4.72-5,4.42-5,4.42c-.81.76-1.58,1.56-2.37,2.34l-1.17,1.17-1,.9c-.24.24-1.91,2.66-2.42,3.3l-.31.54-.24.68-.4,1.87-.29,2c-.11.77-.2,1.56-.34,2.3l-.2,1.13-.14,1a7.88,7.88,0,0,0-.12,1l-.08.79-.22,18.18-1.55,13.86-5.55,22-2.73,10.87-.69,2.72-.77,2.67-1.56,5.34-3.11,10.67c-.56,1.77-.93,3.59-1.36,5.39l-1.27,5.42-2.54,10.83c-.84,3.61-1.66,7.22-2.69,10.82l-11.72,43-2.92,10.72c-1,3.58-2,7.13-2.78,10.78l-2.52,10.88c-.38,1.81-1,3.63-1.46,5.45l-1.66,5.8-1.88,4.38c-.58,1.34-1.06,2.77-1.6,4.15l-3.23,8.6-7.49,15.53c-2.45,5.09-4.93,10.18-7.31,15.32s-4.77,10.26-7.25,15.38l-3.73,7.69c-1.23,2.55-2.51,5-3.64,7.57l-1.74,3.84-.91,2-.92,1.92-3.66,7.67-7.31,15.33-7.32,15.33-7,14.92-3.45,12.39-.92,5.22-.86,11.55,0,44.17,1.11,10.2.57,5.25c.18,1.75.38,3.49.69,5.23l3.36,20.88,1.87,18.17,2.26,5.34,2.1,4.14,11.13,17.55,4.66,7,14.84,22.22,9.6,14.36,2,3,5,7.62,2.33,3.54,7.13,11,9.62,14.72,8,12.15.47.72.57.88,3.46,5.38.68,1,12.28,19.39,11.84,19.53,4,6.05,3.72,4.79,21.74,17.64,2.51,2.11,1,.83,2.93,4.65,2.16,3.72,1.75,4.15,1.31,4L-179,2332l.13,4.95.18,6.86.36,8.42.14,3.19.41,3.84,1.4,6.31,6.59,16.8,4.73,8.19,3.68,5.65,8,8.61,1.5,1.49,1.5,1.48,8.8,7.93,9.71,7.3,1.41,1.79,15.34,11.65,6.3,4.19,12.61,8.58,7.63,4.92,5.71,3.22,6.41,3.89,8.16,3.34,10.57,3.16,4.91,1.77,11.28,6.17,14.28,9.33,2.7,1.85,1.41,1.25,1.77,1.61,2.53,2.69,1.15,1.45,1.38,1.92,1.91,2.38,2,3.07,1.77,2.84.43.78,1.64,3.05,1.84,3.68,1.08,2.46,1.76,3.52,1.38,3.22,1.53,3.31,3.92,8,2.48,4.74,4.43,8.47,5.83,15.35,2.26,4.66,3.72,8.38,2.74,6.15,7.82,15.29,4.85,6.13,7,7.13,2.53,2.29L48,2612l3.85,2.54,2.9,1.64,2.07,1.17,6.72,3.8L68.4,2624l28.69,16.57,8.69,4.31,4.53,2.16,3.47,1.44,4.21,1.65,7.9,2.61,4.89,1.21,14.95,3.19,3.88.69,14.76,3,5.94,1.29,4.47,1.76,5.62,3.37,2.07,1.46,7.66,7,6.9,9.09,2.86,3.71,1.73,2.68.95,1.46,16.74,18.66,14.32,8.85,148,71.51,8.09,4.6,18.85,10.29,7.55,3.89,7.31,5.83,6.35,6.8,18.77,46.42,9.14,21.75,14.87,33.47L485,2952.14l5.29,12.43,1.92,4.58.72,2,.27.89,2.67,7.65.5,5.57.77,14.42.18,3.37.47,5.11,1.75,10.18L503,3034l2.18,6.16.77,6.42.07,8.13-2,11.66-2.69,12.47-2.66,10.32-1.18,4.3-1.13,3.08-.11.32-.26.7-2.23,4.87-1.9,2.67-3.73,5.34-3.91,3.56-3.52,2.74-.5.43-3.78,3.15-12.12,10.09L444,3147.31l-13.54,11.84-16.28,13.24-3.51,2.07-11.22,9.86-12.95,12.78-10.86,14-16.29,22.92-.55,1.09-5.23,10.38-1.57,6-1.51,27.83.2,3.45.51,8.73,1.26,22.47.26,2.39,1.39,7.36,4.62,8.28,19.59,18,16.2,14.78,20.18,18.69,9.51,9.28,23.42,21.83,8,7.46,1.59,2,20.09,22.75,1.85,2.2,9.49,11.22,4,4.21,2.51,2.44M-73-885l-1.17,1-12,12.85-3,2.54c-1.1.94-2.25,1.84-3.32,2.81l-7,6.72-1.18,1.12c-.38.38-.89.69-.84,1.3l-.5,3.2-.75,4.86-1.24,8.17-.67,3-1.38,2c-.66,1-1.33,2-2,3l-3.78,6-26.55,41.4-1.12,3c-.37,1-.81,1.86-1.21,2.79s-.88,1.8-1.32,2.7-1.06,1.9-1.58,2.85l-6.5,11.49-6.49,11.48-3.26,5.81-1.65,3-1.48,3c-3.84,8-8.13,15.75-12.22,23.61l-5.71,12.18c-1,2-1.86,4.12-2.75,6.24-.43,1.06-.92,2.09-1.31,3.19l-1.07,3-2.41,5.09c-1.88,5.72-3.12,9.62-5.15,15.23l-1.56,6.88-.46,4.61c-.07,1.4-.09,2.78-.14,4.17l-.24,7.67-1.72,7-.66,11.75-.42,11.2,10.86,22.75L-188-583.4l-.05,5.58-.19,5.63-.41,11.27c-.17,3.75-.48,7.48-.72,11.22-1,15-2.27,29.68-2.45,44.32l0,5.56-.11,5.61-.25,11.23-.28,11.09c0,1.8,0,3.59,0,5.39l0,2.69c0,.91.11,1.54.14,2.23l1.53,7.52,1,3.32,1.08,3.61,2.32,7.79.7,8.59,0,.62,0,7.31-1.54,12.8.78,9.49.95,9.8.71,3.73c.25,1.34.52,2.67.82,4l1.72,7.93c.53,2.68,1.26,5.18,1.93,7.76l2.17,7.48,4.45,10.29,25.51,43.47c2.87.73,5.74,1.44,8.63,2.1l19.42,4.46,9.85,2.24-3.21,14.13-1.84,9.91-.46,2.47-.61,2.44-1.21,4.87c-3.31,13-6.24,26-10.17,39l-11.15,38.88-5.39,19.44c-.84,3.26-1.91,6.44-2.93,9.63l-3.07,9.58-6.14,19.15-3.48,9.39c-1.17,3.13-2.29,6.24-3.57,9.4l-7.45,18.86-1.86,4.71c-.61,1.58-1.15,3.19-1.73,4.79l-3.43,9.59c-2.27,6.39-4.61,12.78-6.7,19.16l-3.23,9.57c-.54,1.59-1.05,3.2-1.63,4.78l-1.79,4.74-3.59,9.46c-1.14,3.27-2.29,6.57-3.26,10l-5.12,20L-205,16.29l-.87,9.05-1.36,3.44-7.72,18L-217.08,52l-1.24,3-6.16,14.79-.17.4-5.25,13.82-.34.9-3.35,9.27L-234.5,97l-2.1,6.88-1.16,6.12-.7,4.46-.21,1.75-.09.77.18,3.76.48,4.23.87,5.08,1.15,4.41,1.07,3,3.48,7.21.33.7,3.3,5.82,5.6,8.53,4.14,5.08,4.63,3.9,8.61,7.23,5,3.66,5.87,4.64,9.21,3.29,2.65,1,11.36,3.51,23.23,6.64.14.09,4,6.06L-127.73,217l9.83,6.18,8.18,6.74L-99.45,240l2.61,2.58,1.3,1.29,1.17,1.28c.78.83,1.58,1.75,2.38,2.67l2.92,3.33,6.46,4.37c1.93,1.32,3.92,2.62,5.94,3.91s4,2.64,6,3.86l6.3,3.52c4.2,2.3,8.35,4.32,12.52,6.5l12.73,6.52,17.71,7.32,8,2.16c1.28.33,2.54.7,3.79,1.08l3,.91,9.85,6.16,33.8,26.77,17.11,13.28,4.12,3.36,4.11,3.48,8,6.74L77,358.51l6.77,7.9c4.68,5.21,9.23,10.44,14,15.63,2.43,2.64,4.79,5,7.19,7.52s4.55,5,6.79,7.5l12.49,15.7,1.83,3.61c.69,1.39,1.42,2.75,2.07,4.16l3.91,8.23,3.58,9.14,1.28,6.58c.52,2.36.79,4.76,1.14,7.16l2,14.36.51,3.59a35.93,35.93,0,0,1,.43,3.61l.53,7.33.54,7.33c.13,2.43.69,4.88.86,7.26l.5,7.13.44,7.25.11,1.82.05,1.74.1,3.67.21,7.35.41,14.69.24,7.27v7.55l1.12,11.12"/><path class="cls-6" d="M-101.53-856.68l-1.4-4.93-.1-12.68.31-7.3.61-6.86.91-6.47,1.24-7.79,1.88-8.61,2.22-6.71,2.17-5.81,2.41-5.62,15.17-30.76,8.43-17.67,5-12.47,1.79-8.9,2.16-15.58.93-11.51,1-10.82-1.27-4.12.43-9.87L-59.66-1063l-13.73-54.81-14-57.57,36.34-8.94,14.68,57.48,7,30.33,6.29,26.34.36,6.17-2.29,17-1,8.3-1.58,3.67-1,11.21-1,12.67-2.44,17.32L-34.51-982-41-965.7l-8.77,18.36-15,30.46-1.78,4.18-1.7,4.6-1.49,4.5-1.45,6.69-1,6.4L-73-885M193.85-2425.6l10.46,2.9,8.35,2.31,6.41,1.71,3.58,1,2.32.75,5.26,2,6.3,2.66,8.91,3.77,3.66,1.46,10.11,3.8,7.58,2.27,6.59,2,7.79,2,6.52,1.43,4.49.66,3.85,0h6.77l16.49-.11h17.92l10.7-.12,9.93-.06.16-1.71,2.87-31.19.36-3.9c.12-1.31.2-2.54.45-4.06l3.52-13.34-18.46-12.48L327-2475.06l-2.65-3-3.11-2.17-4-2.7-8.75-5.76-4.2-2.76L300-2494.1l-8.32-5.07-7.78-3.6-8.65-3.43-8.54-3.15-8.51-3L244.4-2516l-3.2-.81-3.6-.76-7.28-1.54-14.55-3.09-7.31-1.55-3.17-.6-2.82-.5m0,0,.68,17.57-1.92,6.72c-.73,2.64-1.56,5.27-2.2,7.91l-1.92,7.92-1.91,7.91c-.34,1.32-.58,2.65-.87,4l-.78,3.71-1,8.93-.65,15.85.29,5c.05,1.76.38,3.5.56,5.26.37,2.83.66,5.64,1.09,8.49M308-2884.46l-10.61,12.83-6.53,9.6-2.24,6.85-1.95,8.12c-.71,2.62-1.08,5.28-1.55,7.92s-.88,5.32-1.4,7.91l-1.57,7.81-1.55,7.81-1.45,7.89c-1,5.28-1.85,10.44-2.78,15.66-.47,2.6-.87,5.21-1.48,7.8s-1,5.25-1.45,7.87c-.92,5.27-2.07,10.42-3.1,15.63-.53,2.58-1.05,5.21-1.55,7.84l-1.51,7.82-1.52,7.79-1.55,7.36-4,11.25c-1.41,3.87-2.74,7.76-4.08,11.65-2.68,7.81-5.34,15.49-8.15,23.21l-16.77,46.38c-1.39,3.88-2.87,7.75-4.08,11.66l-1.9,5.85-2.1,5.76-8.48,23.09-2.12,5.82-2,5.85-4,11.72-2,5.86-1,2.93-1,3.05-1,3.06-.13.52,1.06,27.45M-73-885l21.16-17.37,50.47-68.21,7.94-9.86,21.57-32.81,6.4-9.66L41.08-1034l3.84-7.27,6.1-12.88,5.61-14.67L60-1080.4l1.82-8.67,1.62-8.66,1.06-9.3.32-7.85.08-7.66-.74-10.25-1-9.84-3-14-1.91-6.68-3.61-10.29-5.14-12.58-8.24-15.54-3.92-9.3,3.55-1.91,50.37-24.19,3.66-1.79-3.42-7.16-4.57-8.27-9.6-20L53-1320.69,32.2-1360.5l-6.75-14.7-1.93-5.58-5.43-16.52-3.93-12.65-3.52-13.39-.78-5.55-.06-2.83.52-6.54,1.07-7.33,1-4,1.86-5.14,3.38-7.73,2.72-5.5,1-2.06,2.78-4.77,4-6.93,2.14-1.29,1-1.66,6.62-11.3,7.74-13.21,1.29-2.22,9.66-16.34,50.93-83.67,27.24-45.74,2.73-4.48,3.82-7.39.81-2.57.21-1,.78-6.36,1.06-9.5.1-6.47L142.85-1708l-2.52-12.11-1.22-8.22-1.4-12.33,0-7.06.6-11.86-4.88-.82.39-1.32,3-14.57,2.88-14.39,1.39-7.27,1.18-7.24,2.41-14.85.19-5.49c0-1.72.25-3.37.37-5.06s.24-3.35.46-5.06l.7-5.17,2.81-20.88.3-4.82.33-4.65c.22-3.1.48-6.19.61-9.3l.94-18.64.41-9.46c.11-1.59,0-3.13,0-4.68s-.08-3.1-.07-4.64l.4-9.18c.14-3.05.18-6.22.27-9.32.19-6.24.23-12.47.32-18.7l.11-9.35.06-4.68c0-1.55-.07-3.11-.1-4.66l-.13-4.67v-13.92l-.38-18.69-.21-9.36-.1-4.68-.06-2.33-.17-2.35-1.4-18.78-4.21-36.87c-.11-3.08-.52-6.18-.86-9.28l-1-9.28-2.06-18.56-1-9.18-.52-4.56c-.17-1.52-.22-3.07-.33-4.6l-1.1-17.66,1.07-5.26.14-6.05c0-1.84.07-3.68.18-5.53l.28-5.56c0-.92.09-1.85.11-2.79l.09-2.57.25-2.14.25-2.34c.15-1.58.37-3,.55-4.54l.3-2.26.43-2.27.8-4.32,1.07-4,.57-2.1.5-2a39.55,39.55,0,0,1,1.16-4l1.19-3.78,3.81-9.14c.64-1.57,1.45-3.05,2.17-4.58l2.08-4.3,7.83-12.71,2-3.24,2.11-3.13c1.4-2.08,2.81-4.3,4.21-6.44l8.43-13c1.39-2.17,2.86-4.26,4.11-6.6l4-7,1.91-4.17c.6-1.32,1.23-2.63,1.76-4l3.41-8.28,3.82-12.87,1.63-9.59.39-2.31c.07-.42.17-.93.22-1.33l.13-1.2.55-4.82.53-4.81c.07-1.67.23-3.49.2-5.06l-.09-9.84-1.28-11.21c-.52-3.58-1.09-7.15-1.42-10.77s-.71-7.19-1.24-10.84-1-7.35-1.67-10.91l-3.56-21.41c-.13-.69-.23-1.38-.34-2.06M495.1,3466.84l-2.86,2.61-7.48,7.14-.42.39-12.14,11.4-.37.34-8.33,10.52-2,2.83-1.19,1.61-1.5,2.23-4.14,6.15-7.19,10.51-.34.42-1.61,1.36-1.13,1-1.6,1.14-2,1.08-2.13,1-1.61.59-2.65.59-1.05.21-2.17.43-2.73.3-4.65.51-6.47.73-.93.21-21.68,2.38.49,3.35,4.78,32.72M146.2,564.71l.43,13-.25,5.9c-.06,1-.06,2.06-.17,3l-.22,2.61-.92,4.13-.5,2.25-.62,2.26-2.52,9L136.38,625l-2.51,9c-.43,1.48-.78,3-1.28,4.45l-1.48,4.44-5.81,17.44-3.84,8-7.58,11.87L110.22,688l-1.75,6.91L107,701.28l-3,13-1,6.61c-.33,2.13-.57,4.28-1,6.37-.88,4.19-1.67,8.43-2.63,12.59-.48,2.09-.87,4.17-1.44,6.27l-1.68,6.28L92.8,765.18l-3.51,20.11L87,794.16l-2.17,5.33-2,3L80.36,806l-4.68,6.63L69.52,819l-6.39,4.52c-1.14.79-2.35,1.47-3.52,2.22l-3.19,2-3.57,1.51-4.05,1.66c-2.7,1.11-5.42,2.33-8.09,3.48l-8.05,3.55-8.23,3.84-4.56,2.71-3.64,2.91-7.56,9-5.62,9.67-5.41,9.12c-3.47,6.13-7.61,12-11.51,18-2,2.93-3.8,6.06-5.65,9.15L-25,911.6l-5.45,9.2-5.6,9.12c-7.22,12.33-15,24-22.78,36.26l-5.41,9.29c-1.87,2.92-3.49,5.9-5.65,8.74-4.14,5.66-7.33,20.9-7.33,20.9l-16.29,23c-5.29,7.75-11.41,15-15.11,23.73l-1,2.92-.48,1.46-.38,1.49-1.49,4.19-2.25,10.62-.57,9.84.39,9,1.36,10.91,2.88,9.52,5.33,9.12L-92.65,1138l6.07,8.53,5.48,8.94,4.14,9.85c2.08,6.32,4.2,12.63,6.17,19l1.8,8.57.91,10.9.09,13.78-2.86,20c-1.54,6.81-2.77,13.69-4.75,20.39l-2.55,6.28c-8.23,14.32-18.51,27.34-29.29,39.81-5.37,6.27-10.85,12.43-16.35,18.59s-11,12.28-16.53,18.42l-25.75,40.25-6.76,24.26-15.24,21.63-7.45,12.67-3.79,6.44c-.61,1.07-1.3,2.15-1.85,3.22l-1.58,3-2.29,5.67-.77,3.31v8.81l.34,2.93,1.62,4.09,1.77,3.5c.63,1.26,1.33,2.41,2,3.63,1.35,2.41,2.86,4.88,4.28,7.32s2.87,4.7,4.45,7.74l4.2,8.77,1.54,15.32.21,8.05.09,3.91.21,3.86,1,15.93-.2,10-.82,5.36-1.63,4.23-2.7,5-5.08,6.21-5.41,4.72-5,4.42-5,4.42c-.81.76-1.58,1.56-2.37,2.34l-1.17,1.17-1,.9c-.24.24-1.91,2.66-2.42,3.3l-.31.54-.24.68-.4,1.87-.29,2c-.11.77-.2,1.56-.34,2.3l-.2,1.13-.14,1a7.88,7.88,0,0,0-.12,1l-.08.79-.22,18.18-1.55,13.86-5.55,22-2.73,10.87-.69,2.72-.77,2.67-1.56,5.34-3.11,10.67c-.56,1.77-.93,3.59-1.36,5.39l-1.27,5.42-2.54,10.83c-.84,3.61-1.66,7.22-2.69,10.82l-11.72,43-2.92,10.72c-1,3.58-2,7.13-2.78,10.78l-2.52,10.88c-.38,1.81-1,3.63-1.46,5.45l-1.66,5.8-1.88,4.38c-.58,1.34-1.06,2.77-1.6,4.15l-3.23,8.6-7.49,15.53c-2.45,5.09-4.93,10.18-7.31,15.32s-4.77,10.26-7.25,15.38l-3.73,7.69c-1.23,2.55-2.51,5-3.64,7.57l-1.74,3.84-.91,2-.92,1.92-3.66,7.67-7.31,15.33-7.32,15.33-7,14.92-3.45,12.39-.92,5.22-.86,11.55,0,44.17,1.11,10.2.57,5.25c.18,1.75.38,3.49.69,5.23l3.36,20.88,1.87,18.17,2.26,5.34,2.1,4.14,11.13,17.55,4.66,7,14.84,22.22,9.6,14.36,2,3,5,7.62,2.33,3.54,7.13,11,9.62,14.72,8,12.15.47.72.57.88,3.46,5.38.68,1,12.28,19.39,11.84,19.53,4,6.05,3.72,4.79,21.74,17.64,2.51,2.11,1,.83,2.93,4.65,2.16,3.72,1.75,4.15,1.31,4L-179,2332l.13,4.95.18,6.86.36,8.42.14,3.19.41,3.84,1.4,6.31,6.59,16.8,4.73,8.19,3.68,5.65,8,8.61,1.5,1.49,1.5,1.48,8.8,7.93,9.71,7.3,1.41,1.79,15.34,11.65,6.3,4.19,12.61,8.58,7.63,4.92,5.71,3.22,6.41,3.89,8.16,3.34,10.57,3.16,4.91,1.77,11.28,6.17,14.28,9.33,2.7,1.85,1.41,1.25,1.77,1.61,2.53,2.69,1.15,1.45,1.38,1.92,1.91,2.38,2,3.07,1.77,2.84.43.78,1.64,3.05,1.84,3.68,1.08,2.46,1.76,3.52,1.38,3.22,1.53,3.31,3.92,8,2.48,4.74,4.43,8.47,5.83,15.35,2.26,4.66,3.72,8.38,2.74,6.15,7.82,15.29,4.85,6.13,7,7.13,2.53,2.29L48,2612l3.85,2.54,2.9,1.64,2.07,1.17,6.72,3.8L68.4,2624l28.69,16.57,8.69,4.31,4.53,2.16,3.47,1.44,4.21,1.65,7.9,2.61,4.89,1.21,14.95,3.19,3.88.69,14.76,3,5.94,1.29,4.47,1.76,5.62,3.37,2.07,1.46,7.66,7,6.9,9.09,2.86,3.71,1.73,2.68.95,1.46,16.74,18.66,14.32,8.85,148,71.51,8.09,4.6,18.85,10.29,7.55,3.89,7.31,5.83,6.35,6.8,18.77,46.42,9.14,21.75,14.87,33.47L485,2952.14l5.29,12.43,1.92,4.58.72,2,.27.89,2.67,7.65.5,5.57.77,14.42.18,3.37.47,5.11,1.75,10.18L503,3034l2.18,6.16.77,6.42.07,8.13-2,11.66-2.69,12.47-2.66,10.32-1.18,4.3-1.13,3.08-.11.32-.26.7-2.23,4.87-1.9,2.67-3.73,5.34-3.91,3.56-3.52,2.74-.5.43-3.78,3.15-12.12,10.09L444,3147.31l-13.54,11.84-16.28,13.24-3.51,2.07-11.22,9.86-12.95,12.78-10.86,14-16.29,22.92-.55,1.09-5.23,10.38-1.57,6-1.51,27.83.2,3.45.51,8.73,1.26,22.47.26,2.39,1.39,7.36,4.62,8.28,19.59,18,16.2,14.78,20.18,18.69,9.51,9.28,23.42,21.83,8,7.46,1.59,2,20.09,22.75,1.85,2.2,9.49,11.22,4,4.21,2.51,2.44M-73-885l-1.17,1-12,12.85-3,2.54c-1.1.94-2.25,1.84-3.32,2.81l-7,6.72-1.18,1.12c-.38.38-.89.69-.84,1.3l-.5,3.2-.75,4.86-1.24,8.17-.67,3-1.38,2c-.66,1-1.33,2-2,3l-3.78,6-26.55,41.4-1.12,3c-.37,1-.81,1.86-1.21,2.79s-.88,1.8-1.32,2.7-1.06,1.9-1.58,2.85l-6.5,11.49-6.49,11.48-3.26,5.81-1.65,3-1.48,3c-3.84,8-8.13,15.75-12.22,23.61l-5.71,12.18c-1,2-1.86,4.12-2.75,6.24-.43,1.06-.92,2.09-1.31,3.19l-1.07,3-2.41,5.09c-1.88,5.72-3.12,9.62-5.15,15.23l-1.56,6.88-.46,4.61c-.07,1.4-.09,2.78-.14,4.17l-.24,7.67-1.72,7-.66,11.75-.42,11.2,10.86,22.75L-188-583.4l-.05,5.58-.19,5.63-.41,11.27c-.17,3.75-.48,7.48-.72,11.22-1,15-2.27,29.68-2.45,44.32l0,5.56-.11,5.61-.25,11.23-.28,11.09c0,1.8,0,3.59,0,5.39l0,2.69c0,.91.11,1.54.14,2.23l1.53,7.52,1,3.32,1.08,3.61,2.32,7.79.7,8.59,0,.62,0,7.31-1.54,12.8.78,9.49.95,9.8.71,3.73c.25,1.34.52,2.67.82,4l1.72,7.93c.53,2.68,1.26,5.18,1.93,7.76l2.17,7.48,4.45,10.29,25.51,43.47c2.87.73,5.74,1.44,8.63,2.1l19.42,4.46,9.85,2.24-3.21,14.13-1.84,9.91-.46,2.47-.61,2.44-1.21,4.87c-3.31,13-6.24,26-10.17,39l-11.15,38.88-5.39,19.44c-.84,3.26-1.91,6.44-2.93,9.63l-3.07,9.58-6.14,19.15-3.48,9.39c-1.17,3.13-2.29,6.24-3.57,9.4l-7.45,18.86-1.86,4.71c-.61,1.58-1.15,3.19-1.73,4.79l-3.43,9.59c-2.27,6.39-4.61,12.78-6.7,19.16l-3.23,9.57c-.54,1.59-1.05,3.2-1.63,4.78l-1.79,4.74-3.59,9.46c-1.14,3.27-2.29,6.57-3.26,10l-5.12,20L-205,16.29l-.87,9.05-1.36,3.44-7.72,18L-217.08,52l-1.24,3-6.16,14.79-.17.4-5.25,13.82-.34.9-3.35,9.27L-234.5,97l-2.1,6.88-1.16,6.12-.7,4.46-.21,1.75-.09.77.18,3.76.48,4.23.87,5.08,1.15,4.41,1.07,3,3.48,7.21.33.7,3.3,5.82,5.6,8.53,4.14,5.08,4.63,3.9,8.61,7.23,5,3.66,5.87,4.64,9.21,3.29,2.65,1,11.36,3.51,23.23,6.64.14.09,4,6.06L-127.73,217l9.83,6.18,8.18,6.74L-99.45,240l2.61,2.58,1.3,1.29,1.17,1.28c.78.83,1.58,1.75,2.38,2.67l2.92,3.33,6.46,4.37c1.93,1.32,3.92,2.62,5.94,3.91s4,2.64,6,3.86l6.3,3.52c4.2,2.3,8.35,4.32,12.52,6.5l12.73,6.52,17.71,7.32,8,2.16c1.28.33,2.54.7,3.79,1.08l3,.91,9.85,6.16,33.8,26.77,17.11,13.28,4.12,3.36,4.11,3.48,8,6.74L77,358.51l6.77,7.9c4.68,5.21,9.23,10.44,14,15.63,2.43,2.64,4.79,5,7.19,7.52s4.55,5,6.79,7.5l12.49,15.7,1.83,3.61c.69,1.39,1.42,2.75,2.07,4.16l3.91,8.23,3.58,9.14,1.28,6.58c.52,2.36.79,4.76,1.14,7.16l2,14.36.51,3.59a35.93,35.93,0,0,1,.43,3.61l.53,7.33.54,7.33c.13,2.43.69,4.88.86,7.26l.5,7.13.44,7.25.11,1.82.05,1.74.1,3.67.21,7.35.41,14.69.24,7.27v7.55l1.12,11.12"/></g></g><g id="日交線"><g id="若桜"><path class="cls-7" d="M404.52-2473.65l1.18-4.35,2.22-8.72c1.44-5.81,3-11.63,4.35-17.44l3.85-17.44c2.54-11.56,5.29-23.16,7.62-34.46.31-1.42.58-2.83.93-4.27l1.1-4.36,1.09-4.37c.36-1.42.75-3,1-4.34l.42-1.69.22-.86.29-1.05,1.15-4.17,2.65-9.62,1.25-9.88.46-10v-.14c.72-18.17,1.32-36.22,1.87-54.48l.76-27.13.31-13.65.26-14.29-.21-3.42v2.07l.43-7.28,1.27-9.75,1.53-6.94,2.06-5,4.42-8.23-.68,1.16,1-1.5,6.07-11c1.92-3.48,3.71-6.84,5.75-10.31l11.88-20.7,5.94-10.34q3-5.17,5.85-10.34c1.93-3.43,3.77-6.94,5.82-10.25l6.41-10.74,1.37-2.84s4.79-16.9,10-25.14l-.17.26,18.57-27.05L534-2911c1.5-2.26,3.21-4.33,4.83-6.47l5.67-7.36L548-2932l1.22-1.39,1.78-2.77,3.58-5.53m135.6,138.28,31,89.2.67,18.07-1.62,27.22c-.19,4.54-.72,9.06-1.16,13.58l-1.4,13.56-4,21c-.68,3.5-1.32,7-2.05,10.5s-1.29,7-2.29,10.44l-.33,5.49c0,1.84,0,3.67,0,5.5,0,3.67-.16,7.34.16,11l1.06,5.65c.91,3.17,1.7,6.37,2.72,9.51l3.26,9.33,5.61,10.57c.94,1.76,1.84,3.54,2.82,5.27l3.14,5.1,6.24,10.21,6,10.36,6,10.37,3,5.18c1,1.74,2,3.44,2.9,5.24,1.76,3.58,3.78,7,5.65,10.54l5.73,10.5,5.73,10.51,2.86,5.25,1.44,2.63c.46.88.87,1.79,1.31,2.68.89,1.79,1.7,3.62,2.65,5.37l2.91,5.22,5.83,10.46,8.11,15.06,4.77,15.66,5.93,19.42c4.41,8.1,8.76,16.25,13.14,24.36l1.91,3.56,1.85,3.68,3.71,7.34,7.41,14.68L863-2265.65l15.24,29.14,7.62,14.57c2.52,4.87,4.77,9.89,7.17,14.83,4.8,9.89,9.2,19.91,14.7,29.64l3.89,7.26,2,3.63c.35.67.6,1.07.8,1.53l.74,1.73c.54,1.28,1.07,2.56,1.68,3.87l1.72,3.77,3.18,6.91.94,4.3.83,11.69c.33,4,.45,8,.67,12l1.18,24.14c.26,4,.23,8,.34,12s.19,8,.12,12l-6,24-.56,23.72q-.26,11.94-.41,23.9t-.14,23.92l.06,12c0,4.12.15,8.13.23,12a167.49,167.49,0,0,1-.57,22.2c-.22,1.82-.41,3.23-.75,4.86s-.73,3.25-1.2,5c-.95,3.44-2.16,7.08-3.38,11a109.69,109.69,0,0,0-3.29,12.85,76.79,76.79,0,0,0-1.21,13.93,142.31,142.31,0,0,0,2.83,25.73,206.85,206.85,0,0,0,5.74,24.41,124,124,0,0,0,4.16,12.44c.48,1.16,1.05,2.35,1.66,3.54s1.46,2.59,1.86,3.25l3.13,5.14a116.38,116.38,0,0,0,7.44,10.91,100.48,100.48,0,0,0,9.08,9.91l4.44,4.23,2.2,2.08c.92.87,1.84,1.66,2.74,2.41,3.61,3,6.9,5.25,9.45,7.35l18.12,15.22c6.2,5.19,12.28,10.08,17.89,15.09a138.4,138.4,0,0,1,15.3,15.75,147.05,147.05,0,0,1,12.62,18c.93,1.55,1.88,3.09,2.85,4.6l3.12-1.44,7-4.12,7-4.12,11.83-5.48,18.24-6.32m57.83,454-6.05-12.84-2.61-6.21-2.42-7.32-1.74-5.58-1.09-5.21-.94-6.23-.68-9.09-.05-1.08-.8-18.17-3.81-31.42-2-11.54c3.56-.62,7-1.15,10.11-1.76,1.58-.3,3.11-.62,4.58-1s2.91-.75,4.1-1.14c2.56-.84,5.58-2.18,9.24-3.6l1.41-.53,1.19-.42.92-.3,1.52-.48.76-.24c.25-.06.56-.18.55-.48a10.46,10.46,0,0,0,0-2l-.45-5.9-1.42-20.06L1144-1444l-1.13-21.26-.55-10.57c-.09-3.13-.36-6.62-.47-10.49a67.73,67.73,0,0,1,.69-12.51c.62-4.11,1.52-7.8,2.3-11.18l11.58-3.19,8.41.25,5.34-1,5.77-1.67L1182-1518l2-1,3.94-3.16,4.17-3.47,2.52-2.49,4.9-6.74,2.65-3.64c.87-1.22,1.85-2.3,2.77-3.46l11.16-13.66,10.82-13.7c3.58-4.63,7.11-9.36,10.67-14,1.8-2.32,3.49-4.72,5.39-7l5.74-6.76,11.21-13.52,22-26.65,2.75-4.78,3.65-7.9.88-2.47,1.76-7.1.08-.91c0-.3.06-.61.08-1,0-.77.1-1.48.08-2.29l0-4.35-1.64-7c-.55-2.5-1.28-5-2-7.46l-4.42-14.88-7.88-20.3-3.41-7-3.24-5.41-3.51-4.51-3.8-3.8-14.31-11.33-4.83-3.29c-.84-.54-1.67-1.17-2.5-1.83l-2-1.58-4.5-2.48-5-1.52-5.07-.74-6.53-.08-7.23.83-18.77,4.32c-6.34,1.5-12.72,2.78-19,4.79l-18.83,5.52-19,5.17-19.08,5-4.73,1.22-4.68,1.28c-3.12.89-6.26,1.63-9.35,2.65l-9.32,2.91c-3.08,1-6.17,1.88-9.25,3m-28.64,1177,2.65,7.15.76,2,.48,1.3,5.49,8,5.18,7.13,7.52,8.29L1086-496.23l32,39,9.2,9.58,1.92,2.24,14.73,15.91,14.83,18.73,40,51.55,5,5,8.72,6.06,8.44,4,30.37,8.08,8.35,1.39,7.57,0,18.68-3.19,2.53-.43,7.37-1.67,6.74-.87,5.31.68,3.93,1.5,3.3,1.84,9.06,8.18,16.49,14.53,11.27,9.91,14.69,13.87,10.42,13,10,13.63,4.59,7.19,5.48,7.27,3.73,4.46,3.53,4,4.85,4.79,6,5.54,9.3,6.28,12,4.83.62.24,6.58,1.35,6.59,1.07,17.83,3.33,6.76,1.81,1.78.77,33.76,14.63,11.79,5.11,29.26,13.61,7.12,4.51,12.91,11.54L1596.94-132l11.3,13.24,1,1.07,23,26.31,10.56,12.31L1677-39.28l19,22.1,1,1.1,9.49,10.49,14,13.1,35,24.59,4.38,3.29M1064.53-662.26l2.43-7.89,2.09-7,1.33-4.46,5.18-18.08,7.5-26.25,9.86-34,1.13-4.58.67-2.3,3.17-10.28,6.86-15.52,5.14-9.23,8.29-11.18,6.25-6.08,27.13-30.41,6.37-7.14,1.75-2,23.13-25.92L1203.87-908l5.54-6.18,10.34-11.65,11.47-15.12,4.51-11.33,2.14-6.56,2.13-6.8,1.08-9.88.5-9.08-.9-12.74-1-6.05-2.21-9.25-15.79-43-14.76-40.76-45.13-120.26-2.34-6.18-1.72-3.65-22.58-44m-70.63,608.23-16.57-5.3-13.31-3.84-2.09-.6-4-1-4.72-1.44-6.53-1.59-6.27-1.74-2.46-1.28-2.48-1.21-6.42-3.83-1.63-.93-1.52-.61-.65-.12-.64.12-.56.44-.61.75-.45.84-1.66,4-.52,1.53-1.16,2.55-9,19.23-9.15,18-1.05,2.07-1.65,3.12-.54,1-7.61,15.39-1.15,2.27-1.93,3.9-2.31,4.12,1.63,1.34,1.18,1.47,2.63,3.09,2.92,3.29,2.58,3.34.21.27.79,1,1.65,2.13.37.48,9.8,12.45,1.57,1.7,4.77,6.21.08.11.36.47,3,3.87,1.59,1.95,2.52,3.08,2.24,2.75,1.45,1.28,3.83,3.36.64.39,6.44,3.85,2.42.85,4.84,1.7,2.73.28h3.45l27.16-1.89m3501.8,2013.31L4540.26,1452l-5.73-7.71-4.3-9-3.15-.78-1.61-.39-20.43-3.79-2.55-.72-4.08-6.2L4484,1405.18l-.84-1-2.28-2-12.13-14.39-13.44-15.91-3.42-4.15-7.15-8.6-6.16-7.41-7.66-9.25-2.68-3.25-10.38-12.42-20.11-24.58-.33-.4-12.57-14.74-6.76-8.32-5.09-6.24-11.92-14.3-10.81-13.11-1.69-1.49-14.72-13.59-4-3.63-.2-.17L4317,1215.14l-5.46-4.82-2.93-2.6-12.59-10.9-25.44-23.28-3.91-3.83-4.59-4.51-1.9-1.59-2.95-2.61-3-2.58-5.91-3.31-3.06-2-2.08-1.39-2.93-5.36-4.67-6.94-8.12-4.84-5.74-5.3-1.27-4.1-84.55-69.79-22.32-20.31-14-14-22.88-26.52-53.58-71.9-23.76-32.76-39.09-56.27-3-3.76-6.78-10.81-5.18-13.42-1.72-10.74L3939,720.7l-3.25-48.52-2.6-11.66-4.31-10.29-4.21-8.15-10.74-14.76-12.55-10.48-1.06-1-23-10.55-12.85-3.45-9.78-1-8.05.38-9.83,1.13-12.64,3.25-9,4-13,8.43-10.16,7.26-1.9,1.35-40,30.4-3.44,2.54-17,15.69-8.23,9.39-7.45,11.15L3694.48,722,3660,770.67l-7,6.54-5.72,4.54-8.83,3.73-14.91,2.82-1.91.23-18.36,2.17-8.49.66-16.72,1.06-1.17.07-22.81,1.36-14,.88-.55,0-11,.43-3,.12-8.45.57-.59,0-16.4,1.17-8.76.61-2.36.17h-9.46l-6.24-.1-5.52-.64-5.52-.82-4.75-.83-9.37-1.61-4.95-1-14.62-2.55-18.64-3.53-.54-.11L3395.18,784l-11-1.72-28.61-5.65-39.71-7.12-37.47-7-31.37-5.78-3.11-.78-60.62-11.18-14.74-3.14-9.91-4-8.31-4.87-7.38-6.38-2.37-2.81-20.9-19.68-25.83-24.33L3082.43,673l-20-8.6L3031,651l-8.58-2.39-3.95-1.09-15.57-2.1-9.4.11-12.31.1-22.24.19-13.9-.28-56-13.24-27.65-6.35-8.37-1.44-10.83-1.23-58.82-4.71-7.88-.88-8.31-.36-8.31.89-9.5,1.89-9.8,2.46-6.36,2.56-36.09,20.84-6,2.29-6.1,1-12.39.09-86.56.66h-4.43l-32-6.74-8-1.68-.77-.16-4.73-.61-4.72.26L2510.44,647l-4.46.52h-4.47l-8.84-2.84-34.33-13.57-5.32-2.32-4.93-2.14-8.15-4.37-4.61-2.48-9.62-7.2-9.12-7.88-1.14-1-.83-.86-23.88-24.43-27.94-28.87-1-.95-2.87-2.8-1.11-1.07-11.2-11.43-8.18-8.35-11.8-16.79-7.33-10.8-12-18-5.9-6.15-10.19-7.63L2269,451.56l-26.28-16.35-49.09-31.06-8-4.89-10.94-5.21-6.64-1.62-9.94-1.6L2141,389.08l-18.35-4.44-5.18-2.55-1.25-.63-9.58-5.27L2082,361.61l-21-12.49-9.95-5.9-20.64-12.32-84.24-49.85-2.5-2.4-1.27-.84-3.7-2.43-4.28-4.65-5.47-7.05-3.59-6.54-2.07-6.85-.38-1.26-1.7-5.73-1.26-5.47-3.25-11.68-2.24-6.12-1.64-3.92-1.2-2.47-2.46-5.16-2.18-4.68-.25-.54-6.58-14.78-2.21-4.71-5.31-8.28-34.92-43.89-1.28-1.61-16-20.55-22.91-29.32-3.12-3.4L1813,75.3l-10.3-9.69-.83-.59L1785.6,53.4l-.65-.47-7.71-5.15-2.09-1.4-3.48-2.52-2.38-1.72-2-1.47-3.76-2.73-3.69-2.55M704.7-2412.22l6.72.64,3.35.33c1.13.12,2.26.31,3.38.47l7.17,1.05,5.77,1.27,5.6,1.71,4.06,1.81s8,5.48,8.11,5.49l.95.2,20.47,2.07,2.51-1.09,2.74.13,4.14.19,2.06.1,2,.14,8,.29,7,.25m-395.15-72.69c.15-.66.28-1.34.44-2l.51-1.82"/><path class="cls-8" d="M404.52-2473.65l1.18-4.35,2.22-8.72c1.44-5.81,3-11.63,4.35-17.44l3.85-17.44c2.54-11.56,5.29-23.16,7.62-34.46.31-1.42.58-2.83.93-4.27l1.1-4.36,1.09-4.37c.36-1.42.75-3,1-4.34l.42-1.69.22-.86.29-1.05,1.15-4.17,2.65-9.62,1.25-9.88.46-10v-.14c.72-18.17,1.32-36.22,1.87-54.48l.76-27.13.31-13.65.26-14.29-.21-3.42v2.07l.43-7.28,1.27-9.75,1.53-6.94,2.06-5,4.42-8.23-.68,1.16,1-1.5,6.07-11c1.92-3.48,3.71-6.84,5.75-10.31l11.88-20.7,5.94-10.34q3-5.17,5.85-10.34c1.93-3.43,3.77-6.94,5.82-10.25l6.41-10.74,1.37-2.84s4.79-16.9,10-25.14l-.17.26,18.57-27.05L534-2911c1.5-2.26,3.21-4.33,4.83-6.47l5.67-7.36L548-2932l1.22-1.39,1.78-2.77,3.58-5.53m135.6,138.28,31,89.2.67,18.07-1.62,27.22c-.19,4.54-.72,9.06-1.16,13.58l-1.4,13.56-4,21c-.68,3.5-1.32,7-2.05,10.5s-1.29,7-2.29,10.44l-.33,5.49c0,1.84,0,3.67,0,5.5,0,3.67-.16,7.34.16,11l1.06,5.65c.91,3.17,1.7,6.37,2.72,9.51l3.26,9.33,5.61,10.57c.94,1.76,1.84,3.54,2.82,5.27l3.14,5.1,6.24,10.21,6,10.36,6,10.37,3,5.18c1,1.74,2,3.44,2.9,5.24,1.76,3.58,3.78,7,5.65,10.54l5.73,10.5,5.73,10.51,2.86,5.25,1.44,2.63c.46.88.87,1.79,1.31,2.68.89,1.79,1.7,3.62,2.65,5.37l2.91,5.22,5.83,10.46,8.11,15.06,4.77,15.66,5.93,19.42c4.41,8.1,8.76,16.25,13.14,24.36l1.91,3.56,1.85,3.68,3.71,7.34,7.41,14.68L863-2265.65l15.24,29.14,7.62,14.57c2.52,4.87,4.77,9.89,7.17,14.83,4.8,9.89,9.2,19.91,14.7,29.64l3.89,7.26,2,3.63c.35.67.6,1.07.8,1.53l.74,1.73c.54,1.28,1.07,2.56,1.68,3.87l1.72,3.77,3.18,6.91.94,4.3.83,11.69c.33,4,.45,8,.67,12l1.18,24.14c.26,4,.23,8,.34,12s.19,8,.12,12l-6,24-.56,23.72q-.26,11.94-.41,23.9t-.14,23.92l.06,12c0,4.12.15,8.13.23,12a167.49,167.49,0,0,1-.57,22.2c-.22,1.82-.41,3.23-.75,4.86s-.73,3.25-1.2,5c-.95,3.44-2.16,7.08-3.38,11a109.69,109.69,0,0,0-3.29,12.85,76.79,76.79,0,0,0-1.21,13.93,142.31,142.31,0,0,0,2.83,25.73,206.85,206.85,0,0,0,5.74,24.41,124,124,0,0,0,4.16,12.44c.48,1.16,1.05,2.35,1.66,3.54s1.46,2.59,1.86,3.25l3.13,5.14a116.38,116.38,0,0,0,7.44,10.91,100.48,100.48,0,0,0,9.08,9.91l4.44,4.23,2.2,2.08c.92.87,1.84,1.66,2.74,2.41,3.61,3,6.9,5.25,9.45,7.35l18.12,15.22c6.2,5.19,12.28,10.08,17.89,15.09a138.4,138.4,0,0,1,15.3,15.75,147.05,147.05,0,0,1,12.62,18c.93,1.55,1.88,3.09,2.85,4.6l3.12-1.44,7-4.12,7-4.12,11.83-5.48,18.24-6.32m57.83,454-6.05-12.84-2.61-6.21-2.42-7.32-1.74-5.58-1.09-5.21-.94-6.23-.68-9.09-.05-1.08-.8-18.17-3.81-31.42-2-11.54c3.56-.62,7-1.15,10.11-1.76,1.58-.3,3.11-.62,4.58-1s2.91-.75,4.1-1.14c2.56-.84,5.58-2.18,9.24-3.6l1.41-.53,1.19-.42.92-.3,1.52-.48.76-.24c.25-.06.56-.18.55-.48a10.46,10.46,0,0,0,0-2l-.45-5.9-1.42-20.06L1144-1444l-1.13-21.26-.55-10.57c-.09-3.13-.36-6.62-.47-10.49a67.73,67.73,0,0,1,.69-12.51c.62-4.11,1.52-7.8,2.3-11.18l11.58-3.19,8.41.25,5.34-1,5.77-1.67L1182-1518l2-1,3.94-3.16,4.17-3.47,2.52-2.49,4.9-6.74,2.65-3.64c.87-1.22,1.85-2.3,2.77-3.46l11.16-13.66,10.82-13.7c3.58-4.63,7.11-9.36,10.67-14,1.8-2.32,3.49-4.72,5.39-7l5.74-6.76,11.21-13.52,22-26.65,2.75-4.78,3.65-7.9.88-2.47,1.76-7.1.08-.91c0-.3.06-.61.08-1,0-.77.1-1.48.08-2.29l0-4.35-1.64-7c-.55-2.5-1.28-5-2-7.46l-4.42-14.88-7.88-20.3-3.41-7-3.24-5.41-3.51-4.51-3.8-3.8-14.31-11.33-4.83-3.29c-.84-.54-1.67-1.17-2.5-1.83l-2-1.58-4.5-2.48-5-1.52-5.07-.74-6.53-.08-7.23.83-18.77,4.32c-6.34,1.5-12.72,2.78-19,4.79l-18.83,5.52-19,5.17-19.08,5-4.73,1.22-4.68,1.28c-3.12.89-6.26,1.63-9.35,2.65l-9.32,2.91c-3.08,1-6.17,1.88-9.25,3m-28.64,1177,2.65,7.15.76,2,.48,1.3,5.49,8,5.18,7.13,7.52,8.29L1086-496.23l32,39,9.2,9.58,1.92,2.24,14.73,15.91,14.83,18.73,40,51.55,5,5,8.72,6.06,8.44,4,30.37,8.08,8.35,1.39,7.57,0,18.68-3.19,2.53-.43,7.37-1.67,6.74-.87,5.31.68,3.93,1.5,3.3,1.84,9.06,8.18,16.49,14.53,11.27,9.91,14.69,13.87,10.42,13,10,13.63,4.59,7.19,5.48,7.27,3.73,4.46,3.53,4,4.85,4.79,6,5.54,9.3,6.28,12,4.83.62.24,6.58,1.35,6.59,1.07,17.83,3.33,6.76,1.81,1.78.77,33.76,14.63,11.79,5.11,29.26,13.61,7.12,4.51,12.91,11.54L1596.94-132l11.3,13.24,1,1.07,23,26.31,10.56,12.31L1677-39.28l19,22.1,1,1.1,9.49,10.49,14,13.1,35,24.59,4.38,3.29M1064.53-662.26l2.43-7.89,2.09-7,1.33-4.46,5.18-18.08,7.5-26.25,9.86-34,1.13-4.58.67-2.3,3.17-10.28,6.86-15.52,5.14-9.23,8.29-11.18,6.25-6.08,27.13-30.41,6.37-7.14,1.75-2,23.13-25.92L1203.87-908l5.54-6.18,10.34-11.65,11.47-15.12,4.51-11.33,2.14-6.56,2.13-6.8,1.08-9.88.5-9.08-.9-12.74-1-6.05-2.21-9.25-15.79-43-14.76-40.76-45.13-120.26-2.34-6.18-1.72-3.65-22.58-44m-70.63,608.23-16.57-5.3-13.31-3.84-2.09-.6-4-1-4.72-1.44-6.53-1.59-6.27-1.74-2.46-1.28-2.48-1.21-6.42-3.83-1.63-.93-1.52-.61-.65-.12-.64.12-.56.44-.61.75-.45.84-1.66,4-.52,1.53-1.16,2.55-9,19.23-9.15,18-1.05,2.07-1.65,3.12-.54,1-7.61,15.39-1.15,2.27-1.93,3.9-2.31,4.12,1.63,1.34,1.18,1.47,2.63,3.09,2.92,3.29,2.58,3.34.21.27.79,1,1.65,2.13.37.48,9.8,12.45,1.57,1.7,4.77,6.21.08.11.36.47,3,3.87,1.59,1.95,2.52,3.08,2.24,2.75,1.45,1.28,3.83,3.36.64.39,6.44,3.85,2.42.85,4.84,1.7,2.73.28h3.45l27.16-1.89m3501.8,2013.31L4540.26,1452l-5.73-7.71-4.3-9-3.15-.78-1.61-.39-20.43-3.79-2.55-.72-4.08-6.2L4484,1405.18l-.84-1-2.28-2-12.13-14.39-13.44-15.91-3.42-4.15-7.15-8.6-6.16-7.41-7.66-9.25-2.68-3.25-10.38-12.42-20.11-24.58-.33-.4-12.57-14.74-6.76-8.32-5.09-6.24-11.92-14.3-10.81-13.11-1.69-1.49-14.72-13.59-4-3.63-.2-.17L4317,1215.14l-5.46-4.82-2.93-2.6-12.59-10.9-25.44-23.28-3.91-3.83-4.59-4.51-1.9-1.59-2.95-2.61-3-2.58-5.91-3.31-3.06-2-2.08-1.39-2.93-5.36-4.67-6.94-8.12-4.84-5.74-5.3-1.27-4.1-84.55-69.79-22.32-20.31-14-14-22.88-26.52-53.58-71.9-23.76-32.76-39.09-56.27-3-3.76-6.78-10.81-5.18-13.42-1.72-10.74L3939,720.7l-3.25-48.52-2.6-11.66-4.31-10.29-4.21-8.15-10.74-14.76-12.55-10.48-1.06-1-23-10.55-12.85-3.45-9.78-1-8.05.38-9.83,1.13-12.64,3.25-9,4-13,8.43-10.16,7.26-1.9,1.35-40,30.4-3.44,2.54-17,15.69-8.23,9.39-7.45,11.15L3694.48,722,3660,770.67l-7,6.54-5.72,4.54-8.83,3.73-14.91,2.82-1.91.23-18.36,2.17-8.49.66-16.72,1.06-1.17.07-22.81,1.36-14,.88-.55,0-11,.43-3,.12-8.45.57-.59,0-16.4,1.17-8.76.61-2.36.17h-9.46l-6.24-.1-5.52-.64-5.52-.82-4.75-.83-9.37-1.61-4.95-1-14.62-2.55-18.64-3.53-.54-.11L3395.18,784l-11-1.72-28.61-5.65-39.71-7.12-37.47-7-31.37-5.78-3.11-.78-60.62-11.18-14.74-3.14-9.91-4-8.31-4.87-7.38-6.38-2.37-2.81-20.9-19.68-25.83-24.33L3082.43,673l-20-8.6L3031,651l-8.58-2.39-3.95-1.09-15.57-2.1-9.4.11-12.31.1-22.24.19-13.9-.28-56-13.24-27.65-6.35-8.37-1.44-10.83-1.23-58.82-4.71-7.88-.88-8.31-.36-8.31.89-9.5,1.89-9.8,2.46-6.36,2.56-36.09,20.84-6,2.29-6.1,1-12.39.09-86.56.66h-4.43l-32-6.74-8-1.68-.77-.16-4.73-.61-4.72.26L2510.44,647l-4.46.52h-4.47l-8.84-2.84-34.33-13.57-5.32-2.32-4.93-2.14-8.15-4.37-4.61-2.48-9.62-7.2-9.12-7.88-1.14-1-.83-.86-23.88-24.43-27.94-28.87-1-.95-2.87-2.8-1.11-1.07-11.2-11.43-8.18-8.35-11.8-16.79-7.33-10.8-12-18-5.9-6.15-10.19-7.63L2269,451.56l-26.28-16.35-49.09-31.06-8-4.89-10.94-5.21-6.64-1.62-9.94-1.6L2141,389.08l-18.35-4.44-5.18-2.55-1.25-.63-9.58-5.27L2082,361.61l-21-12.49-9.95-5.9-20.64-12.32-84.24-49.85-2.5-2.4-1.27-.84-3.7-2.43-4.28-4.65-5.47-7.05-3.59-6.54-2.07-6.85-.38-1.26-1.7-5.73-1.26-5.47-3.25-11.68-2.24-6.12-1.64-3.92-1.2-2.47-2.46-5.16-2.18-4.68-.25-.54-6.58-14.78-2.21-4.71-5.31-8.28-34.92-43.89-1.28-1.61-16-20.55-22.91-29.32-3.12-3.4L1813,75.3l-10.3-9.69-.83-.59L1785.6,53.4l-.65-.47-7.71-5.15-2.09-1.4-3.48-2.52-2.38-1.72-2-1.47-3.76-2.73-3.69-2.55M704.7-2412.22l6.72.64,3.35.33c1.13.12,2.26.31,3.38.47l7.17,1.05,5.77,1.27,5.6,1.71,4.06,1.81s8,5.48,8.11,5.49l.95.2,20.47,2.07,2.51-1.09,2.74.13,4.14.19,2.06.1,2,.14,8,.29,7,.25m-395.15-72.69c.15-.66.28-1.34.44-2l.51-1.82"/></g></g></g></svg>