<svg id="routes" xmlns="http://www.w3.org/2000/svg" xmlns:xlink="http://www.w3.org/1999/xlink" viewBox="0 0 1024 1024"><defs><style>.cls-1,.cls-3,.cls-4,.cls-5,.cls-6{fill:none;}.cls-2{clip-path:url(#clip-path);}.cls-3,.cls-6{stroke:#231815;stroke-width:8.79px;}.cls-3,.cls-4,.cls-5,.cls-6{stroke-linecap:round;stroke-miterlimit:10;}.cls-4{stroke:#ebca1b;}.cls-4,.cls-5{stroke-width:4.4px;}.cls-5{stroke:#006b4b;}.cls-6{stroke-dasharray:0 28.27;}</style><clipPath id="clip-path"><rect class="cls-1" x="-6055" y="-9212" width="11720" height="11720"/></clipPath></defs><title>3236_7150</title><g class="cls-2"><g id="日ノ丸線"><g id="江波"><path class="cls-3" d="M-342,32.54l-3.41-21.17c-.32-1.76-.51-3.54-.7-5.32L-346.74.7l-1.2-11L-348-55.51l.93-12.59,1.13-6.36,3.86-13.85,7.42-15.86,7.31-15.33,7.32-15.34,3.66-7.67.92-1.92.87-1.88,1.77-3.9c1.12-2.6,2.48-5.18,3.72-7.73l3.68-7.61c2.46-5.06,4.82-10.23,7.24-15.35s4.86-10.23,7.32-15.34l7.27-15.08,3.12-8.29c.55-1.42,1-2.85,1.64-4.26l1.68-3.91,1.4-4.92c.49-1.76,1.05-3.49,1.43-5.31l2.51-10.84c.78-3.62,1.81-7.21,2.78-10.8l2.94-10.79,11.7-43c1-3.55,1.85-7.19,2.7-10.81l2.54-10.87,1.28-5.44c.43-1.81.8-3.63,1.37-5.41l3.12-10.73,1.56-5.36.78-2.68.68-2.68,2.7-10.75,5.34-21.2,1.4-12.51.21-18.09.15-1.46c0-.41.09-.83.15-1.25l.19-1.24.19-1.1c.14-.74.22-1.45.32-2.16l.35-2.45.63-3,.89-2.46,1.12-1.93.55-.77.38-.52c.25-.32.49-.64.74-1s.47-.7.77-1.08l1.15-1.48,1.51-1.41,1.21-1.21c.81-.8,1.6-1.62,2.43-2.4l5.12-4.54,5.12-4.53,4.75-4.15,3.73-4.57,1.82-3.35.9-2.34.51-3.33.17-8.74-1-15.56-.22-4-.1-4-.19-7.73-1.3-12.84-3.2-6.7c-1.05-2-2.71-4.68-4.12-7.12s-2.92-4.91-4.37-7.49c-.7-1.3-1.48-2.59-2.12-3.89l-2.11-4.15-2.38-6-.6-5.12v-10.83l1.28-5.51,2.87-7.1,2-3.67c.6-1.15,1.26-2.19,1.89-3.29l3.82-6.5,7.77-13.21,15.16-21.5,6.83-24.35,26.27-41,8.9-9.9,8.23-9.19,8.18-9.2c2.72-3.06,5.33-6.14,8-9.21l4-4.6c1.34-1.53,2.52-3.1,3.8-4.64,2.49-3.11,5.06-6.19,7.34-9.37l3.51-4.74c1.2-1.56,2.17-3.21,3.27-4.82s2.16-3.18,3.16-4.92l2.62-4.37,1.94-4.77,1.12-4.13c.47-1.58.75-3.31,1.14-5l2.07-9.62,2.68-18.78-.07-12.45-.82-9.73-1.54-7.29-1.31-4.16L-85-869.61l-3-9-3.62-8.62-4.78-7.8-6-8.39-12.35-17.33L-121-931.52l-3.56-11.79-1.55-12.37-.43-10,.66-11.32,2.59-12.24,1.57-4.42.35-1.35.53-1.63,1.3-4,3.57-7.08,1-2a15.91,15.91,0,0,1,1.61-2.5l2-2.88,8.15-11.51,16.3-23,9.56,6.77,5.28,1.23,1.38.32,10.25,2.38,9.09,2.26,7.07,5.68,8.49,6.28,6.63,2.79,4.12,1.81,2,.89,30.44,15,17.66,8.5,2.51,1.22,15.61,8.57,16.61,8.72,10.75,5.75L83-965.1,85-964l8,4.11,11,4.73,8.92,2.45,9.31,2.2,2.94.31,12.94,1.36,28.13,1.47,11.6-.62L190-950.79l6.93-2.59,16.1-7.43,18.4-8,8.18-3.93,3.63,3.67.45.23,4,1.8,4.94,2.29.29.14,10.57,4,6.57-.42,14.24-.88,15.67-.82,11.37-.48,11.32.15,3.76,1,3.11.82,10.8,4.14,1,.6,10.4,6.33,2.1,2.09,4.6,6.91,4.1,6.16.83,1.54.67,1.42.67,1.38.71.95.79,1,.91,1.23,1.22,1,1.46,1.15.31.24.71.54,4.06,2.45,1.31.72,4.71,2.61,2.75,1.88,1.58,2.28.62,1.68.74,1.58.56,1.67.56,2.14m-2138,1162.77,3.31-.94,4.51-4.94,1.26-.8,12.86,3.15h14.55l6.08-.49,3.22-.8,8.5-3.06,13.08-6.62,11.86-6.59,13.27-13,5.27-4.16,6.4-3.57,8-1.59,7.1-.38,6.36-.6,4.47-1.42,8.32-5.31,5-4.4,3-7.5,4.15-7.25,10.56-10,2.72-2.08,3.21-1.43,11.34-3.71,13.9-2.42,3.39-1.12,2.55-1.6,1-1L-1549,159l2.4-5.3,2.24-6.11.81-1.63,3.68-11.07,2.1-4.83,2.37-3.08,2.7-2.39,5.45-3.23,7.22-2.88h2.71l3.86,2.25,5.85,5.34,4.4,4,3.68,2.71,4.31,2.43,1.6,1.12,2.08,2.08,1,2.42,2.1,8.05,1.28,6.91,1.12,4.19,1.12,1.54,2,.86h3.16l6.66-1.29,3.22-.79,6.22-1.15,7.35-1.91,10.09-4.19,13.6-7.71,16.33-8.05,17-9.64,2.73-2.43,2.56-4.82,1.44-1.6,3-1.77,5.12-2.57,3.2-1h5.91l7.85,1.29,5.75.17,7.82-1.77,9.44-.49,7.35-1.45,7.53-2.43,5.61-1.29,10.41-1h6.88l2.86,1,4.65,2.09,7.69,5.65,1.09.32,1.47.48.47-.48,1.14-.49,1.75-1.62,11.52-15.42,3.52-4,3.68-2.24,2.89-1,7.68-1.45,7.83-1.12h15.83l4.5-1,5.91-2.91,1.13-1.11,1.6-1,6.38-6.43L-1203.07,62l2.24-1.77,4.33-.95,17.77-.34,3.68-.63,2.56-.37,1.58-.45,1.31-1.26.42-2.11.37-3.6.51-2.14,1.1-2.19,3-1.72,5.6-2.08,5.92-1.29,4.49-.17,11,1.6,9.13,2.09,5.45,2.73,5,3.23,5.9,6,8.66,9.19,7.17,6.08,4.29,3.27,2.75,1.65,3.79.47h3.5l6.43-1.31,4.56-5.56,16.46-2,5.12.8,6.71,2.88,5.92,3.89,3.21,2.57,1.28.79,6.68,6.42.52.49,2.86,1.77,7.38,3.54,10.72,7.39,8.64,6.57,8.8,6.28,10.48,5.82,7.6,3.34,5.12,2.25,10.38,3.71.82.32,1.12.65,10.08,4,7.67,4,4.16,2.91,1.28,1.6,1,2.91.16,4.82-.63,4.32-1.6,6.13-1.78,3.37-3.84,4.19-5.75,4.83-2.07,2.57-.49.93-1.44,4.37-1.28,5.31-1.1,8.51.47.8,1.6,4.68,7.52,13.35,6.88,10.76,3,.66,5.61.62h5.59l6.25.18,4.65.34,10.72.28,6.57.49,3.68.51,6.38,2.23,4.32,2.08.49,1.95.31,6.59-.47,10.16V252l.31,6.28-.31,4.79-2.72,7.56-4,8.85-1.44,4.65v3.08l.79,1.78.49.31,1.28.8,2.56-.49.79-.31,9.78-4.83,8.15-3.22,5.29-1.29,5.75-1,10.72.17.95-.34,6.06-3.68,1.28-.48,2.14-.29,4.06.74,7.31,4.11,4.12-.2,7.17-2.8,3.68-1,4.82.34,3.68,3.05,10.72,14.64,2.55,4.48,1.94,6.14.79,4.82v7.54l-1.77,9L-778,333v13.15l1.72,23.23,1,2.8,6.12,7.93,1.21,1.77,1.89-1.23,6.47.09,3.22-.8,7.54-4.34,6.53-5.3,7.84-7.57,16.35-16.41,8.8-7.87,7-6.14,8.49-5.37,8.46-4.39,5.18-1.71,7-2.06,8.68-2.8,12.69-2.12,1.24-.2,1.17-.5,1.27-.62,1-1,1-1.67.5-1.59,2.9-8.43,2.08-2.79,2.13-1.14,2.27-1.42,6.82-2.13,2.87-.92,1.54-.5,3.84-1.14,2-.59,2.28-.68,8.68-2.67,5.25-1.6,3.26-1,4.55-1.41,10.34-3.68,7.48-4,1.15-.62,7.18-5.17,1.08-.88,9.46-7.82.89-.73,7.36-6.48,6.47-7.06,6.62-9.71,7.65-16.92.63-2.13,1.31-3.31,2.47-5.45,3.57-7.66,4.2-7.87,1.52-2.8,5-7.42,4.51-6.73,3.85-6.1,2.8-3.66,3.23-4.86,4.16-6.8,3.16-7.41,4.56-15.14,3.88-11.78,2.54-5.13,2.05-3.28,2.46-2.87,4.47-3.85,9.41-6.3,15.47-9.17,9.36-5.09,2.24-1.29.66-.27L-426.1,80l9.87-4.12,2.79-1.18,2.69-1.15,7.8-3.34,4.15-1.43,2.56-1.31,13.69-6.16,4.14-1.38,2.66-.79,2.2-.66,6.41-2.6,3.4-1.62,3.41-2.43,2.47-1.76,1.17-.84,2.68-3.16,10.16-8.14.49-.39L-341.5,36m-.55-3.43.55,3.43"/><path class="cls-4" d="M-342,32.54l-3.41-21.17c-.32-1.76-.51-3.54-.7-5.32L-346.74.7l-1.2-11L-348-55.51l.93-12.59,1.13-6.36,3.86-13.85,7.42-15.86,7.31-15.33,7.32-15.34,3.66-7.67.92-1.92.87-1.88,1.77-3.9c1.12-2.6,2.48-5.18,3.72-7.73l3.68-7.61c2.46-5.06,4.82-10.23,7.24-15.35s4.86-10.23,7.32-15.34l7.27-15.08,3.12-8.29c.55-1.42,1-2.85,1.64-4.26l1.68-3.91,1.4-4.92c.49-1.76,1.05-3.49,1.43-5.31l2.51-10.84c.78-3.62,1.81-7.21,2.78-10.8l2.94-10.79,11.7-43c1-3.55,1.85-7.19,2.7-10.81l2.54-10.87,1.28-5.44c.43-1.81.8-3.63,1.37-5.41l3.12-10.73,1.56-5.36.78-2.68.68-2.68,2.7-10.75,5.34-21.2,1.4-12.51.21-18.09.15-1.46c0-.41.09-.83.15-1.25l.19-1.24.19-1.1c.14-.74.22-1.45.32-2.16l.35-2.45.63-3,.89-2.46,1.12-1.93.55-.77.38-.52c.25-.32.49-.64.74-1s.47-.7.77-1.08l1.15-1.48,1.51-1.41,1.21-1.21c.81-.8,1.6-1.62,2.43-2.4l5.12-4.54,5.12-4.53,4.75-4.15,3.73-4.57,1.82-3.35.9-2.34.51-3.33.17-8.74-1-15.56-.22-4-.1-4-.19-7.73-1.3-12.84-3.2-6.7c-1.05-2-2.71-4.68-4.12-7.12s-2.92-4.91-4.37-7.49c-.7-1.3-1.48-2.59-2.12-3.89l-2.11-4.15-2.38-6-.6-5.12v-10.83l1.28-5.51,2.87-7.1,2-3.67c.6-1.15,1.26-2.19,1.89-3.29l3.82-6.5,7.77-13.21,15.16-21.5,6.83-24.35,26.27-41,8.9-9.9,8.23-9.19,8.18-9.2c2.72-3.06,5.33-6.14,8-9.21l4-4.6c1.34-1.53,2.52-3.1,3.8-4.64,2.49-3.11,5.06-6.19,7.34-9.37l3.51-4.74c1.2-1.56,2.17-3.21,3.27-4.82s2.16-3.18,3.16-4.92l2.62-4.37,1.94-4.77,1.12-4.13c.47-1.58.75-3.31,1.14-5l2.07-9.62,2.68-18.78-.07-12.45-.82-9.73-1.54-7.29-1.31-4.16L-85-869.61l-3-9-3.62-8.62-4.78-7.8-6-8.39-12.35-17.33L-121-931.52l-3.56-11.79-1.55-12.37-.43-10,.66-11.32,2.59-12.24,1.57-4.42.35-1.35.53-1.63,1.3-4,3.57-7.08,1-2a15.91,15.91,0,0,1,1.61-2.5l2-2.88,8.15-11.51,16.3-23,9.56,6.77,5.28,1.23,1.38.32,10.25,2.38,9.09,2.26,7.07,5.68,8.49,6.28,6.63,2.79,4.12,1.81,2,.89,30.44,15,17.66,8.5,2.51,1.22,15.61,8.57,16.61,8.72,10.75,5.75L83-965.1,85-964l8,4.11,11,4.73,8.92,2.45,9.31,2.2,2.94.31,12.94,1.36,28.13,1.47,11.6-.62L190-950.79l6.93-2.59,16.1-7.43,18.4-8,8.18-3.93,3.63,3.67.45.23,4,1.8,4.94,2.29.29.14,10.57,4,6.57-.42,14.24-.88,15.67-.82,11.37-.48,11.32.15,3.76,1,3.11.82,10.8,4.14,1,.6,10.4,6.33,2.1,2.09,4.6,6.91,4.1,6.16.83,1.54.67,1.42.67,1.38.71.95.79,1,.91,1.23,1.22,1,1.46,1.15.31.24.71.54,4.06,2.45,1.31.72,4.71,2.61,2.75,1.88,1.58,2.28.62,1.68.74,1.58.56,1.67.56,2.14m-2138,1162.77,3.31-.94,4.51-4.94,1.26-.8,12.86,3.15h14.55l6.08-.49,3.22-.8,8.5-3.06,13.08-6.62,11.86-6.59,13.27-13,5.27-4.16,6.4-3.57,8-1.59,7.1-.38,6.36-.6,4.47-1.42,8.32-5.31,5-4.4,3-7.5,4.15-7.25,10.56-10,2.72-2.08,3.21-1.43,11.34-3.71,13.9-2.42,3.39-1.12,2.55-1.6,1-1L-1549,159l2.4-5.3,2.24-6.11.81-1.63,3.68-11.07,2.1-4.83,2.37-3.08,2.7-2.39,5.45-3.23,7.22-2.88h2.71l3.86,2.25,5.85,5.34,4.4,4,3.68,2.71,4.31,2.43,1.6,1.12,2.08,2.08,1,2.42,2.1,8.05,1.28,6.91,1.12,4.19,1.12,1.54,2,.86h3.16l6.66-1.29,3.22-.79,6.22-1.15,7.35-1.91,10.09-4.19,13.6-7.71,16.33-8.05,17-9.64,2.73-2.43,2.56-4.82,1.44-1.6,3-1.77,5.12-2.57,3.2-1h5.91l7.85,1.29,5.75.17,7.82-1.77,9.44-.49,7.35-1.45,7.53-2.43,5.61-1.29,10.41-1h6.88l2.86,1,4.65,2.09,7.69,5.65,1.09.32,1.47.48.47-.48,1.14-.49,1.75-1.62,11.52-15.42,3.52-4,3.68-2.24,2.89-1,7.68-1.45,7.83-1.12h15.83l4.5-1,5.91-2.91,1.13-1.11,1.6-1,6.38-6.43L-1203.07,62l2.24-1.77,4.33-.95,17.77-.34,3.68-.63,2.56-.37,1.58-.45,1.31-1.26.42-2.11.37-3.6.51-2.14,1.1-2.19,3-1.72,5.6-2.08,5.92-1.29,4.49-.17,11,1.6,9.13,2.09,5.45,2.73,5,3.23,5.9,6,8.66,9.19,7.17,6.08,4.29,3.27,2.75,1.65,3.79.47h3.5l6.43-1.31,4.56-5.56,16.46-2,5.12.8,6.71,2.88,5.92,3.89,3.21,2.57,1.28.79,6.68,6.42.52.49,2.86,1.77,7.38,3.54,10.72,7.39,8.64,6.57,8.8,6.28,10.48,5.82,7.6,3.34,5.12,2.25,10.38,3.71.82.32,1.12.65,10.08,4,7.67,4,4.16,2.91,1.28,1.6,1,2.91.16,4.82-.63,4.32-1.6,6.13-1.78,3.37-3.84,4.19-5.75,4.83-2.07,2.57-.49.93-1.44,4.37-1.28,5.31-1.1,8.51.47.8,1.6,4.68,7.52,13.35,6.88,10.76,3,.66,5.61.62h5.59l6.25.18,4.65.34,10.72.28,6.57.49,3.68.51,6.38,2.23,4.32,2.08.49,1.95.31,6.59-.47,10.16V252l.31,6.28-.31,4.79-2.72,7.56-4,8.85-1.44,4.65v3.08l.79,1.78.49.31,1.28.8,2.56-.49.79-.31,9.78-4.83,8.15-3.22,5.29-1.29,5.75-1,10.72.17.95-.34,6.06-3.68,1.28-.48,2.14-.29,4.06.74,7.31,4.11,4.12-.2,7.17-2.8,3.68-1,4.82.34,3.68,3.05,10.72,14.64,2.55,4.48,1.94,6.14.79,4.82v7.54l-1.77,9L-778,333v13.15l1.72,23.23,1,2.8,6.12,7.93,1.21,1.77,1.89-1.23,6.47.09,3.22-.8,7.54-4.34,6.53-5.3,7.84-7.57,16.35-16.41,8.8-7.87,7-6.14,8.49-5.37,8.46-4.39,5.18-1.71,7-2.06,8.68-2.8,12.69-2.12,1.24-.2,1.17-.5,1.27-.62,1-1,1-1.67.5-1.59,2.9-8.43,2.08-2.79,2.13-1.14,2.27-1.42,6.82-2.13,2.87-.92,1.54-.5,3.84-1.14,2-.59,2.28-.68,8.68-2.67,5.25-1.6,3.26-1,4.55-1.41,10.34-3.68,7.48-4,1.15-.62,7.18-5.17,1.08-.88,9.46-7.82.89-.73,7.36-6.48,6.47-7.06,6.62-9.71,7.65-16.92.63-2.13,1.31-3.31,2.47-5.45,3.57-7.66,4.2-7.87,1.52-2.8,5-7.42,4.51-6.73,3.85-6.1,2.8-3.66,3.23-4.86,4.16-6.8,3.16-7.41,4.56-15.14,3.88-11.78,2.54-5.13,2.05-3.28,2.46-2.87,4.47-3.85,9.41-6.3,15.47-9.17,9.36-5.09,2.24-1.29.66-.27L-426.1,80l9.87-4.12,2.79-1.18,2.69-1.15,7.8-3.34,4.15-1.43,2.56-1.31,13.69-6.16,4.14-1.38,2.66-.79,2.2-.66,6.41-2.6,3.4-1.62,3.41-2.43,2.47-1.76,1.17-.84,2.68-3.16,10.16-8.14.49-.39L-341.5,36m-.55-3.43.55,3.43"/></g><g id="普通幹"><path class="cls-3" d="M-101.53-2904.68l-1.4-4.93-.1-12.68.31-7.3.61-6.86.91-6.47,1.24-7.79,1.88-8.61,2.22-6.71,2.17-5.81,2.41-5.62,15.17-30.76,8.43-17.67,5-12.47,1.79-8.9,2.16-15.58.93-11.51,1-10.82-1.27-4.12.43-9.87L-59.66-3111l-13.73-54.81-14-57.57,36.34-8.94,14.68,57.48,7,30.33,6.29,26.34.36,6.17-2.29,17-1,8.3-1.58,3.67-1,11.21-1,12.67-2.44,17.32-2.4,11.93L-41-3013.7l-8.77,18.36-15,30.46-1.78,4.18-1.7,4.6-1.49,4.5-1.45,6.69-1,6.4L-73-2933M193.85-4473.6l10.46,2.9,8.35,2.31,6.41,1.71,3.58,1,2.32.75,5.26,2,6.3,2.66,8.91,3.77,3.66,1.46,10.11,3.8,7.58,2.27,6.59,2,7.79,2,6.52,1.43,4.49.66,3.85,0h6.77l16.49-.11h17.92l10.7-.12,9.93-.06.16-1.71,2.87-31.19.36-3.9c.12-1.31.2-2.54.45-4.06l3.52-13.34-18.46-12.48L327-4523.06l-2.65-3-3.11-2.17-4-2.7-8.75-5.76-4.2-2.76L300-4542.1l-8.32-5.07-7.78-3.6-8.65-3.43-8.54-3.15-8.51-3L244.4-4564l-3.2-.81-3.6-.76-7.28-1.54-14.55-3.09-7.31-1.55-3.17-.6-2.82-.5m0,0,.68,17.57-1.92,6.72c-.73,2.64-1.56,5.27-2.2,7.91l-1.92,7.92-1.91,7.91c-.34,1.32-.58,2.65-.87,4l-.78,3.71-1,8.93-.65,15.85.29,5c.05,1.76.38,3.5.56,5.26.37,2.83.66,5.64,1.09,8.49M308-4932.46l-10.61,12.83-6.53,9.6-2.24,6.85-1.95,8.12c-.71,2.62-1.08,5.28-1.55,7.92s-.88,5.32-1.4,7.91l-1.57,7.81-1.55,7.81-1.45,7.89c-1,5.28-1.85,10.44-2.78,15.66-.47,2.6-.87,5.21-1.48,7.8s-1,5.25-1.45,7.87c-.92,5.27-2.07,10.42-3.1,15.63-.53,2.58-1.05,5.21-1.55,7.84l-1.51,7.82-1.52,7.79-1.55,7.36-4,11.25c-1.41,3.87-2.74,7.76-4.08,11.65-2.68,7.81-5.34,15.49-8.15,23.21l-16.77,46.38c-1.39,3.88-2.87,7.75-4.08,11.66l-1.9,5.85-2.1,5.76-8.48,23.09-2.12,5.82-2,5.85-4,11.72-2,5.86-1,2.93-1,3.05-1,3.06-.13.52,1.06,27.45M-73-2933l21.16-17.37,50.47-68.21,7.94-9.86,21.57-32.81,6.4-9.66L41.08-3082l3.84-7.27,6.1-12.88,5.61-14.67L60-3128.4l1.82-8.67,1.62-8.66,1.06-9.3.32-7.85.08-7.66-.74-10.25-1-9.84-3-14-1.91-6.68-3.61-10.29-5.14-12.58-8.24-15.54-3.92-9.3,3.55-1.91,50.37-24.19,3.66-1.79-3.42-7.16-4.57-8.27-9.6-20L53-3368.69,32.2-3408.5l-6.75-14.7-1.93-5.58-5.43-16.52-3.93-12.65-3.52-13.39-.78-5.55-.06-2.83.52-6.54,1.07-7.33,1-4,1.86-5.14,3.38-7.73,2.72-5.5,1-2.06,2.78-4.77,4-6.93,2.14-1.29,1-1.66,6.62-11.3,7.74-13.21,1.29-2.22,9.66-16.34,50.93-83.67,27.24-45.74,2.73-4.48,3.82-7.39.81-2.57.21-1,.78-6.36,1.06-9.5.1-6.47L142.85-3756l-2.52-12.11-1.22-8.22-1.4-12.33,0-7.06.6-11.86-4.88-.82.39-1.32,3-14.57,2.88-14.39,1.39-7.27,1.18-7.24,2.41-14.85.19-5.49c0-1.72.25-3.37.37-5.06s.24-3.35.46-5.06l.7-5.17,2.81-20.88.3-4.82.33-4.65c.22-3.1.48-6.19.61-9.3l.94-18.64.41-9.46c.11-1.59,0-3.13,0-4.68s-.08-3.1-.07-4.64l.4-9.18c.14-3,.18-6.22.27-9.32.19-6.24.23-12.47.32-18.7l.11-9.35.06-4.68c0-1.55-.07-3.11-.1-4.66l-.13-4.67v-13.92l-.38-18.69-.21-9.36-.1-4.68-.06-2.33-.17-2.35-1.4-18.78-4.21-36.87c-.11-3.08-.52-6.18-.86-9.28l-1-9.28-2.06-18.56-1-9.18-.52-4.56c-.17-1.52-.22-3.07-.33-4.6l-1.1-17.66,1.07-5.26.14-6c0-1.84.07-3.68.18-5.53l.28-5.56c0-.92.09-1.85.11-2.79l.09-2.57.25-2.14.25-2.34c.15-1.58.37-3,.55-4.54l.3-2.26.43-2.27.8-4.32,1.07-4,.57-2.1.5-2a39.55,39.55,0,0,1,1.16-4l1.19-3.78,3.81-9.14c.64-1.57,1.45-3.05,2.17-4.58l2.08-4.3,7.83-12.71,2-3.24,2.11-3.13c1.4-2.08,2.81-4.3,4.21-6.44l8.43-12.95c1.39-2.17,2.86-4.26,4.11-6.6l4-7,1.91-4.17c.6-1.32,1.23-2.63,1.76-4l3.41-8.28,3.82-12.87,1.63-9.59.39-2.31c.07-.42.17-.93.22-1.33l.13-1.2.55-4.82.53-4.81c.07-1.67.23-3.49.2-5.06l-.09-9.84-1.28-11.21c-.52-3.58-1.09-7.15-1.42-10.77s-.71-7.19-1.24-10.84-1-7.35-1.67-10.91l-3.56-21.41c-.13-.69-.23-1.38-.34-2.06M495.1,1418.84l-2.86,2.61-7.48,7.14-.42.39-12.14,11.4-.37.34-8.33,10.52-2,2.83-1.19,1.61-1.5,2.23-4.14,6.15-7.19,10.51-.34.42-1.61,1.36-1.13,1-1.6,1.14-2,1.08-2.13,1-1.61.59-2.65.59-1.05.21-2.17.43-2.73.3-4.65.51-6.47.73-.93.21-21.68,2.38.49,3.35,4.78,32.72M146.2-1483.29l.43,13-.25,5.9c-.06,1-.06,2.06-.17,3l-.22,2.61-.92,4.13-.5,2.25-.62,2.26-2.52,9.05L136.38-1423l-2.51,9c-.43,1.48-.78,3-1.28,4.45l-1.48,4.44-5.81,17.44-3.84,8-7.58,11.87-3.66,7.84-1.75,6.91-1.47,6.37-3,13-1,6.61c-.33,2.13-.57,4.28-1,6.37-.88,4.19-1.67,8.43-2.63,12.59-.48,2.09-.87,4.17-1.44,6.27l-1.68,6.28-3.45,12.83-3.51,20.11L87-1253.84l-2.17,5.33-2,3-2.47,3.5-4.68,6.63-6.16,6.4-6.39,4.52c-1.14.79-2.35,1.47-3.52,2.22l-3.19,2-3.57,1.51-4.05,1.66c-2.7,1.11-5.42,2.33-8.09,3.48l-8.05,3.55-8.23,3.84-4.56,2.71-3.64,2.91-7.56,9-5.62,9.67-5.41,9.12c-3.47,6.13-7.61,12-11.51,18-2,2.93-3.8,6.06-5.65,9.15l-5.5,9.27-5.45,9.2-5.6,9.12c-7.22,12.33-15,24-22.78,36.26l-5.41,9.29c-1.87,2.92-3.49,5.9-5.65,8.74-4.14,5.66-7.33,20.9-7.33,20.9l-16.29,23c-5.29,7.75-11.41,15-15.11,23.73l-1,2.92-.48,1.46-.38,1.49-1.49,4.19-2.25,10.62-.57,9.84.39,9,1.36,10.91,2.88,9.52,5.33,9.12L-92.65-910l6.07,8.53,5.48,8.94,4.14,9.85c2.08,6.32,4.2,12.63,6.17,19l1.8,8.57.91,10.9.09,13.78-2.86,20.05c-1.54,6.81-2.77,13.69-4.75,20.39l-2.55,6.28c-8.23,14.32-18.51,27.34-29.29,39.81-5.37,6.27-10.85,12.43-16.35,18.59s-11,12.28-16.53,18.42l-25.75,40.25-6.76,24.26-15.24,21.63-7.45,12.67-3.79,6.44c-.61,1.07-1.3,2.15-1.85,3.22l-1.58,3-2.29,5.67-.77,3.31v8.81l.34,2.93,1.62,4.09,1.77,3.5c.63,1.26,1.33,2.41,2,3.63,1.35,2.41,2.86,4.88,4.28,7.32s2.87,4.7,4.45,7.74l4.2,8.77,1.54,15.32.21,8,.09,3.91.21,3.86,1,15.93-.2,10-.82,5.36-1.63,4.23-2.7,5-5.08,6.21-5.41,4.72-5,4.42-5,4.42c-.81.76-1.58,1.56-2.37,2.34l-1.17,1.17-1,.9c-.24.24-1.91,2.66-2.42,3.3l-.31.54-.24.68-.4,1.87-.29,2c-.11.77-.2,1.56-.34,2.3l-.2,1.13-.14,1a7.88,7.88,0,0,0-.12,1l-.08.79-.22,18.18-1.55,13.86-5.55,22L-229-364.37l-.69,2.72-.77,2.67-1.56,5.34L-235.15-343c-.56,1.77-.93,3.59-1.36,5.39l-1.27,5.42-2.54,10.83c-.84,3.61-1.66,7.22-2.69,10.82l-11.72,43-2.92,10.72c-1,3.58-2,7.13-2.78,10.78l-2.52,10.88c-.38,1.81-1,3.63-1.46,5.45l-1.66,5.8-1.88,4.38c-.58,1.34-1.06,2.77-1.6,4.15l-3.23,8.6-7.49,15.53c-2.45,5.09-4.93,10.18-7.31,15.32s-4.77,10.26-7.25,15.38l-3.73,7.69c-1.23,2.55-2.51,5-3.64,7.57l-1.74,3.84-.91,2-.92,1.92-3.66,7.67-7.31,15.33-7.32,15.33-7,14.92-3.45,12.39-.92,5.22-.86,11.55,0,44.17,1.11,10.2.57,5.25c.18,1.75.38,3.49.69,5.23l3.36,20.88,1.87,18.17,2.26,5.34,2.1,4.14,11.13,17.55,4.66,7L-293.63,105l9.6,14.36,2,3,5,7.62,2.33,3.54,7.13,11,9.62,14.72,8,12.15.47.72.57.88,3.46,5.38.68,1.05L-232.48,199l11.84,19.53,4,6.05,3.72,4.79L-191.13,247l2.51,2.11,1,.83,2.93,4.65,2.16,3.72,1.75,4.15,1.31,4L-179,284l.13,4.95.18,6.86.36,8.42.14,3.19.41,3.84,1.4,6.31,6.59,16.8,4.73,8.19,3.68,5.65,8,8.61,1.5,1.49,1.5,1.48,8.8,7.93,9.71,7.3,1.41,1.79,15.34,11.65,6.3,4.19,12.61,8.58,7.63,4.92,5.71,3.22,6.41,3.89,8.16,3.34,10.57,3.16,4.91,1.77,11.28,6.17L-27.24,437l2.7,1.85,1.41,1.25,1.77,1.61,2.53,2.69,1.15,1.45,1.38,1.92,1.91,2.38,2,3.07,1.77,2.84.43.78,1.64,3.05,1.84,3.68,1.08,2.46,1.76,3.52,1.38,3.22L-1,476.11,3,484.16l2.48,4.74,4.43,8.47,5.83,15.35L18,517.38l3.72,8.38,2.74,6.15,7.82,15.29,4.85,6.13,7,7.13,2.53,2.29L48,564l3.85,2.54,2.9,1.64,2.07,1.17,6.72,3.8L68.4,576l28.69,16.57,8.69,4.31,4.53,2.16,3.47,1.44L118,602.1l7.9,2.61,4.89,1.21,14.95,3.19,3.88.69,14.76,3,5.94,1.29,4.47,1.76,5.62,3.37,2.07,1.46,7.66,7,6.9,9.09,2.86,3.71,1.73,2.68.95,1.46,16.74,18.66,14.32,8.85,148,71.51,8.09,4.6,18.85,10.29,7.55,3.89,7.31,5.83,6.35,6.8,18.77,46.42,9.14,21.75,14.87,33.47L485,904.14l5.29,12.43,1.92,4.58.72,2,.27.89,2.67,7.65.5,5.57.77,14.42.18,3.37.47,5.11,1.75,10.18L503,986l2.18,6.16.77,6.42.07,8.13-2,11.66-2.69,12.47-2.66,10.32-1.18,4.3-1.13,3.08-.11.32-.26.7-2.23,4.87-1.9,2.67-3.73,5.34-3.91,3.56-3.52,2.74-.5.43-3.78,3.15-12.12,10.09L444,1099.31l-13.54,11.84-16.28,13.24-3.51,2.07-11.22,9.86-12.95,12.78-10.86,14-16.29,22.92-.55,1.09-5.23,10.38-1.57,6-1.51,27.83.2,3.45.51,8.73,1.26,22.47.26,2.39,1.39,7.36,4.62,8.28,19.59,18,16.2,14.78,20.18,18.69,9.51,9.28,23.42,21.83,8,7.46,1.59,2,20.09,22.75,1.85,2.2,9.49,11.22,4,4.21,2.51,2.44M-73-2933l-1.17,1-12,12.85-3,2.54c-1.1.94-2.25,1.84-3.32,2.81l-7,6.72-1.18,1.12c-.38.38-.89.69-.84,1.3l-.5,3.2-.75,4.86-1.24,8.17-.67,3-1.38,2c-.66,1-1.33,2-2,3l-3.78,6-26.55,41.4-1.12,3c-.37,1-.81,1.86-1.21,2.79s-.88,1.8-1.32,2.7-1.06,1.9-1.58,2.85l-6.5,11.49-6.49,11.48-3.26,5.81-1.65,3-1.48,3c-3.84,8-8.13,15.75-12.22,23.61l-5.71,12.18c-1,2-1.86,4.12-2.75,6.24-.43,1.06-.92,2.09-1.31,3.19l-1.07,3-2.41,5.09c-1.88,5.72-3.12,9.62-5.15,15.23l-1.56,6.88-.46,4.61c-.07,1.4-.09,2.78-.14,4.17l-.24,7.67-1.72,7-.66,11.75-.42,11.2,10.86,22.75-.11,11.13-.05,5.58-.19,5.63-.41,11.27c-.17,3.75-.48,7.48-.72,11.22-1,15-2.27,29.68-2.45,44.32l0,5.56-.11,5.61-.25,11.23-.28,11.09c0,1.8,0,3.59,0,5.39l0,2.69c0,.91.11,1.54.14,2.23l1.53,7.52,1,3.32,1.08,3.61,2.32,7.79.7,8.59,0,.62,0,7.31-1.54,12.8.78,9.49.95,9.8.71,3.73c.25,1.34.52,2.67.82,4l1.72,7.93c.53,2.68,1.26,5.18,1.93,7.76l2.17,7.48,4.45,10.29,25.51,43.47c2.87.73,5.74,1.44,8.63,2.1l19.42,4.46,9.85,2.24-3.21,14.13-1.84,9.91-.46,2.47-.61,2.44-1.21,4.87c-3.31,13-6.24,26-10.17,39l-11.15,38.88-5.39,19.44c-.84,3.26-1.91,6.44-2.93,9.63l-3.07,9.58-6.14,19.15-3.48,9.39c-1.17,3.13-2.29,6.24-3.57,9.4l-7.45,18.86-1.86,4.71c-.61,1.58-1.15,3.19-1.73,4.79l-3.43,9.59c-2.27,6.39-4.61,12.78-6.7,19.16l-3.23,9.57c-.54,1.59-1.05,3.2-1.63,4.78l-1.79,4.74-3.59,9.46c-1.14,3.27-2.29,6.57-3.26,10l-5.12,20-1.75,9.69-.87,9-1.36,3.44-7.72,18-2.17,5.21-1.24,3-6.16,14.79-.17.4-5.25,13.82-.34.9-3.35,9.27-.91,2.86-2.1,6.88-1.16,6.12-.7,4.46-.21,1.75-.09.77.18,3.76.48,4.23.87,5.08,1.15,4.41,1.07,3,3.48,7.21.33.7,3.3,5.82,5.6,8.53,4.14,5.08,4.63,3.9,8.61,7.23,5,3.66,5.87,4.64,9.21,3.29,2.65,1,11.36,3.51,23.23,6.64.14.09,4,6.06,15.76,12.09,9.83,6.18,8.18,6.74L-99.45-1808l2.61,2.58,1.3,1.29,1.17,1.28c.78.83,1.58,1.75,2.38,2.67l2.92,3.33,6.46,4.37c1.93,1.32,3.92,2.62,5.94,3.91s4,2.64,6,3.86l6.3,3.52c4.2,2.3,8.35,4.32,12.52,6.5l12.73,6.52,17.71,7.32,8,2.16c1.28.33,2.54.7,3.79,1.08l3,.91,9.85,6.16,33.8,26.77,17.11,13.28,4.12,3.36,4.11,3.48,8,6.74,6.62,7.42,6.77,7.9c4.68,5.21,9.23,10.44,14,15.63,2.43,2.64,4.79,5,7.19,7.52s4.55,5,6.79,7.5l12.49,15.7,1.83,3.61c.69,1.39,1.42,2.75,2.07,4.16l3.91,8.23,3.58,9.14,1.28,6.58c.52,2.36.79,4.76,1.14,7.16l2,14.36.51,3.59a35.93,35.93,0,0,1,.43,3.61l.53,7.33.54,7.33c.13,2.43.69,4.88.86,7.26l.5,7.13.44,7.25.11,1.82.05,1.74.1,3.67.21,7.35.41,14.69.24,7.27v7.55l1.12,11.12"/><path class="cls-5" d="M-101.53-2904.68l-1.4-4.93-.1-12.68.31-7.3.61-6.86.91-6.47,1.24-7.79,1.88-8.61,2.22-6.71,2.17-5.81,2.41-5.62,15.17-30.76,8.43-17.67,5-12.47,1.79-8.9,2.16-15.58.93-11.51,1-10.82-1.27-4.12.43-9.87L-59.66-3111l-13.73-54.81-14-57.57,36.34-8.94,14.68,57.48,7,30.33,6.29,26.34.36,6.17-2.29,17-1,8.3-1.58,3.67-1,11.21-1,12.67-2.44,17.32-2.4,11.93L-41-3013.7l-8.77,18.36-15,30.46-1.78,4.18-1.7,4.6-1.49,4.5-1.45,6.69-1,6.4L-73-2933M193.85-4473.6l10.46,2.9,8.35,2.31,6.41,1.71,3.58,1,2.32.75,5.26,2,6.3,2.66,8.91,3.77,3.66,1.46,10.11,3.8,7.58,2.27,6.59,2,7.79,2,6.52,1.43,4.49.66,3.85,0h6.77l16.49-.11h17.92l10.7-.12,9.93-.06.16-1.71,2.87-31.19.36-3.9c.12-1.31.2-2.54.45-4.06l3.52-13.34-18.46-12.48L327-4523.06l-2.65-3-3.11-2.17-4-2.7-8.75-5.76-4.2-2.76L300-4542.1l-8.32-5.07-7.78-3.6-8.65-3.43-8.54-3.15-8.51-3L244.4-4564l-3.2-.81-3.6-.76-7.28-1.54-14.55-3.09-7.31-1.55-3.17-.6-2.82-.5m0,0,.68,17.57-1.92,6.72c-.73,2.64-1.56,5.27-2.2,7.91l-1.92,7.92-1.91,7.91c-.34,1.32-.58,2.65-.87,4l-.78,3.71-1,8.93-.65,15.85.29,5c.05,1.76.38,3.5.56,5.26.37,2.83.66,5.64,1.09,8.49M308-4932.46l-10.61,12.83-6.53,9.6-2.24,6.85-1.95,8.12c-.71,2.62-1.08,5.28-1.55,7.92s-.88,5.32-1.4,7.91l-1.57,7.81-1.55,7.81-1.45,7.89c-1,5.28-1.85,10.44-2.78,15.66-.47,2.6-.87,5.21-1.48,7.8s-1,5.25-1.45,7.87c-.92,5.27-2.07,10.42-3.1,15.63-.53,2.58-1.05,5.21-1.55,7.84l-1.51,7.82-1.52,7.79-1.55,7.36-4,11.25c-1.41,3.87-2.74,7.76-4.08,11.65-2.68,7.81-5.34,15.49-8.15,23.21l-16.77,46.38c-1.39,3.88-2.87,7.75-4.08,11.66l-1.9,5.85-2.1,5.76-8.48,23.09-2.12,5.82-2,5.85-4,11.72-2,5.86-1,2.93-1,3.05-1,3.06-.13.52,1.06,27.45M-73-2933l21.16-17.37,50.47-68.21,7.94-9.86,21.57-32.81,6.4-9.66L41.08-3082l3.84-7.27,6.1-12.88,5.61-14.67L60-3128.4l1.82-8.67,1.62-8.66,1.06-9.3.32-7.85.08-7.66-.74-10.25-1-9.84-3-14-1.91-6.68-3.61-10.29-5.14-12.58-8.24-15.54-3.92-9.3,3.55-1.91,50.37-24.19,3.66-1.79-3.42-7.16-4.57-8.27-9.6-20L53-3368.69,32.2-3408.5l-6.75-14.7-1.93-5.58-5.43-16.52-3.93-12.65-3.52-13.39-.78-5.55-.06-2.83.52-6.54,1.07-7.33,1-4,1.86-5.14,3.38-7.73,2.72-5.5,1-2.06,2.78-4.77,4-6.93,2.14-1.29,1-1.66,6.62-11.3,7.74-13.21,1.29-2.22,9.66-16.34,50.93-83.67,27.24-45.74,2.73-4.48,3.82-7.39.81-2.57.21-1,.78-6.36,1.06-9.5.1-6.47L142.85-3756l-2.52-12.11-1.22-8.22-1.4-12.33,0-7.06.6-11.86-4.88-.82.39-1.32,3-14.57,2.88-14.39,1.39-7.27,1.18-7.24,2.41-14.85.19-5.49c0-1.72.25-3.37.37-5.06s.24-3.35.46-5.06l.7-5.17,2.81-20.88.3-4.82.33-4.65c.22-3.1.48-6.19.61-9.3l.94-18.64.41-9.46c.11-1.59,0-3.13,0-4.68s-.08-3.1-.07-4.64l.4-9.18c.14-3,.18-6.22.27-9.32.19-6.24.23-12.47.32-18.7l.11-9.35.06-4.68c0-1.55-.07-3.11-.1-4.66l-.13-4.67v-13.92l-.38-18.69-.21-9.36-.1-4.68-.06-2.33-.17-2.35-1.4-18.78-4.21-36.87c-.11-3.08-.52-6.18-.86-9.28l-1-9.28-2.06-18.56-1-9.18-.52-4.56c-.17-1.52-.22-3.07-.33-4.6l-1.1-17.66,1.07-5.26.14-6c0-1.84.07-3.68.18-5.53l.28-5.56c0-.92.09-1.85.11-2.79l.09-2.57.25-2.14.25-2.34c.15-1.58.37-3,.55-4.54l.3-2.26.43-2.27.8-4.32,1.07-4,.57-2.1.5-2a39.55,39.55,0,0,1,1.16-4l1.19-3.78,3.81-9.14c.64-1.57,1.45-3.05,2.17-4.58l2.08-4.3,7.83-12.71,2-3.24,2.11-3.13c1.4-2.08,2.81-4.3,4.21-6.44l8.43-12.95c1.39-2.17,2.86-4.26,4.11-6.6l4-7,1.91-4.17c.6-1.32,1.23-2.63,1.76-4l3.41-8.28,3.82-12.87,1.63-9.59.39-2.31c.07-.42.17-.93.22-1.33l.13-1.2.55-4.82.53-4.81c.07-1.67.23-3.49.2-5.06l-.09-9.84-1.28-11.21c-.52-3.58-1.09-7.15-1.42-10.77s-.71-7.19-1.24-10.84-1-7.35-1.67-10.91l-3.56-21.41c-.13-.69-.23-1.38-.34-2.06M495.1,1418.84l-2.86,2.61-7.48,7.14-.42.39-12.14,11.4-.37.34-8.33,10.52-2,2.83-1.19,1.61-1.5,2.23-4.14,6.15-7.19,10.51-.34.42-1.61,1.36-1.13,1-1.6,1.14-2,1.08-2.13,1-1.61.59-2.65.59-1.05.21-2.17.43-2.73.3-4.65.51-6.47.73-.93.21-21.68,2.38.49,3.35,4.78,32.72M146.2-1483.29l.43,13-.25,5.9c-.06,1-.06,2.06-.17,3l-.22,2.61-.92,4.13-.5,2.25-.62,2.26-2.52,9.05L136.38-1423l-2.51,9c-.43,1.48-.78,3-1.28,4.45l-1.48,4.44-5.81,17.44-3.84,8-7.58,11.87-3.66,7.84-1.75,6.91-1.47,6.37-3,13-1,6.61c-.33,2.13-.57,4.28-1,6.37-.88,4.19-1.67,8.43-2.63,12.59-.48,2.09-.87,4.17-1.44,6.27l-1.68,6.28-3.45,12.83-3.51,20.11L87-1253.84l-2.17,5.33-2,3-2.47,3.5-4.68,6.63-6.16,6.4-6.39,4.52c-1.14.79-2.35,1.47-3.52,2.22l-3.19,2-3.57,1.51-4.05,1.66c-2.7,1.11-5.42,2.33-8.09,3.48l-8.05,3.55-8.23,3.84-4.56,2.71-3.64,2.91-7.56,9-5.62,9.67-5.41,9.12c-3.47,6.13-7.61,12-11.51,18-2,2.93-3.8,6.06-5.65,9.15l-5.5,9.27-5.45,9.2-5.6,9.12c-7.22,12.33-15,24-22.78,36.26l-5.41,9.29c-1.87,2.92-3.49,5.9-5.65,8.74-4.14,5.66-7.33,20.9-7.33,20.9l-16.29,23c-5.29,7.75-11.41,15-15.11,23.73l-1,2.92-.48,1.46-.38,1.49-1.49,4.19-2.25,10.62-.57,9.84.39,9,1.36,10.91,2.88,9.52,5.33,9.12L-92.65-910l6.07,8.53,5.48,8.94,4.14,9.85c2.08,6.32,4.2,12.63,6.17,19l1.8,8.57.91,10.9.09,13.78-2.86,20.05c-1.54,6.81-2.77,13.69-4.75,20.39l-2.55,6.28c-8.23,14.32-18.51,27.34-29.29,39.81-5.37,6.27-10.85,12.43-16.35,18.59s-11,12.28-16.53,18.42l-25.75,40.25-6.76,24.26-15.24,21.63-7.45,12.67-3.79,6.44c-.61,1.07-1.3,2.15-1.85,3.22l-1.58,3-2.29,5.67-.77,3.31v8.81l.34,2.93,1.62,4.09,1.77,3.5c.63,1.26,1.33,2.41,2,3.63,1.35,2.41,2.86,4.88,4.28,7.32s2.87,4.7,4.45,7.74l4.2,8.77,1.54,15.32.21,8,.09,3.91.21,3.86,1,15.93-.2,10-.82,5.36-1.63,4.23-2.7,5-5.08,6.21-5.41,4.72-5,4.42-5,4.42c-.81.76-1.58,1.56-2.37,2.34l-1.17,1.17-1,.9c-.24.24-1.91,2.66-2.42,3.3l-.31.54-.24.68-.4,1.87-.29,2c-.11.77-.2,1.56-.34,2.3l-.2,1.13-.14,1a7.88,7.88,0,0,0-.12,1l-.08.79-.22,18.18-1.55,13.86-5.55,22L-229-364.37l-.69,2.72-.77,2.67-1.56,5.34L-235.15-343c-.56,1.77-.93,3.59-1.36,5.39l-1.27,5.42-2.54,10.83c-.84,3.61-1.66,7.22-2.69,10.82l-11.72,43-2.92,10.72c-1,3.58-2,7.13-2.78,10.78l-2.52,10.88c-.38,1.81-1,3.63-1.46,5.45l-1.66,5.8-1.88,4.38c-.58,1.34-1.06,2.77-1.6,4.15l-3.23,8.6-7.49,15.53c-2.45,5.09-4.93,10.18-7.31,15.32s-4.77,10.26-7.25,15.38l-3.73,7.69c-1.23,2.55-2.51,5-3.64,7.57l-1.74,3.84-.91,2-.92,1.92-3.66,7.67-7.31,15.33-7.32,15.33-7,14.92-3.45,12.39-.92,5.22-.86,11.55,0,44.17,1.11,10.2.57,5.25c.18,1.75.38,3.49.69,5.23l3.36,20.88,1.87,18.17,2.26,5.34,2.1,4.14,11.13,17.55,4.66,7L-293.63,105l9.6,14.36,2,3,5,7.62,2.33,3.54,7.13,11,9.62,14.72,8,12.15.47.72.57.88,3.46,5.38.68,1.05L-232.48,199l11.84,19.53,4,6.05,3.72,4.79L-191.13,247l2.51,2.11,1,.83,2.93,4.65,2.16,3.72,1.75,4.15,1.31,4L-179,284l.13,4.95.18,6.86.36,8.42.14,3.19.41,3.84,1.4,6.31,6.59,16.8,4.73,8.19,3.68,5.65,8,8.61,1.5,1.49,1.5,1.48,8.8,7.93,9.71,7.3,1.41,1.79,15.34,11.65,6.3,4.19,12.61,8.58,7.63,4.92,5.71,3.22,6.41,3.89,8.16,3.34,10.57,3.16,4.91,1.77,11.28,6.17L-27.24,437l2.7,1.85,1.41,1.25,1.77,1.61,2.53,2.69,1.15,1.45,1.38,1.92,1.91,2.38,2,3.07,1.77,2.84.43.78,1.64,3.05,1.84,3.68,1.08,2.46,1.76,3.52,1.38,3.22L-1,476.11,3,484.16l2.48,4.74,4.43,8.47,5.83,15.35L18,517.38l3.72,8.38,2.74,6.15,7.82,15.29,4.85,6.13,7,7.13,2.53,2.29L48,564l3.85,2.54,2.9,1.64,2.07,1.17,6.72,3.8L68.4,576l28.69,16.57,8.69,4.31,4.53,2.16,3.47,1.44L118,602.1l7.9,2.61,4.89,1.21,14.95,3.19,3.88.69,14.76,3,5.94,1.29,4.47,1.76,5.62,3.37,2.07,1.46,7.66,7,6.9,9.09,2.86,3.71,1.73,2.68.95,1.46,16.74,18.66,14.32,8.85,148,71.51,8.09,4.6,18.85,10.29,7.55,3.89,7.31,5.83,6.35,6.8,18.77,46.42,9.14,21.75,14.87,33.47L485,904.14l5.29,12.43,1.92,4.58.72,2,.27.89,2.67,7.65.5,5.57.77,14.42.18,3.37.47,5.11,1.75,10.18L503,986l2.18,6.16.77,6.42.07,8.13-2,11.66-2.69,12.47-2.66,10.32-1.18,4.3-1.13,3.08-.11.32-.26.7-2.23,4.87-1.9,2.67-3.73,5.34-3.91,3.56-3.52,2.74-.5.43-3.78,3.15-12.12,10.09L444,1099.31l-13.54,11.84-16.28,13.24-3.51,2.07-11.22,9.86-12.95,12.78-10.86,14-16.29,22.92-.55,1.09-5.23,10.38-1.57,6-1.51,27.83.2,3.45.51,8.73,1.26,22.47.26,2.39,1.39,7.36,4.62,8.28,19.59,18,16.2,14.78,20.18,18.69,9.51,9.28,23.42,21.83,8,7.46,1.59,2,20.09,22.75,1.85,2.2,9.49,11.22,4,4.21,2.51,2.44M-73-2933l-1.17,1-12,12.85-3,2.54c-1.1.94-2.25,1.84-3.32,2.81l-7,6.72-1.18,1.12c-.38.38-.89.69-.84,1.3l-.5,3.2-.75,4.86-1.24,8.17-.67,3-1.38,2c-.66,1-1.33,2-2,3l-3.78,6-26.55,41.4-1.12,3c-.37,1-.81,1.86-1.21,2.79s-.88,1.8-1.32,2.7-1.06,1.9-1.58,2.85l-6.5,11.49-6.49,11.48-3.26,5.81-1.65,3-1.48,3c-3.84,8-8.13,15.75-12.22,23.61l-5.71,12.18c-1,2-1.86,4.12-2.75,6.24-.43,1.06-.92,2.09-1.31,3.19l-1.07,3-2.41,5.09c-1.88,5.72-3.12,9.62-5.15,15.23l-1.56,6.88-.46,4.61c-.07,1.4-.09,2.78-.14,4.17l-.24,7.67-1.72,7-.66,11.75-.42,11.2,10.86,22.75-.11,11.13-.05,5.58-.19,5.63-.41,11.27c-.17,3.75-.48,7.48-.72,11.22-1,15-2.27,29.68-2.45,44.32l0,5.56-.11,5.61-.25,11.23-.28,11.09c0,1.8,0,3.59,0,5.39l0,2.69c0,.91.11,1.54.14,2.23l1.53,7.52,1,3.32,1.08,3.61,2.32,7.79.7,8.59,0,.62,0,7.31-1.54,12.8.78,9.49.95,9.8.71,3.73c.25,1.34.52,2.67.82,4l1.72,7.93c.53,2.68,1.26,5.18,1.93,7.76l2.17,7.48,4.45,10.29,25.51,43.47c2.87.73,5.74,1.44,8.63,2.1l19.42,4.46,9.85,2.24-3.21,14.13-1.84,9.91-.46,2.47-.61,2.44-1.21,4.87c-3.31,13-6.24,26-10.17,39l-11.15,38.88-5.39,19.44c-.84,3.26-1.91,6.44-2.93,9.63l-3.07,9.58-6.14,19.15-3.48,9.39c-1.17,3.13-2.29,6.24-3.57,9.4l-7.45,18.86-1.86,4.71c-.61,1.58-1.15,3.19-1.73,4.79l-3.43,9.59c-2.27,6.39-4.61,12.78-6.7,19.16l-3.23,9.57c-.54,1.59-1.05,3.2-1.63,4.78l-1.79,4.74-3.59,9.46c-1.14,3.27-2.29,6.57-3.26,10l-5.12,20-1.75,9.69-.87,9-1.36,3.44-7.72,18-2.17,5.21-1.24,3-6.16,14.79-.17.4-5.25,13.82-.34.9-3.35,9.27-.91,2.86-2.1,6.88-1.16,6.12-.7,4.46-.21,1.75-.09.77.18,3.76.48,4.23.87,5.08,1.15,4.41,1.07,3,3.48,7.21.33.7,3.3,5.82,5.6,8.53,4.14,5.08,4.63,3.9,8.61,7.23,5,3.66,5.87,4.64,9.21,3.29,2.65,1,11.36,3.51,23.23,6.64.14.09,4,6.06,15.76,12.09,9.83,6.18,8.18,6.74L-99.45-1808l2.61,2.58,1.3,1.29,1.17,1.28c.78.83,1.58,1.75,2.38,2.67l2.92,3.33,6.46,4.37c1.93,1.32,3.92,2.62,5.94,3.91s4,2.64,6,3.86l6.3,3.52c4.2,2.3,8.35,4.32,12.52,6.5l12.73,6.52,17.71,7.32,8,2.16c1.28.33,2.54.7,3.79,1.08l3,.91,9.85,6.16,33.8,26.77,17.11,13.28,4.12,3.36,4.11,3.48,8,6.74,6.62,7.42,6.77,7.9c4.68,5.21,9.23,10.44,14,15.63,2.43,2.64,4.79,5,7.19,7.52s4.55,5,6.79,7.5l12.49,15.7,1.83,3.61c.69,1.39,1.42,2.75,2.07,4.16l3.91,8.23,3.58,9.14,1.28,6.58c.52,2.36.79,4.76,1.14,7.16l2,14.36.51,3.59a35.93,35.93,0,0,1,.43,3.61l.53,7.33.54,7.33c.13,2.43.69,4.88.86,7.26l.5,7.13.44,7.25.11,1.82.05,1.74.1,3.67.21,7.35.41,14.69.24,7.27v7.55l1.12,11.12"/></g><g id="まる"><line class="cls-3" x1="285.41" y1="788.96" x2="285.41" y2="788.96"/><polyline class="cls-6" points="309.95 775 311.19 774.23 315.49 771.78 321.72 768.37 328.33 765.93 336.94 762.92 345.06 760.26 351.59 757.28 357.15 755.04 362.92 752.78 369.8 751.15 375.72 750.13"/><line class="cls-3" x1="389.72" y1="748.18" x2="389.72" y2="748.18"/></g></g></g></svg>