<svg id="routes" xmlns="http://www.w3.org/2000/svg" xmlns:xlink="http://www.w3.org/1999/xlink" viewBox="0 0 1024 1024"><defs><style>.cls-1,.cls-10,.cls-11,.cls-12,.cls-13,.cls-14,.cls-15,.cls-16,.cls-17,.cls-18,.cls-3,.cls-4,.cls-5,.cls-6,.cls-7,.cls-8,.cls-9{fill:none;}.cls-2{clip-path:url(#clip-path);}.cls-3{stroke:#718cc7;}.cls-10,.cls-11,.cls-12,.cls-13,.cls-14,.cls-15,.cls-16,.cls-17,.cls-18,.cls-3,.cls-4,.cls-5,.cls-6,.cls-7,.cls-8,.cls-9{stroke-linecap:round;stroke-miterlimit:10;}.cls-14,.cls-3{stroke-width:8.79px;}.cls-10,.cls-11,.cls-12,.cls-13,.cls-15,.cls-16,.cls-17,.cls-18,.cls-4,.cls-5,.cls-6,.cls-7,.cls-8,.cls-9{stroke:#231815;stroke-width:4.4px;}.cls-5{stroke-dasharray:0 25.78;}.cls-6{stroke-dasharray:0 33.44;}.cls-7{stroke-dasharray:0 26.67;}.cls-8{stroke-dasharray:0 29.66;}.cls-9{stroke-dasharray:0 29.7;}.cls-10{stroke-dasharray:0 29.62;}.cls-11{stroke-dasharray:0 28.78;}.cls-12{stroke-dasharray:0 27.25;}.cls-13{stroke-dasharray:0 28.68;}.cls-14{stroke:#a97443;}.cls-15{stroke-dasharray:0 29.86;}.cls-16{stroke-dasharray:0 29.47;}.cls-17{stroke-dasharray:0 26.08;}.cls-18{stroke-dasharray:0 29.43;}</style><clipPath id="clip-path"><rect class="cls-1" x="-8103" y="-1020" width="11720" height="11720"/></clipPath></defs><title>3228_7152</title><g class="cls-2"><g id="日交線"><g id="岩井"><path class="cls-3" d="M1538.68,1396.87l12,6.59,8.5,4.36,2.75,1.78,11.06,5.18,8.51,4.58,2,.61,36,18.88.25.13,14,6.81,15.1,7.93,1.46.76,14.18,6.72,16.59,9.34,19,13.35,1.17.81,5.51,2.84,9.05,4.29.45.22,1.65.6.89.36,36.19,12.06,4.42,2.11,5.5,5.14,3.81,4.35,6.36,7.64,3.83,5.12,5.21,5,6.66,5.12,26.44,19.76,8,6.56,3.17,3.54,2.6,4,1.56,2.15,2.61,5.94,1.18,5.29,1.17,14.68.77,4.59,1.37,3,1.44,2.37,2.47,2.07,1.7.88,3.3,1,6.55,1.43,22,3.82,2.1.21,10,1.42,8.67,1.57,1.91.59,3.5,1.09,6.51,3.36,6.7,4.87,11.54,8.08,5.84,4.26c-.12-.58-.24-1.15-.34-1.73l-1.11-5.68-3.64-7.87-4.59-6.25-5.45-7.16-10.63-14-13.89-15.72-25-33.7L1859,1532.08c-1.62-3.47-3.11-7-4.74-10.45L1849,1510.4l-3-11.08-.18-13.11-.9-7.15-1.07-4.77c-.22-.88-.51-1.73-.76-2.6l-.46-1.53-1.22-2.35-1.13-1.55-1-1.42-3.16-3.08-4.15-3M22.27,647.36l-2.78,14.72-6.34,26.35-.71,2.82-.55,2.2L6.2,717.1l-.19.79-2.42,10L-.93,747.8l18,4.66,5.72,1.48,5.46,1.41,20,5.55,15.38,4.26L61.26,776l-.35,1.6-2.16,7.92-.62,2.32-2.41,8.85-3.6,13.23-1.54,5.67-5.93,21.85L42,848l-.05,2.56,1.41,14.87L43.11,869l-3.45.46-30.1,2.87-16.8,1.44-2,.16-32.31,3.55L-62.77,879l-15.36,1.3-4.12-.19-7.17.95-4.92,1.24L-100,885l-5.4,4-4.08,3.6-3.75,3.75-3.69,3.8-3.09,3.6-2.2,2.77-1,2.23-1.93,4.5-.43,1.59-2.19,8.17-.57,6-.07,5.6.32,4.05.8,5,1.38,6,1.29,5.46,1.12,4.64,1.08,4.55,1,6,0,4.64-.29,6.32-.74,5.82-1.36,5.85-1.74,6.26-2.13,7.6-2.55,6.65-2.54,6.5-1.79,5.33-.85,4.72-.19,4.78.57,4.81,1.64,4.55,1.35,2.53.24.46,1.78,2.4,3.3,3.76,2.83,2.14,3,1.93,6.24,3.13,8.27,1.48,9.46,1.27,10.09,1.54,5.53.94,1.09.19,7.66,2.34-1.91,3.29-1.81,2.13-2.87,1.16-4.24.86-.8,0-3.45-.08-3.82-1-3.37-2.06-4.32-2.29-3.24-.57-3.88.69-3.55,1.46-3.63,1.85-.89.45-4.5,1.4-4.83,1.14-5.32.55-4.25.28-2.5.17-5.34,1.19-5.44,2.28-6.65,3.87-6.24,3.21-6.12,4.26-6,5.82-5.48,6-6.16,7.12-11.59,12.56-29.63,35.07-38.33,50-9.72,8.65-8.21,4.86-8.64,6.76-5.23,6.8-4.07,5.07-6.13,6.08-3.6,2.09-6.78,2.67-6.88,2.57-10.08,3.34-8.73,2.89-4.18,3.32-3.33,3-4.75,6.49-4.41,6.08-2.59,2.09-2.05,4.24L-366,1292l-5.56,9.35-9,14.57-4.72,7.63-6.75,10.94-7,11.37-5.36,10.26-3.94,9.9-3.1,7.21-1.47,5.32-.76,4.5-.18,2.91.12,1,.63,3.26,1.08,3.42,1.3,3.93,4.12,9.93,1.12,2,1.94,3.09,1.57,2.29,13.57,14.58,3.71,6.57,4.38,10.33,7.47,26.09,3.93.07,1.54.77,1.37,1.37,1.12,2.3,1.06,3.2.87,2.33,3.88,8.92,4.63,10.54,3.35,8.91.88,3.08,1.23,4.45,2.46,18.35,1.69,9.31,1.48,5.51,10.72,25.6,8.7,18.59,9.22,20.38,9.28,17.18,6.32,9.06,6.79,6.44,5.12,6.72,3.49,4.45,2.09,3.13,2.11,4.4,1.54,6.18.23,1,4,15.13,2.83,10.78,3,9-4.08-.49-19.86-6.27-17.56-5.56-1-.3-4.33-1.45-1.45-.51-11-3.89-6.58-2.61-9-6.14-10.42-9.15-1.23-1.21-6.31-4-26.58-18.43-9.68-6.22-5.65-3.7-9.43-6.25-11.17-6.74-18.91-11.39-12.43-7.59-6.9-4.22-2.9-3-.54-.56-2.9-4.15-5.44,4-7.59,3.66-7.55,3-6.86,2.44-4.88,1.38-7.16,1.28-4.65.84-30.76,6.13-9,1.93-9.81,2.11-9.92,2.15-9,1.65L-589,1629l-6.84,1.34-3.92.44-3.31.37-6.73.34-6.22-.38-7-1-9.87-.55-6,.1-4.35.29-1,.07-5.71.93-4.61,1-7.44,1.43-15.09,2.89-8.33,2.27-5.61,1.78-9.5,4.45-11.07,5.19-5.83,2.68-.73.34-20.36,9.92-7.31,3.54-6.67,3.08-8.82,3.85-6.57,3.1-9.54,4.42-8.64,4.27-29,13.56-2.5,1-1.79.69-6,1.29-5.69-.16-4.17-.43-1.37-.15-11.08-2.15-13.31.1-4.06,1.41-4.22,1.54-4.27,3.17-3.13,2.58-2.63,2.77-3.48,5.33-6.46,13.74-3.78,6.23-3.78,4.68-7.36,6.15-4.21,2.46-5.35,3.41-22.17,14.25-32.34,18.26-17.81,10.91-19.8,12-6.58,3.13-3.34,1.37-5.27,2.1-11,3.18-5.53,1-9.53,2.09-9.24.75-4.41,0h-1.52l-5.09-.25-8.95-.89-6.25-.89-16.09-5.22-5.34-1.63-11.65-3.58-7.6-2.43-3.83-1.22-6.59-2.16-10.58-4-6.7-1.64-6.06-.76-6.31-.43-14,2.68-14.21,3.42-9.32,2.24-23.84,6.86L-1236,1815l-6.41,4.32-3.57,5.36-3.58,7.3-4.32,13.26-3.43,8.79-4,5.81-6,4.92-6.26,3-8.64.86-10.66-.19-44.2-.13-2.9-.45-15.43-.62-9.76,5.84c-3.2,0-6.45,0-9.69.08l-18.9.31-2.39.5-5.53,1.88-4.6,2.29-4.38,2.79-3.07,2.59-2.6,2.65-7.28,9.12-.08.1-13.37,16-6.76,8.06-3.38,4c-1.13,1.34-2.36,2.63-3.53,4l-7.1,7.86-1.78,2-1.85,1.87-3.72,3.73c-5,5-9.9,10-14.91,14.85q-15.06,14.67-30.55,28.69l-15.42,14.08-7.58,7.24c-1.24,1.23-2.61,2.37-3.92,3.54l-3.37,3-2.69,4.11-2,3.65-3.06,6.75-4.36,14.57-4.27,15.06-4.27,15.06-4.64,15.43-5.14,11.13c-.86,1.81-1.49,3.52-2.25,5.28-.36.88-.63,1.72-.95,2.58l-.75,2.26-.4,2.81.09,3,.63,3.47,1,2.86,9.8,21.17c1.63,3.6,3.37,7.12,4.91,10.77l4.78,11.08,2,5.73c.33.92.64,1.85.89,2.84l.82,3c.47,2,1,3.89,1.39,5.84l1.06,6,.85,8.8.71,8.58,1.43,17.09,1.54,17.09c.26,2.82.47,5.8.71,8.7l.36,8.94-.25,5.47-1.82,9c-1.79,4.58-2.67,6.63-4.47,11.05l-3.46,5.71-3.44,5-6.88,10.1-.27.37c-1.82,2.3-3.7,4.54-5.6,6.77l-2.86,3.37c-1,1.11-1.94,2.15-2.91,3.23-2,2.14-3.84,4.3-5.71,6.45l-5.84,6.72M839.74,846.74l24.85.62,22.94.56.71.12,1.39.24.74.81v1.59l-4.79,13.62-4.76,15.92-2,6.78-2.56,8-.78,2.47-1.68,6.29v3.61l.56,2.15.25,1,2,3,1.68,1.39,1.67.93,5.72,2.66,6.22,3.29,5.56,4.4,6.95,8,.72.91,1.45,1.82,4.85,6.12,4.19,5.95,1.44,1.73,6,7.23,13.25,16.83,22.45,28.67,8.16,11,13.16,15.71.24.31,12.09,15.57.18.23,7.11,9.15,4.54,5.23.93,1.17,19.5,24.71,1.69,2.15,17.12,21.68.54.66,7.47,8.91,1.71,2,5.07,6.37,4.58,4,10.46,9.81,2.21,3.68.25,2.94-.7,3.83-9,8.46,3.08,14.34.61,7.29,2.47,18.27.59,5.33.31,2.73,1.65,7,4.76,7.5L1084,1228l6.8,4.34,7,3.44,8.13,2.86,12,2.18,14.66,1.39,14.31.18,13.53-.12,11.58,1.13,32.53,8.3,25.33,4.93,24.88,3.56,14.58,1.84,21.17,3.75,7-.12,8.08,1.4,8.69,1.92,19.22,6.49,6.35,2.6,16.87,9.63,8.83,4.65,1.78.68,11.29,4.31,6.08,3.34,4.31,3.47,4.57,4.46,5.77,5.49,4.5,4.69,1.77,1.75,10.72,9.76,7.25,6.87,8.16,4.68.79.45,9.19,5.12,2.43,1.22,12.51,6.5,6.54,3.36,4.57,2.86,7.51,3.56,10,5,15.55,8,10.51,5.47,13.11,6.15,9.48,5.3,4.7,2.06.37-2.07,1.66-7.9,1.92-8.46.2-1.09,3.1-10.71.4-1.19,5,.26,12.28,1.43,5,.76,4,.37,16.4,1.54,11.17,1.27,3.13.36,6.68.54,5.92,1,9.46,2.41,8.15,2.63,7.46,2.41,4.68,1.74,7.37,2.33,9.32,3.4,40,13.54,27.66,8.88,85.61,30,10.1,3.31,7.79,2.65,4.72,2.51,5.5,4,4.55,4.43,1.59,2.25,1.58,2.17,2.14,4.12,1.58,5.27,1.36,6,1,8.36.17,12.29,2.35,8.67,5.83,12.41,3.41,7.62,10.18,21.54,24,32.36,13.84,15.67,16.18,21.26,5.58,7.58,4.73,10.23,2.57,13.22,1.33,9,6.08,35.69,5.27,29.07,4.52,25,9.52,47.58,4.64,34.94.36,6,1.33,7.4,2.37,17.66L1984,1877l8.25,50.65,2.66,24.64,1.33,12.57,2.2,13.79,2,5.72,2.9,5.19,3.09,4.15,5.18,5.15,8.18,4.92,8.74,2.67,5,.65,11.69,1.51,4.58.6,7.9,1.9,6.18,2.58,13.2,7.34,13.79,8.54,17.6,11.22,5.4,4.15,59.6,43.56,16.54,9.29,41,20.33,25.87,9.35,10.93,7,56.78,55.06,15.15,18.35,9.69,15.49,11.48,12.95,12.49,8.53,12,4.75,1.23,10,1.51,6.93,1.22,6.09,2.05,10,.51,5.15-.32,11.13-.65,4.52-.82,3.72-6.22,26.09-2.28,14.51-.3,3.52-.24,4.12-.11,2.87-.3,3.34-.59,6.76-.7,35.16-.56,17.77-1.46,17.11-1.17,12.85-4.49,15.82-2.26,5.64-5.47,11.93-1.75,3.86-5.94,12.1-2.4,4.52-8,15-14.65,27.38-.61,1.14-2.88,5-3.06,5.78-2.11,4.86-.89,3-.21,1.69.16,3.23.63,3.06,4.83,15,8.52,25.8.32,1.6.33,7.73V2647l.82,11.59.62,2.92,2.57,4.52,5.77,8.24,1.49,3.89,1.1,5.26.41,2.69.54,3.46-.16,5.47-1.45,9.18-.63,5.81v4.52l.5,6.29.62,2.58,2.73,6.78,2.58,5,6.9,7.09,27,22.12,3,1.91,1.74,1.46,8.2,3.86,11.06,3.69,7.71,3.72,14.6,5.15,2.89,1.29,4.17,2.92,2.26,2.09,1.26,1.77,3.16,4.43,2.19,1.72,2,.77H2455l4.17-.77,6.89-2.28,2.89-1.12,3.63-.29,2.29.72M-88.87,562.45-79.7,555l1.4-1.58-4.08-4-2.69-2.26L-89,543.71l-8.84,8.36,7.48,8.77,1.5,1.61,3.5,5.14,2.13,3.76.09.28,2.59,8.22,1.36,4.3,1.38,5.07,1.18,3.82.44,4.3-.27,5.17-.1,1.64-.62,5,.12.92.8.86,6.81,4.05,10.58,6.26,20.57,12.19,2.22,2.05,2,1.49,2.92,1,4.67.74,15.26,2.58,20.13,3.46,13.35,2.6,3.41.63,8.61,1.61.38.07,1.26.3,8.12,1.9,1.31.43,6.69,2.23.3.1L56,656l2.18.82,11.2,5.81,10,4,.17.06,8.09,2.55,5.44,1.5L101,673l10.15,2.7,7.46.45,12.81.59,1.75.54,9.22,2.1,16.52,4.72,5.18,2.59,2.84,1.43,7.8,3.94,4.69,2.46,4.58,3.35.6.53,2.42,2.12,1.34,1.74,1.22,3.16-.23,2.54,2.86-.16,2.65.61,8,3.67.78.39,5.05,2.55,5.54,2.81,5.5,2.49L242.33,731l7.29,2.26,16.4,4.06,15.52,3.87,22.56,5.42,12.2,2.55,11.76,3.17L348.93,757l6.58,2.37.22,0,4.29-.56,5.43-.26L376.5,758l13.1-1.05,9.59-.77,4.91-.28,13.27-.76,3-.18,2.93-.17,2.87-.17,12.91-.51,6.15.88,6.78,1,5,2.06,5.72,1.79,4.48.82,5.27.29,8.12-1.44,4.67-2,8.07-4,9.78-5.44,13-7.13,12-6.63L543.37,726l9-4.84.5-.28,4.3-2.39,4.12-2.13,4.29-1.72,4.17-1,4.5-.59,3.44.47,5.72,1.58,5,1.11,6.93,1.48,5.42.9,5.15.73,5,.84,4.39.51,4,0,4.81-.6,4.51-1,4.29-1.09,4.2-2.33,4.34-2.27,3.23-3.14,3.57-3.83,3.31-5,3.32-5.86L662.19,681l7.33-14.56L677,651.66l3.17-5.18,5-8.43,2.71-5.56.17-.54,1.19-3.62,1.19-4.42.68-4.93.42-6-.24-4.69-.28-5.7,0-2.2-.06-2.91-.2-5.16.06-.76.26-3.41-.54-4.31-.33-3.35-.15-1.25-.93-5.86-.94-5.94-.68-5.27-.82-4.75-.42-5,.57-3.18,1.07-3.91,1.88-5.72,2.24-5.87.61-1.9L699,516.21l1.25-1.74,3.2,2L715,521.21l2,.78,12.57,5,1.79.62,10.36,3.92,13.54,4.87,7.69,2.09,2.95.44,2.42,2.75L798.91,566l4.25,3.14,5.18,4.22,2,2.72,1.51,2,2.17,4.9,16.51-1.67-.18,40.53.11,4.27.1,3.62.47,9.8.27,4.86.46,6.38.08,1.3.38,8,.2,3.72.74,13.06.59,9.36.2,4.94.87,18.08.66,7.3.76,15.23.69,12.92.41,11.19,1.33,25,.27,3.2.1,7.06.26,18.27.27,13,.07,9.63.09,14.7-.2,21.22H849M-1834.9,2326.49l7.49-2.81,3-1.15,5.47-1.74,9.85-2.93,5.47-1.9,8.46-2,17.74-5.29,32.26-10.86,7-2.64,8.56-2.63,12.65-3.13,9-1.51,8.06-.93,13.62-.59,4,.22,7,.62,10.42,2,8.13,1.79,15.43,5.28,17,6.84,18.21,7.92,16.85,8.34,7.54,3.87m-136.42,144c20.51-22.56,5.11-6.16,26.15-28.22,22.73-23.83,45.08-48.17,68-71.82,12.09-12.49,25.15-24.08,37.74-36.06"/><line class="cls-4" x1="22.27" y1="647.36" x2="22.27" y2="647.36"/><polyline class="cls-5" points="16.97 672.57 13.15 688.43 12.44 691.25 11.89 693.45 6.2 717.1 6.01 717.89 3.59 727.93 1.93 735.23"/><line class="cls-4" x1="-0.93" y1="747.8" x2="-0.93" y2="747.8"/><line class="cls-6" x1="31.43" y1="756.24" x2="47.54" y2="760.7"/><line class="cls-4" x1="63.66" y1="765.16" x2="63.66" y2="765.16"/><polyline class="cls-7" points="57.26 791.04 55.72 796.68 52.12 809.91 50.58 815.58 44.65 837.43 41.99 848.02 41.94 850.58 42.42 855.68"/><line class="cls-4" x1="43.11" y1="868.96" x2="43.11" y2="868.96"/><polyline class="cls-8" points="13.59 871.91 9.56 872.29 -7.25 873.73 -9.28 873.89 -41.59 877.44 -62.77 879 -78.13 880.3 -82.25 880.11 -89.42 881.06 -94.34 882.3 -100.03 885 -105.44 889.02 -109.52 892.62 -113.26 896.37 -116.95 900.16 -120.04 903.77 -122.23 906.54 -123.28 908.77 -125.21 913.27 -125.64 914.86 -127.83 923.03 -128.4 929.07 -128.47 934.67 -128.15 938.72 -127.35 943.74 -125.97 949.72 -124.69 955.18 -123.56 959.82 -122.48 964.37 -121.47 970.32 -121.49 974.96 -121.78 981.28 -122.52 987.1 -123.88 992.95 -125.62 999.21 -127.75 1006.81 -130.3 1013.46 -132.84 1019.96 -134.63 1025.29 -135.48 1030.01 -135.67 1034.79 -135.1 1039.6 -133.46 1044.15 -132.11 1046.68 -131.87 1047.14 -130.09 1049.54 -126.79 1053.3 -123.96 1055.44 -120.97 1057.37 -114.73 1060.5 -106.46 1061.98 -97 1063.26 -87.02 1064.78"/><line class="cls-4" x1="839.74" y1="846.74" x2="839.74" y2="846.74"/><polyline class="cls-9" points="869.44 847.48 887.53 847.92 888.24 848.04 889.63 848.28 890.37 849.09 890.38 850.68 885.59 864.3 880.83 880.22 878.8 887 876.24 895.02 875.46 897.49 873.78 903.77 873.78 907.39 874.34 909.54 874.59 910.5 876.6 913.53 878.28 914.92 879.95 915.85 885.67 918.51 891.89 921.8 897.45 926.2 904.4 934.24 905.12 935.15 906.57 936.97 911.42 943.09 915.61 949.04 917.05 950.77 923.09 958 936.34 974.83 958.79 1003.5 966.95 1014.5 980.11 1030.21 980.35 1030.52 992.44 1046.09 992.62 1046.32 999.73 1055.47 1004.27 1060.7 1005.2 1061.88 1024.7 1086.58 1026.39 1088.73 1043.51 1110.41 1044.05 1111.07 1051.52 1119.98 1053.23 1121.95 1058.3 1128.32 1062.88 1132.32 1073.34 1142.13 1075.55 1145.81 1075.8 1148.75 1075.55 1150.14"/><polyline class="cls-10" points="-81.63 576.46 -80.56 579.85 -79.19 584.15 -77.82 589.22 -76.64 593.04 -76.2 597.34 -76.47 602.51 -76.57 604.15 -77.19 609.14 -77.07 610.06 -76.27 610.92 -69.46 614.97 -58.88 621.23 -38.31 633.42 -36.09 635.47 -34.05 636.96 -31.14 637.98 -26.47 638.72 -11.21 641.3 8.92 644.76 22.27 647.36 25.68 647.99 34.28 649.61 34.67 649.67 35.93 649.97 44.05 651.87 45.36 652.3 52.05 654.53 52.35 654.63 55.96 656 58.14 656.82 69.33 662.63 79.34 666.64 79.51 666.7 87.6 669.25 93.05 670.75 100.98 673 111.13 675.7 118.59 676.15 131.4 676.74 133.15 677.28 142.37 679.38 158.89 684.1 164.07 686.69 166.91 688.12 174.71 692.06 179.4 694.52 181.84 696.3"/><line class="cls-4" x1="189.33" y1="707.96" x2="189.33" y2="707.96"/><polyline class="cls-11" points="215.71 718.52 219.69 720.33 242.33 730.97 249.62 733.23 266.02 737.29 281.54 741.16 304.1 746.58 316.3 749.13 328.06 752.3 348.93 756.97 355.51 759.34 355.73 759.31 360.02 758.75 365.45 758.49 376.5 757.98 389.6 756.93 399.19 756.16 404.1 755.88 417.37 755.12 420.35 754.94 423.28 754.77 426.15 754.6 439.06 754.09 445.21 754.97 451.99 755.99 456.99 758.05 462.71 759.85 467.19 760.66 472.46 760.95 480.58 759.51 485.25 757.56 493.32 753.56 503.1 748.13 516.09 740.99 528.08 734.36 543.37 725.95 552.37 721.11 552.87 720.83 557.17 718.44 561.29 716.31 565.58 714.59 569.75 713.62 574.25 713.03 577.69 713.5 583.41 715.08 588.43 716.19 595.36 717.67 600.78 718.57 605.93 719.3 610.92 720.14 615.31 720.65 619.26 720.69 624.07 720.09 628.58 719.07 632.87 717.98 637.07 715.65 641.41 713.38 644.64 710.24 648.21 706.41 651.52 701.39 654.84 695.53 662.19 681.04 669.52 666.48 676.96 651.66 680.13 646.48 685.18 638.05 687.89 632.49 688.06 631.96 689.25 628.33 690.44 623.91 691.12 618.98 691.54 612.95 691.3 608.26 691.02 602.56 690.97 600.36 690.91 597.45 690.71 592.29 690.77 591.52 691.03 588.13 690.49 583.81 690.16 580.46 690.01 579.22 689.08 573.36 688.14 567.41 687.46 562.14 686.64 557.39 686.22 552.36 686.79 549.18 687.86 545.27 689.74 539.54 691.98 533.68 692.59 531.78 694.35 527.53"/><line class="cls-4" x1="700.28" y1="514.47" x2="700.28" y2="514.47"/><polyline class="cls-12" points="725.24 525.26 729.58 526.98 731.37 527.6 741.73 531.52 755.27 536.39 762.96 538.48 765.91 538.92 768.33 541.67 798.9 566.04 803.16 569.18 806.52 571.92"/><line class="cls-4" x1="814.03" y1="583.07" x2="814.03" y2="583.07"/><line class="cls-4" x1="830.54" y1="581.4" x2="830.54" y2="581.4"/><polyline class="cls-13" points="830.41 610.08 830.36 621.93 830.47 626.2 830.57 629.82 831.04 639.62 831.31 644.48 831.77 650.86 831.85 652.16 832.23 660.16 832.43 663.88 833.17 676.94 833.76 686.3 833.96 691.24 834.83 709.32 835.49 716.62 836.25 731.85 836.94 744.77 837.35 755.96 838.68 780.92 838.95 784.12 839.05 791.18 839.31 809.45 839.58 822.41 839.65 832.04 839.74 846.74 839.68 853.62"/><line class="cls-4" x1="839.54" y1="867.96" x2="839.54" y2="867.96"/><line class="cls-4" x1="849.01" y1="867.96" x2="849.01" y2="867.96"/></g><g id="快岩井"><path class="cls-14" d="M370,886.37l15.76-.32,12.28-.23,30.74-.19,12.32.09,12.14-.14,11.11-.66,10-1,10.39-1.52,9.91-1.38,20.26-3.73,9.29-2.06,10.51-2.61,14.22-4.4,14-5.34,28.19-12.38,28.77-15.81,23.37-16.81L665.88,800l25.69-25.13L716,745.14l24.91-31.86L766.5,683l7.51-7.7,15.48-16.58,7.72-7.5,17.08-13.47,8.58-5.07,3-1.2,4.7-1.69,11.71-.57.72,14.49.55,7.75.59,11.75,1.33,22.58.2,4.94.85,17.75.68,7.53,1.46,28.31.4,11.09,1.31,24.67.3,3.84.36,25.34.27,13,.08,13,37.28.91,6.91,1.21,6.5,7.07,0,8.16-5.36,15.26M-1838.92,2315.48l10.92-4.12,5.68-1.81,9.6-2.85,6.39-2.16,8.12-1.89,17.21-5.13,31.85-10.72,7.48-2.82,9.18-2.8,13.52-3.3,9.59-1.6,8.88-1,14.2-.63,5,.28,8.22.8,10.7,2.09,8.78,1.93,16.63,5.71,17.27,7,18.73,8.17,17,8.41,7.54,3.88,18.77,22.44,12.53,6.24,12.54,6.17,17.28,7.15,11.21,3.28,8.65,1.92,6.86,1.51,6.9.52,5.84.22,10.19-.28,7.39-1,11.15-2.25,11.94-3.84,9.59-4.05,5.54-2.46,8.79-4.83,9.3-5.58,4.82-3.73,11.57-9.28,6.56-6.75,9.14-10.3,69.68-82.1,56.5-66.5,5.47-6.44,21-24.28,6.82-7.87,53.14-62.05,4.61-5.69,62.31-72.44,41.65-49.53,5.65-7,35.14-42.48,26.29-32.42,11.73-14.13,6.8-8.65,34.95-41.24,7.89-9.07,16.32-19.15,6.82-6.79,15.15-16.63,9.95-12.15,12.23-15.38,2.69-3.9,7.91-9.84,14.09-16,22.11-24.06,18.25-17.91,20-17.12,19.44-14.5,26.09-16.76,14-7.8,13.43-6.75,20.26-9.11,20.06-8,39.4-11.64,59.62-15.38,51-16.11,18.8-8.26,18.81-9.32,19.24-12.29,19.1-13.38,15-12.71,11-10.62,10.16-10.38,19.4-23.13,6.36-9,9.21-14.22,8.66-15.22,13.56-25.51,27.89-54.41,23.66-47,8-15.37,16.31-30.93,9.79-17.2,10.66-16.13,17.87-25.86,17.29-19,19.29-20,19.3-18.07,31.72-25.09,17.26-11,34.8-19.9,27.36-12.59L-34.43,1004l28.88-11.46L7.5,986.89l30-11.23,5-1.75L87,958.11l32.39-11.41L189,921.79l31.7-9.76,31-7.81,28.21-6,19.27-3.59,11.53-2.09L341,888.65l9.2-1L370,886.37"/><line class="cls-4" x1="369.95" y1="886.37" x2="369.95" y2="886.37"/><polyline class="cls-15" points="399.81 885.81 428.73 885.63 441.05 885.72 453.19 885.58 464.3 884.92 474.34 883.96 484.73 882.44 494.64 881.06 514.9 877.33 524.19 875.27 534.7 872.66 548.92 868.26 562.95 862.92 591.14 850.54 619.91 834.73 643.28 817.92 665.88 800.04 691.57 774.91 716.03 745.14 740.94 713.28 766.5 683.03 774.01 675.33 789.49 658.75 797.21 651.25 814.29 637.77 822.87 632.71 825.87 631.51 827.55 630.91"/><line class="cls-4" x1="842.28" y1="629.25" x2="842.28" y2="629.25"/><polyline class="cls-16" points="843.91 658.68 844.14 663.24 845.47 685.82 845.67 690.76 846.52 708.51 847.2 716.04 848.66 744.35 849.06 755.44 850.37 780.11 850.67 783.95 851.03 809.29 851.26 820.57"/><line class="cls-4" x1="851.38" y1="835.31" x2="851.38" y2="835.31"/><polyline class="cls-17" points="877.46 835.95 888.66 836.22 895.57 837.43 902.08 844.5 902.1 852.66 901.06 855.62"/><line class="cls-4" x1="896.74" y1="867.92" x2="896.74" y2="867.92"/><polyline class="cls-18" points="-1811.03 2306.13 -1806.33 2304.54 -1798.21 2302.64 -1781 2297.51 -1749.15 2286.8 -1741.67 2283.99 -1732.49 2281.18 -1718.97 2277.88 -1709.38 2276.28 -1700.49 2275.29 -1686.3 2274.66 -1681.27 2274.94 -1673.05 2275.74 -1662.35 2277.83 -1653.57 2279.76 -1636.94 2285.47 -1619.67 2292.43 -1600.94 2300.6 -1583.93 2309.01 -1576.39 2312.89 -1557.62 2335.33 -1545.09 2341.57 -1532.55 2347.74 -1515.27 2354.89 -1504.06 2358.17 -1495.41 2360.09 -1488.55 2361.6 -1481.65 2362.11 -1475.82 2362.34 -1465.62 2362.06 -1458.23 2361.03 -1447.08 2358.78 -1435.14 2354.94 -1425.55 2350.89 -1420.01 2348.43 -1411.22 2343.6 -1401.92 2338.02 -1397.1 2334.29 -1385.53 2325.01 -1378.97 2318.26 -1369.83 2307.96 -1300.15 2225.86 -1243.65 2159.36 -1238.18 2152.92 -1217.19 2128.64 -1210.37 2120.77 -1157.23 2058.72 -1152.62 2053.03 -1090.31 1980.59 -1048.66 1931.06 -1043.01 1924.09 -1007.87 1881.61 -981.58 1849.19 -969.85 1835.06 -963.05 1826.41 -928.1 1785.17 -920.21 1776.1 -903.89 1756.95 -897.07 1750.16 -881.92 1733.53 -871.97 1721.38 -859.74 1706 -857.05 1702.1 -849.14 1692.26 -835.05 1676.24 -812.94 1652.18 -794.69 1634.27 -774.7 1617.14 -755.26 1602.65 -729.17 1585.89 -715.17 1578.09 -701.74 1571.34 -681.48 1562.23 -661.42 1554.24 -622.02 1542.6 -562.4 1527.22 -511.39 1511.11 -492.59 1502.85 -473.78 1493.53 -454.54 1481.24 -435.44 1467.86 -420.41 1455.15 -409.38 1444.53 -399.22 1434.15 -379.82 1411.02 -373.46 1402.04 -364.25 1387.82 -355.59 1372.6 -342.03 1347.09 -314.14 1292.68 -290.48 1245.7 -282.46 1230.33 -266.15 1199.4 -256.36 1182.2 -245.7 1166.08 -227.83 1140.21 -210.54 1121.19 -191.25 1101.22 -171.95 1083.15 -140.23 1058.06 -122.97 1047.07 -88.17 1027.17 -60.81 1014.58 -34.43 1003.99 -5.54 992.53 7.5 986.89 37.49 975.66 42.53 973.91 86.96 958.11 119.35 946.7 189.01 921.79 220.71 912.03 251.72 904.22 279.93 898.21 299.2 894.62 310.73 892.52 341.02 888.65 350.22 887.68 355.26 887.34"/><line class="cls-4" x1="369.95" y1="886.37" x2="369.95" y2="886.37"/></g></g></g></svg>