<svg id="_15zoom" data-name="15zoom" xmlns="http://www.w3.org/2000/svg" xmlns:xlink="http://www.w3.org/1999/xlink" viewBox="0 0 1024 1024"><defs><style>.cls-1,.cls-3,.cls-31,.cls-36,.cls-49,.cls-9{fill:#231815;}.cls-1,.cls-2,.cls-28,.cls-32,.cls-33,.cls-35,.cls-38,.cls-4,.cls-47,.cls-48,.cls-51,.cls-53,.cls-7,.cls-8{stroke:#231815;}.cls-1,.cls-2,.cls-28,.cls-32,.cls-33,.cls-35,.cls-38,.cls-39,.cls-4,.cls-47,.cls-48,.cls-51,.cls-52,.cls-53,.cls-7,.cls-8{stroke-miterlimit:10;}.cls-1,.cls-7,.cls-8{stroke-width:2.4px;}.cls-2,.cls-28,.cls-29,.cls-35,.cls-47,.cls-48,.cls-6,.cls-8{fill:#fff;}.cls-2,.cls-32{stroke-width:2px;}.cls-32,.cls-33,.cls-38,.cls-39,.cls-4,.cls-51,.cls-52,.cls-53,.cls-54,.cls-7{fill:none;}.cls-4{stroke-width:2.4px;}.cls-5{clip-path:url(#clip-path);}.cls-6{font-size:28.8px;}.cls-31,.cls-36,.cls-49,.cls-6,.cls-9{font-family:NotoSansMonoCJKjp-Regular-90ms-RKSJ-H, Noto Sans Mono CJK JP;}.cls-36,.cls-9{font-size:18px;}.cls-9{letter-spacing:0.13em;}.cls-10{letter-spacing:0.12em;}.cls-11{letter-spacing:0.1em;}.cls-12{letter-spacing:0.1em;}.cls-13{letter-spacing:0.36em;}.cls-14,.cls-15,.cls-16,.cls-17,.cls-18,.cls-19,.cls-20,.cls-21,.cls-22,.cls-23,.cls-24,.cls-25,.cls-26,.cls-27,.cls-37{font-size:12px;}.cls-14{letter-spacing:-0.06em;}.cls-15{letter-spacing:-0.11em;}.cls-16{letter-spacing:-0.06em;}.cls-17{letter-spacing:-0.06em;}.cls-18{letter-spacing:-0.05em;}.cls-19{letter-spacing:-0.05em;}.cls-20{letter-spacing:-0.02em;}.cls-21{letter-spacing:-0.03em;}.cls-22{letter-spacing:-0.05em;}.cls-23{letter-spacing:-0.07em;}.cls-24{letter-spacing:-0.06em;}.cls-25{letter-spacing:-0.05em;}.cls-26{letter-spacing:-0.06em;}.cls-27{letter-spacing:-0.07em;}.cls-28{stroke-width:4px;}.cls-30{clip-path:url(#clip-path-2);}.cls-31{font-size:15px;}.cls-33{stroke-width:3px;}.cls-34{clip-path:url(#clip-path-3);}.cls-35{stroke-width:2.4px;}.cls-38,.cls-39,.cls-51,.cls-52{stroke-linecap:round;}.cls-38{stroke-width:5.27px;}.cls-39{stroke:#aace36;stroke-width:2.64px;}.cls-40{letter-spacing:-0.08em;}.cls-41{letter-spacing:-0.02em;}.cls-42{letter-spacing:-0.02em;}.cls-43{letter-spacing:-0.03em;}.cls-44{letter-spacing:-0.03em;}.cls-45{letter-spacing:0.36em;}.cls-46{font-size:9px;}.cls-47{stroke-width:4px;}.cls-48{stroke-width:2.4px;}.cls-49{font-size:18px;}.cls-50{font-size:12px;}.cls-51{stroke-width:5.27px;}.cls-52{stroke:#ef845d;stroke-width:2.64px;}.cls-53{stroke-width:3px;}</style><clipPath id="clip-path"><path id="_クリッピングパス_" data-name="&lt;クリッピングパス&gt;" class="cls-1" d="M434.09,355.44a15,15,0,0,0-15,15h0a15,15,0,0,0,15,15h21v-30Z"/></clipPath><clipPath id="clip-path-2"><rect id="_長方形_" data-name="&lt;長方形&gt;" class="cls-2" x="807.17" y="74.32" width="180" height="50"/></clipPath><clipPath id="clip-path-3"><rect id="_長方形_2" data-name="&lt;長方形&gt;" class="cls-2" x="87.21" y="222.81" width="180" height="50"/></clipPath></defs><title>3230_7148</title><path id="_クリッピングパス_2" data-name="&lt;クリッピングパス&gt;" class="cls-3" d="M1013.75,474.1a15,15,0,0,0-15,15h0a15,15,0,0,0,15,15h21v-30Z"/><path id="_クリッピングパス_3" data-name="&lt;クリッピングパス&gt;" class="cls-4" d="M1013.75,474.1a15,15,0,0,0-15,15h0a15,15,0,0,0,15,15h21v-30Z"/><path id="_クリッピングパス_4" data-name="&lt;クリッピングパス&gt;" class="cls-3" d="M434.09,355.44a15,15,0,0,0-15,15h0a15,15,0,0,0,15,15h21v-30Z"/><g class="cls-5"><text class="cls-6" transform="translate(425.68 380.02)">14</text></g><path id="_クリッピングパス_5" data-name="&lt;クリッピングパス&gt;" class="cls-7" d="M434.09,355.44a15,15,0,0,0-15,15h0a15,15,0,0,0,15,15h21v-30Z"/><path class="cls-8" d="M644.09,355.44h-189v30h189a15,15,0,0,0,15-15h0A15,15,0,0,0,644.09,355.44Z"/><text class="cls-9" transform="translate(460.71 377.28)">美<tspan class="cls-10" x="20.27" y="0">萩</tspan><tspan class="cls-11" x="40.44" y="0">野</tspan><tspan class="cls-12" x="60.26" y="0">団</tspan><tspan class="cls-13" x="80.09" y="0">地</tspan><tspan class="cls-14" x="104.16" y="-2.28">M</tspan><tspan class="cls-15" x="109.42" y="-2.28">i</tspan><tspan class="cls-16" x="114.14" y="-2.28">h</tspan><tspan class="cls-17" x="119.47" y="-2.28">a</tspan><tspan class="cls-18" x="124.78" y="-2.28">g</tspan><tspan class="cls-15" x="130.21" y="-2.28">i</tspan><tspan class="cls-19" x="134.92" y="-2.28">n</tspan><tspan class="cls-20" x="140.33" y="-2.28">o</tspan><tspan class="cls-21" x="146.07" y="-2.28"> </tspan><tspan class="cls-22" x="151.69" y="-2.28">D</tspan><tspan class="cls-23" x="157.12" y="-2.28">a</tspan><tspan class="cls-24" x="162.33" y="-2.28">n</tspan><tspan class="cls-25" x="167.65" y="-2.28">c</tspan><tspan class="cls-26" x="172.99" y="-2.28">h</tspan><tspan class="cls-27" x="178.25" y="-2.28">i</tspan></text><line class="cls-8" x1="432" y1="295" x2="551.09" y2="355.44"/><circle class="cls-28" cx="432" cy="295" r="10"/><rect id="_長方形_3" data-name="&lt;長方形&gt;" class="cls-29" x="807.17" y="74.32" width="180" height="50"/><g class="cls-30"><text class="cls-31" transform="translate(844.67 93.06)">布勢湖山鳥大線<tspan x="0" y="20">白兎養護学校行</tspan></text></g><rect id="_長方形_4" data-name="&lt;長方形&gt;" class="cls-32" x="807.17" y="74.32" width="180" height="50"/><line class="cls-33" x1="897.17" y1="124.32" x2="917.77" y2="162.84"/><path class="cls-3" d="M926.3,178.81c-6.8-6-16.54-12.8-24.67-15.89l15-2.17,10.14-11.28C924.84,157.94,925.07,169.81,926.3,178.81Z"/><rect id="_長方形_5" data-name="&lt;長方形&gt;" class="cls-29" x="87.21" y="222.81" width="180" height="50"/><g class="cls-34"><text class="cls-31" transform="translate(154.71 241.55)">湖岸線<tspan x="-37.5" y="20">白兎養護学校発着</tspan></text></g><rect id="_長方形_6" data-name="&lt;長方形&gt;" class="cls-32" x="87.21" y="222.81" width="180" height="50"/><line class="cls-33" x1="177.21" y1="222.81" x2="180.79" y2="183.64"/><path class="cls-3" d="M182.44,165.6c2.37,8.78,6.78,19.79,11.87,26.84L180.57,186l-14.67,3.84C172.18,183.84,178.51,173.8,182.44,165.6Z"/><rect id="_長方形_7" data-name="&lt;長方形&gt;" class="cls-35" x="419.55" y="32.37" width="240" height="60"/><text class="cls-36" transform="translate(512.51 55.84)">鹿野線<tspan class="cls-37"><tspan x="-42" y="16.32">(local bus)Shikano line</tspan></tspan></text><line class="cls-38" x1="479.55" y1="80.37" x2="599.55" y2="80.37"/><line class="cls-39" x1="479.55" y1="80.37" x2="599.55" y2="80.37"/><line class="cls-33" x1="539.55" y1="92.37" x2="515.27" y2="180.16"/><path class="cls-3" d="M510.44,197.61c-.77-9.05-3.15-20.68-6.91-28.52l12.37,8.78L531,176.7C523.78,181.49,515.76,190.24,510.44,197.61Z"/><path class="cls-35" d="M45.37,271.24h-189v30h189a15,15,0,0,0,15-15h0A15,15,0,0,0,45.37,271.24Z"/><text class="cls-31" transform="translate(-138.76 290.44)"><tspan class="cls-40">白</tspan><tspan class="cls-41" x="13.79" y="0">兎</tspan><tspan class="cls-42" x="28.48" y="0">養</tspan><tspan class="cls-43" x="43.15" y="0">護</tspan><tspan class="cls-44" x="57.67" y="0">学</tspan><tspan class="cls-45" x="72.24" y="0">校</tspan><tspan class="cls-46" x="92.6" y="-2.28">(Hakuto Special School)</tspan></text><line class="cls-35" x1="33" y1="202" x2="-47.63" y2="271.24"/><circle class="cls-47" cx="33" cy="202" r="10"/><rect id="_長方形_8" data-name="&lt;長方形&gt;" class="cls-48" x="32.91" y="359.5" width="240" height="60"/><text class="cls-49" transform="translate(125.86 382.97)">湖岸線<tspan class="cls-50"><tspan x="-36" y="16.32">(local bus)Kogan line</tspan></tspan></text><line class="cls-51" x1="92.91" y1="407.5" x2="212.9" y2="407.5"/><line class="cls-52" x1="92.91" y1="407.5" x2="212.9" y2="407.5"/><line class="cls-53" x1="152.9" y1="419.5" x2="283.31" y2="470.46"/><path class="cls-3" d="M300.17,477.06c-9.08-.16-20.89,1-29.07,3.95l10-11.41.38-15.16C285.51,462.14,293.39,471,300.17,477.06Z"/><rect class="cls-54" x="-4007" y="-3068" width="11720" height="11720"/></svg>