<svg id="_15zoom" data-name="15zoom" xmlns="http://www.w3.org/2000/svg" xmlns:xlink="http://www.w3.org/1999/xlink" viewBox="0 0 1024 1024"><defs><style>.cls-1,.cls-2,.cls-7{fill:#231815;}.cls-1,.cls-12,.cls-5,.cls-6{stroke:#231815;}.cls-1,.cls-12,.cls-14,.cls-15,.cls-16,.cls-5,.cls-6{stroke-miterlimit:10;}.cls-1,.cls-5,.cls-6{stroke-width:2.4px;}.cls-3{clip-path:url(#clip-path);}.cls-4{font-size:28.8px;}.cls-12,.cls-4,.cls-6{fill:#fff;}.cls-4,.cls-7{font-family:NotoSansMonoCJKjp-Regular-90ms-RKSJ-H, Noto Sans Mono CJK JP;}.cls-14,.cls-15,.cls-16,.cls-17,.cls-5{fill:none;}.cls-7{font-size:18px;}.cls-8{letter-spacing:1.47em;}.cls-9{letter-spacing:0.97em;}.cls-10,.cls-11{font-size:12px;}.cls-10{letter-spacing:0.7em;}.cls-12{stroke-width:4px;}.cls-13{opacity:0.5;}.cls-14,.cls-15,.cls-16{stroke:#e60012;stroke-width:20px;}.cls-14{stroke-dasharray:10 10;}.cls-16{stroke-dasharray:10.13 10.13;}</style><clipPath id="clip-path"><path id="_クリッピングパス_" data-name="&lt;クリッピングパス&gt;" class="cls-1" d="M702.31,835.49a15,15,0,0,0-15,15h0a15,15,0,0,0,15,15h21v-30Z"/></clipPath></defs><title>3232_7148</title><path id="_クリッピングパス_2" data-name="&lt;クリッピングパス&gt;" class="cls-2" d="M702.31,835.49a15,15,0,0,0-15,15h0a15,15,0,0,0,15,15h21v-30Z"/><g class="cls-3"><text class="cls-4" transform="translate(693.9 860.07)">77</text></g><path id="_クリッピングパス_3" data-name="&lt;クリッピングパス&gt;" class="cls-5" d="M702.31,835.49a15,15,0,0,0-15,15h0a15,15,0,0,0,15,15h21v-30Z"/><path class="cls-6" d="M912.31,835.49h-189v30h189a15,15,0,0,0,15-15h0A15,15,0,0,0,912.31,835.49Z"/><text class="cls-7" transform="translate(753.3 857.33)"><tspan class="cls-8">高</tspan><tspan class="cls-9" x="44.4" y="0">路</tspan><tspan class="cls-10" x="79.8" y="-2.28">Kor</tspan><tspan class="cls-11" x="123" y="-2.28">o</tspan></text><line class="cls-6" x1="788" y1="764" x2="819.31" y2="835.49"/><circle class="cls-12" cx="788" cy="764" r="10"/><g id="東郷"><g class="cls-13"><polyline class="cls-14" points="1914.85 -853.29 1899.11 -833.95 1894.21 -829.21 1884.85 -823.47 1883.47 -822.78 1882.38 -822.21 1878.34 -819.8 1876.31 -819.01 1865.76 -811.71 1841.4 -786.68 1827.49 -771.64 1805.3 -747.63 1787.8 -728.92 1755.67 -693.82 1754.51 -692.65 1749.32 -686.98 1725.52 -661.27 1718.17 -653.33 1708.75 -643.16 1702.18 -636.05 1696.56 -630.89 1692.23 -627.35 1688.06 -624.66 1685.81 -623.2 1671.37 -617.55 1662.52 -614.05 1655.72 -608.97 1651.55 -605.5 1638.24 -594.89 1635.09 -592.13 1632.85 -590.12 1607.44 -569.39 1606.33 -568.24 1603.29 -565.08 1599.75 -560.74 1598.63 -558.65 1596.87 -555.11 1595.91 -552.05 1593.68 -540.92 1591.74 -525.79 1590.09 -513.16 1588.37 -492.3 1586.62 -479.4 1585.8 -472.63 1583.89 -464.73 1582.45 -460.7 1580.52 -456.04 1577.47 -451.35 1552.15 -418.49 1545.72 -409.46 1538.97 -399.79 1536.66 -396.11 1522.16 -371.76 1506.6 -345.97 1500.85 -336.3 1486.06 -309.53 1482.54 -303.27 1478.02 -294.84 1473.9 -289.54 1465.89 -279.74 1461.56 -275.36 1457.08 -271.67 1439.1 -258.29 1428.69 -251.38 1417.47 -243.93 1385.14 -219.8 1382.51 -217.34 1377.88 -211.22 1372.27 -202.36 1366.33 -190.15 1361.99 -182.57 1360.25 -180.63 1356.36 -176.51 1351.75 -172.1 1350.93 -171.42 1344.34 -165.81 1338.76 -161.47 1312.6 -141.65 1293.53 -126.81 1290.45 -123.95 1284.72 -118.61 1268.21 -100.08 1253.77 -81.55 1253.47 -81.2 1251.91 -79.03 1250.93 -77.54 1246.6 -68.68 1244.34 -64.96 1241.59 -60.76 1237.12 -55.44 1232.95 -51.72 1229.11 -48.18 1226.22 -43.69 1214.67 -20.96 1210.17 -13.55 1206.49 -9.7 1199.74 -4.55 1198.48 -3.58 1196.39 -1.15 1193.99 2.23 1187.75 13.18 1184.54 16.58 1171.21 25.76 1164.48 31.11 1161.27 34.31 1159.17 37.4 1157.73 41.06 1157.26 43.18 1154.86 59.65 1153.89 62.22 1152.3 63.82 1138.67 74.28 1129.52 81.23 1124.24 86.03 1116.37 94.27 1113.8 98.13 1110.27 104.24 1107.54 110.85 1098.16 133.96 1096.85 137.27 1090.31 153.71 1082.25 172.55 1076.15 185.27 1061.45 213.43 1060.91 214.43 1058.52 217.49 1039.77 237.48 1036.55 241.48 1034.46 244.71 1032.87 247.31 1029.82 253.74 1025.82 264.21 1007.86 311.27 1007.12 312.7 1006.07 313.58 997.94 320.55 994.89 323.13 989.26 329.3 983.16 337.02 978.52 343.8 976.43 347.49 960.38 376.05 956.69 382.79 950.59 394.88 946.12 402.95 939.86 415.01 935.53 422.88 930.89 430.3 918.08 443.66 913.42 449.46 907.81 458.18 888.25 492 886.18 494.91 872.23 506.66 868.53 511.49 867.27 514.55 865.98 518.9 860.05 553.86 859 560.49"/><polyline class="cls-15" points="858.22 565.43 857.49 570.12 857.49 570.38 857.48 570.38 857.32 574.64 857.41 575.37"/><polyline class="cls-16" points="859.16 585.34 865.99 618.29 868.06 626 869.64 629.41 873.2 634.72 874.46 637.78 874.46 641.5 873.2 645.01 870.45 650.01 855.24 671.94 851.24 679.66 850.64 681 846.3 690.46 845.35 692.6 844 694.46 823.04 720.13 817.59 727.88 816.05 729.74 813.63 732.99 808.72 741.17 805.2 743.91 801.19 746.66 797.67 750.51 797.54 750.86 795.26 753.98"/><line class="cls-15" x1="792.28" y1="758.08" x2="789.34" y2="762.12"/></g></g><rect class="cls-17" x="-4007" y="-5116" width="11720" height="11720"/></svg>