<svg id="_15zoom" data-name="15zoom" xmlns="http://www.w3.org/2000/svg" viewBox="0 0 1024 1024"><defs><style>.cls-1,.cls-9{fill:#fff;}.cls-1,.cls-4,.cls-9{stroke:#231815;}.cls-1,.cls-11,.cls-12,.cls-13,.cls-14,.cls-4,.cls-5,.cls-9{stroke-miterlimit:10;}.cls-1{stroke-width:2.4px;}.cls-2{font-size:18px;fill:#231815;font-family:NotoSansMonoCJKjp-Regular-90ms-RKSJ-H, Noto Sans Mono CJK JP;}.cls-3,.cls-8{font-size:12px;}.cls-11,.cls-12,.cls-13,.cls-14,.cls-15,.cls-4,.cls-5{fill:none;}.cls-4,.cls-5{stroke-linecap:round;}.cls-4{stroke-width:5.27px;}.cls-5{stroke:#985d1b;stroke-width:2.64px;}.cls-6{letter-spacing:1.11em;}.cls-7{letter-spacing:0.61em;}.cls-8{letter-spacing:0.17em;}.cls-9{stroke-width:4px;}.cls-10{opacity:0.5;}.cls-11,.cls-12,.cls-13,.cls-14{stroke:#e60012;stroke-width:20px;}.cls-11{stroke-dasharray:10.24 10.24;}.cls-13{stroke-dasharray:9.94 9.94;}.cls-14{stroke-dasharray:9.92 9.92;}</style></defs><title>3234_7148</title><rect id="_長方形_" data-name="&lt;長方形&gt;" class="cls-1" x="921.18" y="13.35" width="240" height="60"/><text class="cls-2" transform="translate(1014.18 36.82)">西郷線<tspan class="cls-3"><tspan x="-36" y="16.32">(local bus)Saigo line</tspan></tspan></text><line class="cls-4" x1="981.18" y1="61.35" x2="1101.18" y2="61.35"/><line class="cls-5" x1="981.18" y1="61.35" x2="1101.18" y2="61.35"/><path class="cls-1" d="M126.67,151.25h-189v30h189a15,15,0,0,0,15-15h0A15,15,0,0,0,126.67,151.25Z"/><text class="cls-2" transform="translate(-32.33 173.09)"><tspan class="cls-6">北</tspan><tspan class="cls-7" x="38" y="0">村</tspan><tspan class="cls-8" x="67" y="-2.28">Kitamur</tspan><tspan class="cls-3" x="123" y="-2.28">a</tspan></text><line class="cls-1" x1="128.18" y1="245.51" x2="33.67" y2="181.25"/><circle class="cls-9" cx="128.18" cy="245.51" r="10"/><g id="西郷"><g class="cls-10"><polyline class="cls-11" points="1157.04 190.34 1153.39 192.27 1142.39 198.82 1142.06 199.01 1141.07 199.5 1139.45 200.31 1134.47 200.74 1132.48 200.27 1122.13 198.21 1119.64 197.71 1115.65 196.85 1111.84 196.18 1110.86 196.11 1109.89 196.11 1108.88 196.14 1108.38 196.2 1107.46 196.31 1106.29 196.49 1104.9 196.8 1103.76 197.11 1102.65 197.53 1101.58 197.94 1100.33 198.53 1098.77 199.47 1087.77 206.75 1083.74 209.42 1079.79 212.03 1079.37 212.31 1076.29 214.33 1073.91 215.89 1072.27 217 1070.55 218.18 1068.79 219.16 1066.91 220.19 1065.33 221.01 1064.7 221.33 1064.26 221.44 1062.78 221.78 1060.73 222.15 1058.4 222.4 1056.02 222.52 1053.94 222.6 1051.93 222.52 1049.6 222.36 1048.18 222.15 1040.49 219.32 1031.39 215.85 1026.01 213.47 1024.7 212.97 1016.3 210.38 1005.39 206.71 999.57 205.45 996 204.67 992.28 204.18 989.08 204.07 983.71 204.13 976.55 204.24 971.13 204.85 966.38 205.69 962.18 206.64 957.77 207.76 949.08 210.05 946.51 210.64 938.36 211.74 934.69 210.99 931.43 210.24 930.65 209.98"/><polyline class="cls-12" points="925.85 208.2 925.48 208.04 921.15 206.52 919.28 201.88"/><polyline class="cls-13" points="914.64 193.19 912.71 190.89 909.71 188.54 901.2 183.38 894.5 179.18 890.73 176.48 885.48 173.52 882.62 172.27 876.51 170.91 854.4 166.83 846.62 164.77 843.34 163.95 837.48 162.49 827.83 159.27 821.29 157.2 817.25 155.85 810.81 153.88 802.3 151.49 799.71 150.86 794.84 149.52 791.62 148.48 788.1 147.3 778.15 144.32 776.71 143.99 773.04 143.12 760.6 138.7 756.81 136.68 752.2 133.75 739.59 123.45 739.41 123.3 733.44 118.36 721.79 109.57 713.32 104.91 703.57 100.14 691.71 96.44 658.55 91.46 650.18 90.4 644.19 89.56 637.34 88.56 629.47 87.5 618.37 86.32 610.27 85.67 605.78 85.49 604.79 85.43 603.13 85.34 591.12 85.16 580.33 85.05 577.06 84.86 572.93 84.64 567.94 84.19 567.05 84.11 563.67 83.71 561.16 83.3 555.97 81.79 548.69 79.69 542.16 77.94 537.17 76.74 532.31 75.63 527.03 74.4 520.59 73.05 514.84 72.11 510.04 71.53 504.18 71.11 497.79 71 491.05 71.11 484.08 71.7 480.46 72.14 479.74 72.23 475.99 72.75 473.41 73.28 462.39 75.81 460.22 76.39 458.01 77 454.95 77.85 451.79 78.97 448.97 79.91 446.74 80.73 444.69 81.72 443.68 82.24 442.41 82.89 436.02 86.3 429.04 90.22 424.24 93.09 421.43 94.85 421.2 94.99 418.73 96.55 417.64 97.21 415.57 98.48 412.34 100.12 409.74 101.18 409.04 101.47 407.07 102.06 391.03 106.22 389.44 106.67 377.03 110.18 344.78 119.77 307.43 129.95 295.1 133.48 276.84 138.9 261.98 143.32 257.76 144.44 254.06 145.56 250.46 146.79 246.91 148.25 245.68 148.83 243.73 149.75 240.18 151.29 237.38 152.67 234.98 153.83 233.79 154.31 231.86 155.15 228.47 156.67 225.15 158.13 222.23 159.55 219.83 160.75 217.25 161.98 214.82 163.21 211.69 164.91 209.13 166.28 207.08 167.93 204.87 170.06 202.37 172.75 199.9 174.73 199.78 174.82 196.19 177.39 192.87 179.48 192.1 179.95 190.63 180.87 188.9 182.33 185.96 185.3 185.76 185.51 183.85 188.08 181.95 190.57 181.65 190.96 180.09 191.99 178.73 192.87 176.41 194.63 173.64 197.03 170.76 199.61 169.04 201.44 167.36 203.08 164.59 206.3 160.59 210.6 153.83 217.61 151.08 220.5 149.76 222.16 147.86 224.65 146.33 226.83 143.15 230.04 140.09 233.2 136.98 235.95 136.81 236.07"/><line class="cls-12" x1="132.87" y1="239.1" x2="128.6" y2="241.69"/><line class="cls-12" x1="341.73" y1="810.53" x2="343.48" y2="805.85"/><polyline class="cls-14" points="346.95 796.56 347.2 795.88 349.25 787.03 350.23 784.95 351.97 783.17 356.01 780.43 362.87 776.75 370.1 773.32 376.15 773.52 397.92 778.66 401.16 778.66 403.56 777.03 405.14 775.46 407.54 770.61 408.22 766.61 409.62 764.18 411.41 762.72 413.97 761.27 423.42 759.36 432.23 752.76 443.29 745.65 445.37 741.93 447.13 736.14 449.2 724.08 449.67 722.8 450.97 719.89 453.84 715.55 458.45 708.49 461.19 705.1 462.17 704.15 481.9 687.11 485.17 684.08 487.46 682.12 489.08 680.88 490.53 680.07 490.96 679.84 495.35 677.55 496.26 677.07 496.78 676.71 497.25 676.31 497.57 675.85 497.9 675.02 498.68 672.97 499.52 670.92 500.23 669.27 500.83 668.11 501.48 666.96 502.12 666.01 502.81 664.93 503.88 663.77 505.1 662.55 506.38 661.58 508.08 660.6 510.51 659.36 515.82 656.36 519.85 654.12 521.66 653.07 532.25 647.49 540.92 642.7 545.04 640.5 555.86 634.45 558.25 633.34 560.2 632.18 562.9 630.43 566.99 626.11 570.78 620.68 575.62 616.08 583.85 609.14 587.61 605.16 594.23 597.18 596.55 594.39 601.58 588.1 607.13 581.18 609.68 576.27 612.07 571.66 613.21 568.59 613.33 568.17 613.94 565.93 614.69 563.19 616.69 557.36 617.82 553.04 619.57 547.24 620.45 544.54 621.96 540.58 624.64 534.69 631.41 521.22 631.65 520.78 641.18 503.31 642.14 501.21 642.38 500.68 643.2 498.9 654.68 477.58 657.58 470.01 659.67 464.4 665.34 455.75 666.62 454.2 667.42 453.23 683.51 434.82 699.9 417 700.27 416.59 700.91 415.89 710.25 405.43 711.89 404.03 713.97 402.46 715.99 401.26 718.2 400.31 721.23 399.12 722.45 398.68 745.42 390.42 756.18 386.55 759.73 385.23 814.02 365.14 828.96 359.36 837.57 356.02 847.63 352.15 857.75 347.46 866.92 341.16 873.48 336.72 876.42 335.04 880.42 333.28 886.54 331.04 908.72 325.35 974.12 297.74 979.49 294.74 985.42 289.75 989.3 286.12 998.73 275.82 1001.41 269.97 1004.16 265.2 1008.96 256.03 1014.08 243.32 1016.31 238.34 1016.52 237.83 1022.55 222.8"/><polyline class="cls-12" points="1024.39 218.2 1025.67 214.87 1026.01 213.47"/></g></g><rect class="cls-15" x="-4007" y="-7164" width="11720" height="11720"/></svg>