<svg id="_13zoom" data-name="13zoom" xmlns="http://www.w3.org/2000/svg" viewBox="0 0 1024 1024"><defs><style>.cls-1{fill:#fff;}.cls-1,.cls-5,.cls-7,.cls-9{stroke:#231815;}.cls-1,.cls-5,.cls-6,.cls-7,.cls-9{stroke-miterlimit:10;}.cls-1,.cls-9{stroke-width:4px;}.cls-2{font-size:30px;font-family:NotoSansMonoCJKjp-Regular-90ms-RKSJ-H, Noto Sans Mono CJK JP;}.cls-2,.cls-8{fill:#231815;}.cls-3{letter-spacing:0.25em;}.cls-4{font-size:20px;}.cls-11,.cls-5,.cls-6,.cls-7,.cls-9{fill:none;}.cls-5,.cls-6{stroke-linecap:round;}.cls-5{stroke-width:8.79px;}.cls-6{stroke:#a73766;stroke-width:4.4px;}.cls-7{stroke-width:5px;}.cls-10{letter-spacing:0.5em;}</style></defs><title>3230_7144</title><rect id="_長方形_" data-name="&lt;長方形&gt;" class="cls-1" x="652" y="67.55" width="400" height="100"/><text class="cls-2" transform="translate(747 106.67)">青<tspan class="cls-3" x="30" y="0">谷-</tspan><tspan x="90" y="0">長和瀬線</tspan><tspan class="cls-4"><tspan x="-40" y="27.2">(local bus)Aoya Nagawase line</tspan></tspan></text><line class="cls-5" x1="752" y1="147.55" x2="952" y2="147.55"/><line class="cls-6" x1="752" y1="147.55" x2="952" y2="147.55"/><line class="cls-7" x1="1005.34" y1="1071.66" x2="905.7" y2="958.62"/><path class="cls-8" d="M885.75,936c13.34,7.17,31.73,14.44,46.1,16.33l-23.53,9.28-12.15,22.17C896.09,969.27,891.19,950.11,885.75,936Z"/><line class="cls-7" x1="852" y1="167.55" x2="869.33" y2="232.33"/><path class="cls-8" d="M877.13,261.48c-8.76-12.35-22-27.05-34-35.14l25.2,2.17,20.74-14.46C882.68,227.06,878.55,246.41,877.13,261.48Z"/><path id="_クリッピングパス_" data-name="&lt;クリッピングパス&gt;" class="cls-8" d="M340.78,417.58a25,25,0,0,0-25,25h0a25,25,0,0,0,25,25h35v-50Z"/><path id="_クリッピングパス_2" data-name="&lt;クリッピングパス&gt;" class="cls-9" d="M340.78,417.58a25,25,0,0,0-25,25h0a25,25,0,0,0,25,25h35v-50Z"/><path class="cls-1" d="M690.78,417.58h-315v50h315a25,25,0,0,0,25-25h0A25,25,0,0,0,690.78,417.58Z"/><text class="cls-2" transform="translate(425.78 453.98)"><tspan class="cls-10">長和瀬</tspan><tspan class="cls-4" x="135" y="-3.8">Nagawase</tspan></text><line class="cls-1" x1="631.86" y1="332.21" x2="535.78" y2="417.58"/><circle class="cls-1" cx="631.86" cy="332.21" r="10"/><path id="_クリッピングパス_3" data-name="&lt;クリッピングパス&gt;" class="cls-8" d="M632.39,508a25,25,0,0,0-25,25h0a25,25,0,0,0,25,25h35V508Z"/><path id="_クリッピングパス_4" data-name="&lt;クリッピングパス&gt;" class="cls-9" d="M632.39,508a25,25,0,0,0-25,25h0a25,25,0,0,0,25,25h35V508Z"/><path class="cls-1" d="M982.39,508h-315v50h315a25,25,0,0,0,25-25h0A25,25,0,0,0,982.39,508Z"/><text class="cls-2" transform="translate(717.39 544.36)">青谷<tspan class="cls-10" x="60" y="0">駅</tspan><tspan class="cls-4" x="105" y="-3.8">(Aoya Sta.)</tspan></text><line class="cls-1" x1="1161.33" y1="452.21" x2="827.39" y2="507.96"/><rect class="cls-11" x="89" y="-3068" width="11720" height="11720"/></svg>