<svg id="_13zoom" data-name="13zoom" xmlns="http://www.w3.org/2000/svg" viewBox="0 0 1024 1024"><defs><style>.cls-1,.cls-4{fill:#231815;}.cls-2,.cls-9{fill:none;}.cls-2,.cls-3{stroke:#231815;stroke-miterlimit:10;stroke-width:4px;}.cls-3{fill:#fff;}.cls-4{font-size:30px;font-family:NotoSansMonoCJKjp-Regular-90ms-RKSJ-H, Noto Sans Mono CJK JP;}.cls-5{letter-spacing:1.11em;}.cls-6{letter-spacing:0.61em;}.cls-7,.cls-8{font-size:20px;}.cls-7{letter-spacing:0.17em;}</style></defs><title>3232_7144</title><path id="_クリッピングパス_" data-name="&lt;クリッピングパス&gt;" class="cls-1" d="M547.82,355.76a25,25,0,0,0-25,25h0a25,25,0,0,0,25,25h35v-50Z"/><path id="_クリッピングパス_2" data-name="&lt;クリッピングパス&gt;" class="cls-2" d="M547.82,355.76a25,25,0,0,0-25,25h0a25,25,0,0,0,25,25h35v-50Z"/><path class="cls-3" d="M897.82,355.76h-315v50h315a25,25,0,0,0,25-25h0A25,25,0,0,0,897.82,355.76Z"/><text class="cls-4" transform="translate(632.82 392.16)"><tspan class="cls-5">桑</tspan><tspan class="cls-6" x="63.33" y="0">原</tspan><tspan class="cls-7" x="111.67" y="-3.8">Kuwabar</tspan><tspan class="cls-8" x="205" y="-3.8">a</tspan></text><line class="cls-3" x1="570.36" y1="259.61" x2="742.82" y2="355.76"/><circle class="cls-3" cx="570.36" cy="259.61" r="10"/><rect class="cls-9" x="89" y="-5116" width="11720" height="11720"/></svg>