<svg id="routes" xmlns="http://www.w3.org/2000/svg" xmlns:xlink="http://www.w3.org/1999/xlink" viewBox="0 0 1024 1024"><defs><style>.cls-1,.cls-10,.cls-11,.cls-12,.cls-13,.cls-14,.cls-15,.cls-16,.cls-17,.cls-18,.cls-19,.cls-20,.cls-3,.cls-4,.cls-5,.cls-6,.cls-7,.cls-8,.cls-9{fill:none;}.cls-2{clip-path:url(#clip-path);}.cls-10,.cls-11,.cls-12,.cls-13,.cls-14,.cls-15,.cls-16,.cls-17,.cls-18,.cls-19,.cls-20,.cls-3,.cls-9{stroke:#231815;stroke-width:8.79px;}.cls-10,.cls-11,.cls-12,.cls-13,.cls-14,.cls-15,.cls-16,.cls-17,.cls-18,.cls-19,.cls-20,.cls-3,.cls-4,.cls-5,.cls-6,.cls-7,.cls-8,.cls-9{stroke-linecap:round;stroke-miterlimit:10;}.cls-4{stroke:#ef845d;}.cls-4,.cls-5,.cls-6,.cls-7,.cls-8{stroke-width:4.4px;}.cls-5{stroke:#187fc4;}.cls-6{stroke:#aace36;}.cls-7{stroke:#ca2e34;}.cls-8{stroke:#985d1b;}.cls-9{stroke-dasharray:0 26.3;}.cls-10{stroke-dasharray:0 29.01;}.cls-11{stroke-dasharray:0 22.04;}.cls-12{stroke-dasharray:0 29.78;}.cls-13{stroke-dasharray:0 35.73;}.cls-14{stroke-dasharray:0 29.4;}.cls-15{stroke-dasharray:0 28.2;}.cls-16{stroke-dasharray:0 32.32;}.cls-17{stroke-dasharray:0 29.44;}.cls-18{stroke-dasharray:0 30.57;}.cls-19{stroke-dasharray:0 31.06;}.cls-20{stroke-dasharray:0 16.51;}</style><clipPath id="clip-path"><rect class="cls-1" x="-4007" y="-3068" width="11720" height="11720"/></clipPath></defs><title>3230_7148</title><g class="cls-2"><g id="日ノ丸線"><g id="湖岸"><path class="cls-3" d="M529.06,245.19l-9.4-.54L489.3,243l-20.2-.67-6,1.46-3.48,1.55-3.52,3.24-2.59,2.89L450.14,256l-7.66,9.52L420,249.83l-6.64-5.17-11.25-8.07L397,234.51l-3.11-.31-8,1.57L345.68,245l-10.29,2.38L322,250.67l-9.81,2-2.11.84-2,1.54-2,2-9.56,15.14L284,292l-10.08,15.88-5.39,8.4-.38.9-.06.89v.83l.12.71.26.77.71,1,8.59,7,6,3.91,1.67.51,2.51.52,2.05.51,2.69,1.09,6.09-8.85,11-15.14,6.35-9.29L323.91,291l.83-1.08m0,0,2.82-3.67,5.58-8.7,2.12-2.71,5.13-6,17,11.93,12.14,9,8.06,0,56.88-.14c9.73,0,19.25.58,28.63.91a205.79,205.79,0,0,0,27.61-.45l3.33-.39,3.3-.5,3-.66c1-.27,1.95-.59,2.93-.87a29.82,29.82,0,0,0,10.26-5.94c6-5.25,9.88-13,12.32-21.52a114.24,114.24,0,0,0,3.18-15m0,0c.58-3.91,1-7.87,1.43-11.86.59-5.88,1-11.83,1.54-17.87m11.49,3-11.49-3m120.49,25.9-5.7,26.37,11.3,28M543.52,218.5,558,222.33c2.42.6,4.8,1.36,7.26,1.83l7.33,1.53,14.67,3.08,29.34,6.14,7.34,1.53c2.44.5,4.89.86,7.34,1.3l14.69,2.5,6.56,1.12m-511,1201.09,14.14-1.16,7.06-.58c1.17-.11,2.38-.17,3.51-.32l2.9-.42,2.14-.68,7.71-3.82,5.52-4.54,3.55-4.45,3.87-5,7.57-9.82,5.89-9.31,4-9.94,1.27-4,.68-2.11.76-2.07,3-8,2.64-9.41.2-2.06c.08-.84.2-1.68.23-2.54l.29-4.92,0-.6c0-.32,0-.62,0-.86l0-1.58.05-3.15c.11-2.09-.1-4.2-.18-6.3l-.64-12.61-.64-12.61-.92-13.75,1.65-5.32L229.37,1271l11.89-28.77,1-3.22,20.3-50,10.11-24.81c3.33-8.28,6.9-16.46,9.84-24.91l1.15-3.14,1.25-3.12,2.51-6.24,5-12.47,10-24.94,5-12.47,5.18-12.45,5.2-12.44,2.6-6.22,1.3-3.12c.43-1,2.13-4.54,2.13-4.54l-6.8-1.41L290,1029.11l-16.73-23-2.63-3.72-4.22-5.47-.91-1.09L259.39,990l-5-2L251.1,986l-10.31-11.49-.3-.4-9-12.11-8.07-8.93-2.29-2.62L220,949.18l-4-5.38-4.6-8.53-.23-2.09-.06-.54L216.61,921l.69-3.33-.1-16.25,1-4.9,2.74-6.36,2.54-4.31,5.21-3.8,12.22-7.94,3.23-2.84,4.31-6.27,10.86-13.9.29-3.32v-3.23L246.5,814.37l-3.16-3L237.17,808l-9-3.43-7.44-1.18-10.18-.19-7.83-.49-4.9-1.48-3.52-1.56-8.22-4.1-9.2-5-6.07-4.9-3.54-4.45-4.44,1.38-4.17-.95-5.14-2.35-4.22-2.46-1.76-1.43L146,773.72l-1.42-3.3-.34-1.78-.06-2,.7-2.89,1.49-2.75,2.62-3.39,7.1-6.29,4.92-4.12,2.09-1,3.53.06L167,745l1.67-3.18,3.43-5.27,3.18-4.81,4.85-8.34,6.52-11,7.12-11.9,4-6.66,3.44-6,3.8-7.08,4.22-7.31,4-5.74L217,665l10.31-4.69,8.08-3.54,10.18-3.58,8.38-2.94,4.69-2.51,3.83-3.92,4-6.33,6.42-8.51,4.88-4.49,4.92-3.69,3.94-2.67,7.57-1.41,13.12-.14,3.9.49,7,4.34,5.15,3.89,3.4,1.63,2.36-.22,2.84-.82,1.89-2.68,1.67-2.3,1.8-4.48,2.51-3,3-2.23,5.84-1.11,4.46-.39,8.87-2.83,12.21-4.27,11.1-3.87,4.07-2.23,1.05-.92,1.38-2.17,1.11-2.36-.58-2L391,587.41l-3.22-2.16-3.09-1.51-3.87-.59-9.59-.53-6.5-1L361.34,580l-11-14.19-6.1-7.81-2.76-4.67-.9-1.18-1.79-2.36-4.8-5.52-.06-3.21.59-5.78-.53-5.65-2.23-4.79L326.73,517l-3.6-4.33-4.54-3-6-3.29-5.46-3-3.94-3.29L301,496l-1-4.67-.33-6.64.52-7.62.4-8L300,457.86l-.06-7.9.22-2.47-1.94-5.82-1.71-8.16-.45-2.35-.27-4.17.19-5,2.18-6.58,2.83-6.47L316.24,382l26.47-36.53.2-.28L365,314l8.57-12.52h4l56.86-.14c18.48,0,37.59,2.31,57.42.4l3.72-.43,3.73-.58,3.91-.84c1.3-.35,2.59-.76,3.88-1.16a41.62,41.62,0,0,0,14.18-8.22,47.55,47.55,0,0,0,10-12.68,70.45,70.45,0,0,0,5.82-14.33c4.33-15.18,5.15-30.43,6.39-45m446.19,91.9-26.18-1.6-27.7-7.61c-4.75-1.35-9.53-2.55-14.3-3.75l-14.31-3.63-28.63-7.25c-2.39-.59-4.77-1.23-7.16-1.79l-7.25-1.47-14.49-2.95-29-6.74c-9.7-2.3-19.26-4.32-28.89-6.49l-28.85-6.42c-2.4-.58-4.83-1-7.26-1.41L748.36,258l-14.57-2.57c-19.46-3.41-38.79-6.88-58.45-10.19l-22.82-3.89m337.19,69L999,311l31.81,12.37,15.91,6.19c5.31,2.05,10.59,4.18,16,6L1094.81,347c5.36,1.9,10.7,3.86,16.08,5.71l16.15,5.52,32.3,11c21.6,7.18,43.09,14.69,64.93,21.12l32.81,2.21,31-.58,12.42-.23,37.41-4.76,40.85,7.85,40.15,10.38,15.05,10.1c2.72,2,5.37,4,8.06,6l7.39,5.51,29.45,29.53c4.91,5.12,9.59,10.44,14.39,15.65l14.85,16.28,18.61,15.74,25.07,5.54,85.61,11.79,85.18,11.36M1288,392.06,1276.8,354l-17.64-46.11-5-11.12c-1.69-3.77-3.6-7.45-5.38-11.19l-10.64-21.76-3-4.58c-.58-.84-1.09-1.76-1.6-2.67l-1.77-3.14-2-4.4-16.94,6.05-23.9,8.54-24.51,8.14-26,4.62-12,.53c-1.93.07-3.87-.06-5.81-.07l-6.28-.14-26.49-5.11-46.1-21.32L1011.63,233l-.52,1.84-1.47,5.17c-.49,1.73-1.06,3.38-1.58,5.07l-6.43,20.16c-1,3.36-2.21,6.71-3.16,10.09l-2.54,10.2h0a30.83,30.83,0,0,1-31.79,23.29l-.61,0m759,224,86,11.74,42.89,5.71c14.29,2.09,28.57,4.53,42.86,6.69l86.16,11.22L2067.3,580l21.34-.76,36.48-9.86,17.6-4.76,8.79-2.38,8.87-2,51.18-11.82"/><path class="cls-4" d="M529.06,245.19l-9.4-.54L489.3,243l-20.2-.67-6,1.46-3.48,1.55-3.52,3.24-2.59,2.89L450.14,256l-7.66,9.52L420,249.83l-6.64-5.17-11.25-8.07L397,234.51l-3.11-.31-8,1.57L345.68,245l-10.29,2.38L322,250.67l-9.81,2-2.11.84-2,1.54-2,2-9.56,15.14L284,292l-10.08,15.88-5.39,8.4-.38.9-.06.89v.83l.12.71.26.77.71,1,8.59,7,6,3.91,1.67.51,2.51.52,2.05.51,2.69,1.09,6.09-8.85,11-15.14,6.35-9.29L323.91,291l.83-1.08m0,0,2.82-3.67,5.58-8.7,2.12-2.71,5.13-6,17,11.93,12.14,9,8.06,0,56.88-.14c9.73,0,19.25.58,28.63.91a205.79,205.79,0,0,0,27.61-.45l3.33-.39,3.3-.5,3-.66c1-.27,1.95-.59,2.93-.87a29.82,29.82,0,0,0,10.26-5.94c6-5.25,9.88-13,12.32-21.52a114.24,114.24,0,0,0,3.18-15m0,0c.58-3.91,1-7.87,1.43-11.86.59-5.88,1-11.83,1.54-17.87m11.49,3-11.49-3m120.49,25.9-5.7,26.37,11.3,28M543.52,218.5,558,222.33c2.42.6,4.8,1.36,7.26,1.83l7.33,1.53,14.67,3.08,29.34,6.14,7.34,1.53c2.44.5,4.89.86,7.34,1.3l14.69,2.5,6.56,1.12m-511,1201.09,14.14-1.16,7.06-.58c1.17-.11,2.38-.17,3.51-.32l2.9-.42,2.14-.68,7.71-3.82,5.52-4.54,3.55-4.45,3.87-5,7.57-9.82,5.89-9.31,4-9.94,1.27-4,.68-2.11.76-2.07,3-8,2.64-9.41.2-2.06c.08-.84.2-1.68.23-2.54l.29-4.92,0-.6c0-.32,0-.62,0-.86l0-1.58.05-3.15c.11-2.09-.1-4.2-.18-6.3l-.64-12.61-.64-12.61-.92-13.75,1.65-5.32L229.37,1271l11.89-28.77,1-3.22,20.3-50,10.11-24.81c3.33-8.28,6.9-16.46,9.84-24.91l1.15-3.14,1.25-3.12,2.51-6.24,5-12.47,10-24.94,5-12.47,5.18-12.45,5.2-12.44,2.6-6.22,1.3-3.12c.43-1,2.13-4.54,2.13-4.54l-6.8-1.41L290,1029.11l-16.73-23-2.63-3.72-4.22-5.47-.91-1.09L259.39,990l-5-2L251.1,986l-10.31-11.49-.3-.4-9-12.11-8.07-8.93-2.29-2.62L220,949.18l-4-5.38-4.6-8.53-.23-2.09-.06-.54L216.61,921l.69-3.33-.1-16.25,1-4.9,2.74-6.36,2.54-4.31,5.21-3.8,12.22-7.94,3.23-2.84,4.31-6.27,10.86-13.9.29-3.32v-3.23L246.5,814.37l-3.16-3L237.17,808l-9-3.43-7.44-1.18-10.18-.19-7.83-.49-4.9-1.48-3.52-1.56-8.22-4.1-9.2-5-6.07-4.9-3.54-4.45-4.44,1.38-4.17-.95-5.14-2.35-4.22-2.46-1.76-1.43L146,773.72l-1.42-3.3-.34-1.78-.06-2,.7-2.89,1.49-2.75,2.62-3.39,7.1-6.29,4.92-4.12,2.09-1,3.53.06L167,745l1.67-3.18,3.43-5.27,3.18-4.81,4.85-8.34,6.52-11,7.12-11.9,4-6.66,3.44-6,3.8-7.08,4.22-7.31,4-5.74L217,665l10.31-4.69,8.08-3.54,10.18-3.58,8.38-2.94,4.69-2.51,3.83-3.92,4-6.33,6.42-8.51,4.88-4.49,4.92-3.69,3.94-2.67,7.57-1.41,13.12-.14,3.9.49,7,4.34,5.15,3.89,3.4,1.63,2.36-.22,2.84-.82,1.89-2.68,1.67-2.3,1.8-4.48,2.51-3,3-2.23,5.84-1.11,4.46-.39,8.87-2.83,12.21-4.27,11.1-3.87,4.07-2.23,1.05-.92,1.38-2.17,1.11-2.36-.58-2L391,587.41l-3.22-2.16-3.09-1.51-3.87-.59-9.59-.53-6.5-1L361.34,580l-11-14.19-6.1-7.81-2.76-4.67-.9-1.18-1.79-2.36-4.8-5.52-.06-3.21.59-5.78-.53-5.65-2.23-4.79L326.73,517l-3.6-4.33-4.54-3-6-3.29-5.46-3-3.94-3.29L301,496l-1-4.67-.33-6.64.52-7.62.4-8L300,457.86l-.06-7.9.22-2.47-1.94-5.82-1.71-8.16-.45-2.35-.27-4.17.19-5,2.18-6.58,2.83-6.47L316.24,382l26.47-36.53.2-.28L365,314l8.57-12.52h4l56.86-.14c18.48,0,37.59,2.31,57.42.4l3.72-.43,3.73-.58,3.91-.84c1.3-.35,2.59-.76,3.88-1.16a41.62,41.62,0,0,0,14.18-8.22,47.55,47.55,0,0,0,10-12.68,70.45,70.45,0,0,0,5.82-14.33c4.33-15.18,5.15-30.43,6.39-45m446.19,91.9-26.18-1.6-27.7-7.61c-4.75-1.35-9.53-2.55-14.3-3.75l-14.31-3.63-28.63-7.25c-2.39-.59-4.77-1.23-7.16-1.79l-7.25-1.47-14.49-2.95-29-6.74c-9.7-2.3-19.26-4.32-28.89-6.49l-28.85-6.42c-2.4-.58-4.83-1-7.26-1.41L748.36,258l-14.57-2.57c-19.46-3.41-38.79-6.88-58.45-10.19l-22.82-3.89m337.19,69L999,311l31.81,12.37,15.91,6.19c5.31,2.05,10.59,4.18,16,6L1094.81,347c5.36,1.9,10.7,3.86,16.08,5.71l16.15,5.52,32.3,11c21.6,7.18,43.09,14.69,64.93,21.12l32.81,2.21,31-.58,12.42-.23,37.41-4.76,40.85,7.85,40.15,10.38,15.05,10.1c2.72,2,5.37,4,8.06,6l7.39,5.51,29.45,29.53c4.91,5.12,9.59,10.44,14.39,15.65l14.85,16.28,18.61,15.74,25.07,5.54,85.61,11.79,85.18,11.36M1288,392.06,1276.8,354l-17.64-46.11-5-11.12c-1.69-3.77-3.6-7.45-5.38-11.19l-10.64-21.76-3-4.58c-.58-.84-1.09-1.76-1.6-2.67l-1.77-3.14-2-4.4-16.94,6.05-23.9,8.54-24.51,8.14-26,4.62-12,.53c-1.93.07-3.87-.06-5.81-.07l-6.28-.14-26.49-5.11-46.1-21.32L1011.63,233l-.52,1.84-1.47,5.17c-.49,1.73-1.06,3.38-1.58,5.07l-6.43,20.16c-1,3.36-2.21,6.71-3.16,10.09l-2.54,10.2h0a30.83,30.83,0,0,1-31.79,23.29l-.61,0m759,224,86,11.74,42.89,5.71c14.29,2.09,28.57,4.53,42.86,6.69l86.16,11.22L2067.3,580l21.34-.76,36.48-9.86,17.6-4.76,8.79-2.38,8.87-2,51.18-11.82"/></g><g id="吉岡"><path class="cls-3" d="M1394.85,865.68l-32.59-1-32.59-1.7-32.54-1.85q-8.12-.51-16.22-.92l-16-.86-12.45.22-4.69-1.07-6.62-.22L1209,851l-9.52-.74-1-.09-1-.11-9.3-1H1188l-15.22-2.53-5.54-.87-8.67-.45-7.46.67-3.93.31-4.89.84-3.18,1.12-4.47,2.35-5.08,4.9-40,43.33-1.7,1.88-1.24,1.37-14.35,15.89-.26.52-.51,1,.35,2.12,1.35,3.48-2.93,1.67-5.33,3-1.39.79-5.3,4.2-2.9,2.31-5.29,5.66-5.82,7.9-.46,1.2-3.83,9.74-4.08,9.71-3.06,5.18-2.08,2.82-5.25,3.43-8.19,4.37-12,4.75-10.1,3.29-11.42,2.3L958.88,999l-5,.32-9.17.6-7.43.23-1.88-.21-4.31-.48L923.56,998l-8.21-3.27L895.41,988l-12.53-2.79-7.94-1.79-5.52-.91h-5.33L853,984.19l-37.2,6.26-6.26,2-5.88,3.25L794,1002l-15,10.59-20.25,13.3-7.35,3.64-7.28,2.09-14.53,4-2,.49-7.08,1.71-7.21.3-5.31-1.29-1.68-.66-2.7-1.58-4.74-5-5.18-8.49-3-4-4.06-2.71-8.49-2.63-10.74-2.92-10.06-3.24-3.69-1.72-2.32-1.93-1.21-1-3.75-5.56-6-10.07-4.66-5.63-7.66-3.83-17.65-5.26-3.9-.08-4.66,1.13-20.06,6.76-28.16,9.77-7.44,4.05-15,10.44-11.79,8.19-5.18,2.7-9.09,2-19.16,2.55-4,2.33-3.38,3.31-2.78,6.16-6.61,16-3.23,4.59-4.21,4.28-5.41,3.38-6.23,2.4-5,1.06-24.11-2-19.75-1.87-12-1.2L335,1042c-.51,1.14-1,2.23-1.18,2.63-.45,1-2.64,6-2.64,6l-2.57,6.15-5.14,12.32-5.14,12.32-5,12.42-10,24.85-5,12.42-2.5,6.21-1.25,3.1-1.15,3.16c-3,8.45-6.54,16.68-9.88,25l-10.14,24.89-20.1,49.47-1,3.25-12.08,29.23-11.42,28.95-.88,2.83.79,11.65.65,12.83.64,12.82c.09,2.14.3,4.28.19,6.42l-.05,3.22,0,1.61c0,.29,0,.52,0,.73l0,1-.33,5.61c0,.89-.16,1.8-.24,2.71l-.33,3.18-3,10.84c-2.17,5.9-4,10.61-5.79,16.55l-4.54,11.34-6.75,10.68-7.95,10.31-3.89,5-4.38,5.48-7.5,6.16-9.71,4.82-3.92,1.25-4.17.59c-1.23.17-2.4.22-3.6.33l-7.17.59-14.34,1.18s-6-2.13-7.95-2.61a29.61,29.61,0,0,0-9.55-.65,19.12,19.12,0,0,0-3.87,1.93l-2.25,1.55-4.2,3.87-29.1,32.64-41.72,46.83L30.52,1551.2,19,1562.42l-8.67,7.83-7.37,6.32-4.1,3.72-6.59,3.84L-20.15,1589l-9.39,3.53-6.85,3.32-5,4.37-5,5.15-2.22,3.13-.79,3.72.33,4.63,2.68,8.21,3.06,10.44,1,3.3,1.74,5.47,1.76,7-.13,8.17-2.22,6.85-9.27,13.45-2.87,6.72-2.35,4.64-.59,3.86.91,4.89,1.89,3.72,3,5.36.72,3.59v5.35l-2,5L-54,1735.32l-2.85,11.32-7.91,27.77L-69,1782l-12.23,17.46-3.16,6.39-1.58,7.63-3.37,33.54-2,17.74-1.59,7.56-3.16,6.46-6.18,7.15-9,6.73-5.64,4-3.5,5-1.65,3.5-2.68,9.08-2.06,7-1.93,4.81-1.85,2.89-7.5,7.14-12.09,9.08-6.88,4.33-3.3,5-2.68,11.06-.52,2.18-4.08,11-3,3.09-3.85,3.16-7.35,2.27-9.21,1.92-8.25,2.2-6.67,2.48-6,3.57-7.35,6.12-19.25,22.61-4.81,5.43-2.41,5.64-1.44,9.07-1.92,4.67-3.1,4.13-3.78,3.09-5.77,3.92-3.92,1.65-9.34,2.54-4.61,2.13-24.75,19.19-11.27,9.48-1.58,3.16-2.55,7.42-5.08,14.85-7.29,13.4-5.36,6-5,3.78-5.09,3.37-18.7,8.25-29.42,11.89-2.55,1.11-12.91,5.21-4.51,2.56-2.56,3.29-3.05,5.85-3.53,9.5-2.19,5.12-22.18,23.64-5.48,5.49-2.44,4.87-1.22,5.36-2.19,11.94-1.46,4.75-5.61,3.17-7.79,3.17-7.32,3.9-4,3.65-4.14,7.68-3.78,8.05-4.51,9.5-2.28,5-2.32,9.86-.73,5.26-2.2,8.34-4.95,5.6M2032.18,923.87c-2.72-.44-5.45-.79-8.17-1.19l-4.09-.58c-1.35-.21-2.72-.39-4.1-.48l-8.43-.73-19.12-2.81-9.49-1.41L1974,916c-.79-.12-1.57-.22-2.41-.4l-2.18-.42-28.08-3-3.56-.37-3.51-.49-7-1c-4.67-.51-9.33-.85-14-1.28l-14.07-1.19L1885,907l-7.11-.42-3.55-.21c-1.18-.1-2.71-.2-3.83-.4l-14-2.19-14.74-1.2-14.94-1.54L1812,899.54c-5-.49-10-1.1-14.93-1.67m.12,0-100.56-10c-16.68-1.69-33.44-3.07-50.26-4.66l-50.28-5q-12.58-1.23-25.18-2.59l-12.61-1.43-6.3-.77c-2-.23-4-.45-6-.6-8.1-.66-16.42-.71-24.89-.89-4.22-.07-8.58-.24-12.75-.41l-12.61-.49-12.62-.5c-4.2-.15-8.41-.32-12.62-.58l-25.26-1.42-50.52-2.82"/><path class="cls-5" d="M1394.85,865.68l-32.59-1-32.59-1.7-32.54-1.85q-8.12-.51-16.22-.92l-16-.86-12.45.22-4.69-1.07-6.62-.22L1209,851l-9.52-.74-1-.09-1-.11-9.3-1H1188l-15.22-2.53-5.54-.87-8.67-.45-7.46.67-3.93.31-4.89.84-3.18,1.12-4.47,2.35-5.08,4.9-40,43.33-1.7,1.88-1.24,1.37-14.35,15.89-.26.52-.51,1,.35,2.12,1.35,3.48-2.93,1.67-5.33,3-1.39.79-5.3,4.2-2.9,2.31-5.29,5.66-5.82,7.9-.46,1.2-3.83,9.74-4.08,9.71-3.06,5.18-2.08,2.82-5.25,3.43-8.19,4.37-12,4.75-10.1,3.29-11.42,2.3L958.88,999l-5,.32-9.17.6-7.43.23-1.88-.21-4.31-.48L923.56,998l-8.21-3.27L895.41,988l-12.53-2.79-7.94-1.79-5.52-.91h-5.33L853,984.19l-37.2,6.26-6.26,2-5.88,3.25L794,1002l-15,10.59-20.25,13.3-7.35,3.64-7.28,2.09-14.53,4-2,.49-7.08,1.71-7.21.3-5.31-1.29-1.68-.66-2.7-1.58-4.74-5-5.18-8.49-3-4-4.06-2.71-8.49-2.63-10.74-2.92-10.06-3.24-3.69-1.72-2.32-1.93-1.21-1-3.75-5.56-6-10.07-4.66-5.63-7.66-3.83-17.65-5.26-3.9-.08-4.66,1.13-20.06,6.76-28.16,9.77-7.44,4.05-15,10.44-11.79,8.19-5.18,2.7-9.09,2-19.16,2.55-4,2.33-3.38,3.31-2.78,6.16-6.61,16-3.23,4.59-4.21,4.28-5.41,3.38-6.23,2.4-5,1.06-24.11-2-19.75-1.87-12-1.2L335,1042c-.51,1.14-1,2.23-1.18,2.63-.45,1-2.64,6-2.64,6l-2.57,6.15-5.14,12.32-5.14,12.32-5,12.42-10,24.85-5,12.42-2.5,6.21-1.25,3.1-1.15,3.16c-3,8.45-6.54,16.68-9.88,25l-10.14,24.89-20.1,49.47-1,3.25-12.08,29.23-11.42,28.95-.88,2.83.79,11.65.65,12.83.64,12.82c.09,2.14.3,4.28.19,6.42l-.05,3.22,0,1.61c0,.29,0,.52,0,.73l0,1-.33,5.61c0,.89-.16,1.8-.24,2.71l-.33,3.18-3,10.84c-2.17,5.9-4,10.61-5.79,16.55l-4.54,11.34-6.75,10.68-7.95,10.31-3.89,5-4.38,5.48-7.5,6.16-9.71,4.82-3.92,1.25-4.17.59c-1.23.17-2.4.22-3.6.33l-7.17.59-14.34,1.18s-6-2.13-7.95-2.61a29.61,29.61,0,0,0-9.55-.65,19.12,19.12,0,0,0-3.87,1.93l-2.25,1.55-4.2,3.87-29.1,32.64-41.72,46.83L30.52,1551.2,19,1562.42l-8.67,7.83-7.37,6.32-4.1,3.72-6.59,3.84L-20.15,1589l-9.39,3.53-6.85,3.32-5,4.37-5,5.15-2.22,3.13-.79,3.72.33,4.63,2.68,8.21,3.06,10.44,1,3.3,1.74,5.47,1.76,7-.13,8.17-2.22,6.85-9.27,13.45-2.87,6.72-2.35,4.64-.59,3.86.91,4.89,1.89,3.72,3,5.36.72,3.59v5.35l-2,5L-54,1735.32l-2.85,11.32-7.91,27.77L-69,1782l-12.23,17.46-3.16,6.39-1.58,7.63-3.37,33.54-2,17.74-1.59,7.56-3.16,6.46-6.18,7.15-9,6.73-5.64,4-3.5,5-1.65,3.5-2.68,9.08-2.06,7-1.93,4.81-1.85,2.89-7.5,7.14-12.09,9.08-6.88,4.33-3.3,5-2.68,11.06-.52,2.18-4.08,11-3,3.09-3.85,3.16-7.35,2.27-9.21,1.92-8.25,2.2-6.67,2.48-6,3.57-7.35,6.12-19.25,22.61-4.81,5.43-2.41,5.64-1.44,9.07-1.92,4.67-3.1,4.13-3.78,3.09-5.77,3.92-3.92,1.65-9.34,2.54-4.61,2.13-24.75,19.19-11.27,9.48-1.58,3.16-2.55,7.42-5.08,14.85-7.29,13.4-5.36,6-5,3.78-5.09,3.37-18.7,8.25-29.42,11.89-2.55,1.11-12.91,5.21-4.51,2.56-2.56,3.29-3.05,5.85-3.53,9.5-2.19,5.12-22.18,23.64-5.48,5.49-2.44,4.87-1.22,5.36-2.19,11.94-1.46,4.75-5.61,3.17-7.79,3.17-7.32,3.9-4,3.65-4.14,7.68-3.78,8.05-4.51,9.5-2.28,5-2.32,9.86-.73,5.26-2.2,8.34-4.95,5.6M2032.18,923.87c-2.72-.44-5.45-.79-8.17-1.19l-4.09-.58c-1.35-.21-2.72-.39-4.1-.48l-8.43-.73-19.12-2.81-9.49-1.41L1974,916c-.79-.12-1.57-.22-2.41-.4l-2.18-.42-28.08-3-3.56-.37-3.51-.49-7-1c-4.67-.51-9.33-.85-14-1.28l-14.07-1.19L1885,907l-7.11-.42-3.55-.21c-1.18-.1-2.71-.2-3.83-.4l-14-2.19-14.74-1.2-14.94-1.54L1812,899.54c-5-.49-10-1.1-14.93-1.67m.12,0-100.56-10c-16.68-1.69-33.44-3.07-50.26-4.66l-50.28-5q-12.58-1.23-25.18-2.59l-12.61-1.43-6.3-.77c-2-.23-4-.45-6-.6-8.1-.66-16.42-.71-24.89-.89-4.22-.07-8.58-.24-12.75-.41l-12.61-.49-12.62-.5c-4.2-.15-8.41-.32-12.62-.58l-25.26-1.42-50.52-2.82"/></g><g id="鹿野"><path class="cls-3" d="M294.59,152.91c3.43,0,6.86.13,10.29.05l10.28-.38,20.56-.75,35.18,3.07,31.51,6.94,6.59,8.79,12.19,5L449.54,183l29,5.45,24.77,7.08M-1446.51,1957.83l-1.85.34-1.6.42-1.79.78-1.58.89-18.94,16.53-.78.67-40.28,34.53,4.77,6.1,5.12,8,2.86,5.54,9.6,17.63-8.16,4.71m324.71-76.9-3.45.35-7.63-.28-6.43-.35-4.11-.5-57.17-6.87-.86-.1-6.5-.52-.88-.11-15.3-2-15.74-2.18-20.67-2.87-19.61-2.73-9.08-.81-20.54-1.85-18.55.45-17.55.43-2.91.07-43,.55-2.13.14-2.59-2.3-1.94-1.33-16.43-10.49-3.17-1.85-29.93-18.75-7.25-5.64-5.37-5.77-4.43-6-1.33-3.15-16,3-7.85,1.41-8.17,1.48-3.39.61-19.39,3.51-.54.1-41.79,7.86-19.79,3.72m83.09-208.16-16.15.75-13.82.88-4.8.31-25,1.08-16,.7-32.09,2-.82,1-.25,1.07,2.63,17.72.36,2.31,5,27.48.86,5.33.55,2.84,3.34,17.29,12.92,71.27.55,10.89-.33,24.4m-2.64-1256.66-3.58-12.29-.41-2.5-.66-5.54-.65-5.71,2.12-3.26,4.9-4.08,2.28-1.95,1.63-2.78-.65-3.42-3-13.94-1.37-6.69-1.9-9.51-.42-4-.4-3.49-1.27-11.37-1.94-18-21.24.91-4.15.11-23,.63-7.4.15h-.84l-.49,0-23.3.86-31.72,1.06,1.34,51.2.92,44,0,18.61.51,14,.72,5.1,1,4.75,1.23,4.29,2.89,8.53,6.57,12.9,7.89,15.57,10.82,21.07,6.68,14.33L-1711,769l1.47,7.13,4.2,19.72,5.23,30.49,1.62,7.22,4.15,21.64.36,6.68-.9,13.89.36,7.93,2.71,6.32,4.32,6.31,6.14,4.87,9.92,4,7.4,2.7,7.57,1.09,3.77.08,6.88.46,7.4-.9,10.46-1.09,2.89-.36,8.11,1.09,7.94,4.15,2.09,2.33,4,4.52,2.53,3.61,2.82,6.4.9,24.46,1.89,28.07,1.91,28.1,1.83,51.32,3.91,58.71,1,17.12,2.16,39,.4,7.34,1.73,31.93.63,10.79,2,35.2v4.29l.11.53.25,4.22.18,3.32,3,49.88,5.2,85.5,3.21,52.46,2.14,37.39,2.5,44.2.07,1.68.84,18.68,2.34,46.43,3.25,50.85,1.69,26.3,1.61,29.06M-258.41,226.33c-5.64,3.35-12.37,6.34-17.29,10.72a95.26,95.26,0,0,0-15,16.28c-3.95,5.62-6.14,11.93-9.44,17.86-3.2,5.73-8.34,11.4-13.11,15.82-5.08,4.71-11.24,7.84-17.21,11.25s-12,6.74-17.9,10.31c-11.68,7.07-23.48,14.54-36,20.1-6.59,2.93-13.23,4-20.34,4.81-6.9.81-13.42-.33-20.14-1.44-6.34-1.05-13.81.65-20,2.14-7.3,1.76-14.34,4.71-21.42,7.2-13.35,4.7-26.47,10.05-39.74,15-2.4.89-4.79,1.82-7.21,2.66a30.16,30.16,0,0,1-11,1.65c-6.47,0-14.23-3.68-20.38-5.64a123.54,123.54,0,0,1-18.13-7.16c-5.92-3-10.93-7.76-15.87-12.11C-589,326.54-599.3,317-609.67,307.68c-5-4.54-11.16-9.16-15.06-14.75-3.63-5.21-3.26-13.29-3.4-19.41-.16-6.87,0-14.24-1.52-21s-9.13-9.59-14.86-12.31c-12.71-6-25.18-12.59-37.67-19.09-3.21-1.67-6.39-3.83-10-4.59-3.32-.7-6.54-.13-9.87.22-7.39.8-14.85,1.13-22.27,1.68-3.33.24-7.14,0-10.4.75-2.65.6-5.61,2.44-7.88,4-6.09,4.12-11.1,10.65-16.32,15.82-4.43,4.4-8.62,9.12-14.43,11.67-4.92,2.14-10.74,2.59-16,3.08-3.75.35-5.87.44-9.24-1.22a22.75,22.75,0,0,1-6.12-3.87c-4.59-4.49-8.78-11.54-15.82-12-8.18-.51-11.8,5.88-14.26,12.74s-3.82,14.23-5.63,21.24c-1.49,5.8-2.59,11.78-3.5,17.69-1,6.74-2.73,14.22-2.75,21,0,7.32,1.12,14.4-.09,21.68-.45,2.78-1.2,6.49-2.9,8.81-1.88,2.57-5.07,3.6-7.75,5-2.23,1.2-7.62,2.52-8.85,4.85-1.49,2.84,1.14,6.26,2.59,8.34m0,0a174.92,174.92,0,0,0-16.81,19.06c-4.89,6.32-9.2,12.17-16.45,15.87a79.79,79.79,0,0,1-22,7.35c-16.4,3.17-33.06,6.42-49.06,11.29-15.51,4.73-29.95,12.49-45,18.44-14.73,5.81-29.82,10.5-45,15.06-17.34,5.22-34.75,10.26-52,15.71-7.2,2.28-14.76,5.63-22.16,6.9-8.9,1.53-17.11,1.13-26.08.43-7.14-.56-14.41-2.75-21.26-4.78q-12.16-3.6-24.23-7.58c-8.24-2.72-16.55-6.1-24.93-8.36-7.48-2-15.18-2.75-22.59-5.14-16.22-5.23-32.18-10.7-47.43-18.37-15.08-7.59-29.71-16.09-44.58-24.08-14-7.51-28.14-15-44.21-16.55-17.55-1.7-35,3.2-52.08,6.46-1.36.26-1.52.07-1.9.95-.69,1.63.59,5.84.77,7.62.08.79.77,3.23.39,3.94-.23.46-.55.29-1,.68-1.49,1.16-4.17,1.54-5.94,2.28-7.78,3.25-15.25,7.28-23,10.65a81.43,81.43,0,0,0-9.6,4.85c-3.51,2.11-7.36,3.46-10,6.73-2.2,2.78-4,5.83-6,8.77-2.12,3.16-4.91,6.22-6.39,9.74-3.23,7.73-4.92,16.46-7.27,24.5s-3.22,16.18-6.24,24a82.77,82.77,0,0,1-11.3,20.88c-4.38,5.76-12.15,11.87-12.86,19.35-.35,3.65,2.45,7.58,3.51,11.13,1.22,4.09,2.3,8.23,3.44,12.34,2.15,7.67,3.75,16,7,23.29a17.36,17.36,0,0,0,2.58,4c.89,1.11,4.17,4,4.34,5.44.34,2.89-5.7,5.28-7.53,6.62-7.73,5.65-15.22,11.64-22.82,17.46-2.66,2-5.41,4.81-8.37,6.4-2.8,1.49-6.69,1.33-9.77,1.56-8.24.63-16.5,1.17-24.74,1.81-7.88.62-15.57.89-23.23,2.82-8.89,2.24-17.77,4.55-26.65,6.82M294.59,152.91l-19-.19-24.65-2-3.08-.25-3.06-.45-6.12-.9-12.23-1.79-8.28-.53c-25.32,4.9-50.67,9.67-76,14.69l-38,7.48c-12.65,2.53-25.35,4.77-38,7.18l-34.41,3.19-6.48.3-12.59.59-18.45-4.11-37.6,4.7-36,10-20.24,4-18.45,0-36.6-6.6-33.76.92-34.5,18-35.53,19.15M25.35,179.63l1.79,32.18M-1648.11,2046.42l11.1-23,1.19-2.49,5-13,1.19-4,.76-3.82-.19-6.33-1.32-7.32-1.32-8.34-1.75-10.71-.53-7.73-.41-4.8-1.49-30.64.08-3.27.09-4.1-.19-13.48M643.44,227.91l-8.84,40.87,12.65,31.36m1076.85,221-85.17-11.37-85.13-11.72L1532,493.27l-15.82-13.37c-9.64-10.52-19.17-21.16-28.91-31.58L1457.06,418c-5.46-4.05-10.88-8.16-16.37-12.17l-16.94-11.37-42.45-11-43.06-8.28L1298,380.33l-40.15.62-31.47-2.12-14.91-4.57c-5.42-1.59-10.77-3.48-16.15-5.26l-32.24-10.79-32.23-11-16.12-5.51c-5.36-1.84-10.67-3.79-16-5.68l-32-11.43c-5.36-1.84-10.62-4-15.91-6L1035,312.4l-31.7-12.33c-5.34-2-35.76-2.33-35.76-2.33l-28.67-7.88c-4.76-1.35-9.57-2.56-14.37-3.77l-14.41-3.65-28.82-7.29c-2.4-.6-4.8-1.24-7.21-1.81l-7.28-1.48-14.56-3-29-6.73c-9.64-2.27-19.33-4.33-29-6.51l-29-6.45c-2.41-.58-4.85-1-7.29-1.42l-7.32-1.29L736,243.93c-19.52-3.43-39-6.93-58.57-10.22l-29.3-5-14.65-2.5c-2.44-.43-4.89-.79-7.32-1.29l-7.27-1.52-29.1-6.09-14.54-3-7.28-1.52c-2.43-.47-4.8-1.22-7.2-1.82L532,203.33l-14.37-3.8-7.18-1.92-7.14-2m1220.8,325.6,86,11.74,43,5.72c14.31,2.1,28.56,4.53,42.86,6.69l86,11.2,85.95,11.75,19-.68,35.3-9.54,17.65-4.77,8.83-2.38,8.91-2.07,51.09-11.8"/><path class="cls-6" d="M294.59,152.91c3.43,0,6.86.13,10.29.05l10.28-.38,20.56-.75,35.18,3.07,31.51,6.94,6.59,8.79,12.19,5L449.54,183l29,5.45,24.77,7.08M-1446.51,1957.83l-1.85.34-1.6.42-1.79.78-1.58.89-18.94,16.53-.78.67-40.28,34.53,4.77,6.1,5.12,8,2.86,5.54,9.6,17.63-8.16,4.71m324.71-76.9-3.45.35-7.63-.28-6.43-.35-4.11-.5-57.17-6.87-.86-.1-6.5-.52-.88-.11-15.3-2-15.74-2.18-20.67-2.87-19.61-2.73-9.08-.81-20.54-1.85-18.55.45-17.55.43-2.91.07-43,.55-2.13.14-2.59-2.3-1.94-1.33-16.43-10.49-3.17-1.85-29.93-18.75-7.25-5.64-5.37-5.77-4.43-6-1.33-3.15-16,3-7.85,1.41-8.17,1.48-3.39.61-19.39,3.51-.54.1-41.79,7.86-19.79,3.72m83.09-208.16-16.15.75-13.82.88-4.8.31-25,1.08-16,.7-32.09,2-.82,1-.25,1.07,2.63,17.72.36,2.31,5,27.48.86,5.33.55,2.84,3.34,17.29,12.92,71.27.55,10.89-.33,24.4m-2.64-1256.66-3.58-12.29-.41-2.5-.66-5.54-.65-5.71,2.12-3.26,4.9-4.08,2.28-1.95,1.63-2.78-.65-3.42-3-13.94-1.37-6.69-1.9-9.51-.42-4-.4-3.49-1.27-11.37-1.94-18-21.24.91-4.15.11-23,.63-7.4.15h-.84l-.49,0-23.3.86-31.72,1.06,1.34,51.2.92,44,0,18.61.51,14,.72,5.1,1,4.75,1.23,4.29,2.89,8.53,6.57,12.9,7.89,15.57,10.82,21.07,6.68,14.33L-1711,769l1.47,7.13,4.2,19.72,5.23,30.49,1.62,7.22,4.15,21.64.36,6.68-.9,13.89.36,7.93,2.71,6.32,4.32,6.31,6.14,4.87,9.92,4,7.4,2.7,7.57,1.09,3.77.08,6.88.46,7.4-.9,10.46-1.09,2.89-.36,8.11,1.09,7.94,4.15,2.09,2.33,4,4.52,2.53,3.61,2.82,6.4.9,24.46,1.89,28.07,1.91,28.1,1.83,51.32,3.91,58.71,1,17.12,2.16,39,.4,7.34,1.73,31.93.63,10.79,2,35.2v4.29l.11.53.25,4.22.18,3.32,3,49.88,5.2,85.5,3.21,52.46,2.14,37.39,2.5,44.2.07,1.68.84,18.68,2.34,46.43,3.25,50.85,1.69,26.3,1.61,29.06M-258.41,226.33c-5.64,3.35-12.37,6.34-17.29,10.72a95.26,95.26,0,0,0-15,16.28c-3.95,5.62-6.14,11.93-9.44,17.86-3.2,5.73-8.34,11.4-13.11,15.82-5.08,4.71-11.24,7.84-17.21,11.25s-12,6.74-17.9,10.31c-11.68,7.07-23.48,14.54-36,20.1-6.59,2.93-13.23,4-20.34,4.81-6.9.81-13.42-.33-20.14-1.44-6.34-1.05-13.81.65-20,2.14-7.3,1.76-14.34,4.71-21.42,7.2-13.35,4.7-26.47,10.05-39.74,15-2.4.89-4.79,1.82-7.21,2.66a30.16,30.16,0,0,1-11,1.65c-6.47,0-14.23-3.68-20.38-5.64a123.54,123.54,0,0,1-18.13-7.16c-5.92-3-10.93-7.76-15.87-12.11C-589,326.54-599.3,317-609.67,307.68c-5-4.54-11.16-9.16-15.06-14.75-3.63-5.21-3.26-13.29-3.4-19.41-.16-6.87,0-14.24-1.52-21s-9.13-9.59-14.86-12.31c-12.71-6-25.18-12.59-37.67-19.09-3.21-1.67-6.39-3.83-10-4.59-3.32-.7-6.54-.13-9.87.22-7.39.8-14.85,1.13-22.27,1.68-3.33.24-7.14,0-10.4.75-2.65.6-5.61,2.44-7.88,4-6.09,4.12-11.1,10.65-16.32,15.82-4.43,4.4-8.62,9.12-14.43,11.67-4.92,2.14-10.74,2.59-16,3.08-3.75.35-5.87.44-9.24-1.22a22.75,22.75,0,0,1-6.12-3.87c-4.59-4.49-8.78-11.54-15.82-12-8.18-.51-11.8,5.88-14.26,12.74s-3.82,14.23-5.63,21.24c-1.49,5.8-2.59,11.78-3.5,17.69-1,6.74-2.73,14.22-2.75,21,0,7.32,1.12,14.4-.09,21.68-.45,2.78-1.2,6.49-2.9,8.81-1.88,2.57-5.07,3.6-7.75,5-2.23,1.2-7.62,2.52-8.85,4.85-1.49,2.84,1.14,6.26,2.59,8.34m0,0a174.92,174.92,0,0,0-16.81,19.06c-4.89,6.32-9.2,12.17-16.45,15.87a79.79,79.79,0,0,1-22,7.35c-16.4,3.17-33.06,6.42-49.06,11.29-15.51,4.73-29.95,12.49-45,18.44-14.73,5.81-29.82,10.5-45,15.06-17.34,5.22-34.75,10.26-52,15.71-7.2,2.28-14.76,5.63-22.16,6.9-8.9,1.53-17.11,1.13-26.08.43-7.14-.56-14.41-2.75-21.26-4.78q-12.16-3.6-24.23-7.58c-8.24-2.72-16.55-6.1-24.93-8.36-7.48-2-15.18-2.75-22.59-5.14-16.22-5.23-32.18-10.7-47.43-18.37-15.08-7.59-29.71-16.09-44.58-24.08-14-7.51-28.14-15-44.21-16.55-17.55-1.7-35,3.2-52.08,6.46-1.36.26-1.52.07-1.9.95-.69,1.63.59,5.84.77,7.62.08.79.77,3.23.39,3.94-.23.46-.55.29-1,.68-1.49,1.16-4.17,1.54-5.94,2.28-7.78,3.25-15.25,7.28-23,10.65a81.43,81.43,0,0,0-9.6,4.85c-3.51,2.11-7.36,3.46-10,6.73-2.2,2.78-4,5.83-6,8.77-2.12,3.16-4.91,6.22-6.39,9.74-3.23,7.73-4.92,16.46-7.27,24.5s-3.22,16.18-6.24,24a82.77,82.77,0,0,1-11.3,20.88c-4.38,5.76-12.15,11.87-12.86,19.35-.35,3.65,2.45,7.58,3.51,11.13,1.22,4.09,2.3,8.23,3.44,12.34,2.15,7.67,3.75,16,7,23.29a17.36,17.36,0,0,0,2.58,4c.89,1.11,4.17,4,4.34,5.44.34,2.89-5.7,5.28-7.53,6.62-7.73,5.65-15.22,11.64-22.82,17.46-2.66,2-5.41,4.81-8.37,6.4-2.8,1.49-6.69,1.33-9.77,1.56-8.24.63-16.5,1.17-24.74,1.81-7.88.62-15.57.89-23.23,2.82-8.89,2.24-17.77,4.55-26.65,6.82M294.59,152.91l-19-.19-24.65-2-3.08-.25-3.06-.45-6.12-.9-12.23-1.79-8.28-.53c-25.32,4.9-50.67,9.67-76,14.69l-38,7.48c-12.65,2.53-25.35,4.77-38,7.18l-34.41,3.19-6.48.3-12.59.59-18.45-4.11-37.6,4.7-36,10-20.24,4-18.45,0-36.6-6.6-33.76.92-34.5,18-35.53,19.15M25.35,179.63l1.79,32.18M-1648.11,2046.42l11.1-23,1.19-2.49,5-13,1.19-4,.76-3.82-.19-6.33-1.32-7.32-1.32-8.34-1.75-10.71-.53-7.73-.41-4.8-1.49-30.64.08-3.27.09-4.1-.19-13.48M643.44,227.91l-8.84,40.87,12.65,31.36m1076.85,221-85.17-11.37-85.13-11.72L1532,493.27l-15.82-13.37c-9.64-10.52-19.17-21.16-28.91-31.58L1457.06,418c-5.46-4.05-10.88-8.16-16.37-12.17l-16.94-11.37-42.45-11-43.06-8.28L1298,380.33l-40.15.62-31.47-2.12-14.91-4.57c-5.42-1.59-10.77-3.48-16.15-5.26l-32.24-10.79-32.23-11-16.12-5.51c-5.36-1.84-10.67-3.79-16-5.68l-32-11.43c-5.36-1.84-10.62-4-15.91-6L1035,312.4l-31.7-12.33c-5.34-2-35.76-2.33-35.76-2.33l-28.67-7.88c-4.76-1.35-9.57-2.56-14.37-3.77l-14.41-3.65-28.82-7.29c-2.4-.6-4.8-1.24-7.21-1.81l-7.28-1.48-14.56-3-29-6.73c-9.64-2.27-19.33-4.33-29-6.51l-29-6.45c-2.41-.58-4.85-1-7.29-1.42l-7.32-1.29L736,243.93c-19.52-3.43-39-6.93-58.57-10.22l-29.3-5-14.65-2.5c-2.44-.43-4.89-.79-7.32-1.29l-7.27-1.52-29.1-6.09-14.54-3-7.28-1.52c-2.43-.47-4.8-1.22-7.2-1.82L532,203.33l-14.37-3.8-7.18-1.92-7.14-2m1220.8,325.6,86,11.74,43,5.72c14.31,2.1,28.56,4.53,42.86,6.69l86,11.2,85.95,11.75,19-.68,35.3-9.54,17.65-4.77,8.83-2.38,8.91-2.07,51.09-11.8"/></g><g id="東郷"><path class="cls-3" d="M1927.29,1179.75l-3.62-19.66-17.15-96.58-.76-4.27-7.45-37.86-1.23-5.54-1.64-8.65-.37-1.68-1.54-7-2.38-10.9L1888.6,978l-3-11.43-.64-3-1.75-8-3.12-14.83-.42-2-2.7-12.13-1.57-8.4,1.63.1,7.13.42,14.25.84,13.87,1.17c4.56.43,9.09.76,13.68,1.25l7,1,3.49.48,3.62.38,27.69,2.93,1.84.36c1,.21,1.72.3,2.53.42l4.8.72,9.59,1.42,19.58,2.88,8.52.73c1.34.09,2.65.26,4,.47l3.93.56c2.62.38,5.22.71,7.85,1.14m-22,154.83-16.74,17.9-16,17.92-15.33,16.85-16.91,18.72L1932.57,1174l-3,3.42-2.33,2.29-3,3.33-25.2,31-4.9,4.74-9.36,5.74-1.38.69-1.09.57-4,2.41-2,.79-10.55,7.3-24.36,25-13.91,15-22.2,24-17.49,18.7-32.13,35.1-1.16,1.17-5.19,5.67-23.8,25.71-7.35,7.94-9.42,10.17-6.57,7.11-5.62,5.16-4.33,3.54-4.17,2.69-2.25,1.46-14.44,5.65-8.86,3.5-6.79,5.08-4.17,3.47-13.31,10.61-3.15,2.76-2.24,2-25.41,20.73-1.11,1.15-3,3.16-3.54,4.34-1.12,2.09-1.76,3.55-1,3-2.23,11.13-1.94,15.13-1.65,12.63-1.72,20.86-1.75,12.89-.82,6.78-1.91,7.9-1.44,4-1.93,4.66-3,4.69-25.32,32.86-6.43,9-6.75,9.67-2.31,3.68-14.5,24.35L1506.6,1702l-5.76,9.67-14.78,26.77-3.52,6.26-4.52,8.43-4.12,5.3-8,9.8-4.33,4.38-4.48,3.69-18,13.38-10.41,6.92-11.22,7.44-32.33,24.13-2.63,2.46-4.63,6.12-5.61,8.86-5.94,12.21-4.34,7.58-1.74,1.94-3.89,4.12-4.61,4.41-.82.68-6.59,5.61-5.58,4.34-26.16,19.82-19.07,14.84-3.08,2.86-5.73,5.34-16.51,18.53-14.44,18.53-.3.34-1.56,2.18-1,1.49-4.33,8.86-2.26,3.72-2.75,4.2-4.47,5.32-4.17,3.72-3.84,3.54-2.89,4.49L1214.67,2027l-4.5,7.41-3.68,3.85-6.75,5.15-1.26,1-2.09,2.43-2.4,3.38-6.24,10.95-3.21,3.4-13.33,9.18-6.73,5.35-3.21,3.2-2.1,3.09-1.44,3.66-.47,2.12-2.4,16.47-1,2.57-1.59,1.6-13.63,10.46-9.15,6.95-5.28,4.8-7.87,8.24-2.57,3.86-3.53,6.11-2.73,6.61-9.38,23.11-1.31,3.31-6.54,16.44-8.06,18.84-6.1,12.72-14.7,28.16-.53,1-2.4,3.06-18.75,20-3.22,4-2.09,3.23-1.59,2.61-3,6.42-4,10.47-18,47.06-.74,1.43-1,.88-8.13,7-3.05,2.58-5.63,6.17-6.1,7.72-4.64,6.78-2.09,3.69-16,28.56-3.69,6.74-6.1,12.09-4.47,8.07L939.86,2463l-4.33,7.87-4.64,7.42-12.81,13.36-4.66,5.8-5.61,8.72L888.25,2540l-2.07,2.91-13.95,11.75-3.7,4.83-1.26,3.06L866,2566.9l-5.93,34.95-2.56,16.27v.26h0l-.16,4.26.49,4.17,8.18,39.48,2.07,7.71,1.58,3.41,3.56,5.31,1.26,3.06v3.72L873.2,2693l-2.75,5-15.21,21.93-4,7.72-.6,1.34-4.34,9.46-.95,2.14-1.35,1.86-21,25.67-5.45,7.75-1.54,1.86-2.42,3.25-4.91,8.18-3.52,2.74-4,2.75-3.52,3.85-.13.35-8.2,11.26M2082.64,946.46l-3.82,5.34c-1.63,2.2-3.17,4.63-4.77,7s-3.05,4.82-4.5,7.26l-4,6.74-1.58,2.41-.39.76-9.1,11.79-2.95,5.5-1,1.29c-.59.75-1,1.38-1.51,2.07l-2.92,4.07-5.85,8.14-2.91,4.08-2.8,4.11-4.62,6.79-4,3.25-6.89,9.52-1.82,3.8-1.19,4.5-.74,6,.09,5.91-2,24-.38,4.53-4.65,5"/><path class="cls-4" d="M1927.29,1179.75l-3.62-19.66-17.15-96.58-.76-4.27-7.45-37.86-1.23-5.54-1.64-8.65-.37-1.68-1.54-7-2.38-10.9L1888.6,978l-3-11.43-.64-3-1.75-8-3.12-14.83-.42-2-2.7-12.13-1.57-8.4,1.63.1,7.13.42,14.25.84,13.87,1.17c4.56.43,9.09.76,13.68,1.25l7,1,3.49.48,3.62.38,27.69,2.93,1.84.36c1,.21,1.72.3,2.53.42l4.8.72,9.59,1.42,19.58,2.88,8.52.73c1.34.09,2.65.26,4,.47l3.93.56c2.62.38,5.22.71,7.85,1.14m-22,154.83-16.74,17.9-16,17.92-15.33,16.85-16.91,18.72L1932.57,1174l-3,3.42-2.33,2.29-3,3.33-25.2,31-4.9,4.74-9.36,5.74-1.38.69-1.09.57-4,2.41-2,.79-10.55,7.3-24.36,25-13.91,15-22.2,24-17.49,18.7-32.13,35.1-1.16,1.17-5.19,5.67-23.8,25.71-7.35,7.94-9.42,10.17-6.57,7.11-5.62,5.16-4.33,3.54-4.17,2.69-2.25,1.46-14.44,5.65-8.86,3.5-6.79,5.08-4.17,3.47-13.31,10.61-3.15,2.76-2.24,2-25.41,20.73-1.11,1.15-3,3.16-3.54,4.34-1.12,2.09-1.76,3.55-1,3-2.23,11.13-1.94,15.13-1.65,12.63-1.72,20.86-1.75,12.89-.82,6.78-1.91,7.9-1.44,4-1.93,4.66-3,4.69-25.32,32.86-6.43,9-6.75,9.67-2.31,3.68-14.5,24.35L1506.6,1702l-5.76,9.67-14.78,26.77-3.52,6.26-4.52,8.43-4.12,5.3-8,9.8-4.33,4.38-4.48,3.69-18,13.38-10.41,6.92-11.22,7.44-32.33,24.13-2.63,2.46-4.63,6.12-5.61,8.86-5.94,12.21-4.34,7.58-1.74,1.94-3.89,4.12-4.61,4.41-.82.68-6.59,5.61-5.58,4.34-26.16,19.82-19.07,14.84-3.08,2.86-5.73,5.34-16.51,18.53-14.44,18.53-.3.34-1.56,2.18-1,1.49-4.33,8.86-2.26,3.72-2.75,4.2-4.47,5.32-4.17,3.72-3.84,3.54-2.89,4.49L1214.67,2027l-4.5,7.41-3.68,3.85-6.75,5.15-1.26,1-2.09,2.43-2.4,3.38-6.24,10.95-3.21,3.4-13.33,9.18-6.73,5.35-3.21,3.2-2.1,3.09-1.44,3.66-.47,2.12-2.4,16.47-1,2.57-1.59,1.6-13.63,10.46-9.15,6.95-5.28,4.8-7.87,8.24-2.57,3.86-3.53,6.11-2.73,6.61-9.38,23.11-1.31,3.31-6.54,16.44-8.06,18.84-6.1,12.72-14.7,28.16-.53,1-2.4,3.06-18.75,20-3.22,4-2.09,3.23-1.59,2.61-3,6.42-4,10.47-18,47.06-.74,1.43-1,.88-8.13,7-3.05,2.58-5.63,6.17-6.1,7.72-4.64,6.78-2.09,3.69-16,28.56-3.69,6.74-6.1,12.09-4.47,8.07L939.86,2463l-4.33,7.87-4.64,7.42-12.81,13.36-4.66,5.8-5.61,8.72L888.25,2540l-2.07,2.91-13.95,11.75-3.7,4.83-1.26,3.06L866,2566.9l-5.93,34.95-2.56,16.27v.26h0l-.16,4.26.49,4.17,8.18,39.48,2.07,7.71,1.58,3.41,3.56,5.31,1.26,3.06v3.72L873.2,2693l-2.75,5-15.21,21.93-4,7.72-.6,1.34-4.34,9.46-.95,2.14-1.35,1.86-21,25.67-5.45,7.75-1.54,1.86-2.42,3.25-4.91,8.18-3.52,2.74-4,2.75-3.52,3.85-.13.35-8.2,11.26M2082.64,946.46l-3.82,5.34c-1.63,2.2-3.17,4.63-4.77,7s-3.05,4.82-4.5,7.26l-4,6.74-1.58,2.41-.39.76-9.1,11.79-2.95,5.5-1,1.29c-.59.75-1,1.38-1.51,2.07l-2.92,4.07-5.85,8.14-2.91,4.08-2.8,4.11-4.62,6.79-4,3.25-6.89,9.52-1.82,3.8-1.19,4.5-.74,6,.09,5.91-2,24-.38,4.53-4.65,5"/></g><g id="松上"><path class="cls-3" d="M2036,900.74c-2.9-.48-5.86-.85-8.8-1.28l-4.41-.63c-1.47-.22-2.93-.41-4.4-.51l-8.25-.72-18.2-2.67-9.29-1.38-4.65-.69c-.76-.11-1.6-.22-2.18-.35L1973,892l-28.86-3.06-3.45-.36-3.56-.49-7.13-1c-4.83-.52-9.75-.89-14.63-1.35l-14.46-1.21-14.14-.84-7.06-.41-3.54-.21-.44,0-.28,0-.56-.05-.56,0-.81-.13-14.19-2.23-15.36-1.25-14.69-1.51-10.06-1L1807,893.13,1794.56,910l-9.93,12.56L1765.08,948l-15.87,20.83-1.93,2.75-1.94,2-7.68,9.56-3.49,4.63-1.53,2.57-3.83,6-4.4,6.71-9.41,14.9-7.78,10.05-4.81,5.93-4.88,5.7L1687.24,1050l-9.57,8.71-5.15,5.3-16.09,16.66-5,5-14.83,18-3.51,4.25-3.65,4.39-6.16,7.41-3.14,3.78-9.18,10.63-8.87,10.47-3.29,4.08-13.65,14.76-4.44,5.11-9.26,10.14v0l-.71.9-5,6.14-8.46,9.88-27.92,30.63L1512,1245.53l-11.58,12.84-5.77,6.42-3.07,3.38-2.46,2.72-.16,1.48-36.81,21.92-52.1,31.08-58.36,33-37.86,21.24-1,.83-3.8,2.16-10.31,5-9.49,4L1267.2,1396l-7.42,2-9.55,3.68-2.4,1-1.17.76-1.08.58-1.19,1.57-1,1.66-6.1,17.59-.88,2.52-1.09,1.34-.38.48-3,1.79-4.41,1.71-6.42,1.82-5.8,1.94-5.67,2.48-7.22,3.69-7.43,4.79-10.83,7.24-7,5.52L1163,1470.78l-8.8,7.12-7.72,7.06-5.25,5.55-9.6,10.73-10.19,11-6.75,6.65-6.35,5.94-15.51,13.93-23.51,19-12.19,10.72-34.19,29.59-12.25,9.92L976.71,1636l-26.93,21.91L937.09,1668l-1,.78-6.38,3.8-5.12,1.77-15.21,3.4-15.23,3.55-14.42,4-14.93,4.38-14.41,4-16.37,4-6.73.65-9.63,1-5.61,1.28-2.89,1.29-4.47,2.57-7.38,5.8-18.75,17.54-5.71,7.88-7.36,9.13-3.92,4.42-3.19,5.48-1.92,5.28-1.42,5.71-.43,5.15,0,5.92-4,.25-3.24,1.54-3.24,2.91-6.06,4.66-18.27,12.41-4.66,4-7.71,6.28-10.27,9.67-1.75,2.26-1.61,4.34-2.21,8.88-2.42,9-3.51,9.52-3.71,8.7-1.12,2.57-4.17,8.06-3.37,6.44-1.43,2.42-5.6,9.18-4.55,5.81-19.4,24.83-10.56,15.32-3.77,5.35-.81,2-.36,1.9.21,1.62,1,2.11,1,2-8.12,6.91-6.82,8.86-9.75,22.85-8.37,27.1-5.45,14.16-2.26,4.17-4.47,7-9.63,10.65-4.28,7.16-1,3.29-.81,3.74-1.42,10.93v16.1l.31,3.09v4.83l-1.12,4.66-8.5,15.15-21,35.6-6.08,9.83-6.24,10-4,5.63L503,2207l-3.51,5.8L496.9,2218l-4.33,10.32-1.44,3.55-3.84,10.28-3.38,8.87-11.27,30.33-1.07,2.89-4.8,14.49-.49,5L466,2321.1l-.49,4.86-1.11,5.63-1.59,4.52-2.72,4.83-11.39,19.64-1.94,3.2-8.84,16.44-10.72,21.67-5.94,12-3,5.8-2.89,3.86-2.09,2.89-13,12.58-6.9,7.43-3.84,5-4,6.6-4.17,8.06-1.93,6.29.16,4,1.77,8,.47,4.2-.47,5.14-.33,1.29-2.72,8.71-3.21,6.27-3.68,6-2.73,3.72-8.66,8.72-20.52,19-14.74,15.46-17.66,18.84-8.8,10.32-4,4.34-10.59,9.21h0l-19.9,16.61-5.14,5.15-2.23,2.89-1.45,3.85-.79,9.83-.63,2.61-1.15,2.57-3.18,4.8-1.94,1.78-15.2,13.2-10.6,7.55-4.48,2.12-3.53,1.28-3.68,1.11-9.62,1.63H184l-15.06-.82-11.53-.09-2.58.43-7.23,2.4-7.38,2.74-8,2.26-6.73,1.29-19.23,4.83-12.67,4-5.32,3.23-6.1,4.83-13,14.18-5.12,5-3.38,2.75-31.3,21.12-13.62,7.72-9.93,6.43-9.12,8.2-3,2.6-6.73,4.34-13.3,6.92-9.48,3.87-3.35,2.11-4.17,3.06-4.17,3.37-2.56,1.95-2.24,1.74-1,.48-4.66-2.8-1.47-.08-1.86.68L-75,2813.83l-12.35,11.46-9.94,8.21-15.4,14.49-3.84,2.09-1.91.65-4.14,1.35-4.83,1.57-3.88,2.22-11.71,7.9-4,2.14-10.47,1.4-10.38,2.75-7.89,2.56-5.94,3.24-1.42,1-8.32,6.74-8,6.92-18.75,18.09-17.14,16.72-5.31,6.63-11.37,17.24-6.42,8.52-34.47,41.41-4.4,4.46-5.59,4.49-9.66,6.33-15.26,6.82-10.34,5.72-9,8.07-4.63,4.74-1.9,1.63-1.91,2.5-6.83,10.87-9.6,13.12-7.41,7.49-5.11,2.06-4.8,1-6.87,1.92-10.53,1.72-17.61-.66-13.16-.14-11.52.8-64.45,7.4-4.16.63-7.53,1-8.5,2.12-11.22,4.83-12.18,5.8-19.89,8.69-12.18,5-50.14,18.29-4,1.49-2.91-4.46-4.36-4.35-5.1-5.79-1.74-.41-1.61.23-3.4,1.14-10.25,4.66-5.59,2.26-4.84,1.95h-4.47l-4.64-1.46-6.12-2.58-4-1.45-1.77-.52-1.91.38-2.1,1.11-5.12,4-5.77,4.17-5,2.92-21.78,10.14-6.42,3.86-6,5.49-3.74,3.34-2.33,1.52-3.17,1.86-6.78-1.75-6.08-1.12-8.66-1-5-.24-5.26.41-6.73,1-8,2.23-9.16,3-8,3.23-6.24,3.06-5.45,3.4-6.1,4.35-17,14.11-10.76,8.92-17.86,14.17-3.49,4.49-3.05,1.29-3.2.66-17.3.31-5.45.32-15.2,3.88-10.41,2.57-4.34,1.29-5.91,2.25-9.32,5.32-4.66,3.38-8.15,6.91-12,13.54-4.49,4.52-5.28,4.49-3.52,2.11-7.2,3.69-6.73,2.91-5.29,2.74-40.52,26.9-2.84,2-6.45,4.57-10.74,7.54-15,10.63-7.9,5.43-4.1,2.8-4,2.58-5.12,2.39-23.55,7.58-5.12,1.94-5.76,2.89-5,3.23-2.7,1.63-3.87,2.88-3.51,3.06-9,9.17-8,10.32-7.85,10.8L-1207,3412l-11.85,6.77-13.6,6.14-7.39,4.18-3.81,2.54-4.36,2.92-4,3.54-2.73,2.91-2.09,3.38-.63,2.08-1.4,8.83-4.51,28.52-.5,3.11-6.57,33.49-5.44,27-.33.49L-1282,3578l-1.89,9.17-.91,1.69-2,1.23-5.82,2-6,2.18-9,4.68-11.85,7.09-10.1,6.6-5.92,3.68-6.57,3.89"/><path class="cls-7" d="M2036,900.74c-2.9-.48-5.86-.85-8.8-1.28l-4.41-.63c-1.47-.22-2.93-.41-4.4-.51l-8.25-.72-18.2-2.67-9.29-1.38-4.65-.69c-.76-.11-1.6-.22-2.18-.35L1973,892l-28.86-3.06-3.45-.36-3.56-.49-7.13-1c-4.83-.52-9.75-.89-14.63-1.35l-14.46-1.21-14.14-.84-7.06-.41-3.54-.21-.44,0-.28,0-.56-.05-.56,0-.81-.13-14.19-2.23-15.36-1.25-14.69-1.51-10.06-1L1807,893.13,1794.56,910l-9.93,12.56L1765.08,948l-15.87,20.83-1.93,2.75-1.94,2-7.68,9.56-3.49,4.63-1.53,2.57-3.83,6-4.4,6.71-9.41,14.9-7.78,10.05-4.81,5.93-4.88,5.7L1687.24,1050l-9.57,8.71-5.15,5.3-16.09,16.66-5,5-14.83,18-3.51,4.25-3.65,4.39-6.16,7.41-3.14,3.78-9.18,10.63-8.87,10.47-3.29,4.08-13.65,14.76-4.44,5.11-9.26,10.14v0l-.71.9-5,6.14-8.46,9.88-27.92,30.63L1512,1245.53l-11.58,12.84-5.77,6.42-3.07,3.38-2.46,2.72-.16,1.48-36.81,21.92-52.1,31.08-58.36,33-37.86,21.24-1,.83-3.8,2.16-10.31,5-9.49,4L1267.2,1396l-7.42,2-9.55,3.68-2.4,1-1.17.76-1.08.58-1.19,1.57-1,1.66-6.1,17.59-.88,2.52-1.09,1.34-.38.48-3,1.79-4.41,1.71-6.42,1.82-5.8,1.94-5.67,2.48-7.22,3.69-7.43,4.79-10.83,7.24-7,5.52L1163,1470.78l-8.8,7.12-7.72,7.06-5.25,5.55-9.6,10.73-10.19,11-6.75,6.65-6.35,5.94-15.51,13.93-23.51,19-12.19,10.72-34.19,29.59-12.25,9.92L976.71,1636l-26.93,21.91L937.09,1668l-1,.78-6.38,3.8-5.12,1.77-15.21,3.4-15.23,3.55-14.42,4-14.93,4.38-14.41,4-16.37,4-6.73.65-9.63,1-5.61,1.28-2.89,1.29-4.47,2.57-7.38,5.8-18.75,17.54-5.71,7.88-7.36,9.13-3.92,4.42-3.19,5.48-1.92,5.28-1.42,5.71-.43,5.15,0,5.92-4,.25-3.24,1.54-3.24,2.91-6.06,4.66-18.27,12.41-4.66,4-7.71,6.28-10.27,9.67-1.75,2.26-1.61,4.34-2.21,8.88-2.42,9-3.51,9.52-3.71,8.7-1.12,2.57-4.17,8.06-3.37,6.44-1.43,2.42-5.6,9.18-4.55,5.81-19.4,24.83-10.56,15.32-3.77,5.35-.81,2-.36,1.9.21,1.62,1,2.11,1,2-8.12,6.91-6.82,8.86-9.75,22.85-8.37,27.1-5.45,14.16-2.26,4.17-4.47,7-9.63,10.65-4.28,7.16-1,3.29-.81,3.74-1.42,10.93v16.1l.31,3.09v4.83l-1.12,4.66-8.5,15.15-21,35.6-6.08,9.83-6.24,10-4,5.63L503,2207l-3.51,5.8L496.9,2218l-4.33,10.32-1.44,3.55-3.84,10.28-3.38,8.87-11.27,30.33-1.07,2.89-4.8,14.49-.49,5L466,2321.1l-.49,4.86-1.11,5.63-1.59,4.52-2.72,4.83-11.39,19.64-1.94,3.2-8.84,16.44-10.72,21.67-5.94,12-3,5.8-2.89,3.86-2.09,2.89-13,12.58-6.9,7.43-3.84,5-4,6.6-4.17,8.06-1.93,6.29.16,4,1.77,8,.47,4.2-.47,5.14-.33,1.29-2.72,8.71-3.21,6.27-3.68,6-2.73,3.72-8.66,8.72-20.52,19-14.74,15.46-17.66,18.84-8.8,10.32-4,4.34-10.59,9.21h0l-19.9,16.61-5.14,5.15-2.23,2.89-1.45,3.85-.79,9.83-.63,2.61-1.15,2.57-3.18,4.8-1.94,1.78-15.2,13.2-10.6,7.55-4.48,2.12-3.53,1.28-3.68,1.11-9.62,1.63H184l-15.06-.82-11.53-.09-2.58.43-7.23,2.4-7.38,2.74-8,2.26-6.73,1.29-19.23,4.83-12.67,4-5.32,3.23-6.1,4.83-13,14.18-5.12,5-3.38,2.75-31.3,21.12-13.62,7.72-9.93,6.43-9.12,8.2-3,2.6-6.73,4.34-13.3,6.92-9.48,3.87-3.35,2.11-4.17,3.06-4.17,3.37-2.56,1.95-2.24,1.74-1,.48-4.66-2.8-1.47-.08-1.86.68L-75,2813.83l-12.35,11.46-9.94,8.21-15.4,14.49-3.84,2.09-1.91.65-4.14,1.35-4.83,1.57-3.88,2.22-11.71,7.9-4,2.14-10.47,1.4-10.38,2.75-7.89,2.56-5.94,3.24-1.42,1-8.32,6.74-8,6.92-18.75,18.09-17.14,16.72-5.31,6.63-11.37,17.24-6.42,8.52-34.47,41.41-4.4,4.46-5.59,4.49-9.66,6.33-15.26,6.82-10.34,5.72-9,8.07-4.63,4.74-1.9,1.63-1.91,2.5-6.83,10.87-9.6,13.12-7.41,7.49-5.11,2.06-4.8,1-6.87,1.92-10.53,1.72-17.61-.66-13.16-.14-11.52.8-64.45,7.4-4.16.63-7.53,1-8.5,2.12-11.22,4.83-12.18,5.8-19.89,8.69-12.18,5-50.14,18.29-4,1.49-2.91-4.46-4.36-4.35-5.1-5.79-1.74-.41-1.61.23-3.4,1.14-10.25,4.66-5.59,2.26-4.84,1.95h-4.47l-4.64-1.46-6.12-2.58-4-1.45-1.77-.52-1.91.38-2.1,1.11-5.12,4-5.77,4.17-5,2.92-21.78,10.14-6.42,3.86-6,5.49-3.74,3.34-2.33,1.52-3.17,1.86-6.78-1.75-6.08-1.12-8.66-1-5-.24-5.26.41-6.73,1-8,2.23-9.16,3-8,3.23-6.24,3.06-5.45,3.4-6.1,4.35-17,14.11-10.76,8.92-17.86,14.17-3.49,4.49-3.05,1.29-3.2.66-17.3.31-5.45.32-15.2,3.88-10.41,2.57-4.34,1.29-5.91,2.25-9.32,5.32-4.66,3.38-8.15,6.91-12,13.54-4.49,4.52-5.28,4.49-3.52,2.11-7.2,3.69-6.73,2.91-5.29,2.74-40.52,26.9-2.84,2-6.45,4.57-10.74,7.54-15,10.63-7.9,5.43-4.1,2.8-4,2.58-5.12,2.39-23.55,7.58-5.12,1.94-5.76,2.89-5,3.23-2.7,1.63-3.87,2.88-3.51,3.06-9,9.17-8,10.32-7.85,10.8L-1207,3412l-11.85,6.77-13.6,6.14-7.39,4.18-3.81,2.54-4.36,2.92-4,3.54-2.73,2.91-2.09,3.38-.63,2.08-1.4,8.83-4.51,28.52-.5,3.11-6.57,33.49-5.44,27-.33.49L-1282,3578l-1.89,9.17-.91,1.69-2,1.23-5.82,2-6,2.18-9,4.68-11.85,7.09-10.1,6.6-5.92,3.68-6.57,3.89"/></g><g id="神戸"><path class="cls-3" d="M2085.42,985.24l4.26-7.16c1.3-2.2,2.56-4.43,4-6.49s2.75-4.23,4.34-6.36l5.59-7.8m-78,537.68,10.86-15.55,5.43-7.77,1.43-2.07a26.55,26.55,0,0,0,1.53-2.47,35.29,35.29,0,0,0,2.36-5.14c2.55-7,3.13-13.69,4.11-19.73a32.66,32.66,0,0,1,1.88-7.76,9.85,9.85,0,0,1,1.58-2.55,8.19,8.19,0,0,1,1-1c.44-.37,1-.8,1.53-1.18a76.33,76.33,0,0,1,7.57-4.56c1.42-.81,2.84-1.6,4.39-2.59a34.8,34.8,0,0,0,4.57-3.56c5.46-5.14,9-11,12.38-16.29,6.72-10.45,14.31-20.91,20.39-32.77,1.5-2.95,2.85-5.85,4.21-8.67.32-.65.72-1.47,1.1-2.35s.73-1.78,1.06-2.73a23.72,23.72,0,0,0,1.17-6.18,35.14,35.14,0,0,0-.25-5.74l-.62-4.8-1.24-9.4-2.46-18.8a30.77,30.77,0,0,1-.22-8,19.06,19.06,0,0,1,.88-3.54c.43-1.24,1-2.56,1.6-4s1.29-2.89,2-4.51c.33-.81.65-1.66.95-2.53l.77-2.24c1-3,2.06-5.84,3.19-8.62l.87-2.06c.29-.66.56-1.25.88-1.87.61-1.24,1.32-2.48,2.08-3.75,1.53-2.52,3.33-5.22,5.05-8a39.17,39.17,0,0,0,2.65-4.92,22.25,22.25,0,0,0,1.7-6.24c0-.56.1-1.11.11-1.66s0-1.13,0-1.47l0-2.38-.09-4.77-.18-9.54c-.09-3.23-.2-6.46-.39-9.67-.69-12.87-2-25.57-3.25-38.16s-2.23-25.16-3.11-37.75-1.47-25.12-1.66-37.71c-.11-6.3-.16-12.56,0-18.76.06-3.15.27-6,.37-9.53.07-3.32,0-6.53,0-9.61l0-2.28,0-1c0-.31,0-.64.06-1,.12-1.33.33-2.72.59-4.2l.85-4.68c.3-1.61.54-3.5.76-5l2.72-18.73,1.36-9.37.34-2.35.36-2.19c.26-1.45.57-2.91.9-4.37,1.36-5.85,3.27-11.76,5.15-17.88s3.51-12.51,5.17-18.46c.84-3,1.72-5.91,2.7-8.75s2.14-5.73,3.29-8.61m-62.63,23.89-1.17,1.78-.32.62-.49,1-.65.85-8.56,11.1-2.95,5.5-2,2.61c-.43.54-.93,1.28-1.39,1.91l-2.82,3.94-5.66,7.88-2.82,3.95-2.75,4-6.47,9.52-4.31,3.47-3.78,5.22-.47,9,3.34-1.09,5.14-1.13,8.93-1.29,8.69-1.31,17.42-2.68,17.33-2.66,8.64-1.35,8.45-1.83,7.13,21.64M-280,3686.15l.76.3,3,1.14,3.5,1.51,1.95.35,2.3.41.34.07,3.17.68.95.21,5.22.28,4.83-.61,2.93-.36,8.1-1.16h8.64l5.77-.14,2.68-.14,4.87.07,3.46.09,2,.05,4.12.55,5.15,1.1,3.5.82,4.88,1.65,4,1,5.21,2.13,3.43,1.51.47.27,2.48,1.51,4.06,3.13,4.77,4.12,4.12,3.44,4.44,3.18,3.31,1.19,3,.91,1.19.36,3.45.39,5.24-1.19,5.9-1.66,2.45-.66,3.12-.67,4.11-.52,3.78-.14,3.38,1.13,4.35,2.36,3.27,2,3.55,2.17,3.35,2.57,27.4,21.05,2.67,1.8,2.6-.33,2.12-.79,1.2.76,4.64,2.88,3.72,1.22,3.3.81,2.64.53,1.41-.13,2.36-.28,2.07-.51,4.66-2.43,5.45-3.86,8.34-5.46,4.47-2.56,13.3-7.89,5-1.63,6.73-1.63,5-2.09,2.07-1.45,2.75-2.57L7.64,3709l1.28-1.28,2.56-2.26,3.85-2.4L29.42,3697l7.22-1,16.81-1.77,11.53-.32,7.52.46,16,1.94,6.74.52,5.26-.2,6.1-1.77,5.45-1.72,3.61-1,2.94-.8,6.1.51,8.17,2.43,4.8,1.6.79.45,4.66,1.6,9.13,1.66,14.09,1,11.22,1.59,1.89.49,18.42,2.57,33.47,4.8,14.11,1.8,3.38.49,7.52.8,10.88-.18,4.65-.79,10.25-2.89,9.62-3.09,8-3.2,9.62-5.31,9.12-6.11,16-8.55,10.87-7.71,5.78-4.83,6.41-6.46.09,0,4.54-3,4.82-2.25,6.4-2.23,27.23-6.29,17.14-3.71,4.82-.17,14.07,5.17,3.84.94,5.87-.45,3.86-4.38.68-.63,3.38-1.77,7.68-2.28,3.68-1,5.45-1.63,4-.94,3.38-1.2,4.31-1.06,2.89-.8,10.87-3.05,24.2-6.95,29.62-8.51,4.48-1.15,5.64-1,4.14-3,3.56-2.42,5.12-2.57,5.59-1.63,1.82-.38,2.84-.57,11.86-1.94,3.68-.48,3.79-.8,2-.75,2.59-1,4.21-2.12,11.23-5.58,1.21-.43,6.43-2.88,7.31-1.69,3.28-.79,1.8-.38,2-.2,5.43-.34,5-.63,3.21-.83,5.13-2.25,2.4-2.09,1.51-1.94,11-14.32,3.85-5.14,13.13-19,6.57-9.18,5-4.37,8-3.86,5.31-2.19,4.63-2.46,3-2.6,4.31-4.66,17.93-25.6,1.77-1.78,2.21-1.45,8.18-4.83,1.93-1L770,3472l3.21-2.25,6.41-2.61,9-1.91,7.38-1.46,2.4-1.28.47-29.46.65-3.72.48-1.14,2.1-2.4,2.56-2,5.76-3.45,11.39-4,9.07-2.66,1.8-.8,1.84-.64,3.93-1.3L869.92,3400l5.12-1.6,27.39-9.51,9.19-2.95,8.44-1.24,4.29-.48,5.47-.27,9.43-.26,8.15,1.38,5.74,1.63,4.39,2.53,13.3,6.61,14.07,6.91,6.75,2.15,2.8-.52.44-.08,2.37-2.52,1-1.94-.3-3.43-1-12.49-.48-5.39.15-3.31.61-2.76,1.12-5.17,1.66-4,2.36-4,1.08-2.15,5.47-6.6,4-2.11,9.79-6.53,12.37-8,4.36-3.15,11.24-5.23,6-2.72,7.9-2.91,26.89-8.14,14-3.84,4-.79,5.12-1.74,5.43-1.85,5.94-1.61,5.29-.84,13.66-.27,7.12.08,14.26-1,14.2-1,10.57-2.59,6.71-2.49,7.09-2.75,6.93-3.45,18.44-12.24,20.26-10.37,11-4.9,1.3-.39,2.64-.28h6.38l10.75,0,3.59-.52,7.21-.63,2.42-.78,10.14-12,2.61-3.4,4.64-2.65,7.52-4.63,2.42-2.3,6-7.46,9.25-9.56L1342,3213l4.3-2.29,13.9-7.68,9.18-7.46,6.06-4.84,5.29-4.12,6.58-5.49,4.33-3,3.91-2,3.84-1.33,4.66-1.41,9.76-3.06,11.3-4.37,16.9-7.71,9.32-4,8.47-2.43,9.22-2.59,8-2.16,12.64-3.82,11.31-2.59,7.29-1.91,3.86-1,2.55-2.3,6.53-6.42,13.32-15.94,1.15-1.42,14-16.43,3.58-5.09,2.9-6.87,11.58-27.45,4.32-6.17,4.38-3.58,12-8.54,4.5-4.52,7.39-8,4.41-3.09,2.81-1.28,2.6-.74,5.52-.72,5.94-.07,4.85.24,11.15.39,2.86-.3,1.74-.18,5-2.66,2.89-2,2.73-2.53,2.24-2.78,1.8-3.52.88-2.92.22-8.1.63-18.06,2.16-8.3,1.92-4.29,2.68-5.44,5.58-10.79.59-1.15,15.56-30.1,5.87-9.47,3.42-4.21,3.93-3,1.19-.38,1-.36,5.81-2.65,1.43-.62,61.61-24.67,7.32-3.25,10.76-3.42,8.25-2,10.64-2.29,12.86-3,3.68-1,2.85-1.33,5.74-3.27,9.39-6.5,5.91-4.06,4.19-2,5.39-2.39,1.2-.49.76-.35,4.61-1.62,7.21-1.56,7.36-2.33,38.15-11m108.25-1324.72-1.5,2.65L2014.28,1510c-1.6,2.06-3.31,4-4.81,6.18l-4.52,6.36-9.28,13-1.16,1.63-1.22,1.56-1.22,1.56-1.1,1.53-4.44,6.24-6.3,10.53-2.27,4.85c-4.12,12.74-8.57,27.43-12.55,40.34l-1.25,6.74c-.47,2.35-.83,4.71-1.18,7.06-.74,4.69-1.37,9.48-2,14.23s-1.3,9.54-1.83,14.3l-1.68,14.43-1.75,14.49-.88,7.25c-.13,1.2-.29,2.41-.53,3.66l-.53,3.55-1,7.07c-.33,2.37-.57,4.84-.86,7.25s-.78,4.84-1.17,7.26l-1.4,7.74-3.4,9.32-1,8.76c-.2,1.56-.31,3.16-.4,4.77l-.32,4.82c-.65,6.45-1.12,12.78-1.6,19.15l-.73,9.55-.82,9.7c-.35,6.55-1.68,12.79-2,19.17l-6.23,76.51v.41l-.87,10.5-.9,10.35-1.81,20.7c-.62,6.9-1.23,13.8-1.68,20.71l-1.44,20,1.82,10.55c.66,3.81,1.27,7.32,2.11,11,1,3.65,1.68,7.56,2.4,11.41l1,5.8c.16,1,.27,2.07.4,3l.4,3.21v12c0,3.89,0,7.79-.18,11.62l-.48,11.56-.24,5.78c-.06,1-.07,1.91-.06,2.84v3.1l-2.65,27.46c-.39,4.54-1,9.05-1.54,13.58l-1.68,13.83-2,9.3-1.76,13.61c-.28,2.31-.61,4.6-.87,6.93l-.71,7-1.44,14c-.13,1.17-.2,2.33-.39,3.5l-.59,3.52-1.14,6.81-.81,8.79.09,9.15.58,7.26c.18,2.49.6,5,.89,7.46l2,15,2.08,15,2.16,15.26.41,5.71.35,5.51.65,11m0,.24c-.06,8.18-.37,15.94-.54,23.77l-.3,11.74c-.06,3.91-.29,7.81-.21,11.74,0,15.68.29,31.35-.05,47.07-.09,15.69,0,31.36,0,47l.11,23.62c.23,7.89-.37,15.81-.64,23.72l-5.65,16.65.25,22-.33,22.67-.16,12.41-.31,9.38-.09,47.16-.08,1.66.1,17.57-.66,32.78,0,1.8-.33,28.29.34,10.7.31,9.7-.08,2.82-.61,12.32-1.06,7.77-.37,2.79-1.05,7.49-1.15,8.27-.33,2.09-1.11,7.06-2.1,12.81-.07.73-.15,1.37-.33,3.24-1.09,10.44-.25,5.94,2.39,10.92,6.23,26.69m106.44-1321.9,8.21,4.93,10,5.16,3.49,1.93,13.22,5,10,3.14,18.85,4.94,18.78,3.51,84.66,18.83,4.39,1.78,3.14.44,22.17,5.08,11.08,2.54,5.54,1.26,5.6,1,8.43,2.45c1.9.31,3.79.66,5.69,1m0,0,1.32-5.33,1.46-5.86.73-2.93.89-2.82.88-2.82,1-2.9,2-5.8,4-11.6,2-5.8,2.11-5.76,8.5-23.17,2.13-5.82,1.9-5.86c1.22-3.94,2.68-7.75,4.06-11.6L2307,1416.1c2.82-7.71,5.53-15.55,8.18-23.28,1.34-3.88,2.66-7.76,4.07-11.61l4.28-11.94,1.75-8.25,1.53-7.88,1.51-7.83c.5-2.6,1-5.19,1.55-7.81,1-5.22,2.19-10.46,3.11-15.67.48-2.6.87-5.21,1.44-7.82s1-5.23,1.49-7.86c.93-5.25,1.83-10.58,2.79-15.76l1.44-7.8,1.56-7.83,1.57-7.84c.53-2.61.91-5.19,1.38-7.79s.82-5.21,1.51-7.73l1.78-7.38,1.58-4.83,5.28-7.77,9.74-11.78M1917.63,2819.36l3.47,14.91m480.22-1209.85-18.53-12.37-2.56-2.92c-11.37-8-23.08-15.51-35-22.65l-8.68-4-8.9-3.52-9-3.32-9-3.22-14.39-3.75-3.61-.9L2288,1567l-7.27-1.55-14.55-3.09c-3-.63-5.93-1.26-8.9-1.85"/><path class="cls-8" d="M2085.42,985.24l4.26-7.16c1.3-2.2,2.56-4.43,4-6.49s2.75-4.23,4.34-6.36l5.59-7.8m-78,537.68,10.86-15.55,5.43-7.77,1.43-2.07a26.55,26.55,0,0,0,1.53-2.47,35.29,35.29,0,0,0,2.36-5.14c2.55-7,3.13-13.69,4.11-19.73a32.66,32.66,0,0,1,1.88-7.76,9.85,9.85,0,0,1,1.58-2.55,8.19,8.19,0,0,1,1-1c.44-.37,1-.8,1.53-1.18a76.33,76.33,0,0,1,7.57-4.56c1.42-.81,2.84-1.6,4.39-2.59a34.8,34.8,0,0,0,4.57-3.56c5.46-5.14,9-11,12.38-16.29,6.72-10.45,14.31-20.91,20.39-32.77,1.5-2.95,2.85-5.85,4.21-8.67.32-.65.72-1.47,1.1-2.35s.73-1.78,1.06-2.73a23.72,23.72,0,0,0,1.17-6.18,35.14,35.14,0,0,0-.25-5.74l-.62-4.8-1.24-9.4-2.46-18.8a30.77,30.77,0,0,1-.22-8,19.06,19.06,0,0,1,.88-3.54c.43-1.24,1-2.56,1.6-4s1.29-2.89,2-4.51c.33-.81.65-1.66.95-2.53l.77-2.24c1-3,2.06-5.84,3.19-8.62l.87-2.06c.29-.66.56-1.25.88-1.87.61-1.24,1.32-2.48,2.08-3.75,1.53-2.52,3.33-5.22,5.05-8a39.17,39.17,0,0,0,2.65-4.92,22.25,22.25,0,0,0,1.7-6.24c0-.56.1-1.11.11-1.66s0-1.13,0-1.47l0-2.38-.09-4.77-.18-9.54c-.09-3.23-.2-6.46-.39-9.67-.69-12.87-2-25.57-3.25-38.16s-2.23-25.16-3.11-37.75-1.47-25.12-1.66-37.71c-.11-6.3-.16-12.56,0-18.76.06-3.15.27-6,.37-9.53.07-3.32,0-6.53,0-9.61l0-2.28,0-1c0-.31,0-.64.06-1,.12-1.33.33-2.72.59-4.2l.85-4.68c.3-1.61.54-3.5.76-5l2.72-18.73,1.36-9.37.34-2.35.36-2.19c.26-1.45.57-2.91.9-4.37,1.36-5.85,3.27-11.76,5.15-17.88s3.51-12.51,5.17-18.46c.84-3,1.72-5.91,2.7-8.75s2.14-5.73,3.29-8.61m-62.63,23.89-1.17,1.78-.32.62-.49,1-.65.85-8.56,11.1-2.95,5.5-2,2.61c-.43.54-.93,1.28-1.39,1.91l-2.82,3.94-5.66,7.88-2.82,3.95-2.75,4-6.47,9.52-4.31,3.47-3.78,5.22-.47,9,3.34-1.09,5.14-1.13,8.93-1.29,8.69-1.31,17.42-2.68,17.33-2.66,8.64-1.35,8.45-1.83,7.13,21.64M-280,3686.15l.76.3,3,1.14,3.5,1.51,1.95.35,2.3.41.34.07,3.17.68.95.21,5.22.28,4.83-.61,2.93-.36,8.1-1.16h8.64l5.77-.14,2.68-.14,4.87.07,3.46.09,2,.05,4.12.55,5.15,1.1,3.5.82,4.88,1.65,4,1,5.21,2.13,3.43,1.51.47.27,2.48,1.51,4.06,3.13,4.77,4.12,4.12,3.44,4.44,3.18,3.31,1.19,3,.91,1.19.36,3.45.39,5.24-1.19,5.9-1.66,2.45-.66,3.12-.67,4.11-.52,3.78-.14,3.38,1.13,4.35,2.36,3.27,2,3.55,2.17,3.35,2.57,27.4,21.05,2.67,1.8,2.6-.33,2.12-.79,1.2.76,4.64,2.88,3.72,1.22,3.3.81,2.64.53,1.41-.13,2.36-.28,2.07-.51,4.66-2.43,5.45-3.86,8.34-5.46,4.47-2.56,13.3-7.89,5-1.63,6.73-1.63,5-2.09,2.07-1.45,2.75-2.57L7.64,3709l1.28-1.28,2.56-2.26,3.85-2.4L29.42,3697l7.22-1,16.81-1.77,11.53-.32,7.52.46,16,1.94,6.74.52,5.26-.2,6.1-1.77,5.45-1.72,3.61-1,2.94-.8,6.1.51,8.17,2.43,4.8,1.6.79.45,4.66,1.6,9.13,1.66,14.09,1,11.22,1.59,1.89.49,18.42,2.57,33.47,4.8,14.11,1.8,3.38.49,7.52.8,10.88-.18,4.65-.79,10.25-2.89,9.62-3.09,8-3.2,9.62-5.31,9.12-6.11,16-8.55,10.87-7.71,5.78-4.83,6.41-6.46.09,0,4.54-3,4.82-2.25,6.4-2.23,27.23-6.29,17.14-3.71,4.82-.17,14.07,5.17,3.84.94,5.87-.45,3.86-4.38.68-.63,3.38-1.77,7.68-2.28,3.68-1,5.45-1.63,4-.94,3.38-1.2,4.31-1.06,2.89-.8,10.87-3.05,24.2-6.95,29.62-8.51,4.48-1.15,5.64-1,4.14-3,3.56-2.42,5.12-2.57,5.59-1.63,1.82-.38,2.84-.57,11.86-1.94,3.68-.48,3.79-.8,2-.75,2.59-1,4.21-2.12,11.23-5.58,1.21-.43,6.43-2.88,7.31-1.69,3.28-.79,1.8-.38,2-.2,5.43-.34,5-.63,3.21-.83,5.13-2.25,2.4-2.09,1.51-1.94,11-14.32,3.85-5.14,13.13-19,6.57-9.18,5-4.37,8-3.86,5.31-2.19,4.63-2.46,3-2.6,4.31-4.66,17.93-25.6,1.77-1.78,2.21-1.45,8.18-4.83,1.93-1L770,3472l3.21-2.25,6.41-2.61,9-1.91,7.38-1.46,2.4-1.28.47-29.46.65-3.72.48-1.14,2.1-2.4,2.56-2,5.76-3.45,11.39-4,9.07-2.66,1.8-.8,1.84-.64,3.93-1.3L869.92,3400l5.12-1.6,27.39-9.51,9.19-2.95,8.44-1.24,4.29-.48,5.47-.27,9.43-.26,8.15,1.38,5.74,1.63,4.39,2.53,13.3,6.61,14.07,6.91,6.75,2.15,2.8-.52.44-.08,2.37-2.52,1-1.94-.3-3.43-1-12.49-.48-5.39.15-3.31.61-2.76,1.12-5.17,1.66-4,2.36-4,1.08-2.15,5.47-6.6,4-2.11,9.79-6.53,12.37-8,4.36-3.15,11.24-5.23,6-2.72,7.9-2.91,26.89-8.14,14-3.84,4-.79,5.12-1.74,5.43-1.85,5.94-1.61,5.29-.84,13.66-.27,7.12.08,14.26-1,14.2-1,10.57-2.59,6.71-2.49,7.09-2.75,6.93-3.45,18.44-12.24,20.26-10.37,11-4.9,1.3-.39,2.64-.28h6.38l10.75,0,3.59-.52,7.21-.63,2.42-.78,10.14-12,2.61-3.4,4.64-2.65,7.52-4.63,2.42-2.3,6-7.46,9.25-9.56L1342,3213l4.3-2.29,13.9-7.68,9.18-7.46,6.06-4.84,5.29-4.12,6.58-5.49,4.33-3,3.91-2,3.84-1.33,4.66-1.41,9.76-3.06,11.3-4.37,16.9-7.71,9.32-4,8.47-2.43,9.22-2.59,8-2.16,12.64-3.82,11.31-2.59,7.29-1.91,3.86-1,2.55-2.3,6.53-6.42,13.32-15.94,1.15-1.42,14-16.43,3.58-5.09,2.9-6.87,11.58-27.45,4.32-6.17,4.38-3.58,12-8.54,4.5-4.52,7.39-8,4.41-3.09,2.81-1.28,2.6-.74,5.52-.72,5.94-.07,4.85.24,11.15.39,2.86-.3,1.74-.18,5-2.66,2.89-2,2.73-2.53,2.24-2.78,1.8-3.52.88-2.92.22-8.1.63-18.06,2.16-8.3,1.92-4.29,2.68-5.44,5.58-10.79.59-1.15,15.56-30.1,5.87-9.47,3.42-4.21,3.93-3,1.19-.38,1-.36,5.81-2.65,1.43-.62,61.61-24.67,7.32-3.25,10.76-3.42,8.25-2,10.64-2.29,12.86-3,3.68-1,2.85-1.33,5.74-3.27,9.39-6.5,5.91-4.06,4.19-2,5.39-2.39,1.2-.49.76-.35,4.61-1.62,7.21-1.56,7.36-2.33,38.15-11m108.25-1324.72-1.5,2.65L2014.28,1510c-1.6,2.06-3.31,4-4.81,6.18l-4.52,6.36-9.28,13-1.16,1.63-1.22,1.56-1.22,1.56-1.1,1.53-4.44,6.24-6.3,10.53-2.27,4.85c-4.12,12.74-8.57,27.43-12.55,40.34l-1.25,6.74c-.47,2.35-.83,4.71-1.18,7.06-.74,4.69-1.37,9.48-2,14.23s-1.3,9.54-1.83,14.3l-1.68,14.43-1.75,14.49-.88,7.25c-.13,1.2-.29,2.41-.53,3.66l-.53,3.55-1,7.07c-.33,2.37-.57,4.84-.86,7.25s-.78,4.84-1.17,7.26l-1.4,7.74-3.4,9.32-1,8.76c-.2,1.56-.31,3.16-.4,4.77l-.32,4.82c-.65,6.45-1.12,12.78-1.6,19.15l-.73,9.55-.82,9.7c-.35,6.55-1.68,12.79-2,19.17l-6.23,76.51v.41l-.87,10.5-.9,10.35-1.81,20.7c-.62,6.9-1.23,13.8-1.68,20.71l-1.44,20,1.82,10.55c.66,3.81,1.27,7.32,2.11,11,1,3.65,1.68,7.56,2.4,11.41l1,5.8c.16,1,.27,2.07.4,3l.4,3.21v12c0,3.89,0,7.79-.18,11.62l-.48,11.56-.24,5.78c-.06,1-.07,1.91-.06,2.84v3.1l-2.65,27.46c-.39,4.54-1,9.05-1.54,13.58l-1.68,13.83-2,9.3-1.76,13.61c-.28,2.31-.61,4.6-.87,6.93l-.71,7-1.44,14c-.13,1.17-.2,2.33-.39,3.5l-.59,3.52-1.14,6.81-.81,8.79.09,9.15.58,7.26c.18,2.49.6,5,.89,7.46l2,15,2.08,15,2.16,15.26.41,5.71.35,5.51.65,11m0,.24c-.06,8.18-.37,15.94-.54,23.77l-.3,11.74c-.06,3.91-.29,7.81-.21,11.74,0,15.68.29,31.35-.05,47.07-.09,15.69,0,31.36,0,47l.11,23.62c.23,7.89-.37,15.81-.64,23.72l-5.65,16.65.25,22-.33,22.67-.16,12.41-.31,9.38-.09,47.16-.08,1.66.1,17.57-.66,32.78,0,1.8-.33,28.29.34,10.7.31,9.7-.08,2.82-.61,12.32-1.06,7.77-.37,2.79-1.05,7.49-1.15,8.27-.33,2.09-1.11,7.06-2.1,12.81-.07.73-.15,1.37-.33,3.24-1.09,10.44-.25,5.94,2.39,10.92,6.23,26.69m106.44-1321.9,8.21,4.93,10,5.16,3.49,1.93,13.22,5,10,3.14,18.85,4.94,18.78,3.51,84.66,18.83,4.39,1.78,3.14.44,22.17,5.08,11.08,2.54,5.54,1.26,5.6,1,8.43,2.45c1.9.31,3.79.66,5.69,1m0,0,1.32-5.33,1.46-5.86.73-2.93.89-2.82.88-2.82,1-2.9,2-5.8,4-11.6,2-5.8,2.11-5.76,8.5-23.17,2.13-5.82,1.9-5.86c1.22-3.94,2.68-7.75,4.06-11.6L2307,1416.1c2.82-7.71,5.53-15.55,8.18-23.28,1.34-3.88,2.66-7.76,4.07-11.61l4.28-11.94,1.75-8.25,1.53-7.88,1.51-7.83c.5-2.6,1-5.19,1.55-7.81,1-5.22,2.19-10.46,3.11-15.67.48-2.6.87-5.21,1.44-7.82s1-5.23,1.49-7.86c.93-5.25,1.83-10.58,2.79-15.76l1.44-7.8,1.56-7.83,1.57-7.84c.53-2.61.91-5.19,1.38-7.79s.82-5.21,1.51-7.73l1.78-7.38,1.58-4.83,5.28-7.77,9.74-11.78M1917.63,2819.36l3.47,14.91m480.22-1209.85-18.53-12.37-2.56-2.92c-11.37-8-23.08-15.51-35-22.65l-8.68-4-8.9-3.52-9-3.32-9-3.22-14.39-3.75-3.61-.9L2288,1567l-7.27-1.55-14.55-3.09c-3-.63-5.93-1.26-8.9-1.85"/></g><g id="まる"><line class="cls-3" x1="506.44" y1="184.28" x2="506.44" y2="184.28"/><polyline class="cls-9" points="481.14 177.06 452.12 171.6 424.9 164.45 417.41 161.4"/><line class="cls-3" x1="409.17" y1="151.33" x2="409.17" y2="151.33"/><line class="cls-3" x1="409.17" y1="151.33" x2="409.17" y2="151.33"/><path class="cls-10" d="M380.84,145.09l-8.17-1.8L336,140.09l-21.11.77-10.2.38c-3.39.08-6.79,0-10.18-.05L276.16,141l-23.9-1.95-3-.25-3-.44-6-.88-12.5-1.84L217.46,135,178,142.59,140,150l-37.94,7.47c-6.33,1.27-12.65,2.46-19,3.63l-18.45,3.44L50.83,165.8"/><line class="cls-3" x1="36.39" y1="167.14" x2="36.39" y2="167.14"/><line class="cls-11" x1="37.62" y1="189.15" x2="38.23" y2="200.15"/><line class="cls-3" x1="38.84" y1="211.16" x2="38.84" y2="211.16"/><line class="cls-3" x1="506.44" y1="184.28" x2="506.44" y2="184.28"/><path class="cls-12" d="M535.18,192.05l28.29,7.49c2.39.59,4.74,1.34,7.15,1.8l7.21,1.51,14.43,3,28.85,6,7.21,1.51c2.41.49,4.86.85,7.29,1.28l14.61,2.49,29.23,5c19.43,3.27,39.1,6.8,58.69,10.24l14.7,2.59,7.35,1.29c2.45.43,4.9.84,7.33,1.43l29.18,6.48c9.7,2.19,19.53,4.28,29.11,6.54l28.88,6.71,14.63,3,7.32,1.49c2.43.57,4.84,1.21,7.26,1.81l29,7.34,14.5,3.68c4.84,1.22,9.68,2.43,14.46,3.78l15.27,4.2"/><line class="cls-3" x1="971.48" y1="286.68" x2="971.48" y2="286.68"/><path class="cls-13" d="M981.16,252.31l4.44-13.93c.32-1,.66-2.06,1-3.09"/><line class="cls-3" x1="991.5" y1="218.11" x2="991.5" y2="218.11"/><line class="cls-3" x1="982.06" y1="316.84" x2="982.06" y2="316.84"/><path class="cls-14" d="M1009.42,327.61l17.17,6.68,16,6.21c5.32,2.06,10.62,4.19,16,6.05l32.29,11.53c5.38,1.91,10.76,3.88,16.15,5.73l16.19,5.54,32.37,11.06,32.5,10.88c5.43,1.79,10.81,3.69,16.32,5.31l17.72,5.43,24.47,1.65"/><path class="cls-15" d="M1209.39,243.86l-.48.17-23.82,8.51-23.58,7.83-24.38,4.34-10.82.48c-1.87.08-3.73-.06-5.59-.07l-5.1-.12-24.12-4.64-44.37-20.52-35.68-20.43"/><line class="cls-3" x1="999.21" y1="212.41" x2="999.21" y2="212.41"/><line class="cls-3" x1="982.06" y1="316.84" x2="982.06" y2="316.84"/><line class="cls-3" x1="976.57" y1="314.62" x2="976.57" y2="314.62"/><path class="cls-16" d="M984.42,283.27l.2-.8,2.58-10.31c.95-3.42,2.12-6.77,3.17-10.15l6.46-20.27q.79-2.43,1.52-4.88"/><line class="cls-3" x1="1002.77" y1="221.32" x2="1002.77" y2="221.32"/><polyline class="cls-17" points="977.22 206.71 947.79 189.9 894.7 162.5 835.87 146.03 779.5 137.55 714.29 128.99 654.36 121.35 597.64 116.98 557.81 116.89 547.05 115.5 530.33 116.38 473.36 130.39 444.59 143.22 423.52 148.04"/><line class="cls-3" x1="409.17" y1="151.33" x2="409.17" y2="151.33"/><line class="cls-3" x1="999.21" y1="212.41" x2="999.21" y2="212.41"/><line class="cls-3" x1="993.97" y1="209.41" x2="993.97" y2="209.41"/><line class="cls-3" x1="991.5" y1="218.11" x2="991.5" y2="218.11"/><line class="cls-3" x1="294.66" y1="164.63" x2="294.66" y2="164.63"/><polyline class="cls-18" points="325.22 163.94 335.42 163.57 369.12 166.51 395.64 172.35 401.57 180.26 417.47 186.73 446.96 194.48 475.83 199.91 485.46 202.66"/><line class="cls-3" x1="500.16" y1="206.86" x2="500.16" y2="206.86"/><line class="cls-3" x1="294.66" y1="164.63" x2="294.66" y2="164.63"/><path class="cls-19" d="M263.64,163.5l-13.95-1.14-3.13-.26-3.11-.45-6.23-.91-12-1.76-6.3-.4-36.51,7-38,7.39-38,7.48q-9.48,1.89-19,3.63l-19.58,3.66-3,.28"/><line class="cls-3" x1="49.37" y1="189.47" x2="49.37" y2="189.47"/><line class="cls-3" x1="50.54" y1="210.51" x2="50.54" y2="210.51"/><line class="cls-3" x1="500.16" y1="206.86" x2="500.16" y2="206.86"/><line class="cls-20" x1="516.07" y1="211.24" x2="524.05" y2="213.35"/><line class="cls-3" x1="532.03" y1="215.46" x2="532.03" y2="215.46"/></g></g></g></svg>