<svg id="routes" xmlns="http://www.w3.org/2000/svg" xmlns:xlink="http://www.w3.org/1999/xlink" viewBox="0 0 1024 1024"><defs><style>.cls-1,.cls-3,.cls-4,.cls-5{fill:none;}.cls-2{clip-path:url(#clip-path);}.cls-3{stroke:#231815;stroke-width:8.79px;}.cls-3,.cls-4,.cls-5{stroke-linecap:round;stroke-miterlimit:10;}.cls-4{stroke:#ca2e34;}.cls-4,.cls-5{stroke-width:4.4px;}.cls-5{stroke:#985d1b;}</style><clipPath id="clip-path"><rect class="cls-1" x="-4007" y="-6140" width="11720" height="11720"/></clipPath></defs><title>3233_7148</title><g class="cls-2"><g id="日ノ丸線"><g id="松上"><path class="cls-3" d="M2036-2171.26c-2.9-.48-5.86-.85-8.8-1.28l-4.41-.63c-1.47-.22-2.93-.41-4.4-.51l-8.25-.72-18.2-2.67-9.29-1.38-4.65-.69c-.76-.11-1.6-.22-2.18-.35L1973-2180l-28.86-3.06-3.45-.36-3.56-.49-7.13-1c-4.83-.52-9.75-.89-14.63-1.35l-14.46-1.21-14.14-.84-7.06-.41-3.54-.21-.44,0-.28,0-.56-.05-.56,0-.81-.13-14.19-2.23-15.36-1.25-14.69-1.51-10.06-1L1807-2178.87,1794.56-2162l-9.93,12.56L1765.08-2124l-15.87,20.83-1.93,2.75-1.94,2-7.68,9.56-3.49,4.63-1.53,2.57-3.83,6-4.4,6.71-9.41,14.9-7.78,10-4.81,5.93-4.88,5.7L1687.24-2022l-9.57,8.71-5.15,5.3-16.09,16.66-5,5-14.83,18-3.51,4.25-3.65,4.39-6.16,7.41-3.14,3.78-9.18,10.63-8.87,10.47-3.29,4.08-13.65,14.76-4.44,5.11-9.26,10.14v0l-.71.9-5,6.14-8.46,9.88-27.92,30.63L1512-1826.47l-11.58,12.84-5.77,6.42-3.07,3.38-2.46,2.72-.16,1.48-36.81,21.92-52.1,31.08-58.36,33-37.86,21.24-1,.83-3.8,2.16-10.31,5-9.49,4L1267.2-1676l-7.42,2-9.55,3.68-2.4,1-1.17.76-1.08.58-1.19,1.57-1,1.66-6.1,17.59-.88,2.52-1.09,1.34-.38.48-3,1.79-4.41,1.71-6.42,1.82-5.8,1.94-5.67,2.48-7.22,3.69-7.43,4.79-10.83,7.24-7,5.52L1163-1601.22l-8.8,7.12-7.72,7.06-5.25,5.55-9.6,10.73-10.19,11-6.75,6.65-6.35,5.94-15.51,13.93-23.51,19-12.19,10.72-34.19,29.59-12.25,9.92L976.71-1436l-26.93,21.91L937.09-1404l-1,.78-6.38,3.8-5.12,1.77-15.21,3.4-15.23,3.55-14.42,4-14.93,4.38-14.41,4-16.37,4-6.73.65-9.63,1-5.61,1.28-2.89,1.29-4.47,2.57-7.38,5.8-18.75,17.54-5.71,7.88-7.36,9.13-3.92,4.42-3.19,5.48-1.92,5.28-1.42,5.71-.43,5.15,0,5.92-4,.25-3.24,1.54-3.24,2.91-6.06,4.66-18.27,12.41-4.66,4-7.71,6.28-10.27,9.67-1.75,2.26-1.61,4.34-2.21,8.88-2.42,9-3.51,9.52-3.71,8.7-1.12,2.57-4.17,8.06-3.37,6.44-1.43,2.42-5.6,9.18-4.55,5.81-19.4,24.83-10.56,15.32-3.77,5.35-.81,2-.36,1.9.21,1.62,1,2.11,1,2-8.12,6.91-6.82,8.86-9.75,22.85-8.37,27.1-5.45,14.16-2.26,4.17-4.47,7-9.63,10.65-4.28,7.16-1,3.29-.81,3.74-1.42,10.93v16.1l.31,3.09v4.83L566-965.67l-8.5,15.15-21,35.6-6.08,9.83-6.24,10-4,5.63L503-865l-3.51,5.8L496.9-854l-4.33,10.32-1.44,3.55-3.84,10.28L483.91-821l-11.27,30.33-1.07,2.89-4.8,14.49-.49,5L466-750.9l-.49,4.86-1.11,5.63-1.59,4.52L460-731.06l-11.39,19.64-1.94,3.2-8.84,16.44-10.72,21.67-5.94,12-3,5.8-2.89,3.86-2.09,2.89-13,12.58-6.9,7.43-3.84,5-4,6.6-4.17,8.06-1.93,6.29.16,4,1.77,8,.47,4.2-.47,5.14-.33,1.29-2.72,8.71L375.06-562l-3.68,6-2.73,3.72L360-543.55l-20.52,19-14.74,15.46-17.66,18.84-8.8,10.32-4,4.34-10.59,9.21h0l-19.9,16.61-5.14,5.15-2.23,2.89L255-437.91l-.79,9.83-.63,2.61-1.15,2.57-3.18,4.8-1.94,1.78-15.2,13.2-10.6,7.55L217-393.45l-3.53,1.28-3.68,1.11-9.62,1.63H184l-15.06-.82-11.53-.09-2.58.43-7.23,2.4-7.38,2.74-8,2.26-6.73,1.29-19.23,4.83-12.67,4-5.32,3.23-6.1,4.83-13,14.18-5.12,5-3.38,2.75-31.3,21.12-13.62,7.72-9.93,6.43-9.12,8.2-3,2.6L-13.08-292l-13.3,6.92-9.48,3.87-3.35,2.11L-43.38-276l-4.17,3.37-2.56,2L-52.35-269l-1,.48-4.66-2.8-1.47-.08-1.86.68L-75-258.17l-12.35,11.46-9.94,8.21L-112.65-224l-3.84,2.09-1.91.65-4.14,1.35-4.83,1.57-3.88,2.22-11.71,7.9-4,2.14-10.47,1.4-10.38,2.75-7.89,2.56-5.94,3.24-1.42,1-8.32,6.74-8,6.92-18.75,18.09-17.14,16.72-5.31,6.63-11.37,17.24-6.42,8.52L-292.83-72.9l-4.4,4.46-5.59,4.49-9.66,6.33-15.26,6.82-10.34,5.72-9,8.07-4.63,4.74-1.9,1.63-1.91,2.5-6.83,10.87L-372-4.15l-7.41,7.49-5.11,2.06-4.8,1-6.87,1.92L-406.69,10l-17.61-.66-13.16-.14L-449,10l-64.45,7.4-4.16.63-7.53,1-8.5,2.12L-544.84,26-557,31.76l-19.89,8.69-12.18,5-50.14,18.29-4,1.49-2.91-4.46-4.36-4.35-5.1-5.79-1.74-.41-1.61.23-3.4,1.14-10.25,4.66-5.59,2.26-4.84,2h-4.47L-692.17,59l-6.12-2.58-4-1.45-1.77-.52-1.91.38-2.1,1.11-5.12,4L-719,64.11l-5,2.92-21.78,10.14L-752.13,81l-6,5.49-3.74,3.34-2.33,1.52-3.17,1.86-6.78-1.75-6.08-1.12-8.66-1-5-.24-5.26.41-6.73,1-8,2.23-9.16,3-8,3.23-6.24,3.06-5.45,3.4-6.1,4.35-17,14.11-10.76,8.92-17.86,14.17-3.49,4.49-3.05,1.29-3.2.66-17.3.31-5.45.32L-942.1,158l-10.41,2.57-4.34,1.29-5.91,2.25-9.32,5.32-4.66,3.38-8.15,6.91-12,13.54-4.49,4.52-5.28,4.49-3.52,2.11-7.2,3.69-6.73,2.91-5.29,2.74-40.52,26.9-2.84,2-6.45,4.57-10.74,7.54-15,10.63-7.9,5.43-4.1,2.8-4,2.58-5.12,2.39-23.55,7.58-5.12,1.94-5.76,2.89-5,3.23-2.7,1.63-3.87,2.88-3.51,3.06-9,9.17-8,10.32-7.85,10.8L-1207,340l-11.85,6.77-13.6,6.14-7.39,4.18-3.81,2.54-4.36,2.92-4,3.54-2.73,2.91-2.09,3.38-.63,2.08-1.4,8.83-4.51,28.52-.5,3.11-6.57,33.49-5.44,27-.33.49L-1282,506l-1.89,9.17-.91,1.69-2,1.23-5.82,2-6,2.18-9,4.68-11.85,7.09-10.1,6.6-5.92,3.68-6.57,3.89"/><path class="cls-4" d="M2036-2171.26c-2.9-.48-5.86-.85-8.8-1.28l-4.41-.63c-1.47-.22-2.93-.41-4.4-.51l-8.25-.72-18.2-2.67-9.29-1.38-4.65-.69c-.76-.11-1.6-.22-2.18-.35L1973-2180l-28.86-3.06-3.45-.36-3.56-.49-7.13-1c-4.83-.52-9.75-.89-14.63-1.35l-14.46-1.21-14.14-.84-7.06-.41-3.54-.21-.44,0-.28,0-.56-.05-.56,0-.81-.13-14.19-2.23-15.36-1.25-14.69-1.51-10.06-1L1807-2178.87,1794.56-2162l-9.93,12.56L1765.08-2124l-15.87,20.83-1.93,2.75-1.94,2-7.68,9.56-3.49,4.63-1.53,2.57-3.83,6-4.4,6.71-9.41,14.9-7.78,10-4.81,5.93-4.88,5.7L1687.24-2022l-9.57,8.71-5.15,5.3-16.09,16.66-5,5-14.83,18-3.51,4.25-3.65,4.39-6.16,7.41-3.14,3.78-9.18,10.63-8.87,10.47-3.29,4.08-13.65,14.76-4.44,5.11-9.26,10.14v0l-.71.9-5,6.14-8.46,9.88-27.92,30.63L1512-1826.47l-11.58,12.84-5.77,6.42-3.07,3.38-2.46,2.72-.16,1.48-36.81,21.92-52.1,31.08-58.36,33-37.86,21.24-1,.83-3.8,2.16-10.31,5-9.49,4L1267.2-1676l-7.42,2-9.55,3.68-2.4,1-1.17.76-1.08.58-1.19,1.57-1,1.66-6.1,17.59-.88,2.52-1.09,1.34-.38.48-3,1.79-4.41,1.71-6.42,1.82-5.8,1.94-5.67,2.48-7.22,3.69-7.43,4.79-10.83,7.24-7,5.52L1163-1601.22l-8.8,7.12-7.72,7.06-5.25,5.55-9.6,10.73-10.19,11-6.75,6.65-6.35,5.94-15.51,13.93-23.51,19-12.19,10.72-34.19,29.59-12.25,9.92L976.71-1436l-26.93,21.91L937.09-1404l-1,.78-6.38,3.8-5.12,1.77-15.21,3.4-15.23,3.55-14.42,4-14.93,4.38-14.41,4-16.37,4-6.73.65-9.63,1-5.61,1.28-2.89,1.29-4.47,2.57-7.38,5.8-18.75,17.54-5.71,7.88-7.36,9.13-3.92,4.42-3.19,5.48-1.92,5.28-1.42,5.71-.43,5.15,0,5.92-4,.25-3.24,1.54-3.24,2.91-6.06,4.66-18.27,12.41-4.66,4-7.71,6.28-10.27,9.67-1.75,2.26-1.61,4.34-2.21,8.88-2.42,9-3.51,9.52-3.71,8.7-1.12,2.57-4.17,8.06-3.37,6.44-1.43,2.42-5.6,9.18-4.55,5.81-19.4,24.83-10.56,15.32-3.77,5.35-.81,2-.36,1.9.21,1.62,1,2.11,1,2-8.12,6.91-6.82,8.86-9.75,22.85-8.37,27.1-5.45,14.16-2.26,4.17-4.47,7-9.63,10.65-4.28,7.16-1,3.29-.81,3.74-1.42,10.93v16.1l.31,3.09v4.83L566-965.67l-8.5,15.15-21,35.6-6.08,9.83-6.24,10-4,5.63L503-865l-3.51,5.8L496.9-854l-4.33,10.32-1.44,3.55-3.84,10.28L483.91-821l-11.27,30.33-1.07,2.89-4.8,14.49-.49,5L466-750.9l-.49,4.86-1.11,5.63-1.59,4.52L460-731.06l-11.39,19.64-1.94,3.2-8.84,16.44-10.72,21.67-5.94,12-3,5.8-2.89,3.86-2.09,2.89-13,12.58-6.9,7.43-3.84,5-4,6.6-4.17,8.06-1.93,6.29.16,4,1.77,8,.47,4.2-.47,5.14-.33,1.29-2.72,8.71L375.06-562l-3.68,6-2.73,3.72L360-543.55l-20.52,19-14.74,15.46-17.66,18.84-8.8,10.32-4,4.34-10.59,9.21h0l-19.9,16.61-5.14,5.15-2.23,2.89L255-437.91l-.79,9.83-.63,2.61-1.15,2.57-3.18,4.8-1.94,1.78-15.2,13.2-10.6,7.55L217-393.45l-3.53,1.28-3.68,1.11-9.62,1.63H184l-15.06-.82-11.53-.09-2.58.43-7.23,2.4-7.38,2.74-8,2.26-6.73,1.29-19.23,4.83-12.67,4-5.32,3.23-6.1,4.83-13,14.18-5.12,5-3.38,2.75-31.3,21.12-13.62,7.72-9.93,6.43-9.12,8.2-3,2.6L-13.08-292l-13.3,6.92-9.48,3.87-3.35,2.11L-43.38-276l-4.17,3.37-2.56,2L-52.35-269l-1,.48-4.66-2.8-1.47-.08-1.86.68L-75-258.17l-12.35,11.46-9.94,8.21L-112.65-224l-3.84,2.09-1.91.65-4.14,1.35-4.83,1.57-3.88,2.22-11.71,7.9-4,2.14-10.47,1.4-10.38,2.75-7.89,2.56-5.94,3.24-1.42,1-8.32,6.74-8,6.92-18.75,18.09-17.14,16.72-5.31,6.63-11.37,17.24-6.42,8.52L-292.83-72.9l-4.4,4.46-5.59,4.49-9.66,6.33-15.26,6.82-10.34,5.72-9,8.07-4.63,4.74-1.9,1.63-1.91,2.5-6.83,10.87L-372-4.15l-7.41,7.49-5.11,2.06-4.8,1-6.87,1.92L-406.69,10l-17.61-.66-13.16-.14L-449,10l-64.45,7.4-4.16.63-7.53,1-8.5,2.12L-544.84,26-557,31.76l-19.89,8.69-12.18,5-50.14,18.29-4,1.49-2.91-4.46-4.36-4.35-5.1-5.79-1.74-.41-1.61.23-3.4,1.14-10.25,4.66-5.59,2.26-4.84,2h-4.47L-692.17,59l-6.12-2.58-4-1.45-1.77-.52-1.91.38-2.1,1.11-5.12,4L-719,64.11l-5,2.92-21.78,10.14L-752.13,81l-6,5.49-3.74,3.34-2.33,1.52-3.17,1.86-6.78-1.75-6.08-1.12-8.66-1-5-.24-5.26.41-6.73,1-8,2.23-9.16,3-8,3.23-6.24,3.06-5.45,3.4-6.1,4.35-17,14.11-10.76,8.92-17.86,14.17-3.49,4.49-3.05,1.29-3.2.66-17.3.31-5.45.32L-942.1,158l-10.41,2.57-4.34,1.29-5.91,2.25-9.32,5.32-4.66,3.38-8.15,6.91-12,13.54-4.49,4.52-5.28,4.49-3.52,2.11-7.2,3.69-6.73,2.91-5.29,2.74-40.52,26.9-2.84,2-6.45,4.57-10.74,7.54-15,10.63-7.9,5.43-4.1,2.8-4,2.58-5.12,2.39-23.55,7.58-5.12,1.94-5.76,2.89-5,3.23-2.7,1.63-3.87,2.88-3.51,3.06-9,9.17-8,10.32-7.85,10.8L-1207,340l-11.85,6.77-13.6,6.14-7.39,4.18-3.81,2.54-4.36,2.92-4,3.54-2.73,2.91-2.09,3.38-.63,2.08-1.4,8.83-4.51,28.52-.5,3.11-6.57,33.49-5.44,27-.33.49L-1282,506l-1.89,9.17-.91,1.69-2,1.23-5.82,2-6,2.18-9,4.68-11.85,7.09-10.1,6.6-5.92,3.68-6.57,3.89"/></g><g id="神戸"><path class="cls-3" d="M2085.42-2086.76l4.26-7.16c1.3-2.2,2.56-4.43,4-6.49s2.75-4.23,4.34-6.36l5.59-7.8m-78,537.68,10.86-15.55,5.43-7.77,1.43-2.07a26.55,26.55,0,0,0,1.53-2.47,35.29,35.29,0,0,0,2.36-5.14c2.55-7,3.13-13.69,4.11-19.73a32.66,32.66,0,0,1,1.88-7.76,9.85,9.85,0,0,1,1.58-2.55,8.19,8.19,0,0,1,1-1c.44-.37,1-.8,1.53-1.18a76.33,76.33,0,0,1,7.57-4.56c1.42-.81,2.84-1.6,4.39-2.59a34.8,34.8,0,0,0,4.57-3.56c5.46-5.14,9-11,12.38-16.29,6.72-10.45,14.31-20.91,20.39-32.77,1.5-2.95,2.85-5.85,4.21-8.67.32-.65.72-1.47,1.1-2.35s.73-1.78,1.06-2.73a23.72,23.72,0,0,0,1.17-6.18,35.14,35.14,0,0,0-.25-5.74l-.62-4.8-1.24-9.4-2.46-18.8a30.77,30.77,0,0,1-.22-8,19.06,19.06,0,0,1,.88-3.54c.43-1.24,1-2.56,1.6-4s1.29-2.89,2-4.51c.33-.81.65-1.66.95-2.53l.77-2.24c1-3,2.06-5.84,3.19-8.62l.87-2.06c.29-.66.56-1.25.88-1.87.61-1.24,1.32-2.48,2.08-3.75,1.53-2.52,3.33-5.22,5.05-8a39.17,39.17,0,0,0,2.65-4.92,22.25,22.25,0,0,0,1.7-6.24c0-.56.1-1.11.11-1.66s0-1.13,0-1.47l0-2.38-.09-4.77-.18-9.54c-.09-3.23-.2-6.46-.39-9.67-.69-12.87-2-25.57-3.25-38.16s-2.23-25.16-3.11-37.75-1.47-25.12-1.66-37.71c-.11-6.3-.16-12.56,0-18.76.06-3.15.27-6,.37-9.53.07-3.32,0-6.53,0-9.61l0-2.28,0-1c0-.31,0-.64.06-1,.12-1.33.33-2.72.59-4.2l.85-4.68c.3-1.61.54-3.5.76-5l2.72-18.73,1.36-9.37.34-2.35.36-2.19c.26-1.45.57-2.91.9-4.37,1.36-5.85,3.27-11.76,5.15-17.88s3.51-12.51,5.17-18.46c.84-3,1.72-5.91,2.7-8.75s2.14-5.73,3.29-8.61m-62.63,23.89-1.17,1.78-.32.62-.49,1-.65.85-8.56,11.1-2.95,5.5-2,2.61c-.43.54-.93,1.28-1.39,1.91l-2.82,3.94-5.66,7.88-2.82,3.95-2.75,4-6.47,9.52-4.31,3.47-3.78,5.22-.47,9,3.34-1.09,5.14-1.13,8.93-1.29,8.69-1.31,17.42-2.68,17.33-2.66,8.64-1.35,8.45-1.83,7.13,21.64M-280,614.15l.76.3,3,1.14,3.5,1.51,1.95.35,2.3.41.34.07,3.17.68.95.21,5.22.28,4.83-.61,2.93-.36L-243,617h8.64l5.77-.14,2.68-.14,4.87.07,3.46.09,2,0,4.12.55,5.15,1.1,3.5.82,4.88,1.65,4,1,5.21,2.13,3.43,1.51.47.27,2.48,1.51,4.06,3.13,4.77,4.12,4.12,3.44,4.44,3.18,3.31,1.19,3,.91,1.19.36,3.45.39,5.24-1.19,5.9-1.66,2.45-.66,3.12-.67,4.11-.52,3.78-.14,3.38,1.13,4.35,2.36,3.27,2,3.55,2.17,3.35,2.57,27.4,21,2.67,1.8,2.6-.33,2.12-.79,1.2.76,4.64,2.88,3.72,1.22,3.3.81,2.64.53,1.41-.13,2.36-.28,2.07-.51,4.66-2.43,5.45-3.86,8.34-5.46,4.47-2.56,13.3-7.89,5-1.63L-7.42,651l5-2.09,2.07-1.45,2.75-2.57L7.64,637l1.28-1.28,2.56-2.26,3.85-2.4L29.42,625l7.22-1,16.81-1.77L65,621.93l7.52.46,16,1.94,6.74.52,5.26-.2,6.1-1.77,5.45-1.72,3.61-1,2.94-.8,6.1.51,8.17,2.43,4.8,1.6.79.45,4.66,1.6,9.13,1.66,14.09,1,11.22,1.59,1.89.49,18.42,2.57,33.47,4.8,14.11,1.8,3.38.49,7.52.8,10.88-.18,4.65-.79,10.25-2.89,9.62-3.09,8-3.2,9.62-5.31,9.12-6.11,16-8.55,10.87-7.71,5.78-4.83,6.41-6.46.09,0,4.54-3,4.82-2.25,6.4-2.23,27.23-6.29,17.14-3.71,4.82-.17,14.07,5.17,3.84.94,5.87-.45,3.86-4.38.68-.63,3.38-1.77,7.68-2.28,3.68-1,5.45-1.63,4-.94,3.38-1.2,4.31-1.06,2.89-.8,10.87-3,24.2-7,29.62-8.51,4.48-1.15,5.64-1,4.14-3,3.56-2.42,5.12-2.57,5.59-1.63,1.82-.38,2.84-.57,11.86-1.94,3.68-.48,3.79-.8,2-.75,2.59-1,4.21-2.12,11.23-5.58,1.21-.43,6.43-2.88,7.31-1.69,3.28-.79,1.8-.38,2-.2,5.43-.34,5-.63,3.21-.83,5.13-2.25,2.4-2.09,1.51-1.94,11-14.32,3.85-5.14,13.13-19,6.57-9.18,5-4.37,8-3.86,5.31-2.19,4.63-2.46,3-2.6,4.31-4.66,17.93-25.6,1.77-1.78,2.21-1.45,8.18-4.83,1.93-1L770,400l3.21-2.25,6.41-2.61,9-1.91,7.38-1.46,2.4-1.28.47-29.46.65-3.72.48-1.14,2.1-2.4,2.56-1.95,5.76-3.45,11.39-4,9.07-2.66,1.8-.8,1.84-.64,3.93-1.3,31.54-11,5.12-1.6,27.39-9.51,9.19-3,8.44-1.24,4.29-.48,5.47-.27,9.43-.26,8.15,1.38,5.74,1.63,4.39,2.53,13.3,6.61,14.07,6.91,6.75,2.15,2.8-.52.44-.08,2.37-2.52,1-1.94-.3-3.43-1-12.49-.48-5.39.15-3.31.61-2.76,1.12-5.17,1.66-4,2.36-4,1.08-2.15,5.47-6.6,4-2.11,9.79-6.53,12.37-8,4.36-3.15,11.24-5.23,6-2.72,7.9-2.91,26.89-8.14,14-3.84,4-.79,5.12-1.74,5.43-1.85,5.94-1.61,5.29-.84,13.66-.27,7.12.08,14.26-1,14.2-1,10.57-2.59,6.71-2.49,7.09-2.75,6.93-3.45,18.44-12.24L1250.56,193l11-4.9,1.3-.39,2.64-.28h6.38l10.75-.05,3.59-.52,7.21-.63,2.42-.78,10.14-12,2.61-3.4,4.64-2.65,7.52-4.63,2.42-2.3,6-7.46,9.25-9.56L1342,141l4.3-2.29,13.9-7.68,9.18-7.46,6.06-4.84,5.29-4.12,6.58-5.49,4.33-3,3.91-2,3.84-1.33,4.66-1.41,9.76-3.06,11.3-4.37L1442,86.3l9.32-4,8.47-2.43,9.22-2.59,8-2.16,12.64-3.82L1501,68.67l7.29-1.91,3.86-1,2.55-2.3,6.53-6.42,13.32-15.94,1.15-1.42,14-16.43,3.58-5.09,2.9-6.87,11.58-27.45,4.32-6.17,4.38-3.58,12-8.54,4.5-4.52,7.39-8,4.41-3.09,2.81-1.28,2.6-.74,5.52-.72,5.94-.07,4.85.24,11.15.39,2.86-.3,1.74-.18,5-2.66,2.89-2,2.73-2.53,2.24-2.78,1.8-3.52.88-2.92.22-8.1.63-18.06,2.16-8.3,1.92-4.29,2.68-5.44,5.58-10.79.59-1.15,15.56-30.1,5.87-9.47,3.42-4.21,3.93-3,1.19-.38,1-.36,5.81-2.65,1.43-.62,61.61-24.67,7.32-3.25,10.76-3.42,8.25-2,10.64-2.29,12.86-3,3.68-1,2.85-1.33,5.74-3.27,9.39-6.5,5.91-4.06,4.19-2,5.39-2.39,1.2-.49.76-.35,4.61-1.62,7.21-1.56,7.36-2.33,38.15-11m108.25-1324.72-1.5,2.65L2014.28-1562c-1.6,2.06-3.31,4-4.81,6.18l-4.52,6.36-9.28,13-1.16,1.63-1.22,1.56-1.22,1.56-1.1,1.53-4.44,6.24-6.3,10.53-2.27,4.85c-4.12,12.74-8.57,27.43-12.55,40.34l-1.25,6.74c-.47,2.35-.83,4.71-1.18,7.06-.74,4.69-1.37,9.48-2,14.23s-1.3,9.54-1.83,14.3l-1.68,14.43-1.75,14.49-.88,7.25c-.13,1.2-.29,2.41-.53,3.66l-.53,3.55-1,7.07c-.33,2.37-.57,4.84-.86,7.25s-.78,4.84-1.17,7.26l-1.4,7.74-3.4,9.32-1,8.76c-.2,1.56-.31,3.16-.4,4.77l-.32,4.82c-.65,6.45-1.12,12.78-1.6,19.15l-.73,9.55-.82,9.7c-.35,6.55-1.68,12.79-2,19.17l-6.23,76.51v.41l-.87,10.5-.9,10.35-1.81,20.7c-.62,6.9-1.23,13.8-1.68,20.71l-1.44,20,1.82,10.55c.66,3.81,1.27,7.32,2.11,11,1,3.65,1.68,7.56,2.4,11.41l1,5.8c.16,1,.27,2.07.4,3l.4,3.21v12c0,3.89,0,7.79-.18,11.62l-.48,11.56-.24,5.78c-.06,1-.07,1.91-.06,2.84v3.1l-2.65,27.46c-.39,4.54-1,9-1.54,13.58L1927.46-962l-2,9.3-1.76,13.61c-.28,2.31-.61,4.6-.87,6.93l-.71,7-1.44,14c-.13,1.17-.2,2.33-.39,3.5l-.59,3.52-1.14,6.81-.81,8.79.09,9.15.58,7.26c.18,2.49.6,5,.89,7.46l2,15,2.08,15,2.16,15.26.41,5.71.35,5.51.65,11m0,.24c-.06,8.18-.37,15.94-.54,23.77l-.3,11.74c-.06,3.91-.29,7.81-.21,11.74,0,15.68.29,31.35-.05,47.07-.09,15.69,0,31.36,0,47l.11,23.62c.23,7.89-.37,15.81-.64,23.72l-5.65,16.65.25,22-.33,22.67-.16,12.41-.31,9.38-.09,47.16-.08,1.66.1,17.57-.66,32.78,0,1.8-.33,28.29.34,10.7.31,9.7-.08,2.82-.61,12.32-1.06,7.77-.37,2.79-1.05,7.49-1.15,8.27-.33,2.09-1.11,7.06L1910.9-312l-.07.73-.15,1.37-.33,3.24-1.09,10.44-.25,5.94,2.39,10.92,6.23,26.69m106.44-1321.9,8.21,4.93,10,5.16,3.49,1.93,13.22,5,10,3.14,18.85,4.94,18.78,3.51,84.66,18.83,4.39,1.78,3.14.44,22.17,5.08,11.08,2.54,5.54,1.26,5.6,1,8.43,2.45c1.9.31,3.79.66,5.69,1m0,0,1.32-5.33,1.46-5.86.73-2.93.89-2.82.88-2.82,1-2.9,2-5.8,4-11.6,2-5.8,2.11-5.76,8.5-23.17,2.13-5.82,1.9-5.86c1.22-3.94,2.68-7.75,4.06-11.6L2307-1655.9c2.82-7.71,5.53-15.55,8.18-23.28,1.34-3.88,2.66-7.76,4.07-11.61l4.28-11.94,1.75-8.25,1.53-7.88,1.51-7.83c.5-2.6,1-5.19,1.55-7.81,1-5.22,2.19-10.46,3.11-15.67.48-2.6.87-5.21,1.44-7.82s1-5.23,1.49-7.86c.93-5.25,1.83-10.58,2.79-15.76l1.44-7.8,1.56-7.83,1.57-7.84c.53-2.61.91-5.19,1.38-7.79s.82-5.21,1.51-7.73l1.78-7.38,1.58-4.83,5.28-7.77,9.74-11.78M1917.63-252.64l3.47,14.91m480.22-1209.85-18.53-12.37-2.56-2.92c-11.37-8-23.08-15.51-35-22.65l-8.68-4-8.9-3.52-9-3.32-9-3.22-14.39-3.75-3.61-.9L2288-1505l-7.27-1.55-14.55-3.09c-3-.63-5.93-1.26-8.9-1.85"/><path class="cls-5" d="M2085.42-2086.76l4.26-7.16c1.3-2.2,2.56-4.43,4-6.49s2.75-4.23,4.34-6.36l5.59-7.8m-78,537.68,10.86-15.55,5.43-7.77,1.43-2.07a26.55,26.55,0,0,0,1.53-2.47,35.29,35.29,0,0,0,2.36-5.14c2.55-7,3.13-13.69,4.11-19.73a32.66,32.66,0,0,1,1.88-7.76,9.85,9.85,0,0,1,1.58-2.55,8.19,8.19,0,0,1,1-1c.44-.37,1-.8,1.53-1.18a76.33,76.33,0,0,1,7.57-4.56c1.42-.81,2.84-1.6,4.39-2.59a34.8,34.8,0,0,0,4.57-3.56c5.46-5.14,9-11,12.38-16.29,6.72-10.45,14.31-20.91,20.39-32.77,1.5-2.95,2.85-5.85,4.21-8.67.32-.65.72-1.47,1.1-2.35s.73-1.78,1.06-2.73a23.72,23.72,0,0,0,1.17-6.18,35.14,35.14,0,0,0-.25-5.74l-.62-4.8-1.24-9.4-2.46-18.8a30.77,30.77,0,0,1-.22-8,19.06,19.06,0,0,1,.88-3.54c.43-1.24,1-2.56,1.6-4s1.29-2.89,2-4.51c.33-.81.65-1.66.95-2.53l.77-2.24c1-3,2.06-5.84,3.19-8.62l.87-2.06c.29-.66.56-1.25.88-1.87.61-1.24,1.32-2.48,2.08-3.75,1.53-2.52,3.33-5.22,5.05-8a39.17,39.17,0,0,0,2.65-4.92,22.25,22.25,0,0,0,1.7-6.24c0-.56.1-1.11.11-1.66s0-1.13,0-1.47l0-2.38-.09-4.77-.18-9.54c-.09-3.23-.2-6.46-.39-9.67-.69-12.87-2-25.57-3.25-38.16s-2.23-25.16-3.11-37.75-1.47-25.12-1.66-37.71c-.11-6.3-.16-12.56,0-18.76.06-3.15.27-6,.37-9.53.07-3.32,0-6.53,0-9.61l0-2.28,0-1c0-.31,0-.64.06-1,.12-1.33.33-2.72.59-4.2l.85-4.68c.3-1.61.54-3.5.76-5l2.72-18.73,1.36-9.37.34-2.35.36-2.19c.26-1.45.57-2.91.9-4.37,1.36-5.85,3.27-11.76,5.15-17.88s3.51-12.51,5.17-18.46c.84-3,1.72-5.91,2.7-8.75s2.14-5.73,3.29-8.61m-62.63,23.89-1.17,1.78-.32.62-.49,1-.65.85-8.56,11.1-2.95,5.5-2,2.61c-.43.54-.93,1.28-1.39,1.91l-2.82,3.94-5.66,7.88-2.82,3.95-2.75,4-6.47,9.52-4.31,3.47-3.78,5.22-.47,9,3.34-1.09,5.14-1.13,8.93-1.29,8.69-1.31,17.42-2.68,17.33-2.66,8.64-1.35,8.45-1.83,7.13,21.64M-280,614.15l.76.3,3,1.14,3.5,1.51,1.95.35,2.3.41.34.07,3.17.68.95.21,5.22.28,4.83-.61,2.93-.36L-243,617h8.64l5.77-.14,2.68-.14,4.87.07,3.46.09,2,0,4.12.55,5.15,1.1,3.5.82,4.88,1.65,4,1,5.21,2.13,3.43,1.51.47.27,2.48,1.51,4.06,3.13,4.77,4.12,4.12,3.44,4.44,3.18,3.31,1.19,3,.91,1.19.36,3.45.39,5.24-1.19,5.9-1.66,2.45-.66,3.12-.67,4.11-.52,3.78-.14,3.38,1.13,4.35,2.36,3.27,2,3.55,2.17,3.35,2.57,27.4,21,2.67,1.8,2.6-.33,2.12-.79,1.2.76,4.64,2.88,3.72,1.22,3.3.81,2.64.53,1.41-.13,2.36-.28,2.07-.51,4.66-2.43,5.45-3.86,8.34-5.46,4.47-2.56,13.3-7.89,5-1.63L-7.42,651l5-2.09,2.07-1.45,2.75-2.57L7.64,637l1.28-1.28,2.56-2.26,3.85-2.4L29.42,625l7.22-1,16.81-1.77L65,621.93l7.52.46,16,1.94,6.74.52,5.26-.2,6.1-1.77,5.45-1.72,3.61-1,2.94-.8,6.1.51,8.17,2.43,4.8,1.6.79.45,4.66,1.6,9.13,1.66,14.09,1,11.22,1.59,1.89.49,18.42,2.57,33.47,4.8,14.11,1.8,3.38.49,7.52.8,10.88-.18,4.65-.79,10.25-2.89,9.62-3.09,8-3.2,9.62-5.31,9.12-6.11,16-8.55,10.87-7.71,5.78-4.83,6.41-6.46.09,0,4.54-3,4.82-2.25,6.4-2.23,27.23-6.29,17.14-3.71,4.82-.17,14.07,5.17,3.84.94,5.87-.45,3.86-4.38.68-.63,3.38-1.77,7.68-2.28,3.68-1,5.45-1.63,4-.94,3.38-1.2,4.31-1.06,2.89-.8,10.87-3,24.2-7,29.62-8.51,4.48-1.15,5.64-1,4.14-3,3.56-2.42,5.12-2.57,5.59-1.63,1.82-.38,2.84-.57,11.86-1.94,3.68-.48,3.79-.8,2-.75,2.59-1,4.21-2.12,11.23-5.58,1.21-.43,6.43-2.88,7.31-1.69,3.28-.79,1.8-.38,2-.2,5.43-.34,5-.63,3.21-.83,5.13-2.25,2.4-2.09,1.51-1.94,11-14.32,3.85-5.14,13.13-19,6.57-9.18,5-4.37,8-3.86,5.31-2.19,4.63-2.46,3-2.6,4.31-4.66,17.93-25.6,1.77-1.78,2.21-1.45,8.18-4.83,1.93-1L770,400l3.21-2.25,6.41-2.61,9-1.91,7.38-1.46,2.4-1.28.47-29.46.65-3.72.48-1.14,2.1-2.4,2.56-1.95,5.76-3.45,11.39-4,9.07-2.66,1.8-.8,1.84-.64,3.93-1.3,31.54-11,5.12-1.6,27.39-9.51,9.19-3,8.44-1.24,4.29-.48,5.47-.27,9.43-.26,8.15,1.38,5.74,1.63,4.39,2.53,13.3,6.61,14.07,6.91,6.75,2.15,2.8-.52.44-.08,2.37-2.52,1-1.94-.3-3.43-1-12.49-.48-5.39.15-3.31.61-2.76,1.12-5.17,1.66-4,2.36-4,1.08-2.15,5.47-6.6,4-2.11,9.79-6.53,12.37-8,4.36-3.15,11.24-5.23,6-2.72,7.9-2.91,26.89-8.14,14-3.84,4-.79,5.12-1.74,5.43-1.85,5.94-1.61,5.29-.84,13.66-.27,7.12.08,14.26-1,14.2-1,10.57-2.59,6.71-2.49,7.09-2.75,6.93-3.45,18.44-12.24L1250.56,193l11-4.9,1.3-.39,2.64-.28h6.38l10.75-.05,3.59-.52,7.21-.63,2.42-.78,10.14-12,2.61-3.4,4.64-2.65,7.52-4.63,2.42-2.3,6-7.46,9.25-9.56L1342,141l4.3-2.29,13.9-7.68,9.18-7.46,6.06-4.84,5.29-4.12,6.58-5.49,4.33-3,3.91-2,3.84-1.33,4.66-1.41,9.76-3.06,11.3-4.37L1442,86.3l9.32-4,8.47-2.43,9.22-2.59,8-2.16,12.64-3.82L1501,68.67l7.29-1.91,3.86-1,2.55-2.3,6.53-6.42,13.32-15.94,1.15-1.42,14-16.43,3.58-5.09,2.9-6.87,11.58-27.45,4.32-6.17,4.38-3.58,12-8.54,4.5-4.52,7.39-8,4.41-3.09,2.81-1.28,2.6-.74,5.52-.72,5.94-.07,4.85.24,11.15.39,2.86-.3,1.74-.18,5-2.66,2.89-2,2.73-2.53,2.24-2.78,1.8-3.52.88-2.92.22-8.1.63-18.06,2.16-8.3,1.92-4.29,2.68-5.44,5.58-10.79.59-1.15,15.56-30.1,5.87-9.47,3.42-4.21,3.93-3,1.19-.38,1-.36,5.81-2.65,1.43-.62,61.61-24.67,7.32-3.25,10.76-3.42,8.25-2,10.64-2.29,12.86-3,3.68-1,2.85-1.33,5.74-3.27,9.39-6.5,5.91-4.06,4.19-2,5.39-2.39,1.2-.49.76-.35,4.61-1.62,7.21-1.56,7.36-2.33,38.15-11m108.25-1324.72-1.5,2.65L2014.28-1562c-1.6,2.06-3.31,4-4.81,6.18l-4.52,6.36-9.28,13-1.16,1.63-1.22,1.56-1.22,1.56-1.1,1.53-4.44,6.24-6.3,10.53-2.27,4.85c-4.12,12.74-8.57,27.43-12.55,40.34l-1.25,6.74c-.47,2.35-.83,4.71-1.18,7.06-.74,4.69-1.37,9.48-2,14.23s-1.3,9.54-1.83,14.3l-1.68,14.43-1.75,14.49-.88,7.25c-.13,1.2-.29,2.41-.53,3.66l-.53,3.55-1,7.07c-.33,2.37-.57,4.84-.86,7.25s-.78,4.84-1.17,7.26l-1.4,7.74-3.4,9.32-1,8.76c-.2,1.56-.31,3.16-.4,4.77l-.32,4.82c-.65,6.45-1.12,12.78-1.6,19.15l-.73,9.55-.82,9.7c-.35,6.55-1.68,12.79-2,19.17l-6.23,76.51v.41l-.87,10.5-.9,10.35-1.81,20.7c-.62,6.9-1.23,13.8-1.68,20.71l-1.44,20,1.82,10.55c.66,3.81,1.27,7.32,2.11,11,1,3.65,1.68,7.56,2.4,11.41l1,5.8c.16,1,.27,2.07.4,3l.4,3.21v12c0,3.89,0,7.79-.18,11.62l-.48,11.56-.24,5.78c-.06,1-.07,1.91-.06,2.84v3.1l-2.65,27.46c-.39,4.54-1,9-1.54,13.58L1927.46-962l-2,9.3-1.76,13.61c-.28,2.31-.61,4.6-.87,6.93l-.71,7-1.44,14c-.13,1.17-.2,2.33-.39,3.5l-.59,3.52-1.14,6.81-.81,8.79.09,9.15.58,7.26c.18,2.49.6,5,.89,7.46l2,15,2.08,15,2.16,15.26.41,5.71.35,5.51.65,11m0,.24c-.06,8.18-.37,15.94-.54,23.77l-.3,11.74c-.06,3.91-.29,7.81-.21,11.74,0,15.68.29,31.35-.05,47.07-.09,15.69,0,31.36,0,47l.11,23.62c.23,7.89-.37,15.81-.64,23.72l-5.65,16.65.25,22-.33,22.67-.16,12.41-.31,9.38-.09,47.16-.08,1.66.1,17.57-.66,32.78,0,1.8-.33,28.29.34,10.7.31,9.7-.08,2.82-.61,12.32-1.06,7.77-.37,2.79-1.05,7.49-1.15,8.27-.33,2.09-1.11,7.06L1910.9-312l-.07.73-.15,1.37-.33,3.24-1.09,10.44-.25,5.94,2.39,10.92,6.23,26.69m106.44-1321.9,8.21,4.93,10,5.16,3.49,1.93,13.22,5,10,3.14,18.85,4.94,18.78,3.51,84.66,18.83,4.39,1.78,3.14.44,22.17,5.08,11.08,2.54,5.54,1.26,5.6,1,8.43,2.45c1.9.31,3.79.66,5.69,1m0,0,1.32-5.33,1.46-5.86.73-2.93.89-2.82.88-2.82,1-2.9,2-5.8,4-11.6,2-5.8,2.11-5.76,8.5-23.17,2.13-5.82,1.9-5.86c1.22-3.94,2.68-7.75,4.06-11.6L2307-1655.9c2.82-7.71,5.53-15.55,8.18-23.28,1.34-3.88,2.66-7.76,4.07-11.61l4.28-11.94,1.75-8.25,1.53-7.88,1.51-7.83c.5-2.6,1-5.19,1.55-7.81,1-5.22,2.19-10.46,3.11-15.67.48-2.6.87-5.21,1.44-7.82s1-5.23,1.49-7.86c.93-5.25,1.83-10.58,2.79-15.76l1.44-7.8,1.56-7.83,1.57-7.84c.53-2.61.91-5.19,1.38-7.79s.82-5.21,1.51-7.73l1.78-7.38,1.58-4.83,5.28-7.77,9.74-11.78M1917.63-252.64l3.47,14.91m480.22-1209.85-18.53-12.37-2.56-2.92c-11.37-8-23.08-15.51-35-22.65l-8.68-4-8.9-3.52-9-3.32-9-3.22-14.39-3.75-3.61-.9L2288-1505l-7.27-1.55-14.55-3.09c-3-.63-5.93-1.26-8.9-1.85"/></g><g id="西郷"><path class="cls-3" d="M1171.47,1209.83l18.2-12.81,9.35-6,10.61-6.85,13.06-9.24,9.8-5.83,3.67-2.44,19.26-12.82,6.5-3.92,1-.61,20.72-13.69,20.87-13.68,10.84-6.27,10.42-6.6,11.53-7.73,1-.49,16.52-11.19,12.12-7.64,6.48-4.28,3.46-2,.77-.37,12.41-6.11,2.73-1.3,5.46-2.41,8-4.15.33-.15.9-.41,2.64-1.18,4.94-1.94,3.2-1,2.67-.81,7.89-1.34.32,0,11-1.55,2.35-.28,2.89-.61,9.75-1.6,8.51-1.6,2.18-.49,1.49-.34,2.87-.29,2.57-.17,3-.06h3.15l2.18.17,1.83.29,2.29.46,2.36.46,3.61.74.31.14,1.06.09.86.12,1.49-.06,1.89-.23,1.32-.23,1.84-.46,1.31-.4,1.39-.52,10.53-4,1.08-.41,14.26-5.46,5.92-2.26,3-1,2.24-.75,25.82-9.82,17.35-6.6,9.58-3.5,21.82-7.95,12.25-4.46,2.25-1.13,11.61-4.07,4.07-.57,3.48.32,2.74.42,2,.55,4.1,1.61,13.83,5.52,4.26,1.59,2.66.32,5.2-.11.78,0,6.62-.74,1.47-.16,6.73-.35,1.57-.08,3,.09,5.64-.31,4-.49,2-.55,5.83-1.62,5.18-1.44,5.65-1.31,2.26-.52,6.31-2.19.4-.25,3.51-2.28,5.81-3.76,1.26-.81,5.69-16c1.57-2.18,3.17-4.23,4.72-6.51.8-1.12,1.5-2.23,2.38-3.37l2.52-3.29,9.85-12.82c6.59-8.53,13-17.19,19.46-25.81l19.4-25.92,4.88-6.51c1.61-2.19,3.25-4.34,5-6.46l9.85-12.5,2.16-3.47c.77-1.25,1.55-2.5,2.4-3.73l2.47-3.71,2.67-3.83,2.81-3.37,4.64-6.78,2.28-4.74,2.07-5.91c.76-2,1.38-4.18,2-6.3s1.27-4.22,2-6.35l2.09-6.17c2.68-10.58,5.76-22.15,9.2-32.77l4.07-17.43,2.07-8.77,1.7-8.51,1.53-16.42.08-.86L1853.42,685l-5.57-12.9-2.67-9.19c-.75-2.88-1.62-6-2.16-8.7l-1.83-8.41c-.32-1.41-.61-2.81-.86-4.2l-.95-5-1.08-11.06-1-12L1839,599.7l0-5v-.11l-.46-5.63-1.6-5.38-1.06-3.54-1.35-4.33-2.06-10.15-.18-2.47-.07-1.09c0-.39,0-.66,0-.9l0-3.09c0-2.06-.06-4.12,0-6.18l.28-11.4.25-11,.12-5.5,0-5.65.35-11.68c.21-3.83.33-7.79.62-11.51l1.53-22.3c.23-3.65.54-7.31.7-10.94l.39-10.83.19-5.44,0-5.63.11-11.26m-665.18,781.08-10.21,2.27-7.87,4.17-11,6.55-.33.19-1,.49-1.62.81-5,.43-2-.47-10.35-2.06-2.49-.5-4-.86-3.81-.67-1-.07h-1l-1,0-.5.06-.92.11-1.18.18-1.38.31-1.14.31-1.11.42-1.07.41-1.25.59-1.56.94-11,7.28-4,2.67-4,2.61-.42.28-3.08,2-2.38,1.56-1.64,1.11-1.72,1.18-1.76,1-1.88,1-1.58.82-.63.32-.44.11-1.48.34-2,.37-2.33.25-2.38.12-2.08.08-2-.08-2.33-.16-1.42-.21-7.69-2.83-9.1-3.46-5.38-2.39-1.31-.5-8.4-2.59-10.91-3.67-5.82-1.26-3.57-.78-3.72-.49-3.21-.11-5.36.06-7.16.11-5.42.61-4.75.84-4.2,1-4.41,1.12-8.69,2.29-2.57.59-8.15,1.1-3.67-.75-3.26-.75-3.69-1.26-2.26-.94-4.33-1.52L917,1220.24l-2.2-2.85-2.1-2.5-3-2.35-8.51-5.15-6.7-4.21-3.77-2.7-5.25-3-2.86-1.25-6.11-1.35-22.11-4.09-7.78-2.06-3.28-.82-5.86-1.46-9.65-3.22-6.54-2.07-4-1.35-6.43-2-8.51-2.38-2.59-.63-4.87-1.34-3.22-1-3.52-1.18-10-3-1.44-.33-3.67-.87-12.44-4.42-3.79-2-4.61-2.93-12.61-10.3-.18-.15-6-4.94-11.65-8.79-8.47-4.66-9.75-4.77-11.86-3.7-33.16-5-8.37-1.06-6-.84-6.85-1-7.87-1.06-11.1-1.18-8.1-.65-4.49-.18-1-.06-1.66-.09-12-.18-10.79-.11-3.27-.19-4.13-.22-5-.45-.89-.08-3.38-.4-2.51-.41-5.19-1.51-7.28-2.1-6.53-1.75-5-1.2-4.86-1.11L527,1098.4l-6.44-1.35-5.75-.94-4.8-.58-5.86-.42-6.39-.11-6.74.11-7,.59-3.62.44-.72.09-3.75.52-2.58.53-11,2.53-2.17.58L458,1101l-3.06.85-3.16,1.12-2.82.94-2.23.82-2,1-1,.52-1.27.66-6.39,3.4-7,3.92-4.8,2.87-2.81,1.76-.23.14-2.47,1.56-1.09.66-2.07,1.27-3.23,1.64-2.61,1.06-.69.29-2,.59-16,4.15-1.59.46L377,1134.18l-32.25,9.59L307.43,1154l-12.33,3.53-18.26,5.42L262,1167.32l-4.22,1.12-3.7,1.12-3.6,1.24-3.55,1.45-1.23.58-2,.92-3.55,1.54-2.81,1.38-2.39,1.16-1.19.48-1.93.84-3.39,1.52-3.33,1.46-2.91,1.42-2.4,1.2-2.58,1.23-2.43,1.23-3.13,1.7-2.56,1.37-2,1.65-2.21,2.13-2.5,2.69-2.47,2-.12.09-3.59,2.57-3.32,2.09-.77.47-1.47.92-1.73,1.46-2.94,3-.2.21-1.91,2.57-1.9,2.49-.3.39-1.56,1-1.36.88-2.32,1.76-2.77,2.4-2.88,2.58-1.71,1.83-1.69,1.64-2.77,3.22-4,4.3-6.76,7-2.75,2.89-1.32,1.66-1.9,2.49-1.53,2.18-3.18,3.21-3.06,3.16L137,1260l-3.87,3-4.51,2.74m213.13,568.84,5.47-14.65,2.05-8.85,1-2.08,1.75-1.78,4-2.74,6.86-3.68,7.22-3.43,6.06.2,21.77,5.14h3.24l2.4-1.63,1.58-1.57,2.4-4.85.68-4,1.39-2.43,1.8-1.46,2.56-1.45,9.45-1.91,8.81-6.6,11.06-7.11,2.07-3.72,1.77-5.79,2.07-12.06.47-1.28,1.3-2.91,2.87-4.34,4.61-7.06,2.74-3.39,1-.95,19.73-17,3.27-3,2.29-2,1.62-1.24,1.45-.81.43-.23,4.39-2.29.91-.48.52-.36.47-.4.32-.46.33-.83.78-2,.84-2,.71-1.65.6-1.16.65-1.15.64-1,.69-1.07,1.07-1.17,1.22-1.22,1.29-1,1.69-1,2.43-1.24,5.31-3,4-2.25,1.82-1,10.58-5.58,8.67-4.79,4.12-2.2,10.82-6,2.39-1.11,2-1.15,2.7-1.76,4.09-4.32,3.79-5.43,4.84-4.6,8.23-6.94,3.76-4,6.62-8,2.32-2.79,5-6.29,5.55-6.92,2.55-4.91,2.39-4.61,1.14-3.07.12-.42.61-2.24.75-2.74,2-5.83,1.13-4.32,1.75-5.8.88-2.7,1.5-4,2.69-5.89,6.77-13.47.24-.44,9.53-17.48,1-2.09.24-.53.82-1.78,11.48-21.32,2.9-7.57,2.09-5.61,5.67-8.64,1.28-1.55.8-1,16.09-18.41L699.9,1441l.37-.41.65-.7,9.33-10.46,1.64-1.4,2.08-1.57,2-1.2,2.21-1,3-1.19,1.22-.44,23-8.26,10.77-3.87,3.54-1.32L814,1389.14l14.93-5.78,8.62-3.34,10.06-3.87,10.11-4.68,9.18-6.31,6.56-4.44,2.94-1.68,4-1.76,6.12-2.24,22.18-5.69,65.4-27.61,5.37-3,5.93-5,3.88-3.63,9.43-10.3,2.68-5.85,2.75-4.77L1009,1280l5.13-12.71,2.23-5,.21-.51,7.72-19.26,1.43-3.7.34-1.4"/><path class="cls-5" d="M1171.47,1209.83l18.2-12.81,9.35-6,10.61-6.85,13.06-9.24,9.8-5.83,3.67-2.44,19.26-12.82,6.5-3.92,1-.61,20.72-13.69,20.87-13.68,10.84-6.27,10.42-6.6,11.53-7.73,1-.49,16.52-11.19,12.12-7.64,6.48-4.28,3.46-2,.77-.37,12.41-6.11,2.73-1.3,5.46-2.41,8-4.15.33-.15.9-.41,2.64-1.18,4.94-1.94,3.2-1,2.67-.81,7.89-1.34.32,0,11-1.55,2.35-.28,2.89-.61,9.75-1.6,8.51-1.6,2.18-.49,1.49-.34,2.87-.29,2.57-.17,3-.06h3.15l2.18.17,1.83.29,2.29.46,2.36.46,3.61.74.31.14,1.06.09.86.12,1.49-.06,1.89-.23,1.32-.23,1.84-.46,1.31-.4,1.39-.52,10.53-4,1.08-.41,14.26-5.46,5.92-2.26,3-1,2.24-.75,25.82-9.82,17.35-6.6,9.58-3.5,21.82-7.95,12.25-4.46,2.25-1.13,11.61-4.07,4.07-.57,3.48.32,2.74.42,2,.55,4.1,1.61,13.83,5.52,4.26,1.59,2.66.32,5.2-.11.78,0,6.62-.74,1.47-.16,6.73-.35,1.57-.08,3,.09,5.64-.31,4-.49,2-.55,5.83-1.62,5.18-1.44,5.65-1.31,2.26-.52,6.31-2.19.4-.25,3.51-2.28,5.81-3.76,1.26-.81,5.69-16c1.57-2.18,3.17-4.23,4.72-6.51.8-1.12,1.5-2.23,2.38-3.37l2.52-3.29,9.85-12.82c6.59-8.53,13-17.19,19.46-25.81l19.4-25.92,4.88-6.51c1.61-2.19,3.25-4.34,5-6.46l9.85-12.5,2.16-3.47c.77-1.25,1.55-2.5,2.4-3.73l2.47-3.71,2.67-3.83,2.81-3.37,4.64-6.78,2.28-4.74,2.07-5.91c.76-2,1.38-4.18,2-6.3s1.27-4.22,2-6.35l2.09-6.17c2.68-10.58,5.76-22.15,9.2-32.77l4.07-17.43,2.07-8.77,1.7-8.51,1.53-16.42.08-.86L1853.42,685l-5.57-12.9-2.67-9.19c-.75-2.88-1.62-6-2.16-8.7l-1.83-8.41c-.32-1.41-.61-2.81-.86-4.2l-.95-5-1.08-11.06-1-12L1839,599.7l0-5v-.11l-.46-5.63-1.6-5.38-1.06-3.54-1.35-4.33-2.06-10.15-.18-2.47-.07-1.09c0-.39,0-.66,0-.9l0-3.09c0-2.06-.06-4.12,0-6.18l.28-11.4.25-11,.12-5.5,0-5.65.35-11.68c.21-3.83.33-7.79.62-11.51l1.53-22.3c.23-3.65.54-7.31.7-10.94l.39-10.83.19-5.44,0-5.63.11-11.26m-665.18,781.08-10.21,2.27-7.87,4.17-11,6.55-.33.19-1,.49-1.62.81-5,.43-2-.47-10.35-2.06-2.49-.5-4-.86-3.81-.67-1-.07h-1l-1,0-.5.06-.92.11-1.18.18-1.38.31-1.14.31-1.11.42-1.07.41-1.25.59-1.56.94-11,7.28-4,2.67-4,2.61-.42.28-3.08,2-2.38,1.56-1.64,1.11-1.72,1.18-1.76,1-1.88,1-1.58.82-.63.32-.44.11-1.48.34-2,.37-2.33.25-2.38.12-2.08.08-2-.08-2.33-.16-1.42-.21-7.69-2.83-9.1-3.46-5.38-2.39-1.31-.5-8.4-2.59-10.91-3.67-5.82-1.26-3.57-.78-3.72-.49-3.21-.11-5.36.06-7.16.11-5.42.61-4.75.84-4.2,1-4.41,1.12-8.69,2.29-2.57.59-8.15,1.1-3.67-.75-3.26-.75-3.69-1.26-2.26-.94-4.33-1.52L917,1220.24l-2.2-2.85-2.1-2.5-3-2.35-8.51-5.15-6.7-4.21-3.77-2.7-5.25-3-2.86-1.25-6.11-1.35-22.11-4.09-7.78-2.06-3.28-.82-5.86-1.46-9.65-3.22-6.54-2.07-4-1.35-6.43-2-8.51-2.38-2.59-.63-4.87-1.34-3.22-1-3.52-1.18-10-3-1.44-.33-3.67-.87-12.44-4.42-3.79-2-4.61-2.93-12.61-10.3-.18-.15-6-4.94-11.65-8.79-8.47-4.66-9.75-4.77-11.86-3.7-33.16-5-8.37-1.06-6-.84-6.85-1-7.87-1.06-11.1-1.18-8.1-.65-4.49-.18-1-.06-1.66-.09-12-.18-10.79-.11-3.27-.19-4.13-.22-5-.45-.89-.08-3.38-.4-2.51-.41-5.19-1.51-7.28-2.1-6.53-1.75-5-1.2-4.86-1.11L527,1098.4l-6.44-1.35-5.75-.94-4.8-.58-5.86-.42-6.39-.11-6.74.11-7,.59-3.62.44-.72.09-3.75.52-2.58.53-11,2.53-2.17.58L458,1101l-3.06.85-3.16,1.12-2.82.94-2.23.82-2,1-1,.52-1.27.66-6.39,3.4-7,3.92-4.8,2.87-2.81,1.76-.23.14-2.47,1.56-1.09.66-2.07,1.27-3.23,1.64-2.61,1.06-.69.29-2,.59-16,4.15-1.59.46L377,1134.18l-32.25,9.59L307.43,1154l-12.33,3.53-18.26,5.42L262,1167.32l-4.22,1.12-3.7,1.12-3.6,1.24-3.55,1.45-1.23.58-2,.92-3.55,1.54-2.81,1.38-2.39,1.16-1.19.48-1.93.84-3.39,1.52-3.33,1.46-2.91,1.42-2.4,1.2-2.58,1.23-2.43,1.23-3.13,1.7-2.56,1.37-2,1.65-2.21,2.13-2.5,2.69-2.47,2-.12.09-3.59,2.57-3.32,2.09-.77.47-1.47.92-1.73,1.46-2.94,3-.2.21-1.91,2.57-1.9,2.49-.3.39-1.56,1-1.36.88-2.32,1.76-2.77,2.4-2.88,2.58-1.71,1.83-1.69,1.64-2.77,3.22-4,4.3-6.76,7-2.75,2.89-1.32,1.66-1.9,2.49-1.53,2.18-3.18,3.21-3.06,3.16L137,1260l-3.87,3-4.51,2.74m213.13,568.84,5.47-14.65,2.05-8.85,1-2.08,1.75-1.78,4-2.74,6.86-3.68,7.22-3.43,6.06.2,21.77,5.14h3.24l2.4-1.63,1.58-1.57,2.4-4.85.68-4,1.39-2.43,1.8-1.46,2.56-1.45,9.45-1.91,8.81-6.6,11.06-7.11,2.07-3.72,1.77-5.79,2.07-12.06.47-1.28,1.3-2.91,2.87-4.34,4.61-7.06,2.74-3.39,1-.95,19.73-17,3.27-3,2.29-2,1.62-1.24,1.45-.81.43-.23,4.39-2.29.91-.48.52-.36.47-.4.32-.46.33-.83.78-2,.84-2,.71-1.65.6-1.16.65-1.15.64-1,.69-1.07,1.07-1.17,1.22-1.22,1.29-1,1.69-1,2.43-1.24,5.31-3,4-2.25,1.82-1,10.58-5.58,8.67-4.79,4.12-2.2,10.82-6,2.39-1.11,2-1.15,2.7-1.76,4.09-4.32,3.79-5.43,4.84-4.6,8.23-6.94,3.76-4,6.62-8,2.32-2.79,5-6.29,5.55-6.92,2.55-4.91,2.39-4.61,1.14-3.07.12-.42.61-2.24.75-2.74,2-5.83,1.13-4.32,1.75-5.8.88-2.7,1.5-4,2.69-5.89,6.77-13.47.24-.44,9.53-17.48,1-2.09.24-.53.82-1.78,11.48-21.32,2.9-7.57,2.09-5.61,5.67-8.64,1.28-1.55.8-1,16.09-18.41L699.9,1441l.37-.41.65-.7,9.33-10.46,1.64-1.4,2.08-1.57,2-1.2,2.21-1,3-1.19,1.22-.44,23-8.26,10.77-3.87,3.54-1.32L814,1389.14l14.93-5.78,8.62-3.34,10.06-3.87,10.11-4.68,9.18-6.31,6.56-4.44,2.94-1.68,4-1.76,6.12-2.24,22.18-5.69,65.4-27.61,5.37-3,5.93-5,3.88-3.63,9.43-10.3,2.68-5.85,2.75-4.77L1009,1280l5.13-12.71,2.23-5,.21-.51,7.72-19.26,1.43-3.7.34-1.4"/></g></g></g></svg>