<svg id="routes" xmlns="http://www.w3.org/2000/svg" xmlns:xlink="http://www.w3.org/1999/xlink" viewBox="0 0 1024 1024"><defs><style>.cls-1,.cls-3,.cls-4,.cls-5{fill:none;}.cls-2{clip-path:url(#clip-path);}.cls-3{stroke:#231815;stroke-width:8.79px;}.cls-3,.cls-4,.cls-5{stroke-linecap:round;stroke-miterlimit:10;}.cls-4{stroke:#ebca1b;}.cls-4,.cls-5{stroke-width:4.4px;}.cls-5{stroke:#985d1b;}</style><clipPath id="clip-path"><rect class="cls-1" x="-4007" y="-7164" width="11720" height="11720"/></clipPath></defs><title>3234_7148</title><g class="cls-2"><g id="日ノ丸線"><g id="江波"><path class="cls-3" d="M1706,2080.54l-3.41-21.17c-.32-1.76-.51-3.54-.7-5.32l-.58-5.35-1.2-11,0-45.24.93-12.59,1.13-6.36,3.86-13.85,7.42-15.86,7.31-15.33,7.32-15.34,3.66-7.67.92-1.92.87-1.88,1.77-3.9c1.12-2.6,2.48-5.18,3.72-7.73l3.68-7.61c2.46-5.06,4.82-10.23,7.24-15.35s4.86-10.23,7.32-15.34l7.27-15.08,3.12-8.29c.55-1.42,1-2.85,1.64-4.26l1.68-3.91,1.4-4.92c.49-1.76,1-3.49,1.43-5.31l2.51-10.84c.78-3.62,1.81-7.21,2.78-10.8l2.94-10.79,11.7-43c1-3.55,1.85-7.19,2.7-10.81l2.54-10.87,1.28-5.44c.43-1.81.8-3.63,1.37-5.41l3.12-10.73,1.56-5.36.78-2.68.68-2.68,2.7-10.75,5.34-21.2,1.4-12.51.21-18.09.15-1.46c0-.41.09-.83.15-1.25l.19-1.24.19-1.1c.14-.74.22-1.45.32-2.16l.35-2.45.63-3,.89-2.46,1.12-1.93.55-.77.38-.52c.25-.32.49-.64.74-1s.47-.7.77-1.08l1.15-1.48,1.51-1.41,1.21-1.21c.81-.8,1.6-1.62,2.43-2.4l5.12-4.54,5.12-4.53,4.75-4.15,3.73-4.57,1.82-3.35.9-2.34.51-3.33.17-8.74-1-15.56-.22-4-.1-4-.19-7.73-1.3-12.84-3.2-6.7c-1-2-2.71-4.68-4.12-7.12s-2.92-4.91-4.37-7.49c-.7-1.3-1.48-2.59-2.12-3.89l-2.11-4.15-2.38-6-.6-5.12v-10.83l1.28-5.51,2.87-7.1,2-3.67c.6-1.15,1.26-2.19,1.89-3.29l3.82-6.5,7.77-13.21,15.16-21.5,6.83-24.35,26.27-41,8.9-9.9,8.23-9.19,8.18-9.2c2.72-3.06,5.33-6.14,8-9.21l4-4.6c1.34-1.53,2.52-3.1,3.8-4.64,2.49-3.11,5.06-6.19,7.34-9.37l3.51-4.74c1.2-1.56,2.17-3.21,3.27-4.82s2.16-3.18,3.16-4.92l2.62-4.37,1.94-4.77,1.12-4.13c.47-1.58.75-3.31,1.14-5l2.07-9.62,2.68-18.78-.07-12.45-.82-9.73-1.54-7.29-1.31-4.16-1.52-4.71-3-9-3.62-8.62-4.78-7.8-6-8.39-12.35-17.33-6.29-10.78-3.56-11.79-1.55-12.37-.43-10,.66-11.32,2.59-12.24,1.57-4.42.35-1.35.53-1.63,1.3-4,3.57-7.08,1-2a15.91,15.91,0,0,1,1.61-2.5l2-2.88,8.15-11.51,16.3-23,9.56,6.77,5.28,1.23,1.38.32,10.25,2.38,9.09,2.26,7.07,5.68,8.49,6.28,6.63,2.79,4.12,1.81,2,.89,30.44,15,17.66,8.5,2.51,1.22,15.61,8.57,16.61,8.72,10.75,5.75,12.38,6.36,2,1.07,8,4.11,11,4.73,8.92,2.45,9.31,2.2,2.94.31,12.94,1.36,28.13,1.47,11.6-.62,12.18-2.77,6.93-2.59,16.1-7.43,18.4-8,8.18-3.93,3.63,3.67.45.23,4,1.8,4.94,2.29.29.14,10.57,4,6.57-.42,14.24-.88,15.67-.82,11.37-.48,11.32.15,3.76,1,3.11.82,10.8,4.14,1,.6,10.4,6.33,2.1,2.09,4.6,6.91,4.1,6.16.83,1.54.67,1.42.67,1.38.71,1,.79,1,.91,1.23,1.22,1,1.46,1.15.31.24.71.54,4.06,2.45,1.31.72,4.71,2.61,2.75,1.88,1.58,2.28.62,1.68.74,1.58.56,1.67.56,2.14m-2138,1162.77,3.31-.94,4.51-4.94,1.26-.8,12.86,3.15h14.55l6.08-.49,3.22-.8,8.5-3.06,13.08-6.62,11.86-6.59,13.27-13,5.27-4.16,6.4-3.57,8-1.59,7.1-.38,6.36-.6,4.47-1.42,8.32-5.31,5-4.4,3-7.5,4.15-7.25,10.56-10,2.72-2.08,3.21-1.43,11.34-3.71,13.9-2.42,3.39-1.12,2.55-1.6,1-1L499,2207l2.4-5.3,2.24-6.11.81-1.63,3.68-11.07,2.1-4.83,2.37-3.08,2.7-2.39,5.45-3.23,7.22-2.88h2.71l3.86,2.25,5.85,5.34,4.4,4,3.68,2.71,4.31,2.43,1.6,1.12,2.08,2.08.95,2.42,2.1,8.05,1.28,6.91,1.12,4.19,1.12,1.54,2,.86h3.16l6.66-1.29,3.22-.79,6.22-1.15,7.35-1.91,10.09-4.19,13.6-7.71,16.33-8.05,17-9.64,2.73-2.43,2.56-4.82,1.44-1.6,3-1.77,5.12-2.57,3.2-1h5.91l7.85,1.29,5.75.17,7.82-1.77,9.44-.49,7.35-1.45,7.53-2.43,5.61-1.29,10.41-1h6.88l2.86,1,4.65,2.09,7.69,5.65,1.09.32,1.47.48.47-.48,1.14-.49,1.75-1.62,11.52-15.42,3.52-4,3.68-2.24,2.89-1,7.68-1.45,7.83-1.12h15.83l4.5-1,5.91-2.91,1.13-1.11,1.6-1,6.38-6.43L844.93,2110l2.24-1.77,4.33-1,17.77-.34,3.68-.63,2.56-.37,1.58-.45,1.31-1.26.42-2.11.37-3.6.51-2.14,1.1-2.19,3-1.72,5.6-2.08,5.92-1.29,4.49-.17,11,1.6,9.13,2.09,5.45,2.73,5,3.23,5.9,6,8.66,9.19,7.17,6.08,4.29,3.27,2.75,1.65,3.79.47h3.5l6.43-1.31,4.56-5.56,16.46-2,5.12.8,6.71,2.88,5.92,3.89,3.21,2.57,1.28.79,6.68,6.42.52.49,2.86,1.77,7.38,3.54,10.72,7.39,8.64,6.57,8.8,6.28,10.48,5.82,7.6,3.34,5.12,2.25,10.38,3.71.82.32,1.12.65,10.08,4,7.67,4,4.16,2.91,1.28,1.6,1,2.91.16,4.82-.63,4.32-1.6,6.13-1.78,3.37-3.84,4.19-5.75,4.83-2.07,2.57-.49.93-1.44,4.37-1.28,5.31-1.1,8.51.47.8,1.6,4.68,7.52,13.35,6.88,10.76,3,.66,5.61.62h5.59l6.25.18,4.65.34,10.72.28,6.57.49,3.68.51,6.38,2.23,4.32,2.08.49,2,.31,6.59-.47,10.16V2300l.31,6.28-.31,4.79-2.72,7.56-4,8.85-1.44,4.65v3.08l.79,1.78.49.31,1.28.8,2.56-.49.79-.31,9.78-4.83,8.15-3.22,5.29-1.29,5.75-1,10.72.17,1-.34,6.06-3.68,1.28-.48,2.14-.29,4.06.74,7.31,4.11,4.12-.2,7.17-2.8,3.68-1,4.82.34,3.68,3,10.72,14.64,2.55,4.48,1.94,6.14.79,4.82v7.54l-1.77,9L1270,2381v13.15l1.72,23.23,1,2.8,6.12,7.93,1.21,1.77,1.89-1.23,6.47.09,3.22-.8,7.54-4.34,6.53-5.3,7.84-7.57,16.35-16.41,8.8-7.87,7-6.14,8.49-5.37,8.46-4.39,5.18-1.71,7-2.06,8.68-2.8,12.69-2.12,1.24-.2,1.17-.5,1.27-.62,1-1,1-1.67.5-1.59,2.9-8.43,2.08-2.79,2.13-1.14,2.27-1.42,6.82-2.13,2.87-.92,1.54-.5,3.84-1.14,2-.59,2.28-.68,8.68-2.67,5.25-1.6,3.26-1,4.55-1.41,10.34-3.68,7.48-4,1.15-.62,7.18-5.17,1.08-.88,9.46-7.82.89-.73,7.36-6.48,6.47-7.06,6.62-9.71,7.65-16.92.63-2.13,1.31-3.31,2.47-5.45,3.57-7.66,4.2-7.87,1.52-2.8,5-7.42,4.51-6.73,3.85-6.1,2.8-3.66,3.23-4.86,4.16-6.8,3.16-7.41,4.56-15.14,3.88-11.78,2.54-5.13,2.05-3.28,2.46-2.87,4.47-3.85,9.41-6.3,15.47-9.17,9.36-5.09,2.24-1.29.66-.27,6-2.49,9.87-4.12,2.79-1.18,2.69-1.15,7.8-3.34,4.15-1.43,2.56-1.31,13.69-6.16,4.14-1.38,2.66-.79,2.2-.66,6.41-2.6,3.4-1.62,3.41-2.43,2.47-1.76,1.17-.84,2.68-3.16,10.16-8.14.49-.39,1.86-1.55m-.55-3.43.55,3.43"/><path class="cls-4" d="M1706,2080.54l-3.41-21.17c-.32-1.76-.51-3.54-.7-5.32l-.58-5.35-1.2-11,0-45.24.93-12.59,1.13-6.36,3.86-13.85,7.42-15.86,7.31-15.33,7.32-15.34,3.66-7.67.92-1.92.87-1.88,1.77-3.9c1.12-2.6,2.48-5.18,3.72-7.73l3.68-7.61c2.46-5.06,4.82-10.23,7.24-15.35s4.86-10.23,7.32-15.34l7.27-15.08,3.12-8.29c.55-1.42,1-2.85,1.64-4.26l1.68-3.91,1.4-4.92c.49-1.76,1-3.49,1.43-5.31l2.51-10.84c.78-3.62,1.81-7.21,2.78-10.8l2.94-10.79,11.7-43c1-3.55,1.85-7.19,2.7-10.81l2.54-10.87,1.28-5.44c.43-1.81.8-3.63,1.37-5.41l3.12-10.73,1.56-5.36.78-2.68.68-2.68,2.7-10.75,5.34-21.2,1.4-12.51.21-18.09.15-1.46c0-.41.09-.83.15-1.25l.19-1.24.19-1.1c.14-.74.22-1.45.32-2.16l.35-2.45.63-3,.89-2.46,1.12-1.93.55-.77.38-.52c.25-.32.49-.64.74-1s.47-.7.77-1.08l1.15-1.48,1.51-1.41,1.21-1.21c.81-.8,1.6-1.62,2.43-2.4l5.12-4.54,5.12-4.53,4.75-4.15,3.73-4.57,1.82-3.35.9-2.34.51-3.33.17-8.74-1-15.56-.22-4-.1-4-.19-7.73-1.3-12.84-3.2-6.7c-1-2-2.71-4.68-4.12-7.12s-2.92-4.91-4.37-7.49c-.7-1.3-1.48-2.59-2.12-3.89l-2.11-4.15-2.38-6-.6-5.12v-10.83l1.28-5.51,2.87-7.1,2-3.67c.6-1.15,1.26-2.19,1.89-3.29l3.82-6.5,7.77-13.21,15.16-21.5,6.83-24.35,26.27-41,8.9-9.9,8.23-9.19,8.18-9.2c2.72-3.06,5.33-6.14,8-9.21l4-4.6c1.34-1.53,2.52-3.1,3.8-4.64,2.49-3.11,5.06-6.19,7.34-9.37l3.51-4.74c1.2-1.56,2.17-3.21,3.27-4.82s2.16-3.18,3.16-4.92l2.62-4.37,1.94-4.77,1.12-4.13c.47-1.58.75-3.31,1.14-5l2.07-9.62,2.68-18.78-.07-12.45-.82-9.73-1.54-7.29-1.31-4.16-1.52-4.71-3-9-3.62-8.62-4.78-7.8-6-8.39-12.35-17.33-6.29-10.78-3.56-11.79-1.55-12.37-.43-10,.66-11.32,2.59-12.24,1.57-4.42.35-1.35.53-1.63,1.3-4,3.57-7.08,1-2a15.91,15.91,0,0,1,1.61-2.5l2-2.88,8.15-11.51,16.3-23,9.56,6.77,5.28,1.23,1.38.32,10.25,2.38,9.09,2.26,7.07,5.68,8.49,6.28,6.63,2.79,4.12,1.81,2,.89,30.44,15,17.66,8.5,2.51,1.22,15.61,8.57,16.61,8.72,10.75,5.75,12.38,6.36,2,1.07,8,4.11,11,4.73,8.92,2.45,9.31,2.2,2.94.31,12.94,1.36,28.13,1.47,11.6-.62,12.18-2.77,6.93-2.59,16.1-7.43,18.4-8,8.18-3.93,3.63,3.67.45.23,4,1.8,4.94,2.29.29.14,10.57,4,6.57-.42,14.24-.88,15.67-.82,11.37-.48,11.32.15,3.76,1,3.11.82,10.8,4.14,1,.6,10.4,6.33,2.1,2.09,4.6,6.91,4.1,6.16.83,1.54.67,1.42.67,1.38.71,1,.79,1,.91,1.23,1.22,1,1.46,1.15.31.24.71.54,4.06,2.45,1.31.72,4.71,2.61,2.75,1.88,1.58,2.28.62,1.68.74,1.58.56,1.67.56,2.14m-2138,1162.77,3.31-.94,4.51-4.94,1.26-.8,12.86,3.15h14.55l6.08-.49,3.22-.8,8.5-3.06,13.08-6.62,11.86-6.59,13.27-13,5.27-4.16,6.4-3.57,8-1.59,7.1-.38,6.36-.6,4.47-1.42,8.32-5.31,5-4.4,3-7.5,4.15-7.25,10.56-10,2.72-2.08,3.21-1.43,11.34-3.71,13.9-2.42,3.39-1.12,2.55-1.6,1-1L499,2207l2.4-5.3,2.24-6.11.81-1.63,3.68-11.07,2.1-4.83,2.37-3.08,2.7-2.39,5.45-3.23,7.22-2.88h2.71l3.86,2.25,5.85,5.34,4.4,4,3.68,2.71,4.31,2.43,1.6,1.12,2.08,2.08.95,2.42,2.1,8.05,1.28,6.91,1.12,4.19,1.12,1.54,2,.86h3.16l6.66-1.29,3.22-.79,6.22-1.15,7.35-1.91,10.09-4.19,13.6-7.71,16.33-8.05,17-9.64,2.73-2.43,2.56-4.82,1.44-1.6,3-1.77,5.12-2.57,3.2-1h5.91l7.85,1.29,5.75.17,7.82-1.77,9.44-.49,7.35-1.45,7.53-2.43,5.61-1.29,10.41-1h6.88l2.86,1,4.65,2.09,7.69,5.65,1.09.32,1.47.48.47-.48,1.14-.49,1.75-1.62,11.52-15.42,3.52-4,3.68-2.24,2.89-1,7.68-1.45,7.83-1.12h15.83l4.5-1,5.91-2.91,1.13-1.11,1.6-1,6.38-6.43L844.93,2110l2.24-1.77,4.33-1,17.77-.34,3.68-.63,2.56-.37,1.58-.45,1.31-1.26.42-2.11.37-3.6.51-2.14,1.1-2.19,3-1.72,5.6-2.08,5.92-1.29,4.49-.17,11,1.6,9.13,2.09,5.45,2.73,5,3.23,5.9,6,8.66,9.19,7.17,6.08,4.29,3.27,2.75,1.65,3.79.47h3.5l6.43-1.31,4.56-5.56,16.46-2,5.12.8,6.71,2.88,5.92,3.89,3.21,2.57,1.28.79,6.68,6.42.52.49,2.86,1.77,7.38,3.54,10.72,7.39,8.64,6.57,8.8,6.28,10.48,5.82,7.6,3.34,5.12,2.25,10.38,3.71.82.32,1.12.65,10.08,4,7.67,4,4.16,2.91,1.28,1.6,1,2.91.16,4.82-.63,4.32-1.6,6.13-1.78,3.37-3.84,4.19-5.75,4.83-2.07,2.57-.49.93-1.44,4.37-1.28,5.31-1.1,8.51.47.8,1.6,4.68,7.52,13.35,6.88,10.76,3,.66,5.61.62h5.59l6.25.18,4.65.34,10.72.28,6.57.49,3.68.51,6.38,2.23,4.32,2.08.49,2,.31,6.59-.47,10.16V2300l.31,6.28-.31,4.79-2.72,7.56-4,8.85-1.44,4.65v3.08l.79,1.78.49.31,1.28.8,2.56-.49.79-.31,9.78-4.83,8.15-3.22,5.29-1.29,5.75-1,10.72.17,1-.34,6.06-3.68,1.28-.48,2.14-.29,4.06.74,7.31,4.11,4.12-.2,7.17-2.8,3.68-1,4.82.34,3.68,3,10.72,14.64,2.55,4.48,1.94,6.14.79,4.82v7.54l-1.77,9L1270,2381v13.15l1.72,23.23,1,2.8,6.12,7.93,1.21,1.77,1.89-1.23,6.47.09,3.22-.8,7.54-4.34,6.53-5.3,7.84-7.57,16.35-16.41,8.8-7.87,7-6.14,8.49-5.37,8.46-4.39,5.18-1.71,7-2.06,8.68-2.8,12.69-2.12,1.24-.2,1.17-.5,1.27-.62,1-1,1-1.67.5-1.59,2.9-8.43,2.08-2.79,2.13-1.14,2.27-1.42,6.82-2.13,2.87-.92,1.54-.5,3.84-1.14,2-.59,2.28-.68,8.68-2.67,5.25-1.6,3.26-1,4.55-1.41,10.34-3.68,7.48-4,1.15-.62,7.18-5.17,1.08-.88,9.46-7.82.89-.73,7.36-6.48,6.47-7.06,6.62-9.71,7.65-16.92.63-2.13,1.31-3.31,2.47-5.45,3.57-7.66,4.2-7.87,1.52-2.8,5-7.42,4.51-6.73,3.85-6.1,2.8-3.66,3.23-4.86,4.16-6.8,3.16-7.41,4.56-15.14,3.88-11.78,2.54-5.13,2.05-3.28,2.46-2.87,4.47-3.85,9.41-6.3,15.47-9.17,9.36-5.09,2.24-1.29.66-.27,6-2.49,9.87-4.12,2.79-1.18,2.69-1.15,7.8-3.34,4.15-1.43,2.56-1.31,13.69-6.16,4.14-1.38,2.66-.79,2.2-.66,6.41-2.6,3.4-1.62,3.41-2.43,2.47-1.76,1.17-.84,2.68-3.16,10.16-8.14.49-.39,1.86-1.55m-.55-3.43.55,3.43"/></g><g id="西郷"><path class="cls-3" d="M1171.47,185.83l18.2-12.81,9.35-6,10.61-6.85,13.06-9.24,9.8-5.83,3.67-2.44,19.26-12.82,6.5-3.92,1-.61,20.72-13.69,20.87-13.68,10.84-6.27,10.42-6.6,11.53-7.73,1-.49,16.52-11.19L1366.88,58l6.48-4.28,3.46-2,.77-.37L1390,45.2l2.73-1.3,5.46-2.41,8-4.15.33-.15.9-.41L1410,35.6l4.94-1.94,3.2-1,2.67-.81,7.89-1.34.32-.05,11-1.55,2.35-.28,2.89-.61,9.75-1.6,8.51-1.6,2.18-.49,1.49-.34,2.87-.29,2.57-.17,3-.06h3.15l2.18.17,1.83.29,2.29.46,2.36.46,3.61.74.31.14,1.06.09.86.12,1.49-.06,1.89-.23,1.32-.23,1.84-.46,1.31-.4,1.39-.52,10.53-4,1.08-.41,14.26-5.46,5.92-2.26,3-1,2.24-.75L1565.37.37l17.35-6.6,9.58-3.5,21.82-7.95,12.25-4.46,2.25-1.13,11.61-4.07,4.07-.57,3.48.32,2.74.42,2,.55,4.1,1.61,13.83,5.52,4.26,1.59,2.66.32,5.2-.11.78,0,6.62-.74,1.47-.16,6.73-.35,1.57-.08,3,.09,5.64-.31,4-.49,2-.55,5.83-1.62,5.18-1.44,5.65-1.31,2.26-.52,6.31-2.19.4-.25,3.51-2.28,5.81-3.76,1.26-.81,5.69-16c1.57-2.18,3.17-4.23,4.72-6.51.8-1.12,1.5-2.23,2.38-3.37l2.52-3.29,9.85-12.82c6.59-8.53,13-17.19,19.46-25.81l19.4-25.92,4.88-6.51c1.61-2.19,3.25-4.34,5-6.46l9.85-12.5,2.16-3.47c.77-1.25,1.55-2.5,2.4-3.73l2.47-3.71,2.67-3.83,2.81-3.37,4.64-6.78,2.28-4.74,2.07-5.91c.76-2.05,1.38-4.18,2-6.3s1.27-4.22,2-6.35l2.09-6.17c2.68-10.58,5.76-22.15,9.2-32.77l4.07-17.43,2.07-8.77,1.7-8.51,1.53-16.42.08-.86L1853.42-339l-5.57-12.9-2.67-9.19c-.75-2.88-1.62-6-2.16-8.7l-1.83-8.41c-.32-1.41-.61-2.81-.86-4.2l-.95-5-1.08-11.06-1-12L1839-424.3l0-4.95v-.11l-.46-5.63-1.6-5.38-1.06-3.54-1.35-4.33-2.06-10.15-.18-2.47-.07-1.09c0-.39,0-.66,0-.9l0-3.09c0-2.06-.06-4.12,0-6.18l.28-11.4.25-11,.12-5.5,0-5.65.35-11.68c.21-3.83.33-7.79.62-11.51l1.53-22.3c.23-3.65.54-7.31.7-10.94l.39-10.83.19-5.44,0-5.63.11-11.26M1171.47,185.83l-10.21,2.27-7.87,4.17-11,6.55-.33.19-1,.49-1.62.81-5,.43-2-.47-10.35-2.06-2.49-.5-4-.86-3.81-.67-1-.07h-1l-1,0-.5.06-.92.11-1.18.18-1.38.31-1.14.31-1.11.42-1.07.41-1.25.59-1.56.94-11,7.28-4,2.67-4,2.61-.42.28-3.08,2-2.38,1.56-1.64,1.11-1.72,1.18-1.76,1-1.88,1-1.58.82-.63.32-.44.11-1.48.34-2,.37-2.33.25-2.38.12-2.08.08-2-.08-2.33-.16-1.42-.21-7.69-2.83-9.1-3.46-5.38-2.39-1.31-.5-8.4-2.59-10.91-3.67-5.82-1.26-3.57-.78-3.72-.49-3.21-.11-5.36.06-7.16.11-5.42.61-4.75.84-4.2.95-4.41,1.12-8.69,2.29-2.57.59-8.15,1.1-3.67-.75-3.26-.75L927.74,209l-2.26-.94-4.33-1.52L917,196.24l-2.2-2.85-2.1-2.5-3-2.35-8.51-5.15-6.7-4.21-3.77-2.7-5.25-3-2.86-1.25-6.11-1.35-22.11-4.09-7.78-2.06-3.28-.82-5.86-1.46-9.65-3.22-6.54-2.07-4-1.35-6.43-2-8.51-2.38-2.59-.63-4.87-1.34-3.22-1-3.52-1.18-10-3-1.44-.33-3.67-.87L760.6,138.7l-3.79-2-4.61-2.93-12.61-10.3-.18-.15-6-4.94-11.65-8.79-8.47-4.66-9.75-4.77-11.86-3.7-33.16-5-8.37-1.06-6-.84-6.85-1-7.87-1.06-11.1-1.18-8.1-.65-4.49-.18-1-.06-1.66-.09-12-.18-10.79-.11-3.27-.19-4.13-.22-5-.45-.89-.08-3.38-.4-2.51-.41L556,81.79l-7.28-2.1-6.53-1.75-5-1.2-4.86-1.11L527,74.4l-6.44-1.35-5.75-.94-4.8-.58-5.86-.42L497.79,71l-6.74.11-7,.59-3.62.44-.72.09-3.75.52-2.58.53-11,2.53-2.17.58L458,77l-3.06.85L451.79,79l-2.82.94-2.23.82-2,1-1,.52-1.27.66L436,86.3l-7,3.92-4.8,2.87-2.81,1.76-.23.14-2.47,1.56-1.09.66-2.07,1.27-3.23,1.64-2.61,1.06-.69.29-2,.59-16,4.15-1.59.46L377,110.18l-32.25,9.59L307.43,130l-12.33,3.53-18.26,5.42L262,143.32l-4.22,1.12-3.7,1.12-3.6,1.24-3.55,1.45-1.23.58-2,.92-3.55,1.54-2.81,1.38L235,153.83l-1.19.48-1.93.84-3.39,1.52-3.33,1.46-2.91,1.42-2.4,1.2L217.25,162l-2.43,1.23-3.13,1.7-2.56,1.37-2,1.65-2.21,2.13-2.5,2.69-2.47,2-.12.09-3.59,2.57-3.32,2.09-.77.47-1.47.92-1.73,1.46-2.94,3-.2.21-1.91,2.57-1.9,2.49-.3.39-1.56,1-1.36.88-2.32,1.76-2.77,2.4-2.88,2.58-1.71,1.83-1.69,1.64-2.77,3.22-4,4.3-6.76,7-2.75,2.89-1.32,1.66-1.9,2.49-1.53,2.18L143.15,230l-3.06,3.16L137,236l-3.87,3-4.51,2.74M341.73,810.53l5.47-14.65,2.05-8.85,1-2.08,1.75-1.78,4-2.74,6.86-3.68,7.22-3.43,6.06.2,21.77,5.14h3.24l2.4-1.63,1.58-1.57,2.4-4.85.68-4,1.39-2.43,1.8-1.46,2.56-1.45,9.45-1.91,8.81-6.6,11.06-7.11,2.07-3.72,1.77-5.79,2.07-12.06.47-1.28,1.3-2.91,2.87-4.34,4.61-7.06,2.74-3.39,1-1,19.73-17,3.27-3,2.29-2,1.62-1.24,1.45-.81.43-.23,4.39-2.29.91-.48.52-.36.47-.4.32-.46.33-.83.78-2,.84-2.05.71-1.65.6-1.16.65-1.15.64-1,.69-1.07,1.07-1.17,1.22-1.22,1.29-1,1.69-1,2.43-1.24,5.31-3,4-2.25,1.82-1,10.58-5.58,8.67-4.79,4.12-2.2,10.82-6,2.39-1.11,2-1.15,2.7-1.76,4.09-4.32,3.79-5.43,4.84-4.6,8.23-6.94,3.76-4,6.62-8,2.32-2.79,5-6.29,5.55-6.92,2.55-4.91,2.39-4.61,1.14-3.07.12-.42.61-2.24.75-2.74,2-5.83,1.13-4.32,1.75-5.8.88-2.7,1.5-4,2.69-5.89,6.77-13.47.24-.44,9.53-17.48,1-2.09.24-.53.82-1.78,11.48-21.32,2.9-7.57,2.09-5.61,5.67-8.64,1.28-1.55.8-1,16.09-18.41L699.9,417l.37-.41.65-.7,9.33-10.46,1.64-1.4,2.08-1.57,2-1.2,2.21-.95,3-1.19,1.22-.44,23-8.26,10.77-3.87,3.54-1.32L814,365.14,829,359.36l8.62-3.34,10.06-3.87,10.11-4.68,9.18-6.31,6.56-4.44,2.94-1.68,4-1.76,6.12-2.24,22.18-5.69,65.4-27.61,5.37-3,5.93-5,3.88-3.63,9.43-10.3,2.68-5.85,2.75-4.77L1009,256l5.13-12.71,2.23-5,.21-.51,7.72-19.26,1.43-3.7.34-1.4"/><path class="cls-5" d="M1171.47,185.83l18.2-12.81,9.35-6,10.61-6.85,13.06-9.24,9.8-5.83,3.67-2.44,19.26-12.82,6.5-3.92,1-.61,20.72-13.69,20.87-13.68,10.84-6.27,10.42-6.6,11.53-7.73,1-.49,16.52-11.19L1366.88,58l6.48-4.28,3.46-2,.77-.37L1390,45.2l2.73-1.3,5.46-2.41,8-4.15.33-.15.9-.41L1410,35.6l4.94-1.94,3.2-1,2.67-.81,7.89-1.34.32-.05,11-1.55,2.35-.28,2.89-.61,9.75-1.6,8.51-1.6,2.18-.49,1.49-.34,2.87-.29,2.57-.17,3-.06h3.15l2.18.17,1.83.29,2.29.46,2.36.46,3.61.74.31.14,1.06.09.86.12,1.49-.06,1.89-.23,1.32-.23,1.84-.46,1.31-.4,1.39-.52,10.53-4,1.08-.41,14.26-5.46,5.92-2.26,3-1,2.24-.75L1565.37.37l17.35-6.6,9.58-3.5,21.82-7.95,12.25-4.46,2.25-1.13,11.61-4.07,4.07-.57,3.48.32,2.74.42,2,.55,4.1,1.61,13.83,5.52,4.26,1.59,2.66.32,5.2-.11.78,0,6.62-.74,1.47-.16,6.73-.35,1.57-.08,3,.09,5.64-.31,4-.49,2-.55,5.83-1.62,5.18-1.44,5.65-1.31,2.26-.52,6.31-2.19.4-.25,3.51-2.28,5.81-3.76,1.26-.81,5.69-16c1.57-2.18,3.17-4.23,4.72-6.51.8-1.12,1.5-2.23,2.38-3.37l2.52-3.29,9.85-12.82c6.59-8.53,13-17.19,19.46-25.81l19.4-25.92,4.88-6.51c1.61-2.19,3.25-4.34,5-6.46l9.85-12.5,2.16-3.47c.77-1.25,1.55-2.5,2.4-3.73l2.47-3.71,2.67-3.83,2.81-3.37,4.64-6.78,2.28-4.74,2.07-5.91c.76-2.05,1.38-4.18,2-6.3s1.27-4.22,2-6.35l2.09-6.17c2.68-10.58,5.76-22.15,9.2-32.77l4.07-17.43,2.07-8.77,1.7-8.51,1.53-16.42.08-.86L1853.42-339l-5.57-12.9-2.67-9.19c-.75-2.88-1.62-6-2.16-8.7l-1.83-8.41c-.32-1.41-.61-2.81-.86-4.2l-.95-5-1.08-11.06-1-12L1839-424.3l0-4.95v-.11l-.46-5.63-1.6-5.38-1.06-3.54-1.35-4.33-2.06-10.15-.18-2.47-.07-1.09c0-.39,0-.66,0-.9l0-3.09c0-2.06-.06-4.12,0-6.18l.28-11.4.25-11,.12-5.5,0-5.65.35-11.68c.21-3.83.33-7.79.62-11.51l1.53-22.3c.23-3.65.54-7.31.7-10.94l.39-10.83.19-5.44,0-5.63.11-11.26M1171.47,185.83l-10.21,2.27-7.87,4.17-11,6.55-.33.19-1,.49-1.62.81-5,.43-2-.47-10.35-2.06-2.49-.5-4-.86-3.81-.67-1-.07h-1l-1,0-.5.06-.92.11-1.18.18-1.38.31-1.14.31-1.11.42-1.07.41-1.25.59-1.56.94-11,7.28-4,2.67-4,2.61-.42.28-3.08,2-2.38,1.56-1.64,1.11-1.72,1.18-1.76,1-1.88,1-1.58.82-.63.32-.44.11-1.48.34-2,.37-2.33.25-2.38.12-2.08.08-2-.08-2.33-.16-1.42-.21-7.69-2.83-9.1-3.46-5.38-2.39-1.31-.5-8.4-2.59-10.91-3.67-5.82-1.26-3.57-.78-3.72-.49-3.21-.11-5.36.06-7.16.11-5.42.61-4.75.84-4.2.95-4.41,1.12-8.69,2.29-2.57.59-8.15,1.1-3.67-.75-3.26-.75L927.74,209l-2.26-.94-4.33-1.52L917,196.24l-2.2-2.85-2.1-2.5-3-2.35-8.51-5.15-6.7-4.21-3.77-2.7-5.25-3-2.86-1.25-6.11-1.35-22.11-4.09-7.78-2.06-3.28-.82-5.86-1.46-9.65-3.22-6.54-2.07-4-1.35-6.43-2-8.51-2.38-2.59-.63-4.87-1.34-3.22-1-3.52-1.18-10-3-1.44-.33-3.67-.87L760.6,138.7l-3.79-2-4.61-2.93-12.61-10.3-.18-.15-6-4.94-11.65-8.79-8.47-4.66-9.75-4.77-11.86-3.7-33.16-5-8.37-1.06-6-.84-6.85-1-7.87-1.06-11.1-1.18-8.1-.65-4.49-.18-1-.06-1.66-.09-12-.18-10.79-.11-3.27-.19-4.13-.22-5-.45-.89-.08-3.38-.4-2.51-.41L556,81.79l-7.28-2.1-6.53-1.75-5-1.2-4.86-1.11L527,74.4l-6.44-1.35-5.75-.94-4.8-.58-5.86-.42L497.79,71l-6.74.11-7,.59-3.62.44-.72.09-3.75.52-2.58.53-11,2.53-2.17.58L458,77l-3.06.85L451.79,79l-2.82.94-2.23.82-2,1-1,.52-1.27.66L436,86.3l-7,3.92-4.8,2.87-2.81,1.76-.23.14-2.47,1.56-1.09.66-2.07,1.27-3.23,1.64-2.61,1.06-.69.29-2,.59-16,4.15-1.59.46L377,110.18l-32.25,9.59L307.43,130l-12.33,3.53-18.26,5.42L262,143.32l-4.22,1.12-3.7,1.12-3.6,1.24-3.55,1.45-1.23.58-2,.92-3.55,1.54-2.81,1.38L235,153.83l-1.19.48-1.93.84-3.39,1.52-3.33,1.46-2.91,1.42-2.4,1.2L217.25,162l-2.43,1.23-3.13,1.7-2.56,1.37-2,1.65-2.21,2.13-2.5,2.69-2.47,2-.12.09-3.59,2.57-3.32,2.09-.77.47-1.47.92-1.73,1.46-2.94,3-.2.21-1.91,2.57-1.9,2.49-.3.39-1.56,1-1.36.88-2.32,1.76-2.77,2.4-2.88,2.58-1.71,1.83-1.69,1.64-2.77,3.22-4,4.3-6.76,7-2.75,2.89-1.32,1.66-1.9,2.49-1.53,2.18L143.15,230l-3.06,3.16L137,236l-3.87,3-4.51,2.74M341.73,810.53l5.47-14.65,2.05-8.85,1-2.08,1.75-1.78,4-2.74,6.86-3.68,7.22-3.43,6.06.2,21.77,5.14h3.24l2.4-1.63,1.58-1.57,2.4-4.85.68-4,1.39-2.43,1.8-1.46,2.56-1.45,9.45-1.91,8.81-6.6,11.06-7.11,2.07-3.72,1.77-5.79,2.07-12.06.47-1.28,1.3-2.91,2.87-4.34,4.61-7.06,2.74-3.39,1-1,19.73-17,3.27-3,2.29-2,1.62-1.24,1.45-.81.43-.23,4.39-2.29.91-.48.52-.36.47-.4.32-.46.33-.83.78-2,.84-2.05.71-1.65.6-1.16.65-1.15.64-1,.69-1.07,1.07-1.17,1.22-1.22,1.29-1,1.69-1,2.43-1.24,5.31-3,4-2.25,1.82-1,10.58-5.58,8.67-4.79,4.12-2.2,10.82-6,2.39-1.11,2-1.15,2.7-1.76,4.09-4.32,3.79-5.43,4.84-4.6,8.23-6.94,3.76-4,6.62-8,2.32-2.79,5-6.29,5.55-6.92,2.55-4.91,2.39-4.61,1.14-3.07.12-.42.61-2.24.75-2.74,2-5.83,1.13-4.32,1.75-5.8.88-2.7,1.5-4,2.69-5.89,6.77-13.47.24-.44,9.53-17.48,1-2.09.24-.53.82-1.78,11.48-21.32,2.9-7.57,2.09-5.61,5.67-8.64,1.28-1.55.8-1,16.09-18.41L699.9,417l.37-.41.65-.7,9.33-10.46,1.64-1.4,2.08-1.57,2-1.2,2.21-.95,3-1.19,1.22-.44,23-8.26,10.77-3.87,3.54-1.32L814,365.14,829,359.36l8.62-3.34,10.06-3.87,10.11-4.68,9.18-6.31,6.56-4.44,2.94-1.68,4-1.76,6.12-2.24,22.18-5.69,65.4-27.61,5.37-3,5.93-5,3.88-3.63,9.43-10.3,2.68-5.85,2.75-4.77L1009,256l5.13-12.71,2.23-5,.21-.51,7.72-19.26,1.43-3.7.34-1.4"/></g></g></g></svg>