<svg id="routes" xmlns="http://www.w3.org/2000/svg" xmlns:xlink="http://www.w3.org/1999/xlink" viewBox="0 0 1024 1024"><defs><style>.cls-1,.cls-10,.cls-11,.cls-12,.cls-13,.cls-14,.cls-15,.cls-16,.cls-3,.cls-4,.cls-5,.cls-6,.cls-7,.cls-8,.cls-9{fill:none;}.cls-2{clip-path:url(#clip-path);}.cls-12,.cls-14,.cls-16,.cls-3,.cls-5,.cls-6,.cls-7,.cls-8,.cls-9{stroke:#231815;}.cls-10,.cls-11,.cls-12,.cls-13,.cls-14,.cls-15,.cls-16,.cls-3,.cls-4,.cls-5,.cls-6,.cls-7,.cls-8,.cls-9{stroke-linecap:round;stroke-miterlimit:10;}.cls-11,.cls-13,.cls-15,.cls-3{stroke-width:8.79px;}.cls-4{stroke:#ee87b4;}.cls-10,.cls-12,.cls-14,.cls-16,.cls-4,.cls-5,.cls-6,.cls-7,.cls-8,.cls-9{stroke-width:4.4px;}.cls-6{stroke-dasharray:0 27.21;}.cls-7{stroke-dasharray:0 33.54;}.cls-8{stroke-dasharray:0 27.72;}.cls-9{stroke-dasharray:0 29.72;}.cls-10{stroke:#ed6d46;}.cls-11{stroke:#70b058;}.cls-12{stroke-dasharray:0 30.2;}.cls-13{stroke:#718cc7;}.cls-14{stroke-dasharray:0 29.16;}.cls-15{stroke:#a97443;}.cls-16{stroke-dasharray:0 29.43;}</style><clipPath id="clip-path"><rect class="cls-1" x="-6055" y="-2044" width="11720" height="11720"/></clipPath></defs><title>3229_7150</title><g class="cls-2"><g id="特殊中心"><path class="cls-3" d="M645.23,728.94l-1.32,5.69L640,761.18l-.21,7.11.54,6.71,1.23,5.73,2,5.72,8.71,21.13,3.54,7.66,3.73,6.18,5.57,7.62,1.47,2,2.49-2.4,9.66-5.77,5.75-2.6,1.55-.18-7.32-6.59-4.51-7.24-1-1L665,799.31l-3.4-5.48L660.41,789l-.22-4.74,1.16-5.63,8.32-12.79,9.83,6.38-7.12,11-.41,2,.1,2.14.45,1.88,1.18,1.9,7,5.06,2.67,2.53,4.42,7.11,10.55,9.49,2,2.52.78,1.79.23,2.58-.43,2.7-1.34,2.55-2,2-2.93,1.31-7,.81-3.49,1.58-2.54,1.51-4.45,2.67-4.18.06-20.1.33-4.17.88-7,2.35L635.93,844l-5.58,3.55L626.27,851l-3.4,3.46-7.66,9.6M319.81,1437.2l26.62-28.58,16-16.59,8-8.29c2.54-2.69,5-5.62,7.64-8.54s5.33-5.74,8-8.58l8-8.34,15.81-16.48,4.23-5.28,19.66-19.13,9.92-9.2,9.55-9.09,5.5-6.32c1.91-2.2,3.81-4.4,5.75-6.5.95-1.06,1.94-2.12,2.87-3.19l2.73-3.21c1.84-2.17,3.66-4.34,5.41-6.56l-.27.38,6.76-9.92,3.38-5,2.82-4.66c.93-2.28,2.85-6.93,3.69-9.11l1.43-7.08.19-4-.33-8.2-.69-8.4-1.53-17.08-1.44-17.11-.71-8.52-.79-8.27-.92-5.23c-.35-1.79-.85-3.52-1.26-5.27l-.7-2.55a25.33,25.33,0,0,0-.83-2.61l-1.75-5-4.56-10.57c-1.52-3.6-3.26-7.13-4.88-10.69l-10-21.64-1.48-4.25-.94-5.23-.15-4.92.7-4.82,1.12-3.41c.37-1,.72-2.06,1.12-3,.81-1.9,1.58-3.93,2.43-5.73l4.89-10.57,4.37-14.55,4.27-15,4.27-15.06,4.61-15.41,3.59-7.91,2.46-4.43,3.78-5.8,4.47-3.93c1.28-1.14,2.6-2.23,3.83-3.46l7.51-7.18,15.43-14.09q15.54-14.05,30.36-28.51c5-4.83,9.81-9.73,14.69-14.62l3.66-3.67,1.82-1.83,1.73-1.91,6.9-7.64c1.14-1.29,2.32-2.52,3.43-3.85l3.33-4,6.66-7.94,13.37-16"/><path class="cls-4" d="M645.23,728.94l-1.32,5.69L640,761.18l-.21,7.11.54,6.71,1.23,5.73,2,5.72,8.71,21.13,3.54,7.66,3.73,6.18,5.57,7.62,1.47,2,2.49-2.4,9.66-5.77,5.75-2.6,1.55-.18-7.32-6.59-4.51-7.24-1-1L665,799.31l-3.4-5.48L660.41,789l-.22-4.74,1.16-5.63,8.32-12.79,9.83,6.38-7.12,11-.41,2,.1,2.14.45,1.88,1.18,1.9,7,5.06,2.67,2.53,4.42,7.11,10.55,9.49,2,2.52.78,1.79.23,2.58-.43,2.7-1.34,2.55-2,2-2.93,1.31-7,.81-3.49,1.58-2.54,1.51-4.45,2.67-4.18.06-20.1.33-4.17.88-7,2.35L635.93,844l-5.58,3.55L626.27,851l-3.4,3.46-7.66,9.6M319.81,1437.2l26.62-28.58,16-16.59,8-8.29c2.54-2.69,5-5.62,7.64-8.54s5.33-5.74,8-8.58l8-8.34,15.81-16.48,4.23-5.28,19.66-19.13,9.92-9.2,9.55-9.09,5.5-6.32c1.91-2.2,3.81-4.4,5.75-6.5.95-1.06,1.94-2.12,2.87-3.19l2.73-3.21c1.84-2.17,3.66-4.34,5.41-6.56l-.27.38,6.76-9.92,3.38-5,2.82-4.66c.93-2.28,2.85-6.93,3.69-9.11l1.43-7.08.19-4-.33-8.2-.69-8.4-1.53-17.08-1.44-17.11-.71-8.52-.79-8.27-.92-5.23c-.35-1.79-.85-3.52-1.26-5.27l-.7-2.55a25.33,25.33,0,0,0-.83-2.61l-1.75-5-4.56-10.57c-1.52-3.6-3.26-7.13-4.88-10.69l-10-21.64-1.48-4.25-.94-5.23-.15-4.92.7-4.82,1.12-3.41c.37-1,.72-2.06,1.12-3,.81-1.9,1.58-3.93,2.43-5.73l4.89-10.57,4.37-14.55,4.27-15,4.27-15.06,4.61-15.41,3.59-7.91,2.46-4.43,3.78-5.8,4.47-3.93c1.28-1.14,2.6-2.23,3.83-3.46l7.51-7.18,15.43-14.09q15.54-14.05,30.36-28.51c5-4.83,9.81-9.73,14.69-14.62l3.66-3.67,1.82-1.83,1.73-1.91,6.9-7.64c1.14-1.29,2.32-2.52,3.43-3.85l3.33-4,6.66-7.94,13.37-16"/><line class="cls-5" x1="645.23" y1="728.94" x2="645.23" y2="728.94"/><polyline class="cls-6" points="640.8 755.77 640.01 761.18 639.8 768.29 640.34 775 641.57 780.73 643.59 786.45 652.3 807.58 655.84 815.24 658.68 819.94"/><line class="cls-5" x1="666.61" y1="830.99" x2="666.61" y2="830.99"/><line class="cls-5" x1="686.06" y1="820.04" x2="686.06" y2="820.04"/><polyline class="cls-7" points="663.08 796.26 661.57 793.83 660.41 789.04 660.19 784.3 661.05 780.15"/><line class="cls-5" x1="669.67" y1="765.88" x2="669.67" y2="765.88"/><line class="cls-5" x1="679.5" y1="772.26" x2="679.5" y2="772.26"/><path class="cls-8" d="M678.81,794.83l1.91,1.38,2.67,2.53,4.42,7.11,10.55,9.49,2,2.52.78,1.79.23,2.58-.43,2.7-1.34,2.55-2,2-2.93,1.31-7,.81-3.49,1.58-2.54,1.51-4.45,2.67-4.18.06-20.1.33-4.17.88-7,2.35L635.93,844l-5.58,3.55L626.27,851,624,853.28"/><line class="cls-5" x1="615.21" y1="864.01" x2="615.21" y2="864.01"/><path class="cls-9" d="M490.51,1248.36c.52-1.28,1-2.47,1.32-3.31l1.43-7.08.19-4-.33-8.2-.69-8.4-1.53-17.08-1.44-17.11-.71-8.52-.79-8.27-.92-5.23c-.35-1.79-.85-3.52-1.26-5.27l-.7-2.55a25.33,25.33,0,0,0-.83-2.61l-1.75-5-4.56-10.57c-1.52-3.6-3.26-7.13-4.88-10.69l-10-21.64-1.48-4.25-.94-5.23-.15-4.92.7-4.82,1.12-3.41c.37-1,.72-2.06,1.12-3,.81-1.9,1.58-3.93,2.43-5.73l4.89-10.57,4.37-14.55,4.27-15,4.27-15.06,4.61-15.41,3.59-7.91,2.46-4.43,3.78-5.8,4.47-3.93c1.28-1.14,2.6-2.23,3.83-3.46l7.51-7.18,15.43-14.09q15.54-14.05,30.36-28.51c5-4.83,9.81-9.73,14.69-14.62l3.66-3.67,1.82-1.83,1.73-1.91,6.9-7.64c1.14-1.29,2.32-2.52,3.43-3.85l3.33-4,6.66-7.94,3.86-4.63"/><line class="cls-5" x1="615.29" y1="863.92" x2="615.29" y2="863.92"/></g><g id="日ノ丸線"><g id="賀露"><path class="cls-3" d="M-798.36,1260.23l0,.1,3,6.39,1.08,1.92a24.86,24.86,0,0,0,1.37,2.3l3.37,5.13,11.45,23.37c1.83,3.82,3.77,7.58,5.5,11.46l5.3,11.8,18.28,47.75,2.88,9.76,37.11-4.73,47.45,9.14,47,12.14,20.73,13.93c2.85,2,5.64,4.18,8.46,6.27l9.77,7.28,31.79,31.89c5,5.21,9.79,10.65,14.69,16l13.58,14.89,10.23,8.65,15.2,3.36,84.13,11.59,85.16,11.36m-477.59-261.71s-18.53-11.38-20.84-16-4.71-9.16-7.21-13.67l-7.68-13.41-3.89-3.72-2.95-2.09-2.89-2.18-3.62-1.88c-3.37-.61-6.77-1.07-10.16-1.56l-8.42-.32-3-.68-5.24-.45-13.1-.89-12.94-1.13-11.63-1.42-14.18-1.12-13.4-.41-33.13-1.57-2.24,1-1.88,1-1.34,1.59-.79,2.15-.3,3.78-.37,4.67.26,2,.55,1.38,1.11,1.6,1.08,1.15,2.45,1.37,2.7,1,11.28.61,6.09.35,5.86.49,3.13-.16,2.34-.23,2.33-.55,2.27-1,2.28-1.38,6.93-6.12,9.06-6.2,5.31-1.94,4.37-.63,9.59.47,9.57.59,5.7.31,6.09.49,4.19,0,6-.77m70.64,55.5,53.92-20,16.35-6.2,33.76-12.58,21.22-7,2.61-.47,1.82-.64,4.5-.72,4.95-.16h5.56l5.23.56,6.33.54,6,1.31,4.72,1,5.23,2,7.52,3.51,7.17,4.06,15,10.23,7.44,4.86,15.76,11.61,23.73,17.62,6.07,3.21,27,19.34,1.71-3.58.26-.8.88-1.86,1.39-3.07-1.54-.68-1.32-.8-1.9-1.57-2.49-2.94-1-4.2-.76-5.81-1.22-11.7-.28-3.3-.15-8.49-.23-4.8.49-7.5,1.24-9,.92-7.37.49-4.18.79-5.25,1-5.12,3.5-15.84.36-1.34,2.61-12.1,1.3-6,.92-4.31.15-3.76.19-4.83,0-1-.06-5.2,0-5.07.13-3,.2-4.75,1.86-11,3.95-10.73.86-3.78,2.12-9.27,1.26-5,1.44-9.84,1.11-17.37-1.58-16.66-.14-2.57-2-15.13-.54-13.46.17-13.2.34-12.52,0-7.71-.49-6.1-2.33-5-2.86-3.21-3.32-1.9-3-1.69-6.18-2.59-4.59-2-2.22-1.22-2.21-1.62-3.16-2.4-3-3-4.54-5.8-3.25-6.47-2.38-7.27-1.25-3.74-5.9-6.19-.74-.65-3.08-2.6-3.34-2.75-3.06-2.26-.51-.37-3.65-4.39-1.53-2.17-3.14-4L-572,902.2l-1.67-3.64-.26-1.17-1-4.38,1.4-10.38.06-.5,1-8.38.45-5.08-.83-3.42-2.39-1.53m371,353.83,2.78,6.87-4.3,87.67,31.13,2.06,30.44,1.1m0,0c.12-1.35.24-2.71.37-4.06.64-7.14,1.19-14.45,1.53-21.64l1.1-21.45,2.21-42.88.28-5.48-21.14-2.81-23.72-2.91-17.29-2.12-3.39,5.65-19.59-2.55-19.58-2.54-44-5.41-15.47-1.11-.93-.06-4.8-.22-.75-.08-15.56-.66-12.73-.84-17.51-.68-8.89-.7-9-1.84-8.34-3.13-1.19-9.36-2.56-17.29-.25-4,.19-4.38,1.27-4,1.3-2.14,1.11-2.82,1.37-2.36,1.84-2.63,1.85-2.27.38-.48,2.76-3.34,7.86-9.64,4-5.44,2.48-3.17.4-.51,3.8-4,5-5.77,2.05-1.85L-331,1097.1l7.47-7.67,6.48-11.16,5.46-12,.51-1.12,1.43-5.87,1.07-6.68.1-1.75.33-5.44.05-6.23,0-7.16-.11-10.41,2.37-5.77-6.43-3.77-3.22-1.37-4.39-1.1-1.09-.25-2.74-.28-2.55-.27-14.11-2.92-4.08-1.69h0l-2.07-1.27-.28-.17-1.58-1.88-3-4.44-4.45-6.54L-365,977.17l-6-8.57-9-9-8.52-7.41-12.43-9.82-6.35-4.56-21.28-13.54-13.8-8.77-27.37-18-9.87-6.49-29.09-17.11-.21-.13-17.9-11.84-2.68-1.48-2.76-1.37-4.25-1.49-4-1-8.4-1.51-4.83-.26-2.1,0-3.17.31-2.89.57-4.39,1.45-3.64,1.93-5.21,4.65-8,7.65-11.74,11-4.85,4.32-2.87,2.57-8.34,5.83-4.93,2.76-3.3,1.25-12.61,5.59-1.29.4-14.9,5.92-11,4-13,4.72-47.58,19h0l7.1,20,4.37,11.59,3.15,8.25.72.86,1.16.16,34.66-12.85,12-4.85-15.56-42.2m555.22,631.36L-130,1549a29.31,29.31,0,0,1-24.76-30.58l6.78-121.66c.44-7.16.87-14.35,1.13-21.59q.21-5.43.27-10.9c0-3.62,0-7.37,0-10.76.09-12.61,1.31-25.37,2.48-38.3M-156.19,1545c-11.79-1.85-23.55-3.8-35.39-5.54l-43.22-5.75-86-11.74m164.58,23c2.48.39,5,.78,7.45,1.15L-63,1557.29l84,11.48,14.29-.51,32.94-8.9,17.77-4.8,8.88-2.4,9-2.08,50.91-11.77"/><path class="cls-10" d="M-798.36,1260.23l0,.1,3,6.39,1.08,1.92a24.86,24.86,0,0,0,1.37,2.3l3.37,5.13,11.45,23.37c1.83,3.82,3.77,7.58,5.5,11.46l5.3,11.8,18.28,47.75,2.88,9.76,37.11-4.73,47.45,9.14,47,12.14,20.73,13.93c2.85,2,5.64,4.18,8.46,6.27l9.77,7.28,31.79,31.89c5,5.21,9.79,10.65,14.69,16l13.58,14.89,10.23,8.65,15.2,3.36,84.13,11.59,85.16,11.36m-477.59-261.71s-18.53-11.38-20.84-16-4.71-9.16-7.21-13.67l-7.68-13.41-3.89-3.72-2.95-2.09-2.89-2.18-3.62-1.88c-3.37-.61-6.77-1.07-10.16-1.56l-8.42-.32-3-.68-5.24-.45-13.1-.89-12.94-1.13-11.63-1.42-14.18-1.12-13.4-.41-33.13-1.57-2.24,1-1.88,1-1.34,1.59-.79,2.15-.3,3.78-.37,4.67.26,2,.55,1.38,1.11,1.6,1.08,1.15,2.45,1.37,2.7,1,11.28.61,6.09.35,5.86.49,3.13-.16,2.34-.23,2.33-.55,2.27-1,2.28-1.38,6.93-6.12,9.06-6.2,5.31-1.94,4.37-.63,9.59.47,9.57.59,5.7.31,6.09.49,4.19,0,6-.77m70.64,55.5,53.92-20,16.35-6.2,33.76-12.58,21.22-7,2.61-.47,1.82-.64,4.5-.72,4.95-.16h5.56l5.23.56,6.33.54,6,1.31,4.72,1,5.23,2,7.52,3.51,7.17,4.06,15,10.23,7.44,4.86,15.76,11.61,23.73,17.62,6.07,3.21,27,19.34,1.71-3.58.26-.8.88-1.86,1.39-3.07-1.54-.68-1.32-.8-1.9-1.57-2.49-2.94-1-4.2-.76-5.81-1.22-11.7-.28-3.3-.15-8.49-.23-4.8.49-7.5,1.24-9,.92-7.37.49-4.18.79-5.25,1-5.12,3.5-15.84.36-1.34,2.61-12.1,1.3-6,.92-4.31.15-3.76.19-4.83,0-1-.06-5.2,0-5.07.13-3,.2-4.75,1.86-11,3.95-10.73.86-3.78,2.12-9.27,1.26-5,1.44-9.84,1.11-17.37-1.58-16.66-.14-2.57-2-15.13-.54-13.46.17-13.2.34-12.52,0-7.71-.49-6.1-2.33-5-2.86-3.21-3.32-1.9-3-1.69-6.18-2.59-4.59-2-2.22-1.22-2.21-1.62-3.16-2.4-3-3-4.54-5.8-3.25-6.47-2.38-7.27-1.25-3.74-5.9-6.19-.74-.65-3.08-2.6-3.34-2.75-3.06-2.26-.51-.37-3.65-4.39-1.53-2.17-3.14-4L-572,902.2l-1.67-3.64-.26-1.17-1-4.38,1.4-10.38.06-.5,1-8.38.45-5.08-.83-3.42-2.39-1.53m371,353.83,2.78,6.87-4.3,87.67,31.13,2.06,30.44,1.1m0,0c.12-1.35.24-2.71.37-4.06.64-7.14,1.19-14.45,1.53-21.64l1.1-21.45,2.21-42.88.28-5.48-21.14-2.81-23.72-2.91-17.29-2.12-3.39,5.65-19.59-2.55-19.58-2.54-44-5.41-15.47-1.11-.93-.06-4.8-.22-.75-.08-15.56-.66-12.73-.84-17.51-.68-8.89-.7-9-1.84-8.34-3.13-1.19-9.36-2.56-17.29-.25-4,.19-4.38,1.27-4,1.3-2.14,1.11-2.82,1.37-2.36,1.84-2.63,1.85-2.27.38-.48,2.76-3.34,7.86-9.64,4-5.44,2.48-3.17.4-.51,3.8-4,5-5.77,2.05-1.85L-331,1097.1l7.47-7.67,6.48-11.16,5.46-12,.51-1.12,1.43-5.87,1.07-6.68.1-1.75.33-5.44.05-6.23,0-7.16-.11-10.41,2.37-5.77-6.43-3.77-3.22-1.37-4.39-1.1-1.09-.25-2.74-.28-2.55-.27-14.11-2.92-4.08-1.69h0l-2.07-1.27-.28-.17-1.58-1.88-3-4.44-4.45-6.54L-365,977.17l-6-8.57-9-9-8.52-7.41-12.43-9.82-6.35-4.56-21.28-13.54-13.8-8.77-27.37-18-9.87-6.49-29.09-17.11-.21-.13-17.9-11.84-2.68-1.48-2.76-1.37-4.25-1.49-4-1-8.4-1.51-4.83-.26-2.1,0-3.17.31-2.89.57-4.39,1.45-3.64,1.93-5.21,4.65-8,7.65-11.74,11-4.85,4.32-2.87,2.57-8.34,5.83-4.93,2.76-3.3,1.25-12.61,5.59-1.29.4-14.9,5.92-11,4-13,4.72-47.58,19h0l7.1,20,4.37,11.59,3.15,8.25.72.86,1.16.16,34.66-12.85,12-4.85-15.56-42.2m555.22,631.36L-130,1549a29.31,29.31,0,0,1-24.76-30.58l6.78-121.66c.44-7.16.87-14.35,1.13-21.59q.21-5.43.27-10.9c0-3.62,0-7.37,0-10.76.09-12.61,1.31-25.37,2.48-38.3M-156.19,1545c-11.79-1.85-23.55-3.8-35.39-5.54l-43.22-5.75-86-11.74m164.58,23c2.48.39,5,.78,7.45,1.15L-63,1557.29l84,11.48,14.29-.51,32.94-8.9,17.77-4.8,8.88-2.4,9-2.08,50.91-11.77"/></g></g><g id="日交線"><g id="十六本松"><path class="cls-11" d="M169,1134.56l.93-5.1,1-12-1.1-2.17-4.48-2.23-7.07-4.47-12.65-7.79-2.39-2.17,3.72-5.34,2.89-3.24-16.4-13-7.84-6.3-8.43-6.77L98.26,1055l-14.68-4.3-14.4-4.51L64,1044.56l-4.57,14.7L55,1073.44l-.79,2.57-4,33.35-36.37-14.91-.94-.39L1.2,1086.8l-5.78-4.9-9.23-9.9-12.08-13-.81-.72-8.39-9.55-1-1.09-11.51-12.52-4.45-4.84-1.28-1.22-3.25-3.08-4.82-4.19-5.16-3.66-4.07-2.24-3.15-.86-1.55-.39-5.4-1-3-.2-4.92-.82-9-2.92-.47-.16-11.76-4.84-.36-.15-10.85-4.76-1.13-.5-5.81-3.64-5.84-5.16-19.32-18.1-7.29-7-3.46-3.27L-174.6,952l-15.27-15m36.7,35.4,11.11-12.71,17.84-19.07-7.42-7-7.55-6.72-6.55-6.74-7.57-6.79-9.56-5.74-6.83,7.87-9.14,9.71-11,11.74m634.58,354,5.15-5.94c1.95-2.24,3.9-4.49,5.8-6.54.94-1,1.94-2.11,2.83-3.14l2.6-3.07c1.62-1.91,3.22-3.83,4.77-5.76l-23.14-21.3-31.15-30.56-30.7-30.17-9.6-9-18.64-17.12-10.3-9.32-2,.94-1.35.67-1,.53-4.42,4.64-.88.85-17.55,17.11L298.23,1189l-2.16-2.63-8.16-10.28L279.6,1165l-3.68-4.32-12-8.15-2.84-1.32-1.17-.53-2-1-4.7-2.22-2.22-1-3-.8-2.84-.68-3.52-.72-6-.54-1.9,0-6.28.42-9.73-.49-10.41-1.88L169,1134.56m0,0-8,26-6.16,30-6.23,54.73,5.32,32.15m157.75,151c14-15.6,12.59-14.08,27.4-29.6,9.56-10,19.24-20.33,28.6-30.31,12.85-13.69,26.15-27.86,39.46-41.62,8.68-9,17.76-17.43,26.55-25.61,4-3.7,7.95-7.4,11.88-11.14"/><polyline class="cls-12" points="22.29 1097.91 13.86 1094.45 12.92 1094.06 1.2 1086.81 -4.58 1081.9 -13.81 1072 -25.89 1059.04 -26.7 1058.32 -35.09 1048.77 -36.06 1047.68 -47.57 1035.16 -52.02 1030.32 -53.3 1029.1 -56.55 1026.03 -61.37 1021.84 -66.53 1018.17 -70.59 1015.93 -73.75 1015.07 -75.3 1014.68 -80.7 1013.65 -83.73 1013.45 -88.65 1012.63 -97.64 1009.71 -98.1 1009.55 -109.86 1004.71 -110.22 1004.56 -121.08 999.8 -122.2 999.3 -128.01 995.66 -133.85 990.5 -153.17 972.4 -160.46 965.37 -163.92 962.1 -174.6 952 -179.1 947.58"/></g><g id="岩井"><path class="cls-13" d="M3586.68,372.87l12.05,6.59,8.5,4.36,2.75,1.78,11.06,5.18,8.51,4.58,2,.61,36,18.88.25.13,14,6.81,15.1,7.93,1.46.76,14.18,6.72,16.59,9.34,19,13.35,1.17.81,5.51,2.84,9.05,4.29.45.22,1.65.6.89.36,36.19,12.06,4.42,2.11,5.5,5.14,3.81,4.35,6.36,7.64,3.83,5.12,5.21,5,6.66,5.12,26.44,19.76,8,6.56,3.17,3.54,2.6,4,1.56,2.15,2.61,5.94,1.18,5.29,1.17,14.68.77,4.59,1.37,3,1.44,2.37,2.47,2.07,1.7.88,3.3,1,6.55,1.43,22,3.82,2.1.21,10,1.42,8.67,1.57,1.91.59,3.5,1.09,6.51,3.36,6.7,4.87,11.54,8.08,5.84,4.26c-.12-.58-.24-1.15-.34-1.73l-1.11-5.68-3.64-7.87-4.59-6.25-5.45-7.16-10.63-14-13.89-15.72-25-33.7L3907,508.08c-1.62-3.47-3.11-7-4.74-10.45L3897,486.4l-3-11.08-.18-13.11-.9-7.15-1.07-4.77c-.22-.88-.51-1.73-.76-2.6l-.46-1.53-1.22-2.35-1.13-1.55-1-1.42-3.16-3.08-4.15-3M2070.27-376.64l-2.78,14.72-6.34,26.35-.71,2.82-.55,2.2-5.69,23.65-.19.79-2.42,10-4.52,19.87,18,4.66,5.72,1.48,5.46,1.41,20,5.55,15.38,4.26-2.4,10.83-.35,1.6-2.16,7.92-.62,2.32-2.41,8.85-3.6,13.23-1.54,5.67-5.93,21.85L2090-176l0,2.56,1.41,14.87-.24,3.51-3.45.46-30.1,2.87-16.8,1.44-2,.16-32.31,3.55L1985.23-145l-15.36,1.3-4.12-.19-7.17.95-4.92,1.24L1948-139l-5.4,4-4.08,3.6-3.75,3.75-3.69,3.8-3.09,3.6-2.2,2.77-1,2.23-1.93,4.5-.43,1.59-2.19,8.17-.57,6-.07,5.6.32,4,.8,5,1.38,6,1.29,5.46,1.12,4.64,1.08,4.55,1,6,0,4.64-.29,6.32-.74,5.82L1924.12-31l-1.74,6.26-2.13,7.6-2.55,6.65L1915.16-4l-1.79,5.33L1912.52,6l-.19,4.78.57,4.81,1.64,4.55,1.35,2.53.24.46,1.78,2.4,3.3,3.76,2.83,2.14,3,1.93,6.24,3.13,8.27,1.48,9.46,1.27,10.09,1.54,5.53.94,1.09.19,7.66,2.34-1.91,3.29-1.81,2.13-2.87,1.16-4.24.86-.8,0-3.45-.08-3.82-1-3.37-2.06-4.32-2.29-3.24-.57-3.88.69-3.55,1.46-3.63,1.85-.89.45-4.5,1.4-4.83,1.14-5.32.55-4.25.28-2.5.17-5.34,1.19-5.44,2.28L1894.76,61l-6.24,3.21-6.12,4.26-6,5.82-5.48,6-6.16,7.12-11.59,12.56-29.63,35.07-38.33,50-9.72,8.65-8.21,4.86-8.64,6.76-5.23,6.8-4.07,5.07-6.13,6.08-3.6,2.09-6.78,2.67-6.88,2.57L1715.92,234l-8.73,2.89-4.18,3.32-3.33,3-4.75,6.49-4.41,6.08-2.59,2.09-2,4.24L1682,268l-5.56,9.35-9,14.57-4.72,7.63-6.75,10.94-7,11.37-5.36,10.26-3.94,9.9-3.1,7.21-1.47,5.32-.76,4.5-.18,2.91.12,1,.63,3.26,1.08,3.42,1.3,3.93,4.12,9.93,1.12,2,1.94,3.09,1.57,2.29,13.57,14.58,3.71,6.57,4.38,10.33,7.47,26.09,3.93.07,1.54.77,1.37,1.37,1.12,2.3,1.06,3.2.87,2.33,3.88,8.92,4.63,10.54,3.35,8.91.88,3.08,1.23,4.45,2.46,18.35,1.69,9.31,1.48,5.51,10.72,25.6,8.7,18.59,9.22,20.38,9.28,17.18,6.32,9.06,6.79,6.44,5.12,6.72,3.49,4.45,2.09,3.13,2.11,4.4,1.54,6.18.23,1,4,15.13,2.83,10.78,3,9-4.08-.49-19.86-6.27-17.56-5.56-1-.3-4.33-1.45-1.45-.51-11-3.89-6.58-2.61-9-6.14-10.42-9.15-1.23-1.21-6.31-4-26.58-18.43-9.68-6.22-5.65-3.7-9.43-6.25-11.17-6.74-18.91-11.39-12.43-7.59-6.9-4.22-2.9-3-.54-.56-2.9-4.15-5.44,4-7.59,3.66-7.55,3-6.86,2.44-4.88,1.38-7.16,1.28-4.65.84-30.76,6.13-9,1.93-9.81,2.11-9.92,2.15-9,1.65L1459,605l-6.84,1.34-3.92.44-3.31.37-6.73.34-6.22-.38-7-1-9.87-.55-6,.1-4.35.29-1,.07-5.71.93L1393.4,608,1386,609.4l-15.09,2.89-8.33,2.27-5.61,1.78-9.5,4.45L1336.36,626l-5.83,2.68-.73.34-20.36,9.92-7.31,3.54-6.67,3.08-8.82,3.85-6.57,3.1-9.54,4.42-8.64,4.27-29.05,13.56-2.5,1-1.79.69-6,1.29-5.69-.16-4.17-.43-1.37-.15-11.08-2.15-13.31.1-4.06,1.41-4.22,1.54-4.27,3.17-3.13,2.58-2.63,2.77-3.48,5.33-6.46,13.74-3.78,6.23-3.78,4.68-7.36,6.15-4.21,2.46-5.35,3.41-22.17,14.25-32.34,18.26-17.81,10.91-19.8,12-6.58,3.13-3.34,1.37-5.27,2.1-11,3.18-5.53,1.05-9.53,2.09-9.24.75-4.41,0h-1.52l-5.09-.25-9-.89-6.25-.89-16.09-5.22L944,788.49l-11.65-3.58-7.6-2.43-3.83-1.22-6.59-2.16-10.58-4-6.7-1.64-6.06-.76-6.31-.43-14,2.68-14.21,3.42-9.32,2.24-23.84,6.86L812,791l-6.41,4.32L802,800.7l-3.58,7.3-4.32,13.26-3.43,8.79-4,5.81-6,4.92-6.26,3-8.64.86-10.66-.19-44.2-.13-2.9-.45-15.43-.62-9.76,5.84c-3.2,0-6.45,0-9.69.08l-18.9.31-2.39.5-5.53,1.88-4.6,2.29L637.32,857l-3.07,2.59-2.6,2.65-7.28,9.12-.08.1-13.37,16.05-6.76,8.06-3.38,4c-1.13,1.34-2.36,2.63-3.53,4l-7.1,7.86-1.78,2-1.85,1.87-3.72,3.73c-5,5-9.9,10-14.91,14.85q-15.06,14.67-30.55,28.69l-15.42,14.08-7.58,7.24c-1.24,1.23-2.61,2.37-3.92,3.54l-3.37,3-2.69,4.11-2,3.65-3.06,6.75-4.36,14.57-4.27,15.06-4.27,15.06-4.64,15.43-5.14,11.13c-.86,1.81-1.49,3.52-2.25,5.28-.36.88-.63,1.72-.95,2.58l-.75,2.26-.4,2.81.09,3,.63,3.47,1,2.86,9.8,21.17c1.63,3.6,3.37,7.12,4.91,10.77l4.78,11.08,2,5.73c.33.92.64,1.85.89,2.84l.82,3c.47,2,1,3.89,1.39,5.84l1.06,6,.85,8.8.71,8.58,1.43,17.09,1.54,17.09c.26,2.82.47,5.8.71,8.7l.36,8.94-.25,5.47-1.82,9c-1.79,4.58-2.67,6.63-4.47,11l-3.46,5.71-3.44,5-6.88,10.1-.27.37c-1.82,2.3-3.7,4.54-5.6,6.77l-2.86,3.37c-1,1.11-1.94,2.15-2.91,3.23-2,2.14-3.84,4.3-5.71,6.45l-5.84,6.72M2887.74-177.26l24.85.62,22.94.56.71.12,1.39.24.74.81v1.59l-4.79,13.62-4.76,15.92-2,6.78-2.56,8-.78,2.47-1.68,6.29v3.61l.56,2.15.25,1,2,3,1.68,1.39,1.67.93,5.72,2.66,6.22,3.29,5.56,4.4,7,8,.72.91,1.45,1.82,4.85,6.12,4.19,6,1.44,1.73,6,7.23,13.25,16.83,22.45,28.67,8.16,11,13.16,15.71.24.31,12.09,15.57.18.23,7.11,9.15,4.54,5.23.93,1.17,19.5,24.71,1.69,2.15,17.12,21.68.54.66,7.47,8.91,1.71,2,5.07,6.37,4.58,4,10.46,9.81,2.21,3.68.25,2.94-.7,3.83-9,8.46,3.08,14.34.61,7.29,2.47,18.27.59,5.33.31,2.73,1.65,6.95,4.76,7.5L3132,204l6.8,4.34,7,3.44,8.13,2.86,12,2.18,14.66,1.39,14.31.18,13.53-.12,11.58,1.13,32.53,8.3,25.33,4.93,24.88,3.56,14.58,1.84,21.17,3.75,7.05-.12,8.08,1.4,8.69,1.92,19.22,6.49,6.35,2.6,16.87,9.63,8.83,4.65,1.78.68,11.29,4.31,6.08,3.34,4.31,3.47,4.57,4.46,5.77,5.49,4.5,4.69,1.77,1.75,10.72,9.76,7.25,6.87,8.16,4.68.79.45,9.19,5.12,2.43,1.22,12.51,6.5,6.54,3.36,4.57,2.86,7.51,3.56,10,5,15.55,8,10.51,5.47,13.11,6.15,9.48,5.3,4.7,2.06.37-2.07,1.66-7.9,1.92-8.46.2-1.09,3.1-10.71.4-1.19,5,.26,12.28,1.43,5,.76,4,.37,16.4,1.54,11.17,1.27,3.13.36,6.68.54,5.92,1,9.46,2.41,8.15,2.63,7.46,2.41,4.68,1.74,7.37,2.33,9.32,3.4,40,13.54,27.66,8.88,85.61,30,10.1,3.31,7.79,2.65,4.72,2.51,5.5,4,4.55,4.43,1.59,2.25,1.58,2.17,2.14,4.12,1.58,5.27,1.36,6,1.05,8.36.17,12.29,2.35,8.67,5.83,12.41,3.41,7.62,10.18,21.54,24,32.36L3965.31,572l16.18,21.26,5.58,7.58L3991.8,611l2.57,13.22,1.33,9,6.08,35.69,5.27,29.07,4.52,25,9.52,47.58,4.64,34.94.36,6,1.33,7.4,2.37,17.66L4032,853l8.25,50.65,2.66,24.64,1.33,12.57,2.2,13.79,2,5.72,2.9,5.19,3.09,4.15,5.18,5.15,8.18,4.92,8.74,2.67,5,.65,11.69,1.51,4.58.6,7.9,1.9,6.18,2.58,13.2,7.34,13.79,8.54,17.6,11.22,5.4,4.15,59.6,43.56,16.54,9.29,41,20.33,25.87,9.35,10.93,7,56.78,55.06,15.15,18.35,9.69,15.49,11.48,13,12.49,8.53,12,4.75,1.23,10,1.51,6.93,1.22,6.09,2,10,.51,5.15-.32,11.13-.65,4.52-.82,3.72-6.22,26.09-2.28,14.51-.3,3.52-.24,4.12-.11,2.87-.3,3.34-.59,6.76-.7,35.16-.56,17.77-1.46,17.11-1.17,12.85-4.49,15.82-2.26,5.64-5.47,11.93-1.75,3.86-5.94,12.1-2.4,4.52-8,15-14.65,27.38-.61,1.14-2.88,5-3.06,5.78-2.11,4.86-.89,3-.21,1.69.16,3.23.63,3.06,4.83,15,8.52,25.8.32,1.6.33,7.73V1623l.82,11.59.62,2.92,2.57,4.52,5.77,8.24,1.49,3.89,1.1,5.26.41,2.69.54,3.46-.16,5.47-1.45,9.18-.63,5.81v4.52l.5,6.29.62,2.58,2.73,6.78,2.58,5,6.9,7.09,27,22.12,3.05,1.91,1.74,1.46,8.2,3.86,11.06,3.69,7.71,3.72,14.6,5.15,2.89,1.29,4.17,2.92,2.26,2.09,1.26,1.77,3.16,4.43,2.19,1.72,2.05.77H4503l4.17-.77,6.89-2.28,2.89-1.12,3.63-.29,2.29.72m-2563.7-2233,9.17-7.44,1.4-1.58-4.08-4-2.69-2.26-3.94-3.43-8.84,8.36,7.48,8.77,1.5,1.61,3.5,5.14,2.13,3.76.09.28,2.59,8.22,1.36,4.3,1.38,5.07,1.18,3.82.44,4.3-.27,5.17-.1,1.64-.62,5,.12.92.8.86,6.81,4.05,10.58,6.26,20.57,12.19,2.22,2.05,2,1.49,2.92,1,4.67.74,15.26,2.58,20.13,3.46,13.35,2.6,3.41.63,8.61,1.61.38.07,1.26.3,8.12,1.9,1.31.43,6.69,2.23.3.1L2104-368l2.18.82,11.2,5.81,10,4,.17.06,8.09,2.55,5.44,1.5L2149-351l10.15,2.7,7.46.45,12.81.59,1.75.54,9.22,2.1,16.52,4.72,5.18,2.59,2.84,1.43,7.8,3.94,4.69,2.46,4.58,3.35.6.53,2.42,2.12,1.34,1.74,1.22,3.16-.23,2.54,2.86-.16,2.65.61,8,3.67.78.39,5.05,2.55,5.54,2.81,5.5,2.49L2290.33-293l7.29,2.26,16.4,4.06,15.52,3.87,22.56,5.42,12.2,2.55,11.76,3.17,20.87,4.67,6.58,2.37.22,0,4.29-.56,5.43-.26,11.05-.51,13.1-1.05,9.59-.77,4.91-.28,13.27-.76,3-.18,2.93-.17,2.87-.17,12.91-.51,6.15.88,6.78,1,5,2.06,5.72,1.79,4.48.82,5.27.29,8.12-1.44,4.67-1.95,8.07-4,9.78-5.44,13-7.13,12-6.63,15.29-8.41,9-4.84.5-.28,4.3-2.39,4.12-2.13,4.29-1.72,4.17-1,4.5-.59,3.44.47,5.72,1.58,5,1.11,6.93,1.48,5.42.9,5.15.73,5,.84,4.39.51,4,0,4.81-.6,4.51-1,4.29-1.09,4.2-2.33,4.34-2.27,3.23-3.14,3.57-3.83,3.31-5,3.32-5.86,7.35-14.49,7.33-14.56,7.44-14.82,3.17-5.18,5-8.43,2.71-5.56.17-.54,1.19-3.62,1.19-4.42.68-4.93.42-6-.24-4.69-.28-5.7-.05-2.2-.06-2.91-.2-5.16.06-.76.26-3.41-.54-4.31-.33-3.35-.15-1.25-.93-5.86-.94-5.94-.68-5.27-.82-4.75-.42-5,.57-3.18,1.07-3.91,1.88-5.72,2.24-5.87.61-1.9,6.44-15.57,1.25-1.74,3.2,2,11.55,4.69,2,.78,12.57,5,1.79.62,10.36,3.92,13.54,4.87,7.69,2.09,2.95.44,2.42,2.75L2846.91-458l4.25,3.14,5.18,4.22,2,2.72,1.51,2.05,2.17,4.9,16.51-1.67-.18,40.53.11,4.27.1,3.62.47,9.8.27,4.86.46,6.38.08,1.3.38,8,.2,3.72.74,13.06.59,9.36.2,4.94.87,18.08.66,7.3.76,15.23.69,12.92.41,11.19,1.33,25,.27,3.2.1,7.06.26,18.27.27,13,.07,9.63.09,14.7-.2,21.22H2897M213.1,1302.49l7.49-2.81,3-1.15,5.47-1.74,9.85-2.93,5.47-1.9,8.46-2,17.74-5.29,32.26-10.86,7-2.64,8.56-2.63,12.65-3.13,9-1.51L348,1263l13.62-.59,4.05.22,7,.62,10.42,2,8.13,1.79,15.43,5.28,17,6.84,18.21,7.92,16.85,8.34,7.54,3.87m-136.42,144c20.51-22.56,5.11-6.16,26.15-28.22,22.73-23.83,45.08-48.17,67.95-71.82,12.09-12.49,25.15-24.08,37.74-36.06"/><path class="cls-14" d="M1554,584.3l-1.33.47-4.88,1.38-7.16,1.28-4.65.84-30.76,6.13-9,1.93-9.81,2.11-9.92,2.15-9,1.65L1459,605l-6.84,1.34-3.92.44-3.31.37-6.73.34-6.22-.38-7-1-9.87-.55-6,.1-4.35.29-1,.07-5.71.93L1393.4,608,1386,609.4l-15.09,2.89-8.33,2.27-5.61,1.78-9.5,4.45L1336.36,626l-5.83,2.68-.73.34-20.36,9.92-7.31,3.54-6.67,3.08-8.82,3.85-6.57,3.1-9.54,4.42-8.64,4.27-29.05,13.56-2.5,1-1.79.69-6,1.29-5.69-.16-4.17-.43-1.37-.15-11.08-2.15-13.31.1-4.06,1.41-4.22,1.54-4.27,3.17-3.13,2.58-2.63,2.77-3.48,5.33-6.46,13.74-3.78,6.23-3.78,4.68-7.36,6.15-4.21,2.46-5.35,3.41-22.17,14.25-32.34,18.26-17.81,10.91-19.8,12-6.58,3.13-3.34,1.37-5.27,2.1-11,3.18-5.53,1.05-9.53,2.09-9.24.75-4.41,0h-1.52l-5.09-.25-9-.89-6.25-.89-16.09-5.22L944,788.49l-11.65-3.58-7.6-2.43-3.83-1.22-6.59-2.16-10.58-4-6.7-1.64-6.06-.76-6.31-.43-14,2.68-14.2,3.42-9.33,2.24-23.84,6.86L812,791l-6.41,4.32L802,800.7l-3.58,7.3-4.32,13.26-3.43,8.79-4,5.81-6,4.92-6.26,3-8.64.86-10.66-.19-44.2-.13-2.9-.45-15.43-.62-9.76,5.84c-3.2,0-6.45,0-9.69.08l-18.9.31-2.39.5-5.53,1.88-4.6,2.29L637.32,857l-3.07,2.59-2.6,2.65-7.28,9.12-.08.1-13.37,16.05-6.76,8.06-3.38,4c-1.13,1.34-2.36,2.63-3.53,4l-7.1,7.86-1.78,2-1.85,1.87-3.72,3.73c-5,5-9.9,10-14.91,14.85q-15.06,14.67-30.55,28.69l-15.42,14.08-7.58,7.24c-1.24,1.23-2.61,2.37-3.92,3.54l-3.37,3-2.69,4.11-2,3.65-3.06,6.75-4.35,14.57-4.28,15.06-4.27,15.06-4.64,15.43-5.14,11.13c-.86,1.81-1.49,3.52-2.25,5.28-.36.88-.63,1.72-.95,2.58l-.75,2.26-.4,2.81.09,3,.63,3.47,1,2.86,9.8,21.17c1.63,3.6,3.37,7.12,4.91,10.77l4.78,11.08,2,5.73c.33.92.64,1.85.89,2.84l.82,3c.47,2,1,3.89,1.39,5.84l1.06,6,.85,8.8.71,8.58,1.43,17.09,1.54,17.09c.26,2.82.47,5.8.71,8.7l.36,8.94-.25,5.47-1.82,9c-1.79,4.58-2.67,6.63-4.47,11l-3.46,5.71-3.44,5-6.88,10.1-.27.37c-1.82,2.3-3.7,4.54-5.6,6.77l-2.86,3.37c-1,1.11-1.94,2.15-2.91,3.23-.67.73-1.32,1.45-2,2.18"/></g><g id="快岩井"><path class="cls-15" d="M2418-137.63l15.76-.32,12.28-.23,30.74-.19,12.32.09,12.14-.14,11.11-.66,10-1,10.39-1.52,9.91-1.38,20.26-3.73,9.29-2.06,10.51-2.61,14.22-4.4,14-5.34,28.19-12.38,28.77-15.81,23.37-16.81,22.6-17.88,25.69-25.13L2764-278.86l24.91-31.86L2814.5-341l7.51-7.7,15.48-16.58,7.72-7.5,17.08-13.47,8.58-5.07,3-1.2,4.7-1.69,11.71-.57.72,14.49.55,7.75.59,11.75,1.33,22.58.2,4.94.85,17.75.68,7.53,1.46,28.31.4,11.09,1.31,24.67.3,3.84.36,25.34.27,13,.08,13,37.28.91,6.91,1.21,6.5,7.07,0,8.16-5.36,15.26M209.08,1291.48l10.92-4.12,5.68-1.81,9.6-2.85,6.39-2.16,8.12-1.89,17.21-5.13,31.85-10.72,7.48-2.82,9.18-2.8,13.52-3.3,9.59-1.6,8.88-1,14.2-.63,5,.28,8.22.8,10.7,2.09,8.78,1.93,16.63,5.71,17.27,7,18.73,8.17,17,8.41,7.54,3.88,18.77,22.44,12.53,6.24,12.54,6.17,17.28,7.15,11.21,3.28,8.65,1.92,6.86,1.51,6.9.52,5.84.22,10.19-.28,7.39-1,11.15-2.25,11.94-3.84,9.59-4,5.54-2.46,8.79-4.83,9.3-5.58,4.82-3.73,11.57-9.28,6.56-6.75,9.14-10.3,69.68-82.1,56.5-66.5,5.47-6.44,21-24.28,6.82-7.87,53.14-62,4.61-5.69,62.31-72.44,41.65-49.53,5.65-7,35.14-42.48,26.29-32.42,11.73-14.13,6.8-8.65,35-41.24,7.89-9.07L1144.11,733l6.82-6.79,15.15-16.63,10-12.15L1188.26,682l2.69-3.9,7.91-9.84,14.09-16,22.11-24.06,18.25-17.91,20-17.12,19.44-14.5,26.09-16.76,14-7.8,13.43-6.75,20.26-9.11,20.06-8L1426,518.6l59.62-15.38,51-16.11,18.8-8.26,18.81-9.32,19.24-12.29,19.1-13.38,15-12.71,11-10.62,10.16-10.38,19.4-23.13,6.36-9,9.21-14.22,8.66-15.22L1706,323.09l27.89-54.41,23.66-47,8-15.37,16.31-30.93,9.79-17.2,10.66-16.13,17.87-25.86,17.29-19,19.29-20,19.3-18.07,31.72-25.09,17.26-11,34.8-19.9,27.36-12.59L2013.57-20l28.88-11.46,13-5.64,30-11.23,5-1.75L2135-65.89l32.39-11.41L2237-102.21l31.7-9.76,31-7.81,28.21-6,19.27-3.59,11.53-2.09,30.29-3.88,9.2-1,19.73-1.31"/><polyline class="cls-16" points="236.97 1282.13 241.67 1280.54 249.79 1278.64 267 1273.52 298.85 1262.8 306.33 1259.98 315.51 1257.18 329.03 1253.88 338.62 1252.28 347.5 1251.29 361.7 1250.66 366.73 1250.94 374.95 1251.74 385.65 1253.83 394.43 1255.76 411.06 1261.47 428.33 1268.43 447.06 1276.6 464.07 1285.01 471.61 1288.89 490.38 1311.33 502.91 1317.57 515.45 1323.74 532.73 1330.89 543.94 1334.17 552.59 1336.09 559.45 1337.6 566.35 1338.12 572.18 1338.34 582.38 1338.06 589.76 1337.03 600.92 1334.78 612.86 1330.94 622.45 1326.89 627.99 1324.43 636.78 1319.6 646.08 1314.02 650.9 1310.29 662.47 1301.01 669.03 1294.26 678.17 1283.96 747.85 1201.86 804.35 1135.36 809.82 1128.92 830.81 1104.64 837.63 1096.77 890.77 1034.72 895.38 1029.03 957.69 956.59 999.34 907.06 1005 900.09 1040.13 857.61 1066.42 825.19 1078.15 811.06 1084.94 802.41 1119.9 761.17 1127.79 752.1 1144.11 732.95 1150.93 726.16 1166.08 709.53 1176.03 697.38 1188.26 682 1190.95 678.1 1198.86 668.26 1212.95 652.24 1235.06 628.18 1253.31 610.27 1273.3 593.14 1292.74 578.65 1318.83 561.89 1332.83 554.09 1346.26 547.34 1366.52 538.23 1386.58 530.24 1425.98 518.6 1485.6 503.22 1536.61 487.11 1555.41 478.85 1574.22 469.53 1593.46 457.24 1612.56 443.86 1627.59 431.15 1638.63 420.53 1648.78 410.15 1668.18 387.02 1674.54 378.04 1683.75 363.81 1692.41 348.6 1705.97 323.09 1733.86 268.68 1757.52 221.7 1765.54 206.33 1781.85 175.4 1791.64 158.2 1802.3 142.07 1820.17 116.21 1837.46 97.19 1856.75 77.22 1876.05 59.15 1907.77 34.06 1925.03 23.07 1959.83 3.17 1987.19 -9.42 2013.57 -20.01 2042.45 -31.47 2055.5 -37.11 2085.49 -48.34 2090.53 -50.09 2134.96 -65.89 2167.35 -77.3 2237.01 -102.21 2268.71 -111.97 2299.72 -119.78 2327.93 -125.79 2347.2 -129.38 2358.73 -131.47 2389.02 -135.35 2398.22 -136.32 2403.26 -136.66"/></g></g></g></svg>