<svg id="routes" xmlns="http://www.w3.org/2000/svg" xmlns:xlink="http://www.w3.org/1999/xlink" viewBox="0 0 1024 1024"><defs><style>.cls-1,.cls-3,.cls-4,.cls-5{fill:none;}.cls-2{clip-path:url(#clip-path);}.cls-3{stroke:#231815;stroke-width:8.79px;}.cls-3,.cls-4,.cls-5{stroke-linecap:round;stroke-miterlimit:10;}.cls-4{stroke:#aace36;}.cls-4,.cls-5{stroke-width:4.4px;}.cls-5{stroke:#ca2e34;}</style><clipPath id="clip-path"><rect class="cls-1" x="-1959" y="-5116" width="11720" height="11720"/></clipPath></defs><title>3232_7146</title><g class="cls-2"><g id="日ノ丸線"><g id="鹿野"><path class="cls-3" d="M2342.59-1895.09c3.43,0,6.86.13,10.29,0l10.28-.38,20.56-.75,35.18,3.07,31.51,6.94,6.59,8.79,12.19,5,28.35,7.45,29,5.45,24.77,7.08M601.49-90.17l-1.85.34-1.6.42-1.79.78-1.58.89L575.73-71.21l-.78.67L534.67-36l4.77,6.1,5.12,8,2.86,5.54L557,1.23l-8.16,4.71M873.57-71l-3.45.35-7.63-.28-6.43-.35-4.11-.5-57.17-6.87-.86-.1-6.5-.52-.88-.11-15.3-2L755.5-83.55l-20.67-2.87-19.61-2.73L706.14-90,685.6-91.81l-18.55.45-17.55.43-2.91.07-43,.55-2.13.14-2.59-2.3L597-93.8l-16.43-10.49-3.17-1.85-29.93-18.75-7.25-5.64-5.37-5.77-4.43-6-1.33-3.15-16,3-7.85,1.41L497-139.61l-3.39.61-19.39,3.51-.54.1-41.79,7.86-19.79,3.72M495.22-332l-16.15.75-13.82.88-4.8.31-25,1.08-16,.7-32.09,2-.82,1-.25,1.07,2.63,17.72.36,2.31,5,27.48.86,5.33.55,2.84L399-251.22l12.92,71.27.55,10.89-.33,24.4m-2.64-1256.66-3.58-12.29-.41-2.5-.66-5.54-.65-5.71,2.12-3.26,4.9-4.08,2.28-2,1.63-2.78-.65-3.42-3-13.94-1.37-6.69-1.9-9.51-.42-4-.4-3.49-1.27-11.37-1.94-18-21.24.91-4.15.11-23.05.63-7.4.15h-.84l-.49,0-23.3.86-31.72,1.06,1.34,51.2.92,44,0,18.61.51,14,.72,5.1,1,4.75,1.23,4.29,2.89,8.53,6.57,12.9,7.89,15.57,10.82,21.07,6.68,14.33L337-1279l1.47,7.13,4.2,19.72,5.23,30.49,1.62,7.22,4.15,21.64.36,6.68-.9,13.89.36,7.93,2.71,6.32,4.32,6.31,6.14,4.87,9.92,4,7.4,2.7,7.57,1.09,3.77.08,6.88.46,7.4-.9,10.46-1.09,2.89-.36,8.11,1.09,7.94,4.15,2.09,2.33,4,4.52,2.53,3.61,2.82,6.4.9,24.46,1.89,28.07,1.91,28.1L457-986.83,461-928.12,461.9-911l2.16,39,.4,7.34,1.73,31.93.63,10.79,2,35.2v4.29l.11.53.25,4.22.18,3.32,3,49.88,5.2,85.5,3.21,52.46,2.14,37.39,2.5,44.2.07,1.68.84,18.68,2.34,46.43,3.25,50.85L493.6-361,495.21-332m1294.38-1489.7c-5.64,3.35-12.37,6.34-17.29,10.72a95.26,95.26,0,0,0-15,16.28c-4,5.62-6.14,11.93-9.44,17.86-3.2,5.73-8.34,11.4-13.11,15.82-5.08,4.71-11.24,7.84-17.21,11.25s-12,6.74-17.9,10.31c-11.68,7.07-23.48,14.54-36,20.1-6.59,2.93-13.23,4-20.34,4.81-6.9.81-13.42-.33-20.14-1.44-6.34-1-13.81.65-20,2.14-7.3,1.76-14.34,4.71-21.42,7.2-13.35,4.7-26.47,10-39.74,15-2.4.89-4.79,1.82-7.21,2.66a30.16,30.16,0,0,1-11,1.65c-6.47,0-14.23-3.68-20.38-5.64a123.54,123.54,0,0,1-18.13-7.16c-5.92-3-10.93-7.76-15.87-12.11-10.47-9.23-20.72-18.75-31.09-28.09-5-4.54-11.16-9.16-15.06-14.75-3.63-5.21-3.26-13.29-3.4-19.41-.16-6.87,0-14.24-1.52-21s-9.13-9.59-14.86-12.31c-12.71-6-25.18-12.59-37.67-19.09-3.21-1.67-6.39-3.83-10-4.59-3.32-.7-6.54-.13-9.87.22-7.39.8-14.85,1.13-22.27,1.68-3.33.24-7.14,0-10.4.75-2.65.6-5.61,2.44-7.88,4-6.09,4.12-11.1,10.65-16.32,15.82-4.43,4.4-8.62,9.12-14.43,11.67-4.92,2.14-10.74,2.59-16,3.08-3.75.35-5.87.44-9.24-1.22a22.75,22.75,0,0,1-6.12-3.87c-4.59-4.49-8.78-11.54-15.82-12-8.18-.51-11.8,5.88-14.26,12.74s-3.82,14.23-5.63,21.24c-1.49,5.8-2.59,11.78-3.5,17.69-1,6.74-2.73,14.22-2.75,21,0,7.32,1.12,14.4-.09,21.68-.45,2.78-1.2,6.49-2.9,8.81-1.88,2.57-5.07,3.6-7.75,5-2.23,1.2-7.62,2.52-8.85,4.85-1.49,2.84,1.14,6.26,2.59,8.34m0,0a174.92,174.92,0,0,0-16.81,19.06c-4.89,6.32-9.2,12.17-16.45,15.87a79.79,79.79,0,0,1-22,7.35c-16.4,3.17-33.06,6.42-49.06,11.29-15.51,4.73-30,12.49-45,18.44-14.73,5.81-29.82,10.5-45,15.06-17.34,5.22-34.75,10.26-52,15.71-7.2,2.28-14.76,5.63-22.16,6.9-8.9,1.53-17.11,1.13-26.08.43-7.14-.56-14.41-2.75-21.26-4.78q-12.16-3.6-24.23-7.58c-8.24-2.72-16.55-6.1-24.93-8.36-7.48-2-15.18-2.75-22.59-5.14-16.22-5.23-32.18-10.7-47.43-18.37-15.08-7.59-29.71-16.09-44.58-24.08-14-7.51-28.14-15-44.21-16.55-17.55-1.7-35,3.2-52.08,6.46-1.36.26-1.52.07-1.9,1-.69,1.63.59,5.84.77,7.62.08.79.77,3.23.39,3.94-.23.46-.55.29-1,.68-1.49,1.16-4.17,1.54-5.94,2.28-7.78,3.25-15.25,7.28-23,10.65a81.43,81.43,0,0,0-9.6,4.85c-3.51,2.11-7.36,3.46-10,6.73-2.2,2.78-4,5.83-6,8.77-2.12,3.16-4.91,6.22-6.39,9.74-3.23,7.73-4.92,16.46-7.27,24.5s-3.22,16.18-6.24,24a82.77,82.77,0,0,1-11.3,20.88c-4.38,5.76-12.15,11.87-12.86,19.35-.35,3.65,2.45,7.58,3.51,11.13,1.22,4.09,2.3,8.23,3.44,12.34,2.15,7.67,3.75,16,7,23.29a17.36,17.36,0,0,0,2.58,4c.89,1.11,4.17,4,4.34,5.44.34,2.89-5.7,5.28-7.53,6.62-7.73,5.65-15.22,11.64-22.82,17.46-2.66,2-5.41,4.81-8.37,6.4-2.8,1.49-6.69,1.33-9.77,1.56-8.24.63-16.5,1.17-24.74,1.81-7.88.62-15.57.89-23.23,2.82-8.89,2.24-17.77,4.55-26.65,6.82m1936.7-481.48-19-.19-24.65-2-3.08-.25-3.06-.45-6.12-.9-12.23-1.79-8.28-.53c-25.32,4.9-50.67,9.67-76,14.69l-38,7.48c-12.65,2.53-25.35,4.77-38,7.18l-34.41,3.19-6.48.3-12.59.59-18.45-4.11-37.6,4.7-36,10-20.24,4-18.45,0-36.6-6.6-33.76.92-34.5,18-35.53,19.15m283.76-46.71,1.79,32.18M399.89-1.58l11.1-23,1.19-2.49,5-13,1.19-4,.76-3.82L419-54.27l-1.32-7.32-1.32-8.34-1.75-10.71L414-88.37l-.41-4.8-1.49-30.64.08-3.27.09-4.1-.19-13.48M2691.44-1820.09l-8.84,40.87,12.65,31.36m1076.85,221-85.17-11.37-85.13-11.72-21.77-4.81-15.82-13.37c-9.64-10.52-19.17-21.16-28.91-31.58L3505.06-1630c-5.46-4-10.88-8.16-16.37-12.17l-16.94-11.37-42.45-11-43.06-8.28-40.22,5.12-40.15.62-31.47-2.12-14.91-4.57c-5.42-1.59-10.77-3.48-16.15-5.26l-32.24-10.79-32.23-11-16.12-5.51c-5.36-1.84-10.67-3.79-16-5.68l-32-11.43c-5.36-1.84-10.62-4-15.91-6L3083-1735.6l-31.7-12.33c-5.34-2-35.76-2.33-35.76-2.33l-28.67-7.88c-4.76-1.35-9.57-2.56-14.37-3.77l-14.41-3.65-28.82-7.29c-2.4-.6-4.8-1.24-7.21-1.81l-7.28-1.48-14.56-3-29-6.73c-9.64-2.27-19.33-4.33-29-6.51l-29-6.45c-2.41-.58-4.85-1-7.29-1.42l-7.32-1.29-14.64-2.57c-19.52-3.43-39-6.93-58.57-10.22l-29.3-5-14.65-2.5c-2.44-.43-4.89-.79-7.32-1.29l-7.27-1.52-29.1-6.09-14.54-3-7.28-1.52c-2.43-.47-4.8-1.22-7.2-1.82l-28.74-7.6-14.37-3.8-7.18-1.92-7.14-2m1220.8,325.6,86,11.74,43,5.72c14.31,2.1,28.56,4.53,42.86,6.69l86,11.2,86,11.75,19-.68,35.3-9.54,17.65-4.77,8.83-2.38,8.91-2.07,51.09-11.8"/><path class="cls-4" d="M2342.59-1895.09c3.43,0,6.86.13,10.29,0l10.28-.38,20.56-.75,35.18,3.07,31.51,6.94,6.59,8.79,12.19,5,28.35,7.45,29,5.45,24.77,7.08M601.49-90.17l-1.85.34-1.6.42-1.79.78-1.58.89L575.73-71.21l-.78.67L534.67-36l4.77,6.1,5.12,8,2.86,5.54L557,1.23l-8.16,4.71M873.57-71l-3.45.35-7.63-.28-6.43-.35-4.11-.5-57.17-6.87-.86-.1-6.5-.52-.88-.11-15.3-2L755.5-83.55l-20.67-2.87-19.61-2.73L706.14-90,685.6-91.81l-18.55.45-17.55.43-2.91.07-43,.55-2.13.14-2.59-2.3L597-93.8l-16.43-10.49-3.17-1.85-29.93-18.75-7.25-5.64-5.37-5.77-4.43-6-1.33-3.15-16,3-7.85,1.41L497-139.61l-3.39.61-19.39,3.51-.54.1-41.79,7.86-19.79,3.72M495.22-332l-16.15.75-13.82.88-4.8.31-25,1.08-16,.7-32.09,2-.82,1-.25,1.07,2.63,17.72.36,2.31,5,27.48.86,5.33.55,2.84L399-251.22l12.92,71.27.55,10.89-.33,24.4m-2.64-1256.66-3.58-12.29-.41-2.5-.66-5.54-.65-5.71,2.12-3.26,4.9-4.08,2.28-2,1.63-2.78-.65-3.42-3-13.94-1.37-6.69-1.9-9.51-.42-4-.4-3.49-1.27-11.37-1.94-18-21.24.91-4.15.11-23.05.63-7.4.15h-.84l-.49,0-23.3.86-31.72,1.06,1.34,51.2.92,44,0,18.61.51,14,.72,5.1,1,4.75,1.23,4.29,2.89,8.53,6.57,12.9,7.89,15.57,10.82,21.07,6.68,14.33L337-1279l1.47,7.13,4.2,19.72,5.23,30.49,1.62,7.22,4.15,21.64.36,6.68-.9,13.89.36,7.93,2.71,6.32,4.32,6.31,6.14,4.87,9.92,4,7.4,2.7,7.57,1.09,3.77.08,6.88.46,7.4-.9,10.46-1.09,2.89-.36,8.11,1.09,7.94,4.15,2.09,2.33,4,4.52,2.53,3.61,2.82,6.4.9,24.46,1.89,28.07,1.91,28.1L457-986.83,461-928.12,461.9-911l2.16,39,.4,7.34,1.73,31.93.63,10.79,2,35.2v4.29l.11.53.25,4.22.18,3.32,3,49.88,5.2,85.5,3.21,52.46,2.14,37.39,2.5,44.2.07,1.68.84,18.68,2.34,46.43,3.25,50.85L493.6-361,495.21-332m1294.38-1489.7c-5.64,3.35-12.37,6.34-17.29,10.72a95.26,95.26,0,0,0-15,16.28c-4,5.62-6.14,11.93-9.44,17.86-3.2,5.73-8.34,11.4-13.11,15.82-5.08,4.71-11.24,7.84-17.21,11.25s-12,6.74-17.9,10.31c-11.68,7.07-23.48,14.54-36,20.1-6.59,2.93-13.23,4-20.34,4.81-6.9.81-13.42-.33-20.14-1.44-6.34-1-13.81.65-20,2.14-7.3,1.76-14.34,4.71-21.42,7.2-13.35,4.7-26.47,10-39.74,15-2.4.89-4.79,1.82-7.21,2.66a30.16,30.16,0,0,1-11,1.65c-6.47,0-14.23-3.68-20.38-5.64a123.54,123.54,0,0,1-18.13-7.16c-5.92-3-10.93-7.76-15.87-12.11-10.47-9.23-20.72-18.75-31.09-28.09-5-4.54-11.16-9.16-15.06-14.75-3.63-5.21-3.26-13.29-3.4-19.41-.16-6.87,0-14.24-1.52-21s-9.13-9.59-14.86-12.31c-12.71-6-25.18-12.59-37.67-19.09-3.21-1.67-6.39-3.83-10-4.59-3.32-.7-6.54-.13-9.87.22-7.39.8-14.85,1.13-22.27,1.68-3.33.24-7.14,0-10.4.75-2.65.6-5.61,2.44-7.88,4-6.09,4.12-11.1,10.65-16.32,15.82-4.43,4.4-8.62,9.12-14.43,11.67-4.92,2.14-10.74,2.59-16,3.08-3.75.35-5.87.44-9.24-1.22a22.75,22.75,0,0,1-6.12-3.87c-4.59-4.49-8.78-11.54-15.82-12-8.18-.51-11.8,5.88-14.26,12.74s-3.82,14.23-5.63,21.24c-1.49,5.8-2.59,11.78-3.5,17.69-1,6.74-2.73,14.22-2.75,21,0,7.32,1.12,14.4-.09,21.68-.45,2.78-1.2,6.49-2.9,8.81-1.88,2.57-5.07,3.6-7.75,5-2.23,1.2-7.62,2.52-8.85,4.85-1.49,2.84,1.14,6.26,2.59,8.34m0,0a174.92,174.92,0,0,0-16.81,19.06c-4.89,6.32-9.2,12.17-16.45,15.87a79.79,79.79,0,0,1-22,7.35c-16.4,3.17-33.06,6.42-49.06,11.29-15.51,4.73-30,12.49-45,18.44-14.73,5.81-29.82,10.5-45,15.06-17.34,5.22-34.75,10.26-52,15.71-7.2,2.28-14.76,5.63-22.16,6.9-8.9,1.53-17.11,1.13-26.08.43-7.14-.56-14.41-2.75-21.26-4.78q-12.16-3.6-24.23-7.58c-8.24-2.72-16.55-6.1-24.93-8.36-7.48-2-15.18-2.75-22.59-5.14-16.22-5.23-32.18-10.7-47.43-18.37-15.08-7.59-29.71-16.09-44.58-24.08-14-7.51-28.14-15-44.21-16.55-17.55-1.7-35,3.2-52.08,6.46-1.36.26-1.52.07-1.9,1-.69,1.63.59,5.84.77,7.62.08.79.77,3.23.39,3.94-.23.46-.55.29-1,.68-1.49,1.16-4.17,1.54-5.94,2.28-7.78,3.25-15.25,7.28-23,10.65a81.43,81.43,0,0,0-9.6,4.85c-3.51,2.11-7.36,3.46-10,6.73-2.2,2.78-4,5.83-6,8.77-2.12,3.16-4.91,6.22-6.39,9.74-3.23,7.73-4.92,16.46-7.27,24.5s-3.22,16.18-6.24,24a82.77,82.77,0,0,1-11.3,20.88c-4.38,5.76-12.15,11.87-12.86,19.35-.35,3.65,2.45,7.58,3.51,11.13,1.22,4.09,2.3,8.23,3.44,12.34,2.15,7.67,3.75,16,7,23.29a17.36,17.36,0,0,0,2.58,4c.89,1.11,4.17,4,4.34,5.44.34,2.89-5.7,5.28-7.53,6.62-7.73,5.65-15.22,11.64-22.82,17.46-2.66,2-5.41,4.81-8.37,6.4-2.8,1.49-6.69,1.33-9.77,1.56-8.24.63-16.5,1.17-24.74,1.81-7.88.62-15.57.89-23.23,2.82-8.89,2.24-17.77,4.55-26.65,6.82m1936.7-481.48-19-.19-24.65-2-3.08-.25-3.06-.45-6.12-.9-12.23-1.79-8.28-.53c-25.32,4.9-50.67,9.67-76,14.69l-38,7.48c-12.65,2.53-25.35,4.77-38,7.18l-34.41,3.19-6.48.3-12.59.59-18.45-4.11-37.6,4.7-36,10-20.24,4-18.45,0-36.6-6.6-33.76.92-34.5,18-35.53,19.15m283.76-46.71,1.79,32.18M399.89-1.58l11.1-23,1.19-2.49,5-13,1.19-4,.76-3.82L419-54.27l-1.32-7.32-1.32-8.34-1.75-10.71L414-88.37l-.41-4.8-1.49-30.64.08-3.27.09-4.1-.19-13.48M2691.44-1820.09l-8.84,40.87,12.65,31.36m1076.85,221-85.17-11.37-85.13-11.72-21.77-4.81-15.82-13.37c-9.64-10.52-19.17-21.16-28.91-31.58L3505.06-1630c-5.46-4-10.88-8.16-16.37-12.17l-16.94-11.37-42.45-11-43.06-8.28-40.22,5.12-40.15.62-31.47-2.12-14.91-4.57c-5.42-1.59-10.77-3.48-16.15-5.26l-32.24-10.79-32.23-11-16.12-5.51c-5.36-1.84-10.67-3.79-16-5.68l-32-11.43c-5.36-1.84-10.62-4-15.91-6L3083-1735.6l-31.7-12.33c-5.34-2-35.76-2.33-35.76-2.33l-28.67-7.88c-4.76-1.35-9.57-2.56-14.37-3.77l-14.41-3.65-28.82-7.29c-2.4-.6-4.8-1.24-7.21-1.81l-7.28-1.48-14.56-3-29-6.73c-9.64-2.27-19.33-4.33-29-6.51l-29-6.45c-2.41-.58-4.85-1-7.29-1.42l-7.32-1.29-14.64-2.57c-19.52-3.43-39-6.93-58.57-10.22l-29.3-5-14.65-2.5c-2.44-.43-4.89-.79-7.32-1.29l-7.27-1.52-29.1-6.09-14.54-3-7.28-1.52c-2.43-.47-4.8-1.22-7.2-1.82l-28.74-7.6-14.37-3.8-7.18-1.92-7.14-2m1220.8,325.6,86,11.74,43,5.72c14.31,2.1,28.56,4.53,42.86,6.69l86,11.2,86,11.75,19-.68,35.3-9.54,17.65-4.77,8.83-2.38,8.91-2.07,51.09-11.8"/></g><g id="松上"><path class="cls-3" d="M4084-1147.26c-2.9-.48-5.86-.85-8.8-1.28l-4.41-.63c-1.47-.22-2.93-.41-4.4-.51l-8.25-.72-18.2-2.67-9.29-1.38-4.65-.69c-.76-.11-1.6-.22-2.18-.35L4021-1156l-28.86-3.06-3.45-.36-3.56-.49-7.13-1c-4.83-.52-9.75-.89-14.63-1.35l-14.46-1.21-14.14-.84-7.06-.41-3.54-.21-.44,0-.28,0-.56,0-.56,0-.81-.13-14.19-2.23-15.36-1.25-14.69-1.51-10.06-1L3855-1154.87,3842.56-1138l-9.93,12.56L3813.08-1100l-15.87,20.83-1.93,2.75-1.94,2-7.68,9.56-3.49,4.63-1.53,2.57-3.83,6-4.4,6.71-9.41,14.9-7.78,10-4.81,5.93-4.88,5.7L3735.24-998l-9.57,8.71-5.15,5.3-16.09,16.66-5,5-14.83,18-3.51,4.25-3.65,4.39-6.16,7.41-3.14,3.78L3659-913.83l-8.87,10.47-3.29,4.08-13.65,14.76-4.44,5.11-9.26,10.14v0l-.71.9-5,6.14-8.46,9.88-27.92,30.63L3560-802.47l-11.58,12.84-5.77,6.42-3.07,3.38-2.46,2.72-.16,1.48-36.81,21.92-52.1,31.08-58.36,33-37.86,21.24-1,.83-3.8,2.16-10.31,5-9.49,4L3315.2-652l-7.42,2-9.55,3.68-2.4,1-1.17.76-1.08.58-1.19,1.57-1,1.66-6.1,17.59-.88,2.52-1.09,1.34-.38.48-3,1.79-4.41,1.71-6.42,1.82-5.8,1.94-5.67,2.48-7.22,3.69-7.43,4.79-10.83,7.24-7,5.52L3211-577.22l-8.8,7.12-7.72,7.06-5.25,5.55-9.6,10.73-10.19,11-6.75,6.65-6.35,5.94L3140.8-509.2l-23.51,19-12.19,10.72-34.19,29.59-12.25,9.92L3024.71-412l-26.93,21.91L2985.09-380l-1,.78-6.38,3.8-5.12,1.77-15.21,3.4-15.23,3.55-14.42,4-14.93,4.38-14.41,4-16.37,4-6.73.65-9.63,1-5.61,1.28-2.89,1.29-4.47,2.57-7.38,5.8-18.75,17.54-5.71,7.88-7.36,9.13-3.92,4.42-3.19,5.48-1.92,5.28-1.42,5.71-.43,5.15,0,5.92-4,.25-3.24,1.54-3.24,2.91-6.06,4.66-18.27,12.41-4.66,4-7.71,6.28-10.27,9.67-1.75,2.26-1.61,4.34-2.21,8.88-2.42,9-3.51,9.52-3.71,8.7-1.12,2.57-4.17,8.06-3.37,6.44-1.43,2.42-5.6,9.18-4.55,5.81-19.4,24.83-10.56,15.32-3.77,5.35-.81,2-.36,1.9.21,1.62,1.05,2.11,1,2-8.12,6.91-6.82,8.86-9.75,22.85-8.37,27.1-5.45,14.16-2.26,4.17-4.47,7-9.63,10.65-4.28,7.16L2617,15l-.81,3.74-1.42,10.93v16.1l.31,3.09v4.83L2614,58.33l-8.5,15.15-21,35.6-6.08,9.83-6.24,10-4,5.63L2551,159l-3.51,5.8L2544.9,170l-4.33,10.32-1.44,3.55-3.84,10.28-3.38,8.87-11.27,30.33-1.07,2.89-4.8,14.49-.49,5L2514,273.1l-.49,4.86-1.11,5.63-1.59,4.52-2.72,4.83-11.39,19.64-1.94,3.2-8.84,16.44-10.72,21.67-5.94,12-3.05,5.8-2.89,3.86-2.09,2.89-13,12.58-6.9,7.43-3.84,5-4,6.6-4.17,8.06-1.93,6.29.16,4,1.77,8,.47,4.2-.47,5.14-.33,1.29-2.72,8.71-3.21,6.27-3.68,6-2.73,3.72-8.66,8.72-20.52,19-14.74,15.46-17.66,18.84-8.8,10.32-4,4.34-10.59,9.21h0l-19.9,16.61-5.14,5.15-2.23,2.89-1.45,3.85-.79,9.83-.63,2.61-1.15,2.57-3.18,4.8-1.94,1.78-15.2,13.2-10.6,7.55-4.48,2.12-3.53,1.28-3.68,1.11-9.62,1.63H2232l-15.06-.82-11.53-.09-2.58.43-7.23,2.4-7.38,2.74-8,2.26-6.73,1.29-19.23,4.83-12.67,4-5.32,3.23-6.1,4.83-12.95,14.18-5.12,5-3.38,2.75-31.3,21.12-13.62,7.72-9.93,6.43-9.12,8.2-3,2.6-6.73,4.34-13.3,6.92-9.48,3.87-3.35,2.11-4.17,3.06-4.17,3.37-2.56,1.95-2.24,1.74-1,.48-4.66-2.8-1.47-.08-1.86.68L1973,765.83l-12.35,11.46-9.94,8.21L1935.35,800l-3.84,2.09-1.91.65-4.14,1.35-4.83,1.57-3.88,2.22-11.71,7.9-4,2.14-10.47,1.4-10.38,2.75-7.89,2.56-5.94,3.24-1.42,1-8.32,6.74-8,6.92-18.75,18.09-17.14,16.72-5.31,6.63-11.37,17.24-6.42,8.52-34.47,41.41-4.4,4.46-5.59,4.49-9.66,6.33-15.26,6.82-10.34,5.72-9,8.07-4.63,4.74-1.9,1.63-1.91,2.5-6.83,10.87-9.6,13.12-7.41,7.49-5.11,2.06-4.8,1-6.87,1.92-10.53,1.72-17.61-.66-13.16-.14-11.52.8-64.45,7.4-4.16.63-7.53,1-8.5,2.12-11.22,4.83-12.18,5.8-19.89,8.69-12.18,5-50.14,18.29-4,1.49-2.91-4.46-4.36-4.35-5.1-5.79-1.74-.41-1.61.23-3.4,1.14-10.25,4.66-5.59,2.26-4.84,2h-4.47l-4.64-1.46-6.12-2.58-4-1.45-1.77-.52-1.91.38-2.1,1.11-5.12,4-5.77,4.17-5,2.92-21.78,10.14-6.42,3.86-5.95,5.49-3.74,3.34-2.33,1.52-3.17,1.86-6.78-1.75-6.08-1.12-8.66-1-5-.24-5.26.41-6.73,1-8,2.23-9.16,3-8,3.23-6.24,3.06-5.45,3.4-6.1,4.35-17,14.11-10.76,8.92-17.86,14.17-3.49,4.49-3,1.29-3.2.66-17.3.31-5.45.32-15.2,3.88-10.41,2.57-4.34,1.29-5.91,2.25-9.32,5.32-4.66,3.38-8.15,6.91-12,13.54-4.49,4.52-5.28,4.49-3.52,2.11-7.2,3.69-6.73,2.91-5.29,2.74-40.52,26.9-2.84,2-6.45,4.57L958,1278.78l-15,10.63-7.9,5.43-4.1,2.8-4,2.58-5.12,2.39-23.55,7.58-5.12,1.94-5.76,2.89-5,3.23-2.7,1.63-3.87,2.88-3.51,3.06-9,9.17-8,10.32-7.85,10.8L841,1364l-11.85,6.77-13.6,6.14-7.39,4.18-3.81,2.54-4.36,2.92-4,3.54-2.73,2.91-2.09,3.38-.63,2.08-1.4,8.83-4.51,28.52-.5,3.11-6.57,33.49-5.44,27-.33.49L766,1530l-1.89,9.17-.91,1.69-2,1.23-5.82,2-6,2.18-9,4.68L728.54,1558l-10.1,6.6-5.92,3.68-6.57,3.89"/><path class="cls-5" d="M4084-1147.26c-2.9-.48-5.86-.85-8.8-1.28l-4.41-.63c-1.47-.22-2.93-.41-4.4-.51l-8.25-.72-18.2-2.67-9.29-1.38-4.65-.69c-.76-.11-1.6-.22-2.18-.35L4021-1156l-28.86-3.06-3.45-.36-3.56-.49-7.13-1c-4.83-.52-9.75-.89-14.63-1.35l-14.46-1.21-14.14-.84-7.06-.41-3.54-.21-.44,0-.28,0-.56,0-.56,0-.81-.13-14.19-2.23-15.36-1.25-14.69-1.51-10.06-1L3855-1154.87,3842.56-1138l-9.93,12.56L3813.08-1100l-15.87,20.83-1.93,2.75-1.94,2-7.68,9.56-3.49,4.63-1.53,2.57-3.83,6-4.4,6.71-9.41,14.9-7.78,10-4.81,5.93-4.88,5.7L3735.24-998l-9.57,8.71-5.15,5.3-16.09,16.66-5,5-14.83,18-3.51,4.25-3.65,4.39-6.16,7.41-3.14,3.78L3659-913.83l-8.87,10.47-3.29,4.08-13.65,14.76-4.44,5.11-9.26,10.14v0l-.71.9-5,6.14-8.46,9.88-27.92,30.63L3560-802.47l-11.58,12.84-5.77,6.42-3.07,3.38-2.46,2.72-.16,1.48-36.81,21.92-52.1,31.08-58.36,33-37.86,21.24-1,.83-3.8,2.16-10.31,5-9.49,4L3315.2-652l-7.42,2-9.55,3.68-2.4,1-1.17.76-1.08.58-1.19,1.57-1,1.66-6.1,17.59-.88,2.52-1.09,1.34-.38.48-3,1.79-4.41,1.71-6.42,1.82-5.8,1.94-5.67,2.48-7.22,3.69-7.43,4.79-10.83,7.24-7,5.52L3211-577.22l-8.8,7.12-7.72,7.06-5.25,5.55-9.6,10.73-10.19,11-6.75,6.65-6.35,5.94L3140.8-509.2l-23.51,19-12.19,10.72-34.19,29.59-12.25,9.92L3024.71-412l-26.93,21.91L2985.09-380l-1,.78-6.38,3.8-5.12,1.77-15.21,3.4-15.23,3.55-14.42,4-14.93,4.38-14.41,4-16.37,4-6.73.65-9.63,1-5.61,1.28-2.89,1.29-4.47,2.57-7.38,5.8-18.75,17.54-5.71,7.88-7.36,9.13-3.92,4.42-3.19,5.48-1.92,5.28-1.42,5.71-.43,5.15,0,5.92-4,.25-3.24,1.54-3.24,2.91-6.06,4.66-18.27,12.41-4.66,4-7.71,6.28-10.27,9.67-1.75,2.26-1.61,4.34-2.21,8.88-2.42,9-3.51,9.52-3.71,8.7-1.12,2.57-4.17,8.06-3.37,6.44-1.43,2.42-5.6,9.18-4.55,5.81-19.4,24.83-10.56,15.32-3.77,5.35-.81,2-.36,1.9.21,1.62,1.05,2.11,1,2-8.12,6.91-6.82,8.86-9.75,22.85-8.37,27.1-5.45,14.16-2.26,4.17-4.47,7-9.63,10.65-4.28,7.16L2617,15l-.81,3.74-1.42,10.93v16.1l.31,3.09v4.83L2614,58.33l-8.5,15.15-21,35.6-6.08,9.83-6.24,10-4,5.63L2551,159l-3.51,5.8L2544.9,170l-4.33,10.32-1.44,3.55-3.84,10.28-3.38,8.87-11.27,30.33-1.07,2.89-4.8,14.49-.49,5L2514,273.1l-.49,4.86-1.11,5.63-1.59,4.52-2.72,4.83-11.39,19.64-1.94,3.2-8.84,16.44-10.72,21.67-5.94,12-3.05,5.8-2.89,3.86-2.09,2.89-13,12.58-6.9,7.43-3.84,5-4,6.6-4.17,8.06-1.93,6.29.16,4,1.77,8,.47,4.2-.47,5.14-.33,1.29-2.72,8.71-3.21,6.27-3.68,6-2.73,3.72-8.66,8.72-20.52,19-14.74,15.46-17.66,18.84-8.8,10.32-4,4.34-10.59,9.21h0l-19.9,16.61-5.14,5.15-2.23,2.89-1.45,3.85-.79,9.83-.63,2.61-1.15,2.57-3.18,4.8-1.94,1.78-15.2,13.2-10.6,7.55-4.48,2.12-3.53,1.28-3.68,1.11-9.62,1.63H2232l-15.06-.82-11.53-.09-2.58.43-7.23,2.4-7.38,2.74-8,2.26-6.73,1.29-19.23,4.83-12.67,4-5.32,3.23-6.1,4.83-12.95,14.18-5.12,5-3.38,2.75-31.3,21.12-13.62,7.72-9.93,6.43-9.12,8.2-3,2.6-6.73,4.34-13.3,6.92-9.48,3.87-3.35,2.11-4.17,3.06-4.17,3.37-2.56,1.95-2.24,1.74-1,.48-4.66-2.8-1.47-.08-1.86.68L1973,765.83l-12.35,11.46-9.94,8.21L1935.35,800l-3.84,2.09-1.91.65-4.14,1.35-4.83,1.57-3.88,2.22-11.71,7.9-4,2.14-10.47,1.4-10.38,2.75-7.89,2.56-5.94,3.24-1.42,1-8.32,6.74-8,6.92-18.75,18.09-17.14,16.72-5.31,6.63-11.37,17.24-6.42,8.52-34.47,41.41-4.4,4.46-5.59,4.49-9.66,6.33-15.26,6.82-10.34,5.72-9,8.07-4.63,4.74-1.9,1.63-1.91,2.5-6.83,10.87-9.6,13.12-7.41,7.49-5.11,2.06-4.8,1-6.87,1.92-10.53,1.72-17.61-.66-13.16-.14-11.52.8-64.45,7.4-4.16.63-7.53,1-8.5,2.12-11.22,4.83-12.18,5.8-19.89,8.69-12.18,5-50.14,18.29-4,1.49-2.91-4.46-4.36-4.35-5.1-5.79-1.74-.41-1.61.23-3.4,1.14-10.25,4.66-5.59,2.26-4.84,2h-4.47l-4.64-1.46-6.12-2.58-4-1.45-1.77-.52-1.91.38-2.1,1.11-5.12,4-5.77,4.17-5,2.92-21.78,10.14-6.42,3.86-5.95,5.49-3.74,3.34-2.33,1.52-3.17,1.86-6.78-1.75-6.08-1.12-8.66-1-5-.24-5.26.41-6.73,1-8,2.23-9.16,3-8,3.23-6.24,3.06-5.45,3.4-6.1,4.35-17,14.11-10.76,8.92-17.86,14.17-3.49,4.49-3,1.29-3.2.66-17.3.31-5.45.32-15.2,3.88-10.41,2.57-4.34,1.29-5.91,2.25-9.32,5.32-4.66,3.38-8.15,6.91-12,13.54-4.49,4.52-5.28,4.49-3.52,2.11-7.2,3.69-6.73,2.91-5.29,2.74-40.52,26.9-2.84,2-6.45,4.57L958,1278.78l-15,10.63-7.9,5.43-4.1,2.8-4,2.58-5.12,2.39-23.55,7.58-5.12,1.94-5.76,2.89-5,3.23-2.7,1.63-3.87,2.88-3.51,3.06-9,9.17-8,10.32-7.85,10.8L841,1364l-11.85,6.77-13.6,6.14-7.39,4.18-3.81,2.54-4.36,2.92-4,3.54-2.73,2.91-2.09,3.38-.63,2.08-1.4,8.83-4.51,28.52-.5,3.11-6.57,33.49-5.44,27-.33.49L766,1530l-1.89,9.17-.91,1.69-2,1.23-5.82,2-6,2.18-9,4.68L728.54,1558l-10.1,6.6-5.92,3.68-6.57,3.89"/></g></g></g></svg>