<svg id="routes" xmlns="http://www.w3.org/2000/svg" xmlns:xlink="http://www.w3.org/1999/xlink" viewBox="0 0 1024 1024"><defs><style>.cls-1,.cls-3,.cls-4{fill:none;}.cls-2{clip-path:url(#clip-path);}.cls-3{stroke:#231815;stroke-width:8.79px;}.cls-3,.cls-4{stroke-linecap:round;stroke-miterlimit:10;}.cls-4{stroke:#00ada9;stroke-width:4.4px;}</style><clipPath id="clip-path"><rect class="cls-1" x="-1959" y="-8188" width="11720" height="11720"/></clipPath></defs><title>3235_7146</title><g class="cls-2"><g id="日ノ丸線"><g id="佐治4"><polyline class="cls-3" points="-277.96 887.38 -271.72 884.15 -266.24 881.1 -259.98 878.07 -254.88 876.1 -252.88 875.13 -248.25 873.99 -244.29 873.73 -242.59 873.85 -239.37 874.33 -233.78 875.96 -219.23 882.55 -216.01 883.52 -211.07 883.98 -208.82 883.52 -202.9 881.9 -194.91 878.53 -190.23 877.02 -185.94 876.67 -183.71 876.9 -179.21 877.7 -173.79 879.5 -169.06 880.64 -163.59 881.47 -159.24 881.41 -156.67 880.93 -153.95 879.7 -151.71 878.18 -147.77 875.05 -145 872.34 -144.42 871.39 -143.14 869.54 -139.72 862.29 -136.83 856.32 -134.43 853.1 -129.96 849.25 -125.63 846.36 -114.43 841.05 -105.95 837.68 -99.24 835.75 -96.98 835.26 -96.03 835.09 -85.97 835.09 -80.68 835.57 -73.48 836.71 -66.12 837.83 -56.86 838.17 -53.34 837.51 -43.91 835.26 -34.59 832.2 -26.6 830.44 -25.04 830.18 -20.71 829.46 -11.12 828.49 -4.38 828.01 -0.4 828.01 1.51 828.06 24.05 827.61 29.03 827.15 35.56 826.04 39.05 825.04 45.57 822.58 53.61 818.84 59.64 815.56 64.53 811.93 66.34 809.85 68.25 806.77 80.9 782.16 84.28 775.57 86.98 770.92 88.73 769.12 90.24 768.44 92.34 768.29 96.88 770.06 107.92 777.31 111.06 778.99 124.41 784.71 131.93 784.01 138.82 781.38 145.63 777.82 149.04 774.57 152.29 766.04 155.85 758.92 160.5 755.28 166.31 753.11 175.6 752.1 181.07 750.6 186.23 747.85 196.13 739.92 199.97 737.4 210.62 733.15 218.46 729.76 231.58 721.08 233.54 719.97 237.43 719.27 240.66 719.39 244.97 719.97 261.13 722.53 277.4 723.82 289.35 721.92 295.18 719.85 296.58 719.28 298.56 718.22 300.77 716.94 303.33 715.05 306.64 712.57 312.88 707.09 316.05 703.61 317.89 701.13 323.78 691.56 331.96 675.98 334.17 672.52 336.56 669.55 343.72 665.16 358.72 664.83 369.38 663.5 388.22 656 401.55 647.5 408.1 644.11 411.61 642.29 414.5 641.56 426.6 641.27 435.73 644.43 444 650.17 449.33 654.14 452.59 656.79 457.48 664.78 459.58 667.44 461.49 669.27 464.35 670.89 466.26 671.52 468.83 671.87 473.18 671.87 484.72 670.74 509.16 668.35 526.93 667.32 535.31 668.41 549.7 671.64 556.06 672 563.72 671.04 571.34 668.35 580.75 664.04 598.61 655.98 605.61 654.52 636.71 657.77 642.73 657.94 648.91 655.65 654.29 652.07 660.47 646.86 661.62 640.19 651.03 601.28 652.49 596.88 655.75 593.63 661.94 592.33 680.66 592.65 700.44 589.48 738.72 583.63 763.58 568.84 771.36 566.85 778.99 568.84 788.14 573.1 794.04 574.94 799.24 575.34 806.29 574.48 812.7 575.4 815.32 578.48 817.32 580.71 825.05 595.99 858.15 619.02 864.1 624.51 869.14 631.99 873.56 642.97 878.13 666.92 880.88 681.25 883.77 685.98 890.03 692.08 898.95 696.45 905.13 697.73 910.32 697.88 917.18 695.29 922.52 691.94 928.77 682.32 937.14 671.96 949.62 660.03 964.36 645.93 968.35 643.13 974.08 642.69 978.5 643.34 982.5 645.93 985.96 649.5 1007.38 686.17 1022.41 710.27 1023.53 712.07 1032.47 719.83 1041.22 724.11 1046.91 725.39 1091.02 720.91 1095.85 719.37 1099.5 715.81 1102.05 710.52 1104.15 700.22 1107.35 692.74 1111.18 689.18 1116.28 684.89 1121.12 682.52 1126.5 681.89 1149.3 684.25 1163.16 686.26 1168.09 688.54 1176 695.73 1182.04 700.94 1184.41 710.16 1182.88 751.23 1185.04 755.1 1187.64 759.78 1192.44 764.92 1196.28 768.46 1198.12 769.55 1200.8 770.61 1210.84 773.6 1215.59 775.51 1218.04 777.25 1219.08 778.31 1221.25 782.14 1228.61 805 1229.89 807.83 1231.47 810.31 1233.61 812.13 1235.94 813.68 1238.36 814.34 1240.43 814.65 1245.59 814.73 1250.12 813.42 1253.27 812.39 1257.39 810.31 1261.56 807.4 1278.03 794.21 1283.31 790.52 1294.02 781.19 1299.29 776.37 1312.4 765.24 1323.78 759.12 1329.51 758.39 1344.6 756.52 1347.57 760.93 1349.55 763.01 1354.95 766.24 1359.93 768.49 1364.26 769.29 1372.07 769.27 1384.11 767.35 1394.65 764.61 1404.09 761.24 1419.93 754.31 1451.53 738.69 1456.88 736.01 1462.63 733.07 1465.04 731.64 1473.91 726.39 1476.8 724.36 1480.43 721.56 1495.73 710.72 1501.18 706.21 1505.51 702.95 1514.13 697.84 1523.09 693.5 1536.23 687.85 1538.63 686.91 1541.62 685.65 1545.82 684.17 1555.12 680.8 1564.39 678.23 1569.74 677.57 1576.22 676.78 1584.06 675.66 1588.47 675.43 1593.98 675.32 1600.23 675.98 1608.87 677.43 1618.79 679.49 1625.49 681.09 1634.3 683.34 1645.71 684.88 1656.05 686.08 1663.85 686.73 1671.42 687.2 1685.49 687.2 1690.77 686.71 1702.3 686.4 1717.16 686.08 1727.22 685.42 1733.18 685.59 1737.12 686.31 1741.78 687.71 1748.98 690.9 1753.89 692.02 1757.13 692.85 1761.22 692.96 1763.55 692.85 1783.86 686.71 1786.91 686.08 1790.99 685.94 1811.71 686.08 1820.84 684.94 1824.99 684.14 1829.02 682.74 1839.41 679.14 1846.27 676.58 1848.05 675.95 1854.59 674.49 1859.25 673.84 1865.79 673.52 1870.52 673.55 1870.52 673.54 1874.24 673.54 1887.54 674.32 1896.83 674.97 1902.12 674.95 1907.48 674.37 1927.83 669.92 1931.56 668.75 1935.17 667.12 1942.71 663.61 1947.91 661.38 1951.78 659.91 1955.85 658.07 1965.14 653.57 1975.23 649.05 1980.05 646.68 1983.21 644.88 1986.59 642.94 2004.83 633.29 2015.84 628.33 2035.83 620.76 2043.51 618.34 2050.7 615.71 2069.88 608.91 2077.52 604.48 2088.18 602.16 2100.29 599.84 2113.29 596.5 2128.47 592.67 2137.62 590.15 2148.32 587.9 2157.32 585.53 2163.49 583.22 2171.04 580.54 2172.97 580.06 2183.76 577.11 2196.8 575.4 2201.55 575.4 2206.09 575.4 2206.95 575.63 2208.95 576.2 2214.87 577.97 2217.59 578.6 2221.28 579.4 2230.24 581.34 2232.47 581.45 2237.43 582.36 2248.8 583.05 2252.9 583.42 2264.44 593.94 2269.07 595.54 2274.02 594.74 2294.14 585.64 2323.84 570.47 2328.14 570.15 2338.85 571.43 2346.83 571.27 2361.84 566.48 2411.18 546.84 2435.29 532.63 2439.35 531.95 2451.57 537.5 2480.37 546.61 2483.17 547.5 2487.89 546.84 2492.21 545.58 2503.37 543.31 2514.18 540.35 2524.2 536.25 2530.69 533.18 2538.78 527.03 2554.87 514.08 2562.23 508.36 2569.51 504.71 2584.89 497.88 2590.24 497.43 2597.29 498.22 2629.25 517.13 2636.3 518.87 2645.63 519.13 2663.07 513.67 2693.3 498.76 2707.14 490.1 2722.73 475.32 2741.37 466.66 2761.88 454.94 2770.74 449.34 2776.79 443.23 2784.87 437.91 2787.31 436.3 2797.96 428.71 2804.89 424.18 2819.53 420.99 2825.19 419.02 2853.14 404.76 2860.23 400.61 2871.11 391.64 2907.16 353.46 2913.39 347.95 2931.23 335.2 2968.55 314.26 3021.81 287 3033.11 284.01 3057.25 284.83 3085.78 285.79 3092.44 286.82 3151.03 306.8 3171.6 306.21 3178.25 307.24 3196.14 317.2 3216.37 326.2 3230.04 328.4 3250.9 326.48 3295.27 320.55 3309.04 319.52 3324.73 320.41 3341.15 323.08 3358.45 328.03 3363 332.22 3385.29 350.92 3407.55 381.82 3409.27 384.41 3414.73 390.23 3427.14 401.2 3436.97 409.32 3456.64 420.87 3460.6 423.39 3475.88 431.27 3492.28 440.1 3503.67 441.96 3518.49 442.11 3528.84 441.47 3542.57 437.4 3545.21 436.69 3553.73 434.99 3562.44 432.54 3576.05 428.6 3579.22 427.58 3597.91 422.11 3614.43 417.04 3623.18 414.31 3633.68 411.25 3638.8 409.69 3639.68 409.46 3654.3 405.85 3660.26 404.37 3675.84 400.67 3694.91 395.99 3706.59 393.22 3717.57 390.45 3749.08 383.52 3755.66 381.16 3761.2 377.89 3766.49 374.22 3774.58 367.59 3778.74 363.39 3792.88 348.75 3795.42 346.67 3799.81 344.31 3804.88 342.13 3806.5 341.44 3831.75 333.62 3851.59 327.22 3857.91 325.55 3859.17 324.88 3866.85 324.01 3873.25 324.42 3878.59 325.35 3881.98 325.95 3884.92 326.95 3886.13 327.58 3891.39 330.35 3896.7 333.88 3898.52 335.09 3902.18 337.52 3903.12 338.15 3926.8 355.03 3929.93 357.32 3949.67 369.95 3974.39 331.33 3998 304.93"/><polyline class="cls-4" points="-277.96 887.38 -271.72 884.15 -266.24 881.1 -259.98 878.07 -254.88 876.1 -252.88 875.13 -248.25 873.99 -244.29 873.73 -242.59 873.85 -239.37 874.33 -233.78 875.96 -219.23 882.55 -216.01 883.52 -211.07 883.98 -208.82 883.52 -202.9 881.9 -194.91 878.53 -190.23 877.02 -185.94 876.67 -183.71 876.9 -179.21 877.7 -173.79 879.5 -169.06 880.64 -163.59 881.47 -159.24 881.41 -156.67 880.93 -153.95 879.7 -151.71 878.18 -147.77 875.05 -145 872.34 -144.42 871.39 -143.14 869.54 -139.72 862.29 -136.83 856.32 -134.43 853.1 -129.96 849.25 -125.63 846.36 -114.43 841.05 -105.95 837.68 -99.24 835.75 -96.98 835.26 -96.03 835.09 -85.97 835.09 -80.68 835.57 -73.48 836.71 -66.12 837.83 -56.86 838.17 -53.34 837.51 -43.91 835.26 -34.59 832.2 -26.6 830.44 -25.04 830.18 -20.71 829.46 -11.12 828.49 -4.38 828.01 -0.4 828.01 1.51 828.06 24.05 827.61 29.03 827.15 35.56 826.04 39.05 825.04 45.57 822.58 53.61 818.84 59.64 815.56 64.53 811.93 66.34 809.85 68.25 806.77 80.9 782.16 84.28 775.57 86.98 770.92 88.73 769.12 90.24 768.44 92.34 768.29 96.88 770.06 107.92 777.31 111.06 778.99 124.41 784.71 131.93 784.01 138.82 781.38 145.63 777.82 149.04 774.57 152.29 766.04 155.85 758.92 160.5 755.28 166.31 753.11 175.6 752.1 181.07 750.6 186.23 747.85 196.13 739.92 199.97 737.4 210.62 733.15 218.46 729.76 231.58 721.08 233.54 719.97 237.43 719.27 240.66 719.39 244.97 719.97 261.13 722.53 277.4 723.82 289.35 721.92 295.18 719.85 296.58 719.28 298.56 718.22 300.77 716.94 303.33 715.05 306.64 712.57 312.88 707.09 316.05 703.61 317.89 701.13 323.78 691.56 331.96 675.98 334.17 672.52 336.56 669.55 343.72 665.16 358.72 664.83 369.38 663.5 388.22 656 401.55 647.5 408.1 644.11 411.61 642.29 414.5 641.56 426.6 641.27 435.73 644.43 444 650.17 449.33 654.14 452.59 656.79 457.48 664.78 459.58 667.44 461.49 669.27 464.35 670.89 466.26 671.52 468.83 671.87 473.18 671.87 484.72 670.74 509.16 668.35 526.93 667.32 535.31 668.41 549.7 671.64 556.06 672 563.72 671.04 571.34 668.35 580.75 664.04 598.61 655.98 605.61 654.52 636.71 657.77 642.73 657.94 648.91 655.65 654.29 652.07 660.47 646.86 661.62 640.19 651.03 601.28 652.49 596.88 655.75 593.63 661.94 592.33 680.66 592.65 700.44 589.48 738.72 583.63 763.58 568.84 771.36 566.85 778.99 568.84 788.14 573.1 794.04 574.94 799.24 575.34 806.29 574.48 812.7 575.4 815.32 578.48 817.32 580.71 825.05 595.99 858.15 619.02 864.1 624.51 869.14 631.99 873.56 642.97 878.13 666.92 880.88 681.25 883.77 685.98 890.03 692.08 898.95 696.45 905.13 697.73 910.32 697.88 917.18 695.29 922.52 691.94 928.77 682.32 937.14 671.96 949.62 660.03 964.36 645.93 968.35 643.13 974.08 642.69 978.5 643.34 982.5 645.93 985.96 649.5 1007.38 686.17 1022.41 710.27 1023.53 712.07 1032.47 719.83 1041.22 724.11 1046.91 725.39 1091.02 720.91 1095.85 719.37 1099.5 715.81 1102.05 710.52 1104.15 700.22 1107.35 692.74 1111.18 689.18 1116.28 684.89 1121.12 682.52 1126.5 681.89 1149.3 684.25 1163.16 686.26 1168.09 688.54 1176 695.73 1182.04 700.94 1184.41 710.16 1182.88 751.23 1185.04 755.1 1187.64 759.78 1192.44 764.92 1196.28 768.46 1198.12 769.55 1200.8 770.61 1210.84 773.6 1215.59 775.51 1218.04 777.25 1219.08 778.31 1221.25 782.14 1228.61 805 1229.89 807.83 1231.47 810.31 1233.61 812.13 1235.94 813.68 1238.36 814.34 1240.43 814.65 1245.59 814.73 1250.12 813.42 1253.27 812.39 1257.39 810.31 1261.56 807.4 1278.03 794.21 1283.31 790.52 1294.02 781.19 1299.29 776.37 1312.4 765.24 1323.78 759.12 1329.51 758.39 1344.6 756.52 1347.57 760.93 1349.55 763.01 1354.95 766.24 1359.93 768.49 1364.26 769.29 1372.07 769.27 1384.11 767.35 1394.65 764.61 1404.09 761.24 1419.93 754.31 1451.53 738.69 1456.88 736.01 1462.63 733.07 1465.04 731.64 1473.91 726.39 1476.8 724.36 1480.43 721.56 1495.73 710.72 1501.18 706.21 1505.51 702.95 1514.13 697.84 1523.09 693.5 1536.23 687.85 1538.63 686.91 1541.62 685.65 1545.82 684.17 1555.12 680.8 1564.39 678.23 1569.74 677.57 1576.22 676.78 1584.06 675.66 1588.47 675.43 1593.98 675.32 1600.23 675.98 1608.87 677.43 1618.79 679.49 1625.49 681.09 1634.3 683.34 1645.71 684.88 1656.05 686.08 1663.85 686.73 1671.42 687.2 1685.49 687.2 1690.77 686.71 1702.3 686.4 1717.16 686.08 1727.22 685.42 1733.18 685.59 1737.12 686.31 1741.78 687.71 1748.98 690.9 1753.89 692.02 1757.13 692.85 1761.22 692.96 1763.55 692.85 1783.86 686.71 1786.91 686.08 1790.99 685.94 1811.71 686.08 1820.84 684.94 1824.99 684.14 1829.02 682.74 1839.41 679.14 1846.27 676.58 1848.05 675.95 1854.59 674.49 1859.25 673.84 1865.79 673.52 1870.52 673.55 1870.52 673.54 1874.24 673.54 1887.54 674.32 1896.83 674.97 1902.12 674.95 1907.48 674.37 1927.83 669.92 1931.56 668.75 1935.17 667.12 1942.71 663.61 1947.91 661.38 1951.78 659.91 1955.85 658.07 1965.14 653.57 1975.23 649.05 1980.05 646.68 1983.21 644.88 1986.59 642.94 2004.83 633.29 2015.84 628.33 2035.83 620.76 2043.51 618.34 2050.7 615.71 2069.88 608.91 2077.52 604.48 2088.18 602.16 2100.29 599.84 2113.29 596.5 2128.47 592.67 2137.62 590.15 2148.32 587.9 2157.32 585.53 2163.49 583.22 2171.04 580.54 2172.97 580.06 2183.76 577.11 2196.8 575.4 2201.55 575.4 2206.09 575.4 2206.95 575.63 2208.95 576.2 2214.87 577.97 2217.59 578.6 2221.28 579.4 2230.24 581.34 2232.47 581.45 2237.43 582.36 2248.8 583.05 2252.9 583.42 2264.44 593.94 2269.07 595.54 2274.02 594.74 2294.14 585.64 2323.84 570.47 2328.14 570.15 2338.85 571.43 2346.83 571.27 2361.84 566.48 2411.18 546.84 2435.29 532.63 2439.35 531.95 2451.57 537.5 2480.37 546.61 2483.17 547.5 2487.89 546.84 2492.21 545.58 2503.37 543.31 2514.18 540.35 2524.2 536.25 2530.69 533.18 2538.78 527.03 2554.87 514.08 2562.23 508.36 2569.51 504.71 2584.89 497.88 2590.24 497.43 2597.29 498.22 2629.25 517.13 2636.3 518.87 2645.63 519.13 2663.07 513.67 2693.3 498.76 2707.14 490.1 2722.73 475.32 2741.37 466.66 2761.88 454.94 2770.74 449.34 2776.79 443.23 2784.87 437.91 2787.31 436.3 2797.96 428.71 2804.89 424.18 2819.53 420.99 2825.19 419.02 2853.14 404.76 2860.23 400.61 2871.11 391.64 2907.16 353.46 2913.39 347.95 2931.23 335.2 2968.55 314.26 3021.81 287 3033.11 284.01 3057.25 284.83 3085.78 285.79 3092.44 286.82 3151.03 306.8 3171.6 306.21 3178.25 307.24 3196.14 317.2 3216.37 326.2 3230.04 328.4 3250.9 326.48 3295.27 320.55 3309.04 319.52 3324.73 320.41 3341.15 323.08 3358.45 328.03 3363 332.22 3385.29 350.92 3407.55 381.82 3409.27 384.41 3414.73 390.23 3427.14 401.2 3436.97 409.32 3456.64 420.87 3460.6 423.39 3475.88 431.27 3492.28 440.1 3503.67 441.96 3518.49 442.11 3528.84 441.47 3542.57 437.4 3545.21 436.69 3553.73 434.99 3562.44 432.54 3576.05 428.6 3579.22 427.58 3597.91 422.11 3614.43 417.04 3623.18 414.31 3633.68 411.25 3638.8 409.69 3639.68 409.46 3654.3 405.85 3660.26 404.37 3675.84 400.67 3694.91 395.99 3706.59 393.22 3717.57 390.45 3749.08 383.52 3755.66 381.16 3761.2 377.89 3766.49 374.22 3774.58 367.59 3778.74 363.39 3792.88 348.75 3795.42 346.67 3799.81 344.31 3804.88 342.13 3806.5 341.44 3831.75 333.62 3851.59 327.22 3857.91 325.55 3859.17 324.88 3866.85 324.01 3873.25 324.42 3878.59 325.35 3881.98 325.95 3884.92 326.95 3886.13 327.58 3891.39 330.35 3896.7 333.88 3898.52 335.09 3902.18 337.52 3903.12 338.15 3926.8 355.03 3929.93 357.32 3949.67 369.95 3974.39 331.33 3998 304.93"/></g></g></g></svg>