<svg id="_15zoom" data-name="15zoom" xmlns="http://www.w3.org/2000/svg" xmlns:xlink="http://www.w3.org/1999/xlink" viewBox="0 0 1024 1024"><defs><style>.cls-1,.cls-11,.cls-37,.cls-4,.cls-58{fill:#231815;}.cls-1,.cls-10,.cls-14,.cls-2,.cls-3,.cls-44,.cls-50,.cls-54,.cls-55,.cls-56,.cls-60,.cls-61,.cls-64,.cls-67,.cls-68,.cls-8{stroke:#231815;}.cls-1,.cls-10,.cls-14,.cls-2,.cls-3,.cls-44,.cls-50,.cls-54,.cls-55,.cls-56,.cls-60,.cls-61,.cls-62,.cls-63,.cls-64,.cls-67,.cls-68,.cls-8,.cls-9{stroke-miterlimit:10;}.cls-1,.cls-14,.cls-3{stroke-width:2.4px;}.cls-13,.cls-2,.cls-3,.cls-44,.cls-50,.cls-54,.cls-55,.cls-56,.cls-60,.cls-65{fill:#fff;}.cls-2,.cls-67{stroke-width:2px;}.cls-4{font-size:18px;}.cls-13,.cls-37,.cls-4,.cls-58{font-family:NotoSansMonoCJKjp-Regular-90ms-RKSJ-H, Noto Sans Mono CJK JP;}.cls-16,.cls-17,.cls-18,.cls-19,.cls-20,.cls-21,.cls-22,.cls-23,.cls-24,.cls-25,.cls-26,.cls-27,.cls-28,.cls-29,.cls-30,.cls-31,.cls-32,.cls-33,.cls-34,.cls-35,.cls-5,.cls-58,.cls-7{font-size:12px;}.cls-6,.cls-7{letter-spacing:0.25em;}.cls-10,.cls-14,.cls-61,.cls-62,.cls-63,.cls-64,.cls-67,.cls-68,.cls-70,.cls-8,.cls-9{fill:none;}.cls-61,.cls-62,.cls-63,.cls-8,.cls-9{stroke-linecap:round;}.cls-8{stroke-width:5.27px;}.cls-62,.cls-9{stroke:#f6ad3c;}.cls-9{stroke-width:2.64px;}.cls-10{stroke-width:3px;}.cls-12{clip-path:url(#clip-path);}.cls-13{font-size:28.8px;}.cls-15{letter-spacing:0.39em;}.cls-16{letter-spacing:-0.08em;}.cls-17{letter-spacing:-0.07em;}.cls-18{letter-spacing:-0.05em;}.cls-19{letter-spacing:-0.06em;}.cls-20{letter-spacing:-0.03em;}.cls-21{letter-spacing:-0.05em;}.cls-22{letter-spacing:-0.05em;}.cls-23{letter-spacing:-0.05em;}.cls-24{letter-spacing:-0.09em;}.cls-25{letter-spacing:-0.06em;}.cls-26{letter-spacing:-0.03em;}.cls-27{letter-spacing:-0.03em;}.cls-28{letter-spacing:-0.05em;}.cls-29{letter-spacing:-0.05em;}.cls-30{letter-spacing:-0.06em;}.cls-31{letter-spacing:-0.06em;}.cls-32{letter-spacing:-0.1em;}.cls-33{letter-spacing:-0.05em;}.cls-34{letter-spacing:-0.07em;}.cls-35{letter-spacing:-0.07em;}.cls-36{clip-path:url(#clip-path-2);}.cls-37{font-size:15px;}.cls-38{letter-spacing:-0.18em;}.cls-39{letter-spacing:-0.19em;}.cls-40{letter-spacing:-0.1em;}.cls-41{letter-spacing:-0.07em;}.cls-42{letter-spacing:-0.05em;}.cls-43{letter-spacing:0.06em;}.cls-44{stroke-width:4px;}.cls-45{letter-spacing:-0.09em;}.cls-46{letter-spacing:-0.05em;}.cls-47{letter-spacing:0.04em;}.cls-48{letter-spacing:0.02em;}.cls-49{letter-spacing:0.35em;}.cls-50{stroke-width:4px;}.cls-51{letter-spacing:0.07em;}.cls-52{letter-spacing:0.5em;}.cls-53{font-size:9px;}.cls-54{stroke-width:4px;}.cls-55{stroke-width:4px;}.cls-56{stroke-width:2.09px;}.cls-57{clip-path:url(#clip-path-3);}.cls-59{clip-path:url(#clip-path-4);}.cls-60{stroke-width:2.4px;}.cls-61{stroke-width:5.27px;}.cls-62,.cls-63{stroke-width:2.64px;}.cls-63{stroke:#ed6d46;}.cls-64{stroke-width:3px;}.cls-66{clip-path:url(#clip-path-5);}.cls-68{stroke-width:3px;}.cls-69{clip-path:url(#clip-path-6);}</style><clipPath id="clip-path"><path id="_クリッピングパス_" data-name="&lt;クリッピングパス&gt;" class="cls-1" d="M924.65,209.46a15,15,0,0,0-15,15h0a15,15,0,0,0,15,15h21v-30Z"/></clipPath><clipPath id="clip-path-2"><path id="_クリッピングパス_2" data-name="&lt;クリッピングパス&gt;" class="cls-1" d="M625.09,306.71a15,15,0,0,0-15,15h0a15,15,0,0,0,15,15h21v-30Z"/></clipPath><clipPath id="clip-path-3"><path id="_クリッピングパス_3" data-name="&lt;クリッピングパス&gt;" class="cls-1" d="M33.62,582.07a15,15,0,0,0-15,15h0a15,15,0,0,0,15,15h21v-30Z"/></clipPath><clipPath id="clip-path-4"><path id="_クリッピングパス_4" data-name="&lt;クリッピングパス&gt;" class="cls-1" d="M33.62,618.07a15,15,0,0,0-15,15h0a15,15,0,0,0,15,15h21v-30Z"/></clipPath><clipPath id="clip-path-5"><rect id="_長方形_" data-name="&lt;長方形&gt;" class="cls-2" x="27.66" y="687.87" width="180" height="50"/></clipPath><clipPath id="clip-path-6"><rect id="_長方形_2" data-name="&lt;長方形&gt;" class="cls-2" x="264.65" y="239.31" width="180" height="50"/></clipPath></defs><title>3230_7149</title><rect id="_長方形_3" data-name="&lt;長方形&gt;" class="cls-3" x="390.2" y="997.23" width="240" height="60"/><text class="cls-4" transform="translate(483.13 1020.7)">松上線<tspan class="cls-5"><tspan x="-48" y="16.32">(local bus)Matsugami line</tspan></tspan></text><rect id="_長方形_4" data-name="&lt;長方形&gt;" class="cls-3" x="137.02" y="943.67" width="240" height="60"/><text class="cls-4" transform="translate(176.69 967.14)">湖山鳥大<tspan class="cls-6" x="72" y="0">線</tspan><tspan class="cls-7" x="94.5" y="-2.28">(</tspan><tspan class="cls-5" x="103.5" y="-2.28">国体道</tspan><tspan class="cls-7" x="139.5" y="-2.28">路</tspan><tspan class="cls-5" x="154.5" y="-2.28">)</tspan><tspan class="cls-5"><tspan x="-9.75" y="16.32">(local bus)Koyama Toridai line</tspan></tspan></text><line class="cls-8" x1="197.02" y1="991.67" x2="317.02" y2="991.67"/><line class="cls-9" x1="197.02" y1="991.67" x2="317.02" y2="991.67"/><rect id="_長方形_5" data-name="&lt;長方形&gt;" class="cls-3" x="395.4" y="644.93" width="240" height="60"/><text class="cls-4" transform="translate(447.08 668.4)">湖山鳥大<tspan class="cls-6" x="72" y="0">線</tspan><tspan class="cls-7" x="94.5" y="-2.28">(</tspan><tspan class="cls-5" x="103.5" y="-2.28">布</tspan><tspan class="cls-7" x="115.5" y="-2.28">勢</tspan><tspan class="cls-5" x="130.5" y="-2.28">)</tspan><tspan class="cls-5"><tspan x="-21.75" y="16.32">(local bus)Koyama Toridai line</tspan></tspan></text><line class="cls-8" x1="455.4" y1="692.93" x2="575.4" y2="692.93"/><line class="cls-9" x1="455.4" y1="692.93" x2="575.4" y2="692.93"/><rect id="_長方形_6" data-name="&lt;長方形&gt;" class="cls-3" x="984.57" y="625.33" width="240" height="60"/><text class="cls-4" transform="translate(1050.49 648.8)">イオン北店線<tspan class="cls-5"><tspan x="-45" y="16.32">(local bus)AEON Tottori Kita line</tspan></tspan></text><line class="cls-10" x1="515.4" y1="704.93" x2="386.8" y2="754.4"/><path class="cls-11" d="M369.9,760.9c6.82-6,14.75-14.84,18.81-22.53l.31,15.17L399,765C390.79,762,379,760.78,369.9,760.9Z"/><line class="cls-10" x1="257.02" y1="943.67" x2="258.58" y2="905.91"/><path class="cls-11" d="M259.33,887.82c2.8,8.64,7.76,19.42,13.19,26.2l-14-5.74L244,912.85C250,906.54,255.82,896.2,259.33,887.82Z"/><path id="_クリッピングパス_5" data-name="&lt;クリッピングパス&gt;" class="cls-11" d="M924.65,209.46a15,15,0,0,0-15,15h0a15,15,0,0,0,15,15h21v-30Z"/><g class="cls-12"><text class="cls-13" transform="translate(923.37 234.04)">9</text></g><path id="_クリッピングパス_6" data-name="&lt;クリッピングパス&gt;" class="cls-14" d="M924.65,209.46a15,15,0,0,0-15,15h0a15,15,0,0,0,15,15h21v-30Z"/><path class="cls-3" d="M1134.65,209.46h-189v30h189a15,15,0,0,0,15-15h0A15,15,0,0,0,1134.65,209.46Z"/><text class="cls-4" transform="translate(951.57 231.3)">中央病<tspan class="cls-15" x="54" y="0">院</tspan><tspan class="cls-16" x="78.15" y="-2.28">(</tspan><tspan class="cls-17" x="83.2" y="-2.28">P</tspan><tspan class="cls-18" x="88.32" y="-2.28">r</tspan><tspan class="cls-19" x="93.78" y="-2.28">e</tspan><tspan class="cls-20" x="99.04" y="-2.28">f</tspan><tspan class="cls-21" x="104.64" y="-2.28">e</tspan><tspan class="cls-22" x="110.01" y="-2.28">c</tspan><tspan class="cls-23" x="115.46" y="-2.28">t</tspan><tspan class="cls-24" x="120.88" y="-2.28">u</tspan><tspan class="cls-23" x="125.79" y="-2.28">r</tspan><tspan class="cls-25" x="131.21" y="-2.28">a</tspan><tspan class="cls-26" x="136.47" y="-2.28">l</tspan><tspan class="cls-27" x="142.16" y="-2.28"> </tspan><tspan class="cls-28" x="147.81" y="-2.28">H</tspan><tspan class="cls-29" x="153.19" y="-2.28">o</tspan><tspan class="cls-30" x="158.63" y="-2.28">s</tspan><tspan class="cls-31" x="163.88" y="-2.28">p</tspan><tspan class="cls-32" x="169.19" y="-2.28">i</tspan><tspan class="cls-33" x="174.02" y="-2.28">t</tspan><tspan class="cls-25" x="179.41" y="-2.28">a</tspan><tspan class="cls-34" x="184.67" y="-2.28">l</tspan><tspan class="cls-35" x="189.85" y="-2.28">)</tspan></text><path id="_クリッピングパス_7" data-name="&lt;クリッピングパス&gt;" class="cls-11" d="M625.09,306.71a15,15,0,0,0-15,15h0a15,15,0,0,0,15,15h21v-30Z"/><g class="cls-36"><text class="cls-13" transform="translate(616.62 331.29)">12</text></g><path id="_クリッピングパス_8" data-name="&lt;クリッピングパス&gt;" class="cls-14" d="M625.09,306.71a15,15,0,0,0-15,15h0a15,15,0,0,0,15,15h21v-30Z"/><path class="cls-3" d="M835.09,306.71h-189v30h189a15,15,0,0,0,15-15h0A15,15,0,0,0,835.09,306.71Z"/><text class="cls-37" transform="translate(651 325.91)"><tspan class="cls-38">イ</tspan><tspan class="cls-39" x="12.29" y="0">オ</tspan><tspan class="cls-40" x="24.37" y="0">ン</tspan><tspan class="cls-41" x="37.9" y="0">鳥</tspan><tspan class="cls-42" x="51.86" y="0">取</tspan><tspan class="cls-43" x="66.11" y="0">北</tspan><tspan class="cls-5" x="82.02" y="-1.14">(AEON Tottori kita)</tspan></text><line class="cls-3" x1="826.67" y1="229" x2="742.09" y2="306.71"/><circle class="cls-44" cx="826.67" cy="229" r="10"/><path id="_クリッピングパス_9" data-name="&lt;クリッピングパス&gt;" class="cls-11" d="M794.93,831.13a15,15,0,0,0-15,15h0a15,15,0,0,0,15,15h21v-30Z"/><path id="_クリッピングパス_10" data-name="&lt;クリッピングパス&gt;" class="cls-14" d="M794.93,831.13a15,15,0,0,0-15,15h0a15,15,0,0,0,15,15h21v-30Z"/><path class="cls-3" d="M1004.93,831.13h-189v30h189a15,15,0,0,0,15-15h0A15,15,0,0,0,1004.93,831.13Z"/><text class="cls-37" transform="translate(820.51 850.33)"><tspan class="cls-45">日</tspan><tspan class="cls-46" x="13.61" y="0">ノ</tspan><tspan class="cls-47" x="27.82" y="0">丸本</tspan><tspan class="cls-48" x="58.87" y="0">社</tspan><tspan class="cls-49" x="74.14" y="0">前</tspan><tspan class="cls-5" x="94.35" y="-1.14">(Hinomaru Office)</tspan></text><line class="cls-3" x1="952.67" y1="1009.67" x2="911.93" y2="861.13"/><circle class="cls-50" cx="952.67" cy="1009.67" r="10"/><path id="_クリッピングパス_11" data-name="&lt;クリッピングパス&gt;" class="cls-11" d="M-10.25,474.1a15,15,0,0,0-15,15h0a15,15,0,0,0,15,15h21v-30Z"/><path id="_クリッピングパス_12" data-name="&lt;クリッピングパス&gt;" class="cls-14" d="M-10.25,474.1a15,15,0,0,0-15,15h0a15,15,0,0,0,15,15h21v-30Z"/><path class="cls-3" d="M199.75,474.1h-189v30h189a15,15,0,0,0,15-15h0A15,15,0,0,0,199.75,474.1Z"/><text class="cls-37" transform="translate(16.68 493.3)"><tspan class="cls-51">鳥大附属</tspan><tspan class="cls-52" x="64.5" y="0">校</tspan><tspan class="cls-53" x="87" y="-2.28">(Tottori Univ. Terminal)</tspan></text><line class="cls-3" x1="255.33" y1="546.33" x2="106.75" y2="504.1"/><line class="cls-3" x1="223.33" y1="556.33" x2="106.75" y2="504.1"/><circle class="cls-54" cx="255.33" cy="546.33" r="10"/><circle class="cls-55" cx="223.33" cy="556.33" r="10"/><rect class="cls-56" x="12.62" y="573.07" width="120" height="84"/><path id="_クリッピングパス_13" data-name="&lt;クリッピングパス&gt;" class="cls-11" d="M33.62,582.07a15,15,0,0,0-15,15h0a15,15,0,0,0,15,15h21v-30Z"/><g class="cls-57"><text class="cls-13" transform="translate(25.15 606.65)">10</text></g><path id="_クリッピングパス_14" data-name="&lt;クリッピングパス&gt;" class="cls-14" d="M33.62,582.07a15,15,0,0,0-15,15h0a15,15,0,0,0,15,15h21v-30Z"/><text class="cls-58" transform="translate(60.55 593.06)">相生町経由<tspan x="0" y="18">西品治経由</tspan></text><path id="_クリッピングパス_15" data-name="&lt;クリッピングパス&gt;" class="cls-11" d="M33.62,618.07a15,15,0,0,0-15,15h0a15,15,0,0,0,15,15h21v-30Z"/><g class="cls-59"><text class="cls-13" transform="translate(25.15 642.65)">13</text></g><path id="_クリッピングパス_16" data-name="&lt;クリッピングパス&gt;" class="cls-14" d="M33.62,618.07a15,15,0,0,0-15,15h0a15,15,0,0,0,15,15h21v-30Z"/><text class="cls-58" transform="translate(66.55 638.06)">布勢経由</text><rect id="_長方形_7" data-name="&lt;長方形&gt;" class="cls-60" x="533.69" y="386.89" width="240" height="60"/><text class="cls-4" transform="translate(555.43 410.37)">湖山鳥大<tspan class="cls-6" x="72" y="0">線</tspan><tspan class="cls-7" x="94.5" y="-2.28">(</tspan><tspan class="cls-5" x="103.5" y="-2.28">相生</tspan><tspan class="cls-7" x="127.5" y="-2.28">町,</tspan><tspan class="cls-5" x="151.5" y="-2.28">西品</tspan><tspan class="cls-7" x="175.5" y="-2.28">治</tspan><tspan class="cls-5" x="190.5" y="-2.28">)</tspan><tspan class="cls-5"><tspan x="8.25" y="16.32">(local bus)Koyama Toridai line</tspan></tspan></text><line class="cls-61" x1="593.69" y1="434.89" x2="713.69" y2="434.89"/><line class="cls-62" x1="593.69" y1="434.89" x2="713.69" y2="434.89"/><rect id="_長方形_8" data-name="&lt;長方形&gt;" class="cls-60" x="270.94" y="13.76" width="240" height="60"/><text class="cls-4" transform="translate(363.93 37.23)">賀露線<tspan class="cls-5"><tspan x="-51" y="16.32">(local bus)Karo line(loop)</tspan></tspan></text><line class="cls-61" x1="330.94" y1="61.76" x2="450.94" y2="61.76"/><line class="cls-63" x1="330.94" y1="61.76" x2="450.94" y2="61.76"/><line class="cls-64" x1="653.69" y1="446.89" x2="627.13" y2="483.53"/><path class="cls-11" d="M616.5,498.19c2.44-8.75,4.28-20.48,3.5-29.14l8.52,12.56,14.58,4.19C634.63,487.75,624.06,493.15,616.5,498.19Z"/><line class="cls-64" x1="390.94" y1="73.76" x2="496.81" y2="137.64"/><path class="cls-11" d="M512.31,147c-8.93-1.7-20.77-2.54-29.33-1l11.79-9.55,3-14.88C500.38,129.81,506.65,139.89,512.31,147Z"/><rect id="_長方形_9" data-name="&lt;長方形&gt;" class="cls-65" x="27.66" y="687.87" width="180" height="50"/><g class="cls-66"><text class="cls-37" transform="translate(95.16 706.61)">吉岡線<tspan x="-30" y="20">鳥大附属校経由</tspan></text></g><rect id="_長方形_10" data-name="&lt;長方形&gt;" class="cls-67" x="27.66" y="687.87" width="180" height="50"/><line class="cls-68" x1="117.66" y1="737.87" x2="204.88" y2="792.73"/><path class="cls-11" d="M220.21,802.37c-8.9-1.86-20.71-2.92-29.3-1.57l12-9.33,3.23-14.82C208.6,785,214.68,795.16,220.21,802.37Z"/><rect id="_長方形_11" data-name="&lt;長方形&gt;" class="cls-65" x="264.65" y="239.31" width="180" height="50"/><g class="cls-69"><text class="cls-37" transform="translate(302.15 258.05)">布勢湖山鳥大線<tspan x="0" y="20">白兎養護学校発</tspan></text></g><rect id="_長方形_12" data-name="&lt;長方形&gt;" class="cls-67" x="264.65" y="239.31" width="180" height="50"/><line class="cls-68" x1="354.65" y1="289.31" x2="269.83" y2="315.17"/><path class="cls-11" d="M252.51,320.45c7.23-5.51,15.77-13.75,20.37-21.13l-.78,15.16,9.1,12.14C273.26,323.06,261.58,321,252.51,320.45Z"/><rect class="cls-70" x="-5031" y="-3068" width="11720" height="11720"/></svg>