<svg id="_15zoom" data-name="15zoom" xmlns="http://www.w3.org/2000/svg" xmlns:xlink="http://www.w3.org/1999/xlink" viewBox="0 0 1024 1024"><defs><style>.cls-1,.cls-11,.cls-2,.cls-22,.cls-23{fill:#fff;}.cls-1,.cls-11,.cls-14,.cls-17,.cls-18,.cls-2,.cls-22,.cls-26,.cls-6,.cls-9{stroke:#231815;}.cls-1,.cls-11,.cls-14,.cls-15,.cls-16,.cls-17,.cls-18,.cls-2,.cls-22,.cls-26,.cls-29,.cls-30,.cls-31,.cls-32,.cls-33,.cls-34,.cls-35,.cls-36,.cls-37,.cls-38,.cls-6,.cls-7,.cls-8,.cls-9{stroke-miterlimit:10;}.cls-1,.cls-26{stroke-width:2px;}.cls-2{stroke-width:2.4px;}.cls-3{font-size:18px;}.cls-10,.cls-12,.cls-25,.cls-3{fill:#231815;}.cls-12,.cls-25,.cls-3{font-family:NotoSansMonoCJKjp-Regular-90ms-RKSJ-H, Noto Sans Mono CJK JP;}.cls-4{letter-spacing:0.25em;}.cls-5{font-size:12px;}.cls-14,.cls-15,.cls-16,.cls-17,.cls-18,.cls-26,.cls-29,.cls-30,.cls-31,.cls-32,.cls-33,.cls-34,.cls-35,.cls-36,.cls-37,.cls-38,.cls-39,.cls-6,.cls-7,.cls-8,.cls-9{fill:none;}.cls-14,.cls-15,.cls-16,.cls-6,.cls-7,.cls-8{stroke-linecap:round;}.cls-6{stroke-width:5.27px;}.cls-7{stroke:#a73766;}.cls-7,.cls-8{stroke-width:2.64px;}.cls-8{stroke:#006b4b;}.cls-9{stroke-width:3px;}.cls-11,.cls-18{stroke-width:2.4px;}.cls-12{font-size:18px;}.cls-13,.cls-21{font-size:12px;}.cls-14{stroke-width:5.27px;}.cls-15{stroke:#ebca1b;}.cls-15,.cls-16{stroke-width:2.64px;}.cls-16{stroke:#985d1b;}.cls-17{stroke-width:3px;}.cls-19{letter-spacing:1.33em;}.cls-20{letter-spacing:0.83em;}.cls-21{letter-spacing:0.5em;}.cls-22{stroke-width:4px;}.cls-24{clip-path:url(#clip-path);}.cls-25{font-size:15px;}.cls-27{clip-path:url(#clip-path-2);}.cls-28{opacity:0.5;}.cls-29,.cls-30,.cls-31,.cls-32,.cls-33,.cls-34,.cls-35,.cls-36,.cls-37,.cls-38{stroke:#e60012;stroke-width:20px;}.cls-30{stroke-dasharray:10.27 10.27;}.cls-31{stroke-dasharray:9.98 9.98;}.cls-32{stroke-dasharray:10.24 10.24;}.cls-33{stroke-dasharray:9.92 9.92;}.cls-34{stroke-dasharray:10.04 10.04;}.cls-35{stroke-dasharray:9.95 9.95;}.cls-36{stroke-dasharray:10.09 10.09;}.cls-37{stroke-dasharray:10 10;}.cls-38{stroke-dasharray:10.24 10.24;}</style><clipPath id="clip-path"><rect id="_長方形_" data-name="&lt;長方形&gt;" class="cls-1" x="312" y="125.47" width="180" height="50"/></clipPath><clipPath id="clip-path-2"><rect id="_長方形_2" data-name="&lt;長方形&gt;" class="cls-1" x="414" y="346" width="180" height="50"/></clipPath></defs><title>3234_7149</title><rect id="_長方形_3" data-name="&lt;長方形&gt;" class="cls-2" x="880.08" y="99.02" width="240" height="60"/><text class="cls-3" transform="translate(930.33 122.49)">南部幹<tspan class="cls-4" x="54" y="0">線(</tspan><tspan x="90" y="0">快</tspan><tspan class="cls-4" x="108" y="0">速</tspan><tspan x="130.5" y="0">)</tspan><tspan class="cls-5"><tspan x="-38.25" y="16.32">(local bus)South Shuttle line(Rapid)</tspan></tspan></text><line class="cls-6" x1="940.08" y1="147.02" x2="1060.08" y2="147.02"/><line class="cls-7" x1="940.08" y1="147.02" x2="1060.08" y2="147.02"/><rect id="_長方形_4" data-name="&lt;長方形&gt;" class="cls-2" x="880.08" y="8.52" width="240" height="60"/><text class="cls-3" transform="translate(930.33 31.99)">南部幹<tspan class="cls-4" x="54" y="0">線(</tspan><tspan x="90" y="0">普</tspan><tspan class="cls-4" x="108" y="0">通</tspan><tspan x="130.5" y="0">)</tspan><tspan class="cls-5"><tspan x="-38.25" y="16.32">(local bus)South Shuttle line(local)</tspan></tspan></text><line class="cls-6" x1="940.08" y1="56.52" x2="1060.08" y2="56.52"/><line class="cls-8" x1="940.08" y1="56.52" x2="1060.08" y2="56.52"/><line class="cls-9" x1="1000.08" y1="159.02" x2="961.9" y2="233.44"/><path class="cls-10" d="M953.64,249.55c1.07-9,1.1-20.89-1-29.32L963,231.33l15,1.92C970,236.47,960.33,243.42,953.64,249.55Z"/><line class="cls-9" x1="1000.08" y1="8.52" x2="853.47" y2="-36.99"/><rect id="_長方形_5" data-name="&lt;長方形&gt;" class="cls-11" x="368.26" y="566.23" width="240" height="60"/><text class="cls-12" transform="translate(461.26 589.7)">散岐線<tspan class="cls-13"><tspan x="-39" y="16.32">(local bus)Sanuki line</tspan></tspan></text><line class="cls-14" x1="428.26" y1="614.23" x2="548.26" y2="614.23"/><line class="cls-15" x1="428.26" y1="614.23" x2="548.26" y2="614.23"/><rect id="_長方形_6" data-name="&lt;長方形&gt;" class="cls-11" x="-102.82" y="13.35" width="240" height="60"/><text class="cls-12" transform="translate(-9.82 36.82)">西郷線<tspan class="cls-13"><tspan x="-36" y="16.32">(local bus)Saigo line</tspan></tspan></text><line class="cls-14" x1="-42.82" y1="61.35" x2="77.18" y2="61.35"/><line class="cls-16" x1="-42.82" y1="61.35" x2="77.18" y2="61.35"/><line class="cls-17" x1="17.18" y1="73.35" x2="77.93" y2="180.36"/><path class="cls-10" d="M86.86,196.11c-7-5.85-16.86-12.38-25.06-15.26l15-2.55,9.86-11.53C84.88,175.28,85.4,187.14,86.86,196.11Z"/><line class="cls-17" x1="488.26" y1="566.23" x2="453.92" y2="506.75"/><path class="cls-10" d="M444.87,491.07c7,5.79,17,12.25,25.18,15.07l-14.94,2.66-9.77,11.61C447,511.88,446.4,500,444.87,491.07Z"/><path id="_クリッピングパス_" data-name="&lt;クリッピングパス&gt;" class="cls-10" d="M149.61,962.11a15,15,0,0,0-15,15h0a15,15,0,0,0,15,15h21v-30Z"/><path id="_クリッピングパス_2" data-name="&lt;クリッピングパス&gt;" class="cls-18" d="M149.61,962.11a15,15,0,0,0-15,15h0a15,15,0,0,0,15,15h21v-30Z"/><path class="cls-11" d="M359.61,962.11h-189v30h189a15,15,0,0,0,15-15h0A15,15,0,0,0,359.61,962.11Z"/><text class="cls-12" transform="translate(200.61 983.95)"><tspan class="cls-19">小</tspan><tspan class="cls-20" x="42" y="0">倉</tspan><tspan class="cls-21" x="75" y="-2.28">Ogur</tspan><tspan class="cls-13" x="123" y="-2.28">a</tspan></text><line class="cls-11" x1="309" y1="924" x2="266.61" y2="962.11"/><circle class="cls-22" cx="309" cy="924" r="10"/><rect id="_長方形_7" data-name="&lt;長方形&gt;" class="cls-23" x="312" y="125.47" width="180" height="50"/><g class="cls-24"><text class="cls-25" transform="translate(342 144.21)">西郷線フリー乗降<tspan x="22.5" y="20">北</tspan><tspan class="cls-4" x="37.5" y="20">村-</tspan><tspan x="67.5" y="20">曳田</tspan></text></g><rect id="_長方形_8" data-name="&lt;長方形&gt;" class="cls-26" x="312" y="125.47" width="180" height="50"/><rect id="_長方形_9" data-name="&lt;長方形&gt;" class="cls-23" x="414" y="346" width="180" height="50"/><g class="cls-27"><text class="cls-25" transform="translate(444 364.74)">散岐線フリー乗降<tspan x="22.5" y="20">小</tspan><tspan class="cls-4" x="37.5" y="20">倉-</tspan><tspan x="67.5" y="20">曳田</tspan></text></g><rect id="_長方形_10" data-name="&lt;長方形&gt;" class="cls-26" x="414" y="346" width="180" height="50"/><g id="江波デマンド"><g class="cls-28"><line class="cls-29" x1="979.83" y1="1016.98" x2="983.85" y2="1019.95"/><polyline class="cls-30" points="992.66 1025.09 994.95 1026.05 999.07 1027.86 1001.05 1028.75 1031.49 1043.78 1049.15 1052.28 1051.66 1053.5 1067.27 1062.07 1083.88 1070.79 1094.63 1076.54 1107.01 1082.89 1108.97 1083.97 1116.98 1088.08 1127.99 1092.81 1136.91 1095.26 1146.22 1097.46 1149.16 1097.77 1162.1 1099.13 1190.23 1100.6 1201.83 1099.98 1214.01 1097.21 1220.94 1094.62 1237.04 1087.19 1254.46 1079.65"/></g></g><g id="西郷"><g class="cls-28"><line class="cls-29" x1="147.47" y1="185.83" x2="151.56" y2="182.96"/><polyline class="cls-31" points="159.72 177.21 165.67 173.02 175.01 167.01 185.63 160.16 198.69 150.91 208.49 145.09 212.16 142.65 231.42 129.83 237.92 125.91 238.91 125.3 259.63 111.61 280.5 97.94 291.35 91.66 301.75 85.06 313.29 77.33 314.24 76.84 330.76 65.65 342.88 58.01 349.36 53.73 352.82 51.69 353.59 51.31 366 45.2 368.73 43.9 374.19 41.49 382.15 37.34 382.48 37.19 383.38 36.78 386.02 35.6 390.96 33.66 394.16 32.69 396.83 31.88 404.72 30.55 405.04 30.49 415.99 28.94 418.34 28.66 421.23 28.05 430.98 26.45 439.49 24.85 441.67 24.36 443.16 24.02 446.03 23.73 448.6 23.56 451.58 23.5 454.74 23.5 456.92 23.67 458.75 23.96 461.04 24.41 463.4 24.88 467.01 25.62 467.32 25.76 468.38 25.85 469.24 25.97 470.73 25.91 472.62 25.68 473.94 25.45 475.77 24.99 477.09 24.59 478.48 24.07 489.01 20.09 490.09 19.68 504.35 14.22 510.27 11.96 513.31 10.94 515.55 10.19 541.37 0.37 558.73 -6.23 568.3 -9.72 590.12 -17.68 602.37 -22.14 604.62 -23.27 616.23 -27.34 620.3 -27.91 623.78 -27.59 626.52 -27.17 628.56 -26.62 632.66 -25.01 646.49 -19.49 650.75 -17.9 653.41 -17.58 658.61 -17.69 659.39 -17.71 666.01 -18.45 667.48 -18.61 674.21 -18.96 675.78 -19.04 678.73 -18.95 684.37 -19.26 688.36 -19.75 690.36 -20.3 696.19 -21.92 701.37 -23.36 707.02 -24.67 709.28 -25.19 715.59 -27.38 715.99 -27.63 718.18 -29.05"/><line class="cls-29" x1="147.47" y1="185.83" x2="142.59" y2="186.92"/><polyline class="cls-32" points="133.04 190.34 129.4 192.27 118.39 198.82 118.06 199.01 117.07 199.5 115.45 200.31 110.47 200.74 108.48 200.27 98.13 198.21 95.64 197.71 91.65 196.85 87.84 196.18 86.86 196.11 85.89 196.11 84.88 196.14 84.38 196.2 83.46 196.31 82.28 196.49 80.9 196.8 79.76 197.11 78.65 197.53 77.58 197.94 76.33 198.53 74.77 199.47 63.77 206.75 59.74 209.42 55.79 212.03 55.37 212.31 52.29 214.33 49.91 215.89 48.27 217 46.55 218.18 44.79 219.16 42.91 220.19 41.33 221.01 40.7 221.33 40.26 221.44 38.78 221.78 36.73 222.15 34.4 222.4 32.02 222.52 29.94 222.6 27.93 222.52 25.6 222.36 24.18 222.15 16.49 219.32 7.39 215.85 2.01 213.47 0.7 212.97 -7.7 210.38 -18.61 206.71 -24.43 205.45 -28 204.67 -31.71 204.18 -34.92 204.07 -40.29 204.13 -47.45 204.24 -52.87 204.85 -57.62 205.69 -61.82 206.64 -66.23 207.76 -74.92 210.05 -77.49 210.64 -85.64 211.74 -89.31 210.99 -92.57 210.24 -93.35 209.98"/><polyline class="cls-33" points="-677.05 796.56 -676.8 795.88 -674.75 787.03 -673.77 784.95 -672.03 783.17 -667.99 780.43 -661.13 776.75 -653.9 773.32 -647.85 773.52 -626.08 778.66 -622.84 778.66 -620.44 777.03 -618.86 775.46 -616.46 770.61 -615.78 766.61 -614.38 764.18 -612.59 762.72 -610.03 761.27 -600.58 759.36 -591.77 752.76 -580.71 745.65 -578.63 741.93 -576.87 736.14 -574.79 724.08 -574.33 722.8 -573.03 719.89 -570.16 715.55 -565.55 708.49 -562.81 705.1 -561.83 704.15 -542.1 687.11 -538.83 684.08 -536.54 682.12 -534.92 680.88 -533.47 680.07 -533.04 679.84 -528.65 677.55 -527.74 677.07 -527.22 676.71 -526.75 676.31 -526.43 675.85 -526.1 675.02 -525.32 672.97 -524.48 670.92 -523.77 669.27 -523.17 668.11 -522.52 666.96 -521.88 666.01 -521.19 664.93 -520.12 663.77 -518.9 662.55 -517.62 661.58 -515.92 660.6 -513.49 659.36 -508.18 656.36 -504.15 654.12 -502.33 653.07 -491.75 647.49 -483.08 642.7 -478.96 640.5 -468.14 634.45 -465.75 633.34 -463.8 632.18 -461.1 630.43 -457.01 626.11 -453.22 620.68 -448.38 616.08 -440.15 609.14 -436.39 605.16 -429.77 597.18 -427.45 594.39 -422.42 588.1 -416.87 581.18 -414.32 576.27 -411.93 571.66 -410.79 568.59 -410.67 568.17 -410.06 565.93 -409.31 563.19 -407.31 557.36 -406.18 553.04 -404.43 547.24 -403.55 544.54 -402.05 540.58 -399.36 534.69 -392.59 521.22 -392.35 520.78 -382.82 503.31 -381.86 501.21 -381.62 500.68 -380.8 498.9 -369.32 477.58 -366.42 470.01 -364.33 464.4 -358.66 455.75 -357.38 454.2 -356.58 453.23 -340.49 434.82 -324.1 417 -323.73 416.59 -323.08 415.89 -313.75 405.43 -312.11 404.03 -310.03 402.46 -308.01 401.26 -305.8 400.31 -302.77 399.12 -301.55 398.68 -278.58 390.42 -267.81 386.55 -264.27 385.23 -209.98 365.14 -195.04 359.36 -186.43 356.02 -176.37 352.15 -166.25 347.46 -157.07 341.16 -150.52 336.72 -147.58 335.04 -143.58 333.28 -137.46 331.04 -115.28 325.35 -49.88 297.74 -44.51 294.74 -38.58 289.75 -34.7 286.12 -25.27 275.82 -22.59 269.97 -19.84 265.2 -15.04 256.03 -9.92 243.32 -7.69 238.34 -7.48 237.83 -1.45 222.8"/><polyline class="cls-29" points="0.39 218.2 1.67 214.87 2.01 213.47"/></g></g><g id="散岐"><g class="cls-28"><polyline class="cls-29" points="317.8 578.88 315.24 580.16 314.28 580.75 313.5 581.39"/><polyline class="cls-34" points="305.72 587.74 305.54 587.89 304.95 588.31 303.34 589.54 300.93 591.58 296.31 595.02 294.33 596.62 289.34 599.9 285.64 601.95 285.37 602.1 279.9 604.94 274.22 607.25 271.05 608.32 265.96 609.71 261.61 610.91 259.74 611.43 254.43 612.61 247.67 614.32 243.22 615.45 236.4 617.13 227.28 619.41 223.29 620.37 220.06 621.16 214.86 622.49 212.05 623.07 209.35 623.44 205.9 623.49 202.82 623.39 200.83 623.19 199.69 623.07 199.54 623.03 195.39 621.95 189.77 620.52 183.55 619.06 180.96 618.78 178.36 618.69 175.49 618.97 163.91 620.33 154.93 621.38 142.34 623.42 140.37 624.05 139.19 624.43 136.23 625.17 133.17 626.19 119.28 633.04 113.31 636.07 112.7 636.38 99.37 642.86 97.93 643.49 85.66 648.88 85.53 648.92 75.94 652.3 70.72 654.31 63.44 657.12 60.85 658.33 57.88 659.71 55.48 661.1 52.05 663.14 49.82 665.12 49.55 665.36 47.46 666.89 47.14 667.12 38.9 674.34 32.66 679.47"/><polyline class="cls-29" points="28.78 682.65 24.92 685.83 23.43 677.41"/><polyline class="cls-29" points="317.8 578.88 318.13 582.96 318.25 583.86"/><polyline class="cls-35" points="319.57 593.72 322.23 613.84 323.18 622.06 324.41 632.87 325.48 641.56 326.41 649.11 326.79 658.67 325.91 663.85 325.1 665.96 322.5 668.23 319.73 669.93 316.42 671.2 310.07 672.25 306.73 672.81 302.59 673.33 299.8 674.17 297.89 675.37 296.1 676.83 293.94 678.73 289.35 683.31 276.94 697.69 265.81 709.15 263.29 711.15 260.99 713.24 257.74 716.23 255.3 719.19 253.95 721.49 252.83 725.4 252.91 729.39 252.91 730.7 253.3 732.53 256.21 738.13 258.56 742 260.12 744.6 262.69 749.03 265.91 754.82 270.33 761.45 274.15 769.97 275.85 776.05 276.59 779.44 278.24 784.92 281.93 790.13 289.38 794.81 293.21 797.08 298.11 801.71 302.76 810.2 305.68 815.52 307.15 821.08 300.52 836.49 295.68 858.08 296 866.56 296.35 868.44 297.29 873.44 298.13 878.58 298.81 883.41 299.24 887.8 300.53 894.98 299.81 908.03 299.83 908.18"/><polyline class="cls-29" points="300.47 913.11 300.7 914.59 301.03 916.37 301.22 918.05 307.71 922.07"/><line class="cls-29" x1="317.8" y1="578.88" x2="321.61" y2="575.65"/><polyline class="cls-36" points="329.31 569.12 329.49 568.97 339.32 560.66 344.57 556.25 345.82 555.25 354.86 548.06 359.31 544.51 365.66 539.45 367.36 538.14 370.72 535.52 387.6 522.37 394.17 518.2 400.61 514.85 404.09 512.89 414.05 507.58 429.08 499.56 431.52 498.38 461.8 481.8 463.21 481.03 481.38 471.15 485.13 469.2 490.06 466.63 493.95 464.73 498.5 462.25 501.57 460.41 502.8 459.68 508.35 457.36 512.66 455.87 515.2 455.2 517.04 454.71 521.43 453.55 533.43 450.58 539.8 448.75 545.24 447.41 548.82 446.52 556.61 445.11 559.29 444.85 566.04 444.2 568.41 443.88 576.97 442.71 588.06 441.55 592.87 440.78 595.26 440.4 599.56 438.99 602.53 437.4 603.87 436.49 606.54 434.66 612.13 429.52 620.08 422.65 629.74 414.31 635.52 409.81 642.71 403.24 655.52 389.49 663.09 382.96 670.08 378.55 673.03 374.47 676.22 368.64 679.39 361.47 681.2 357.21 685.48 347.09 692.3 330.11 693.94 324.08 698.24 321.17 700.05 319.88 700.37 319.64 702.93 318.18 703.34 317.98 704.56 317.46 706.05 316.94 709.01 315.85 711.72 315.32 711.99 315.28 715.02 314.88 719.13 314.88 723.38 315.4 723.49 315.41 728.56 316.35 733.31 317.29 736.71 318.19 736.95 318.27 738.06 318.63 741.75 319.74 743.68 320.33 747.6 322.19 748.02 322.39 748.37 322.55 752.8 325.14 756.84 327.72 759.36 329.61 766.97 335.33 769.28 337.06 770.98 338.41 772.28 340.27 774.29 341.67 779.16 343.74 785.19 345.6"/><polyline class="cls-29" points="790.01 347.09 792.01 347.7 794.87 348.26 795.83 343.89 796.01 343.4"/><polyline class="cls-37" points="799.46 334.01 800.74 330.66 801.7 325.95 802.03 323.71 802.71 318.1 803.07 314.38 803.92 313.2 805.27 303.81 805.33 303.45 806.84 294.25 808.01 286.31 808.54 282.76 808.81 280.09"/><polyline class="cls-29" points="809.33 275.12 809.42 274.31 809.96 270.16 805.58 267.75"/><polyline class="cls-38" points="796.36 263.31 784.69 257.9 780.6 255.6 779.84 254.77 774.97 249.49 770.33 243.51 767.67 240.62 766.96 239.86 764.83 237.61 747.53 225.33 746.4 224.26 742.02 220.55 736.57 213.15 734.41 208.36 733.78 203.23 732.23 190.6 731.82 188.35 730.64 174.34 730.52 173.47 728.58 159.61 728.27 157.39 727.89 154.66 727.87 154.4 727.11 145.44 724.81 129.44 724.3 125.31 723.74 121.91 722.86 115.5 722.2 108.98 722.14 108.53 719.77 92.45 719.33 89.44 717.27 74.2 716.61 65.03 715.02 48.86 714.18 34.92 713.98 28.88 714.24 26.57 715.21 24.06 716.79 22.02 717.95 20.4 720.03 18.66 721.61 17.62 723.4 16.51 734.85 12.03 740.68 9.76 745.25 7.84 747.7 6.81 750.82 3.81 752.32 -0.43 752.53 -2.1 752.71 -3.55 752.62 -7.05 751.59 -9.92 750.72 -12.33 750.1 -13.56 745.13 -25.49"/></g></g><rect class="cls-39" x="-5031" y="-7164" width="11720" height="11720"/></svg>