<svg id="_15zoom" data-name="15zoom" xmlns="http://www.w3.org/2000/svg" xmlns:xlink="http://www.w3.org/1999/xlink" viewBox="0 0 1024 1024"><defs><style>.cls-1,.cls-2,.cls-9{fill:#fff;}.cls-1,.cls-13,.cls-2,.cls-5,.cls-7{stroke:#231815;}.cls-1,.cls-13,.cls-15,.cls-16,.cls-17,.cls-18,.cls-19,.cls-2,.cls-5,.cls-6,.cls-7{stroke-miterlimit:10;}.cls-1,.cls-13{stroke-width:2px;}.cls-2{stroke-width:2.4px;}.cls-3{font-size:18px;}.cls-11,.cls-3,.cls-8{fill:#231815;}.cls-11,.cls-3{font-family:NotoSansMonoCJKjp-Regular-90ms-RKSJ-H, Noto Sans Mono CJK JP;}.cls-4{font-size:12px;}.cls-13,.cls-15,.cls-16,.cls-17,.cls-18,.cls-19,.cls-20,.cls-5,.cls-6,.cls-7{fill:none;}.cls-5,.cls-6{stroke-linecap:round;}.cls-5{stroke-width:5.27px;}.cls-6{stroke:#ebca1b;stroke-width:2.64px;}.cls-7{stroke-width:3px;}.cls-10{clip-path:url(#clip-path);}.cls-11{font-size:15px;}.cls-12{letter-spacing:0.25em;}.cls-14{opacity:0.5;}.cls-15,.cls-16,.cls-17,.cls-18,.cls-19{stroke:#e60012;stroke-width:20px;}.cls-16{stroke-dasharray:10.05 10.05;}.cls-17{stroke-dasharray:9.57 9.57;}.cls-18{stroke-dasharray:10.35 10.35;}.cls-19{stroke-dasharray:10.05 10.05;}</style><clipPath id="clip-path"><rect id="_長方形_" data-name="&lt;長方形&gt;" class="cls-1" x="42.23" y="25.28" width="180" height="50"/></clipPath></defs><title>3236_7149</title><rect id="_長方形_2" data-name="&lt;長方形&gt;" class="cls-2" x="247.8" y="132.43" width="240" height="60"/><text class="cls-3" transform="translate(322.8 155.9)">江波赤波線<tspan class="cls-4"><tspan x="-42" y="16.32">(local bus)Enami Aganami line</tspan></tspan></text><line class="cls-5" x1="307.8" y1="180.43" x2="427.8" y2="180.43"/><line class="cls-6" x1="307.8" y1="180.43" x2="427.8" y2="180.43"/><line class="cls-7" x1="367.8" y1="192.43" x2="411.88" y2="268.64"/><path class="cls-8" d="M420.94,284.31c-7-5.79-17-12.24-25.19-15.05l14.94-2.68L420.45,255C418.79,263.5,419.41,275.36,420.94,284.31Z"/><rect id="_長方形_3" data-name="&lt;長方形&gt;" class="cls-9" x="42.23" y="25.28" width="180" height="50"/><g class="cls-10"><text class="cls-11" transform="translate(57.23 44.02)">江波赤波線フリー乗降<tspan x="45" y="20">江</tspan><tspan class="cls-12" x="60" y="20">波-</tspan><tspan x="90" y="20">社</tspan></text></g><rect id="_長方形_4" data-name="&lt;長方形&gt;" class="cls-13" x="42.23" y="25.28" width="180" height="50"/><g id="江波デマンド"><g class="cls-14"><line class="cls-15" x1="669.99" y1="46.05" x2="673.9" y2="42.92"/><polyline class="cls-15" points="678.63 39.13 680.15 37.91 680.63 37.52 682.5 35.97"/><polyline class="cls-16" points="-255.18 104.87 -250.1 98.07 -246.58 94.05 -242.9 91.8 -240.01 90.82 -232.33 89.37 -224.5 88.25 -208.67 88.25 -204.17 87.28 -198.25 84.37 -197.13 83.26 -195.53 82.29 -189.15 75.86 -179.07 62.03 -176.83 60.26 -172.5 59.31 -154.73 58.97 -151.05 58.34 -148.49 57.98 -146.91 57.52 -145.6 56.26 -145.18 54.15 -144.81 50.55 -144.3 48.41 -143.2 46.22 -140.19 44.5 -134.59 42.42 -128.67 41.13 -124.18 40.96 -113.18 42.56 -104.05 44.65 -98.6 47.38 -93.62 50.61 -87.72 56.57 -79.06 65.76 -71.89 71.84 -67.6 75.11 -64.85 76.76 -61.06 77.23 -57.56 77.23 -51.13 75.92 -46.57 70.36 -30.11 68.33 -24.98 69.13 -18.28 72.01 -12.36 75.9 -9.15 78.47 -7.87 79.26 -1.19 85.68 -0.67 86.17 2.19 87.94 9.57 91.48 20.29 98.87 28.93 105.44 37.73 111.72 48.21 117.54 55.81 120.88 60.93 123.13 71.31 126.84 72.13 127.16 73.25 127.81 83.33 131.81 91 135.83 95.16 138.75 96.44 140.34 97.4 143.25 97.56 148.07 96.93 152.39 95.33 158.52 93.55 161.89 89.71 166.08 83.96 170.91 81.89 173.47 81.4 174.41 79.96 178.78 78.67 184.09 77.58 192.59 78.05 193.4 79.65 198.08 87.17 211.43 88.65 213.74"/><polyline class="cls-15" points="91.35 217.98 94.05 222.19 97.07 222.85 98.96 223.06"/><polyline class="cls-17" points="108.51 223.48 114.52 223.65 119.17 223.99 129.89 224.27 136.46 224.76 140.14 225.27 141.81 225.86"/><polyline class="cls-15" points="146.33 227.43 146.52 227.5 150.84 229.58 151.34 231.53 151.47 234.52"/><polyline class="cls-18" points="151.33 244.85 151.18 248.28 151.18 251.99 151.48 258.27 151.18 263.06 148.45 270.62 144.44 279.47 143 284.12 143 287.2 143.79 288.98 144.28 289.29 145.56 290.08 148.13 289.6 148.91 289.29 158.69 284.46 166.84 281.24 172.13 279.95 177.88 278.98 188.59 279.15 189.55 278.81 195.61 275.13 196.89 274.65 199.03 274.36 203.09 275.1 210.4 279.21 214.52 279.01 221.69 276.21 225.37 275.25 230.19 275.59 233.87 278.64 244.59 293.28 247.14 297.76 249.08 303.9 249.87 308.72 249.87 316.25 248.1 325.27 246.01 333 246.01 346.16 247.73 369.39 248.71 372.19 249.92 373.76"/><polyline class="cls-15" points="253.09 377.86 254.83 380.12 256.04 381.89 257.93 380.66 260.68 380.7"/><polyline class="cls-19" points="270.23 378.45 275.16 375.61 281.69 370.31 289.53 362.74 305.88 346.33 314.68 338.46 321.65 332.32 330.14 326.95 338.6 322.56 343.78 320.85 350.73 318.79 359.41 315.99 372.1 313.88 373.34 313.67 374.51 313.17 375.78 312.55 376.81 311.58 377.8 309.91 378.3 308.32 381.2 299.89 383.27 297.1 385.41 295.96 387.68 294.54 394.5 292.41 397.37 291.49 398.91 290.99 402.75 289.85 404.73 289.26 407.01 288.57 415.69 285.91 420.94 284.31 424.2 283.3 428.75 281.89 439.09 278.21 446.57 274.23 447.72 273.61 454.9 268.44 455.98 267.56 465.44 259.74 466.33 259.01 473.69 252.53 480.16 245.47 486.78 235.76 494.43 218.84 495.06 216.72 496.37 213.4 498.84 207.95 502.41 200.29 506.61 192.42 508.13 189.62 513.14 182.2 517.65 175.47 521.5 169.37 524.3 165.71 527.53 160.85 531.69 154.05 534.85 146.64 539.41 131.5 543.28 119.72 545.83 114.59 547.88 111.31 550.34 108.44 554.81 104.59 564.23 98.29 579.69 89.12 589.05 84.03 591.29 82.74 591.95 82.47 597.9 79.98 607.77 75.86 610.56 74.68 613.25 73.53 621.05 70.19 625.2 68.76 627.76 67.45 641.45 61.29 645.59 59.91 648.25 59.12 650.46 58.46 656.86 55.86 660.26 54.24 662.52 52.62"/><polyline class="cls-15" points="666.62 49.71 667.31 49.21 669.99 46.05"/></g></g><rect class="cls-20" x="-5031" y="-9212" width="11720" height="11720"/></svg>