<svg id="_13zoom" data-name="13zoom" xmlns="http://www.w3.org/2000/svg" xmlns:xlink="http://www.w3.org/1999/xlink" viewBox="0 0 1024 1024"><defs><style>.cls-1,.cls-10,.cls-3{fill:#231815;}.cls-1,.cls-13,.cls-2,.cls-7,.cls-8,.cls-9{stroke:#231815;}.cls-1,.cls-13,.cls-2,.cls-6,.cls-7,.cls-8,.cls-9{stroke-miterlimit:10;}.cls-1,.cls-13,.cls-2{stroke-width:4px;}.cls-12,.cls-2{fill:#fff;}.cls-3{font-size:30px;}.cls-12,.cls-3{font-family:NotoSansMonoCJKjp-Regular-90ms-RKSJ-H, Noto Sans Mono CJK JP;}.cls-4{letter-spacing:0.25em;}.cls-16,.cls-5{font-size:20px;}.cls-13,.cls-17,.cls-6,.cls-7,.cls-8,.cls-9{fill:none;}.cls-6{stroke:#718cc7;stroke-width:8.79px;}.cls-6,.cls-7,.cls-8{stroke-linecap:round;}.cls-7,.cls-8{stroke-width:4.4px;}.cls-7{stroke-dasharray:0 28.57;}.cls-9{stroke-width:5px;}.cls-11{clip-path:url(#clip-path);}.cls-12{font-size:48px;}.cls-14{letter-spacing:1.03em;}.cls-15{letter-spacing:0.53em;}.cls-16{letter-spacing:0.05em;}</style><clipPath id="clip-path"><path id="_クリッピングパス_" data-name="&lt;クリッピングパス&gt;" class="cls-1" d="M223.8,849.17a25,25,0,0,0-25,25h0a25,25,0,0,0,25,25h35v-50Z"/></clipPath></defs><title>3230_7154</title><rect id="_長方形_" data-name="&lt;長方形&gt;" class="cls-2" x="-172.02" y="581" width="400" height="100"/><text class="cls-3" transform="translate(-73.27 620.12)">岩井<tspan class="cls-4" x="60" y="0">線(</tspan><tspan x="120" y="0">普</tspan><tspan class="cls-4" x="150" y="0">通</tspan><tspan x="187.5" y="0">)</tspan><tspan class="cls-5"><tspan x="-33.75" y="27.2">(local bus)Iwai line(local)</tspan></tspan></text><line class="cls-6" x1="-72.02" y1="661" x2="127.98" y2="661"/><line class="cls-7" x1="-43.45" y1="661" x2="113.69" y2="661"/><line class="cls-8" x1="127.98" y1="661" x2="127.98" y2="661"/><line class="cls-9" x1="27.98" y1="581" x2="288.95" y2="450.13"/><path class="cls-10" d="M315.93,436.6c-10.33,11.08-22.05,27-27.55,40.42l-3-25.12-18.34-17.39C281.1,438.12,300.88,438.26,315.93,436.6Z"/><path id="_クリッピングパス_2" data-name="&lt;クリッピングパス&gt;" class="cls-10" d="M223.8,849.17a25,25,0,0,0-25,25h0a25,25,0,0,0,25,25h35v-50Z"/><g class="cls-11"><text class="cls-12" transform="translate(209.8 890.13)">25</text></g><path id="_クリッピングパス_3" data-name="&lt;クリッピングパス&gt;" class="cls-13" d="M223.8,849.17a25,25,0,0,0-25,25h0a25,25,0,0,0,25,25h35v-50Z"/><path class="cls-2" d="M573.8,849.17h-315v50h315a25,25,0,0,0,25-25h0A25,25,0,0,0,573.8,849.17Z"/><text class="cls-3" transform="translate(308.8 885.57)"><tspan class="cls-14">蕪</tspan><tspan class="cls-15" x="60.91" y="0">島</tspan><tspan class="cls-16" x="106.82" y="-3.8">Kaburajim</tspan><tspan class="cls-5" x="205" y="-3.8">a</tspan></text><line class="cls-2" x1="430.85" y1="747.69" x2="418.8" y2="849.17"/><circle class="cls-2" cx="430.85" cy="747.69" r="10"/><rect class="cls-17" x="-10151" y="-3068" width="11720" height="11720"/></svg>