<svg id="_13zoom" data-name="13zoom" xmlns="http://www.w3.org/2000/svg" xmlns:xlink="http://www.w3.org/1999/xlink" viewBox="0 0 1024 1024"><defs><style>.cls-1,.cls-13,.cls-4,.cls-6{fill:#231815;}.cls-1,.cls-10,.cls-2,.cls-3,.cls-5{stroke:#231815;stroke-miterlimit:10;}.cls-1,.cls-2,.cls-5{stroke-width:4px;}.cls-10,.cls-12,.cls-2{fill:#fff;}.cls-15,.cls-3,.cls-5{fill:none;}.cls-3{stroke-width:5px;}.cls-6{font-size:30px;}.cls-12,.cls-13,.cls-6{font-family:NotoSansMonoCJKjp-Regular-90ms-RKSJ-H, Noto Sans Mono CJK JP;}.cls-7{letter-spacing:0.56em;}.cls-8{letter-spacing:0.5em;}.cls-13,.cls-9{font-size:20px;}.cls-10{stroke-width:3.48px;}.cls-11{clip-path:url(#clip-path);}.cls-12{font-size:48px;}.cls-14{clip-path:url(#clip-path-2);}</style><clipPath id="clip-path"><path id="_クリッピングパス_" data-name="&lt;クリッピングパス&gt;" class="cls-1" d="M42,353.5a25,25,0,0,0-25,25h0a25,25,0,0,0,25,25H77v-50Z"/></clipPath><clipPath id="clip-path-2"><path id="_クリッピングパス_2" data-name="&lt;クリッピングパス&gt;" class="cls-1" d="M42,413.5a25,25,0,0,0-25,25h0a25,25,0,0,0,25,25H77v-50Z"/></clipPath></defs><title>3235_7154</title><rect id="_長方形_" data-name="&lt;長方形&gt;" class="cls-2" x="153.02" y="-91.48" width="400" height="100"/><line class="cls-3" x1="353.02" y1="8.52" x2="231.52" y2="160.17"/><path class="cls-4" d="M212.65,183.72c4.77-14.37,8.77-33.74,8.16-48.22L234,157.08l23.93,8.15C243.67,167.8,225.63,175.93,212.65,183.72Z"/><path id="_クリッピングパス_3" data-name="&lt;クリッピングパス&gt;" class="cls-4" d="M2.33,515.17a25,25,0,0,0-25,25h0a25,25,0,0,0,25,25h35v-50Z"/><path id="_クリッピングパス_4" data-name="&lt;クリッピングパス&gt;" class="cls-5" d="M2.33,515.17a25,25,0,0,0-25,25h0a25,25,0,0,0,25,25h35v-50Z"/><path class="cls-2" d="M352.33,515.17h-315v50h315a25,25,0,0,0,25-25h0A25,25,0,0,0,352.33,515.17Z"/><text class="cls-6" transform="translate(47.33 551.57)"><tspan class="cls-7">若桜車</tspan><tspan class="cls-8" x="140" y="0">庫</tspan><tspan class="cls-9" x="185" y="-3.8">Wakasa Shako</tspan></text><line class="cls-2" x1="456.35" y1="443.95" x2="197.33" y2="515.17"/><circle class="cls-2" cx="456.35" cy="443.95" r="10"/><rect class="cls-10" x="7" y="338.5" width="200" height="140"/><path id="_クリッピングパス_5" data-name="&lt;クリッピングパス&gt;" class="cls-4" d="M42,353.5a25,25,0,0,0-25,25h0a25,25,0,0,0,25,25H77v-50Z"/><g class="cls-11"><text class="cls-12" transform="translate(28 394.47)">51</text></g><path id="_クリッピングパス_6" data-name="&lt;クリッピングパス&gt;" class="cls-5" d="M42,353.5a25,25,0,0,0-25,25h0a25,25,0,0,0,25,25H77v-50Z"/><text class="cls-13" transform="translate(82 386.82)">市立病院経由</text><path id="_クリッピングパス_7" data-name="&lt;クリッピングパス&gt;" class="cls-4" d="M42,413.5a25,25,0,0,0-25,25h0a25,25,0,0,0,25,25H77v-50Z"/><g class="cls-14"><text class="cls-12" transform="translate(28 454.47)">52</text></g><path id="_クリッピングパス_8" data-name="&lt;クリッピングパス&gt;" class="cls-5" d="M42,413.5a25,25,0,0,0-25,25h0a25,25,0,0,0,25,25H77v-50Z"/><text class="cls-13" transform="translate(92 446.82)">内吉方経由</text><rect class="cls-15" x="-10151" y="-8188" width="11720" height="11720"/></svg>