<svg id="_13zoom" data-name="13zoom" xmlns="http://www.w3.org/2000/svg" viewBox="0 0 1024 1024"><defs><style>.cls-1{fill:#fff;}.cls-1,.cls-4,.cls-6,.cls-8{stroke:#231815;}.cls-1,.cls-4,.cls-5,.cls-6,.cls-8{stroke-miterlimit:10;}.cls-1,.cls-8{stroke-width:4px;}.cls-2{font-size:30px;}.cls-2,.cls-7,.cls-9{fill:#231815;}.cls-2,.cls-9{font-family:NotoSansMonoCJKjp-Regular-90ms-RKSJ-H, Noto Sans Mono CJK JP;}.cls-3{font-size:20px;}.cls-20,.cls-4,.cls-5,.cls-6,.cls-8{fill:none;}.cls-4,.cls-5{stroke-linecap:round;}.cls-4{stroke-width:8.79px;}.cls-5{stroke:#ef845d;stroke-width:4.4px;}.cls-6{stroke-width:5px;}.cls-9{font-size:25px;}.cls-10{letter-spacing:-0.09em;}.cls-11{letter-spacing:-0.09em;}.cls-12{letter-spacing:-0.05em;}.cls-13{letter-spacing:-0.06em;}.cls-14{letter-spacing:-0.06em;}.cls-15{letter-spacing:-0.05em;}.cls-16{letter-spacing:-0.08em;}.cls-17{letter-spacing:0.12em;}.cls-18{font-size:15px;}.cls-19{letter-spacing:0.5em;}</style></defs><title>3230_7145</title><rect id="_長方形_" data-name="&lt;長方形&gt;" class="cls-1" x="-372" y="67.55" width="400" height="100"/><rect id="_長方形_2" data-name="&lt;長方形&gt;" class="cls-1" x="465.03" y="690.62" width="400" height="100"/><text class="cls-2" transform="translate(620.03 729.74)">日置線<tspan class="cls-3"><tspan x="-60" y="27.2">(local bus)Hioki line</tspan></tspan></text><line class="cls-4" x1="565.03" y1="770.62" x2="765.03" y2="770.62"/><line class="cls-5" x1="565.03" y1="770.62" x2="765.03" y2="770.62"/><line class="cls-6" x1="665.03" y1="790.62" x2="459.3" y2="922.9"/><path class="cls-7" d="M433.92,939.22C443,927.11,453,910,457,896.11l5.62,24.65,20.09,15.35C468.39,934,448.71,936,433.92,939.22Z"/><path id="_クリッピングパス_" data-name="&lt;クリッピングパス&gt;" class="cls-7" d="M331.89,453.59a25,25,0,0,0-25,25h0a25,25,0,0,0,25,25h35v-50Z"/><path id="_クリッピングパス_2" data-name="&lt;クリッピングパス&gt;" class="cls-8" d="M331.89,453.59a25,25,0,0,0-25,25h0a25,25,0,0,0,25,25h35v-50Z"/><path class="cls-1" d="M681.89,453.59h-315v50h315a25,25,0,0,0,25-25h0A25,25,0,0,0,681.89,453.59Z"/><text class="cls-9" transform="translate(375.63 485.59)"><tspan class="cls-10">青</tspan><tspan class="cls-11" x="22.86" y="0">谷</tspan><tspan class="cls-12" x="45.56" y="0">町</tspan><tspan class="cls-13" x="69.24" y="0">総</tspan><tspan class="cls-14" x="92.86" y="0">合</tspan><tspan class="cls-15" x="116.4" y="0">支</tspan><tspan class="cls-16" x="140.04" y="0">所</tspan><tspan class="cls-17" x="163.14" y="0">前</tspan><tspan class="cls-18" x="191.26" y="-3.8">(Aoya Town Office)</tspan></text><line class="cls-1" x1="312.82" y1="350.21" x2="526.89" y2="453.59"/><line class="cls-1" x1="267.82" y1="354.71" x2="526.89" y2="453.59"/><circle class="cls-1" cx="312.82" cy="350.21" r="10"/><circle class="cls-1" cx="267.82" cy="354.71" r="10"/><path id="_クリッピングパス_3" data-name="&lt;クリッピングパス&gt;" class="cls-7" d="M249.89,125.06a25,25,0,0,0-25,25h0a25,25,0,0,0,25,25h35v-50Z"/><path id="_クリッピングパス_4" data-name="&lt;クリッピングパス&gt;" class="cls-8" d="M249.89,125.06a25,25,0,0,0-25,25h0a25,25,0,0,0,25,25h35v-50Z"/><path class="cls-1" d="M599.89,125.06h-315v50h315a25,25,0,0,0,25-25h0A25,25,0,0,0,599.89,125.06Z"/><text class="cls-2" transform="translate(304.89 161.46)">青谷小学<tspan class="cls-19" x="120" y="0">校</tspan><tspan class="cls-3" x="165" y="-3.8">(Aoya E.S.)</tspan></text><line class="cls-1" x1="261.82" y1="273.72" x2="444.89" y2="175.06"/><circle class="cls-1" cx="261.82" cy="273.72" r="10"/><line class="cls-1" x1="137.33" y1="452.21" x2="-196.61" y2="507.96"/><circle class="cls-1" cx="137.33" cy="452.21" r="10"/><rect class="cls-20" x="-935" y="-3068" width="11720" height="11720"/></svg>