<svg id="_13zoom" data-name="13zoom" xmlns="http://www.w3.org/2000/svg" viewBox="0 0 1024 1024"><defs><style>.cls-1,.cls-4{fill:#231815;}.cls-2,.cls-7{fill:none;}.cls-2,.cls-3{stroke:#231815;stroke-miterlimit:10;stroke-width:4px;}.cls-3{fill:#fff;}.cls-4{font-size:30px;font-family:NotoSansMonoCJKjp-Regular-90ms-RKSJ-H, Noto Sans Mono CJK JP;}.cls-5{letter-spacing:0.5em;}.cls-6{font-size:20px;}</style></defs><title>3232_7145</title><path id="_クリッピングパス_" data-name="&lt;クリッピングパス&gt;" class="cls-1" d="M439.07,369.35a25,25,0,0,0-25,25h0a25,25,0,0,0,25,25h35v-50Z"/><path id="_クリッピングパス_2" data-name="&lt;クリッピングパス&gt;" class="cls-2" d="M439.07,369.35a25,25,0,0,0-25,25h0a25,25,0,0,0,25,25h35v-50Z"/><path class="cls-3" d="M789.07,369.35h-315v50h315a25,25,0,0,0,25-25h0A25,25,0,0,0,789.07,369.35Z"/><text class="cls-4" transform="translate(524.07 405.75)"><tspan class="cls-5">小畑上</tspan><tspan class="cls-6" x="135" y="-3.8">Obata Ue</tspan></text><line class="cls-3" x1="480.81" y1="303.11" x2="634.07" y2="369.35"/><circle class="cls-3" cx="480.81" cy="303.11" r="10"/><rect class="cls-7" x="-935" y="-5116" width="11720" height="11720"/></svg>