<svg id="_13zoom" data-name="13zoom" xmlns="http://www.w3.org/2000/svg" viewBox="0 0 1024 1024"><defs><style>.cls-1,.cls-4{fill:#231815;}.cls-2,.cls-9{fill:none;}.cls-2,.cls-3{stroke:#231815;stroke-miterlimit:10;stroke-width:4px;}.cls-3{fill:#fff;}.cls-4{font-size:30px;font-family:NotoSansMonoCJKjp-Regular-90ms-RKSJ-H, Noto Sans Mono CJK JP;}.cls-5{letter-spacing:1.07em;}.cls-6{letter-spacing:0.57em;}.cls-7,.cls-8{font-size:20px;}.cls-7{letter-spacing:0.1em;}</style></defs><title>3235_7145</title><path id="_クリッピングパス_" data-name="&lt;クリッピングパス&gt;" class="cls-1" d="M290.07,963.31a25,25,0,0,0-25,25h0a25,25,0,0,0,25,25h35v-50Z"/><path id="_クリッピングパス_2" data-name="&lt;クリッピングパス&gt;" class="cls-2" d="M290.07,963.31a25,25,0,0,0-25,25h0a25,25,0,0,0,25,25h35v-50Z"/><path class="cls-3" d="M640.07,963.31h-315v50h315a25,25,0,0,0,25-25h0A25,25,0,0,0,640.07,963.31Z"/><text class="cls-4" transform="translate(375.07 999.71)"><tspan class="cls-5">栃</tspan><tspan class="cls-6" x="62" y="0">原</tspan><tspan class="cls-7" x="109" y="-3.8">Tochiwar</tspan><tspan class="cls-8" x="205" y="-3.8">a</tspan></text><line class="cls-3" x1="744.8" y1="887.93" x2="485.07" y2="963.31"/><circle class="cls-3" cx="744.8" cy="887.93" r="10"/><rect class="cls-9" x="-935" y="-8188" width="11720" height="11720"/></svg>