<svg id="_15zoom" data-name="15zoom" xmlns="http://www.w3.org/2000/svg" xmlns:xlink="http://www.w3.org/1999/xlink" viewBox="0 0 1024 1024"><defs><style>.cls-1,.cls-10,.cls-15,.cls-3{fill:#231815;}.cls-1,.cls-13,.cls-14,.cls-2,.cls-20,.cls-7,.cls-8,.cls-9{stroke:#231815;}.cls-1,.cls-13,.cls-14,.cls-2,.cls-20,.cls-6,.cls-7,.cls-8,.cls-9{stroke-miterlimit:10;}.cls-1,.cls-13,.cls-14{stroke-width:2.4px;}.cls-12,.cls-14,.cls-2,.cls-20{fill:#fff;}.cls-2{stroke-width:2.4px;}.cls-3{font-size:18px;}.cls-12,.cls-15,.cls-3{font-family:NotoSansMonoCJKjp-Regular-90ms-RKSJ-H, Noto Sans Mono CJK JP;}.cls-4{letter-spacing:0.25em;}.cls-5{font-size:12px;}.cls-13,.cls-21,.cls-6,.cls-7,.cls-8,.cls-9{fill:none;}.cls-6{stroke:#718cc7;stroke-width:5.27px;}.cls-6,.cls-7,.cls-8{stroke-linecap:round;}.cls-7,.cls-8{stroke-width:2.64px;}.cls-8{stroke-dasharray:0 17.14;}.cls-9{stroke-width:3px;}.cls-11{clip-path:url(#clip-path);}.cls-12{font-size:28.8px;}.cls-15{font-size:18px;}.cls-16{letter-spacing:1.03em;}.cls-17{letter-spacing:0.53em;}.cls-18,.cls-19{font-size:12px;}.cls-18{letter-spacing:0.05em;}.cls-20{stroke-width:4px;}</style><clipPath id="clip-path"><path id="_クリッピングパス_" data-name="&lt;クリッピングパス&gt;" class="cls-1" d="M322.23,800.46a15,15,0,0,0-15,15h0a15,15,0,0,0,15,15h21v-30Z"/></clipPath></defs><title>3230_7154</title><rect id="_長方形_" data-name="&lt;長方形&gt;" class="cls-2" x="311.15" y="527.35" width="240" height="60"/><text class="cls-3" transform="translate(370.39 550.82)">岩井<tspan class="cls-4" x="36" y="0">線(</tspan><tspan x="72" y="0">普</tspan><tspan class="cls-4" x="90" y="0">通</tspan><tspan x="112.5" y="0">)</tspan><tspan class="cls-5"><tspan x="-20.25" y="16.32">(local bus)Iwai line(local)</tspan></tspan></text><line class="cls-6" x1="371.15" y1="575.35" x2="491.15" y2="575.35"/><line class="cls-7" x1="371.15" y1="575.35" x2="371.15" y2="575.35"/><line class="cls-8" x1="388.29" y1="575.35" x2="482.57" y2="575.35"/><line class="cls-7" x1="491.15" y1="575.35" x2="491.15" y2="575.35"/><line class="cls-9" x1="431.15" y1="527.35" x2="325.69" y2="457.77"/><path class="cls-10" d="M310.58,447.79c8.85,2.06,20.65,3.38,29.26,2.22l-12.16,9.06-3.55,14.75C321.8,465.45,316,455.12,310.58,447.79Z"/><path id="_クリッピングパス_2" data-name="&lt;クリッピングパス&gt;" class="cls-10" d="M322.23,800.46a15,15,0,0,0-15,15h0a15,15,0,0,0,15,15h21v-30Z"/><g class="cls-11"><text class="cls-12" transform="translate(313.83 825.05)">25</text></g><path id="_クリッピングパス_3" data-name="&lt;クリッピングパス&gt;" class="cls-13" d="M322.23,800.46a15,15,0,0,0-15,15h0a15,15,0,0,0,15,15h21v-30Z"/><path class="cls-14" d="M532.23,800.46h-189v30h189a15,15,0,0,0,15-15h0A15,15,0,0,0,532.23,800.46Z"/><text class="cls-15" transform="translate(373.23 822.3)"><tspan class="cls-16">蕪</tspan><tspan class="cls-17" x="36.55" y="0">島</tspan><tspan class="cls-18" x="64.09" y="-2.28">Kaburajim</tspan><tspan class="cls-19" x="123" y="-2.28">a</tspan></text><line class="cls-14" x1="428" y1="750" x2="439.23" y2="800.46"/><circle class="cls-20" cx="428" cy="750" r="10"/><rect class="cls-21" x="-10151" y="-3068" width="11720" height="11720"/></svg>