<svg id="_15zoom" data-name="15zoom" xmlns="http://www.w3.org/2000/svg" xmlns:xlink="http://www.w3.org/1999/xlink" viewBox="0 0 1024 1024"><defs><style>.cls-1,.cls-11,.cls-20,.cls-3,.cls-8{fill:#231815;}.cls-1,.cls-10,.cls-15,.cls-16,.cls-19,.cls-2,.cls-6,.cls-7,.cls-9{stroke:#231815;}.cls-1,.cls-10,.cls-15,.cls-16,.cls-19,.cls-2,.cls-5,.cls-6,.cls-7,.cls-9{stroke-miterlimit:10;}.cls-1,.cls-19{stroke-width:2.4px;}.cls-10,.cls-15,.cls-16,.cls-18,.cls-2{fill:#fff;}.cls-2{stroke-width:2.4px;}.cls-3{font-size:18px;}.cls-11,.cls-18,.cls-20,.cls-3{font-family:NotoSansMonoCJKjp-Regular-90ms-RKSJ-H, Noto Sans Mono CJK JP;}.cls-20,.cls-4{font-size:12px;}.cls-19,.cls-22,.cls-5,.cls-6,.cls-7,.cls-9{fill:none;}.cls-5{stroke:#e7336e;stroke-width:5.27px;}.cls-5,.cls-6{stroke-linecap:round;}.cls-6{stroke-width:2.64px;stroke-dasharray:0 17.58;}.cls-7{stroke-width:3px;}.cls-10,.cls-9{stroke-width:2.4px;}.cls-11{font-size:18px;}.cls-12{letter-spacing:0.56em;}.cls-13{letter-spacing:0.5em;}.cls-14{font-size:12px;}.cls-15{stroke-width:4px;}.cls-16{stroke-width:2.09px;}.cls-17{clip-path:url(#clip-path);}.cls-18{font-size:28.8px;}.cls-21{clip-path:url(#clip-path-2);}</style><clipPath id="clip-path"><path id="_クリッピングパス_" data-name="&lt;クリッピングパス&gt;" class="cls-1" d="M219,371.5a15,15,0,0,0-15,15h0a15,15,0,0,0,15,15h21v-30Z"/></clipPath><clipPath id="clip-path-2"><path id="_クリッピングパス_2" data-name="&lt;クリッピングパス&gt;" class="cls-1" d="M219,407.5a15,15,0,0,0-15,15h0a15,15,0,0,0,15,15h21v-30Z"/></clipPath></defs><title>3235_7154</title><rect id="_長方形_" data-name="&lt;長方形&gt;" class="cls-2" x="85.46" y="-12.54" width="240" height="60"/><text class="cls-3" transform="translate(178.45 10.93)">若桜線<tspan class="cls-4"><tspan x="-39" y="16.32">(local bus)Wakasa line</tspan></tspan></text><line class="cls-5" x1="145.46" y1="35.46" x2="265.46" y2="35.46"/><line class="cls-6" x1="145.46" y1="35.46" x2="265.46" y2="35.46"/><line class="cls-7" x1="205.46" y1="47.46" x2="139.58" y2="91.14"/><path class="cls-8" d="M124.49,101.15c5.35-7.34,11.18-17.68,13.48-26.06l3.59,14.74,12.18,9C145.12,97.73,133.33,99.07,124.49,101.15Z"/><path id="_クリッピングパス_3" data-name="&lt;クリッピングパス&gt;" class="cls-8" d="M187.94,482.68a15,15,0,0,0-15,15h0a15,15,0,0,0,15,15h21v-30Z"/><path id="_クリッピングパス_4" data-name="&lt;クリッピングパス&gt;" class="cls-9" d="M187.94,482.68a15,15,0,0,0-15,15h0a15,15,0,0,0,15,15h21v-30Z"/><path class="cls-10" d="M397.94,482.68h-189v30h189a15,15,0,0,0,15-15h0A15,15,0,0,0,397.94,482.68Z"/><text class="cls-11" transform="translate(214.9 504.52)"><tspan class="cls-12">若桜車</tspan><tspan class="cls-13" x="84" y="0">庫</tspan><tspan class="cls-14" x="111" y="-2.28">Wakasa Shako</tspan></text><line class="cls-10" x1="456.35" y1="443.95" x2="304.94" y2="482.68"/><circle class="cls-15" cx="456.35" cy="443.95" r="10"/><rect class="cls-16" x="197.99" y="362.5" width="120" height="84"/><path id="_クリッピングパス_5" data-name="&lt;クリッピングパス&gt;" class="cls-8" d="M219,371.5a15,15,0,0,0-15,15h0a15,15,0,0,0,15,15h21v-30Z"/><g class="cls-17"><text class="cls-18" transform="translate(210.59 396.08)">51</text></g><path id="_クリッピングパス_6" data-name="&lt;クリッピングパス&gt;" class="cls-19" d="M219,371.5a15,15,0,0,0-15,15h0a15,15,0,0,0,15,15h21v-30Z"/><text class="cls-20" transform="translate(242.99 391.49)">市立病院経由</text><path id="_クリッピングパス_7" data-name="&lt;クリッピングパス&gt;" class="cls-8" d="M219,407.5a15,15,0,0,0-15,15h0a15,15,0,0,0,15,15h21v-30Z"/><g class="cls-21"><text class="cls-18" transform="translate(210.59 432.08)">52</text></g><path id="_クリッピングパス_8" data-name="&lt;クリッピングパス&gt;" class="cls-19" d="M219,407.5a15,15,0,0,0-15,15h0a15,15,0,0,0,15,15h21v-30Z"/><text class="cls-20" transform="translate(248.99 427.49)">内吉方経由</text><rect class="cls-22" x="-10151" y="-8188" width="11720" height="11720"/></svg>