<svg id="_13zoom" data-name="13zoom" xmlns="http://www.w3.org/2000/svg" xmlns:xlink="http://www.w3.org/1999/xlink" viewBox="0 0 1024 1024"><defs><style>.cls-1,.cls-12,.cls-16,.cls-3,.cls-35,.cls-41{fill:#231815;}.cls-1,.cls-11,.cls-15,.cls-2,.cls-39,.cls-5{stroke:#231815;}.cls-1,.cls-10,.cls-11,.cls-15,.cls-2,.cls-39,.cls-5,.cls-6,.cls-7{stroke-miterlimit:10;}.cls-1,.cls-15,.cls-2{stroke-width:4px;}.cls-14,.cls-2,.cls-39{fill:#fff;}.cls-16,.cls-3{font-size:30px;}.cls-14,.cls-16,.cls-3,.cls-35,.cls-41{font-family:NotoSansMonoCJKjp-Regular-90ms-RKSJ-H, Noto Sans Mono CJK JP;}.cls-21,.cls-22,.cls-23,.cls-24,.cls-25,.cls-26,.cls-27,.cls-28,.cls-29,.cls-30,.cls-31,.cls-32,.cls-33,.cls-34,.cls-4,.cls-41,.cls-9{font-size:20px;}.cls-10,.cls-11,.cls-15,.cls-49,.cls-5,.cls-6,.cls-7{fill:none;}.cls-10,.cls-5,.cls-6,.cls-7{stroke-linecap:round;}.cls-5{stroke-width:8.79px;}.cls-6{stroke:#aace36;}.cls-10,.cls-6,.cls-7{stroke-width:4.4px;}.cls-7{stroke:#ef845d;}.cls-8,.cls-9{letter-spacing:0.25em;}.cls-10{stroke:#f6ad3c;}.cls-11{stroke-width:5px;}.cls-13{clip-path:url(#clip-path);}.cls-14{font-size:48px;}.cls-16{letter-spacing:0.13em;}.cls-17{letter-spacing:0.12em;}.cls-18{letter-spacing:0.1em;}.cls-19{letter-spacing:0.1em;}.cls-20{letter-spacing:0.36em;}.cls-21{letter-spacing:-0.06em;}.cls-22{letter-spacing:-0.11em;}.cls-23{letter-spacing:-0.06em;}.cls-24{letter-spacing:-0.06em;}.cls-25{letter-spacing:-0.05em;}.cls-26{letter-spacing:-0.11em;}.cls-27{letter-spacing:-0.05em;}.cls-28{letter-spacing:-0.02em;}.cls-29{letter-spacing:-0.03em;}.cls-30{letter-spacing:-0.07em;}.cls-31{letter-spacing:-0.06em;}.cls-32{letter-spacing:-0.06em;}.cls-33{letter-spacing:-0.06em;}.cls-34{letter-spacing:-0.07em;}.cls-35{font-size:25px;}.cls-36{letter-spacing:0.07em;}.cls-37{letter-spacing:0.5em;}.cls-38{font-size:15px;}.cls-39{stroke-width:3.48px;}.cls-40{clip-path:url(#clip-path-2);}.cls-42{clip-path:url(#clip-path-3);}.cls-43{letter-spacing:-0.08em;}.cls-44{letter-spacing:-0.02em;}.cls-45{letter-spacing:-0.02em;}.cls-46{letter-spacing:-0.03em;}.cls-47{letter-spacing:-0.03em;}.cls-48{letter-spacing:0.36em;}</style><clipPath id="clip-path"><path id="_クリッピングパス_" data-name="&lt;クリッピングパス&gt;" class="cls-1" d="M367.2,391a25,25,0,0,0-25,25h0a25,25,0,0,0,25,25h35V391Z"/></clipPath><clipPath id="clip-path-2"><path id="_クリッピングパス_2" data-name="&lt;クリッピングパス&gt;" class="cls-1" d="M838,547a25,25,0,0,0-25,25h0a25,25,0,0,0,25,25h35V547Z"/></clipPath><clipPath id="clip-path-3"><path id="_クリッピングパス_3" data-name="&lt;クリッピングパス&gt;" class="cls-1" d="M838,607a25,25,0,0,0-25,25h0a25,25,0,0,0,25,25h35V607Z"/></clipPath></defs><title>3230_7148</title><rect id="_長方形_" data-name="&lt;長方形&gt;" class="cls-2" x="-30.93" y="-31.46" width="400" height="100"/><text class="cls-3" transform="translate(124.07 7.66)">鹿野線<tspan class="cls-4"><tspan x="-70" y="27.2">(local bus)Shikano line</tspan></tspan></text><line class="cls-5" x1="69.07" y1="48.54" x2="269.07" y2="48.54"/><line class="cls-6" x1="69.07" y1="48.54" x2="269.07" y2="48.54"/><rect id="_長方形_2" data-name="&lt;長方形&gt;" class="cls-2" x="-159" y="465" width="400" height="100"/><text class="cls-3" transform="translate(-4 504.12)">湖岸線<tspan class="cls-4"><tspan x="-60" y="27.2">(local bus)Kogan line</tspan></tspan></text><line class="cls-5" x1="-59" y1="545" x2="141" y2="545"/><line class="cls-7" x1="-59" y1="545" x2="141" y2="545"/><rect id="_長方形_3" data-name="&lt;長方形&gt;" class="cls-2" x="818.5" y="682.24" width="400" height="100"/><text class="cls-3" transform="translate(904.75 721.36)">湖山鳥大<tspan class="cls-8" x="120" y="0">線</tspan><tspan class="cls-9" x="157.5" y="-3.8">(</tspan><tspan class="cls-4" x="172.5" y="-3.8">布</tspan><tspan class="cls-9" x="192.5" y="-3.8">勢</tspan><tspan class="cls-4" x="217.5" y="-3.8">)</tspan><tspan class="cls-4"><tspan x="-36.25" y="27.2">(local bus)Koyama Toridai line</tspan></tspan></text><line class="cls-5" x1="918.5" y1="762.24" x2="1118.5" y2="762.24"/><line class="cls-10" x1="918.5" y1="762.24" x2="1118.5" y2="762.24"/><line class="cls-11" x1="1018.5" y1="782.24" x2="1272.72" y2="842.29"/><line class="cls-11" x1="41" y1="565" x2="217.82" y2="641.25"/><path class="cls-12" d="M245.52,653.2c-15.12-.78-34.86.5-48.66,4.92l17.32-18.43,1.52-25.24C222,627.52,234.57,642.75,245.52,653.2Z"/><line class="cls-11" x1="169.07" y1="68.54" x2="251.95" y2="134.02"/><path class="cls-12" d="M275.62,152.72c-14.4-4.67-33.8-8.53-48.27-7.83l21.49-13.33,8-24C259.49,121.81,267.74,139.79,275.62,152.72Z"/><path id="_クリッピングパス_4" data-name="&lt;クリッピングパス&gt;" class="cls-12" d="M367.2,391a25,25,0,0,0-25,25h0a25,25,0,0,0,25,25h35V391Z"/><g class="cls-13"><text class="cls-14" transform="translate(353.2 431.93)">14</text></g><path id="_クリッピングパス_5" data-name="&lt;クリッピングパス&gt;" class="cls-15" d="M367.2,391a25,25,0,0,0-25,25h0a25,25,0,0,0,25,25h35V391Z"/><path class="cls-2" d="M717.2,391h-315v50h315a25,25,0,0,0,25-25h0A25,25,0,0,0,717.2,391Z"/><text class="cls-16" transform="translate(411.59 427.36)">美<tspan class="cls-17" x="33.78" y="0">萩</tspan><tspan class="cls-18" x="67.4" y="0">野</tspan><tspan class="cls-19" x="100.44" y="0">団</tspan><tspan class="cls-20" x="133.49" y="0">地</tspan><tspan class="cls-21" x="173.6" y="-3.8">M</tspan><tspan class="cls-22" x="182.37" y="-3.8">i</tspan><tspan class="cls-23" x="190.23" y="-3.8">h</tspan><tspan class="cls-24" x="199.11" y="-3.8">a</tspan><tspan class="cls-25" x="207.96" y="-3.8">g</tspan><tspan class="cls-26" x="217.01" y="-3.8">i</tspan><tspan class="cls-27" x="224.87" y="-3.8">n</tspan><tspan class="cls-28" x="233.88" y="-3.8">o</tspan><tspan class="cls-29" x="243.44" y="-3.8"> </tspan><tspan class="cls-25" x="252.82" y="-3.8">D</tspan><tspan class="cls-30" x="261.87" y="-3.8">a</tspan><tspan class="cls-31" x="270.55" y="-3.8">n</tspan><tspan class="cls-32" x="279.42" y="-3.8">c</tspan><tspan class="cls-33" x="288.32" y="-3.8">h</tspan><tspan class="cls-34" x="297.08" y="-3.8">i</tspan></text><line class="cls-2" x1="422.16" y1="296.22" x2="562.2" y2="390.96"/><circle class="cls-2" cx="422.16" cy="296.22" r="10"/><path id="_クリッピングパス_6" data-name="&lt;クリッピングパス&gt;" class="cls-12" d="M877.38,467.05a25,25,0,0,0-25,25h0a25,25,0,0,0,25,25h35v-50Z"/><path id="_クリッピングパス_7" data-name="&lt;クリッピングパス&gt;" class="cls-15" d="M877.38,467.05a25,25,0,0,0-25,25h0a25,25,0,0,0,25,25h35v-50Z"/><path class="cls-2" d="M1227.38,467.05h-315v50h315a25,25,0,0,0,25-25h0A25,25,0,0,0,1227.38,467.05Z"/><text class="cls-35" transform="translate(922.38 499.05)"><tspan class="cls-36">鳥大附属</tspan><tspan class="cls-37" x="107.5" y="0">校</tspan><tspan class="cls-38" x="145" y="-3.8">(Tottori Univ. Terminal)</tspan></text><rect class="cls-39" x="803" y="532" width="200" height="140"/><path id="_クリッピングパス_8" data-name="&lt;クリッピングパス&gt;" class="cls-12" d="M838,547a25,25,0,0,0-25,25h0a25,25,0,0,0,25,25h35V547Z"/><g class="cls-40"><text class="cls-14" transform="translate(824 587.97)">10</text></g><path id="_クリッピングパス_9" data-name="&lt;クリッピングパス&gt;" class="cls-15" d="M838,547a25,25,0,0,0-25,25h0a25,25,0,0,0,25,25h35V547Z"/><text class="cls-41" transform="translate(883 565.32)">相生町経由<tspan x="0" y="30">西品治経由</tspan></text><path id="_クリッピングパス_10" data-name="&lt;クリッピングパス&gt;" class="cls-12" d="M838,607a25,25,0,0,0-25,25h0a25,25,0,0,0,25,25h35V607Z"/><g class="cls-42"><text class="cls-14" transform="translate(824 647.97)">13</text></g><path id="_クリッピングパス_11" data-name="&lt;クリッピングパス&gt;" class="cls-15" d="M838,607a25,25,0,0,0-25,25h0a25,25,0,0,0,25,25h35V607Z"/><text class="cls-41" transform="translate(893 640.32)">布勢経由</text><path class="cls-2" d="M104.87,300.74h-315v50h315a25,25,0,0,0,25-25h0A25,25,0,0,0,104.87,300.74Z"/><text class="cls-35" transform="translate(-201.96 332.74)"><tspan class="cls-43">白</tspan><tspan class="cls-44" x="22.98" y="0">兎</tspan><tspan class="cls-45" x="47.46" y="0">養</tspan><tspan class="cls-46" x="71.92" y="0">護</tspan><tspan class="cls-47" x="96.12" y="0">学</tspan><tspan class="cls-48" x="120.4" y="0">校</tspan><tspan class="cls-38" x="154.34" y="-3.8">(Hakuto Special School)</tspan></text><line class="cls-2" x1="38.18" y1="210.72" x2="-50.13" y2="300.74"/><circle class="cls-2" cx="38.18" cy="210.72" r="10"/><rect class="cls-49" x="-4007" y="-3068" width="11720" height="11720"/></svg>