<svg id="_13zoom" data-name="13zoom" xmlns="http://www.w3.org/2000/svg" xmlns:xlink="http://www.w3.org/1999/xlink" viewBox="0 0 1024 1024"><defs><style>.cls-1,.cls-3,.cls-9{fill:#231815;}.cls-1,.cls-12,.cls-2,.cls-5,.cls-8{stroke:#231815;}.cls-1,.cls-12,.cls-2,.cls-5,.cls-6,.cls-7,.cls-8{stroke-miterlimit:10;}.cls-1,.cls-12,.cls-2{stroke-width:4px;}.cls-11,.cls-2{fill:#fff;}.cls-3{font-size:30px;}.cls-11,.cls-3{font-family:NotoSansMonoCJKjp-Regular-90ms-RKSJ-H, Noto Sans Mono CJK JP;}.cls-4{font-size:20px;}.cls-12,.cls-15,.cls-5,.cls-6,.cls-7,.cls-8{fill:none;}.cls-5,.cls-6,.cls-7{stroke-linecap:round;}.cls-5{stroke-width:8.79px;}.cls-6{stroke:#ef845d;}.cls-6,.cls-7{stroke-width:4.4px;}.cls-7{stroke:#187fc4;}.cls-8{stroke-width:5px;}.cls-10{clip-path:url(#clip-path);}.cls-11{font-size:48px;}.cls-13{letter-spacing:0.22em;}.cls-14{letter-spacing:0.5em;}</style><clipPath id="clip-path"><path id="_クリッピングパス_" data-name="&lt;クリッピングパス&gt;" class="cls-1" d="M94.21,545.9a25,25,0,0,0-25,25h0a25,25,0,0,0,25,25h35v-50Z"/></clipPath></defs><title>3231_7148</title><rect id="_長方形_" data-name="&lt;長方形&gt;" class="cls-2" x="810" y="797.08" width="400" height="100"/><text class="cls-3" transform="translate(965 836.2)">東郷線<tspan class="cls-4"><tspan x="-55" y="27.2">(local bus)Togo line</tspan></tspan></text><line class="cls-5" x1="910" y1="877.08" x2="1110" y2="877.08"/><line class="cls-6" x1="910" y1="877.08" x2="1110" y2="877.08"/><rect id="_長方形_2" data-name="&lt;長方形&gt;" class="cls-2" x="-239" y="126.83" width="400" height="100"/><text class="cls-3" transform="translate(-84 165.95)">吉岡線<tspan class="cls-4"><tspan x="-75" y="27.2">(local bus)Yoshioka line</tspan></tspan></text><line class="cls-5" x1="-139" y1="206.83" x2="61" y2="206.83"/><line class="cls-7" x1="-139" y1="206.83" x2="61" y2="206.83"/><rect id="_長方形_3" data-name="&lt;長方形&gt;" class="cls-2" x="941.04" y="135" width="400" height="100"/><text class="cls-3" transform="translate(1096.04 174.12)">松上線<tspan class="cls-4"><tspan x="-80" y="27.2">(local bus)Matsugami line</tspan></tspan></text><line class="cls-8" x1="1010" y1="897.08" x2="1140.62" y2="1036.31"/><line class="cls-8" x1="-39" y1="226.83" x2="71.68" y2="440.08"/><path class="cls-9" d="M85.59,466.86c-11.22-10.18-27.32-21.67-40.8-27l25.07-3.32L87,418C83.58,432.05,83.72,451.83,85.59,466.86Z"/><path id="_クリッピングパス_2" data-name="&lt;クリッピングパス&gt;" class="cls-9" d="M94.21,545.9a25,25,0,0,0-25,25h0a25,25,0,0,0,25,25h35v-50Z"/><g class="cls-10"><text class="cls-11" transform="translate(80.21 586.87)">90</text></g><path id="_クリッピングパス_3" data-name="&lt;クリッピングパス&gt;" class="cls-12" d="M94.21,545.9a25,25,0,0,0-25,25h0a25,25,0,0,0,25,25h35v-50Z"/><path class="cls-2" d="M444.21,545.9h-315v50h315a25,25,0,0,0,25-25h0A25,25,0,0,0,444.21,545.9Z"/><text class="cls-3" transform="translate(149.21 582.31)"><tspan class="cls-13">吉岡温</tspan><tspan class="cls-14" x="110" y="0">泉</tspan><tspan class="cls-4" x="155" y="-3.8">Yoshioka Onsen</tspan></text><line class="cls-2" x1="143.18" y1="425.66" x2="289.21" y2="545.9"/><circle class="cls-2" cx="143.18" cy="425.66" r="10"/><rect class="cls-15" x="-4007" y="-4092" width="11720" height="11720"/></svg>