<svg id="_13zoom" data-name="13zoom" xmlns="http://www.w3.org/2000/svg" xmlns:xlink="http://www.w3.org/1999/xlink" viewBox="0 0 1024 1024"><defs><style>.cls-1,.cls-3,.cls-8{fill:#231815;}.cls-1,.cls-2,.cls-6,.cls-7{stroke:#231815;stroke-miterlimit:10;}.cls-1,.cls-6,.cls-7{stroke-width:4px;}.cls-17,.cls-2,.cls-6{fill:none;}.cls-2{stroke-width:5px;}.cls-4{clip-path:url(#clip-path);}.cls-5{font-size:48px;}.cls-5,.cls-7{fill:#fff;}.cls-5,.cls-8{font-family:NotoSansMonoCJKjp-Regular-90ms-RKSJ-H, Noto Sans Mono CJK JP;}.cls-8{font-size:30px;}.cls-9{letter-spacing:1.47em;}.cls-10{letter-spacing:0.97em;}.cls-11,.cls-12,.cls-16{font-size:20px;}.cls-11{letter-spacing:0.7em;}.cls-13{clip-path:url(#clip-path-2);}.cls-14{letter-spacing:1.33em;}.cls-15{letter-spacing:0.83em;}.cls-16{letter-spacing:0.5em;}</style><clipPath id="clip-path"><path id="_クリッピングパス_" data-name="&lt;クリッピングパス&gt;" class="cls-1" d="M442.2,889.84a25,25,0,0,0-25,25h0a25,25,0,0,0,25,25h35v-50Z"/></clipPath><clipPath id="clip-path-2"><path id="_クリッピングパス_2" data-name="&lt;クリッピングパス&gt;" class="cls-1" d="M940.17,570.35a25,25,0,0,0-25,25h0a25,25,0,0,0,25,25h35v-50Z"/></clipPath></defs><title>3232_7148</title><line class="cls-2" x1="1010" y1="-126.92" x2="1140.62" y2="12.31"/><path id="_クリッピングパス_3" data-name="&lt;クリッピングパス&gt;" class="cls-3" d="M442.2,889.84a25,25,0,0,0-25,25h0a25,25,0,0,0,25,25h35v-50Z"/><g class="cls-4"><text class="cls-5" transform="translate(428.2 930.8)">77</text></g><path id="_クリッピングパス_4" data-name="&lt;クリッピングパス&gt;" class="cls-6" d="M442.2,889.84a25,25,0,0,0-25,25h0a25,25,0,0,0,25,25h35v-50Z"/><path class="cls-7" d="M792.2,889.84h-315v50h315a25,25,0,0,0,25-25h0A25,25,0,0,0,792.2,889.84Z"/><text class="cls-8" transform="translate(527.2 926.24)"><tspan class="cls-9">高</tspan><tspan class="cls-10" x="74" y="0">路</tspan><tspan class="cls-11" x="133" y="-3.8">Kor</tspan><tspan class="cls-12" x="205" y="-3.8">o</tspan></text><line class="cls-7" x1="782.89" y1="768.88" x2="637.2" y2="889.84"/><circle class="cls-7" cx="782.89" cy="768.88" r="10"/><path id="_クリッピングパス_5" data-name="&lt;クリッピングパス&gt;" class="cls-3" d="M940.17,570.35a25,25,0,0,0-25,25h0a25,25,0,0,0,25,25h35v-50Z"/><g class="cls-13"><text class="cls-5" transform="translate(926.17 611.32)">70</text></g><path id="_クリッピングパス_6" data-name="&lt;クリッピングパス&gt;" class="cls-6" d="M940.17,570.35a25,25,0,0,0-25,25h0a25,25,0,0,0,25,25h35v-50Z"/><path class="cls-7" d="M1290.17,570.35h-315v50h315a25,25,0,0,0,25-25h0A25,25,0,0,0,1290.17,570.35Z"/><text class="cls-8" transform="translate(1025.17 606.75)"><tspan class="cls-14">猪</tspan><tspan class="cls-15" x="70" y="0">子</tspan><tspan class="cls-16" x="125" y="-3.8">Inok</tspan><tspan class="cls-12" x="205" y="-3.8">o</tspan></text><rect class="cls-17" x="-4007" y="-5116" width="11720" height="11720"/></svg>