<svg id="_13zoom" data-name="13zoom" xmlns="http://www.w3.org/2000/svg" viewBox="0 0 1024 1024"><defs><style>.cls-1{fill:#fff;}.cls-1,.cls-11,.cls-4,.cls-6{stroke:#231815;}.cls-1,.cls-11,.cls-4,.cls-5,.cls-6{stroke-miterlimit:10;}.cls-1,.cls-11{stroke-width:4px;}.cls-2{font-size:30px;font-family:NotoSansMonoCJKjp-Regular-90ms-RKSJ-H, Noto Sans Mono CJK JP;}.cls-2,.cls-7{fill:#231815;}.cls-10,.cls-14,.cls-3{font-size:20px;}.cls-11,.cls-15,.cls-4,.cls-5,.cls-6{fill:none;}.cls-4,.cls-5{stroke-linecap:round;}.cls-4{stroke-width:8.79px;}.cls-5{stroke:#985d1b;stroke-width:4.4px;}.cls-6{stroke-width:5px;}.cls-8{letter-spacing:1.11em;}.cls-9{letter-spacing:0.61em;}.cls-10{letter-spacing:0.17em;}.cls-12{letter-spacing:1.33em;}.cls-13{letter-spacing:0.83em;}.cls-14{letter-spacing:0.5em;}</style></defs><title>3234_7148</title><rect id="_長方形_" data-name="&lt;長方形&gt;" class="cls-1" x="120.69" y="340.05" width="400" height="100"/><text class="cls-2" transform="translate(275.69 379.17)">西郷線<tspan class="cls-3"><tspan x="-60" y="27.2">(local bus)Saigo line</tspan></tspan></text><line class="cls-4" x1="220.69" y1="420.05" x2="420.69" y2="420.05"/><line class="cls-5" x1="220.69" y1="420.05" x2="420.69" y2="420.05"/><line class="cls-6" x1="320.69" y1="340.05" x2="374" y2="136.7"/><path class="cls-7" d="M381.66,107.51c1.49,15.07,5.72,34.39,12.16,47.37L373,140.53l-25.18,2.29C359.8,134.67,373,119.91,381.66,107.51Z"/><path class="cls-1" d="M73.94,149.91h-315v50h315a25,25,0,0,0,25-25h0A25,25,0,0,0,73.94,149.91Z"/><text class="cls-2" transform="translate(-191.06 186.31)"><tspan class="cls-8">北</tspan><tspan class="cls-9" x="63.33" y="0">村</tspan><tspan class="cls-10" x="111.67" y="-3.8">Kitamur</tspan><tspan class="cls-3" x="205" y="-3.8">a</tspan></text><line class="cls-1" x1="126.68" y1="242.51" x2="-81.06" y2="199.91"/><circle class="cls-1" cx="126.68" cy="242.51" r="10"/><path id="_クリッピングパス_" data-name="&lt;クリッピングパス&gt;" class="cls-7" d="M878.89,976.36a25,25,0,0,0-25,25h0a25,25,0,0,0,25,25h35v-50Z"/><path id="_クリッピングパス_2" data-name="&lt;クリッピングパス&gt;" class="cls-11" d="M878.89,976.36a25,25,0,0,0-25,25h0a25,25,0,0,0,25,25h35v-50Z"/><path class="cls-1" d="M1228.89,976.36h-315v50h315a25,25,0,0,0,25-25h0A25,25,0,0,0,1228.89,976.36Z"/><text class="cls-2" transform="translate(963.89 1012.76)"><tspan class="cls-12">小</tspan><tspan class="cls-13" x="70" y="0">倉</tspan><tspan class="cls-14" x="125" y="-3.8">Ogur</tspan><tspan class="cls-3" x="205" y="-3.8">a</tspan></text><rect class="cls-15" x="-4007" y="-7164" width="11720" height="11720"/></svg>