<svg id="_13zoom" data-name="13zoom" xmlns="http://www.w3.org/2000/svg" viewBox="0 0 1024 1024"><defs><style>.cls-1,.cls-4,.cls-9{fill:#231815;}.cls-19,.cls-2{fill:none;}.cls-2,.cls-3{stroke:#231815;stroke-miterlimit:10;stroke-width:4px;}.cls-3{fill:#fff;}.cls-4{font-size:30px;}.cls-4,.cls-9{font-family:NotoSansMonoCJKjp-Regular-90ms-RKSJ-H, Noto Sans Mono CJK JP;}.cls-5{letter-spacing:1.33em;}.cls-6{letter-spacing:0.83em;}.cls-7,.cls-8{font-size:20px;}.cls-7{letter-spacing:0.5em;}.cls-9{font-size:25px;}.cls-10{letter-spacing:-0.03em;}.cls-11{letter-spacing:-0.06em;}.cls-12{letter-spacing:-0.02em;}.cls-13{letter-spacing:-0.02em;}.cls-14{letter-spacing:-0.03em;}.cls-15{letter-spacing:-0.02em;}.cls-16{letter-spacing:-0.05em;}.cls-17{letter-spacing:0.26em;}.cls-18{font-size:15px;}</style></defs><title>3235_7148</title><path id="_クリッピングパス_" data-name="&lt;クリッピングパス&gt;" class="cls-1" d="M878.89-47.64a25,25,0,0,0-25,25h0a25,25,0,0,0,25,25h35v-50Z"/><path id="_クリッピングパス_2" data-name="&lt;クリッピングパス&gt;" class="cls-2" d="M878.89-47.64a25,25,0,0,0-25,25h0a25,25,0,0,0,25,25h35v-50Z"/><path class="cls-3" d="M1228.89-47.64h-315v50h315a25,25,0,0,0,25-25h0A25,25,0,0,0,1228.89-47.64Z"/><text class="cls-4" transform="translate(963.89 -11.24)"><tspan class="cls-5">小</tspan><tspan class="cls-6" x="70" y="0">倉</tspan><tspan class="cls-7" x="125" y="-3.8">Ogur</tspan><tspan class="cls-8" x="205" y="-3.8">a</tspan></text><path class="cls-3" d="M14.84,731.37h-315v50h315a25,25,0,0,0,25-25h0A25,25,0,0,0,14.84,731.37Z"/><text class="cls-9" transform="translate(-300.62 763.37)"><tspan class="cls-10">佐</tspan><tspan class="cls-11" x="24.13" y="0">治</tspan><tspan class="cls-12" x="47.62" y="0">町</tspan><tspan class="cls-13" x="72.07" y="0">総</tspan><tspan class="cls-14" x="96.47" y="0">合</tspan><tspan class="cls-15" x="120.78" y="0">支</tspan><tspan class="cls-16" x="145.19" y="0">所</tspan><tspan class="cls-17" x="169.06" y="0">前</tspan><tspan class="cls-18" x="200.46" y="-3.8">(Saji Town Office)</tspan></text><rect class="cls-19" x="-4007" y="-8188" width="11720" height="11720"/></svg>