<svg id="_13zoom" data-name="13zoom" xmlns="http://www.w3.org/2000/svg" viewBox="0 0 1024 1024"><defs><style>.cls-1{fill:#fff;stroke-width:4px;}.cls-1,.cls-4,.cls-6{stroke:#231815;}.cls-1,.cls-4,.cls-5,.cls-6{stroke-miterlimit:10;}.cls-2{font-size:30px;font-family:NotoSansMonoCJKjp-Regular-90ms-RKSJ-H, Noto Sans Mono CJK JP;}.cls-2,.cls-7{fill:#231815;}.cls-10,.cls-3{font-size:20px;}.cls-11,.cls-4,.cls-5,.cls-6{fill:none;}.cls-4,.cls-5{stroke-linecap:round;}.cls-4{stroke-width:8.79px;}.cls-5{stroke:#ebca1b;stroke-width:4.4px;}.cls-6{stroke-width:5px;}.cls-8{letter-spacing:1.33em;}.cls-9{letter-spacing:0.83em;}.cls-10{letter-spacing:0.5em;}</style></defs><title>3236_7148</title><rect id="_長方形_" data-name="&lt;長方形&gt;" class="cls-1" x="504.72" y="236.18" width="400" height="100"/><text class="cls-2" transform="translate(629.72 275.3)">江波赤波線<tspan class="cls-3"><tspan x="-70" y="27.2">(local bus)Enami Aganami line</tspan></tspan></text><line class="cls-4" x1="604.72" y1="316.18" x2="804.72" y2="316.18"/><line class="cls-5" x1="604.72" y1="316.18" x2="804.72" y2="316.18"/><line class="cls-6" x1="704.72" y1="236.18" x2="649.61" y2="161.58"/><path class="cls-7" d="M631.68,137.31c12.67,8.29,30.37,17.12,44.52,20.25L652,164.77l-14,21C639.12,171.37,635.88,151.86,631.68,137.31Z"/><path class="cls-1" d="M210.44,348.79h-315v50h315a25,25,0,0,0,25-25h0A25,25,0,0,0,210.44,348.79Z"/><text class="cls-2" transform="translate(-54.56 385.19)"><tspan class="cls-8">江</tspan><tspan class="cls-9" x="70" y="0">波</tspan><tspan class="cls-10" x="125" y="-3.8">Enam</tspan><tspan class="cls-3" x="205" y="-3.8">i</tspan></text><line class="cls-1" x1="296.17" y1="259.91" x2="55.44" y2="348.79"/><circle class="cls-1" cx="296.17" cy="259.91" r="10"/><rect class="cls-11" x="-4007" y="-9212" width="11720" height="11720"/></svg>