<svg id="routes" xmlns="http://www.w3.org/2000/svg" xmlns:xlink="http://www.w3.org/1999/xlink" viewBox="0 0 1024 1024"><defs><style>.cls-1,.cls-10,.cls-11,.cls-12,.cls-13,.cls-14,.cls-15,.cls-16,.cls-17,.cls-18,.cls-19,.cls-20,.cls-21,.cls-22,.cls-23,.cls-24,.cls-25,.cls-3,.cls-4,.cls-5,.cls-6,.cls-7,.cls-8,.cls-9{fill:none;}.cls-2{clip-path:url(#clip-path);}.cls-10,.cls-11,.cls-12,.cls-13,.cls-15,.cls-17,.cls-18,.cls-19,.cls-20,.cls-23,.cls-25,.cls-3,.cls-7,.cls-9{stroke:#231815;}.cls-10,.cls-11,.cls-12,.cls-13,.cls-14,.cls-15,.cls-16,.cls-17,.cls-18,.cls-19,.cls-20,.cls-21,.cls-22,.cls-23,.cls-24,.cls-25,.cls-3,.cls-4,.cls-5,.cls-6,.cls-7,.cls-8,.cls-9{stroke-linecap:round;stroke-miterlimit:10;}.cls-14,.cls-16,.cls-21,.cls-22,.cls-24,.cls-25,.cls-3,.cls-7,.cls-8{stroke-width:8.79px;}.cls-4{stroke:#00ada9;}.cls-10,.cls-11,.cls-12,.cls-13,.cls-15,.cls-17,.cls-18,.cls-19,.cls-20,.cls-23,.cls-4,.cls-5,.cls-6,.cls-9{stroke-width:4.4px;}.cls-5{stroke:#ed6d46;}.cls-6{stroke:#aace36;}.cls-7{stroke-dasharray:0 28.99;}.cls-8{stroke:#70b058;}.cls-9{stroke-dasharray:0 28.33;}.cls-11{stroke-dasharray:0 28.72;}.cls-12{stroke-dasharray:0 32.51;}.cls-13{stroke-dasharray:0 27.16;}.cls-14{stroke:#59c3e1;}.cls-15{stroke-dasharray:0 29.3;}.cls-16{stroke:#a97443;}.cls-17{stroke-dasharray:0 30.52;}.cls-18{stroke-dasharray:0 28.75;}.cls-19{stroke-dasharray:0 28.87;}.cls-20{stroke-dasharray:0 28.64;}.cls-21{stroke:#dae24a;}.cls-22{stroke:#718cc7;}.cls-23{stroke-dasharray:0 28.51;}.cls-24{stroke:#e7336e;}.cls-25{stroke-dasharray:0 29.41;}</style><clipPath id="clip-path"><rect class="cls-1" x="-7079" y="-4092" width="11720" height="11720"/></clipPath></defs><title>3231_7151</title><g class="cls-2"><g id="日ノ丸線"><g id="中河原"><path class="cls-3" d="M-289.56,123.82l26.49,2.71,6.62.67c2.21.21,4.42.43,6.61.78l13.18,1.9c4.39.6,8.77,1.33,13.18,1.82l13.23,1.56c4.41.47,8.79,1.21,13.18,1.85s8.74,1.5,13.1,2.32l9.31,2.68c5.08,2,10.25,3.85,15.4,5.7l1,.35c.29.16.42.52.64.78l1.2,1.67c.75,1.14,1.29,2.41,1.95,3.6l3.79,7.29c1.54,2.26,3,4.56,4.63,6.77l3.73,3,2.84,1.16c3.44.82,6.92,1.44,10.38,2.18l4.85,1.86,5.75,3c2.68,1.8,5.39,3.54,8,5.38s5.25,3.75,7.91,5.56l15.91,11c5.29,3.7,10.62,7.33,15.85,11.1s10.12,8,15.36,11.76l15.84,11.12c5.3,3.66,10.51,7.47,15.9,11s10.56,7.4,16,10.94l8.11,5.28,4.05,2.64,4.16,2.47L23.09,276c4.84,3.43,9.68,6.87,14.59,10.21L67,306.5c19.67,13.32,38.93,27.23,58.9,40.09h0l12.46,9.67,6,3.93,5.9,4,23.59,16.17,23.58,16.18L221,412.64M598.56,687l-1.6-2.77-6.23-10.76-12.16-24-9.74-18.9L561,614l-.93-1.7-3.44-7.55L554,601.3l-6.73-8.75-6.88-8-9-9.67-7-5.65-6.22-3.35-8.1-4.42L503.1,559l-9.41-2.7-7.27-1.79L478.71,552,476.45,551l-11.74-4.16-28.07-12-1.12-1.29-9.53-5.1-1.49-1-5.17-3.42L404.79,516l-10.38-4.4-7.9-3.42-1.66-.16-14.11-5-10.48-4.13-1.6-.31-.52-.2L349.72,495l-10.84-4.42-7.78-3.15-7.5-2.74-6-2.69-2.41-1.46L296.59,466l-3.44-2.71-5.63-3.94-9-6.66-12.08-8.37-25.94-17.92L221,412.64m743,538.1,5.78-7.89,10.35-25.92,3.14-8.52,2.24-5.57,1-1.24.54-5.38,5-51,.64-11.31.68-10.56,1.74-26.52.21-17.24.29-13-.12-13.07-.23-9.91,0-7.63-1.06-15.1M176.09,320.8l9.71,22.9,3,11.22,39.69-4.27,2.7-19.49-3.09-10.84L217.85,318l-24,1.77-17.79,1.08-15.77,1.43-18.17,2-5.3.13-21.49,15.34M424.5,527.33,422.85,530,417,545.56l-.41,1-2.32,4.05-7,21.42-.4,1-1.82,4.7-3.46,6.51L400.31,586l-2.81,3.68-4.06,4.34-.87.8-6,5.52-8.15,8-4,3.45-6.72,5.73-2.4,6.29-2.53,6.33-1.15,4.71L360,647.42l-.72,9.2-.53,6.82-1.6,25.06L355.23,718l37.71,1.7,43.9,2.52,2.68.12,31,1.93,11,.08,10.69-.47,2.74.22.93-25,1.85-27.85,0-.83,50.85,2.84,5.41.53,3.71,1.34,2.89,1.88,2.55,2.69,4.15,8.14,1.74,3.85,2.5,5.52,2.77-1,15.41-5.86,1.15-.44,7.66-3m0,0,6.19-1.27,10.13-1,3.49,3.22,17.49,13,16.2,11.55,3.84,3,5.22,3.27,30,22.67,51.37,37.84,17.78,13.19,12.52,9.28,3.37,2.15,2.36,1.51,7.29,4.68,7.57,4.59,23.36,14.35,13.07,8.47,5.26,3.4,9.4,7.68,6.31,5,5.89,6.21.68.87,1.33,1.52,3.27,3.75-1.31,3.12-1.47,3.53-1.82,5.25,16.9,6.65,10.5,5.86,20,13.69,16,12.78L959.66,948l4.33,2.73,8.18,5.29L985,966.44l23.59,18,1.88,1.18,5.65,4.68,7,5.63,5.24,4.18,3.88,4.49,3.81,7.07,3.65,10.88,3,10,.06.35,1.16,7.33.12,1.69.41,5.31.14,1.81.84,18.47.76,9,.61,7.12.46,2.9.75,2.39,3.76,3.5,6.12,4.44,4.59,1.38,6,1.22,6.63,1.27,5.62,2.07,8.76,4.08,9.92,5.54,8.54,3.92,35.84,14.23,18.76,7.23,11.15,2.69,2.39.62,8-5.24,12.3-8.22,6.54-1.85,6-.53,11-1.16,8.39-.15,6.54.37,9,1.63,8.09,3.24,25.72,15,1.14.63,32.35,17.53,52.42,27,15.89,7.34,16.72,11.32,10.24,4.39,13.86,7.55,12.09,9.62,2.39,2.32,21,17.55,13.47,13.55,14.17,15,5.49,7.66,6.36,9.55,13,25.08,12.32,26.89,29.14,70.31,5.79,13.91,11,20.64,17,24.63,13.06,17,37.71,37.56,3.31,3.56,15.69,17.88,5.23,6.9,1.68,1.9,3.17,9.23,11.16,15.27,9.92,11.48,4.46,2.68,5.91,1.67,14,.25,16.75-1.14,9.82-4,4.12-5.68,4.91-4.46,9.59-4.57,12.38-3.11,94.08-26,32.94-9.35,4.6-.92,33.59-.11,4.19-1.32,3.43-2.34,2.33-2.94,1.39-2.66.19-11-2-8.83"/><path class="cls-4" d="M-289.56,123.82l26.49,2.71,6.62.67c2.21.21,4.42.43,6.61.78l13.18,1.9c4.39.6,8.77,1.33,13.18,1.82l13.23,1.56c4.41.47,8.79,1.21,13.18,1.85s8.74,1.5,13.1,2.32l9.31,2.68c5.08,2,10.25,3.85,15.4,5.7l1,.35c.29.16.42.52.64.78l1.2,1.67c.75,1.14,1.29,2.41,1.95,3.6l3.79,7.29c1.54,2.26,3,4.56,4.63,6.77l3.73,3,2.84,1.16c3.44.82,6.92,1.44,10.38,2.18l4.85,1.86,5.75,3c2.68,1.8,5.39,3.54,8,5.38s5.25,3.75,7.91,5.56l15.91,11c5.29,3.7,10.62,7.33,15.85,11.1s10.12,8,15.36,11.76l15.84,11.12c5.3,3.66,10.51,7.47,15.9,11s10.56,7.4,16,10.94l8.11,5.28,4.05,2.64,4.16,2.47L23.09,276c4.84,3.43,9.68,6.87,14.59,10.21L67,306.5c19.67,13.32,38.93,27.23,58.9,40.09h0l12.46,9.67,6,3.93,5.9,4,23.59,16.17,23.58,16.18L221,412.64M598.56,687l-1.6-2.77-6.23-10.76-12.16-24-9.74-18.9L561,614l-.93-1.7-3.44-7.55L554,601.3l-6.73-8.75-6.88-8-9-9.67-7-5.65-6.22-3.35-8.1-4.42L503.1,559l-9.41-2.7-7.27-1.79L478.71,552,476.45,551l-11.74-4.16-28.07-12-1.12-1.29-9.53-5.1-1.49-1-5.17-3.42L404.79,516l-10.38-4.4-7.9-3.42-1.66-.16-14.11-5-10.48-4.13-1.6-.31-.52-.2L349.72,495l-10.84-4.42-7.78-3.15-7.5-2.74-6-2.69-2.41-1.46L296.59,466l-3.44-2.71-5.63-3.94-9-6.66-12.08-8.37-25.94-17.92L221,412.64m743,538.1,5.78-7.89,10.35-25.92,3.14-8.52,2.24-5.57,1-1.24.54-5.38,5-51,.64-11.31.68-10.56,1.74-26.52.21-17.24.29-13-.12-13.07-.23-9.91,0-7.63-1.06-15.1M176.09,320.8l9.71,22.9,3,11.22,39.69-4.27,2.7-19.49-3.09-10.84L217.85,318l-24,1.77-17.79,1.08-15.77,1.43-18.17,2-5.3.13-21.49,15.34M424.5,527.33,422.85,530,417,545.56l-.41,1-2.32,4.05-7,21.42-.4,1-1.82,4.7-3.46,6.51L400.31,586l-2.81,3.68-4.06,4.34-.87.8-6,5.52-8.15,8-4,3.45-6.72,5.73-2.4,6.29-2.53,6.33-1.15,4.71L360,647.42l-.72,9.2-.53,6.82-1.6,25.06L355.23,718l37.71,1.7,43.9,2.52,2.68.12,31,1.93,11,.08,10.69-.47,2.74.22.93-25,1.85-27.85,0-.83,50.85,2.84,5.41.53,3.71,1.34,2.89,1.88,2.55,2.69,4.15,8.14,1.74,3.85,2.5,5.52,2.77-1,15.41-5.86,1.15-.44,7.66-3m0,0,6.19-1.27,10.13-1,3.49,3.22,17.49,13,16.2,11.55,3.84,3,5.22,3.27,30,22.67,51.37,37.84,17.78,13.19,12.52,9.28,3.37,2.15,2.36,1.51,7.29,4.68,7.57,4.59,23.36,14.35,13.07,8.47,5.26,3.4,9.4,7.68,6.31,5,5.89,6.21.68.87,1.33,1.52,3.27,3.75-1.31,3.12-1.47,3.53-1.82,5.25,16.9,6.65,10.5,5.86,20,13.69,16,12.78L959.66,948l4.33,2.73,8.18,5.29L985,966.44l23.59,18,1.88,1.18,5.65,4.68,7,5.63,5.24,4.18,3.88,4.49,3.81,7.07,3.65,10.88,3,10,.06.35,1.16,7.33.12,1.69.41,5.31.14,1.81.84,18.47.76,9,.61,7.12.46,2.9.75,2.39,3.76,3.5,6.12,4.44,4.59,1.38,6,1.22,6.63,1.27,5.62,2.07,8.76,4.08,9.92,5.54,8.54,3.92,35.84,14.23,18.76,7.23,11.15,2.69,2.39.62,8-5.24,12.3-8.22,6.54-1.85,6-.53,11-1.16,8.39-.15,6.54.37,9,1.63,8.09,3.24,25.72,15,1.14.63,32.35,17.53,52.42,27,15.89,7.34,16.72,11.32,10.24,4.39,13.86,7.55,12.09,9.62,2.39,2.32,21,17.55,13.47,13.55,14.17,15,5.49,7.66,6.36,9.55,13,25.08,12.32,26.89,29.14,70.31,5.79,13.91,11,20.64,17,24.63,13.06,17,37.71,37.56,3.31,3.56,15.69,17.88,5.23,6.9,1.68,1.9,3.17,9.23,11.16,15.27,9.92,11.48,4.46,2.68,5.91,1.67,14,.25,16.75-1.14,9.82-4,4.12-5.68,4.91-4.46,9.59-4.57,12.38-3.11,94.08-26,32.94-9.35,4.6-.92,33.59-.11,4.19-1.32,3.43-2.34,2.33-2.94,1.39-2.66.19-11-2-8.83"/></g><g id="岩倉"><path class="cls-3" d="M194.66,331.42l2.86,10.78,8.74-.94L218.11,340l1.1-8-.52-1.82-1.75-.41-11.55.86-10.73.79-6.12.37-7.13.43-4.63.28-6.09.55-9.3.85-18.45,2-2.2.06-11.35,8.09-1.07.77-2.45,1.75-6.47,9.77-14.87-9.82c-5.14-3.27-9.9-6.76-14.83-10.14-9.82-6.87-19.53-13.49-29.39-20.25L31,295.85c-4.89-3.33-9.81-6.82-14.66-10.26l-14.15-10-4-2.37-4.16-2.7-8.32-5.42c-5.49-3.6-10.62-7.47-16-11-2.7-1.75-5.36-3.65-8-5.51l-8-5.6-16-11.23c-1.36-1-2.84-2.07-4.11-3.08l-3.89-3.06-3.69-2.9c-1.18-1-2.45-1.86-3.71-2.76l-3.78-2.69-3.93-2.74-7.91-5.5-15.93-11-4-2.76-3.86-2.77c-1.29-.93-2.61-1.75-3.91-2.64l-3.43-2.27-4.61-2.41-3.32-1.27-4.3-.88-2.66-.55-3.66-.82-5.3-2.17-6.33-5.06-2.08-2.92-.74-1.08-.59-.87-2.72-4-3.81-7.33c-.28-.52-.59-1.18-.84-1.58l-.37-.51c-.06-.07-.1-.18-.19-.23l-.3-.11-4.75-1.71q-2-.68-3.93-1.47l-3.41-1.33-8.29-2.38-5.83-1.12c-2.13-.46-4.2-.69-6.29-1-4.28-.62-8.61-1.36-12.89-1.81L-225,143.33c-4.46-.5-8.87-1.24-13.31-1.84l-13.08-1.89c-2.1-.34-4.29-.55-6.48-.77l-6.56-.66-25.83-2.63"/><path class="cls-5" d="M194.66,331.42l2.86,10.78,8.74-.94L218.11,340l1.1-8-.52-1.82-1.75-.41-11.55.86-10.73.79-6.12.37-7.13.43-4.63.28-6.09.55-9.3.85-18.45,2-2.2.06-11.35,8.09-1.07.77-2.45,1.75-6.47,9.77-14.87-9.82c-5.14-3.27-9.9-6.76-14.83-10.14-9.82-6.87-19.53-13.49-29.39-20.25L31,295.85c-4.89-3.33-9.81-6.82-14.66-10.26l-14.15-10-4-2.37-4.16-2.7-8.32-5.42c-5.49-3.6-10.62-7.47-16-11-2.7-1.75-5.36-3.65-8-5.51l-8-5.6-16-11.23c-1.36-1-2.84-2.07-4.11-3.08l-3.89-3.06-3.69-2.9c-1.18-1-2.45-1.86-3.71-2.76l-3.78-2.69-3.93-2.74-7.91-5.5-15.93-11-4-2.76-3.86-2.77c-1.29-.93-2.61-1.75-3.91-2.64l-3.43-2.27-4.61-2.41-3.32-1.27-4.3-.88-2.66-.55-3.66-.82-5.3-2.17-6.33-5.06-2.08-2.92-.74-1.08-.59-.87-2.72-4-3.81-7.33c-.28-.52-.59-1.18-.84-1.58l-.37-.51c-.06-.07-.1-.18-.19-.23l-.3-.11-4.75-1.71q-2-.68-3.93-1.47l-3.41-1.33-8.29-2.38-5.83-1.12c-2.13-.46-4.2-.69-6.29-1-4.28-.62-8.61-1.36-12.89-1.81L-225,143.33c-4.46-.5-8.87-1.24-13.31-1.84l-13.08-1.89c-2.1-.34-4.29-.55-6.48-.77l-6.56-.66-25.83-2.63"/></g><g id="百谷"><path class="cls-3" d="M32.3,118.64l.82,1.3.46,1.26.34,1.57,0,1.77-.24,1.84-1.95,8.49-2.56,8-1.13,2.63-1.71,4-2.44,5.77-5.09,12-.8,2.42V172l.33,2.6.29,2.32.18,1.46L20,192.44l.15,2.6.06.8-.44,3.49L18.93,203,18,206.74l-1,4-.47,2L15.35,218l-1.43,6.39-.33,1.79L12.5,231l-1.2,5.31-.77,3.9-.39,1.94-1.65,6.45-.73,2.89-1.13-.73-7.9-5.14c-5.29-3.47-10.47-7.38-15.86-10.88-2.71-1.75-5.3-3.61-7.92-5.44l-7.86-5.5-15.67-11c-1.21-.91-2.38-1.73-3.62-2.72l-3.72-2.92-3.92-3.08c-1.31-1.07-2.68-2-4-3l-4.1-2.92-4-2.8-8-5.54-15.89-11-4-2.73-4-2.86c-1.33-1-2.74-1.85-4.11-2.78l-4.63-3.07-6.89-3.6-6.39-2.45-6.09-1.24-2.53-.52-3-1.4c.27.45-2.6-3.84-3.14-4.63l-1.59-3.06-.94-1.82-.5-.95-.78-1.37-1.54-2.75-.78-1.38-.39-.68-.49-.7-2-2.81-.5-.7-.25-.35-.13-.18a1.63,1.63,0,0,0-.19-.09l-1.58-.65c-1.06-.43-2.11-.9-3.18-1.3l-3.22-1.15-4.21-1.52c-1.28-.44-2.54-.91-3.76-1.4L-170.9,129l-10.33-3-7.24-1.4c-2.21-.47-4.56-.75-6.86-1.11-4.49-.65-8.92-1.4-13.47-1.89L-222,120.08c-4.36-.49-8.71-1.22-13.07-1.81l-13.27-1.91c-2.28-.37-4.51-.59-6.74-.8l-6.69-.68-27.15-2.77M32.3,118.64l.85-.36,5.72-2.94,1.26-.57,10.8-4.88,2.78-1.19,18.49-7.84L78.64,98l6-2.7,1.64-.73,6.31-2.73,10.77-6.46,11.32-7.56,2.45-1.89,2.44-2,10.6-9.82,6.08-6.55,3.93-4.23,2.32-4.11,2.88-4.33,2.71-3.4,3.4-3.14,2.5-1.79,6.25-4,2.64-2.16,16.54-14.69,4.18-3.56,4.7-2.81,3.47-2,1.45-1,13-4.84,8.12-2.68,5.26-1.78,6.67-1.88,4.08-.08,2.9,0,11.05.39,14.27.24,10.21.63,17.9.06,14.22.19,3.35-.46,9.62-.61,6.25-1.27,5.7-1.51,4.39-2.38,6.1-4.19,5.92-6.47,1.59-2.82,9.81-14.88,1.33-2,4.64-7,8.55-10,8.54-8.13,6.92-5.19,3.45-2.6,13.85-10.19,4.37-4.55,4.41-5.73,8.08-10.47,10-10.52,18.88-15.06,12-9.72,7.46-4.42,7.37-2.77,10.18-2.2L495.43-151l8-2.86,5-2.82,7.42-5.12L522-166l3.95-2.95,15.63-10.19,5.12-2.48,7.28-4.8,4-3.84,2.21-4.88.42-5.08-1-4.69-1-2.77-3.15-8L555-219.6l1.45-28.49,0-8.13,0-7.65-1.41-9.39-2.39-12-6.39-16.34-2.72-7.08-9-23.2-.19-.93-1-5L532-347l-.19-6.82.75-8.86,2.34-10.59,1.94-4.72-3.16-2.48-4.9-3.5-10.85-5-6.3-2.27-7.06-.84-8.82-.67-4-1.18-2.6-1.34-2.6-1.43L484.32-399l-1.85-3.53L481.13-406l-.26-4.37.93-14.54,1.43-27.73-.34-6-1.36-15.52-.62-8-1.37-4.9-4.91-7.72L468.87-503,467-505.94l-2-2.76-2.29-3.83-1.81-2.21-1.56-2.3-3.56,1.79-2.51,1.57"/><path class="cls-6" d="M32.3,118.64l.82,1.3.46,1.26.34,1.57,0,1.77-.24,1.84-1.95,8.49-2.56,8-1.13,2.63-1.71,4-2.44,5.77-5.09,12-.8,2.42V172l.33,2.6.29,2.32.18,1.46L20,192.44l.15,2.6.06.8-.44,3.49L18.93,203,18,206.74l-1,4-.47,2L15.35,218l-1.43,6.39-.33,1.79L12.5,231l-1.2,5.31-.77,3.9-.39,1.94-1.65,6.45-.73,2.89-1.13-.73-7.9-5.14c-5.29-3.47-10.47-7.38-15.86-10.88-2.71-1.75-5.3-3.61-7.92-5.44l-7.86-5.5-15.67-11c-1.21-.91-2.38-1.73-3.62-2.72l-3.72-2.92-3.92-3.08c-1.31-1.07-2.68-2-4-3l-4.1-2.92-4-2.8-8-5.54-15.89-11-4-2.73-4-2.86c-1.33-1-2.74-1.85-4.11-2.78l-4.63-3.07-6.89-3.6-6.39-2.45-6.09-1.24-2.53-.52-3-1.4c.27.45-2.6-3.84-3.14-4.63l-1.59-3.06-.94-1.82-.5-.95-.78-1.37-1.54-2.75-.78-1.38-.39-.68-.49-.7-2-2.81-.5-.7-.25-.35-.13-.18a1.63,1.63,0,0,0-.19-.09l-1.58-.65c-1.06-.43-2.11-.9-3.18-1.3l-3.22-1.15-4.21-1.52c-1.28-.44-2.54-.91-3.76-1.4L-170.9,129l-10.33-3-7.24-1.4c-2.21-.47-4.56-.75-6.86-1.11-4.49-.65-8.92-1.4-13.47-1.89L-222,120.08c-4.36-.49-8.71-1.22-13.07-1.81l-13.27-1.91c-2.28-.37-4.51-.59-6.74-.8l-6.69-.68-27.15-2.77M32.3,118.64l.85-.36,5.72-2.94,1.26-.57,10.8-4.88,2.78-1.19,18.49-7.84L78.64,98l6-2.7,1.64-.73,6.31-2.73,10.77-6.46,11.32-7.56,2.45-1.89,2.44-2,10.6-9.82,6.08-6.55,3.93-4.23,2.32-4.11,2.88-4.33,2.71-3.4,3.4-3.14,2.5-1.79,6.25-4,2.64-2.16,16.54-14.69,4.18-3.56,4.7-2.81,3.47-2,1.45-1,13-4.84,8.12-2.68,5.26-1.78,6.67-1.88,4.08-.08,2.9,0,11.05.39,14.27.24,10.21.63,17.9.06,14.22.19,3.35-.46,9.62-.61,6.25-1.27,5.7-1.51,4.39-2.38,6.1-4.19,5.92-6.47,1.59-2.82,9.81-14.88,1.33-2,4.64-7,8.55-10,8.54-8.13,6.92-5.19,3.45-2.6,13.85-10.19,4.37-4.55,4.41-5.73,8.08-10.47,10-10.52,18.88-15.06,12-9.72,7.46-4.42,7.37-2.77,10.18-2.2L495.43-151l8-2.86,5-2.82,7.42-5.12L522-166l3.95-2.95,15.63-10.19,5.12-2.48,7.28-4.8,4-3.84,2.21-4.88.42-5.08-1-4.69-1-2.77-3.15-8L555-219.6l1.45-28.49,0-8.13,0-7.65-1.41-9.39-2.39-12-6.39-16.34-2.72-7.08-9-23.2-.19-.93-1-5L532-347l-.19-6.82.75-8.86,2.34-10.59,1.94-4.72-3.16-2.48-4.9-3.5-10.85-5-6.3-2.27-7.06-.84-8.82-.67-4-1.18-2.6-1.34-2.6-1.43L484.32-399l-1.85-3.53L481.13-406l-.26-4.37.93-14.54,1.43-27.73-.34-6-1.36-15.52-.62-8-1.37-4.9-4.91-7.72L468.87-503,467-505.94l-2-2.76-2.29-3.83-1.81-2.21-1.56-2.3-3.56,1.79-2.51,1.57"/></g><g id="まる"><polyline class="cls-7" points="-105.97 156.26 -102.88 155.92 -97.12 155.28 -89.14 154.57 -75.08 153.33 -68.84 152.81 -59.87 151.96 -54.15 151.43 -50.91 151.12 -44.91 150.18 -40.6 149.37 -35.05 147.94 -29.97 145.87 -26.56 144.19 -20.89 141.47 -19.63 140.93 -11.66 137.46 -5.51 134.78 -2.13 133.31 0.56 132.28 18.98 124.36"/><line class="cls-3" x1="32.3" y1="118.64" x2="32.3" y2="118.64"/></g></g><g id="日交線"><g id="面影桜谷"><path class="cls-8" d="M-309,272.84l54.65,13.51,15.86,4.31c5.3,1.4,10.66,2.67,16,4l16,4,7.93,1.93,7.86,2.11,30.07,13.19,2.6.8c1.08.34,2.16.61,3.24,1l6.05,2.14,2.51,1.13,3.74,2.09c1.37.81,2.71,1.72,4.07,2.58l8.46,5.33,4.24,2.68,4,2.88,8.18,5.87,8.36,6,8.46,5.92L-79.9,366-63,377.83l8.45,5.9c1.38,1,2.92,1.86,4.24,2.83l4.07,2.84,33.44,23.72c7.09,4.91,14.13,9.63,21.2,14.46,2.86,1.92,5.7,3.89,8.54,5.87l-1.3,11.12-4.32,37.11L10.25,491,10,493.22l-.26,2.07-.15,1-.16.93-.16.89-.18.85-.2.8-.1.39-.11.37-.22.71-.25.72-.3.77-.34.79-.37.83-.41.87L5.87,507l-1,1.92-2.24,4.17-4.44,8.31L-4,525.54l-1,1.76-1.07,1.87-1.26,2.19L-8,532.57l-.68,1.31-.69,1.42-.34.76-.16.38-.17.41-.36.9-.32.94-.16.47-.15.47-.27,1-.06.24-.06.24-.11.48-.11.48-.05.25,0,.24-.15,1-.08.49-.05.49-.08,1,0,1,0,.5v1.9l0,.44.06.88.16,1.68.11.81.12.8.27,1.53.15.74.16.72.33,1.39.34,1.34.34,1.26,1.25,4.39.22.87.2.87.18.88.16.87.14.88.12.89.1.9.07.9.06.92,0,.93,0,2,0,4.49-.09,4.51-.15,4.54-.19,4.57-.24,4.6-.26,4.62-.13,2.32-.17,2.19-.09,1.08-.06.65,0,.4,0,.35,0,.56c0,.29,0,.61,0,.92s0,.93.08,1.42a13,13,0,0,0,.4,2,11.92,11.92,0,0,0,.83,2.16,11.75,11.75,0,0,0,1.07,1.77,11.17,11.17,0,0,0,1,1.21c.34.37.59.61.78.78l.6.52.46.36.31.24.5.34.79.49c.25.15.57.32.76.41l.65.3.67.28.53.19.54.18.49.13.89.22.76.14.69.1.63.08.57,0L6,625l.89,0H8.35l9.09,0,9.42,0h2.5v2.21l-.29,37.41-.14,18.7,0,4.68v2l-88.79-1.35-13.41-7c-7.6-1-15.48-2.38-23.68-3.78-13.23-2.26-26.35-4.11-39.84-5.53-6.74-.68-13.54-1.23-20.4-1.57l-1.5-.07a34.7,34.7,0,0,0-1.07-6.07,21.74,21.74,0,0,0-.68-2.17,20.77,20.77,0,0,0-.86-2.14c-.34-.77-.58-1.24-.85-1.81l-.79-1.62c-2.06-4.26-3.65-8.13-3.78-11.62a15.16,15.16,0,0,1,.09-2.61l.24-1.38c.07-.34.11-.58.19-.86a3,3,0,0,1,.92-1.49l2.29-2.37c1.36-1.49,3.14-3.08,5.06-5a34.19,34.19,0,0,0,2.9-3.39,19.28,19.28,0,0,0,2.49-4.54,18.25,18.25,0,0,0,1.21-5.19,21.16,21.16,0,0,0-.24-5.07,32.93,32.93,0,0,0-2.76-8.44c-1.14-2.47-2.41-4.71-3.45-6.73a58.88,58.88,0,0,1-2.73-6.06l-.28-.77-.43-1.25c-.27-.89-.52-1.81-.84-2.68-.67-1.69-1.32-3.26-2.86-4.34a12.12,12.12,0,0,0-3.27-1.6l3.43-10.41.38-1,.34-.86.44-1,.52-1.24.29-.79.28-.84.12-.42.11-.43.1-.43.09-.43.07-.44.06-.44,0-.44,0-.22v-1.9l0-1.27-.06-1.25-.17-2.4-.31-4.52-1.1-18.36-.26-4.59-.09-2.19,0-2.12v-1l0-1,.06-1,0-.48.05-.47,0-.43,0-.3.07-.35.09-.38.24-.86.31-1,.74-2.25.19-.64.11-.38.12-.42.1-.44.08-.39.12-.62.18-.91.1,0,1.12.21.63.12.8.13,9.43.89.27,0,.09.53.18.86.2.83.11.41.12.41.13.39.15.39.07.19.08.19.17.38.18.36.19.37.1.18.12.17.11.17.12.18.25.33.27.32c0,.06.1.11.14.16l.15.15.15.15.16.13.16.14.16.13.34.25.7.44.74.39.18.1.2.08.38.17.4.16.39.15.4.14.41.13.41.13.42.11.42.11.42.11.85.18.87.17.87.14,1.74.25,2.17.3.89.16,1.1.23,2.26.46,2.25.47.84.18.9.27,2.32.68,1.29.35.7.16.77.16.89.13.54.06.26,0h1.08c.12,0,.36,0,.54-.05l.57-.08a4.83,4.83,0,0,0,.73-.18,7.66,7.66,0,0,0,1-.39,5.21,5.21,0,0,0,1-.61,7.32,7.32,0,0,0,1.08-1,6.44,6.44,0,0,0,.52-.68c.12-.19.23-.38.34-.57a4.48,4.48,0,0,0,.22-.43l.15-.34.15-.35.09-.26.17-.51.23-.83.18-.75.27-1.34.22-1.25.32-2,4.39-17.71,1.38-5.7-5.69-1.41-4.6-1.05-4.54-1-4.45-1-2.2-.5-2.16-.53-1.08-.27-1.07-.28-2.11-.57-.52-.15-.52-.16-1-.32-1-.32-.25-.08-.25-.09-.51-.17-2-.71-1.94-.78-1-.4-.93-.44-1.86-.88-1.76-1-.44-.24-.22-.13-.21-.13-.83-.55-.83-.55-.41-.27-.1-.07-.1-.07-.19-.16-1.54-1.2-.39-.3-.35-.34-.71-.66-.71-.66-.17-.16-.09-.09-.08-.09-.32-.36-1.28-1.44-.16-.18a.28.28,0,0,1-.07-.09l-.06-.08-.25-.34-.25-.33-.06-.08-.06-.08L-155,470l-.44-.69-.38-.73-.1-.18-.05-.09,0-.1-.17-.39-.18-.38,0-.1,0-.1-.07-.2-.3-.82-.26-.86-.06-.22-.06-.23-.11-.45-.11-.45-.1-.48-.1-.47,0-.24,0-.25-.17-1-.27-2.1-.48-4.52-.28-2.41-.35-2.44-.4-2.4-.23-1.23-.26-1.23-.28-1.25-.31-1.26-.36-1.28-.41-1.29-.22-.65-.24-.66-.27-.67-.29-.68-.3-.66-.31-.64-.63-1.21-.65-1.14-.64-1.09-1.25-2-1.14-1.86-1.12-1.93-4.63-8-4.62-8-2.31-4-1-1.89-.49-.91-.43-.88-.4-.87-.35-.84-.3-.84-.14-.41-.12-.41-.12-.42-.1-.42-.09-.42-.08-.44-.17-1-.13-.95-.1-.92,0-.45,0-.45,0-.87,0-.87,0-.44,0-.44.05-.45.06-.45.16-.94.19-.95.22-1,.25-1,.55-2.12,1.23-4.42.62-2.32.4-1.64.1-.43.09-.43.08-.44a1.55,1.55,0,0,0,0-.21l0-.22.1-.87,0-.87v-.43l0-.44V372l0-.21,0-.44,0-.21,0-.22-.09-.43-.05-.21-.05-.21-.12-.42-.07-.21-.07-.21-.14-.41-.08-.2-.08-.21-.18-.4-.08-.2-.1-.19-.2-.39-.2-.39-.22-.39-.22-.38-.23-.37-.48-.73-.68-1.05-.47-.76-.19-.33,0-.09,0-.09-.09-.19-.36-.76-.33-.8-.08-.2-.07-.22-.14-.42-.15-.43,0-.11,0-.11-.06-.22-.25-.9-.2-.94-.06-.23,0-.24-.09-.49-.09-.48-.07-.5-.15-1-.12-1-.1-1.05-.17-2.15-.12-2.22-.23-4.62-.16-2.42-.23-2.33-.49-4.65-1-9.28-.49-4.64-.24-2.32-.06-.57,0-.35,0-.35v-.09a.27.27,0,0,1,0-.09v-.93l0-.26-3.81-1-7.71-2.07-7.82-1.91-16.09-4c-5.35-1.35-10.75-2.62-16.06-4l-15.84-4.31L-353,274l-4.05-17.52-40.55-8.34L-418.07,245l-5.86-1.58-26.8-6.33-22-10.21c-7.72-1.41-15.43-3.23-23.15-4.59l-39.69-19.42c-10.81-5.39-21.67-10.67-32.44-16.15l-16-8.59-16.26-8.37c-5.42-2.79-10.83-5.54-16.29-8.48s-10.94-5.42-16.37-8.31c-1.38-.71-2.69-1.43-4.12-2.13l-4.27-2.1-8.15-4-8.15-4-4.07-2-3.35-1.7"/><path class="cls-9" d="M-281.45,279.64l27.14,6.71,15.86,4.31c5.3,1.4,10.66,2.67,16,4l16,4,7.93,1.93,7.86,2.11,30.07,13.19,2.6.8c1.08.34,2.16.61,3.24,1l6.05,2.14,2.51,1.13,3.74,2.09c1.37.81,2.71,1.72,4.07,2.58l8.46,5.33,4.24,2.68,4,2.88,8.18,5.87,8.36,6,8.46,5.92L-79.9,366-63,377.83l8.45,5.9c1.38,1,2.92,1.86,4.24,2.83l4.07,2.84,33.44,23.72c6,4.18,12,8.23,18.06,12.32"/><line class="cls-10" x1="16.95" y1="433.45" x2="16.95" y2="433.45"/><path class="cls-11" d="M13.62,462l-2.29,19.7L10.25,491,10,493.22l-.26,2.07-.15,1-.16.93-.16.89-.18.85-.2.8-.1.39-.11.37-.22.71-.25.72-.3.77-.34.79-.37.83-.41.87L5.87,507l-1,1.92-2.23,4.17-4.44,8.31L-4,525.54l-1,1.76-1.07,1.87-1.26,2.19L-8,532.57l-.68,1.31-.69,1.42-.34.76-.16.38-.17.41-.36.9-.32.94-.16.47-.15.47-.27,1-.06.24-.06.24-.11.48-.11.48-.05.25,0,.24-.15,1-.08.49-.05.49-.08,1,0,1,0,.5v1.9l0,.44.06.88.16,1.68.11.81.12.8.27,1.53.15.74.16.72.33,1.39.34,1.34.34,1.26,1.25,4.39.22.87.2.87.18.88.16.87.14.88.12.89.1.9.07.9.06.92,0,.93,0,2,0,4.49-.09,4.51-.15,4.54-.19,4.57-.24,4.6-.26,4.62-.13,2.32-.17,2.19-.09,1.08-.06.65,0,.4,0,.35,0,.56c0,.29,0,.61,0,.92s0,.93.08,1.42a13,13,0,0,0,.4,2,11.92,11.92,0,0,0,.83,2.16,11.75,11.75,0,0,0,1.07,1.77,11.17,11.17,0,0,0,1,1.21c.34.37.59.61.78.78l.6.52.46.36.31.24.5.34.79.49c.25.15.57.32.76.41l.65.3.67.28.53.19.54.18.49.13.89.22.76.14.69.1.63.08.57,0L6,625l.89,0H8.35L15,625"/><line class="cls-10" x1="29.36" y1="624.95" x2="29.36" y2="624.95"/><polyline class="cls-12" points="29.12 657.45 29.06 664.57 28.99 673.7"/><line class="cls-10" x1="28.87" y1="689.96" x2="28.87" y2="689.96"/><path class="cls-13" d="M1.71,689.55l-61.63-.94-13.41-7c-7.6-1-15.48-2.38-23.68-3.78-13.23-2.26-26.35-4.11-39.84-5.53q-4.17-.42-8.35-.77"/></g><g id="桜谷団地"><path class="cls-14" d="M73.21,456.6l7.71,4.46,6.52,2.86,6.66,1.55,6.78,1.54,7,.47,7.12-.2,7.62-1.27,5.46-1.32,2.32-.52,5.91-2.88,11.25-5.92,26.22-15.57-10.7-7.88-3.48-2.47-13.5-9.05-11.36-7.69L124.55,406,105.3,392.12l-13,26.95-5.34,10.32L80.37,443,73.21,456.6m0,0L40.36,435M-354.09,602.17l2.85,7.67,3.17,7.56,6.32,15.13,6.32,15.12,5.7,15.66,2.7,7.42c4.36.5,8.73.93,13.11,1.34l3.29.31c1.1.12,2.19.31,3.28.46l6.55,1,4.91,1.08,4.46,1.37,2.74,1.22,2.81,1.71,4.66,3.56c.93.36,1.84.8,2.79,1.1l2.95.62,4.46,0,18.78,2.45,3.21-1.4h0c2.69.15,5.39.21,8.08.44l8.09.28,16,6.44,39,.91c6.47.18,13,.25,19.44.51s12.77.83,19.16,1.48c12.77,1.34,25.6,3.14,38.3,5.32,6.71,1.13,13.49,2.34,20.38,3.33L-65.71,712l31.17.46,18.75.26,18.63.35,37.24.73,9.35.31,2.34.07H52v-.28l0-2.34.1-9.35.61-74.92.07-9.36v-.38l.1-1.1.06-1,0-.6v-1.21l0-.61c0-.25,0-.34-.08-.73s-.11-.69-.18-1a12.49,12.49,0,0,0-2.44-5.16A12.21,12.21,0,0,0,47.93,604a12.06,12.06,0,0,0-2-1.19,12.7,12.7,0,0,0-1.33-.53,9.39,9.39,0,0,0-1-.29l-.74-.17c-.26-.06-.51-.1-.64-.12l-1-.13-.72-.06-.63,0-.56,0h-1l-1.59.05-1.32.08-.67,0h-.72l-2.39,0-2.39,0H27l-9.3,0H15.13l.1-1.82.24-4.75.21-4.78.16-4.81.09-4.84,0-4.88v-1.29l0-1.39-.06-1.41-.09-1.42-.12-1.42-.16-1.43-.19-1.44-.22-1.43L14.81,563l-.3-1.42-.32-1.41-.36-1.39-1.31-4.62L12,552.24l-.2-.89-.18-.83-.14-.77-.1-.71-.06-.64,0-.29v-1.2l0-.18.08-.34.05-.17v-.05l0,0,0-.08,0-.17.08-.19.05-.13.07-.15.13-.31.34-.69.4-.77.46-.83,1.07-1.87,1.25-2.19.69-1.26.59-1.1,2.19-4.1,4.37-8.2L25.49,520l1.18-2.21,1.19-2.37.6-1.25.59-1.3.57-1.36.55-1.42.53-1.48.24-.76.23-.76.22-.75.19-.75.36-1.47.31-1.44.27-1.41.23-1.38.2-1.34.33-2.57.27-2.43,1.07-9.27L39,447l1.4-12,.7-6,1.63-6.49c-7.06-4.49-13.91-9.52-21-14.28S7.47,398.65.51,393.81l-33.37-23.67-4.33-3c-1.43-1.05-2.89-1.85-4.28-2.85l-8.33-5.82-16.68-11.65-16.81-11.73-8.31-5.82-8.26-5.94-8.47-6.07-4.3-3.07-4.41-2.79-8.87-5.6c-1.52-1-3-2-4.57-2.88l-5.19-2.92-4.34-1.94-7.38-2.61c-1.14-.42-2.37-.74-3.55-1.12l-4.2-1.28-29.45-13-8.17-2.2-8.15-2-15.82-3.93c-5.27-1.33-10.54-2.57-15.83-4l-15.87-4.31-40.69-10.06"/><path class="cls-15" d="M73.21,456.6l7.71,4.46,6.52,2.86,6.66,1.55,6.78,1.54,7,.47,7.12-.2,7.62-1.27,5.46-1.32,2.32-.52,5.91-2.88,11.25-5.92,26.22-15.57-10.7-7.88-3.48-2.47-13.5-9.05-11.36-7.69L124.55,406,105.3,392.12l-13,26.95-5.34,10.32L80.37,443,73.21,456.6m0,0L40.36,435M-354.09,602.17l2.85,7.67,3.17,7.56,6.32,15.13,6.32,15.12,5.7,15.66,2.7,7.42c4.36.5,8.73.93,13.11,1.34l3.29.31c1.1.12,2.19.31,3.28.46l6.55,1,4.91,1.08,4.46,1.37,2.74,1.22,2.81,1.71,4.66,3.56c.93.36,1.84.8,2.79,1.1l2.95.62,4.46,0,18.78,2.45,3.21-1.4h0c2.69.15,5.39.21,8.08.44l8.09.28,16,6.44,39,.91c6.47.18,13,.25,19.44.51s12.77.83,19.16,1.48c12.77,1.34,25.6,3.14,38.3,5.32,6.71,1.13,13.49,2.34,20.38,3.33L-65.71,712l31.17.46,18.75.26,18.63.35,37.24.73,9.35.31,2.34.07H52v-.28l0-2.34.1-9.35.61-74.92.07-9.36v-.38l.1-1.1.06-1,0-.6v-1.21l0-.61c0-.25,0-.34-.08-.73s-.11-.69-.18-1a12.49,12.49,0,0,0-2.44-5.16A12.21,12.21,0,0,0,47.93,604a12.06,12.06,0,0,0-2-1.19,12.7,12.7,0,0,0-1.33-.53,9.39,9.39,0,0,0-1-.29l-.74-.17c-.26-.06-.51-.1-.64-.12l-1-.13-.72-.06-.63,0-.56,0h-1l-1.59.05-1.32.08-.67,0h-.72l-2.39,0-2.39,0H27l-9.3,0H15.13l.1-1.82.24-4.75.21-4.78.16-4.81.09-4.84,0-4.88v-1.29l0-1.39-.06-1.41-.09-1.42-.12-1.42-.16-1.43-.19-1.44-.22-1.43L14.81,563l-.3-1.42-.32-1.41-.36-1.39-1.31-4.62L12,552.24l-.2-.89-.18-.83-.14-.77-.1-.71-.06-.64,0-.29v-1.2l0-.18.08-.34.05-.17v-.05l0,0,0-.08,0-.17.08-.19.05-.13.07-.15.13-.31.34-.69.4-.77.46-.83,1.07-1.87,1.25-2.19.69-1.26.59-1.1,2.19-4.1,4.37-8.2L25.49,520l1.18-2.21,1.19-2.37.6-1.25.59-1.3.57-1.36.55-1.42.53-1.48.24-.76.23-.76.22-.75.19-.75.36-1.47.31-1.44.27-1.41.23-1.38.2-1.34.33-2.57.27-2.43,1.07-9.27L39,447l1.4-12,.7-6,1.63-6.49c-7.06-4.49-13.91-9.52-21-14.28S7.47,398.65.51,393.81l-33.37-23.67-4.33-3c-1.43-1.05-2.89-1.85-4.28-2.85l-8.33-5.82-16.68-11.65-16.81-11.73-8.31-5.82-8.26-5.94-8.47-6.07-4.3-3.07-4.41-2.79-8.87-5.6c-1.52-1-3-2-4.57-2.88l-5.19-2.92-4.34-1.94-7.38-2.61c-1.14-.42-2.37-.74-3.55-1.12l-4.2-1.28-29.45-13-8.17-2.2-8.15-2-15.82-3.93c-5.27-1.33-10.54-2.57-15.83-4l-15.87-4.31-40.69-10.06"/></g><g id="面影若葉台"><path class="cls-16" d="M229.15,1312.25l.85.57,15.18,12,4.81,4.81,4.37,5.61,3.88,6.47,3.84,7.88,8.23,21.18,4.6,15.49c.76,2.59,1.51,5.18,2.11,7.84l2,8.42.07,5.91c0,.89-.07,1.89-.11,2.83,0,.45-.06,1-.11,1.55l-.16,1.64-2.11,8.52-1.25,3.51-4.09,8.86-3.5,6.09L245,1468.92l-6.11,7.37M95.2,1555.44l-.28,15,0,15c2,8.92,3.28,18,4.4,27l1.73,7.86,1.37,7.92,2.76,15.85,3.67,11.64c1.38,3.82,2.89,7.61,4.33,11.41l4.37,11.39c.76,1.89,1.4,3.82,2.25,5.67l2.51,5.56s5.56-1.7,8.88-2.78l2.49-.78a5.84,5.84,0,0,0,1.22-.48,1.37,1.37,0,0,0,.58-1.11,16.39,16.39,0,0,0,.08-2.62c0-.87-.08-1.74-.14-2.61l-.78-10.44-1.49-20.9-1.46-20.89-1.11-20.92c-.39-7-.71-13.94-1-20.92a55.23,55.23,0,0,1,.56-10.44c.24-1.62.55-3.23.89-4.83M95.2,1555.44,131,1570.07l1.06.44,9.68.28,7.15-1.36,6.73-2,7.12-2.69,3.7-1.85,5-4,4.64-3.85,3.56-3.51,5.41-7.45,2.52-3.47c.82-1.16,1.82-2.26,2.72-3.39l11-13.53,10.94-13.85c3.59-4.63,7.06-9.28,10.59-13.92,1.78-2.3,3.47-4.7,5.33-6.91l5.63-6.62,5.09-6.14m0,0,13.68,11.07c3.07,2.43,6.31,4.63,9.45,7l9.08,6.6,4.87,2.35,3,.33,2.16-.06c.85,0,1.7-.06,2.54-.14l4.37-.33,6.42-2.47,2.27-1.89c1-.86,2-1.68,3.06-2.47l5.3-4.13,3.8-6.37L319.32,1471c1.74-2.43,3.28-4.79,4.94-7.18l4.29-7.12,5.17-12.71,2-8.75,1.81-9,1.4-14.66-.31-17.22-3.3-17.52-3.19-9.58-1.66-5c-.57-1.66-1.19-3.28-1.77-4.92l-7.22-19.8-14.27-39.4-2.88-5.88-4.43-4.95-6.12-4.78-6.22-2.36-1.57-.6a3.12,3.12,0,0,0-.84-.25,5.15,5.15,0,0,0-.88,0l-1.21,0-2.28.51-2.79.81-6,1.69-11.74,2.91-6.09,2.15-2.67,1.24-1.68,1-1,.61-.87.6-3.29,2.29-15.54,19M-170.61,682.08a81.59,81.59,0,0,0,.3-8.52,25,25,0,0,0-.81-5.88,10.71,10.71,0,0,0-.42-1.32,12.7,12.7,0,0,0-.5-1.26c-.14-.35-.45-1-.71-1.5l-.81-1.67a67.1,67.1,0,0,1-3.13-7.35,30.91,30.91,0,0,1-1.79-8.76,26.29,26.29,0,0,1,.17-4.69c.11-.74.25-1.63.37-2.23.18-.85.38-1.82.65-2.69a11.18,11.18,0,0,1,2.8-4.68l2.78-2.91c1.94-2.1,3.82-3.76,5.3-5.3a21.94,21.94,0,0,0,1.87-2.15,8.15,8.15,0,0,0,1-1.85,7.46,7.46,0,0,0,.32-4.13,20.56,20.56,0,0,0-1.83-5.41c-.9-2-2-4-3.23-6.3a70.65,70.65,0,0,1-3.27-7.27l-.52-1.43-.26-.82c-.19-.51-.18-1.2-.73-1.48a5.14,5.14,0,0,0-1.63-.5l-.84-.13-.43-.07-7.61-1.38,7.72-23.42.42-1.13.26-.66.26-.63.85-2,.11-.28.09-.26.07-.26,0-.13,0-.13,0-.07v-.06l0-.14v-.89l0-1-.05-1.06-.15-2.2-.33-4.68-1.1-18.46-.26-4.61-.1-2.42,0-2.48v-1.28l.05-1.29.07-1.32.06-.67.07-.68.08-.72.06-.42.07-.41.16-.78.17-.74.19-.7.19-.66.39-1.24.7-2.13.23-.77.16-.81.48-2.4.15-.66.18-.7.21-.75.12-.4.15-.44.08-.23.1-.26.23-.52.34-.67a4.15,4.15,0,0,1,.23-.39l.33-.48.37-.47a7.4,7.4,0,0,1,.75-.73,6.52,6.52,0,0,1,.83-.61,6.68,6.68,0,0,1,.8-.41,8.61,8.61,0,0,1,.82-.32l.5-.12.51-.11.42-.06.68-.05.3,0h.78l.44,0,.43,0,.39,0,.73.09,1.35.2,1.24.22,2,.37,8.93.83,2.32.22.7.07.42.06.49.07.65.14.45.13.46.15.63.27a4.73,4.73,0,0,1,.67.37,7.47,7.47,0,0,1,.74.51,7.21,7.21,0,0,1,.7.66,6.32,6.32,0,0,1,.57.71c.16.23.31.47.45.71l.27.56c.08.17.17.41.21.51l.12.39.11.34.12.52.17.78.11.53.08.53.09.53.06.26,0,.13,0,.13,0,.06,0,.06,0,.06,0,.06.07.12.08.1.09.1.05.05,0,0,.06,0,.05,0,.12.07.24.11.26.1.25.08.26.07.52.13.53.09,3.46.5.67.11.71.13,1.16.24,2.26.47,2.26.47.57.12.85.2,1.31.37.55.19.1-.62.07-.4.09-.43,2.26-9.14.55-2.24.14-.56.07-.28,0-.06h0l-.28-.06-.55-.13-2.26-.48-4.55-1-2.3-.52-2.31-.56-1.16-.29-1.17-.31-2.33-.63-.58-.17-.59-.18-1.17-.36-1.17-.36-.29-.09-.3-.11-.58-.2-2.34-.83-2.34-.94-1.16-.47-1.16-.55-2.3-1.1-2.26-1.26-.57-.32-.28-.16-.27-.18-1.1-.72-1.1-.72-.54-.36a1.7,1.7,0,0,1-.14-.1l-.13-.1-.26-.2-2.09-1.64-.52-.41-.49-.46-1-.91-1-.91-.24-.23-.12-.12-.12-.12-.44-.5-1.78-2-.22-.25a.53.53,0,0,1-.11-.14l-.11-.14-.45-.6-.44-.59-.21-.3-.2-.31-.79-1.26-.7-1.3-.17-.33-.09-.16-.07-.17-.3-.67-.3-.66-.14-.34-.12-.34-.49-1.34-.41-1.35-.09-.34-.09-.33-.16-.66-.16-.67-.14-.65-.13-.66-.06-.32-.06-.32-.21-1.28-.32-2.48-.5-4.64-.25-2.17-.3-2.13-.36-2.14-.19-1-.21-1-.23-1-.24-1-.27-.94-.28-.91-.15-.43-.16-.43-.16-.4-.16-.38-.37-.79-.44-.83-.48-.86-.54-.9-1.18-1.9-1.27-2.07-1.19-2.06-4.63-8-4.63-8-2.32-4-1.19-2.13-.6-1.13-.58-1.18-.57-1.24-.53-1.28-.25-.66-.24-.67-.22-.68-.2-.69-.19-.7-.17-.7-.16-.71-.13-.69-.22-1.29-.19-1.33-.07-.68-.07-.69,0-.7,0-.71,0-.71v-.72l0-.72,0-.71,0-.71.06-.71.08-.7.1-.68.1-.68.12-.67.25-1.3.28-1.23.29-1.21.61-2.35,1.24-4.46.57-2.14.15-.59.12-.52,0-.27,0-.27v-.67l0-.13,0-.06a.14.14,0,0,0,0-.07l0-.13,0-.12-.05-.13-.06-.12-.06-.12-.12-.24-.14-.23-.3-.46-.58-.89-.36-.57L-194,369l-.37-.67-.09-.17-.08-.16-.17-.33-.63-1.32-.54-1.33-.13-.34-.11-.33-.23-.67-.22-.66-.19-.67-.36-1.32-.29-1.32-.08-.33-.06-.32-.11-.65-.12-.65-.1-.64-.18-1.28-.15-1.26-.12-1.24-.19-2.45-.14-2.39-.22-4.58-.14-2.18-.23-2.26-.48-4.53-1-9.05-.47-4.53-.24-2.26-.13-1.38-.06-.8,0-.2v-2.15l.14-1.53.23-1.47.06-.37.08-.35.16-.71.08-.35,0-.17.05-.17.19-.68.2-.67.21-.65.22-.65.11-.32.12-.31.47-1.24.5-1.18.51-1.15,1-2.21,2-4.1.44-1,.43-1,.91-2.12,1-2.21m21.93,392c4.24.09,8.49.18,12.78.35,6.62.33,13.22.86,19.78,1.53,13.13,1.38,26.1,3.2,39.07,5.42,7.42,1.27,14.75,2.56,22,3.57l14.2,7.4,28.36.43,18.71.25L3,701.39l37.43.72m-211.08-20-6.82-.16-35.73-.84c.54,1,1.06,2,1.61,3,5.31,9.65,10.44,19.34,15.67,29l2,3.69,1.85,3.68,3.72,7.36,7.43,14.73L-150.56,801l15.29,29.23,7.64,14.61c2.53,4.88,4.77,9.88,7.16,14.82,4.79,9.86,9.24,20,14.55,29.36l3.9,7.26,1.94,3.62c.28.55.75,1.33,1.11,2.12l.87,2c.53,1.25,1,2.51,1.6,3.68l1.7,3.73,3.7,8,1.39,6.37.89,12.51c.34,4.09.46,8.18.68,12.22l1.19,24.34c.26,4,.23,8.15.35,12.23s.19,8.17.12,12.22l-6,24.29c-.79,31.69-1.53,63.4-.82,95.1a179.28,179.28,0,0,1-.65,23.75c-.78,7.92-3.43,15.47-5.77,23a99.65,99.65,0,0,0-3,11.51,65.11,65.11,0,0,0-1,11.83,130.89,130.89,0,0,0,2.63,23.59,193.34,193.34,0,0,0,5.44,23.14,112,112,0,0,0,3.74,11.28,35.47,35.47,0,0,0,2.74,5.26l3.09,5.08a104.22,104.22,0,0,0,6.68,9.83,91.2,91.2,0,0,0,8,8.75l4.3,4.1c1.45,1.36,2.86,2.75,4.4,4,3,2.54,6.31,4.79,9.38,7.3l18.21,15.29c6.08,5.09,12.26,10,18.17,15.33A149.73,149.73,0,0,1-.37,1338.88c5,6.12,10.67,14.4,10.67,14.4l7.52-4.4,12.88-6,18.94-6.57c3.08-1.12,6.29-2.06,9.46-3.06l9.46-3c3.13-1,6.39-1.81,9.58-2.72l4.8-1.31,4.8-1.24,19-5,18.93-5.14,18.94-5.55c6.26-2,12.75-3.33,19.18-4.85l19.57-4.51,8.62-1,8.05.1,6.7,1,7.07,2.13,6.4,3.53,2.63,2a24.88,24.88,0,0,0,2.26,1.66l4.09,2.78M40.47,702.11l.6-74.86.07-9.36V617l0-.29.11-1.16,0-.59v-.58l0-.29a.76.76,0,0,0,0-.15l0-.14,0-.14a.52.52,0,0,0-.06-.13s-.08-.06-.12-.1a.35.35,0,0,0-.12-.07l-.14,0-.14,0-.14,0-.14,0-.29,0-.3,0-.29,0h-.87l-1.17,0-1.17.07-1.17.06H34l-2.34,0-2.34,0H26.93l-9.36,0-9.35,0H6.46l-.58,0-.58-.06-.29,0-.29-.06L4.44,613l-.14,0-.14,0-.14,0-.14-.06-.13-.06a.33.33,0,0,1-.13-.07l-.12-.07-.12-.08-.24-.18-.11-.1-.1-.1a.87.87,0,0,1-.09-.11.57.57,0,0,1-.08-.13.35.35,0,0,1,0-.13.8.8,0,0,1,0-.15v-.29l.07-.58.06-.58.05-.58.1-1.17.17-2.33.14-2.34.27-4.67.23-4.67L4,589.73l.15-4.68.09-4.67,0-4.68,0-2.34,0-1.17L4.07,571,4,569.86l-.13-1.17-.15-1.16-.18-1.15-.21-1.15-.24-1.15-.26-1.14-.29-1.13-1.28-4.5-.59-2.26-.27-1.14-.13-.57-.11-.58-.21-1.15-.16-1.16-.12-1.16,0-.59,0-.29V547l0-.58,0-.59,0-.29v-.14l0-.15.09-.58,0-.14,0-.14.07-.29.06-.28,0-.15,0-.14.16-.56.09-.28.09-.27.2-.55.21-.55L.94,541l.12-.27.24-.53.51-1.05.54-1,.56-1,1.16-2,1.17-2,1.11-2,2.2-4.13L13,518.58l2.21-4.12,1.1-2.07,1.05-2.09.51-1.05.48-1.07.45-1.08.43-1.09.39-1.1.18-.56.17-.56.16-.56.15-.56.28-1.14.24-1.14.22-1.15.19-1.16.17-1.15.3-2.33.26-2.32L23,483l4.33-37.18,2.09-18v0c-4.8-3.27-9.54-6.63-14.36-9.87C8,413.1.88,408.34-6.14,403.46l-33.4-23.69-4.2-2.93c-1.38-1-2.88-1.84-4.26-2.83l-8.4-5.87-16.79-11.72L-90,344.7l-8.39-5.87-8.31-6a360.85,360.85,0,0,0-34.26-22.37l-3.43-1.54-6.71-2.37c-2.24-.77-4.53-1.41-6.8-2.11l-29.76-13.1-4.9-1.31-3.11-.84-8-2-15.91-3.94c-5.3-1.34-10.61-2.59-15.9-4L-251.37,275-299,263.22"/><path class="cls-17" d="M-140.14,683.75l2.09.21c13.13,1.38,26.1,3.2,39.07,5.42,7.42,1.27,14.75,2.56,22,3.57l14.2,7.4,28.36.43,18.71.25L3,701.39l22.17.43"/><line class="cls-10" x1="40.46" y1="702.11" x2="40.46" y2="702.11"/><path class="cls-18" d="M-199.49,706.38q1.8,3.35,3.61,6.69l2,3.69,1.85,3.68,3.72,7.36,7.43,14.73L-150.56,801l15.29,29.23,7.64,14.61c2.53,4.88,4.77,9.88,7.16,14.82,4.79,9.86,9.24,20,14.55,29.36l3.9,7.26,1.94,3.62c.28.55.75,1.33,1.11,2.12l.87,2c.53,1.25,1,2.51,1.6,3.68l1.7,3.73,3.7,8,1.39,6.37.89,12.51c.34,4.09.46,8.18.68,12.22l1.19,24.34c.26,4,.23,8.15.35,12.23s.19,8.17.12,12.22l-6,24.29c-.79,31.69-1.53,63.4-.82,95.1a179.28,179.28,0,0,1-.65,23.75c-.78,7.92-3.43,15.47-5.77,23a99.65,99.65,0,0,0-3,11.51,65.11,65.11,0,0,0-1,11.83,130.89,130.89,0,0,0,2.63,23.59,193.34,193.34,0,0,0,5.44,23.14,112,112,0,0,0,3.74,11.28,35.47,35.47,0,0,0,2.74,5.26l3.09,5.08a104.22,104.22,0,0,0,6.68,9.83,91.2,91.2,0,0,0,8,8.75l4.3,4.1c1.45,1.36,2.86,2.75,4.4,4,3,2.54,6.31,4.79,9.38,7.3l18.21,15.29c6.08,5.09,12.26,10,18.17,15.33A149.73,149.73,0,0,1-.37,1338.88c.73.89,1.48,1.82,2.21,2.77"/><line class="cls-10" x1="40.46" y1="702.11" x2="40.46" y2="702.11"/><path class="cls-19" d="M40.7,673.24l.37-46,.07-9.36V617l0-.29.11-1.16,0-.59v-.58l0-.3a.71.71,0,0,0,0-.14l0-.14,0-.14a.52.52,0,0,0-.06-.13s-.08-.06-.12-.1a.35.35,0,0,0-.12-.07l-.14,0-.14,0-.14,0-.14,0-.29,0-.3,0-.29,0h-.87l-1.17,0-1.17.07-1.17.06H34l-2.34,0-2.34,0H26.93l-9.36,0-9.35,0H6.46l-.58,0-.58-.06-.29,0-.29-.06L4.44,613l-.15,0-.13,0-.14,0-.14-.06-.13-.06a.42.42,0,0,1-.13-.07l-.12-.07-.12-.08-.24-.18-.11-.1-.1-.1a.87.87,0,0,1-.09-.11.57.57,0,0,1-.08-.13.35.35,0,0,1,0-.13.8.8,0,0,1,0-.15v-.29l.07-.58.06-.58.05-.58.1-1.17.17-2.33.14-2.34.27-4.67.24-4.67.2-4.68.15-4.68.09-4.67,0-4.68,0-2.34,0-1.17L4.07,571,4,569.86l-.13-1.17-.15-1.16-.18-1.15-.21-1.15-.24-1.15-.26-1.14-.29-1.13-1.28-4.5-.59-2.26-.27-1.14-.13-.57-.11-.58-.21-1.15-.16-1.16-.12-1.16,0-.59,0-.29V547l0-.58,0-.59,0-.29v-.14l0-.15.09-.58,0-.14,0-.14.07-.29.06-.28,0-.15,0-.14.16-.56.09-.28.09-.27.2-.55.21-.55L.94,541l.12-.27.24-.53.51-1.05.54-1,.56-1,1.16-2,1.17-2,1.11-2,2.2-4.13L13,518.58l2.21-4.12,1.1-2.07,1.05-2.09.51-1.05.48-1.07.45-1.08.43-1.09.39-1.1.18-.56.17-.56.16-.56.15-.56.28-1.14.24-1.14.22-1.15.19-1.16.17-1.15.3-2.33.26-2.32L23,483l4.33-37.18.43-3.67"/><line class="cls-10" x1="29.41" y1="427.79" x2="29.41" y2="427.79"/><path class="cls-20" d="M5.77,411.62q-6-4-11.91-8.16l-33.4-23.69-4.2-2.93c-1.38-1-2.88-1.84-4.26-2.83l-8.4-5.87-16.79-11.72L-90,344.7l-8.39-5.87-8.31-6a360.85,360.85,0,0,0-34.26-22.37l-3.43-1.54-6.71-2.37c-2.24-.77-4.53-1.41-6.8-2.11l-29.76-13.1-4.9-1.31-3.11-.84-8-2-15.91-3.94c-5.3-1.34-10.61-2.59-15.9-4L-251.37,275l-33.77-8.35"/></g><g id="若葉台"><path class="cls-21" d="M227.07,1296.28l2.81,2.19.92.73c.33.24.74.5,1.1.76l5,3.41L253,1316.08l5.83,5.83,5.21,6.71,4.52,7.52,4.27,8.78L281.4,1367l4.78,16.08,1.17,4.07c.4,1.35.69,2.77,1,4.16l2.3,9.84.08,7.47c0,.47,0,1.06,0,1.64l-.09,1.73-.05.91-.11,1.18-.22,2.36-2.46,10-1.62,4.55-4.54,9.82-4.25,7.4L254,1476.43l-11.19,13.5-2.32,2.72M83.32,1563.74l.76.25,7.81,2.71,9.74,2.37c3.07.75,6.13,1.48,9.2,2.31,6.13,1.62,20.88,10.84,20.88,10.84l9.52.28,1.43,0,9-1.7,7.69-2.23,8.13-3.06,5.37-2.69,6-4.85,5.11-4.25,4.59-4.52,5.92-8.16,2.39-3.3c.78-1.09,1.79-2.22,2.67-3.32l10.94-13.39,11.06-14c3.59-4.64,7-9.22,10.51-13.82,1.76-2.28,3.44-4.67,5.27-6.84l3.2-3.76m0,0,4.94,4c3.11,2.45,6.39,4.7,9.57,7.06l10.06,7.31,7.62,3.67,5.77.65,3.16-.1c.92,0,1.85-.06,2.77-.14l6.24-.48,9.82-3.78c5.75-4.85,7.45-6.06,13.56-10.84l4.68-7.86,10.24-14.43c1.73-2.41,3.46-5,5.19-7.55l4.95-8.18,5.85-14.42,2.29-9.81,2-9.74,1.52-15.92-.33-18.88-3.64-19.27-3.48-10.44-1.68-5c-.57-1.67-1.2-3.34-1.8-5l-7.23-19.86-14.48-40-3.87-7.91-6.21-6.94-8.35-6.51-7.87-3-1.95-.74c-.44-.17-.9-.34-1.35-.49a4.42,4.42,0,0,0-.68-.21l-.72-.07a16.3,16.3,0,0,0-2.88-.12l-2.55.08-3.71.82-3.11.9-5.8,1.63-12.12,3-7.13,2.53-3.82,1.76-2.44,1.51-1.08.68-1.12.77-4.65,3.24-9.58,11.71M-108.47,802.72l-.44-1.23-.46-2-.79-2.24-1.71-2.87-2.41-2.06-2.35-1.68-2.57-1.22-3.19-.69-3.19,0-16.15,3.8m0,0,1.59,3.05,15.33,29.32,7.66,14.66c1.33,2.43,2.42,4.92,3.62,7.39l3.54,7.41c4.76,9.82,9.26,20,14.4,29.08l3.89,7.25,2,3.63.58,1.07a17.8,17.8,0,0,1,.83,1.63l1,2.38c.51,1.22,1,2.44,1.51,3.49l1.68,3.68,4.22,9.18,1.84,8.43,1,13.34c.14,1.91.32,4.34.39,6.28l.3,6.13,1.21,24.55c.25,4.06.23,8.3.35,12.44s.19,8.35.12,12.4l-6,24.55-.57,23.82q-.25,11.83-.4,23.65t-.14,23.63l.06,11.8c0,3.81.14,7.72.23,11.73a189.86,189.86,0,0,1-.72,25.32c-.24,2.11-.59,4.63-1.06,6.88s-1,4.48-1.59,6.58c-1.17,4.2-2.46,8.09-3.57,11.7a89,89,0,0,0-2.63,10.16,52.77,52.77,0,0,0-.83,9.73,118.87,118.87,0,0,0,2.44,21.47,183,183,0,0,0,5.12,21.86c1.21,4,2.18,7.44,3.32,10.12.28.67.57,1.27.86,1.84s.48.87,1.11,1.9l3,5a91.27,91.27,0,0,0,5.93,8.73,75.79,75.79,0,0,0,7,7.59l4.17,4,2.12,2c.52.49,1.1,1,1.72,1.51,2.49,2.09,5.73,4.33,9.32,7.25l18.3,15.36c6,5,12.24,10,18.46,15.58a163.47,163.47,0,0,1,17.79,18.34c1.73,2.1,3.39,4.27,5,6.45L26.3,1332,46,1325.23c3.08-1.12,6.41-2.11,9.66-3.13l9.62-3c3.17-1,6.53-1.85,9.79-2.78L80,1315l4.87-1.25,18.86-5,18.83-5.1,19-5.58c6.29-2,12.9-3.37,19.41-4.91l20.38-4.7,10-1.15,9.57.12,8.33,1.21,9.09,2.74,8.3,4.58.43.33M-187.48,705.13l9.2.21,9.7.23,4.85.11,2.42.06,2.32.1c6.15.31,12.33.81,18.55,1.44,12.4,1.3,25.09,3.08,37.53,5.21,4.63.78,9.38,1.62,14.24,2.4l-.15,14.39-.09,7.79-.06,6.44,0,2.85-.12,14.84-.12,15.4-.22,26.79-19-.67M69.27,1534.5l-2.69-.85m16.74,30.09-.12,6.58,0,16.33,1.55,7.7c.48,2.18.75,4.3,1.12,6.45l.52,3.22.44,3.33.94,7.18,1.78,8.08,1.33,7.72,2.89,16.58,4,12.69c1.42,3.93,3,7.81,4.44,11.72l4.47,11.65c.78,1.94,1.43,3.88,2.31,5.82l2.62,5.82,2.63,5.82c.67,1.49,1.21,3,1.77,4.45,3.68-1.28,6.78-2.66,9.43-3.66l1-.4.51-.18.77-.26,2-.62c.67-.26,1.3-.54,1.95-.81l7.76-3.27,1.94-.82a5.23,5.23,0,0,0,1.74-.94,13.66,13.66,0,0,0,1.31-1.23,6.82,6.82,0,0,0,1.05-1.66,17,17,0,0,0,1.15-3.64,9.37,9.37,0,0,0,.25-3.71l-.58-14.75-.07-1.84,0-.91,0-.65-.19-2.62-.37-5.22-.74-10.45-1.46-20.88-1.09-20.56-.54-10.36c-.12-3.84-.39-7.32-.47-10.42,0-.9,0-1.73,0-2.52M-322.39,266.13l30.78,87.23c.08.47.15,1,.2,1.53l.23,2,.7,19.17L-292.14,404c-.19,4.54-.74,9.21-1.18,13.84l-1.47,14.12-4.11,21.53-1,5.26L-301,464l-1.07,5.38c-.21,1-.39,2-.63,2.91l-.45,1.71-.25,4c0,1.71,0,3.4,0,5.13l0,5.25c0,.86-.05,1.8,0,2.58l.11,1.7.83,4.43,1.13,4.08c.45,1.51.77,3,1.33,4.53l2.86,8.17,5.07,9.58c.93,1.71,1.8,3.45,2.77,5.15l3.09,5,6.19,10.1,6,10.51,6.06,10.51,3,5.25c1,1.76,2.06,3.47,3,5.33l1.39,2.74,1.39,2.54,2.83,5.18,5.73,10.51,5.76,10.57,2.93,5.38,1.47,2.68c.24.44.52,1.06.78,1.57l.63,1.32c.85,1.7,1.59,3.4,2.52,5.1l2.85,5.12,5.76,10.33,11.54,21.45,10.29,22,18.59,23.22,1.93,2.41,2,3.81,1.87,3.69,3.72,7.38,7.45,14.76,28.74,55.36"/><path class="cls-15" d="M227.07,1296.28l2.81,2.19.92.73c.33.24.74.5,1.1.76l5,3.41L253,1316.08l5.83,5.83,5.21,6.71,4.52,7.52,4.27,8.78L281.4,1367l4.78,16.08,1.17,4.07c.4,1.35.69,2.77,1,4.16l2.3,9.84.08,7.47c0,.47,0,1.06,0,1.64l-.09,1.73-.05.91-.11,1.18-.22,2.36-2.46,10-1.62,4.55-4.54,9.82-4.25,7.4L254,1476.43l-11.19,13.5-2.32,2.72M83.32,1563.74l.76.25,7.81,2.71,9.74,2.37c3.07.75,6.13,1.48,9.2,2.31,6.13,1.62,20.88,10.84,20.88,10.84l9.52.28,1.43,0,9-1.7,7.69-2.23,8.13-3.06,5.37-2.69,6-4.85,5.11-4.25,4.59-4.52,5.92-8.16,2.39-3.3c.78-1.09,1.79-2.22,2.67-3.32l10.94-13.39,11.06-14c3.59-4.64,7-9.22,10.51-13.82,1.76-2.28,3.44-4.67,5.27-6.84l3.2-3.76m0,0,4.94,4c3.11,2.45,6.39,4.7,9.57,7.06l10.06,7.31,7.62,3.67,5.77.65,3.16-.1c.92,0,1.85-.06,2.77-.14l6.24-.48,9.82-3.78c5.75-4.85,7.45-6.06,13.56-10.84l4.68-7.86,10.24-14.43c1.73-2.41,3.46-5,5.19-7.55l4.95-8.18,5.85-14.42,2.29-9.81,2-9.74,1.52-15.92-.33-18.88-3.64-19.27-3.48-10.44-1.68-5c-.57-1.67-1.2-3.34-1.8-5l-7.23-19.86-14.48-40-3.87-7.91-6.21-6.94-8.35-6.51-7.87-3-1.95-.74c-.44-.17-.9-.34-1.35-.49a4.42,4.42,0,0,0-.68-.21l-.72-.07a16.3,16.3,0,0,0-2.88-.12l-2.55.08-3.71.82-3.11.9-5.8,1.63-12.12,3-7.13,2.53-3.82,1.76-2.44,1.51-1.08.68-1.12.77-4.65,3.24-9.58,11.71M-108.47,802.72l-.44-1.23-.46-2-.79-2.24-1.71-2.87-2.41-2.06-2.35-1.68-2.57-1.22-3.19-.69-3.19,0-16.15,3.8m0,0,1.59,3.05,15.33,29.32,7.66,14.66c1.33,2.43,2.42,4.92,3.62,7.39l3.54,7.41c4.76,9.82,9.26,20,14.4,29.08l3.89,7.25,2,3.63.58,1.07a17.8,17.8,0,0,1,.83,1.63l1,2.38c.51,1.22,1,2.44,1.51,3.49l1.68,3.68,4.22,9.18,1.84,8.43,1,13.34c.14,1.91.32,4.34.39,6.28l.3,6.13,1.21,24.55c.25,4.06.23,8.3.35,12.44s.19,8.35.12,12.4l-6,24.55-.57,23.82q-.25,11.83-.4,23.65t-.14,23.63l.06,11.8c0,3.81.14,7.72.23,11.73a189.86,189.86,0,0,1-.72,25.32c-.24,2.11-.59,4.63-1.06,6.88s-1,4.48-1.59,6.58c-1.17,4.2-2.46,8.09-3.57,11.7a89,89,0,0,0-2.63,10.16,52.77,52.77,0,0,0-.83,9.73,118.87,118.87,0,0,0,2.44,21.47,183,183,0,0,0,5.12,21.86c1.21,4,2.18,7.44,3.32,10.12.28.67.57,1.27.86,1.84s.48.87,1.11,1.9l3,5a91.27,91.27,0,0,0,5.93,8.73,75.79,75.79,0,0,0,7,7.59l4.17,4,2.12,2c.52.49,1.1,1,1.72,1.51,2.49,2.09,5.73,4.33,9.32,7.25l18.3,15.36c6,5,12.24,10,18.46,15.58a163.47,163.47,0,0,1,17.79,18.34c1.73,2.1,3.39,4.27,5,6.45L26.3,1332,46,1325.23c3.08-1.12,6.41-2.11,9.66-3.13l9.62-3c3.17-1,6.53-1.85,9.79-2.78L80,1315l4.87-1.25,18.86-5,18.83-5.1,19-5.58c6.29-2,12.9-3.37,19.41-4.91l20.38-4.7,10-1.15,9.57.12,8.33,1.21,9.09,2.74,8.3,4.58.43.33M-187.48,705.13l9.2.21,9.7.23,4.85.11,2.42.06,2.32.1c6.15.31,12.33.81,18.55,1.44,12.4,1.3,25.09,3.08,37.53,5.21,4.63.78,9.38,1.62,14.24,2.4l-.15,14.39-.09,7.79-.06,6.44,0,2.85-.12,14.84-.12,15.4-.22,26.79-19-.67M69.27,1534.5l-2.69-.85m16.74,30.09-.12,6.58,0,16.33,1.55,7.7c.48,2.18.75,4.3,1.12,6.45l.52,3.22.44,3.33.94,7.18,1.78,8.08,1.33,7.72,2.89,16.58,4,12.69c1.42,3.93,3,7.81,4.44,11.72l4.47,11.65c.78,1.94,1.43,3.88,2.31,5.82l2.62,5.82,2.63,5.82c.67,1.49,1.21,3,1.77,4.45,3.68-1.28,6.78-2.66,9.43-3.66l1-.4.51-.18.77-.26,2-.62c.67-.26,1.3-.54,1.95-.81l7.76-3.27,1.94-.82a5.23,5.23,0,0,0,1.74-.94,13.66,13.66,0,0,0,1.31-1.23,6.82,6.82,0,0,0,1.05-1.66,17,17,0,0,0,1.15-3.64,9.37,9.37,0,0,0,.25-3.71l-.58-14.75-.07-1.84,0-.91,0-.65-.19-2.62-.37-5.22-.74-10.45-1.46-20.88-1.09-20.56-.54-10.36c-.12-3.84-.39-7.32-.47-10.42,0-.9,0-1.73,0-2.52M-322.39,266.13l30.78,87.23c.08.47.15,1,.2,1.53l.23,2,.7,19.17L-292.14,404c-.19,4.54-.74,9.21-1.18,13.84l-1.47,14.12-4.11,21.53-1,5.26L-301,464l-1.07,5.38c-.21,1-.39,2-.63,2.91l-.45,1.71-.25,4c0,1.71,0,3.4,0,5.13l0,5.25c0,.86-.05,1.8,0,2.58l.11,1.7.83,4.43,1.13,4.08c.45,1.51.77,3,1.33,4.53l2.86,8.17,5.07,9.58c.93,1.71,1.8,3.45,2.77,5.15l3.09,5,6.19,10.1,6,10.51,6.06,10.51,3,5.25c1,1.76,2.06,3.47,3,5.33l1.39,2.74,1.39,2.54,2.83,5.18,5.73,10.51,5.76,10.57,2.93,5.38,1.47,2.68c.24.44.52,1.06.78,1.57l.63,1.32c.85,1.7,1.59,3.4,2.52,5.1l2.85,5.12,5.76,10.33,11.54,21.45,10.29,22,18.59,23.22,1.93,2.41,2,3.81,1.87,3.69,3.72,7.38,7.45,14.76,28.74,55.36"/></g><g id="津ノ井倉田"><path class="cls-22" d="M-694.51,1013.82c-.16-.89-.27-1.82-.49-2.67l-.47-2.14-.7-1.73c-.29-.71-.55-1.44-.89-2.13-.64-1.36-1.29-2.94-1.94-4.4l-3.89-9-1.94-4.49c-.65-1.5-1.17-3-1.75-4.56l-1.72-4.56-1.94-4.93-1.47-7.23-.32-6.72.53-5.12,1.76-7.71.93-6.17,5.39-12c1.72-3.75,3.26-7.52,4.89-11.28l4.85-11.29c1.55-3.8,2.92-7.73,4.4-11.59l2.17-5.81c.73-1.93,1.4-3.89,2.3-5.77l5.08-11.35,10.07-22.5,7.26-20.61.74-37.27.41-19.12.59-19.17c.38-12.76,1.39-25.62,2.29-38.36l.69-9.57c.21-3.19.67-6.41,1-9.61l1.06-9.61.54-4.81.82-4.88m-40.24,338.11c.13.81.22,1.56.4,2.41l.42,2.14.14,2c0,.77.14,1.54.12,2.32l0,5,.84,8.13,0,4.35,0,4.92.14,1.62-1.29,10.44c-1.32,6.19-3.44,13.28-5.24,20.07l-5.51,20.31-2,5.81c-.71,2-1.48,4-2.21,6l-3.88,10.46-.61.47-.53,1,0,.1c-3.22,6-6.39,12-9.71,17.86-1.68,2.92-3.19,5.92-5.1,8.71l-5.59,8.73-4.56,8.46c-1.5,2.73-3,5.53-4.51,8.18l-4.61,8-4.85,7.46-5,5.93-2.65,3.12-2.36,3.15-10.56,11.7-10.6,12-2.62,3-2.71,3-5.41,5.95-2.71,3-2.63,3.18c-.86,1.06-1.76,2.12-2.58,3.18l-2.38,3-4,4.37c-1.4,1.5-2.68,3.06-4,4.59l-8,9.21-8.15,9.38,4.57,3.67,2.37,1.9.6.47.14.12.43.32.31.22,1.24.88,10.4,7.41,6.57,2.85,5.34.44,1.25.11.84.06.84,0,2.31-.15,8.76-.56,17.52-1.12m111.31-616.9,2.84-30.92.35-3.86c.13-1.29.21-2.56.44-3.91l1.17-7.75,1.36-9.05-3.27-39,1.28-5c1.4-5.62,2.93-11.18,4.21-16.86l3.77-17.09c2.52-11.46,5.2-22.8,7.65-34.58.32-1.45.61-3,.95-4.36l1.06-4.21,1.06-4.22c.36-1.42.71-2.75,1-4.26l.64-2.6.32-1.28.3-1.09,1.19-4.34,2-7.43.75-5.95.41-8.67v.14c.72-18,1.32-36.1,1.86-54l.76-27.12.31-13.49.23-12.84-.13-2.08v-2.06l.51-8.51,1.61-12.45,2.55-11.54,3.89-9.46,5.28-9.83.32-.6.36-.56.35-.54,5.48-9.93c1.94-3.5,3.9-7.16,5.89-10.56l11.91-20.75,6-10.37c2-3.44,4-6.92,5.91-10.46,1.26-2.23,2.47-4.46,3.73-6.68-5.4-2.68-10.79-5.36-16.16-8.09l-16.2-8.7-16.23-8.35c-5.4-2.79-10.86-5.55-16.12-8.4s-10.88-5.39-16.21-8.22c-1.33-.68-2.68-1.43-4-2.07l-3.93-1.93-8.23-4.06-8.24-4.06-4.11-2-4.8-2.43m-31.46,953.56,6.05,2.12,13.15,4.62,5.53,1.5,4.49,1.22,9.57,3.2,15.19,5.83,1.66.16,23.57,4.77,3.43.34,30.28,2.94,10.26,1,17.25,1.68,49.41,4.22,15.11,1.47,17.91,1.28,26.42,2,10.68.63,4.76-.39,6.61-1.86,17.46-5.75,31.05-10.88,4.14-2.43,3.67-1.92,17.82-17.47,13-13.62,10.33-11.25,4.32-4.06,2.48,1.47,5.59,2.59,4.49,1.26,1.68.27,1.09.17,3.06.39,2.15.37,3.66.42,3.68.34,6.41.29,13.39,1,36.68,3.16,20.32,1.15,5.95.28,3.89.11,39.59,2.19,13.11,1,48.69-.38h1.2l3.88,0,1.58,0h8.13l16.34,0,27.51.58,2.1.07,10.69,1.17,9.56,1,4.06,0,9.7.09,5-.45,5,.18,15.06-.09,2.08,0,8.33-.31,4.2,0,2.66,0,3.72,0,4.07.06,14.88.13,11.74,0,8,0,17.07-.19,8.46-.1,2-.16,3.79-.29,5.09-1.2,3.39-1.87,2.16-1.5,2.29-1.44,1.18-3.4.72-4.58-.15-4-.06-1.52-.13-3.72-1.35-8.7-.63-4.65-.7-12.6-.31-6.77-3.17-1.63-3.09-2.39-5.19-4.76-3.44-1.93-2.64-1.52-2.41-.87-4.48-1.05-5.46-2-4.47-2.69-2.6-2-2.59-2-6.06-4.61-3.18-3-4-3.51-7.4-6.66-3.39-4-4.05-5.59-2.39-2.95-.92-1.31-2.58-1.23-.72-.29-.65-.08L19.18,996l-1.76-.12-.51-.11h-8l-13.58,0-.8,0-33-.54L-50,994.89l-16.66-.24h-.61l-4.22,0h-.57l-20.22-.15-17.62-.12c0-2.28-.06-4.54-.11-6.8-.12-3.93-.09-7.79-.34-11.81l-1.17-23.92-.3-6c-.08-2.1-.2-3.71-.36-5.83l-.77-10.86-.49-2.24-2.66-5.78-1.74-3.81c-.67-1.45-1.21-2.76-1.77-4.07l-.59-1.4c0-.08-.08-.14-.11-.21l-.4-.74-1.94-3.63-3.9-7.25c-5.68-10.08-10-20-14.84-29.93L-145,862.7c-1.2-2.47-2.31-5-3.62-7.4l-7.6-14.52-15.19-29.06-30.38-58.51-7.39-14.64-3.7-7.32-1.85-3.67-1.84-3.44c-4.56-8.43-9.1-17-13.69-25.39l-10.7-35.06-7.5-13.93-5.89-10.57-3-5.34c-1-1.8-1.85-3.75-2.78-5.62l-.67-1.38c-.18-.37-.3-.67-.54-1.11l-1.4-2.56-2.8-5.13-5.7-10.44-5.72-10.5-2.91-5.32-1.47-2.71-1.32-2.6c-.83-1.74-1.88-3.42-2.85-5.13l-2.95-5.11L-294.29,566l-5.9-10.23-6.3-10.31-3.17-5.16c-1-1.76-1.92-3.59-2.89-5.38l-6.14-11.57-3.66-10.5c-.59-1.6-1-3.31-1.46-4.95l-1.52-5.45-1.29-6.87-.21-3.79c-.09-1.05,0-1.94,0-2.92l0-5.75c0-1.94,0-3.91.06-5.87l.41-6.95.91-3.45c.2-.78.33-1.55.5-2.32l1-5.12,1-5.17,1-5.25,3.91-20.49,1.35-13c.42-4.42.95-8.78,1.14-13.32l1.57-26.55-.63-17-30.74-87.6"/><polyline class="cls-23" points="73.41 1038.39 73.26 1038.36 67.8 1036.39 63.33 1033.69 60.73 1031.69 58.13 1029.69 52.08 1025.08 48.9 1022.11 44.89 1018.6 37.49 1011.94 34.09 1007.98 30.05 1002.39 27.66 999.44 26.74 998.13 24.16 996.9 23.44 996.61 22.79 996.53 19.18 995.97 17.42 995.85 16.91 995.74 8.86 995.73 -4.72 995.76 -5.52 995.74 -38.49 995.2 -50.02 994.89 -66.68 994.65 -67.29 994.64 -71.51 994.68 -72.08 994.68 -92.3 994.53 -95.66 994.51"/></g><g id="若桜"><path class="cls-24" d="M-619.48,598.35l1.18-4.35,2.22-8.72c1.44-5.81,3-11.63,4.35-17.44l3.85-17.44c2.54-11.56,5.29-23.16,7.62-34.46.31-1.42.58-2.83.93-4.27l1.1-4.36,1.09-4.37c.36-1.42.75-2.95,1-4.34l.42-1.69.22-.86.29-1.05,1.15-4.17,2.65-9.62,1.25-9.88.46-10v-.14c.72-18.17,1.32-36.22,1.87-54.48l.76-27.13.31-13.65.26-14.29-.21-3.42v2.07l.43-7.28,1.27-9.75,1.53-6.94,2.06-5,4.42-8.23-.68,1.16,1-1.5,6.07-11c1.92-3.48,3.71-6.84,5.75-10.31l11.88-20.7,5.94-10.34q3-5.18,5.85-10.34c1.93-3.43,3.77-6.94,5.82-10.25l6.41-10.74,1.37-2.84s4.79-16.9,10-25.14l-.17.26,18.57-27.05L-490,161c1.5-2.26,3.21-4.33,4.83-6.47l5.67-7.36L-476,140l1.22-1.39,1.78-2.77,3.58-5.53m135.6,138.28,31,89.2.67,18.07-1.62,27.22c-.19,4.54-.72,9.06-1.16,13.58l-1.4,13.56-4,21c-.68,3.5-1.32,7-2.05,10.5s-1.29,7-2.29,10.44l-.33,5.49c-.05,1.84,0,3.67-.05,5.5,0,3.67-.16,7.34.16,11l1.06,5.65c.91,3.17,1.7,6.37,2.72,9.51l3.26,9.33,5.61,10.57c.94,1.76,1.84,3.54,2.82,5.27l3.14,5.1,6.24,10.21,6,10.36,6,10.37,3,5.18c1,1.74,2,3.44,2.9,5.24,1.76,3.58,3.78,7,5.65,10.54l5.73,10.5,5.73,10.51,2.86,5.25,1.44,2.63c.46.88.87,1.79,1.31,2.68.89,1.79,1.7,3.62,2.65,5.37l2.91,5.22,5.83,10.46,8.11,15.06,4.77,15.66,5.93,19.42c4.41,8.1,8.76,16.25,13.14,24.36l1.91,3.56,1.85,3.68,3.71,7.34,7.41,14.68L-161,806.35l15.24,29.14,7.62,14.57c2.52,4.87,4.77,9.89,7.17,14.83,4.8,9.89,9.2,19.91,14.7,29.64l3.89,7.26,1.95,3.63c.35.67.6,1.07.8,1.53l.74,1.73c.54,1.28,1.07,2.56,1.68,3.87l1.72,3.77,3.18,6.91.94,4.3.83,11.69c.33,4,.45,8,.67,12l1.18,24.14c.26,4,.23,8,.34,12s.19,8,.12,12l-6,24-.56,23.72q-.26,11.94-.41,23.9t-.14,23.92l.06,12c0,4.12.15,8.13.23,12a167.49,167.49,0,0,1-.57,22.2c-.22,1.82-.41,3.23-.75,4.86s-.73,3.25-1.2,5c-1,3.44-2.16,7.08-3.38,11a109.69,109.69,0,0,0-3.29,12.85,76.79,76.79,0,0,0-1.21,13.93,142.31,142.31,0,0,0,2.83,25.73,206.85,206.85,0,0,0,5.74,24.41,124,124,0,0,0,4.16,12.44c.48,1.16,1,2.35,1.66,3.54s1.46,2.59,1.86,3.25l3.13,5.14a116.38,116.38,0,0,0,7.44,10.91,100.48,100.48,0,0,0,9.08,9.91l4.44,4.23,2.2,2.08c.92.87,1.84,1.66,2.74,2.41,3.61,3,6.9,5.25,9.45,7.35l18.12,15.22c6.2,5.19,12.28,10.08,17.89,15.09a138.4,138.4,0,0,1,15.3,15.75,147.05,147.05,0,0,1,12.62,18c.93,1.55,1.88,3.09,2.85,4.6l3.12-1.44,7-4.12,7.05-4.12,11.83-5.48,18.24-6.32m57.83,454-6-12.84-2.61-6.21-2.42-7.32-1.74-5.58-1.09-5.21-.94-6.23-.68-9.09,0-1.08-.8-18.17L91,1698.36l-2-11.54c3.56-.62,7-1.15,10.11-1.76,1.58-.3,3.11-.62,4.58-1s2.91-.75,4.1-1.14c2.56-.84,5.58-2.18,9.24-3.6l1.41-.53,1.19-.42.92-.3,1.52-.48.76-.24c.25-.06.56-.18.55-.48a10.46,10.46,0,0,0,0-2l-.45-5.9-1.42-20.06L120,1628l-1.13-21.26-.55-10.57c-.09-3.13-.36-6.62-.47-10.49a67.73,67.73,0,0,1,.69-12.51c.62-4.11,1.52-7.8,2.3-11.18l11.58-3.19,8.41.25,5.34-1,5.77-1.67L158,1554l2-1,3.94-3.16,4.17-3.47,2.52-2.49,4.9-6.74,2.65-3.64c.87-1.22,1.85-2.3,2.77-3.46l11.16-13.66L203,1502.7c3.58-4.63,7.11-9.36,10.67-14,1.8-2.32,3.49-4.72,5.39-7l5.74-6.76L236,1461.41l22-26.65,2.75-4.78,3.65-7.9.88-2.47,1.76-7.1.08-.91c0-.3.06-.61.08-1,0-.77.1-1.48.08-2.29l-.05-4.35-1.64-7c-.55-2.5-1.28-5-2-7.46l-4.42-14.88-7.88-20.3-3.41-7-3.24-5.41-3.51-4.51-3.8-3.8-14.31-11.33-4.83-3.29c-.84-.54-1.67-1.17-2.5-1.83l-2-1.58-4.5-2.48-5-1.52-5.07-.74-6.53-.08-7.23.83-18.77,4.32c-6.34,1.5-12.72,2.78-19,4.79l-18.83,5.52-19,5.17-19.08,5-4.73,1.22-4.68,1.28c-3.12.89-6.26,1.63-9.35,2.65l-9.32,2.91c-3.08,1-6.17,1.88-9.25,3m-28.64,1177,2.65,7.15.76,2,.48,1.3,5.49,8,5.18,7.13,7.52,8.29L62,2575.77l32,38.95,9.2,9.58,1.92,2.24,14.73,15.91,14.83,18.73,40,51.55,5,5,8.72,6.06,8.44,4,30.37,8.08,8.35,1.39,7.57.05,18.68-3.19,2.53-.43,7.37-1.67,6.74-.87,5.31.68,3.93,1.5,3.3,1.84,9.06,8.18,16.49,14.53,11.27,9.91,14.69,13.87,10.42,13,10,13.63,4.59,7.19,5.48,7.27,3.73,4.46,3.53,4,4.85,4.79,6,5.54,9.3,6.28,12,4.83.62.24,6.58,1.35,6.59,1.07,17.83,3.33,6.76,1.81,1.78.77,33.76,14.63,11.79,5.11,29.26,13.61,7.12,4.51,12.91,11.54L572.94,2940l11.3,13.24,1,1.07,23,26.31,10.56,12.31L653,3032.72l19,22.1.95,1.1,9.49,10.49,14,13.1,35,24.59,4.38,3.29M40.53,2409.74l2.43-7.89,2.09-7,1.33-4.46,5.18-18.08,7.5-26.25,9.86-34,1.13-4.58.67-2.3,3.17-10.28,6.86-15.52,5.14-9.23L94.18,2259l6.25-6.08,27.13-30.41,6.37-7.14,1.75-2,23.13-25.92L179.87,2164l5.54-6.18,10.34-11.65,11.47-15.12,4.51-11.33,2.14-6.56,2.13-6.8,1.08-9.88.5-9.08-.9-12.74-1-6.05-2.21-9.25-15.79-43-14.76-40.76L137.8,1855.38l-2.34-6.18-1.72-3.65-22.58-44M40.53,2409.74,24,2404.44l-13.31-3.84-2.09-.6L4.51,2399l-4.72-1.44-6.53-1.59-6.27-1.74-2.46-1.28-2.48-1.21-6.42-3.83-1.63-.93-1.52-.61-.65-.12-.64.12-.56.44-.61.75-.45.84-1.66,4-.52,1.53-1.16,2.55-9,19.23-9.15,18-1,2.07-1.65,3.12-.54,1-7.61,15.39-1.15,2.27-1.93,3.9-2.31,4.12,1.63,1.34,1.18,1.47,2.63,3.09,2.92,3.29,2.58,3.34.21.27.79,1,1.65,2.13.37.48,9.8,12.45,1.57,1.7,4.77,6.21.08.11.36.47,3,3.87,1.59,1.95,2.52,3.08,2.24,2.75,1.45,1.28,3.83,3.36.64.39,6.44,3.85,2.42.85,4.84,1.7,2.73.28h3.45l27.16-1.89m3501.8,2013.31L3516.26,4524l-5.73-7.71-4.3-9-3.15-.78-1.61-.39-20.43-3.79-2.55-.72-4.08-6.2L3460,4477.18l-.84-1-2.28-1.95-12.13-14.39-13.44-15.91-3.42-4.15-7.15-8.6-6.16-7.41-7.66-9.25-2.68-3.25-10.38-12.42-20.11-24.58-.33-.4-12.57-14.74-6.76-8.32-5.09-6.24-11.92-14.3-10.81-13.11-1.69-1.49-14.72-13.59-4.05-3.63-.2-.17L3293,4287.14l-5.46-4.82-2.93-2.6-12.59-10.9-25.44-23.28-3.91-3.83-4.59-4.51-1.9-1.59-2.95-2.61-3-2.58-5.91-3.31-3.06-2-2.08-1.39-2.93-5.36-4.67-6.94-8.12-4.84-5.74-5.3-1.27-4.1-84.55-69.79-22.32-20.31-14-14-22.88-26.52-53.58-71.9-23.76-32.76-39.09-56.27-3-3.76-6.78-10.81-5.18-13.42-1.72-10.74-4.61-74.2-3.25-48.52-2.6-11.66-4.31-10.29-4.21-8.15-10.74-14.76-12.55-10.48-1.06-1-23-10.55-12.85-3.45-9.78-1-8.05.38-9.83,1.13-12.64,3.25-9,4-13,8.43-10.16,7.26-1.9,1.35-40,30.4-3.44,2.54-17,15.69-8.23,9.39-7.45,11.15L2670.48,3794,2636,3842.67l-7,6.54-5.72,4.54-8.83,3.73-14.91,2.82-1.91.23-18.36,2.17-8.49.66-16.72,1.06-1.17.07-22.81,1.36-14,.88-.55,0-11,.43-3,.12-8.45.57-.59,0-16.4,1.17-8.76.61-2.36.17h-9.46l-6.24-.1-5.52-.64-5.52-.82-4.75-.83-9.37-1.61-4.95-1-14.62-2.55-18.64-3.53-.54-.11-14.13-2.68-11-1.72-28.61-5.65-39.71-7.12-37.47-7-31.37-5.78-3.11-.78-60.62-11.18-14.74-3.14-9.91-4-8.31-4.87-7.38-6.38-2.37-2.81-20.9-19.68-25.83-24.33-11.45-6.54-20-8.6L2007,3723l-8.58-2.39-4-1.09-15.57-2.1-9.4.11-12.31.1-22.24.19-13.9-.28-56-13.24-27.65-6.35-8.37-1.44-10.83-1.23-58.82-4.71-7.88-.88-8.31-.36-8.31.89-9.5,1.89-9.8,2.46-6.36,2.56-36.09,20.84-6,2.29-6.1,1-12.39.09-86.56.66h-4.43l-32-6.74-8-1.68-.77-.16-4.73-.61-4.72.26-21.11,5.91-4.46.52h-4.47l-8.84-2.84-34.33-13.57-5.32-2.32-4.93-2.14-8.15-4.37-4.61-2.48-9.62-7.2-9.12-7.88-1.14-1-.83-.86-23.88-24.43-27.94-28.87-1-1-2.87-2.8-1.11-1.07-11.2-11.43-8.18-8.35-11.8-16.79-7.33-10.8-12-18-5.9-6.15-10.19-7.63L1245,3523.56l-26.28-16.35-49.09-31.06-8-4.89-10.94-5.21-6.64-1.62-9.94-1.6-17.14-1.75-18.35-4.44-5.18-2.55-1.25-.63-9.58-5.27L1058,3433.61l-21-12.49-10-5.9-20.64-12.32-84.24-49.85-2.5-2.4-1.27-.84-3.7-2.43-4.28-4.65-5.47-7.05-3.59-6.54-2.07-6.85-.38-1.26-1.7-5.73-1.26-5.47-3.25-11.68-2.24-6.12-1.64-3.92-1.2-2.47-2.46-5.16-2.18-4.68-.25-.54-6.58-14.78-2.21-4.71-5.31-8.28-34.92-43.89-1.28-1.61-16.05-20.55-22.91-29.32-3.12-3.4L789,3147.3l-10.3-9.69-.83-.59L761.6,3125.4l-.65-.47-7.71-5.15-2.09-1.4-3.48-2.52-2.38-1.72-2-1.47-3.76-2.73-3.69-2.55M-319.3,659.78l6.72.64,3.35.33c1.13.12,2.26.31,3.38.47l7.17,1,5.77,1.27,5.6,1.71,4.06,1.81s8,5.48,8.11,5.49l.95.2,20.47,2.07,2.51-1.09,2.74.13,4.14.19,2.06.1,2,.14,8,.29,7,.25m-395.15-72.69c.15-.66.28-1.34.44-2l.51-1.82"/><path class="cls-15" d="M-619.48,598.35l1.18-4.35,2.22-8.72c1.44-5.81,3-11.63,4.35-17.44l3.85-17.44c2.54-11.56,5.29-23.16,7.62-34.46.31-1.42.58-2.83.93-4.27l1.1-4.36,1.09-4.37c.36-1.42.75-2.95,1-4.34l.42-1.69.22-.86.29-1.05,1.15-4.17,2.65-9.62,1.25-9.88.46-10v-.14c.72-18.17,1.32-36.22,1.87-54.48l.76-27.13.31-13.65.26-14.29-.21-3.42v2.07l.43-7.28,1.27-9.75,1.53-6.94,2.06-5,4.42-8.23-.68,1.16,1-1.5,6.07-11c1.92-3.48,3.71-6.84,5.75-10.31l11.88-20.7,5.94-10.34q3-5.18,5.85-10.34c1.93-3.43,3.77-6.94,5.82-10.25l6.41-10.74,1.37-2.84s4.79-16.9,10-25.14l-.17.26,18.57-27.05L-490,161c1.5-2.26,3.21-4.33,4.83-6.47l5.67-7.36L-476,140l1.22-1.39,1.78-2.77,3.58-5.53m135.6,138.28,31,89.2.67,18.07-1.62,27.22c-.19,4.54-.72,9.06-1.16,13.58l-1.4,13.56-4,21c-.68,3.5-1.32,7-2.05,10.5s-1.29,7-2.29,10.44l-.33,5.49c-.05,1.84,0,3.67-.05,5.5,0,3.67-.16,7.34.16,11l1.06,5.65c.91,3.17,1.7,6.37,2.72,9.51l3.26,9.33,5.61,10.57c.94,1.76,1.84,3.54,2.82,5.27l3.14,5.1,6.24,10.21,6,10.36,6,10.37,3,5.18c1,1.74,2,3.44,2.9,5.24,1.76,3.58,3.78,7,5.65,10.54l5.73,10.5,5.73,10.51,2.86,5.25,1.44,2.63c.46.88.87,1.79,1.31,2.68.89,1.79,1.7,3.62,2.65,5.37l2.91,5.22,5.83,10.46,8.11,15.06,4.77,15.66,5.93,19.42c4.41,8.1,8.76,16.25,13.14,24.36l1.91,3.56,1.85,3.68,3.71,7.34,7.41,14.68L-161,806.35l15.24,29.14,7.62,14.57c2.52,4.87,4.77,9.89,7.17,14.83,4.8,9.89,9.2,19.91,14.7,29.64l3.89,7.26,1.95,3.63c.35.67.6,1.07.8,1.53l.74,1.73c.54,1.28,1.07,2.56,1.68,3.87l1.72,3.77,3.18,6.91.94,4.3.83,11.69c.33,4,.45,8,.67,12l1.18,24.14c.26,4,.23,8,.34,12s.19,8,.12,12l-6,24-.56,23.72q-.26,11.94-.41,23.9t-.14,23.92l.06,12c0,4.12.15,8.13.23,12a167.49,167.49,0,0,1-.57,22.2c-.22,1.82-.41,3.23-.75,4.86s-.73,3.25-1.2,5c-1,3.44-2.16,7.08-3.38,11a109.69,109.69,0,0,0-3.29,12.85,76.79,76.79,0,0,0-1.21,13.93,142.31,142.31,0,0,0,2.83,25.73,206.85,206.85,0,0,0,5.74,24.41,124,124,0,0,0,4.16,12.44c.48,1.16,1,2.35,1.66,3.54s1.46,2.59,1.86,3.25l3.13,5.14a116.38,116.38,0,0,0,7.44,10.91,100.48,100.48,0,0,0,9.08,9.91l4.44,4.23,2.2,2.08c.92.87,1.84,1.66,2.74,2.41,3.61,3,6.9,5.25,9.45,7.35l18.12,15.22c6.2,5.19,12.28,10.08,17.89,15.09a138.4,138.4,0,0,1,15.3,15.75,147.05,147.05,0,0,1,12.62,18c.93,1.55,1.88,3.09,2.85,4.6l3.12-1.44,7-4.12,7.05-4.12,11.83-5.48,18.24-6.32m57.83,454-6-12.84-2.61-6.21-2.42-7.32-1.74-5.58-1.09-5.21-.94-6.23-.68-9.09,0-1.08-.8-18.17L91,1698.36l-2-11.54c3.56-.62,7-1.15,10.11-1.76,1.58-.3,3.11-.62,4.58-1s2.91-.75,4.1-1.14c2.56-.84,5.58-2.18,9.24-3.6l1.41-.53,1.19-.42.92-.3,1.52-.48.76-.24c.25-.06.56-.18.55-.48a10.46,10.46,0,0,0,0-2l-.45-5.9-1.42-20.06L120,1628l-1.13-21.26-.55-10.57c-.09-3.13-.36-6.62-.47-10.49a67.73,67.73,0,0,1,.69-12.51c.62-4.11,1.52-7.8,2.3-11.18l11.58-3.19,8.41.25,5.34-1,5.77-1.67L158,1554l2-1,3.94-3.16,4.17-3.47,2.52-2.49,4.9-6.74,2.65-3.64c.87-1.22,1.85-2.3,2.77-3.46l11.16-13.66L203,1502.7c3.58-4.63,7.11-9.36,10.67-14,1.8-2.32,3.49-4.72,5.39-7l5.74-6.76L236,1461.41l22-26.65,2.75-4.78,3.65-7.9.88-2.47,1.76-7.1.08-.91c0-.3.06-.61.08-1,0-.77.1-1.48.08-2.29l-.05-4.35-1.64-7c-.55-2.5-1.28-5-2-7.46l-4.42-14.88-7.88-20.3-3.41-7-3.24-5.41-3.51-4.51-3.8-3.8-14.31-11.33-4.83-3.29c-.84-.54-1.67-1.17-2.5-1.83l-2-1.58-4.5-2.48-5-1.52-5.07-.74-6.53-.08-7.23.83-18.77,4.32c-6.34,1.5-12.72,2.78-19,4.79l-18.83,5.52-19,5.17-19.08,5-4.73,1.22-4.68,1.28c-3.12.89-6.26,1.63-9.35,2.65l-9.32,2.91c-3.08,1-6.17,1.88-9.25,3m-28.64,1177,2.65,7.15.76,2,.48,1.3,5.49,8,5.18,7.13,7.52,8.29L62,2575.77l32,38.95,9.2,9.58,1.92,2.24,14.73,15.91,14.83,18.73,40,51.55,5,5,8.72,6.06,8.44,4,30.37,8.08,8.35,1.39,7.57.05,18.68-3.19,2.53-.43,7.37-1.67,6.74-.87,5.31.68,3.93,1.5,3.3,1.84,9.06,8.18,16.49,14.53,11.27,9.91,14.69,13.87,10.42,13,10,13.63,4.59,7.19,5.48,7.27,3.73,4.46,3.53,4,4.85,4.79,6,5.54,9.3,6.28,12,4.83.62.24,6.58,1.35,6.59,1.07,17.83,3.33,6.76,1.81,1.78.77,33.76,14.63,11.79,5.11,29.26,13.61,7.12,4.51,12.91,11.54L572.94,2940l11.3,13.24,1,1.07,23,26.31,10.56,12.31L653,3032.72l19,22.1.95,1.1,9.49,10.49,14,13.1,35,24.59,4.38,3.29M40.53,2409.74l2.43-7.89,2.09-7,1.33-4.46,5.18-18.08,7.5-26.25,9.86-34,1.13-4.58.67-2.3,3.17-10.28,6.86-15.52,5.14-9.23L94.18,2259l6.25-6.08,27.13-30.41,6.37-7.14,1.75-2,23.13-25.92L179.87,2164l5.54-6.18,10.34-11.65,11.47-15.12,4.51-11.33,2.14-6.56,2.13-6.8,1.08-9.88.5-9.08-.9-12.74-1-6.05-2.21-9.25-15.79-43-14.76-40.76L137.8,1855.38l-2.34-6.18-1.72-3.65-22.58-44M40.53,2409.74,24,2404.44l-13.31-3.84-2.09-.6L4.51,2399l-4.72-1.44-6.53-1.59-6.27-1.74-2.46-1.28-2.48-1.21-6.42-3.83-1.63-.93-1.52-.61-.65-.12-.64.12-.56.44-.61.75-.45.84-1.66,4-.52,1.53-1.16,2.55-9,19.23-9.15,18-1,2.07-1.65,3.12-.54,1-7.61,15.39-1.15,2.27-1.93,3.9-2.31,4.12,1.63,1.34,1.18,1.47,2.63,3.09,2.92,3.29,2.58,3.34.21.27.79,1,1.65,2.13.37.48,9.8,12.45,1.57,1.7,4.77,6.21.08.11.36.47,3,3.87,1.59,1.95,2.52,3.08,2.24,2.75,1.45,1.28,3.83,3.36.64.39,6.44,3.85,2.42.85,4.84,1.7,2.73.28h3.45l27.16-1.89m3501.8,2013.31L3516.26,4524l-5.73-7.71-4.3-9-3.15-.78-1.61-.39-20.43-3.79-2.55-.72-4.08-6.2L3460,4477.18l-.84-1-2.28-1.95-12.13-14.39-13.44-15.91-3.42-4.15-7.15-8.6-6.16-7.41-7.66-9.25-2.68-3.25-10.38-12.42-20.11-24.58-.33-.4-12.57-14.74-6.76-8.32-5.09-6.24-11.92-14.3-10.81-13.11-1.69-1.49-14.72-13.59-4.05-3.63-.2-.17L3293,4287.14l-5.46-4.82-2.93-2.6-12.59-10.9-25.44-23.28-3.91-3.83-4.59-4.51-1.9-1.59-2.95-2.61-3-2.58-5.91-3.31-3.06-2-2.08-1.39-2.93-5.36-4.67-6.94-8.12-4.84-5.74-5.3-1.27-4.1-84.55-69.79-22.32-20.31-14-14-22.88-26.52-53.58-71.9-23.76-32.76-39.09-56.27-3-3.76-6.78-10.81-5.18-13.42-1.72-10.74-4.61-74.2-3.25-48.52-2.6-11.66-4.31-10.29-4.21-8.15-10.74-14.76-12.55-10.48-1.06-1-23-10.55-12.85-3.45-9.78-1-8.05.38-9.83,1.13-12.64,3.25-9,4-13,8.43-10.16,7.26-1.9,1.35-40,30.4-3.44,2.54-17,15.69-8.23,9.39-7.45,11.15L2670.48,3794,2636,3842.67l-7,6.54-5.72,4.54-8.83,3.73-14.91,2.82-1.91.23-18.36,2.17-8.49.66-16.72,1.06-1.17.07-22.81,1.36-14,.88-.55,0-11,.43-3,.12-8.45.57-.59,0-16.4,1.17-8.76.61-2.36.17h-9.46l-6.24-.1-5.52-.64-5.52-.82-4.75-.83-9.37-1.61-4.95-1-14.62-2.55-18.64-3.53-.54-.11-14.13-2.68-11-1.72-28.61-5.65-39.71-7.12-37.47-7-31.37-5.78-3.11-.78-60.62-11.18-14.74-3.14-9.91-4-8.31-4.87-7.38-6.38-2.37-2.81-20.9-19.68-25.83-24.33-11.45-6.54-20-8.6L2007,3723l-8.58-2.39-4-1.09-15.57-2.1-9.4.11-12.31.1-22.24.19-13.9-.28-56-13.24-27.65-6.35-8.37-1.44-10.83-1.23-58.82-4.71-7.88-.88-8.31-.36-8.31.89-9.5,1.89-9.8,2.46-6.36,2.56-36.09,20.84-6,2.29-6.1,1-12.39.09-86.56.66h-4.43l-32-6.74-8-1.68-.77-.16-4.73-.61-4.72.26-21.11,5.91-4.46.52h-4.47l-8.84-2.84-34.33-13.57-5.32-2.32-4.93-2.14-8.15-4.37-4.61-2.48-9.62-7.2-9.12-7.88-1.14-1-.83-.86-23.88-24.43-27.94-28.87-1-1-2.87-2.8-1.11-1.07-11.2-11.43-8.18-8.35-11.8-16.79-7.33-10.8-12-18-5.9-6.15-10.19-7.63L1245,3523.56l-26.28-16.35-49.09-31.06-8-4.89-10.94-5.21-6.64-1.62-9.94-1.6-17.14-1.75-18.35-4.44-5.18-2.55-1.25-.63-9.58-5.27L1058,3433.61l-21-12.49-10-5.9-20.64-12.32-84.24-49.85-2.5-2.4-1.27-.84-3.7-2.43-4.28-4.65-5.47-7.05-3.59-6.54-2.07-6.85-.38-1.26-1.7-5.73-1.26-5.47-3.25-11.68-2.24-6.12-1.64-3.92-1.2-2.47-2.46-5.16-2.18-4.68-.25-.54-6.58-14.78-2.21-4.71-5.31-8.28-34.92-43.89-1.28-1.61-16.05-20.55-22.91-29.32-3.12-3.4L789,3147.3l-10.3-9.69-.83-.59L761.6,3125.4l-.65-.47-7.71-5.15-2.09-1.4-3.48-2.52-2.38-1.72-2-1.47-3.76-2.73-3.69-2.55M-319.3,659.78l6.72.64,3.35.33c1.13.12,2.26.31,3.38.47l7.17,1,5.77,1.27,5.6,1.71,4.06,1.81s8,5.48,8.11,5.49l.95.2,20.47,2.07,2.51-1.09,2.74.13,4.14.19,2.06.1,2,.14,8,.29,7,.25m-395.15-72.69c.15-.66.28-1.34.44-2l.51-1.82"/></g><polyline class="cls-25" points="-233.54 829.49 -233.47 832.07 -232.59 851 -231.57 853.8 -231.19 862.08 -231.07 872.32 -232.05 892.49 -232.8 901.47 -232.83 935.76 -232.62 960.94 -232.32 969.58 -231.31 989.95 -231.18 993.95 -231.12 1020.55 -230.59 1062.28 -230.38 1083.39 -230.27 1095.35 -229.99 1103.76 -230.26 1125.5 -230.03 1136.16 -229.71 1146.36 -228.68 1163.95 -228.36 1166.21 -228.29 1168.14 -226.33 1176.48 -225.03 1181.63 -222.94 1188.5 -221.54 1192.43 -216.68 1204.3 -210.28 1216.09 -203.93 1226.59 -196.37 1235.97 -183.42 1251.68 -162.63 1271.43 -154.72 1277.81 -147.22 1283.59 -139.38 1289.04 -131.32 1293.93 -116.91 1300.98 -116.9 1300.98 -103.69 1308.45 -83.88 1317.15 -59.78 1328.06 -12.33 1350.22 -2.2 1355.42 14.47 1365.57 22.41 1371.06 25.16 1373.04 26.63 1374.41 27.72 1375.53 38.71 1388.29 47.35 1400.37 55.91 1414.2 67.24 1435.52 69.11 1440.8 71.17 1449.36 72.07 1455.92 72.27 1464.15 71.84 1474.09 70.95 1480.94 68.71 1498.87 67.62 1518.98"/></g></g></svg>