<svg id="_15zoom" data-name="15zoom" xmlns="http://www.w3.org/2000/svg" xmlns:xlink="http://www.w3.org/1999/xlink" viewBox="0 0 1024 1024"><defs><style>.cls-1,.cls-2,.cls-9{fill:#fff;}.cls-1,.cls-6,.cls-7,.cls-9{stroke:#231815;stroke-miterlimit:10;}.cls-1,.cls-6{stroke-width:2px;}.cls-3{clip-path:url(#clip-path);}.cls-4{font-size:15px;}.cls-10,.cls-4,.cls-8{fill:#231815;}.cls-10,.cls-4{font-family:NotoSansMonoCJKjp-Regular-90ms-RKSJ-H, Noto Sans Mono CJK JP;}.cls-5{letter-spacing:0.25em;}.cls-13,.cls-6,.cls-7{fill:none;}.cls-7{stroke-width:3px;}.cls-9{stroke-width:2.4px;}.cls-10{font-size:18px;}.cls-11{letter-spacing:0.5em;}.cls-12{font-size:12px;}</style><clipPath id="clip-path"><rect id="_長方形_" data-name="&lt;長方形&gt;" class="cls-1" x="84.19" y="9.29" width="180" height="50"/></clipPath></defs><title>3232_7153</title><rect id="_長方形_2" data-name="&lt;長方形&gt;" class="cls-2" x="84.19" y="9.29" width="180" height="50"/><g class="cls-3"><text class="cls-4" transform="translate(144.19 28.03)">中河原線<tspan x="-35.63" y="20">雨滝</tspan><tspan class="cls-5" x="-5.63" y="20">発(</tspan><tspan x="24.38" y="20">上りの</tspan><tspan class="cls-5" x="69.38" y="20">み</tspan><tspan x="88.13" y="20">)</tspan></text></g><rect id="_長方形_3" data-name="&lt;長方形&gt;" class="cls-6" x="84.19" y="9.29" width="180" height="50"/><line class="cls-7" x1="174.19" y1="59.29" x2="183.45" y2="129"/><path class="cls-8" d="M185.84,147c-4.26-8-11-17.8-17.52-23.54l14.82,3.24,13.46-7C191.8,126.9,187.85,138.09,185.84,147Z"/><path class="cls-9" d="M38.79,545.75h-189v30h189a15,15,0,0,0,15-15h0A15,15,0,0,0,38.79,545.75Z"/><text class="cls-10" transform="translate(-138.23 567.59)"><tspan class="cls-11">山崎橋</tspan><tspan class="cls-12" x="81" y="-2.28">Yamasaki Bashi</tspan></text><rect class="cls-13" x="-9127" y="-5116" width="11720" height="11720"/></svg>