<svg id="_15zoom" data-name="15zoom" xmlns="http://www.w3.org/2000/svg" xmlns:xlink="http://www.w3.org/1999/xlink" viewBox="0 0 1024 1024"><defs><style>.cls-1,.cls-2,.cls-9{fill:#fff;}.cls-1,.cls-13,.cls-14,.cls-2,.cls-5,.cls-7{stroke:#231815;}.cls-1,.cls-13,.cls-14,.cls-15,.cls-17,.cls-18,.cls-19,.cls-2,.cls-5,.cls-6,.cls-7{stroke-miterlimit:10;}.cls-1,.cls-13{stroke-width:2px;}.cls-2{stroke-width:2.4px;}.cls-3{font-size:18px;}.cls-11,.cls-3,.cls-8{fill:#231815;}.cls-11,.cls-3{font-family:NotoSansMonoCJKjp-Regular-90ms-RKSJ-H, Noto Sans Mono CJK JP;}.cls-4{font-size:12px;}.cls-13,.cls-14,.cls-15,.cls-17,.cls-18,.cls-19,.cls-20,.cls-5,.cls-6,.cls-7{fill:none;}.cls-14,.cls-15,.cls-5,.cls-6{stroke-linecap:round;}.cls-5{stroke-width:5.27px;}.cls-15,.cls-6{stroke:#ebca1b;}.cls-6{stroke-width:2.64px;}.cls-7{stroke-width:3px;}.cls-10{clip-path:url(#clip-path);}.cls-11{font-size:15px;}.cls-12{letter-spacing:0.25em;}.cls-14{stroke-width:8.79px;}.cls-15{stroke-width:4.4px;}.cls-16{opacity:0.5;}.cls-17,.cls-18,.cls-19{stroke:#e60012;stroke-width:20px;}.cls-17{stroke-dasharray:9.97 9.97;}.cls-19{stroke-dasharray:9.93 9.93;}</style><clipPath id="clip-path"><rect id="_長方形_" data-name="&lt;長方形&gt;" class="cls-1" x="726.51" y="336.5" width="180" height="50"/></clipPath></defs><title>3231_7144</title><rect id="_長方形_2" data-name="&lt;長方形&gt;" class="cls-2" x="687.17" y="178" width="240" height="60"/><text class="cls-3" transform="translate(780.17 201.47)">勝部線<tspan class="cls-4"><tspan x="-42" y="16.32">(local bus)Kachibe line</tspan></tspan></text><line class="cls-5" x1="747.17" y1="226" x2="867.17" y2="226"/><line class="cls-6" x1="747.17" y1="226" x2="867.17" y2="226"/><line class="cls-7" x1="807.17" y1="178" x2="764.1" y2="88.49"/><path class="cls-8" d="M756.25,72.18c6.54,6.3,16,13.49,24,16.92l-15.09,1.53-10.62,10.84C756.82,93.09,757.09,81.22,756.25,72.18Z"/><rect id="_長方形_3" data-name="&lt;長方形&gt;" class="cls-9" x="726.51" y="336.5" width="180" height="50"/><g class="cls-10"><text class="cls-11" transform="translate(756.51 355.24)">勝部線フリー乗降<tspan x="-7.5" y="20">青谷中学校</tspan><tspan class="cls-12" x="67.5" y="20">前-</tspan><tspan x="97.5" y="20">桑原</tspan></text></g><rect id="_長方形_4" data-name="&lt;長方形&gt;" class="cls-13" x="726.51" y="336.5" width="180" height="50"/><path class="cls-14" d="M1140.19-460.37,1147.6-444l-12.1,11.8-3.08,3-3,2-5.71,2.27-3.9.81-3.68.75-9.36,1.18-8.07,2-5.11,2.2-5.12,2.81-8,5.47-6.64,5.88-.21.19-2.72,2.44-3.74,3.88-1.67,2.42-2.61,4.65-4.45,9.41-1.68,2.78-.41.7-8.87,9.09-6.72,6.08-4.25,4.08-4.27,3.12-4.79,2.43-2.64.94-1.66.59h-.52l-8.9,0-9.76.47-3.64.62-2.64,1.08-2.15,1.75-2.68,2.12L986-336.16l-2.17,2.64-3.68,2.74-4.68,2.43-3.87,1.46-3.2,1,1.95,9.19,1.94,10.3-.31,9.91c-.07,1.54,0,3.08,0,4.62l0,5.15-2.34,13.51-4.55,14.44-5.76,12.18L954.72-239c-1.51,2.4-3.11,4.73-4.66,7.1l-5.14,7.77L935.79-221l-10.63,16.08-.39.59-11.71,18.55L907.73-176l-4.18,9.37-4.81,23.06-7.6,40.34L885.75-88,881-78,864.86-58,846.67-38.14,821-12.56l-13.74,15L801.52,10,743.43,89.79l-5.93,7.57-32.11,34.52-4.48,7.17-1.8,3.73-2.32,4.82-7.31,15.13-2.31,2.39L684.71,167l-8.89,2.85-4.2,1.55-2.33,2.32-1.16,3.14-.83,5.2-3.37,34.72-2.41,56.54-1.9,7.77-2.86,10.47-2.69,11.57-.63,11.58.47,12.21,2.38,15.53-2.7,26.33-1,26.8.74,8.12.69,11.86,3.8,19.35,3.81,7.92,14.91,18.4,8.88,21.56,3.15,11.68,8.17,4.47,3,2.83.49.46,10.16,7.35,3.84,2.57,6.85,5.32,19.47,15.61,3.08,13.78-.79,10-.69,13.64,1.28,23,1.79,26.77,1.9,32.19v13.31l-2.36,12.11-4.31,13.83-10.3,29.88-.81,3.28,3.13,19.33,2.13,16.49,1.14,20.18-.57,24-12.47,29-3.22,7-8.18,16.31-4.94,11.6-5.12,10.57-7.46,21.31L691,915.48l-5.26,30.28-3.27,10.94-7.1,11.94-5.12,6L654.3,988.54,638.66,1003l-5.26,8.17-11.91,25.33-7.38,12.91-6.24,7-10.37,13-11.21,19.72L577.35,1110l-4.54,12.91-4.54,16.89-4.65,17-.9,8.31-.91,4.56-.7,6.37-.08,7.75,1.5,7.65,1.91,5.58,8.82,15.56,1.34,2.5.49,4.16-.33,1.83-2.66,5.74.08,1.5,5.91,34.79.83,4.08-1.9,9.51-3.21,7.45-1.49,1.72"/><path class="cls-15" d="M1140.19-460.37,1147.6-444l-12.1,11.8-3.08,3-3,2-5.71,2.27-3.9.81-3.68.75-9.36,1.18-8.07,2-5.11,2.2-5.12,2.81-8,5.47-6.64,5.88-.21.19-2.72,2.44-3.74,3.88-1.67,2.42-2.61,4.65-4.45,9.41-1.68,2.78-.41.7-8.87,9.09-6.72,6.08-4.25,4.08-4.27,3.12-4.79,2.43-2.64.94-1.66.59h-.52l-8.9,0-9.76.47-3.64.62-2.64,1.08-2.15,1.75-2.68,2.12L986-336.16l-2.17,2.64-3.68,2.74-4.68,2.43-3.87,1.46-3.2,1,1.95,9.19,1.94,10.3-.31,9.91c-.07,1.54,0,3.08,0,4.62l0,5.15-2.34,13.51-4.55,14.44-5.76,12.18L954.72-239c-1.51,2.4-3.11,4.73-4.66,7.1l-5.14,7.77L935.79-221l-10.63,16.08-.39.59-11.71,18.55L907.73-176l-4.18,9.37-4.81,23.06-7.6,40.34L885.75-88,881-78,864.86-58,846.67-38.14,821-12.56l-13.74,15L801.52,10,743.43,89.79l-5.93,7.57-32.11,34.52-4.48,7.17-1.8,3.73-2.32,4.82-7.31,15.13-2.31,2.39L684.71,167l-8.89,2.85-4.2,1.55-2.33,2.32-1.16,3.14-.83,5.2-3.37,34.72-2.41,56.54-1.9,7.77-2.86,10.47-2.69,11.57-.63,11.58.47,12.21,2.38,15.53-2.7,26.33-1,26.8.74,8.12.69,11.86,3.8,19.35,3.81,7.92,14.91,18.4,8.88,21.56,3.15,11.68,8.17,4.47,3,2.83.49.46,10.16,7.35,3.84,2.57,6.85,5.32,19.47,15.61,3.08,13.78-.79,10-.69,13.64,1.28,23,1.79,26.77,1.9,32.19v13.31l-2.36,12.11-4.31,13.83-10.3,29.88-.81,3.28,3.13,19.33,2.13,16.49,1.14,20.18-.57,24-12.47,29-3.22,7-8.18,16.31-4.94,11.6-5.12,10.57-7.46,21.31L691,915.48l-5.26,30.28-3.27,10.94-7.1,11.94-5.12,6L654.3,988.54,638.66,1003l-5.26,8.17-11.91,25.33-7.38,12.91-6.24,7-10.37,13-11.21,19.72L577.35,1110l-4.54,12.91-4.54,16.89-4.65,17-.9,8.31-.91,4.56-.7,6.37-.08,7.75,1.5,7.65,1.91,5.58,8.82,15.56,1.34,2.5.49,4.16-.33,1.83-2.66,5.74.08,1.5,5.91,34.79.83,4.08-1.9,9.51-3.21,7.45-1.49,1.72"/><g class="cls-16"><path class="cls-17" d="M971.42-311.22l.91,4.83-.31,9.91c-.07,1.54,0,3.08,0,4.62l0,5.15-2.34,13.51-4.55,14.44-5.76,12.18L954.72-239c-1.51,2.4-3.11,4.73-4.66,7.1l-5.14,7.77L935.79-221l-10.63,16.08-.39.59-11.71,18.55L907.73-176l-4.18,9.37-4.81,23.06-7.6,40.34L885.75-88,881-78,864.86-58,846.67-38.14,821-12.56l-13.74,15L801.52,10,743.43,89.79l-5.93,7.57-32.11,34.52-4.48,7.17-1.8,3.73-2.32,4.82-7.31,15.13-2.31,2.39L684.71,167l-8.89,2.85-4.2,1.55-2.33,2.32-1.16,3.14-.83,5.2-3.37,34.72-2.41,56.54-1.9,7.77-2.86,10.47-2.69,11.57-.63,11.58.47,12.21,2.38,15.53-2.7,26.33-1,26.8.74,8.12.69,11.86,3.8,19.35,3.81,7.92,14.91,18.4,8.88,21.56.55,2"/><polyline class="cls-18" points="687.32 489.63 688.62 494.45 693.01 496.85"/><polyline class="cls-19" points="700.94 502.7 710.42 509.56 714.26 512.13 721.11 517.45 740.58 533.06 743.66 546.84 742.87 556.83 742.18 570.47 743.46 593.49 745.25 620.26 747.15 652.45 747.15 665.76 744.79 677.88 740.48 691.7 730.18 721.58 729.37 724.86 732.5 744.19 734.63 760.68 735.77 780.86 735.2 804.88 722.73 833.91 719.5 840.87 711.33 857.18 706.39 868.78 701.27 879.35 693.81 900.66 690.96 915.48 685.7 945.76 682.43 956.7 675.33 968.64 670.21 974.61 654.3 988.53 638.66 1002.99 633.4 1011.16 621.49 1036.49 614.11 1049.4 607.87 1056.39 597.5 1069.42 586.29 1089.14 577.36 1110.01 572.81 1122.92 568.27 1139.81 563.62 1156.76 562.72 1165.07 561.81 1169.63 561.11 1176 561.03 1183.75 562.53 1191.4 564.44 1196.98 573.26 1212.54 574.6 1215.04 575.09 1219.2 574.76 1221.04 572.1 1226.78 572.18 1228.27 578.09 1263.06 578.92 1267.14 577.02 1276.65 576.85 1277.03"/><path class="cls-17" d="M971.42-311.22l.91,4.83-.31,9.91c-.07,1.54,0,3.08,0,4.62l0,5.15-2.34,13.51-4.55,14.44-5.76,12.18L954.72-239c-1.51,2.4-3.11,4.73-4.66,7.1l-5.14,7.77L935.79-221l-10.63,16.08-.39.59-11.71,18.55L907.73-176l-4.18,9.37-4.81,23.06-7.6,40.34L885.75-88,881-78,864.86-58,846.67-38.14,821-12.56l-13.74,15L801.52,10,743.43,89.79l-5.93,7.57-32.11,34.52-4.48,7.17-1.8,3.73-2.32,4.82-7.31,15.13-2.31,2.39L684.71,167l-8.89,2.85-4.2,1.55-2.33,2.32-1.16,3.14-.83,5.2-3.37,34.72-2.41,56.54-1.9,7.77-2.86,10.47-2.69,11.57-.63,11.58.47,12.21,2.38,15.53-2.7,26.33-1,26.8.74,8.12.69,11.86,3.8,19.35,3.81,7.92,14.91,18.4,8.88,21.56.55,2"/><polyline class="cls-18" points="687.32 489.63 688.62 494.45 693.01 496.85"/><polyline class="cls-19" points="700.94 502.7 710.42 509.56 714.26 512.13 721.11 517.45 740.58 533.06 743.66 546.84 742.87 556.83 742.18 570.47 743.46 593.49 745.25 620.26 747.15 652.45 747.15 665.76 744.79 677.88 740.48 691.7 730.18 721.58 729.37 724.86 732.5 744.19 734.63 760.68 735.77 780.86 735.2 804.88 722.73 833.91 719.5 840.87 711.33 857.18 706.39 868.78 701.27 879.35 693.81 900.66 690.96 915.48 685.7 945.76 682.43 956.7 675.33 968.64 670.21 974.61 654.3 988.53 638.66 1002.99 633.4 1011.16 621.49 1036.49 614.11 1049.4 607.87 1056.39 597.5 1069.42 586.29 1089.14 577.36 1110.01 572.81 1122.92 568.27 1139.81 563.62 1156.76 562.72 1165.07 561.81 1169.63 561.11 1176 561.03 1183.75 562.53 1191.4 564.44 1196.98 573.26 1212.54 574.6 1215.04 575.09 1219.2 574.76 1221.04 572.1 1226.78 572.18 1228.27 578.09 1263.06 578.92 1267.14 577.02 1276.65 576.85 1277.03"/><path class="cls-17" d="M971.42-311.22l.91,4.83-.31,9.91c-.07,1.54,0,3.08,0,4.62l0,5.15-2.34,13.51-4.55,14.44-5.76,12.18L954.72-239c-1.51,2.4-3.11,4.73-4.66,7.1l-5.14,7.77L935.79-221l-10.63,16.08-.39.59-11.71,18.55L907.73-176l-4.18,9.37-4.81,23.06-7.6,40.34L885.75-88,881-78,864.86-58,846.67-38.14,821-12.56l-13.74,15L801.52,10,743.43,89.79l-5.93,7.57-32.11,34.52-4.48,7.17-1.8,3.73-2.32,4.82-7.31,15.13-2.31,2.39L684.71,167l-8.89,2.85-4.2,1.55-2.33,2.32-1.16,3.14-.83,5.2-3.37,34.72-2.41,56.54-1.9,7.77-2.86,10.47-2.69,11.57-.63,11.58.47,12.21,2.38,15.53-2.7,26.33-1,26.8.74,8.12.69,11.86,3.8,19.35,3.81,7.92,14.91,18.4,8.88,21.56.55,2"/><polyline class="cls-18" points="687.32 489.63 688.62 494.45 693.01 496.85"/><polyline class="cls-19" points="700.94 502.7 710.42 509.56 714.26 512.13 721.11 517.45 740.58 533.06 743.66 546.84 742.87 556.83 742.18 570.47 743.46 593.49 745.25 620.26 747.15 652.45 747.15 665.76 744.79 677.88 740.48 691.7 730.18 721.58 729.37 724.86 732.5 744.19 734.63 760.68 735.77 780.86 735.2 804.88 722.73 833.91 719.5 840.87 711.33 857.18 706.39 868.78 701.27 879.35 693.81 900.66 690.96 915.48 685.7 945.76 682.43 956.7 675.33 968.64 670.21 974.61 654.3 988.53 638.66 1002.99 633.4 1011.16 621.49 1036.49 614.11 1049.4 607.87 1056.39 597.5 1069.42 586.29 1089.14 577.36 1110.01 572.81 1122.92 568.27 1139.81 563.62 1156.76 562.72 1165.07 561.81 1169.63 561.11 1176 561.03 1183.75 562.53 1191.4 564.44 1196.98 573.26 1212.54 574.6 1215.04 575.09 1219.2 574.76 1221.04 572.1 1226.78 572.18 1228.27 578.09 1263.06 578.92 1267.14 577.02 1276.65 576.85 1277.03"/></g><rect class="cls-20" x="89" y="-4092" width="11720" height="11720"/></svg>