<svg id="_15zoom" data-name="15zoom" xmlns="http://www.w3.org/2000/svg" viewBox="0 0 1024 1024"><defs><style>.cls-1,.cls-4{fill:#231815;}.cls-10,.cls-11,.cls-13,.cls-14,.cls-15,.cls-2{fill:none;}.cls-10,.cls-2,.cls-3,.cls-9{stroke:#231815;}.cls-10,.cls-11,.cls-13,.cls-14,.cls-2,.cls-3,.cls-9{stroke-miterlimit:10;}.cls-2,.cls-3{stroke-width:2.4px;}.cls-3,.cls-9{fill:#fff;}.cls-4{font-size:18px;font-family:NotoSansMonoCJKjp-Regular-90ms-RKSJ-H, Noto Sans Mono CJK JP;}.cls-5{letter-spacing:1.11em;}.cls-6{letter-spacing:0.61em;}.cls-7,.cls-8{font-size:12px;}.cls-7{letter-spacing:0.17em;}.cls-9{stroke-width:4px;}.cls-10,.cls-11{stroke-linecap:round;}.cls-10{stroke-width:8.79px;}.cls-11{stroke:#ebca1b;stroke-width:4.4px;}.cls-12{opacity:0.5;}.cls-13,.cls-14{stroke:#e60012;stroke-width:20px;}.cls-13{stroke-dasharray:9.93 9.93;}</style></defs><title>3232_7144</title><path id="_クリッピングパス_" data-name="&lt;クリッピングパス&gt;" class="cls-1" d="M481.67,300.22a15,15,0,0,0-15,15h0a15,15,0,0,0,15,15h21v-30Z"/><path id="_クリッピングパス_2" data-name="&lt;クリッピングパス&gt;" class="cls-2" d="M481.67,300.22a15,15,0,0,0-15,15h0a15,15,0,0,0,15,15h21v-30Z"/><path class="cls-3" d="M691.67,300.22h-189v30h189a15,15,0,0,0,15-15h0A15,15,0,0,0,691.67,300.22Z"/><text class="cls-4" transform="translate(532.67 322.06)"><tspan class="cls-5">桑</tspan><tspan class="cls-6" x="38" y="0">原</tspan><tspan class="cls-7" x="67" y="-2.28">Kuwabar</tspan><tspan class="cls-8" x="123" y="-2.28">a</tspan></text><line class="cls-3" x1="570" y1="265" x2="598.67" y2="300.22"/><circle class="cls-9" cx="570" cy="265" r="10"/><path class="cls-10" d="M1140.19-1484.37l7.41,16.38-12.1,11.8-3.08,3-3,2-5.71,2.27-3.9.81-3.68.75-9.36,1.18-8.07,2-5.11,2.2-5.12,2.81-8,5.47-6.64,5.88-.21.19-2.72,2.44-3.74,3.88-1.67,2.42-2.61,4.65-4.45,9.41-1.68,2.78-.41.7-8.87,9.09-6.72,6.08-4.25,4.08-4.27,3.12-4.79,2.43-2.64.94-1.66.59h-.52l-8.9,0-9.76.47-3.64.62-2.64,1.08-2.15,1.75-2.68,2.12-6.78,8.78-2.17,2.64-3.68,2.74-4.68,2.43-3.87,1.46-3.2,1,1.95,9.19,1.94,10.3-.31,9.91c-.07,1.54,0,3.08,0,4.62l0,5.15-2.34,13.51-4.55,14.44-5.76,12.18-4.66,7.55c-1.51,2.4-3.11,4.73-4.66,7.1l-5.14,7.77-9.13,3.15-10.63,16.08-.39.59-11.71,18.55-5.33,9.76-4.18,9.37-4.81,23.06-7.6,40.34L885.75-1112,881-1102l-16.14,20-18.19,19.83L821-1036.56l-13.74,15-5.7,7.54-58.09,79.79-5.93,7.57-32.11,34.52-4.48,7.17-1.8,3.73-2.32,4.82-7.31,15.13-2.31,2.39L684.71-857l-8.89,2.85-4.2,1.55-2.33,2.32-1.16,3.14-.83,5.2-3.37,34.72-2.41,56.54-1.9,7.77-2.86,10.47-2.69,11.57-.63,11.58.47,12.21,2.38,15.53-2.7,26.33-1,26.8.74,8.12.69,11.86,3.8,19.35,3.81,7.92,14.91,18.4,8.88,21.56,3.15,11.68,8.17,4.47,3,2.83.49.46,10.16,7.35,3.84,2.57,6.85,5.32,19.47,15.61,3.08,13.78-.79,10-.69,13.64,1.28,23,1.79,26.77,1.9,32.19v13.31l-2.36,12.11-4.31,13.83-10.3,29.88-.81,3.28,3.13,19.33,2.13,16.49,1.14,20.18-.57,24-12.47,29-3.22,7-8.18,16.31-4.94,11.6-5.12,10.57-7.46,21.31L691-108.52,685.7-78.24,682.43-67.3l-7.1,11.94-5.12,6L654.3-35.46,638.66-21l-5.26,8.17L621.49,12.49,614.11,25.4l-6.24,7-10.37,13L586.29,65.14,577.35,86l-4.54,12.91-4.54,16.89-4.65,16.95-.9,8.31-.91,4.56-.7,6.37-.08,7.75,1.5,7.65,1.91,5.58,8.82,15.56,1.34,2.5.49,4.16-.33,1.83-2.66,5.74.08,1.5,5.91,34.79.83,4.08-1.9,9.51-3.21,7.45-1.49,1.72"/><path class="cls-11" d="M1140.19-1484.37l7.41,16.38-12.1,11.8-3.08,3-3,2-5.71,2.27-3.9.81-3.68.75-9.36,1.18-8.07,2-5.11,2.2-5.12,2.81-8,5.47-6.64,5.88-.21.19-2.72,2.44-3.74,3.88-1.67,2.42-2.61,4.65-4.45,9.41-1.68,2.78-.41.7-8.87,9.09-6.72,6.08-4.25,4.08-4.27,3.12-4.79,2.43-2.64.94-1.66.59h-.52l-8.9,0-9.76.47-3.64.62-2.64,1.08-2.15,1.75-2.68,2.12-6.78,8.78-2.17,2.64-3.68,2.74-4.68,2.43-3.87,1.46-3.2,1,1.95,9.19,1.94,10.3-.31,9.91c-.07,1.54,0,3.08,0,4.62l0,5.15-2.34,13.51-4.55,14.44-5.76,12.18-4.66,7.55c-1.51,2.4-3.11,4.73-4.66,7.1l-5.14,7.77-9.13,3.15-10.63,16.08-.39.59-11.71,18.55-5.33,9.76-4.18,9.37-4.81,23.06-7.6,40.34L885.75-1112,881-1102l-16.14,20-18.19,19.83L821-1036.56l-13.74,15-5.7,7.54-58.09,79.79-5.93,7.57-32.11,34.52-4.48,7.17-1.8,3.73-2.32,4.82-7.31,15.13-2.31,2.39L684.71-857l-8.89,2.85-4.2,1.55-2.33,2.32-1.16,3.14-.83,5.2-3.37,34.72-2.41,56.54-1.9,7.77-2.86,10.47-2.69,11.57-.63,11.58.47,12.21,2.38,15.53-2.7,26.33-1,26.8.74,8.12.69,11.86,3.8,19.35,3.81,7.92,14.91,18.4,8.88,21.56,3.15,11.68,8.17,4.47,3,2.83.49.46,10.16,7.35,3.84,2.57,6.85,5.32,19.47,15.61,3.08,13.78-.79,10-.69,13.64,1.28,23,1.79,26.77,1.9,32.19v13.31l-2.36,12.11-4.31,13.83-10.3,29.88-.81,3.28,3.13,19.33,2.13,16.49,1.14,20.18-.57,24-12.47,29-3.22,7-8.18,16.31-4.94,11.6-5.12,10.57-7.46,21.31L691-108.52,685.7-78.24,682.43-67.3l-7.1,11.94-5.12,6L654.3-35.46,638.66-21l-5.26,8.17L621.49,12.49,614.11,25.4l-6.24,7-10.37,13L586.29,65.14,577.35,86l-4.54,12.91-4.54,16.89-4.65,16.95-.9,8.31-.91,4.56-.7,6.37-.08,7.75,1.5,7.65,1.91,5.58,8.82,15.56,1.34,2.5.49,4.16-.33,1.83-2.66,5.74.08,1.5,5.91,34.79.83,4.08-1.9,9.51-3.21,7.45-1.49,1.72"/><g class="cls-12"><polyline class="cls-13" points="700.94 -521.3 710.42 -514.44 714.26 -511.87 721.11 -506.55 740.58 -490.94 743.66 -477.16 742.87 -467.17 742.18 -453.53 743.46 -430.51 745.25 -403.74 747.15 -371.55 747.15 -358.24 744.79 -346.13 740.48 -332.31 730.18 -302.42 729.37 -299.14 732.5 -279.81 734.63 -263.32 735.77 -243.14 735.2 -219.12 722.73 -190.09 719.5 -183.13 711.33 -166.82 706.39 -155.22 701.27 -144.65 693.81 -123.34 690.96 -108.52 685.7 -78.24 682.43 -67.3 675.33 -55.36 670.21 -49.39 654.3 -35.47 638.66 -21.01 633.4 -12.84 621.49 12.49 614.11 25.4 607.87 32.39 597.5 45.42 586.29 65.14 577.36 86.01 572.81 98.92 568.27 115.81 563.62 132.76 562.72 141.07 561.81 145.63 561.11 152 561.03 159.75 562.53 167.4 564.44 172.98 573.26 188.54 574.6 191.04 575.09 195.2 574.76 197.03 572.1 202.78 572.18 204.27 578.09 239.06 578.92 243.14 577.02 252.65 576.85 253.03"/><polyline class="cls-14" points="574.89 257.59 573.81 260.1 572.32 261.82"/><polyline class="cls-13" points="700.94 -521.3 710.42 -514.44 714.26 -511.87 721.11 -506.55 740.58 -490.94 743.66 -477.16 742.87 -467.17 742.18 -453.53 743.46 -430.51 745.25 -403.74 747.15 -371.55 747.15 -358.24 744.79 -346.13 740.48 -332.31 730.18 -302.42 729.37 -299.14 732.5 -279.81 734.63 -263.32 735.77 -243.14 735.2 -219.12 722.73 -190.09 719.5 -183.13 711.33 -166.82 706.39 -155.22 701.27 -144.65 693.81 -123.34 690.96 -108.52 685.7 -78.24 682.43 -67.3 675.33 -55.36 670.21 -49.39 654.3 -35.47 638.66 -21.01 633.4 -12.84 621.49 12.49 614.11 25.4 607.87 32.39 597.5 45.42 586.29 65.14 577.36 86.01 572.81 98.92 568.27 115.81 563.62 132.76 562.72 141.07 561.81 145.63 561.11 152 561.03 159.75 562.53 167.4 564.44 172.98 573.26 188.54 574.6 191.04 575.09 195.2 574.76 197.03 572.1 202.78 572.18 204.27 578.09 239.06 578.92 243.14 577.02 252.65 576.85 253.03"/><polyline class="cls-14" points="574.89 257.59 573.81 260.1 572.32 261.82"/><polyline class="cls-13" points="700.94 -521.3 710.42 -514.44 714.26 -511.87 721.11 -506.55 740.58 -490.94 743.66 -477.16 742.87 -467.17 742.18 -453.53 743.46 -430.51 745.25 -403.74 747.15 -371.55 747.15 -358.24 744.79 -346.13 740.48 -332.31 730.18 -302.42 729.37 -299.14 732.5 -279.81 734.63 -263.32 735.77 -243.14 735.2 -219.12 722.73 -190.09 719.5 -183.13 711.33 -166.82 706.39 -155.22 701.27 -144.65 693.81 -123.34 690.96 -108.52 685.7 -78.24 682.43 -67.3 675.33 -55.36 670.21 -49.39 654.3 -35.47 638.66 -21.01 633.4 -12.84 621.49 12.49 614.11 25.4 607.87 32.39 597.5 45.42 586.29 65.14 577.36 86.01 572.81 98.92 568.27 115.81 563.62 132.76 562.72 141.07 561.81 145.63 561.11 152 561.03 159.75 562.53 167.4 564.44 172.98 573.26 188.54 574.6 191.04 575.09 195.2 574.76 197.03 572.1 202.78 572.18 204.27 578.09 239.06 578.92 243.14 577.02 252.65 576.85 253.03"/><polyline class="cls-14" points="574.89 257.59 573.81 260.1 572.32 261.82"/></g><rect class="cls-15" x="89" y="-5116" width="11720" height="11720"/></svg>