<svg id="_13zoom" data-name="13zoom" xmlns="http://www.w3.org/2000/svg" xmlns:xlink="http://www.w3.org/1999/xlink" viewBox="0 0 1024 1024"><defs><style>.cls-1,.cls-12,.cls-3,.cls-8{fill:#231815;}.cls-1,.cls-11,.cls-2,.cls-5,.cls-7{stroke:#231815;}.cls-1,.cls-11,.cls-2,.cls-5,.cls-6,.cls-7{stroke-miterlimit:10;}.cls-1,.cls-11,.cls-2{stroke-width:4px;}.cls-10,.cls-2{fill:#fff;}.cls-12,.cls-3{font-size:30px;}.cls-10,.cls-12,.cls-3{font-family:NotoSansMonoCJKjp-Regular-90ms-RKSJ-H, Noto Sans Mono CJK JP;}.cls-17,.cls-18,.cls-19,.cls-20,.cls-21,.cls-22,.cls-23,.cls-24,.cls-25,.cls-26,.cls-27,.cls-28,.cls-29,.cls-30,.cls-31,.cls-32,.cls-33,.cls-34,.cls-4{font-size:20px;}.cls-11,.cls-35,.cls-5,.cls-6,.cls-7{fill:none;}.cls-5,.cls-6{stroke-linecap:round;}.cls-5{stroke-width:8.79px;}.cls-6{stroke:#aace36;stroke-width:4.4px;}.cls-7{stroke-width:5px;}.cls-9{clip-path:url(#clip-path);}.cls-10{font-size:48px;}.cls-12{letter-spacing:-0.05em;}.cls-13{letter-spacing:-0.07em;}.cls-14{letter-spacing:-0.06em;}.cls-15{letter-spacing:-0.03em;}.cls-16{letter-spacing:0.17em;}.cls-17{letter-spacing:-0.07em;}.cls-18{letter-spacing:-0.06em;}.cls-19{letter-spacing:-0.06em;}.cls-20{letter-spacing:-0.11em;}.cls-21{letter-spacing:-0.04em;}.cls-22{letter-spacing:-0.07em;}.cls-23{letter-spacing:-0.05em;}.cls-24{letter-spacing:-0.02em;}.cls-25{letter-spacing:-0.04em;}.cls-26{letter-spacing:-0.05em;}.cls-27{letter-spacing:-0.06em;}.cls-28{letter-spacing:-0.03em;}.cls-29{letter-spacing:-0.02em;}.cls-30{letter-spacing:-0.05em;}.cls-31{letter-spacing:-0.04em;}.cls-32{letter-spacing:-0.1em;}.cls-33{letter-spacing:-0.07em;}.cls-34{letter-spacing:-0.07em;}</style><clipPath id="clip-path"><path id="_クリッピングパス_" data-name="&lt;クリッピングパス&gt;" class="cls-1" d="M721.79,1021.38a25,25,0,0,0-25,25h0a25,25,0,0,0,25,25h35v-50Z"/></clipPath></defs><title>3231_7146</title><rect id="_長方形_" data-name="&lt;長方形&gt;" class="cls-2" x="573.93" y="286.67" width="400" height="100"/><text class="cls-3" transform="translate(728.93 325.79)">鹿野線<tspan class="cls-4"><tspan x="-70" y="27.2">(local bus)Shikano line</tspan></tspan></text><line class="cls-5" x1="673.93" y1="366.67" x2="873.93" y2="366.67"/><line class="cls-6" x1="673.93" y1="366.67" x2="873.93" y2="366.67"/><line class="cls-7" x1="773.93" y1="386.67" x2="513.19" y2="545.44"/><path class="cls-8" d="M487.42,561.13c9.38-11.88,19.76-28.72,24.13-42.54l5,24.79,19.71,15.83C522,556.76,502.28,558.24,487.42,561.13Z"/><path id="_クリッピングパス_2" data-name="&lt;クリッピングパス&gt;" class="cls-8" d="M721.79,1021.38a25,25,0,0,0-25,25h0a25,25,0,0,0,25,25h35v-50Z"/><g class="cls-9"><text class="cls-10" transform="translate(707.79 1062.35)">17</text></g><path id="_クリッピングパス_3" data-name="&lt;クリッピングパス&gt;" class="cls-11" d="M721.79,1021.38a25,25,0,0,0-25,25h0a25,25,0,0,0,25,25h35v-50Z"/><path class="cls-2" d="M1071.79,1021.38h-315v50h315a25,25,0,0,0,25-25h0A25,25,0,0,0,1071.79,1021.38Z"/><text class="cls-12" transform="translate(766.25 1057.78)">鹿<tspan class="cls-13" x="28.64" y="0">野</tspan><tspan class="cls-14" x="56.69" y="0">営</tspan><tspan class="cls-15" x="84.83" y="0">業</tspan><tspan class="cls-16" x="113.85" y="0">所</tspan><tspan class="cls-17" x="147.51" y="-3.8">(</tspan><tspan class="cls-18" x="156.18" y="-3.8">S</tspan><tspan class="cls-19" x="165.05" y="-3.8">h</tspan><tspan class="cls-20" x="173.81" y="-3.8">i</tspan><tspan class="cls-21" x="181.58" y="-3.8">k</tspan><tspan class="cls-22" x="190.79" y="-3.8">a</tspan><tspan class="cls-23" x="199.47" y="-3.8">n</tspan><tspan class="cls-24" x="208.48" y="-3.8">o</tspan><tspan class="cls-25" x="218.04" y="-3.8"> </tspan><tspan class="cls-26" x="227.27" y="-3.8">B</tspan><tspan class="cls-27" x="236.34" y="-3.8">u</tspan><tspan class="cls-28" x="245.12" y="-3.8">s</tspan><tspan class="cls-29" x="254.56" y="-3.8"> </tspan><tspan class="cls-18" x="264.19" y="-3.8">O</tspan><tspan class="cls-30" x="273.06" y="-3.8">f</tspan><tspan class="cls-31" x="282.13" y="-3.8">f</tspan><tspan class="cls-32" x="291.27" y="-3.8">i</tspan><tspan class="cls-30" x="299.22" y="-3.8">c</tspan><tspan class="cls-33" x="308.29" y="-3.8">e</tspan><tspan class="cls-34" x="316.95" y="-3.8">)</tspan></text><line class="cls-2" x1="875.74" y1="961.13" x2="916.79" y2="1021.38"/><circle class="cls-2" cx="875.74" cy="961.13" r="10"/><rect class="cls-35" x="-1959" y="-4092" width="11720" height="11720"/></svg>