<svg id="_13zoom" data-name="13zoom" xmlns="http://www.w3.org/2000/svg" xmlns:xlink="http://www.w3.org/1999/xlink" viewBox="0 0 1024 1024"><defs><style>.cls-1,.cls-2,.cls-7{fill:#231815;}.cls-1,.cls-5,.cls-6{stroke:#231815;stroke-miterlimit:10;stroke-width:4px;}.cls-3{clip-path:url(#clip-path);}.cls-4{font-size:48px;}.cls-4,.cls-6{fill:#fff;}.cls-4,.cls-7{font-family:NotoSansMonoCJKjp-Regular-90ms-RKSJ-H, Noto Sans Mono CJK JP;}.cls-13,.cls-5{fill:none;}.cls-7{font-size:30px;}.cls-8{letter-spacing:1.67em;}.cls-9{letter-spacing:1.17em;}.cls-10,.cls-11{font-size:20px;}.cls-10{letter-spacing:1em;}.cls-12{clip-path:url(#clip-path-2);}</style><clipPath id="clip-path"><path id="_クリッピングパス_" data-name="&lt;クリッピングパス&gt;" class="cls-1" d="M344.05,633a25,25,0,0,0-25,25h0a25,25,0,0,0,25,25h35V633Z"/></clipPath><clipPath id="clip-path-2"><path id="_クリッピングパス_2" data-name="&lt;クリッピングパス&gt;" class="cls-1" d="M862-73.46a25,25,0,0,0-25,25h0a25,25,0,0,0,25,25h35v-50Z"/></clipPath></defs><title>3233_7146</title><path id="_クリッピングパス_3" data-name="&lt;クリッピングパス&gt;" class="cls-2" d="M344.05,633a25,25,0,0,0-25,25h0a25,25,0,0,0,25,25h35V633Z"/><g class="cls-3"><text class="cls-4" transform="translate(330.05 673.97)">81</text></g><path id="_クリッピングパス_4" data-name="&lt;クリッピングパス&gt;" class="cls-5" d="M344.05,633a25,25,0,0,0-25,25h0a25,25,0,0,0,25,25h35V633Z"/><path class="cls-6" d="M694.05,633h-315v50h315a25,25,0,0,0,25-25h0A25,25,0,0,0,694.05,633Z"/><text class="cls-7" transform="translate(429.05 669.41)"><tspan class="cls-8">安</tspan><tspan class="cls-9" x="80" y="0">蔵</tspan><tspan class="cls-10" x="145" y="-3.8">Az</tspan><tspan class="cls-11" x="205" y="-3.8">o</tspan></text><line class="cls-6" x1="704.75" y1="549.55" x2="539.05" y2="633.01"/><circle class="cls-6" cx="704.75" cy="549.55" r="10"/><path id="_クリッピングパス_5" data-name="&lt;クリッピングパス&gt;" class="cls-2" d="M862-73.46a25,25,0,0,0-25,25h0a25,25,0,0,0,25,25h35v-50Z"/><g class="cls-12"><text class="cls-4" transform="translate(848.03 -32.49)">80</text></g><path id="_クリッピングパス_6" data-name="&lt;クリッピングパス&gt;" class="cls-5" d="M862-73.46a25,25,0,0,0-25,25h0a25,25,0,0,0,25,25h35v-50Z"/><rect class="cls-13" x="-1959" y="-6140" width="11720" height="11720"/></svg>