<svg id="_13zoom" data-name="13zoom" xmlns="http://www.w3.org/2000/svg" viewBox="0 0 1024 1024"><defs><style>.cls-1{fill:#fff;}.cls-1,.cls-4,.cls-6,.cls-8{stroke:#231815;}.cls-1,.cls-4,.cls-5,.cls-6,.cls-8{stroke-miterlimit:10;}.cls-1,.cls-8{stroke-width:4px;}.cls-2{font-size:30px;font-family:NotoSansMonoCJKjp-Regular-90ms-RKSJ-H, Noto Sans Mono CJK JP;}.cls-2,.cls-7{fill:#231815;}.cls-11,.cls-3{font-size:20px;}.cls-12,.cls-4,.cls-5,.cls-6,.cls-8{fill:none;}.cls-4,.cls-5{stroke-linecap:round;}.cls-4{stroke-width:8.79px;}.cls-5{stroke:#00ada9;stroke-width:4.4px;}.cls-6{stroke-width:5px;}.cls-9{letter-spacing:1.47em;}.cls-10{letter-spacing:0.97em;}.cls-11{letter-spacing:0.7em;}</style></defs><title>3235_7146</title><rect id="_長方形_" data-name="&lt;長方形&gt;" class="cls-1" x="290" y="387" width="400" height="100"/><text class="cls-2" transform="translate(445 426.12)">佐治線<tspan class="cls-3"><tspan x="-55" y="27.2">(local bus)Saji line</tspan></tspan></text><line class="cls-4" x1="390" y1="467" x2="590" y2="467"/><line class="cls-5" x1="390" y1="467" x2="590" y2="467"/><line class="cls-6" x1="490" y1="487" x2="627.5" y2="579.98"/><path class="cls-7" d="M652.49,596.88c-14.71-3.59-34.34-6-48.72-4.24l20.45-14.88,6.19-24.51C634.12,567.25,643.68,584.57,652.49,596.88Z"/><path id="_クリッピングパス_" data-name="&lt;クリッピングパス&gt;" class="cls-7" d="M580.49,865.72a25,25,0,0,0-25,25h0a25,25,0,0,0,25,25h35v-50Z"/><path id="_クリッピングパス_2" data-name="&lt;クリッピングパス&gt;" class="cls-8" d="M580.49,865.72a25,25,0,0,0-25,25h0a25,25,0,0,0,25,25h35v-50Z"/><path class="cls-1" d="M930.49,865.72h-315v50h315a25,25,0,0,0,25-25h0A25,25,0,0,0,930.49,865.72Z"/><text class="cls-2" transform="translate(665.49 902.12)"><tspan class="cls-9">余</tspan><tspan class="cls-10" x="74" y="0">戸</tspan><tspan class="cls-11" x="133" y="-3.8">Yod</tspan><tspan class="cls-3" x="205" y="-3.8">o</tspan></text><line class="cls-1" x1="1045.23" y1="728.94" x2="775.49" y2="865.72"/><rect class="cls-12" x="-1959" y="-8188" width="11720" height="11720"/></svg>