<svg id="routes" xmlns="http://www.w3.org/2000/svg" xmlns:xlink="http://www.w3.org/1999/xlink" viewBox="0 0 1024 1024"><defs><style>.cls-1,.cls-3,.cls-4{fill:none;}.cls-2{clip-path:url(#clip-path);}.cls-3{stroke:#231815;stroke-width:8.79px;}.cls-3,.cls-4{stroke-linecap:round;stroke-miterlimit:10;}.cls-4{stroke:#00ada9;stroke-width:4.4px;}</style><clipPath id="clip-path"><rect class="cls-1" x="-2983" y="-8188" width="11720" height="11720"/></clipPath></defs><title>3235_7147</title><g class="cls-2"><g id="日ノ丸線"><g id="佐治4"><polyline class="cls-3" points="-1301.96 887.38 -1295.72 884.15 -1290.24 881.1 -1283.98 878.07 -1278.88 876.1 -1276.88 875.13 -1272.25 873.99 -1268.29 873.73 -1266.59 873.85 -1263.37 874.33 -1257.78 875.96 -1243.23 882.55 -1240.01 883.52 -1235.07 883.98 -1232.82 883.52 -1226.9 881.9 -1218.91 878.53 -1214.23 877.02 -1209.94 876.67 -1207.71 876.9 -1203.21 877.7 -1197.79 879.5 -1193.06 880.64 -1187.59 881.47 -1183.24 881.41 -1180.67 880.93 -1177.95 879.7 -1175.71 878.18 -1171.77 875.05 -1169 872.34 -1168.42 871.39 -1167.14 869.54 -1163.72 862.29 -1160.83 856.32 -1158.43 853.1 -1153.96 849.25 -1149.63 846.36 -1138.43 841.05 -1129.95 837.68 -1123.24 835.75 -1120.98 835.26 -1120.03 835.09 -1109.97 835.09 -1104.68 835.57 -1097.48 836.71 -1090.12 837.83 -1080.86 838.17 -1077.34 837.51 -1067.91 835.26 -1058.59 832.2 -1050.6 830.44 -1049.04 830.18 -1044.71 829.46 -1035.12 828.49 -1028.38 828.01 -1024.4 828.01 -1022.49 828.06 -999.95 827.61 -994.97 827.15 -988.44 826.04 -984.95 825.04 -978.43 822.58 -970.39 818.84 -964.36 815.56 -959.48 811.93 -957.65 809.85 -955.75 806.77 -943.1 782.16 -939.73 775.57 -937.02 770.92 -935.27 769.12 -933.76 768.44 -931.66 768.29 -927.13 770.06 -916.08 777.31 -912.94 778.99 -899.59 784.71 -892.07 784.01 -885.18 781.38 -878.37 777.82 -874.96 774.57 -871.71 766.04 -868.15 758.92 -863.5 755.28 -857.69 753.11 -848.4 752.1 -842.93 750.6 -837.77 747.85 -827.87 739.92 -824.02 737.4 -813.38 733.15 -805.54 729.76 -792.42 721.08 -790.46 719.97 -786.57 719.27 -783.34 719.39 -779.03 719.97 -762.87 722.53 -746.6 723.82 -734.65 721.92 -728.82 719.85 -727.42 719.28 -725.44 718.22 -723.23 716.94 -720.67 715.05 -717.36 712.57 -711.12 707.09 -707.95 703.61 -706.11 701.13 -700.22 691.56 -692.04 675.98 -689.83 672.52 -687.44 669.55 -680.28 665.16 -665.28 664.83 -654.62 663.5 -635.78 656 -622.45 647.5 -615.9 644.11 -612.39 642.29 -609.5 641.56 -597.4 641.27 -588.27 644.43 -580 650.17 -574.67 654.14 -571.41 656.79 -566.52 664.78 -564.42 667.44 -562.51 669.27 -559.65 670.89 -557.74 671.52 -555.17 671.87 -550.82 671.87 -539.28 670.74 -514.84 668.35 -497.07 667.32 -488.69 668.41 -474.3 671.64 -467.94 672 -460.28 671.04 -452.66 668.35 -443.25 664.04 -425.39 655.98 -418.39 654.52 -387.29 657.77 -381.27 657.94 -375.09 655.65 -369.71 652.07 -363.53 646.86 -362.38 640.19 -372.97 601.28 -371.51 596.88 -368.25 593.63 -362.06 592.33 -343.34 592.65 -323.56 589.48 -285.28 583.63 -260.42 568.84 -252.64 566.85 -245.01 568.84 -235.86 573.1 -229.96 574.94 -224.76 575.34 -217.71 574.48 -211.31 575.4 -208.68 578.48 -206.68 580.71 -198.95 595.99 -165.84 619.02 -159.9 624.51 -154.86 631.99 -150.44 642.97 -145.87 666.92 -143.12 681.25 -140.22 685.98 -133.97 692.08 -125.05 696.45 -118.87 697.73 -113.68 697.88 -106.82 695.29 -101.48 691.94 -95.23 682.32 -86.86 671.96 -74.39 660.03 -59.64 645.93 -55.65 643.13 -49.92 642.69 -45.5 643.34 -41.5 645.93 -38.04 649.5 -16.61 686.17 -1.59 710.27 -0.47 712.07 8.47 719.83 17.22 724.11 22.91 725.39 67.02 720.91 71.85 719.37 75.5 715.81 78.05 710.52 80.16 700.22 83.35 692.74 87.18 689.18 92.28 684.89 97.12 682.52 102.5 681.89 125.3 684.25 139.16 686.26 144.09 688.54 152 695.73 158.04 700.94 160.41 710.16 158.88 751.23 161.04 755.1 163.64 759.78 168.44 764.92 172.28 768.46 174.12 769.55 176.8 770.61 186.84 773.6 191.59 775.51 194.03 777.25 195.08 778.31 197.25 782.14 204.6 805 205.89 807.83 207.47 810.31 209.61 812.13 211.94 813.68 214.36 814.34 216.43 814.65 221.59 814.73 226.12 813.42 229.27 812.39 233.39 810.31 237.56 807.4 254.03 794.21 259.31 790.52 270.02 781.19 275.29 776.37 288.4 765.24 299.78 759.12 305.51 758.39 320.6 756.52 323.57 760.93 325.55 763.01 330.95 766.24 335.93 768.49 340.26 769.29 348.07 769.27 360.11 767.35 370.65 764.61 380.09 761.24 395.93 754.31 427.53 738.69 432.88 736.01 438.63 733.07 441.04 731.64 449.91 726.39 452.8 724.36 456.43 721.56 471.73 710.72 477.18 706.21 481.51 702.95 490.13 697.84 499.09 693.5 512.23 687.85 514.63 686.91 517.62 685.65 521.82 684.17 531.12 680.8 540.39 678.23 545.74 677.57 552.22 676.78 560.06 675.66 564.47 675.43 569.99 675.32 576.23 675.98 584.87 677.43 594.79 679.49 601.49 681.09 610.3 683.34 621.71 684.88 632.05 686.08 639.85 686.73 647.42 687.2 661.49 687.2 666.77 686.71 678.3 686.4 693.16 686.08 703.22 685.42 709.18 685.59 713.12 686.31 717.78 687.71 724.98 690.9 729.89 692.02 733.13 692.85 737.23 692.96 739.55 692.85 759.86 686.71 762.91 686.08 766.99 685.94 787.72 686.08 796.84 684.94 800.99 684.14 805.02 682.74 815.41 679.14 822.27 676.58 824.05 675.95 830.59 674.49 835.25 673.84 841.79 673.52 846.52 673.55 846.52 673.54 850.24 673.54 863.54 674.32 872.83 674.97 878.12 674.95 883.48 674.37 903.83 669.92 907.56 668.75 911.17 667.12 918.71 663.61 923.91 661.38 927.78 659.91 931.85 658.07 941.14 653.57 951.23 649.05 956.05 646.68 959.21 644.88 962.59 642.94 980.83 633.29 991.84 628.33 1011.83 620.76 1019.51 618.34 1026.7 615.71 1045.88 608.91 1053.52 604.48 1064.18 602.16 1076.29 599.84 1089.29 596.5 1104.47 592.67 1113.62 590.15 1124.32 587.9 1133.33 585.53 1139.49 583.22 1147.04 580.54 1148.97 580.06 1159.76 577.11 1172.8 575.4 1177.55 575.4 1182.09 575.4 1182.95 575.63 1184.95 576.2 1190.87 577.97 1193.6 578.6 1197.28 579.4 1206.24 581.34 1208.47 581.45 1213.43 582.36 1224.8 583.05 1228.9 583.42 1240.44 593.94 1245.07 595.54 1250.02 594.74 1270.13 585.64 1299.84 570.47 1304.14 570.15 1314.85 571.43 1322.83 571.27 1337.84 566.48 1387.18 546.84 1411.29 532.63 1415.35 531.95 1427.57 537.5 1456.37 546.61 1459.17 547.5 1463.89 546.84 1468.21 545.58 1479.37 543.31 1490.18 540.35 1500.2 536.25 1506.69 533.18 1514.78 527.03 1530.87 514.08 1538.23 508.36 1545.52 504.71 1560.89 497.88 1566.24 497.43 1573.29 498.22 1605.25 517.13 1612.31 518.87 1621.63 519.13 1639.08 513.67 1669.3 498.76 1683.14 490.1 1698.73 475.32 1717.37 466.66 1737.88 454.94 1746.74 449.34 1752.79 443.23 1760.87 437.91 1763.31 436.3 1773.96 428.71 1780.89 424.18 1795.53 420.99 1801.19 419.02 1829.14 404.76 1836.23 400.61 1847.11 391.64 1883.16 353.46 1889.38 347.95 1907.23 335.2 1944.55 314.26 1997.81 287 2009.11 284.01 2033.25 284.83 2061.78 285.79 2068.44 286.82 2127.03 306.8 2147.6 306.21 2154.25 307.24 2172.14 317.2 2192.37 326.2 2206.04 328.4 2226.9 326.48 2271.27 320.55 2285.04 319.52 2300.73 320.41 2317.15 323.08 2334.45 328.03 2339 332.22 2361.29 350.92 2383.55 381.82 2385.27 384.41 2390.73 390.23 2403.14 401.2 2412.97 409.32 2432.64 420.87 2436.6 423.39 2451.88 431.27 2468.28 440.1 2479.67 441.96 2494.49 442.11 2504.84 441.47 2518.57 437.4 2521.21 436.69 2529.73 434.99 2538.44 432.54 2552.05 428.6 2555.22 427.58 2573.91 422.11 2590.43 417.04 2599.18 414.31 2609.68 411.25 2614.8 409.69 2615.68 409.46 2630.3 405.85 2636.26 404.37 2651.84 400.67 2670.91 395.99 2682.59 393.22 2693.57 390.45 2725.08 383.52 2731.66 381.16 2737.2 377.89 2742.49 374.22 2750.58 367.59 2754.74 363.39 2768.88 348.75 2771.42 346.67 2775.81 344.31 2780.88 342.13 2782.5 341.44 2807.75 333.62 2827.59 327.22 2833.91 325.55 2835.17 324.88 2842.85 324.01 2849.25 324.42 2854.59 325.35 2857.98 325.95 2860.92 326.95 2862.13 327.58 2867.39 330.35 2872.7 333.88 2874.52 335.09 2878.18 337.52 2879.12 338.15 2902.8 355.03 2905.93 357.32 2925.67 369.95 2950.39 331.33 2974 304.93"/><polyline class="cls-4" points="-1301.96 887.38 -1295.72 884.15 -1290.24 881.1 -1283.98 878.07 -1278.88 876.1 -1276.88 875.13 -1272.25 873.99 -1268.29 873.73 -1266.59 873.85 -1263.37 874.33 -1257.78 875.96 -1243.23 882.55 -1240.01 883.52 -1235.07 883.98 -1232.82 883.52 -1226.9 881.9 -1218.91 878.53 -1214.23 877.02 -1209.94 876.67 -1207.71 876.9 -1203.21 877.7 -1197.79 879.5 -1193.06 880.64 -1187.59 881.47 -1183.24 881.41 -1180.67 880.93 -1177.95 879.7 -1175.71 878.18 -1171.77 875.05 -1169 872.34 -1168.42 871.39 -1167.14 869.54 -1163.72 862.29 -1160.83 856.32 -1158.43 853.1 -1153.96 849.25 -1149.63 846.36 -1138.43 841.05 -1129.95 837.68 -1123.24 835.75 -1120.98 835.26 -1120.03 835.09 -1109.97 835.09 -1104.68 835.57 -1097.48 836.71 -1090.12 837.83 -1080.86 838.17 -1077.34 837.51 -1067.91 835.26 -1058.59 832.2 -1050.6 830.44 -1049.04 830.18 -1044.71 829.46 -1035.12 828.49 -1028.38 828.01 -1024.4 828.01 -1022.49 828.06 -999.95 827.61 -994.97 827.15 -988.44 826.04 -984.95 825.04 -978.43 822.58 -970.39 818.84 -964.36 815.56 -959.48 811.93 -957.65 809.85 -955.75 806.77 -943.1 782.16 -939.73 775.57 -937.02 770.92 -935.27 769.12 -933.76 768.44 -931.66 768.29 -927.13 770.06 -916.08 777.31 -912.94 778.99 -899.59 784.71 -892.07 784.01 -885.18 781.38 -878.37 777.82 -874.96 774.57 -871.71 766.04 -868.15 758.92 -863.5 755.28 -857.69 753.11 -848.4 752.1 -842.93 750.6 -837.77 747.85 -827.87 739.92 -824.02 737.4 -813.38 733.15 -805.54 729.76 -792.42 721.08 -790.46 719.97 -786.57 719.27 -783.34 719.39 -779.03 719.97 -762.87 722.53 -746.6 723.82 -734.65 721.92 -728.82 719.85 -727.42 719.28 -725.44 718.22 -723.23 716.94 -720.67 715.05 -717.36 712.57 -711.12 707.09 -707.95 703.61 -706.11 701.13 -700.22 691.56 -692.04 675.98 -689.83 672.52 -687.44 669.55 -680.28 665.16 -665.28 664.83 -654.62 663.5 -635.78 656 -622.45 647.5 -615.9 644.11 -612.39 642.29 -609.5 641.56 -597.4 641.27 -588.27 644.43 -580 650.17 -574.67 654.14 -571.41 656.79 -566.52 664.78 -564.42 667.44 -562.51 669.27 -559.65 670.89 -557.74 671.52 -555.17 671.87 -550.82 671.87 -539.28 670.74 -514.84 668.35 -497.07 667.32 -488.69 668.41 -474.3 671.64 -467.94 672 -460.28 671.04 -452.66 668.35 -443.25 664.04 -425.39 655.98 -418.39 654.52 -387.29 657.77 -381.27 657.94 -375.09 655.65 -369.71 652.07 -363.53 646.86 -362.38 640.19 -372.97 601.28 -371.51 596.88 -368.25 593.63 -362.06 592.33 -343.34 592.65 -323.56 589.48 -285.28 583.63 -260.42 568.84 -252.64 566.85 -245.01 568.84 -235.86 573.1 -229.96 574.94 -224.76 575.34 -217.71 574.48 -211.31 575.4 -208.68 578.48 -206.68 580.71 -198.95 595.99 -165.84 619.02 -159.9 624.51 -154.86 631.99 -150.44 642.97 -145.87 666.92 -143.12 681.25 -140.22 685.98 -133.97 692.08 -125.05 696.45 -118.87 697.73 -113.68 697.88 -106.82 695.29 -101.48 691.94 -95.23 682.32 -86.86 671.96 -74.39 660.03 -59.64 645.93 -55.65 643.13 -49.92 642.69 -45.5 643.34 -41.5 645.93 -38.04 649.5 -16.61 686.17 -1.59 710.27 -0.47 712.07 8.47 719.83 17.22 724.11 22.91 725.39 67.02 720.91 71.85 719.37 75.5 715.81 78.05 710.52 80.16 700.22 83.35 692.74 87.18 689.18 92.28 684.89 97.12 682.52 102.5 681.89 125.3 684.25 139.16 686.26 144.09 688.54 152 695.73 158.04 700.94 160.41 710.16 158.88 751.23 161.04 755.1 163.64 759.78 168.44 764.92 172.28 768.46 174.12 769.55 176.8 770.61 186.84 773.6 191.59 775.51 194.03 777.25 195.08 778.31 197.25 782.14 204.6 805 205.89 807.83 207.47 810.31 209.61 812.13 211.94 813.68 214.36 814.34 216.43 814.65 221.59 814.73 226.12 813.42 229.27 812.39 233.39 810.31 237.56 807.4 254.03 794.21 259.31 790.52 270.02 781.19 275.29 776.37 288.4 765.24 299.78 759.12 305.51 758.39 320.6 756.52 323.57 760.93 325.55 763.01 330.95 766.24 335.93 768.49 340.26 769.29 348.07 769.27 360.11 767.35 370.65 764.61 380.09 761.24 395.93 754.31 427.53 738.69 432.88 736.01 438.63 733.07 441.04 731.64 449.91 726.39 452.8 724.36 456.43 721.56 471.73 710.72 477.18 706.21 481.51 702.95 490.13 697.84 499.09 693.5 512.23 687.85 514.63 686.91 517.62 685.65 521.82 684.17 531.12 680.8 540.39 678.23 545.74 677.57 552.22 676.78 560.06 675.66 564.47 675.43 569.99 675.32 576.23 675.98 584.87 677.43 594.79 679.49 601.49 681.09 610.3 683.34 621.71 684.88 632.05 686.08 639.85 686.73 647.42 687.2 661.49 687.2 666.77 686.71 678.3 686.4 693.16 686.08 703.22 685.42 709.18 685.59 713.12 686.31 717.78 687.71 724.98 690.9 729.89 692.02 733.13 692.85 737.23 692.96 739.55 692.85 759.86 686.71 762.91 686.08 766.99 685.94 787.72 686.08 796.84 684.94 800.99 684.14 805.02 682.74 815.41 679.14 822.27 676.58 824.05 675.95 830.59 674.49 835.25 673.84 841.79 673.52 846.52 673.55 846.52 673.54 850.24 673.54 863.54 674.32 872.83 674.97 878.12 674.95 883.48 674.37 903.83 669.92 907.56 668.75 911.17 667.12 918.71 663.61 923.91 661.38 927.78 659.91 931.85 658.07 941.14 653.57 951.23 649.05 956.05 646.68 959.21 644.88 962.59 642.94 980.83 633.29 991.84 628.33 1011.83 620.76 1019.51 618.34 1026.7 615.71 1045.88 608.91 1053.52 604.48 1064.18 602.16 1076.29 599.84 1089.29 596.5 1104.47 592.67 1113.62 590.15 1124.32 587.9 1133.33 585.53 1139.49 583.22 1147.04 580.54 1148.97 580.06 1159.76 577.11 1172.8 575.4 1177.55 575.4 1182.09 575.4 1182.95 575.63 1184.95 576.2 1190.87 577.97 1193.6 578.6 1197.28 579.4 1206.24 581.34 1208.47 581.45 1213.43 582.36 1224.8 583.05 1228.9 583.42 1240.44 593.94 1245.07 595.54 1250.02 594.74 1270.13 585.64 1299.84 570.47 1304.14 570.15 1314.85 571.43 1322.83 571.27 1337.84 566.48 1387.18 546.84 1411.29 532.63 1415.35 531.95 1427.57 537.5 1456.37 546.61 1459.17 547.5 1463.89 546.84 1468.21 545.58 1479.37 543.31 1490.18 540.35 1500.2 536.25 1506.69 533.18 1514.78 527.03 1530.87 514.08 1538.23 508.36 1545.52 504.71 1560.89 497.88 1566.24 497.43 1573.29 498.22 1605.25 517.13 1612.31 518.87 1621.63 519.13 1639.08 513.67 1669.3 498.76 1683.14 490.1 1698.73 475.32 1717.37 466.66 1737.88 454.94 1746.74 449.34 1752.79 443.23 1760.87 437.91 1763.31 436.3 1773.96 428.71 1780.89 424.18 1795.53 420.99 1801.19 419.02 1829.14 404.76 1836.23 400.61 1847.11 391.64 1883.16 353.46 1889.38 347.95 1907.23 335.2 1944.55 314.26 1997.81 287 2009.11 284.01 2033.25 284.83 2061.78 285.79 2068.44 286.82 2127.03 306.8 2147.6 306.21 2154.25 307.24 2172.14 317.2 2192.37 326.2 2206.04 328.4 2226.9 326.48 2271.27 320.55 2285.04 319.52 2300.73 320.41 2317.15 323.08 2334.45 328.03 2339 332.22 2361.29 350.92 2383.55 381.82 2385.27 384.41 2390.73 390.23 2403.14 401.2 2412.97 409.32 2432.64 420.87 2436.6 423.39 2451.88 431.27 2468.28 440.1 2479.67 441.96 2494.49 442.11 2504.84 441.47 2518.57 437.4 2521.21 436.69 2529.73 434.99 2538.44 432.54 2552.05 428.6 2555.22 427.58 2573.91 422.11 2590.43 417.04 2599.18 414.31 2609.68 411.25 2614.8 409.69 2615.68 409.46 2630.3 405.85 2636.26 404.37 2651.84 400.67 2670.91 395.99 2682.59 393.22 2693.57 390.45 2725.08 383.52 2731.66 381.16 2737.2 377.89 2742.49 374.22 2750.58 367.59 2754.74 363.39 2768.88 348.75 2771.42 346.67 2775.81 344.31 2780.88 342.13 2782.5 341.44 2807.75 333.62 2827.59 327.22 2833.91 325.55 2835.17 324.88 2842.85 324.01 2849.25 324.42 2854.59 325.35 2857.98 325.95 2860.92 326.95 2862.13 327.58 2867.39 330.35 2872.7 333.88 2874.52 335.09 2878.18 337.52 2879.12 338.15 2902.8 355.03 2905.93 357.32 2925.67 369.95 2950.39 331.33 2974 304.93"/></g></g></g></svg>