<svg id="_15zoom" data-name="15zoom" xmlns="http://www.w3.org/2000/svg" xmlns:xlink="http://www.w3.org/1999/xlink" viewBox="0 0 1024 1024"><defs><style>.cls-1,.cls-2,.cls-20,.cls-22{fill:#fff;}.cls-1,.cls-2,.cls-20,.cls-25,.cls-26,.cls-28,.cls-5,.cls-7,.cls-9{stroke:#231815;}.cls-1,.cls-2,.cls-20,.cls-25,.cls-26,.cls-28,.cls-29,.cls-30,.cls-32,.cls-33,.cls-34,.cls-35,.cls-36,.cls-5,.cls-6,.cls-7,.cls-9{stroke-miterlimit:10;}.cls-1,.cls-25{stroke-width:2px;}.cls-2,.cls-9{stroke-width:2.4px;}.cls-3{font-size:18px;}.cls-10,.cls-3,.cls-8{fill:#231815;}.cls-10,.cls-3{font-family:NotoSansMonoCJKjp-Regular-90ms-RKSJ-H, Noto Sans Mono CJK JP;}.cls-4{font-size:12px;}.cls-25,.cls-26,.cls-28,.cls-29,.cls-30,.cls-32,.cls-33,.cls-34,.cls-35,.cls-36,.cls-37,.cls-5,.cls-6,.cls-7,.cls-9{fill:none;}.cls-28,.cls-29,.cls-30,.cls-5,.cls-6{stroke-linecap:round;}.cls-5{stroke-width:5.27px;}.cls-29,.cls-6{stroke:#ef845d;}.cls-6{stroke-width:2.64px;}.cls-7{stroke-width:3px;}.cls-10{font-size:15px;}.cls-11{letter-spacing:-0.09em;}.cls-12{letter-spacing:-0.09em;}.cls-13{letter-spacing:-0.05em;}.cls-14{letter-spacing:-0.06em;}.cls-15{letter-spacing:-0.06em;}.cls-16{letter-spacing:-0.05em;}.cls-17{letter-spacing:-0.08em;}.cls-18{letter-spacing:0.12em;}.cls-19{font-size:9px;}.cls-20{stroke-width:4px;}.cls-21{letter-spacing:0.5em;}.cls-23{clip-path:url(#clip-path);}.cls-24{letter-spacing:0.25em;}.cls-26{stroke-width:3px;}.cls-27{clip-path:url(#clip-path-2);}.cls-28{stroke-width:8.79px;}.cls-29,.cls-30{stroke-width:4.4px;}.cls-30{stroke:#ebca1b;}.cls-31{opacity:0.5;}.cls-32,.cls-33,.cls-34,.cls-35,.cls-36{stroke:#e60012;stroke-width:20px;}.cls-32{stroke-dasharray:10.13 10.13;}.cls-34{stroke-dasharray:9.49 9.49;}.cls-35{stroke-dasharray:7.82 7.82;}.cls-36{stroke-dasharray:10.25 10.25;}</style><clipPath id="clip-path"><rect id="_長方形_" data-name="&lt;長方形&gt;" class="cls-1" x="480.35" y="768.58" width="180" height="50"/></clipPath><clipPath id="clip-path-2"><rect id="_長方形_2" data-name="&lt;長方形&gt;" class="cls-1" x="94.1" y="103.26" width="180" height="50"/></clipPath></defs><title>3230_7145</title><rect id="_長方形_3" data-name="&lt;長方形&gt;" class="cls-2" x="-239.27" y="179.09" width="240" height="60"/><rect id="_長方形_4" data-name="&lt;長方形&gt;" class="cls-2" x="411.38" y="652.35" width="240" height="60"/><text class="cls-3" transform="translate(504.38 675.82)">日置線<tspan class="cls-4"><tspan x="-36" y="16.32">(local bus)Hioki line</tspan></tspan></text><line class="cls-5" x1="471.38" y1="700.35" x2="591.38" y2="700.35"/><line class="cls-6" x1="471.38" y1="700.35" x2="591.38" y2="700.35"/><line class="cls-7" x1="531.38" y1="712.35" x2="407.94" y2="791.72"/><path class="cls-8" d="M392.71,801.51c5.46-7.26,11.43-17.52,13.85-25.86l3.38,14.79,12.06,9.2C413.4,798.38,401.59,799.56,392.71,801.51Z"/><path id="_クリッピングパス_" data-name="&lt;クリッピングパス&gt;" class="cls-8" d="M304.5,417.13a15,15,0,0,0-15,15h0a15,15,0,0,0,15,15h21v-30Z"/><path id="_クリッピングパス_2" data-name="&lt;クリッピングパス&gt;" class="cls-9" d="M304.5,417.13a15,15,0,0,0-15,15h0a15,15,0,0,0,15,15h21v-30Z"/><path class="cls-2" d="M514.5,417.13h-189v30h189a15,15,0,0,0,15-15h0A15,15,0,0,0,514.5,417.13Z"/><text class="cls-10" transform="translate(330.74 436.33)"><tspan class="cls-11">青</tspan><tspan class="cls-12" x="13.72" y="0">谷</tspan><tspan class="cls-13" x="27.34" y="0">町</tspan><tspan class="cls-14" x="41.54" y="0">総</tspan><tspan class="cls-15" x="55.72" y="0">合</tspan><tspan class="cls-16" x="69.84" y="0">支</tspan><tspan class="cls-17" x="84.02" y="0">所</tspan><tspan class="cls-18" x="97.88" y="0">前</tspan><tspan class="cls-19" x="114.76" y="-2.28">(Aoya Town Office)</tspan></text><line class="cls-2" x1="302" y1="344" x2="421.5" y2="417.13"/><line class="cls-2" x1="266.06" y1="357.81" x2="421.5" y2="417.13"/><circle class="cls-20" cx="266.06" cy="357.81" r="10"/><circle class="cls-20" cx="302" cy="344" r="10"/><path id="_クリッピングパス_3" data-name="&lt;クリッピングパス&gt;" class="cls-8" d="M101.29,169a15,15,0,0,0-15,15h0a15,15,0,0,0,15,15h21V169Z"/><path id="_クリッピングパス_4" data-name="&lt;クリッピングパス&gt;" class="cls-9" d="M101.29,169a15,15,0,0,0-15,15h0a15,15,0,0,0,15,15h21V169Z"/><path class="cls-2" d="M311.29,169h-189v30h189a15,15,0,0,0,15-15h0A15,15,0,0,0,311.29,169Z"/><text class="cls-3" transform="translate(134.29 190.86)">青谷小学<tspan class="cls-21" x="72" y="0">校</tspan><tspan class="cls-4" x="99" y="-2.28">(Aoya E.S.)</tspan></text><line class="cls-2" x1="261" y1="277" x2="218.29" y2="199.02"/><circle class="cls-20" cx="261" cy="277" r="10"/><path class="cls-2" d="M74.4,387.75h-189v30h189a15,15,0,0,0,15-15h0A15,15,0,0,0,74.4,387.75Z"/><text class="cls-3" transform="translate(-84.6 409.59)">青谷<tspan class="cls-21" x="36" y="0">駅</tspan><tspan class="cls-4" x="63" y="-2.28">(Aoya Sta.)</tspan></text><line class="cls-2" x1="146" y1="459" x2="-18.6" y2="417.75"/><circle class="cls-20" cx="146" cy="459" r="10"/><rect id="_長方形_5" data-name="&lt;長方形&gt;" class="cls-22" x="480.35" y="768.58" width="180" height="50"/><g class="cls-23"><text class="cls-10" transform="translate(517.85 787.32)">日置線養郷発着<tspan class="cls-24" x="-11.25" y="20">(</tspan><tspan x="0" y="20">青谷駅経由な</tspan><tspan class="cls-24" x="90" y="20">し</tspan><tspan x="108.75" y="20">)</tspan></text></g><rect id="_長方形_6" data-name="&lt;長方形&gt;" class="cls-25" x="480.35" y="768.58" width="180" height="50"/><line class="cls-26" x1="570.35" y1="818.58" x2="505.1" y2="855.95"/><path class="cls-8" d="M489.39,865c5.82-7,12.31-16.91,15.16-25.13l2.61,14.95,11.57,9.81C510.2,862.88,498.35,863.45,489.39,865Z"/><rect id="_長方形_7" data-name="&lt;長方形&gt;" class="cls-22" x="94.1" y="103.26" width="180" height="50"/><g class="cls-27"><text class="cls-10" transform="translate(131.6 122)">小学校休校日は<tspan x="-30" y="20">ダイヤ・ルート変更あり</tspan></text></g><rect id="_長方形_8" data-name="&lt;長方形&gt;" class="cls-25" x="94.1" y="103.26" width="180" height="50"/><path class="cls-28" d="M483.39,2346.62l4-4.83,4-6.6,2.73-8.55,1.86-11.95,1.37-10,.14-3.4,1-5.46,2-4.35,3.21-4.86,3.85-3.37,10.9-8,3.36-3.38,3.53-4.69,3.2-5.46,1.51-1.6,3.63-5.32.79-1.63,5-8.2,7.2-9.84,4.5-5,2.72-2.26,8.43-7.15.68-1.14,1.4-7.58,8.27-36.33,2.23-6.78,1.91-4.35,30.48-57.66,9-21.59.3-.34,14.77-36.89,5.77-15.47,1.12-6.46.49-2.72v-.66l2.4-20,2.4-13.35,1.28-9.18,1.58-23.08,1.82-9.86.42-5.61,1.77-14,1.91-8.69,1-5.52.3-7.23-.14-29.54.44-3.67,1.78-8.8v-2.54l-1.71-1.89.26-5.12-.33-7.58-.46-3.55-2.42-12.55-3.66-11.29-1.14-4.52-1.77-13.7-.61-2.77-1-4.29-.46-2.26-5.15-14.35-2.56-8.7L633,1758.74,631,1740.83l-.33-10.78-.65-8.37-1.12-6.79-1.44-5.63-2.37-7.43-1.94-4.69-3.38-7.27-2.86-8-2-10.3-.3-4-.46-3.78-1.1-21.88-1.3-11-.52-6.61-.16-18.67-.3-6.47v-2.89l-.82-2.57-2.56-7.75L601.88,1569l-1.79-6.75-1.77-8.55-.16-.8-6.22-12.7-5-8.55-6.1-9.35L576,1516l-5.42-6.3-6.92-7.09-3.19-4.83-.49-.46-2.89-6.29-2.56-8.41-1.28-6.29-2.7-12.87-3.24-16.76-7.22-39.24-3-13.64-1.4-8.87-.48-8.35.3-4.83,1.12-8.56,1.44-6.12,1-3.52,4.49-14.95,4.19-13.9,5.18-14.68,3.65-8.69,4-8.38L572,1272.18l1.28-2.23,15.42-26.12L598,1227l4.47-8.7.81-1.6,2-4.5-5.14.19-2.48.49-3.71,1.1L582.73,1219c-1.92.87-3.88,1.64-5.83,2.44l-6.13,2.5-5.74,1.68-6.66.76c-2.06.23-4.06.27-6.1.41l-12.18.73-24.27,1.42c-11.43.68-22.85,1.46-34.29,2.24l-3-11.25-.19-1.23v-.35l0-.38,0-.76-.09-1.51-.16-3-.3-5.52-1.08-4.45-3-8.28-2.74-9.77-.59-3.93.46-18.77-1.44-12.24.17-11.29,1.28-11.42v-1.24l.3-3.23v-3.69l-.25-3.06-.33-1.59-1.84-5.79c-.31-1-.67-2-.92-3.07l-.91-3.41-4.66-28.48-4.51-28.22-2.24-14.2-1.12-7.1c-.17-1.19-.4-2.37-.53-3.56l-.36-3.57-.72-7.14c-.11-1.21-.28-2.32-.43-3.46l-.47-3.49-.95-7c-.17-1.16-.29-2.35-.52-3.47l-.66-3.66,0-.28-.26-2.83c-.1-.9-.15-1.79-.29-2.68l-.65-5-1.24-4.6-7-17.29-4.06-12.47-1.17-2.26-.67-1.28-.35-.62-1.53-1.53L431,937l-5.59-4L415.44,924c-1.62-1.47-3.2-2.86-4.85-4.4l-5.19-5.2-2.75-4.76-2.22-7-1.69-7.52c-.27-1.2-.55-2.41-.78-3.73s-.47-2.58-.64-3.9l-1-7.4-.92-7.63-.21-9.08-.11-4.39c-.05-1.47-.16-2.94-.24-4.4l-1.06-17.91.61-15.1.29-7.4.07-7.11-1.31-18.26-.66-9.24c-.23-3.08-.39-6.16-.76-9.23l-3.74-35.26-.48-.64-17-18.78-12.21-10.85c-4.16-3.68-8.43-7.24-12.64-10.87l-25.37-21.63-3.1-2.61-3.31-2.59c-2.23-1.69-4.35-3.52-6.47-5.34l-12.76-10.9-12.78-10.85-6.38-5.43-6.5-5.81-7.85-8.56-4.24-5.36-9.33-15.11-4.7-10.11-5-16-3.35-7.84-11.19,4.77-13.87,6.2-19.11,8.55L178,590.93l-30.8,12.72-4.46-9.86L126.91,558.9"/><path class="cls-29" d="M483.39,2346.62l4-4.83,4-6.6,2.73-8.55,1.86-11.95,1.37-10,.14-3.4,1-5.46,2-4.35,3.21-4.86,3.85-3.37,10.9-8,3.36-3.38,3.53-4.69,3.2-5.46,1.51-1.6,3.63-5.32.79-1.63,5-8.2,7.2-9.84,4.5-5,2.72-2.26,8.43-7.15.68-1.14,1.4-7.58,8.27-36.33,2.23-6.78,1.91-4.35,30.48-57.66,9-21.59.3-.34,14.77-36.89,5.77-15.47,1.12-6.46.49-2.72v-.66l2.4-20,2.4-13.35,1.28-9.18,1.58-23.08,1.82-9.86.42-5.61,1.77-14,1.91-8.69,1-5.52.3-7.23-.14-29.54.44-3.67,1.78-8.8v-2.54l-1.71-1.89.26-5.12-.33-7.58-.46-3.55-2.42-12.55-3.66-11.29-1.14-4.52-1.77-13.7-.61-2.77-1-4.29-.46-2.26-5.15-14.35-2.56-8.7L633,1758.74,631,1740.83l-.33-10.78-.65-8.37-1.12-6.79-1.44-5.63-2.37-7.43-1.94-4.69-3.38-7.27-2.86-8-2-10.3-.3-4-.46-3.78-1.1-21.88-1.3-11-.52-6.61-.16-18.67-.3-6.47v-2.89l-.82-2.57-2.56-7.75L601.88,1569l-1.79-6.75-1.77-8.55-.16-.8-6.22-12.7-5-8.55-6.1-9.35L576,1516l-5.42-6.3-6.92-7.09-3.19-4.83-.49-.46-2.89-6.29-2.56-8.41-1.28-6.29-2.7-12.87-3.24-16.76-7.22-39.24-3-13.64-1.4-8.87-.48-8.35.3-4.83,1.12-8.56,1.44-6.12,1-3.52,4.49-14.95,4.19-13.9,5.18-14.68,3.65-8.69,4-8.38L572,1272.18l1.28-2.23,15.42-26.12L598,1227l4.47-8.7.81-1.6,2-4.5-5.14.19-2.48.49-3.71,1.1L582.73,1219c-1.92.87-3.88,1.64-5.83,2.44l-6.13,2.5-5.74,1.68-6.66.76c-2.06.23-4.06.27-6.1.41l-12.18.73-24.27,1.42c-11.43.68-22.85,1.46-34.29,2.24l-3-11.25-.19-1.23v-.35l0-.38,0-.76-.09-1.51-.16-3-.3-5.52-1.08-4.45-3-8.28-2.74-9.77-.59-3.93.46-18.77-1.44-12.24.17-11.29,1.28-11.42v-1.24l.3-3.23v-3.69l-.25-3.06-.33-1.59-1.84-5.79c-.31-1-.67-2-.92-3.07l-.91-3.41-4.66-28.48-4.51-28.22-2.24-14.2-1.12-7.1c-.17-1.19-.4-2.37-.53-3.56l-.36-3.57-.72-7.14c-.11-1.21-.28-2.32-.43-3.46l-.47-3.49-.95-7c-.17-1.16-.29-2.35-.52-3.47l-.66-3.66,0-.28-.26-2.83c-.1-.9-.15-1.79-.29-2.68l-.65-5-1.24-4.6-7-17.29-4.06-12.47-1.17-2.26-.67-1.28-.35-.62-1.53-1.53L431,937l-5.59-4L415.44,924c-1.62-1.47-3.2-2.86-4.85-4.4l-5.19-5.2-2.75-4.76-2.22-7-1.69-7.52c-.27-1.2-.55-2.41-.78-3.73s-.47-2.58-.64-3.9l-1-7.4-.92-7.63-.21-9.08-.11-4.39c-.05-1.47-.16-2.94-.24-4.4l-1.06-17.91.61-15.1.29-7.4.07-7.11-1.31-18.26-.66-9.24c-.23-3.08-.39-6.16-.76-9.23l-3.74-35.26-.48-.64-17-18.78-12.21-10.85c-4.16-3.68-8.43-7.24-12.64-10.87l-25.37-21.63-3.1-2.61-3.31-2.59c-2.23-1.69-4.35-3.52-6.47-5.34l-12.76-10.9-12.78-10.85-6.38-5.43-6.5-5.81-7.85-8.56-4.24-5.36-9.33-15.11-4.7-10.11-5-16-3.35-7.84-11.19,4.77-13.87,6.2-19.11,8.55L178,590.93l-30.8,12.72-4.46-9.86L126.91,558.9"/><path class="cls-28" d="M116.19,563.63,123.6,580l-12.1,11.8-3.08,3-3,2-5.71,2.27-3.9.81-3.68.75-9.36,1.18-8.07,2-5.11,2.2-5.12,2.81-8,5.47-6.64,5.88-.21.19-2.72,2.44-3.74,3.88-1.67,2.42-2.61,4.65-4.45,9.41L32.72,646l-.41.7-8.87,9.09-6.72,6.08L12.47,666,8.2,669.1l-4.79,2.43-2.64.94-1.66.59h-.52l-8.9,0-9.76.47-3.64.62-2.64,1.08-2.15,1.75-2.68,2.12L-38,687.84l-2.17,2.64-3.68,2.74-4.68,2.43-3.87,1.46-3.2,1,2,9.19,1.94,10.3-.31,9.91c-.07,1.54,0,3.08,0,4.62l0,5.15-2.34,13.51-4.55,14.44-5.76,12.18L-69.28,785c-1.51,2.4-3.11,4.73-4.66,7.1l-5.14,7.77L-88.21,803l-10.63,16.08-.39.59-11.71,18.55-5.33,9.76-4.18,9.37-4.81,23.06-7.6,40.34L-138.25,936-143,946l-16.14,20-18.19,19.83L-203,1011.44l-13.74,15-5.7,7.54-58.09,79.79-5.93,7.57-32.11,34.52-4.48,7.17-1.8,3.73-2.32,4.82-7.31,15.13-2.31,2.39-2.46,1.86-8.89,2.85-4.2,1.55-2.33,2.32-1.16,3.14-.83,5.2-3.37,34.72-2.41,56.54-1.9,7.77-2.86,10.47-2.69,11.57-.63,11.58.47,12.21,2.38,15.53-2.7,26.33-.95,26.8.74,8.12.69,11.86,3.8,19.35,3.81,7.92,14.91,18.4,8.88,21.56,3.15,11.68,8.17,4.47,3,2.83.49.46,10.16,7.35,3.84,2.57,6.85,5.32,19.47,15.61,3.08,13.78-.79,10-.69,13.64,1.28,23,1.79,26.77,1.9,32.19v13.31l-2.36,12.11-4.31,13.83-10.3,29.88-.81,3.28,3.13,19.33,2.13,16.49,1.14,20.18-.57,24-12.47,29-3.22,7-8.18,16.31-4.94,11.6-5.12,10.57-7.46,21.31-2.85,14.82-5.26,30.28-3.27,10.94-7.1,11.94-5.12,6-15.91,13.93L-385.34,2027l-5.26,8.17-11.91,25.33-7.38,12.91-6.24,7-10.37,13-11.21,19.72-8.94,20.87-4.54,12.91-4.54,16.89-4.65,17-.9,8.31-.91,4.56-.7,6.37-.08,7.75,1.5,7.65,1.91,5.58,8.82,15.56,1.34,2.5.49,4.16-.33,1.83-2.66,5.74.08,1.5,5.91,34.79.83,4.08-1.9,9.51-3.21,7.45-1.49,1.72"/><path class="cls-30" d="M116.19,563.63,123.6,580l-12.1,11.8-3.08,3-3,2-5.71,2.27-3.9.81-3.68.75-9.36,1.18-8.07,2-5.11,2.2-5.12,2.81-8,5.47-6.64,5.88-.21.19-2.72,2.44-3.74,3.88-1.67,2.42-2.61,4.65-4.45,9.41L32.72,646l-.41.7-8.87,9.09-6.72,6.08L12.47,666,8.2,669.1l-4.79,2.43-2.64.94-1.66.59h-.52l-8.9,0-9.76.47-3.64.62-2.64,1.08-2.15,1.75-2.68,2.12L-38,687.84l-2.17,2.64-3.68,2.74-4.68,2.43-3.87,1.46-3.2,1,2,9.19,1.94,10.3-.31,9.91c-.07,1.54,0,3.08,0,4.62l0,5.15-2.34,13.51-4.55,14.44-5.76,12.18L-69.28,785c-1.51,2.4-3.11,4.73-4.66,7.1l-5.14,7.77L-88.21,803l-10.63,16.08-.39.59-11.71,18.55-5.33,9.76-4.18,9.37-4.81,23.06-7.6,40.34L-138.25,936-143,946l-16.14,20-18.19,19.83L-203,1011.44l-13.74,15-5.7,7.54-58.09,79.79-5.93,7.57-32.11,34.52-4.48,7.17-1.8,3.73-2.32,4.82-7.31,15.13-2.31,2.39-2.46,1.86-8.89,2.85-4.2,1.55-2.33,2.32-1.16,3.14-.83,5.2-3.37,34.72-2.41,56.54-1.9,7.77-2.86,10.47-2.69,11.57-.63,11.58.47,12.21,2.38,15.53-2.7,26.33-.95,26.8.74,8.12.69,11.86,3.8,19.35,3.81,7.92,14.91,18.4,8.88,21.56,3.15,11.68,8.17,4.47,3,2.83.49.46,10.16,7.35,3.84,2.57,6.85,5.32,19.47,15.61,3.08,13.78-.79,10-.69,13.64,1.28,23,1.79,26.77,1.9,32.19v13.31l-2.36,12.11-4.31,13.83-10.3,29.88-.81,3.28,3.13,19.33,2.13,16.49,1.14,20.18-.57,24-12.47,29-3.22,7-8.18,16.31-4.94,11.6-5.12,10.57-7.46,21.31-2.85,14.82-5.26,30.28-3.27,10.94-7.1,11.94-5.12,6-15.91,13.93L-385.34,2027l-5.26,8.17-11.91,25.33-7.38,12.91-6.24,7-10.37,13-11.21,19.72-8.94,20.87-4.54,12.91-4.54,16.89-4.65,17-.9,8.31-.91,4.56-.7,6.37-.08,7.75,1.5,7.65,1.91,5.58,8.82,15.56,1.34,2.5.49,4.16-.33,1.83-2.66,5.74.08,1.5,5.91,34.79.83,4.08-1.9,9.51-3.21,7.45-1.49,1.72"/><g class="cls-31"><path class="cls-32" d="M478.21,1216.41l0-.76-.16-3-.3-5.52-1.08-4.45-3-8.28-2.74-9.77-.59-3.93.46-18.77-1.44-12.24.17-11.29,1.28-11.42v-1.24l.3-3.23v-3.69l-.25-3.06-.33-1.59-1.84-5.79c-.31-1-.67-2-.92-3.07l-.91-3.41-4.66-28.48-4.51-28.22-2.24-14.2-1.12-7.1c-.17-1.19-.4-2.37-.53-3.56l-.36-3.57-.72-7.14c-.11-1.21-.28-2.32-.43-3.46l-.47-3.49-.95-7c-.17-1.16-.29-2.35-.52-3.47l-.66-3.66,0-.28-.26-2.83c-.1-.9-.15-1.79-.29-2.68l-.65-5-1.24-4.6-7-17.29-4.06-12.47-1.17-2.26-.67-1.28-.35-.62-1.53-1.53L431,937l-5.59-4L415.44,924c-1.62-1.47-3.2-2.86-4.85-4.4l-5.19-5.2-2.75-4.75-2.22-7-1.69-7.52c-.27-1.2-.55-2.41-.78-3.73s-.47-2.58-.64-3.9l-1-7.4-.92-7.63-.21-9.08-.11-4.39c-.05-1.47-.16-2.94-.24-4.4l-1.06-17.91.61-15.1.29-7.4.07-7.11-1.31-18.26-.66-9.24c-.23-3.08-.39-6.16-.76-9.23l-3.74-35.26-.48-.64-17-18.78-12.21-10.85c-4.16-3.68-8.43-7.24-12.64-10.87l-25.37-21.63-3.1-2.61-3.31-2.59c-2.23-1.69-4.35-3.52-6.47-5.34l-12.76-10.9-12.78-10.85-6.38-5.43-6.5-5.81-7.85-8.56-4.24-5.36-9.33-15.11-4.7-10.11-4.53-14.48"/><polyline class="cls-33" points="236.79 570.52 234.82 565.92 230.22 567.88"/><polyline class="cls-34" points="221.5 571.64 209.76 576.89 190.65 585.44 177.95 590.93 156.16 599.93"/><polyline class="cls-33" points="151.77 601.74 147.15 603.65 145.09 599.1"/><line class="cls-35" x1="141.86" y1="591.97" x2="130.58" y2="567.02"/><line class="cls-33" x1="128.97" y1="563.45" x2="126.91" y2="558.9"/><path class="cls-32" d="M478.21,1216.41l0-.76-.16-3-.3-5.52-1.08-4.45-3-8.28-2.74-9.77-.59-3.93.46-18.77-1.44-12.24.17-11.29,1.28-11.42v-1.24l.3-3.23v-3.69l-.25-3.06-.33-1.59-1.84-5.79c-.31-1-.67-2-.92-3.07l-.91-3.41-4.66-28.48-4.51-28.22-2.24-14.2-1.12-7.1c-.17-1.19-.4-2.37-.53-3.56l-.36-3.57-.72-7.14c-.11-1.21-.28-2.32-.43-3.46l-.47-3.49-.95-7c-.17-1.16-.29-2.35-.52-3.47l-.66-3.66,0-.28-.26-2.83c-.1-.9-.15-1.79-.29-2.68l-.65-5-1.24-4.6-7-17.29-4.06-12.47-1.17-2.26-.67-1.28-.35-.62-1.53-1.53L431,937l-5.59-4L415.44,924c-1.62-1.47-3.2-2.86-4.85-4.4l-5.19-5.2-2.75-4.75-2.22-7-1.69-7.52c-.27-1.2-.55-2.41-.78-3.73s-.47-2.58-.64-3.9l-1-7.4-.92-7.63-.21-9.08-.11-4.39c-.05-1.47-.16-2.94-.24-4.4l-1.06-17.91.61-15.1.29-7.4.07-7.11-1.31-18.26-.66-9.24c-.23-3.08-.39-6.16-.76-9.23l-3.74-35.26-.48-.64-17-18.78-12.21-10.85c-4.16-3.68-8.43-7.24-12.64-10.87l-25.37-21.63-3.1-2.61-3.31-2.59c-2.23-1.69-4.35-3.52-6.47-5.34l-12.76-10.9-12.78-10.85-6.38-5.43-6.5-5.81-7.85-8.56-4.24-5.36-9.33-15.11-4.7-10.11-4.53-14.48"/><polyline class="cls-33" points="236.79 570.52 234.82 565.92 230.22 567.88"/><polyline class="cls-34" points="221.5 571.64 209.76 576.89 190.65 585.44 177.95 590.93 156.16 599.93"/><polyline class="cls-33" points="151.77 601.74 147.15 603.65 145.09 599.1"/><line class="cls-35" x1="141.86" y1="591.97" x2="130.58" y2="567.02"/><line class="cls-33" x1="128.97" y1="563.45" x2="126.91" y2="558.9"/><path class="cls-32" d="M478.21,1216.41l0-.76-.16-3-.3-5.52-1.08-4.45-3-8.28-2.74-9.77-.59-3.93.46-18.77-1.44-12.24.17-11.29,1.28-11.42v-1.24l.3-3.23v-3.69l-.25-3.06-.33-1.59-1.84-5.79c-.31-1-.67-2-.92-3.07l-.91-3.41-4.66-28.48-4.51-28.22-2.24-14.2-1.12-7.1c-.17-1.19-.4-2.37-.53-3.56l-.36-3.57-.72-7.14c-.11-1.21-.28-2.32-.43-3.46l-.47-3.49-.95-7c-.17-1.16-.29-2.35-.52-3.47l-.66-3.66,0-.28-.26-2.83c-.1-.9-.15-1.79-.29-2.68l-.65-5-1.24-4.6-7-17.29-4.06-12.47-1.17-2.26-.67-1.28-.35-.62-1.53-1.53L431,937l-5.59-4L415.44,924c-1.62-1.47-3.2-2.86-4.85-4.4l-5.19-5.2-2.75-4.75-2.22-7-1.69-7.52c-.27-1.2-.55-2.41-.78-3.73s-.47-2.58-.64-3.9l-1-7.4-.92-7.63-.21-9.08-.11-4.39c-.05-1.47-.16-2.94-.24-4.4l-1.06-17.91.61-15.1.29-7.4.07-7.11-1.31-18.26-.66-9.24c-.23-3.08-.39-6.16-.76-9.23l-3.74-35.26-.48-.64-17-18.78-12.21-10.85c-4.16-3.68-8.43-7.24-12.64-10.87l-25.37-21.63-3.1-2.61-3.31-2.59c-2.23-1.69-4.35-3.52-6.47-5.34l-12.76-10.9-12.78-10.85-6.38-5.43-6.5-5.81-7.85-8.56-4.24-5.36-9.33-15.11-4.7-10.11-4.53-14.48"/><polyline class="cls-33" points="236.79 570.52 234.82 565.92 230.22 567.88"/><polyline class="cls-34" points="221.5 571.64 209.76 576.89 190.65 585.44 177.95 590.93 156.16 599.93"/><polyline class="cls-33" points="151.77 601.74 147.15 603.65 145.09 599.1"/><line class="cls-35" x1="141.86" y1="591.97" x2="130.58" y2="567.02"/><line class="cls-33" x1="128.97" y1="563.45" x2="126.91" y2="558.9"/><line class="cls-33" x1="116.19" y1="563.63" x2="118.25" y2="568.19"/><polyline class="cls-33" points="121.53 575.45 123.59 580.01 120.02 583.5"/><polyline class="cls-36" points="112.68 590.66 111.5 591.81 108.42 594.82 105.41 596.85 99.7 599.13 95.8 599.93 92.12 600.68 82.76 601.86 74.69 603.9 69.58 606.1 64.46 608.91 56.45 614.38 49.8 620.26 49.59 620.45 46.87 622.89 43.13 626.76 41.46 629.19 38.85 633.84 34.4 643.25 32.72 646.03 32.31 646.73 23.44 655.82 16.72 661.9 12.46 665.98 8.2 669.1 3.41 671.53 0.78 672.47 -0.89 673.06 -1.41 673.06 -10.31 673.02 -20.07 673.49 -23.71 674.11 -26.35 675.19 -28.5 676.94 -31.18 679.06 -37.96 687.84 -40.13 690.48 -43.8 693.22 -46.16 694.44"/><line class="cls-33" x1="116.19" y1="563.63" x2="118.25" y2="568.19"/><polyline class="cls-33" points="121.53 575.45 123.59 580.01 120.02 583.5"/><polyline class="cls-36" points="112.68 590.66 111.5 591.81 108.42 594.82 105.41 596.85 99.7 599.13 95.8 599.93 92.12 600.68 82.76 601.86 74.69 603.9 69.58 606.1 64.46 608.91 56.45 614.38 49.8 620.26 49.59 620.45 46.87 622.89 43.13 626.76 41.46 629.19 38.85 633.84 34.4 643.25 32.72 646.03 32.31 646.73 23.44 655.82 16.72 661.9 12.46 665.98 8.2 669.1 3.41 671.53 0.78 672.47 -0.89 673.06 -1.41 673.06 -10.31 673.02 -20.07 673.49 -23.71 674.11 -26.35 675.19 -28.5 676.94 -31.18 679.06 -37.96 687.84 -40.13 690.48 -43.8 693.22 -46.16 694.44"/><line class="cls-33" x1="116.19" y1="563.63" x2="118.25" y2="568.19"/><polyline class="cls-33" points="121.53 575.45 123.59 580.01 120.02 583.5"/><polyline class="cls-36" points="112.68 590.66 111.5 591.81 108.42 594.82 105.41 596.85 99.7 599.13 95.8 599.93 92.12 600.68 82.76 601.86 74.69 603.9 69.58 606.1 64.46 608.91 56.45 614.38 49.8 620.26 49.59 620.45 46.87 622.89 43.13 626.76 41.46 629.19 38.85 633.84 34.4 643.25 32.72 646.03 32.31 646.73 23.44 655.82 16.72 661.9 12.46 665.98 8.2 669.1 3.41 671.53 0.78 672.47 -0.89 673.06 -1.41 673.06 -10.31 673.02 -20.07 673.49 -23.71 674.11 -26.35 675.19 -28.5 676.94 -31.18 679.06 -37.96 687.84 -40.13 690.48 -43.8 693.22 -46.16 694.44"/></g><rect class="cls-37" x="-935" y="-3068" width="11720" height="11720"/></svg>