<svg id="_15zoom" data-name="15zoom" xmlns="http://www.w3.org/2000/svg" viewBox="0 0 1024 1024"><defs><style>.cls-1,.cls-4{fill:#231815;}.cls-10,.cls-12,.cls-13,.cls-14,.cls-2,.cls-8,.cls-9{fill:none;}.cls-2,.cls-3,.cls-7,.cls-8{stroke:#231815;}.cls-10,.cls-12,.cls-13,.cls-2,.cls-3,.cls-7,.cls-8,.cls-9{stroke-miterlimit:10;}.cls-2,.cls-3{stroke-width:2.4px;}.cls-3,.cls-7{fill:#fff;}.cls-4{font-size:18px;font-family:NotoSansMonoCJKjp-Regular-90ms-RKSJ-H, Noto Sans Mono CJK JP;}.cls-5{letter-spacing:0.5em;}.cls-6{font-size:12px;}.cls-7{stroke-width:4px;}.cls-10,.cls-8,.cls-9{stroke-linecap:round;}.cls-8{stroke-width:8.79px;}.cls-9{stroke:#ef845d;}.cls-10,.cls-9{stroke-width:4.4px;}.cls-10{stroke:#ebca1b;}.cls-11{opacity:0.5;}.cls-12,.cls-13{stroke:#e60012;stroke-width:20px;}.cls-13{stroke-dasharray:9.98 9.98;}</style></defs><title>3232_7145</title><path id="_クリッピングパス_" data-name="&lt;クリッピングパス&gt;" class="cls-1" d="M335.3,338.37a15,15,0,0,0-15,15h0a15,15,0,0,0,15,15h21v-30Z"/><path id="_クリッピングパス_2" data-name="&lt;クリッピングパス&gt;" class="cls-2" d="M335.3,338.37a15,15,0,0,0-15,15h0a15,15,0,0,0,15,15h21v-30Z"/><path class="cls-3" d="M545.3,338.37h-189v30h189a15,15,0,0,0,15-15h0A15,15,0,0,0,545.3,338.37Z"/><text class="cls-4" transform="translate(386.3 360.21)"><tspan class="cls-5">小畑上</tspan><tspan class="cls-6" x="81" y="-2.28">Obata Ue</tspan></text><line class="cls-3" x1="482" y1="304" x2="452.3" y2="338.37"/><circle class="cls-7" cx="482" cy="304" r="10"/><path class="cls-8" d="M483.39,298.62l4-4.83,4-6.6,2.73-8.55L496,266.69l1.37-9.95.14-3.4,1-5.46,2-4.35,3.21-4.86,3.85-3.37,10.9-8,3.36-3.38,3.53-4.69,3.2-5.46,1.51-1.6,3.63-5.32.79-1.63,5-8.2,7.2-9.84,4.5-5,2.72-2.26,8.43-7.15.68-1.14,1.4-7.58,8.27-36.33,2.23-6.78,1.91-4.35L607.19,58.9l9-21.59.3-.34L631.23.08,637-15.39l1.12-6.46.49-2.72v-.66L641-45.18l2.4-13.35,1.28-9.18,1.58-23.08,1.82-9.86.42-5.61,1.77-14,1.91-8.69,1-5.52.3-7.23-.14-29.54.44-3.67,1.78-8.8v-2.54l-1.71-1.89.26-5.12-.33-7.58-.46-3.55-2.42-12.55-3.66-11.29-1.14-4.52-1.77-13.7-.61-2.77-1-4.29-.46-2.26-5.15-14.35-2.56-8.7L633-289.26,631-307.17l-.33-10.78-.65-8.37-1.12-6.79-1.44-5.63-2.37-7.43-1.94-4.69-3.38-7.27-2.86-8-2-10.3-.3-4-.46-3.78-1.1-21.88-1.3-11-.52-6.61-.16-18.67-.3-6.47v-2.89L610-454.3,607.47-462,601.88-479l-1.79-6.75-1.77-8.55-.16-.8-6.22-12.7-5-8.55-6.1-9.35L576-532l-5.42-6.3-6.92-7.09-3.19-4.83-.49-.46-2.89-6.29-2.56-8.41-1.28-6.29-2.7-12.87-3.24-16.76-7.22-39.24-3-13.64-1.4-8.87-.48-8.35.3-4.83,1.12-8.56,1.44-6.12,1-3.52,4.49-15,4.19-13.9L553-737.93l3.65-8.69,4-8.38L572-775.82l1.28-2.23,15.42-26.12L598-821l4.47-8.7.81-1.6,2-4.5-5.14.19-2.48.49-3.71,1.1L582.73-829c-1.92.87-3.88,1.64-5.83,2.44l-6.13,2.5L565-822.43l-6.66.76c-2.06.23-4.06.27-6.1.41l-12.18.73-24.27,1.42c-11.43.68-22.85,1.46-34.29,2.24l-3-11.25-.19-1.23v-.35l0-.38,0-.76-.09-1.51-.16-3-.3-5.52-1.08-4.45-3-8.28-2.74-9.77-.59-3.93.46-18.77-1.44-12.24.17-11.29L470.77-921v-1.24l.3-3.23v-3.69l-.25-3.06-.33-1.59-1.84-5.79c-.31-1-.67-2-.92-3.07l-.91-3.41-4.66-28.48-4.51-28.22-2.24-14.2-1.12-7.1c-.17-1.19-.4-2.37-.53-3.56l-.36-3.57-.72-7.14c-.11-1.21-.28-2.32-.43-3.46l-.47-3.49-.95-7c-.17-1.16-.29-2.35-.52-3.47l-.66-3.66,0-.28-.26-2.83c-.1-.9-.15-1.79-.29-2.68l-.65-5-1.24-4.6-7-17.29-4.06-12.47-1.17-2.26-.67-1.28-.35-.62-1.53-1.53L431-1111l-5.59-4-9.92-8.92c-1.62-1.47-3.2-2.86-4.85-4.4l-5.19-5.2-2.75-4.76-2.22-7-1.69-7.52c-.27-1.2-.55-2.41-.78-3.73s-.47-2.58-.64-3.9l-1-7.4-.92-7.63-.21-9.08-.11-4.39c-.05-1.47-.16-2.94-.24-4.4l-1.06-17.91.61-15.1.29-7.4.07-7.11-1.31-18.26-.66-9.24c-.23-3.08-.39-6.16-.76-9.23l-3.74-35.26-.48-.64-17-18.78-12.21-10.85c-4.16-3.68-8.43-7.24-12.64-10.87l-25.37-21.63-3.1-2.61-3.31-2.59c-2.23-1.69-4.35-3.52-6.47-5.34l-12.76-10.9-12.78-10.85-6.38-5.43-6.5-5.81-7.85-8.56-4.24-5.36-9.33-15.11-4.7-10.11-5-16-3.35-7.84-11.19,4.77-13.87,6.2-19.11,8.55-12.7,5.49-30.8,12.72-4.46-9.86-15.78-34.89"/><path class="cls-9" d="M483.39,298.62l4-4.83,4-6.6,2.73-8.55L496,266.69l1.37-9.95.14-3.4,1-5.46,2-4.35,3.21-4.86,3.85-3.37,10.9-8,3.36-3.38,3.53-4.69,3.2-5.46,1.51-1.6,3.63-5.32.79-1.63,5-8.2,7.2-9.84,4.5-5,2.72-2.26,8.43-7.15.68-1.14,1.4-7.58,8.27-36.33,2.23-6.78,1.91-4.35L607.19,58.9l9-21.59.3-.34L631.23.08,637-15.39l1.12-6.46.49-2.72v-.66L641-45.18l2.4-13.35,1.28-9.18,1.58-23.08,1.82-9.86.42-5.61,1.77-14,1.91-8.69,1-5.52.3-7.23-.14-29.54.44-3.67,1.78-8.8v-2.54l-1.71-1.89.26-5.12-.33-7.58-.46-3.55-2.42-12.55-3.66-11.29-1.14-4.52-1.77-13.7-.61-2.77-1-4.29-.46-2.26-5.15-14.35-2.56-8.7L633-289.26,631-307.17l-.33-10.78-.65-8.37-1.12-6.79-1.44-5.63-2.37-7.43-1.94-4.69-3.38-7.27-2.86-8-2-10.3-.3-4-.46-3.78-1.1-21.88-1.3-11-.52-6.61-.16-18.67-.3-6.47v-2.89L610-454.3,607.47-462,601.88-479l-1.79-6.75-1.77-8.55-.16-.8-6.22-12.7-5-8.55-6.1-9.35L576-532l-5.42-6.3-6.92-7.09-3.19-4.83-.49-.46-2.89-6.29-2.56-8.41-1.28-6.29-2.7-12.87-3.24-16.76-7.22-39.24-3-13.64-1.4-8.87-.48-8.35.3-4.83,1.12-8.56,1.44-6.12,1-3.52,4.49-15,4.19-13.9L553-737.93l3.65-8.69,4-8.38L572-775.82l1.28-2.23,15.42-26.12L598-821l4.47-8.7.81-1.6,2-4.5-5.14.19-2.48.49-3.71,1.1L582.73-829c-1.92.87-3.88,1.64-5.83,2.44l-6.13,2.5L565-822.43l-6.66.76c-2.06.23-4.06.27-6.1.41l-12.18.73-24.27,1.42c-11.43.68-22.85,1.46-34.29,2.24l-3-11.25-.19-1.23v-.35l0-.38,0-.76-.09-1.51-.16-3-.3-5.52-1.08-4.45-3-8.28-2.74-9.77-.59-3.93.46-18.77-1.44-12.24.17-11.29L470.77-921v-1.24l.3-3.23v-3.69l-.25-3.06-.33-1.59-1.84-5.79c-.31-1-.67-2-.92-3.07l-.91-3.41-4.66-28.48-4.51-28.22-2.24-14.2-1.12-7.1c-.17-1.19-.4-2.37-.53-3.56l-.36-3.57-.72-7.14c-.11-1.21-.28-2.32-.43-3.46l-.47-3.49-.95-7c-.17-1.16-.29-2.35-.52-3.47l-.66-3.66,0-.28-.26-2.83c-.1-.9-.15-1.79-.29-2.68l-.65-5-1.24-4.6-7-17.29-4.06-12.47-1.17-2.26-.67-1.28-.35-.62-1.53-1.53L431-1111l-5.59-4-9.92-8.92c-1.62-1.47-3.2-2.86-4.85-4.4l-5.19-5.2-2.75-4.76-2.22-7-1.69-7.52c-.27-1.2-.55-2.41-.78-3.73s-.47-2.58-.64-3.9l-1-7.4-.92-7.63-.21-9.08-.11-4.39c-.05-1.47-.16-2.94-.24-4.4l-1.06-17.91.61-15.1.29-7.4.07-7.11-1.31-18.26-.66-9.24c-.23-3.08-.39-6.16-.76-9.23l-3.74-35.26-.48-.64-17-18.78-12.21-10.85c-4.16-3.68-8.43-7.24-12.64-10.87l-25.37-21.63-3.1-2.61-3.31-2.59c-2.23-1.69-4.35-3.52-6.47-5.34l-12.76-10.9-12.78-10.85-6.38-5.43-6.5-5.81-7.85-8.56-4.24-5.36-9.33-15.11-4.7-10.11-5-16-3.35-7.84-11.19,4.77-13.87,6.2-19.11,8.55-12.7,5.49-30.8,12.72-4.46-9.86-15.78-34.89"/><path class="cls-8" d="M116.19-1484.37,123.6-1468l-12.1,11.8-3.08,3-3,2-5.71,2.27-3.9.81-3.68.75-9.36,1.18-8.07,2-5.11,2.2-5.12,2.81-8,5.47-6.64,5.88-.21.19-2.72,2.44-3.74,3.88-1.67,2.42-2.61,4.65-4.45,9.41L32.72-1402l-.41.7-8.87,9.09-6.72,6.08L12.47-1382,8.2-1378.9l-4.79,2.43-2.64.94-1.66.59h-.52l-8.9,0-9.76.47-3.64.62-2.64,1.08-2.15,1.75-2.68,2.12-6.78,8.78-2.17,2.64-3.68,2.74-4.68,2.43-3.87,1.46-3.2,1,2,9.19,1.94,10.3-.31,9.91c-.07,1.54,0,3.08,0,4.62l0,5.15-2.34,13.51-4.55,14.44-5.76,12.18-4.66,7.55c-1.51,2.4-3.11,4.73-4.66,7.1l-5.14,7.77-9.13,3.15-10.63,16.08-.39.59-11.71,18.55-5.33,9.76-4.18,9.37-4.81,23.06-7.6,40.34-5.39,15.24-4.75,10-16.14,20-18.19,19.83L-203-1036.56l-13.74,15-5.7,7.54-58.09,79.79-5.93,7.57-32.11,34.52-4.48,7.17-1.8,3.73-2.32,4.82-7.31,15.13-2.31,2.39-2.46,1.86-8.89,2.85-4.2,1.55-2.33,2.32-1.16,3.14-.83,5.2-3.37,34.72-2.41,56.54-1.9,7.77-2.86,10.47-2.69,11.57-.63,11.58.47,12.21,2.38,15.53-2.7,26.33-.95,26.8.74,8.12.69,11.86,3.8,19.35,3.81,7.92,14.91,18.4,8.88,21.56,3.15,11.68,8.17,4.47,3,2.83.49.46,10.16,7.35,3.84,2.57,6.85,5.32,19.47,15.61,3.08,13.78-.79,10-.69,13.64,1.28,23,1.79,26.77,1.9,32.19v13.31l-2.36,12.11-4.31,13.83-10.3,29.88-.81,3.28,3.13,19.33,2.13,16.49,1.14,20.18-.57,24-12.47,29-3.22,7-8.18,16.31-4.94,11.6-5.12,10.57-7.46,21.31L-333-108.52l-5.26,30.28-3.27,10.94-7.1,11.94-5.12,6L-369.7-35.46-385.34-21l-5.26,8.17-11.91,25.33-7.38,12.91-6.24,7-10.37,13-11.21,19.72L-446.65,86l-4.54,12.91-4.54,16.89-4.65,16.95-.9,8.31-.91,4.56-.7,6.37-.08,7.75,1.5,7.65,1.91,5.58,8.82,15.56,1.34,2.5.49,4.16-.33,1.83-2.66,5.74.08,1.5,5.91,34.79.83,4.08-1.9,9.51-3.21,7.45-1.49,1.72"/><path class="cls-10" d="M116.19-1484.37,123.6-1468l-12.1,11.8-3.08,3-3,2-5.71,2.27-3.9.81-3.68.75-9.36,1.18-8.07,2-5.11,2.2-5.12,2.81-8,5.47-6.64,5.88-.21.19-2.72,2.44-3.74,3.88-1.67,2.42-2.61,4.65-4.45,9.41L32.72-1402l-.41.7-8.87,9.09-6.72,6.08L12.47-1382,8.2-1378.9l-4.79,2.43-2.64.94-1.66.59h-.52l-8.9,0-9.76.47-3.64.62-2.64,1.08-2.15,1.75-2.68,2.12-6.78,8.78-2.17,2.64-3.68,2.74-4.68,2.43-3.87,1.46-3.2,1,2,9.19,1.94,10.3-.31,9.91c-.07,1.54,0,3.08,0,4.62l0,5.15-2.34,13.51-4.55,14.44-5.76,12.18-4.66,7.55c-1.51,2.4-3.11,4.73-4.66,7.1l-5.14,7.77-9.13,3.15-10.63,16.08-.39.59-11.71,18.55-5.33,9.76-4.18,9.37-4.81,23.06-7.6,40.34-5.39,15.24-4.75,10-16.14,20-18.19,19.83L-203-1036.56l-13.74,15-5.7,7.54-58.09,79.79-5.93,7.57-32.11,34.52-4.48,7.17-1.8,3.73-2.32,4.82-7.31,15.13-2.31,2.39-2.46,1.86-8.89,2.85-4.2,1.55-2.33,2.32-1.16,3.14-.83,5.2-3.37,34.72-2.41,56.54-1.9,7.77-2.86,10.47-2.69,11.57-.63,11.58.47,12.21,2.38,15.53-2.7,26.33-.95,26.8.74,8.12.69,11.86,3.8,19.35,3.81,7.92,14.91,18.4,8.88,21.56,3.15,11.68,8.17,4.47,3,2.83.49.46,10.16,7.35,3.84,2.57,6.85,5.32,19.47,15.61,3.08,13.78-.79,10-.69,13.64,1.28,23,1.79,26.77,1.9,32.19v13.31l-2.36,12.11-4.31,13.83-10.3,29.88-.81,3.28,3.13,19.33,2.13,16.49,1.14,20.18-.57,24-12.47,29-3.22,7-8.18,16.31-4.94,11.6-5.12,10.57-7.46,21.31L-333-108.52l-5.26,30.28-3.27,10.94-7.1,11.94-5.12,6L-369.7-35.46-385.34-21l-5.26,8.17-11.91,25.33-7.38,12.91-6.24,7-10.37,13-11.21,19.72L-446.65,86l-4.54,12.91-4.54,16.89-4.65,16.95-.9,8.31-.91,4.56-.7,6.37-.08,7.75,1.5,7.65,1.91,5.58,8.82,15.56,1.34,2.5.49,4.16-.33,1.83-2.66,5.74.08,1.5,5.91,34.79.83,4.08-1.9,9.51-3.21,7.45-1.49,1.72"/><g class="cls-11"><line class="cls-12" x1="483.39" y1="298.62" x2="486.58" y2="294.77"/><polyline class="cls-13" points="491.7 286.25 494.13 278.64 495.99 266.69 497.36 256.74 497.5 253.34 498.46 247.88 500.41 243.53 503.62 238.67 507.47 235.3 518.37 227.27 521.73 223.89 525.26 219.21 528.46 213.74 529.97 212.14 533.6 206.82 534.39 205.19 539.38 196.99 546.57 187.15 551.07 182.15 553.79 179.89 562.22 172.74 562.9 171.6 564.3 164.02 572.57 127.69 574.8 120.91 576.71 116.56 607.19 58.9 616.16 37.31 616.46 36.97 631.23 0.08 637 -15.39 638.12 -21.85 638.61 -24.57 638.61 -25.23 641.01 -45.18 643.41 -58.53 644.69 -67.71 646.27 -90.79 648.09 -100.65 648.5 -106.26 650.28 -120.27 652.18 -128.96 653.19 -134.48 653.49 -141.71 653.35 -171.25 653.79 -174.92 655.57 -183.72 655.57 -186.26 653.86 -188.15 654.12 -193.27 653.79 -200.85 653.33 -204.4 650.91 -216.95 647.25 -228.24 646.11 -232.76 644.34 -246.46 643.73 -249.24 642.73 -253.52 642.27 -255.78 637.12 -270.13 634.56 -278.83 632.95 -289.26 631.04 -307.17 630.71 -317.95 630.06 -326.32 628.95 -333.11 627.5 -338.74 625.13 -346.17 623.2 -350.86 619.81 -358.13 616.95 -366.16 614.99 -376.45 614.69 -380.43 614.23 -384.21 613.13 -406.09 611.83 -417.09 611.31 -423.7 611.15 -442.38 610.85 -448.84 610.85 -451.73 610.03 -454.3 607.47 -462.05 601.88 -478.98 600.09 -485.73 598.32 -494.28 598.16 -495.08 591.94 -507.78 586.98 -516.34 580.88 -525.68 576.03 -531.97 570.61 -538.27 563.69 -545.36 560.5 -550.19 560.01 -550.65 557.12 -556.94 554.56 -565.35 553.28 -571.64 550.58 -584.51 547.34 -601.27 540.12 -640.51 537.09 -654.15 535.69 -663.02 535.21 -671.37 535.51 -676.2 536.63 -684.76 538.07 -690.88 539.12 -694.4 543.61 -709.35 547.8 -723.25 552.98 -737.93 556.63 -746.62 560.66 -755 572.03 -775.82 573.31 -778.05 588.73 -804.17 598.02 -820.96 600.99 -826.74"/><line class="cls-12" x1="483.39" y1="298.62" x2="486.58" y2="294.77"/><polyline class="cls-13" points="491.7 286.25 494.13 278.64 495.99 266.69 497.36 256.74 497.5 253.34 498.46 247.88 500.41 243.53 503.62 238.67 507.47 235.3 518.37 227.27 521.73 223.89 525.26 219.21 528.46 213.74 529.97 212.14 533.6 206.82 534.39 205.19 539.38 196.99 546.57 187.15 551.07 182.15 553.79 179.89 562.22 172.74 562.9 171.6 564.3 164.02 572.57 127.69 574.8 120.91 576.71 116.56 607.19 58.9 616.16 37.31 616.46 36.97 631.23 0.08 637 -15.39 638.12 -21.85 638.61 -24.57 638.61 -25.23 641.01 -45.18 643.41 -58.53 644.69 -67.71 646.27 -90.79 648.09 -100.65 648.5 -106.26 650.28 -120.27 652.18 -128.96 653.19 -134.48 653.49 -141.71 653.35 -171.25 653.79 -174.92 655.57 -183.72 655.57 -186.26 653.86 -188.15 654.12 -193.27 653.79 -200.85 653.33 -204.4 650.91 -216.95 647.25 -228.24 646.11 -232.76 644.34 -246.46 643.73 -249.24 642.73 -253.52 642.27 -255.78 637.12 -270.13 634.56 -278.83 632.95 -289.26 631.04 -307.17 630.71 -317.95 630.06 -326.32 628.95 -333.11 627.5 -338.74 625.13 -346.17 623.2 -350.86 619.81 -358.13 616.95 -366.16 614.99 -376.45 614.69 -380.43 614.23 -384.21 613.13 -406.09 611.83 -417.09 611.31 -423.7 611.15 -442.38 610.85 -448.84 610.85 -451.73 610.03 -454.3 607.47 -462.05 601.88 -478.98 600.09 -485.73 598.32 -494.28 598.16 -495.08 591.94 -507.78 586.98 -516.34 580.88 -525.68 576.03 -531.97 570.61 -538.27 563.69 -545.36 560.5 -550.19 560.01 -550.65 557.12 -556.94 554.56 -565.35 553.28 -571.64 550.58 -584.51 547.34 -601.27 540.12 -640.51 537.09 -654.15 535.69 -663.02 535.21 -671.37 535.51 -676.2 536.63 -684.76 538.07 -690.88 539.12 -694.4 543.61 -709.35 547.8 -723.25 552.98 -737.93 556.63 -746.62 560.66 -755 572.03 -775.82 573.31 -778.05 588.73 -804.17 598.02 -820.96 600.99 -826.74"/><line class="cls-12" x1="483.39" y1="298.62" x2="486.58" y2="294.77"/><polyline class="cls-13" points="491.7 286.25 494.13 278.64 495.99 266.69 497.36 256.74 497.5 253.34 498.46 247.88 500.41 243.53 503.62 238.67 507.47 235.3 518.37 227.27 521.73 223.89 525.26 219.21 528.46 213.74 529.97 212.14 533.6 206.82 534.39 205.19 539.38 196.99 546.57 187.15 551.07 182.15 553.79 179.89 562.22 172.74 562.9 171.6 564.3 164.02 572.57 127.69 574.8 120.91 576.71 116.56 607.19 58.9 616.16 37.31 616.46 36.97 631.23 0.08 637 -15.39 638.12 -21.85 638.61 -24.57 638.61 -25.23 641.01 -45.18 643.41 -58.53 644.69 -67.71 646.27 -90.79 648.09 -100.65 648.5 -106.26 650.28 -120.27 652.18 -128.96 653.19 -134.48 653.49 -141.71 653.35 -171.25 653.79 -174.92 655.57 -183.72 655.57 -186.26 653.86 -188.15 654.12 -193.27 653.79 -200.85 653.33 -204.4 650.91 -216.95 647.25 -228.24 646.11 -232.76 644.34 -246.46 643.73 -249.24 642.73 -253.52 642.27 -255.78 637.12 -270.13 634.56 -278.83 632.95 -289.26 631.04 -307.17 630.71 -317.95 630.06 -326.32 628.95 -333.11 627.5 -338.74 625.13 -346.17 623.2 -350.86 619.81 -358.13 616.95 -366.16 614.99 -376.45 614.69 -380.43 614.23 -384.21 613.13 -406.09 611.83 -417.09 611.31 -423.7 611.15 -442.38 610.85 -448.84 610.85 -451.73 610.03 -454.3 607.47 -462.05 601.88 -478.98 600.09 -485.73 598.32 -494.28 598.16 -495.08 591.94 -507.78 586.98 -516.34 580.88 -525.68 576.03 -531.97 570.61 -538.27 563.69 -545.36 560.5 -550.19 560.01 -550.65 557.12 -556.94 554.56 -565.35 553.28 -571.64 550.58 -584.51 547.34 -601.27 540.12 -640.51 537.09 -654.15 535.69 -663.02 535.21 -671.37 535.51 -676.2 536.63 -684.76 538.07 -690.88 539.12 -694.4 543.61 -709.35 547.8 -723.25 552.98 -737.93 556.63 -746.62 560.66 -755 572.03 -775.82 573.31 -778.05 588.73 -804.17 598.02 -820.96 600.99 -826.74"/></g><rect class="cls-14" x="-935" y="-5116" width="11720" height="11720"/></svg>