<svg id="_15zoom" data-name="15zoom" xmlns="http://www.w3.org/2000/svg" viewBox="0 0 1024 1024"><defs><style>.cls-1,.cls-4{fill:#231815;}.cls-11,.cls-12,.cls-13,.cls-2{fill:none;}.cls-2,.cls-3,.cls-9{stroke:#231815;}.cls-11,.cls-12,.cls-2,.cls-3,.cls-9{stroke-miterlimit:10;}.cls-2,.cls-3{stroke-width:2.4px;}.cls-3,.cls-9{fill:#fff;}.cls-4{font-size:18px;font-family:NotoSansMonoCJKjp-Regular-90ms-RKSJ-H, Noto Sans Mono CJK JP;}.cls-5{letter-spacing:1.07em;}.cls-6{letter-spacing:0.57em;}.cls-7,.cls-8{font-size:12px;}.cls-7{letter-spacing:0.1em;}.cls-9{stroke-width:4px;}.cls-10{opacity:0.5;}.cls-11,.cls-12{stroke:#e60012;stroke-width:20px;}.cls-12{stroke-dasharray:9.96 9.96;}</style></defs><title>3235_7145</title><path id="_クリッピングパス_" data-name="&lt;クリッピングパス&gt;" class="cls-1" d="M624,927.16a15,15,0,0,0-15,15h0a15,15,0,0,0,15,15h21v-30Z"/><path id="_クリッピングパス_2" data-name="&lt;クリッピングパス&gt;" class="cls-2" d="M624,927.16a15,15,0,0,0-15,15h0a15,15,0,0,0,15,15h21v-30Z"/><path class="cls-3" d="M834,927.16H645v30H834a15,15,0,0,0,15-15h0A15,15,0,0,0,834,927.16Z"/><text class="cls-4" transform="translate(674.98 949)"><tspan class="cls-5">栃</tspan><tspan class="cls-6" x="37.2" y="0">原</tspan><tspan class="cls-7" x="65.4" y="-2.28">Tochiwar</tspan><tspan class="cls-8" x="123" y="-2.28">a</tspan></text><line class="cls-3" x1="746" y1="891" x2="740.96" y2="927.16"/><circle class="cls-9" cx="746" cy="891" r="10"/><g id="佐治4"><g class="cls-10"><line class="cls-11" x1="746.04" y1="887.38" x2="750.48" y2="885.08"/><polyline class="cls-12" points="759.26 880.37 764.02 878.07 769.12 876.1 771.12 875.13 775.75 873.99 779.71 873.73 781.41 873.85 784.63 874.33 790.22 875.96 804.77 882.55 807.99 883.52 812.93 883.98 815.18 883.52 821.1 881.9 829.09 878.53 833.77 877.02 838.06 876.67 840.29 876.9 844.79 877.7 850.21 879.5 854.94 880.64 860.41 881.47 864.76 881.41 867.33 880.93 870.05 879.7 872.29 878.18 876.23 875.05 879 872.34 879.58 871.39 880.86 869.54 884.28 862.29 887.17 856.32 889.57 853.1 894.04 849.25 898.37 846.36 909.57 841.05 918.05 837.68 924.76 835.75 927.02 835.26 927.97 835.09 938.03 835.09 943.32 835.57 950.52 836.71 957.88 837.83 967.14 838.17 970.66 837.51 980.09 835.26 989.41 832.2 997.4 830.44 998.96 830.18 1003.29 829.46 1012.88 828.49 1019.62 828.01 1023.6 828.01 1025.51 828.06 1048.05 827.61 1053.03 827.15 1059.56 826.04 1063.05 825.04 1069.57 822.58 1077.61 818.84 1083.64 815.56 1088.53 811.93 1090.35 809.85 1092.25 806.77 1104.9 782.16 1108.28 775.57 1110.98 770.92 1112.73 769.12 1114.24 768.44 1116.34 768.29 1120.88 770.06 1131.92 777.31 1135.06 778.99 1148.41 784.71 1155.93 784.01 1162.82 781.38 1169.63 777.82 1173.04 774.57 1176.29 766.04 1179.85 758.92 1184.5 755.28 1190.31 753.11 1199.6 752.1 1205.07 750.6 1210.23 747.85 1220.13 739.92 1223.97 737.4 1234.62 733.15 1242.46 729.76 1255.58 721.08 1257.54 719.97 1261.43 719.27 1264.66 719.39 1268.97 719.97 1285.13 722.53 1301.4 723.82 1313.35 721.92 1319.18 719.85 1320.58 719.28 1322.56 718.22 1324.77 716.94 1327.33 715.06 1330.64 712.57 1336.88 707.09 1340.05 703.61 1341.89 701.13 1347.78 691.56 1355.96 675.98 1358.17 672.52 1360.56 669.55 1367.72 665.16 1382.72 664.83 1393.38 663.5 1412.22 656 1425.55 647.5 1432.1 644.11 1435.61 642.29 1438.5 641.56 1450.6 641.27 1459.72 644.43 1468 650.17 1473.33 654.14 1476.59 656.79 1481.48 664.78 1483.58 667.44 1485.49 669.27 1488.35 670.89 1490.26 671.52 1492.83 671.87 1497.18 671.87 1508.72 670.74 1533.16 668.35 1550.93 667.32 1559.31 668.41 1573.7 671.64 1580.06 672 1587.72 671.04 1595.34 668.35 1604.75 664.04 1622.61 655.98 1629.61 654.52 1660.71 657.77 1666.72 657.94 1672.91 655.65 1678.29 652.07 1684.47 646.86 1685.62 640.19 1675.03 601.28 1676.49 596.88 1679.75 593.63 1685.94 592.33 1704.66 592.65 1724.44 589.48 1762.72 583.63 1787.58 568.84 1795.36 566.85 1802.99 568.84 1812.14 573.1 1818.04 574.94 1823.24 575.34 1830.29 574.48 1836.69 575.4 1839.32 578.48 1841.32 580.71 1849.05 595.99 1882.15 619.02 1888.1 624.51 1893.14 631.99 1897.56 642.97 1902.13 666.92 1904.88 681.25 1907.78 685.98 1914.03 692.08 1922.95 696.45 1929.13 697.73 1934.32 697.88 1941.18 695.29 1946.52 691.94 1952.77 682.32 1961.14 671.96 1973.62 660.03 1988.36 645.93 1992.35 643.13 1998.08 642.69 2002.5 643.34 2006.5 645.93 2009.96 649.5 2031.38 686.17 2046.41 710.27 2047.54 712.07 2056.47 719.83 2065.22 724.11 2070.91 725.39 2115.02 720.92 2119.85 719.37 2123.5 715.81 2126.05 710.52 2128.16 700.22 2131.35 692.74 2135.18 689.18 2140.28 684.89 2145.12 682.52 2150.5 681.89 2173.3 684.25 2187.16 686.26 2192.09 688.54 2200 695.73 2206.04 700.94 2208.41 710.16 2206.88 751.23 2209.04 755.1 2211.64 759.78 2216.44 764.92 2220.28 768.46 2222.12 769.55 2224.8 770.61 2234.84 773.6 2239.59 775.51 2242.03 777.25 2243.08 778.31 2245.25 782.14 2252.61 805 2253.89 807.83 2255.47 810.31 2257.61 812.13 2259.94 813.68 2262.36 814.34 2264.43 814.65 2269.59 814.73 2274.12 813.42 2277.27 812.39 2281.39 810.31 2285.56 807.4 2302.03 794.21 2307.31 790.52 2318.02 781.19 2323.29 776.37 2336.4 765.24 2347.78 759.12 2353.51 758.39 2358.7 757.75"/></g></g><rect class="cls-13" x="-935" y="-8188" width="11720" height="11720"/></svg>