<svg id="_13zoom" data-name="13zoom" xmlns="http://www.w3.org/2000/svg" viewBox="0 0 1024 1024"><defs><style>.cls-1,.cls-4{fill:#231815;}.cls-14,.cls-2{fill:none;}.cls-2,.cls-3{stroke:#231815;stroke-miterlimit:10;stroke-width:4px;}.cls-3{fill:#fff;}.cls-4{font-size:25px;font-family:NotoSansMonoCJKjp-Regular-90ms-RKSJ-H, Noto Sans Mono CJK JP;}.cls-5{letter-spacing:-0.03em;}.cls-6{letter-spacing:-0.06em;}.cls-7{letter-spacing:-0.02em;}.cls-8{letter-spacing:-0.02em;}.cls-9{letter-spacing:-0.03em;}.cls-10{letter-spacing:-0.02em;}.cls-11{letter-spacing:-0.05em;}.cls-12{letter-spacing:0.26em;}.cls-13{font-size:15px;}</style></defs><title>3235_7147</title><path id="_クリッピングパス_" data-name="&lt;クリッピングパス&gt;" class="cls-1" d="M688.84,731.37a25,25,0,0,0-25,25h0a25,25,0,0,0,25,25h35v-50Z"/><path id="_クリッピングパス_2" data-name="&lt;クリッピングパス&gt;" class="cls-2" d="M688.84,731.37a25,25,0,0,0-25,25h0a25,25,0,0,0,25,25h35v-50Z"/><path class="cls-3" d="M1038.84,731.37h-315v50h315a25,25,0,0,0,25-25h0A25,25,0,0,0,1038.84,731.37Z"/><text class="cls-4" transform="translate(723.38 763.37)"><tspan class="cls-5">佐</tspan><tspan class="cls-6" x="24.13" y="0">治</tspan><tspan class="cls-7" x="47.62" y="0">町</tspan><tspan class="cls-8" x="72.07" y="0">総</tspan><tspan class="cls-9" x="96.47" y="0">合</tspan><tspan class="cls-10" x="120.78" y="0">支</tspan><tspan class="cls-11" x="145.19" y="0">所</tspan><tspan class="cls-12" x="169.06" y="0">前</tspan><tspan class="cls-13" x="200.46" y="-3.8">(Saji Town Office)</tspan></text><line class="cls-3" x1="844.69" y1="677.94" x2="883.84" y2="731.37"/><circle class="cls-3" cx="844.69" cy="677.94" r="10"/><line class="cls-3" x1="21.23" y1="728.94" x2="-248.51" y2="865.72"/><circle class="cls-3" cx="21.23" cy="728.94" r="10"/><rect class="cls-14" x="-2983" y="-8188" width="11720" height="11720"/></svg>