<svg id="_15zoom" data-name="15zoom" xmlns="http://www.w3.org/2000/svg" xmlns:xlink="http://www.w3.org/1999/xlink" viewBox="0 0 1024 1024"><defs><style>.cls-1,.cls-12,.cls-2,.cls-7{fill:#fff;}.cls-1,.cls-12,.cls-6,.cls-7{stroke:#231815;}.cls-1,.cls-12,.cls-14,.cls-6,.cls-7{stroke-miterlimit:10;}.cls-1,.cls-6{stroke-width:2.11px;}.cls-3{clip-path:url(#clip-path);}.cls-4{font-size:15px;}.cls-4,.cls-8{fill:#231815;font-family:NotoSansMonoCJKjp-Regular-90ms-RKSJ-H, Noto Sans Mono CJK JP;}.cls-5{letter-spacing:0.25em;}.cls-14,.cls-15,.cls-6{fill:none;}.cls-7{stroke-width:2.4px;}.cls-8{font-size:18px;}.cls-9{font-size:12px;}.cls-10{letter-spacing:0.22em;}.cls-11{letter-spacing:0.5em;}.cls-12{stroke-width:4px;}.cls-13{opacity:0.5;}.cls-14{stroke:#e60012;stroke-width:20px;stroke-dasharray:10 10;}</style><clipPath id="clip-path"><rect id="_長方形_" data-name="&lt;長方形&gt;" class="cls-1" x="965" y="19" width="200" height="50"/></clipPath></defs><title>3231_7148</title><rect id="_長方形_2" data-name="&lt;長方形&gt;" class="cls-2" x="965" y="19" width="200" height="50"/><g class="cls-3"><text class="cls-4" transform="translate(990 37.74)">吉岡線<tspan class="cls-5" x="45" y="0">は1</tspan><tspan x="75" y="0">便鳥取駅で</tspan><tspan x="15" y="20">市立病院線に直通</tspan></text></g><rect id="_長方形_3" data-name="&lt;長方形&gt;" class="cls-6" x="965" y="19" width="200" height="50"/><rect id="_長方形_4" data-name="&lt;長方形&gt;" class="cls-7" x="-190" y="416.84" width="240" height="60"/><text class="cls-8" transform="translate(-97.05 440.31)">吉岡線<tspan class="cls-9"><tspan x="-45" y="16.32">(local bus)Yoshioka line</tspan></tspan></text><path class="cls-7" d="M160.21,327.86h-189v30h189a15,15,0,0,0,15-15h0A15,15,0,0,0,160.21,327.86Z"/><text class="cls-8" transform="translate(-16.84 349.7)"><tspan class="cls-10">吉岡温</tspan><tspan class="cls-11" x="66" y="0">泉</tspan><tspan class="cls-9" x="93" y="-2.28">Yoshioka Onsen</tspan></text><line class="cls-7" x1="138" y1="424" x2="67.21" y2="357.86"/><circle class="cls-12" cx="138" cy="424" r="10"/><g id="東郷"><g class="cls-13"><polyline class="cls-14" points="1914.85 170.71 1899.11 190.05 1894.21 194.79 1884.85 200.53 1883.47 201.22 1882.38 201.79 1878.34 204.2 1876.31 204.99 1865.76 212.29 1841.4 237.32 1827.49 252.36 1805.3 276.38 1787.8 295.08 1755.67 330.18 1754.51 331.35 1749.32 337.02 1725.52 362.73 1718.17 370.67 1708.75 380.84 1702.18 387.95 1696.56 393.11 1692.23 396.65 1688.06 399.34 1685.81 400.8 1671.37 406.45 1662.52 409.95 1655.72 415.03 1651.55 418.5 1638.24 429.11 1635.09 431.87 1632.85 433.88 1607.44 454.61 1606.33 455.76 1603.29 458.92 1599.75 463.26 1598.63 465.35 1596.87 468.89 1595.91 471.95 1593.68 483.08 1591.74 498.21 1590.09 510.84 1588.37 531.7 1586.62 544.6 1585.8 551.37 1583.89 559.27 1582.45 563.3 1580.52 567.96 1577.47 572.65 1552.15 605.51 1545.72 614.54 1538.97 624.22 1536.66 627.89 1522.16 652.24 1506.6 678.03 1500.85 687.7 1486.06 714.47 1482.54 720.73 1478.02 729.16 1473.9 734.46 1465.89 744.26 1461.56 748.64 1457.08 752.33 1439.1 765.71 1428.69 772.63 1417.47 780.07 1385.14 804.2 1382.51 806.66 1377.88 812.78 1372.27 821.64 1366.33 833.85 1361.99 841.43 1360.25 843.37 1356.36 847.49 1351.75 851.9 1350.93 852.58 1344.34 858.18 1338.76 862.53 1312.6 882.35 1293.53 897.19 1290.45 900.05 1284.72 905.39 1268.21 923.92 1253.77 942.45 1253.47 942.79 1251.91 944.97 1250.93 946.46 1246.6 955.32 1244.34 959.04 1241.59 963.24 1237.12 968.56 1232.95 972.28 1229.11 975.82 1226.22 980.31 1214.67 1003.04 1210.17 1010.45 1206.49 1014.3 1199.74 1019.45 1198.48 1020.42 1196.39 1022.85 1193.99 1026.23 1187.75 1037.18 1184.54 1040.58 1171.21 1049.76 1164.48 1055.11 1161.27 1058.31 1159.17 1061.4 1157.73 1065.06 1157.26 1067.18 1154.86 1083.65 1153.89 1086.22 1152.3 1087.82 1138.67 1098.28 1129.52 1105.23 1124.24 1110.03 1116.37 1118.27 1113.8 1122.13 1110.27 1128.24 1107.54 1134.85 1098.16 1157.95 1096.85 1161.27 1090.31 1177.71 1082.25 1196.55 1076.15 1209.27 1061.45 1237.43 1060.91 1238.43 1058.52 1241.49 1039.77 1261.48 1036.55 1265.48 1034.46 1268.71 1032.87 1271.32 1029.82 1277.74 1025.82 1288.21 1007.86 1335.27 1007.12 1336.7 1006.07 1337.58 997.94 1344.55 994.89 1347.13 989.26 1353.3 983.16 1361.02 978.52 1367.8 976.43 1371.49 960.38 1400.05 956.69 1406.79 950.59 1418.88 946.12 1426.95 939.86 1439.01 935.53 1446.88 930.89 1454.3 918.08 1467.66 913.42 1473.46 907.81 1482.18 888.25 1516 886.18 1518.91 872.23 1530.66 868.53 1535.49 867.27 1538.55 865.98 1542.9 860.05 1577.86 859 1584.49"/></g></g><rect class="cls-15" x="-4007" y="-4092" width="11720" height="11720"/></svg>