<svg id="_15zoom" data-name="15zoom" xmlns="http://www.w3.org/2000/svg" viewBox="0 0 1024 1024"><defs><style>.cls-1{opacity:0.5;}.cls-2,.cls-3{fill:none;}.cls-2{stroke:#e60012;stroke-miterlimit:10;stroke-width:20px;stroke-dasharray:10.04 10.04;}</style></defs><title>3235_7148</title><g id="佐治4"><g class="cls-1"><polyline class="cls-2" points="-162.46 674.2 -160.46 674.32 -151.17 674.97 -145.88 674.95 -140.52 674.37 -120.17 669.92 -116.44 668.75 -112.83 667.12 -105.29 663.61 -100.09 661.38 -96.22 659.91 -92.15 658.07 -82.86 653.57 -72.77 649.05 -67.95 646.68 -64.79 644.88 -61.41 642.94 -43.17 633.29 -32.16 628.33 -12.17 620.76 -4.49 618.34 2.71 615.71 21.88 608.91 29.52 604.48 40.18 602.16 52.29 599.83 65.29 596.5 80.47 592.67 89.62 590.15 100.32 587.9 109.32 585.53 115.49 583.22 123.04 580.54 124.97 580.06 135.76 577.11 148.8 575.4 153.55 575.4 158.09 575.4 158.95 575.63 160.95 576.2 166.87 577.97 169.59 578.6 173.28 579.4 182.24 581.34 184.47 581.45 189.44 582.36 200.8 583.05 204.9 583.42 216.44 593.94 221.07 595.54 226.02 594.74 246.13 585.64 275.84 570.47 280.14 570.15 290.85 571.43 298.83 571.27 313.84 566.48 363.18 546.84 387.29 532.63 391.35 531.95 403.56 537.5 432.37 546.61 435.17 547.5 439.89 546.84 444.21 545.58 455.37 543.31 466.18 540.35 476.2 536.25 482.69 533.18 490.78 527.03 506.87 514.08 514.23 508.36 521.51 504.71 536.89 497.88 542.24 497.43 549.29 498.22 581.25 517.13 588.3 518.87 597.63 519.13 615.08 513.67 645.3 498.75 659.14 490.1 674.73 475.31 693.37 466.66 713.88 454.94 722.74 449.34 728.79 443.23 736.87 437.91 739.31 436.3 749.96 428.71 756.89 424.18 771.53 420.99 777.19 419.02 805.14 404.76 812.23 400.61 823.11 391.64 859.16 353.46 865.38 347.95 883.23 335.2 920.54 314.26 973.81 287 985.11 284.01 1009.25 284.83 1037.78 285.79 1044.44 286.82 1103.03 306.8 1123.6 306.21 1130.25 307.24 1148.13 317.2 1168.37 326.2 1182.04 328.4 1202.9 326.48 1247.27 320.55 1261.04 319.52 1276.73 320.41 1293.15 323.08 1310.45 328.03 1315 332.22 1337.29 350.92 1359.55 381.82 1361.27 384.41 1366.73 390.23 1379.13 401.2 1388.97 409.32 1408.64 420.87 1412.6 423.39 1427.88 431.27 1444.28 440.1 1455.67 441.96 1470.49 442.11 1480.84 441.47 1494.57 437.4 1497.21 436.69 1505.73 435 1514.44 432.54 1528.05 428.6 1531.22 427.58 1549.91 422.11 1566.43 417.04 1575.18 414.31 1585.68 411.25 1590.8 409.69 1591.67 409.46 1606.3 405.85 1612.27 404.37 1627.84 400.67 1646.91 395.99 1658.59 393.22 1669.57 390.45 1701.08 383.52 1707.66 381.16 1713.2 377.89 1718.49 374.22 1726.58 367.59 1730.73 363.39 1744.88 348.75 1747.42 346.67 1751.81 344.31 1756.88 342.13 1758.5 341.44 1783.75 333.62 1794.05 330.3"/></g></g><rect class="cls-3" x="-4007" y="-8188" width="11720" height="11720"/></svg>