<svg id="_15zoom" data-name="15zoom" xmlns="http://www.w3.org/2000/svg" viewBox="0 0 1024 1024"><defs><style>.cls-1,.cls-4{fill:#231815;}.cls-11,.cls-12,.cls-13,.cls-14,.cls-2{fill:none;}.cls-2,.cls-3,.cls-9{stroke:#231815;}.cls-11,.cls-12,.cls-13,.cls-2,.cls-3,.cls-9{stroke-miterlimit:10;}.cls-2,.cls-3{stroke-width:2.4px;}.cls-3,.cls-9{fill:#fff;}.cls-4{font-size:18px;font-family:NotoSansMonoCJKjp-Regular-90ms-RKSJ-H, Noto Sans Mono CJK JP;}.cls-5{letter-spacing:1.33em;}.cls-6{letter-spacing:0.83em;}.cls-7,.cls-8{font-size:12px;}.cls-7{letter-spacing:0.5em;}.cls-9{stroke-width:4px;}.cls-10{opacity:0.5;}.cls-11,.cls-12,.cls-13{stroke:#e60012;stroke-width:20px;}.cls-12{stroke-dasharray:9.83 9.83;}.cls-13{stroke-dasharray:10.05 10.05;}</style></defs><title>3236_7148</title><path id="_クリッピングパス_" data-name="&lt;クリッピングパス&gt;" class="cls-1" d="M38.73,309.24a15,15,0,0,0-15,15h0a15,15,0,0,0,15,15h21v-30Z"/><path id="_クリッピングパス_2" data-name="&lt;クリッピングパス&gt;" class="cls-2" d="M38.73,309.24a15,15,0,0,0-15,15h0a15,15,0,0,0,15,15h21v-30Z"/><path class="cls-3" d="M248.73,309.24h-189v30h189a15,15,0,0,0,15-15h0A15,15,0,0,0,248.73,309.24Z"/><text class="cls-4" transform="translate(89.73 331.08)"><tspan class="cls-5">江</tspan><tspan class="cls-6" x="42" y="0">波</tspan><tspan class="cls-7" x="75" y="-2.28">Enam</tspan><tspan class="cls-8" x="123" y="-2.28">i</tspan></text><line class="cls-3" x1="296.17" y1="259.91" x2="155.73" y2="309.24"/><circle class="cls-9" cx="296.17" cy="259.91" r="10"/><g id="江波デマンド"><g class="cls-10"><polyline class="cls-11" points="297.76 255.21 301.07 254.27 302.12 253.12"/><polyline class="cls-11" points="303.21 251.92 305.58 249.34 306.84 248.53 311.7 249.72"/><polyline class="cls-12" points="321.3 251.68 334.25 251.68 340.33 251.19 343.55 250.39 352.05 247.33 365.13 240.71 376.99 234.12 390.26 221.1 395.53 216.94 401.93 213.37 409.92 211.78 417.02 211.4 423.38 210.8 427.85 209.38 436.17 204.07 441.17 199.67 444.17 192.17 448.32 184.92 458.88 174.93 461.6 172.85 464.81 171.42 476.15 167.71 490.05 165.29 493.44 164.17 495.99 162.57 496.95 161.6 499.02 159.03 501.43 153.73 503.66 147.62 504.48 145.99 508.15 134.92 510.25 130.09 512.62 127.01 515.32 124.61 520.77 121.39 527.99 118.51 530.7 118.51 534.56 120.76 540.41 126.1 544.81 130.09 548.49 132.8 552.8 135.23 554.4 136.35 556.48 138.43 557.43 140.85 559.53 148.9 560.81 155.81 561.93 160 563.04 161.54 565.05 162.4 568.21 162.4 574.87 161.11 578.09 160.32 584.3 159.17 591.66 157.26 601.75 153.07 615.35 145.37 631.68 137.31 648.63 127.67 651.36 125.25 653.92 120.42 655.36 118.82 658.39 117.05 663.51 114.48 666.71 113.51 672.62 113.51 680.47 114.8 686.22 114.97 694.04 113.2 703.48 112.71 710.83 111.26 718.36 108.83 723.97 107.54 734.38 106.58 741.25 106.58 744.12 107.54 748.77 109.63 750.63 111"/><polyline class="cls-11" points="754.6 113.91 756.46 115.28 757.55 115.6 759.02 116.08 759.49 115.6 760.63 115.11 762.38 113.48 762.8 112.92"/><polyline class="cls-13" points="768.82 104.87 773.9 98.07 777.42 94.05 781.1 91.8 783.99 90.82 791.67 89.37 799.5 88.25 815.33 88.25 819.83 87.28 825.75 84.37 826.87 83.26 828.47 82.29 834.85 75.86 844.93 62.03 847.17 60.26 851.5 59.31 869.27 58.97 872.95 58.34 875.51 57.98 877.09 57.52 878.4 56.26 878.82 54.15 879.19 50.55 879.7 48.41 880.8 46.22 883.81 44.5 889.41 42.42 895.33 41.13 899.82 40.96 910.82 42.56 919.95 44.65 925.4 47.38 930.38 50.61 936.28 56.57 944.94 65.76 952.11 71.84 956.4 75.11 959.15 76.76 962.94 77.23 966.44 77.23 972.87 75.92 977.43 70.36 993.89 68.33 999.01 69.13 1005.72 72.01 1011.64 75.9 1014.85 78.47 1016.13 79.26 1022.82 85.68 1023.33 86.17 1026.19 87.94 1033.57 91.48 1044.29 98.87 1052.93 105.44 1061.73 111.72 1072.21 117.54 1079.81 120.88 1084.93 123.13 1095.32 126.84 1096.13 127.16 1097.25 127.81 1107.33 131.81 1115 135.83 1119.16 138.75 1120.44 140.34 1121.4 143.25 1121.56 148.07 1120.93 152.39 1119.33 158.52 1117.55 161.89 1113.71 166.08 1107.96 170.91 1105.89 173.47 1105.4 174.41 1103.96 178.78 1102.67 184.09 1101.58 192.59 1102.05 193.4 1103.65 198.08 1111.17 211.43 1112.65 213.74"/></g></g><rect class="cls-14" x="-4007" y="-9212" width="11720" height="11720"/></svg>