<svg id="_15zoom" data-name="15zoom" xmlns="http://www.w3.org/2000/svg" xmlns:xlink="http://www.w3.org/1999/xlink" viewBox="0 0 1024 1024"><defs><style>.cls-1,.cls-12,.cls-13,.cls-3{fill:#231815;}.cls-1,.cls-11,.cls-2,.cls-23,.cls-26,.cls-30,.cls-6,.cls-7,.cls-9{stroke:#231815;}.cls-1,.cls-10,.cls-11,.cls-2,.cls-23,.cls-26,.cls-30,.cls-5,.cls-6,.cls-7,.cls-8,.cls-9{stroke-miterlimit:10;}.cls-1,.cls-2,.cls-26{stroke-width:2.4px;}.cls-2,.cls-23,.cls-25,.cls-30{fill:#fff;}.cls-3{font-size:18px;}.cls-13,.cls-25,.cls-3{font-family:NotoSansMonoCJKjp-Regular-90ms-RKSJ-H, Noto Sans Mono CJK JP;}.cls-29,.cls-4{font-size:12px;}.cls-10,.cls-11,.cls-26,.cls-31,.cls-5,.cls-6,.cls-7,.cls-8,.cls-9{fill:none;}.cls-5{stroke:#a97443;}.cls-10,.cls-5,.cls-6,.cls-7,.cls-8,.cls-9{stroke-linecap:round;}.cls-10,.cls-5,.cls-8{stroke-width:5.27px;}.cls-6,.cls-7,.cls-9{stroke-width:2.64px;}.cls-7{stroke-dasharray:0 17.14;}.cls-8{stroke:#dae24a;}.cls-9{stroke-dasharray:0 17.58;}.cls-10{stroke:#e7336e;}.cls-11{stroke-width:3px;}.cls-13{font-size:15px;}.cls-14{letter-spacing:-0.12em;}.cls-15{letter-spacing:-0.13em;}.cls-16{letter-spacing:-0.06em;}.cls-17{letter-spacing:-0.07em;}.cls-18{letter-spacing:-0.1em;}.cls-19{letter-spacing:-0.05em;}.cls-20{letter-spacing:-0.09em;}.cls-21{letter-spacing:-0.05em;}.cls-22{font-size:9px;}.cls-23{stroke-width:4px;}.cls-24{clip-path:url(#clip-path);}.cls-25{font-size:28.8px;}.cls-27{letter-spacing:1.24em;}.cls-28{letter-spacing:0.74em;}.cls-29{letter-spacing:0.36em;}.cls-30{stroke-width:4px;}</style><clipPath id="clip-path"><path id="_クリッピングパス_" data-name="&lt;クリッピングパス&gt;" class="cls-1" d="M38.92,105.63a15,15,0,0,0-15,15h0a15,15,0,0,0,15,15h21v-30Z"/></clipPath></defs><title>3232_7151</title><rect id="_長方形_" data-name="&lt;長方形&gt;" class="cls-2" x="258.98" y="139.73" width="240" height="60"/><text class="cls-3" transform="translate(324.98 163.2)">面影若葉台線<tspan class="cls-4"><tspan x="-63" y="16.32">(local bus)Omokage Wakabadai line(loop)</tspan></tspan></text><line class="cls-5" x1="318.98" y1="187.73" x2="438.98" y2="187.73"/><line class="cls-6" x1="318.98" y1="187.73" x2="318.98" y2="187.73"/><line class="cls-7" x1="336.12" y1="187.73" x2="430.41" y2="187.73"/><line class="cls-6" x1="438.98" y1="187.73" x2="438.98" y2="187.73"/><rect id="_長方形_2" data-name="&lt;長方形&gt;" class="cls-2" x="298.87" y="520.29" width="240" height="60"/><text class="cls-3" transform="translate(382.87 543.76)">若葉台線<tspan class="cls-4"><tspan x="-57" y="16.32">(local bus)Wakabadai line(loop)</tspan></tspan></text><line class="cls-8" x1="358.87" y1="568.29" x2="478.87" y2="568.29"/><line class="cls-9" x1="358.87" y1="568.29" x2="478.87" y2="568.29"/><rect id="_長方形_3" data-name="&lt;長方形&gt;" class="cls-2" x="151.47" y="777.01" width="240" height="60"/><text class="cls-3" transform="translate(244.47 800.48)">若桜線<tspan class="cls-4"><tspan x="-39" y="16.32">(local bus)Wakasa line</tspan></tspan></text><line class="cls-10" x1="211.47" y1="825.01" x2="331.47" y2="825.01"/><line class="cls-9" x1="211.47" y1="825.01" x2="331.47" y2="825.01"/><line class="cls-11" x1="271.47" y1="837.01" x2="191.86" y2="930.34"/><path class="cls-12" d="M180.1,944.11c3.13-8.53,5.89-20.07,5.79-28.77l7.51,13.19,14.2,5.33C199,935.14,188,939.68,180.1,944.11Z"/><line class="cls-11" x1="418.87" y1="520.29" x2="347.74" y2="458.08"/><path class="cls-12" d="M334.12,446.16c8.49,3.23,20,6.13,28.69,6.15l-13.28,7.34L344,473.78C342.86,465.17,338.45,454.15,334.12,446.16Z"/><line class="cls-11" x1="378.98" y1="199.73" x2="319.81" y2="261.17"/><path class="cls-12" d="M307.25,274.21c3.64-8.33,7.08-19.69,7.51-28.37l6.7,13.61,13.86,6.18C326.66,266.39,315.44,270.26,307.25,274.21Z"/><path class="cls-2" d="M26.08,658.4h-189v30h189a15,15,0,0,0,15-15h0A15,15,0,0,0,26.08,658.4Z"/><text class="cls-13" transform="translate(-157.38 677.6)"><tspan class="cls-14">ポ</tspan><tspan class="cls-15" x="13.23" y="0">リ</tspan><tspan class="cls-16" x="26.26" y="0">テ</tspan><tspan class="cls-17" x="40.31" y="0">ク</tspan><tspan class="cls-18" x="54.33" y="0">セ</tspan><tspan class="cls-19" x="67.85" y="0">ン</tspan><tspan class="cls-20" x="82.03" y="0">タ</tspan><tspan class="cls-21" x="95.73" y="0">ー</tspan><tspan class="cls-22" x="114.46" y="-2.28">Polytechnic Center</tspan></text><line class="cls-2" x1="94" y1="585" x2="-66.92" y2="658.4"/><circle class="cls-23" cx="94" cy="585" r="10"/><path id="_クリッピングパス_2" data-name="&lt;クリッピングパス&gt;" class="cls-12" d="M38.92,105.63a15,15,0,0,0-15,15h0a15,15,0,0,0,15,15h21v-30Z"/><g class="cls-24"><text class="cls-25" transform="translate(30.52 130.22)">45</text></g><path id="_クリッピングパス_3" data-name="&lt;クリッピングパス&gt;" class="cls-26" d="M38.92,105.63a15,15,0,0,0-15,15h0a15,15,0,0,0,15,15h21v-30Z"/><path class="cls-2" d="M248.92,105.63h-189v30h189a15,15,0,0,0,15-15h0A15,15,0,0,0,248.92,105.63Z"/><text class="cls-3" transform="translate(89.92 127.47)"><tspan class="cls-27">生</tspan><tspan class="cls-28" x="40.29" y="0">山</tspan><tspan class="cls-29" x="71.57" y="-2.28">Shoza</tspan><tspan class="cls-4" x="123" y="-2.28">n</tspan></text><line class="cls-2" x1="101" y1="64" x2="155.92" y2="105.63"/><circle class="cls-30" cx="101" cy="64" r="10"/><rect class="cls-31" x="-7079" y="-5116" width="11720" height="11720"/></svg>