<svg id="_15zoom" data-name="15zoom" xmlns="http://www.w3.org/2000/svg" xmlns:xlink="http://www.w3.org/1999/xlink" viewBox="0 0 1024 1024"><defs><style>.cls-1,.cls-10,.cls-15,.cls-3{fill:#231815;}.cls-1,.cls-13,.cls-14,.cls-18,.cls-2,.cls-7,.cls-8,.cls-9{stroke:#231815;}.cls-1,.cls-13,.cls-14,.cls-18,.cls-2,.cls-6,.cls-7,.cls-8,.cls-9{stroke-miterlimit:10;}.cls-1,.cls-13,.cls-14{stroke-width:2.4px;}.cls-12,.cls-14,.cls-18,.cls-2{fill:#fff;}.cls-2{stroke-width:2.4px;}.cls-3{font-size:18px;}.cls-12,.cls-15,.cls-3{font-family:NotoSansMonoCJKjp-Regular-90ms-RKSJ-H, Noto Sans Mono CJK JP;}.cls-4{letter-spacing:0.25em;}.cls-5{font-size:12px;}.cls-13,.cls-19,.cls-6,.cls-7,.cls-8,.cls-9{fill:none;}.cls-6{stroke:#718cc7;stroke-width:5.27px;}.cls-6,.cls-7,.cls-8{stroke-linecap:round;}.cls-7,.cls-8{stroke-width:2.64px;}.cls-8{stroke-dasharray:0 17.14;}.cls-9{stroke-width:3px;}.cls-11{clip-path:url(#clip-path);}.cls-12{font-size:28.8px;}.cls-15{font-size:18px;}.cls-16{letter-spacing:0.5em;}.cls-17{font-size:12px;}.cls-18{stroke-width:4px;}</style><clipPath id="clip-path"><path id="_クリッピングパス_" data-name="&lt;クリッピングパス&gt;" class="cls-1" d="M743.55,344.47a15,15,0,0,0-15,15h0a15,15,0,0,0,15,15h21v-30Z"/></clipPath></defs><title>3229_7153</title><rect id="_長方形_" data-name="&lt;長方形&gt;" class="cls-2" x="170.15" y="341" width="240" height="60"/><text class="cls-3" transform="translate(229.39 364.47)">岩井<tspan class="cls-4" x="36" y="0">線(</tspan><tspan x="72" y="0">普</tspan><tspan class="cls-4" x="90" y="0">通</tspan><tspan x="112.5" y="0">)</tspan><tspan class="cls-5"><tspan x="-20.25" y="16.32">(local bus)Iwai line(local)</tspan></tspan></text><line class="cls-6" x1="230.15" y1="389" x2="350.15" y2="389"/><line class="cls-7" x1="230.15" y1="389" x2="230.15" y2="389"/><line class="cls-8" x1="247.29" y1="389" x2="341.57" y2="389"/><line class="cls-7" x1="350.15" y1="389" x2="350.15" y2="389"/><line class="cls-9" x1="290.15" y1="341" x2="300.03" y2="265.3"/><path class="cls-10" d="M302.38,247.35c2,8.86,6,20,10.82,27.27l-13.48-7-14.81,3.27C291.42,265.17,298.14,255.39,302.38,247.35Z"/><path id="_クリッピングパス_2" data-name="&lt;クリッピングパス&gt;" class="cls-10" d="M743.55,344.47a15,15,0,0,0-15,15h0a15,15,0,0,0,15,15h21v-30Z"/><g class="cls-11"><text class="cls-12" transform="translate(735.15 369.05)">24</text></g><path id="_クリッピングパス_3" data-name="&lt;クリッピングパス&gt;" class="cls-13" d="M743.55,344.47a15,15,0,0,0-15,15h0a15,15,0,0,0,15,15h21v-30Z"/><path class="cls-14" d="M953.55,344.47h-189v30h189a15,15,0,0,0,15-15h0A15,15,0,0,0,953.55,344.47Z"/><text class="cls-15" transform="translate(776.55 366.31)"><tspan class="cls-16">長谷橋</tspan><tspan class="cls-17" x="81" y="-2.28">Nagatani Bashi</tspan></text><line class="cls-14" x1="822" y1="432" x2="860.55" y2="374.47"/><circle class="cls-18" cx="822" cy="432" r="10"/><rect class="cls-19" x="-9127" y="-2044" width="11720" height="11720"/></svg>