<svg id="_15zoom" data-name="15zoom" xmlns="http://www.w3.org/2000/svg" viewBox="0 0 1024 1024"><defs><style>.cls-1,.cls-4{fill:#231815;}.cls-2,.cls-9{fill:none;}.cls-2,.cls-3,.cls-8{stroke:#231815;stroke-miterlimit:10;}.cls-2,.cls-3{stroke-width:2.4px;}.cls-3,.cls-8{fill:#fff;}.cls-4{font-size:18px;font-family:NotoSansMonoCJKjp-Regular-90ms-RKSJ-H, Noto Sans Mono CJK JP;}.cls-5{letter-spacing:0.33em;}.cls-6{letter-spacing:0.5em;}.cls-7{font-size:12px;}.cls-8{stroke-width:4px;}</style></defs><title>3230_7146</title><path id="_クリッピングパス_" data-name="&lt;クリッピングパス&gt;" class="cls-1" d="M371.58,700.13a15,15,0,0,0-15,15h0a15,15,0,0,0,15,15h21v-30Z"/><path id="_クリッピングパス_2" data-name="&lt;クリッピングパス&gt;" class="cls-2" d="M371.58,700.13a15,15,0,0,0-15,15h0a15,15,0,0,0,15,15h21v-30Z"/><path class="cls-3" d="M581.58,700.13h-189v30h189a15,15,0,0,0,15-15h0A15,15,0,0,0,581.58,700.13Z"/><text class="cls-4" transform="translate(404.56 721.97)"><tspan class="cls-5">浜村</tspan><tspan class="cls-6" x="48" y="0">駅</tspan><tspan class="cls-7" x="75" y="-2.28">(Hamamura Sta.)</tspan></text><line class="cls-3" x1="410" y1="651" x2="488.58" y2="700.13"/><circle class="cls-8" cx="410" cy="651" r="10"/><rect class="cls-9" x="-1959" y="-3068" width="11720" height="11720"/></svg>