<svg id="_15zoom" data-name="15zoom" xmlns="http://www.w3.org/2000/svg" xmlns:xlink="http://www.w3.org/1999/xlink" viewBox="0 0 1024 1024"><defs><style>.cls-1,.cls-13,.cls-39,.cls-4,.cls-9{fill:#231815;}.cls-1,.cls-12,.cls-2,.cls-3,.cls-36,.cls-41,.cls-42,.cls-6,.cls-8{stroke:#231815;}.cls-1,.cls-12,.cls-2,.cls-3,.cls-36,.cls-41,.cls-42,.cls-6,.cls-7,.cls-8{stroke-miterlimit:10;}.cls-1,.cls-12,.cls-3{stroke-width:2.4px;}.cls-11,.cls-2,.cls-3,.cls-36,.cls-37{fill:#fff;}.cls-2,.cls-41{stroke-width:2px;}.cls-13,.cls-4{font-size:18px;}.cls-11,.cls-13,.cls-39,.cls-4{font-family:NotoSansMonoCJKjp-Regular-90ms-RKSJ-H, Noto Sans Mono CJK JP;}.cls-18,.cls-19,.cls-20,.cls-21,.cls-22,.cls-23,.cls-24,.cls-25,.cls-26,.cls-27,.cls-28,.cls-29,.cls-30,.cls-31,.cls-32,.cls-33,.cls-34,.cls-35,.cls-5{font-size:12px;}.cls-12,.cls-41,.cls-42,.cls-43,.cls-6,.cls-7,.cls-8{fill:none;}.cls-6,.cls-7{stroke-linecap:round;}.cls-6{stroke-width:5.27px;}.cls-7{stroke:#aace36;stroke-width:2.64px;}.cls-8{stroke-width:3px;}.cls-10{clip-path:url(#clip-path);}.cls-11{font-size:28.8px;}.cls-13{letter-spacing:-0.05em;}.cls-14{letter-spacing:-0.06em;}.cls-15{letter-spacing:-0.06em;}.cls-16{letter-spacing:-0.03em;}.cls-17{letter-spacing:0.17em;}.cls-18{letter-spacing:-0.07em;}.cls-19{letter-spacing:-0.06em;}.cls-20{letter-spacing:-0.06em;}.cls-21{letter-spacing:-0.11em;}.cls-22{letter-spacing:-0.04em;}.cls-23{letter-spacing:-0.07em;}.cls-24{letter-spacing:-0.05em;}.cls-25{letter-spacing:-0.02em;}.cls-26{letter-spacing:-0.04em;}.cls-27{letter-spacing:-0.05em;}.cls-28{letter-spacing:-0.06em;}.cls-29{letter-spacing:-0.03em;}.cls-30{letter-spacing:-0.02em;}.cls-31{letter-spacing:-0.05em;}.cls-32{letter-spacing:-0.04em;}.cls-33{letter-spacing:-0.1em;}.cls-34{letter-spacing:-0.07em;}.cls-35{letter-spacing:-0.07em;}.cls-36{stroke-width:4px;}.cls-38{clip-path:url(#clip-path-2);}.cls-39{font-size:15px;}.cls-40{letter-spacing:0.25em;}.cls-42{stroke-width:3px;}</style><clipPath id="clip-path"><path id="_クリッピングパス_" data-name="&lt;クリッピングパス&gt;" class="cls-1" d="M767.91,1023.93a15,15,0,0,0-15,15h0a15,15,0,0,0,15,15h21v-30Z"/></clipPath><clipPath id="clip-path-2"><rect id="_長方形_" data-name="&lt;長方形&gt;" class="cls-2" x="519.09" y="649.39" width="180" height="50"/></clipPath></defs><title>3231_7146</title><rect id="_長方形_2" data-name="&lt;長方形&gt;" class="cls-3" x="524.01" y="752.42" width="240" height="60"/><text class="cls-4" transform="translate(617 775.89)">鹿野線<tspan class="cls-5"><tspan x="-42" y="16.32">(local bus)Shikano line</tspan></tspan></text><line class="cls-6" x1="584.01" y1="800.42" x2="704.01" y2="800.42"/><line class="cls-7" x1="584.01" y1="800.42" x2="704.01" y2="800.42"/><line class="cls-8" x1="644.01" y1="812.42" x2="579" y2="897.62"/><path class="cls-9" d="M568,912c2.65-8.69,4.78-20.36,4.21-29l8.21,12.76,14.47,4.55C586.4,902,575.7,907.15,568,912Z"/><path id="_クリッピングパス_2" data-name="&lt;クリッピングパス&gt;" class="cls-9" d="M767.91,1023.93a15,15,0,0,0-15,15h0a15,15,0,0,0,15,15h21v-30Z"/><g class="cls-10"><text class="cls-11" transform="translate(759.51 1048.51)">17</text></g><path id="_クリッピングパス_3" data-name="&lt;クリッピングパス&gt;" class="cls-12" d="M767.91,1023.93a15,15,0,0,0-15,15h0a15,15,0,0,0,15,15h21v-30Z"/><path class="cls-3" d="M977.91,1023.93h-189v30h189a15,15,0,0,0,15-15h0A15,15,0,0,0,977.91,1023.93Z"/><text class="cls-13" transform="translate(794.58 1045.77)">鹿<tspan class="cls-14" x="17.18" y="0">野</tspan><tspan class="cls-15" x="34.01" y="0">営</tspan><tspan class="cls-16" x="50.9" y="0">業</tspan><tspan class="cls-17" x="68.31" y="0">所</tspan><tspan class="cls-18" x="88.51" y="-2.28">(</tspan><tspan class="cls-19" x="93.71" y="-2.28">S</tspan><tspan class="cls-20" x="99.03" y="-2.28">h</tspan><tspan class="cls-21" x="104.29" y="-2.28">i</tspan><tspan class="cls-22" x="108.95" y="-2.28">k</tspan><tspan class="cls-23" x="114.47" y="-2.28">a</tspan><tspan class="cls-24" x="119.68" y="-2.28">n</tspan><tspan class="cls-25" x="125.09" y="-2.28">o</tspan><tspan class="cls-26" x="130.82" y="-2.28"> </tspan><tspan class="cls-27" x="136.36" y="-2.28">B</tspan><tspan class="cls-28" x="141.8" y="-2.28">u</tspan><tspan class="cls-29" x="147.07" y="-2.28">s</tspan><tspan class="cls-30" x="152.74" y="-2.28"> </tspan><tspan class="cls-19" x="158.51" y="-2.28">O</tspan><tspan class="cls-31" x="163.84" y="-2.28">f</tspan><tspan class="cls-32" x="169.28" y="-2.28">f</tspan><tspan class="cls-33" x="174.76" y="-2.28">i</tspan><tspan class="cls-27" x="179.53" y="-2.28">c</tspan><tspan class="cls-34" x="184.97" y="-2.28">e</tspan><tspan class="cls-35" x="190.17" y="-2.28">)</tspan></text><line class="cls-3" x1="872.74" y1="961.13" x2="884.91" y2="1023.93"/><circle class="cls-36" cx="872.74" cy="961.13" r="10"/><rect id="_長方形_3" data-name="&lt;長方形&gt;" class="cls-37" x="519.09" y="649.39" width="180" height="50"/><g class="cls-38"><text class="cls-39" transform="translate(564.09 668.13)">鹿野線浜村行<tspan class="cls-40" x="-41.25" y="20">(</tspan><tspan x="-30" y="20">鹿野温泉公園経由な</tspan><tspan class="cls-40" x="105" y="20">し</tspan><tspan x="123.75" y="20">)</tspan></text></g><rect id="_長方形_4" data-name="&lt;長方形&gt;" class="cls-41" x="519.09" y="649.39" width="180" height="50"/><line class="cls-42" x1="609.09" y1="699.39" x2="515.26" y2="730.38"/><path class="cls-9" d="M498.06,736.06c7.1-5.68,15.45-14.11,19.88-21.59l-.43,15.16,9.37,11.93C518.87,738.19,507.14,736.38,498.06,736.06Z"/><rect class="cls-43" x="-1959" y="-4092" width="11720" height="11720"/></svg>