<svg id="_15zoom" data-name="15zoom" xmlns="http://www.w3.org/2000/svg" xmlns:xlink="http://www.w3.org/1999/xlink" viewBox="0 0 1024 1024"><defs><style>.cls-1,.cls-2,.cls-7{fill:#231815;}.cls-1,.cls-5,.cls-6{stroke:#231815;stroke-miterlimit:10;stroke-width:2.4px;}.cls-3{clip-path:url(#clip-path);}.cls-4{font-size:28.8px;}.cls-4,.cls-6{fill:#fff;}.cls-4,.cls-7{font-family:NotoSansMonoCJKjp-Regular-90ms-RKSJ-H, Noto Sans Mono CJK JP;}.cls-30,.cls-5{fill:none;}.cls-7{font-size:18px;letter-spacing:-0.05em;}.cls-8{letter-spacing:-0.06em;}.cls-9{letter-spacing:-0.06em;}.cls-10{letter-spacing:-0.03em;}.cls-11{letter-spacing:0.17em;}.cls-12,.cls-13,.cls-14,.cls-15,.cls-16,.cls-17,.cls-18,.cls-19,.cls-20,.cls-21,.cls-22,.cls-23,.cls-24,.cls-25,.cls-26,.cls-27,.cls-28,.cls-29{font-size:12px;}.cls-12{letter-spacing:-0.07em;}.cls-13{letter-spacing:-0.06em;}.cls-14{letter-spacing:-0.06em;}.cls-15{letter-spacing:-0.11em;}.cls-16{letter-spacing:-0.04em;}.cls-17{letter-spacing:-0.07em;}.cls-18{letter-spacing:-0.05em;}.cls-19{letter-spacing:-0.02em;}.cls-20{letter-spacing:-0.04em;}.cls-21{letter-spacing:-0.05em;}.cls-22{letter-spacing:-0.06em;}.cls-23{letter-spacing:-0.03em;}.cls-24{letter-spacing:-0.02em;}.cls-25{letter-spacing:-0.05em;}.cls-26{letter-spacing:-0.04em;}.cls-27{letter-spacing:-0.1em;}.cls-28{letter-spacing:-0.07em;}.cls-29{letter-spacing:-0.07em;}</style><clipPath id="clip-path"><path id="_クリッピングパス_" data-name="&lt;クリッピングパス&gt;" class="cls-1" d="M767.91-.07a15,15,0,0,0-15,15h0a15,15,0,0,0,15,15h21v-30Z"/></clipPath></defs><title>3232_7146</title><path id="_クリッピングパス_2" data-name="&lt;クリッピングパス&gt;" class="cls-2" d="M767.91-.07a15,15,0,0,0-15,15h0a15,15,0,0,0,15,15h21v-30Z"/><g class="cls-3"><text class="cls-4" transform="translate(759.51 24.51)">17</text></g><path id="_クリッピングパス_3" data-name="&lt;クリッピングパス&gt;" class="cls-5" d="M767.91-.07a15,15,0,0,0-15,15h0a15,15,0,0,0,15,15h21v-30Z"/><path class="cls-6" d="M977.91-.07h-189v30h189a15,15,0,0,0,15-15h0A15,15,0,0,0,977.91-.07Z"/><text class="cls-7" transform="translate(794.58 21.77)">鹿<tspan class="cls-8" x="17.18" y="0">野</tspan><tspan class="cls-9" x="34.01" y="0">営</tspan><tspan class="cls-10" x="50.9" y="0">業</tspan><tspan class="cls-11" x="68.31" y="0">所</tspan><tspan class="cls-12" x="88.51" y="-2.28">(</tspan><tspan class="cls-13" x="93.71" y="-2.28">S</tspan><tspan class="cls-14" x="99.03" y="-2.28">h</tspan><tspan class="cls-15" x="104.29" y="-2.28">i</tspan><tspan class="cls-16" x="108.95" y="-2.28">k</tspan><tspan class="cls-17" x="114.47" y="-2.28">a</tspan><tspan class="cls-18" x="119.68" y="-2.28">n</tspan><tspan class="cls-19" x="125.09" y="-2.28">o</tspan><tspan class="cls-20" x="130.82" y="-2.28"> </tspan><tspan class="cls-21" x="136.36" y="-2.28">B</tspan><tspan class="cls-22" x="141.8" y="-2.28">u</tspan><tspan class="cls-23" x="147.07" y="-2.28">s</tspan><tspan class="cls-24" x="152.74" y="-2.28"> </tspan><tspan class="cls-13" x="158.51" y="-2.28">O</tspan><tspan class="cls-25" x="163.84" y="-2.28">f</tspan><tspan class="cls-26" x="169.28" y="-2.28">f</tspan><tspan class="cls-27" x="174.76" y="-2.28">i</tspan><tspan class="cls-21" x="179.53" y="-2.28">c</tspan><tspan class="cls-28" x="184.97" y="-2.28">e</tspan><tspan class="cls-29" x="190.17" y="-2.28">)</tspan></text><line class="cls-6" x1="872.74" y1="-62.87" x2="884.91" y2="-0.07"/><rect class="cls-30" x="-1959" y="-5116" width="11720" height="11720"/></svg>