<svg id="_15zoom" data-name="15zoom" xmlns="http://www.w3.org/2000/svg" viewBox="0 0 1024 1024"><defs><style>.cls-1,.cls-4{fill:#231815;}.cls-10,.cls-11,.cls-2{fill:none;}.cls-2,.cls-3{stroke:#231815;stroke-width:2.4px;}.cls-10,.cls-2,.cls-3{stroke-miterlimit:10;}.cls-3{fill:#fff;}.cls-4{font-size:18px;font-family:NotoSansMonoCJKjp-Regular-90ms-RKSJ-H, Noto Sans Mono CJK JP;}.cls-5{letter-spacing:1.47em;}.cls-6{letter-spacing:0.97em;}.cls-7,.cls-8{font-size:12px;}.cls-7{letter-spacing:0.7em;}.cls-9{opacity:0.5;}.cls-10{stroke:#e60012;stroke-width:20px;stroke-dasharray:9.96 9.96;}</style></defs><title>3235_7146</title><path id="_クリッピングパス_" data-name="&lt;クリッピングパス&gt;" class="cls-1" d="M770.39,807a15,15,0,0,0-15,15h0a15,15,0,0,0,15,15h21V807Z"/><path id="_クリッピングパス_2" data-name="&lt;クリッピングパス&gt;" class="cls-2" d="M770.39,807a15,15,0,0,0-15,15h0a15,15,0,0,0,15,15h21V807Z"/><path class="cls-3" d="M980.39,807h-189v30h189a15,15,0,0,0,15-15h0A15,15,0,0,0,980.39,807Z"/><text class="cls-4" transform="translate(821.35 828.85)"><tspan class="cls-5">余</tspan><tspan class="cls-6" x="44.4" y="0">戸</tspan><tspan class="cls-7" x="79.8" y="-2.28">Yod</tspan><tspan class="cls-8" x="123" y="-2.28">o</tspan></text><line class="cls-3" x1="1049.23" y1="724.94" x2="887.39" y2="807.01"/><g id="佐治4"><g class="cls-9"><polyline class="cls-10" points="-264.74 880.37 -259.98 878.07 -254.88 876.1 -252.88 875.13 -248.25 873.99 -244.29 873.73 -242.59 873.85 -239.37 874.33 -233.78 875.96 -219.23 882.55 -216.01 883.52 -211.07 883.98 -208.82 883.52 -202.9 881.9 -194.91 878.53 -190.23 877.02 -185.94 876.67 -183.71 876.9 -179.21 877.7 -173.79 879.5 -169.06 880.64 -163.59 881.47 -159.24 881.41 -156.67 880.93 -153.95 879.7 -151.71 878.18 -147.77 875.05 -145 872.34 -144.42 871.39 -143.14 869.54 -139.72 862.29 -136.83 856.32 -134.43 853.1 -129.96 849.25 -125.63 846.36 -114.43 841.05 -105.95 837.68 -99.24 835.75 -96.98 835.26 -96.03 835.09 -85.97 835.09 -80.68 835.57 -73.48 836.71 -66.12 837.83 -56.86 838.17 -53.34 837.51 -43.91 835.26 -34.59 832.2 -26.6 830.44 -25.04 830.18 -20.71 829.46 -11.12 828.49 -4.38 828.01 -0.4 828.01 1.51 828.06 24.05 827.61 29.03 827.15 35.56 826.04 39.05 825.04 45.57 822.58 53.61 818.84 59.64 815.56 64.53 811.93 66.34 809.85 68.25 806.77 80.9 782.16 84.28 775.57 86.98 770.92 88.73 769.12 90.24 768.44 92.34 768.29 96.88 770.06 107.92 777.31 111.06 778.99 124.41 784.71 131.93 784.01 138.82 781.38 145.63 777.82 149.04 774.57 152.29 766.04 155.85 758.92 160.5 755.28 166.31 753.11 175.6 752.1 181.07 750.6 186.23 747.85 196.13 739.92 199.97 737.4 210.62 733.15 218.46 729.76 231.58 721.08 233.54 719.97 237.43 719.27 240.66 719.39 244.97 719.97 261.13 722.53 277.4 723.82 289.35 721.92 295.18 719.85 296.58 719.28 298.56 718.22 300.77 716.94 303.33 715.06 306.64 712.57 312.88 707.09 316.05 703.61 317.89 701.13 323.78 691.56 331.96 675.98 334.17 672.52 336.56 669.55 343.72 665.16 358.72 664.83 369.38 663.5 388.22 656 401.55 647.5 408.1 644.11 411.61 642.29 414.5 641.56 426.6 641.27 435.73 644.43 444 650.17 449.33 654.14 452.59 656.79 457.48 664.78 459.58 667.44 461.49 669.27 464.35 670.89 466.26 671.52 468.83 671.87 473.18 671.87 484.72 670.74 509.16 668.35 526.93 667.32 535.31 668.41 549.7 671.64 556.06 672 563.72 671.04 571.34 668.35 580.75 664.04 598.61 655.98 605.61 654.52 636.71 657.77 642.73 657.94 648.91 655.65 654.29 652.07 660.47 646.86 661.62 640.19 651.03 601.28 652.49 596.88 655.75 593.63 661.94 592.33 680.66 592.65 700.44 589.48 738.72 583.63 763.58 568.84 771.36 566.85 778.99 568.84 788.14 573.1 794.04 574.94 799.24 575.34 806.29 574.48 812.7 575.4 815.32 578.48 817.32 580.71 825.05 595.99 858.15 619.02 864.1 624.51 869.14 631.99 873.56 642.97 878.13 666.92 880.88 681.25 883.77 685.98 890.03 692.08 898.95 696.45 905.13 697.73 910.32 697.88 917.18 695.29 922.52 691.94 928.77 682.32 937.14 671.96 949.62 660.03 964.36 645.93 968.35 643.13 974.08 642.69 978.5 643.34 982.5 645.93 985.96 649.5 1007.38 686.17 1022.41 710.27 1023.53 712.07 1032.47 719.83 1041.22 724.11 1046.91 725.39 1091.02 720.92 1095.85 719.37 1099.5 715.81 1102.05 710.52 1104.15 700.22 1107.35 692.74 1111.18 689.18 1116.28 684.89 1121.12 682.52 1126.5 681.89 1149.3 684.25 1163.16 686.26 1168.09 688.54 1176 695.73 1182.04 700.94 1184.41 710.16 1182.88 751.23 1185.04 755.1 1187.64 759.78 1192.44 764.92 1196.28 768.46 1198.12 769.55 1200.8 770.61 1210.84 773.6 1215.59 775.51 1218.04 777.25 1219.08 778.31 1221.25 782.14 1228.61 805 1229.89 807.83 1231.47 810.31 1233.61 812.13 1235.94 813.68 1238.36 814.34 1240.43 814.65 1245.59 814.73 1250.12 813.42 1253.27 812.39 1257.39 810.31 1261.56 807.4 1278.03 794.21 1283.31 790.52 1294.02 781.19 1299.29 776.37 1312.4 765.24 1323.78 759.12 1329.51 758.39 1334.69 757.75"/></g></g><rect class="cls-11" x="-1959" y="-8188" width="11720" height="11720"/></svg>