<svg id="_15zoom" data-name="15zoom" xmlns="http://www.w3.org/2000/svg" xmlns:xlink="http://www.w3.org/1999/xlink" viewBox="0 0 1024 1024"><defs><style>.cls-1,.cls-24,.cls-3,.cls-7{fill:#231815;}.cls-1,.cls-2,.cls-22,.cls-6{stroke:#231815;stroke-miterlimit:10;}.cls-1,.cls-2,.cls-6{stroke-width:2.4px;}.cls-2,.cls-22,.cls-5{fill:#fff;}.cls-4{clip-path:url(#clip-path);}.cls-5{font-size:28.8px;}.cls-24,.cls-5,.cls-7{font-family:NotoSansMonoCJKjp-Regular-90ms-RKSJ-H, Noto Sans Mono CJK JP;}.cls-27,.cls-6{fill:none;}.cls-24,.cls-7{font-size:18px;}.cls-7{letter-spacing:0.22em;}.cls-8{letter-spacing:0.16em;}.cls-9{letter-spacing:0.29em;}.cls-10,.cls-11,.cls-12,.cls-13,.cls-14,.cls-15,.cls-16,.cls-17,.cls-18,.cls-19,.cls-20,.cls-21,.cls-26{font-size:12px;}.cls-10{letter-spacing:-0.07em;}.cls-11{letter-spacing:-0.06em;}.cls-12{letter-spacing:-0.05em;}.cls-13{letter-spacing:-0.04em;}.cls-14{letter-spacing:-0.06em;}.cls-15{letter-spacing:-0.06em;}.cls-16{letter-spacing:-0.07em;}.cls-17{letter-spacing:-0.04em;}.cls-18{letter-spacing:-0.03em;}.cls-19{letter-spacing:-0.02em;}.cls-20{letter-spacing:-0.07em;}.cls-21{letter-spacing:-0.07em;}.cls-22{stroke-width:4px;}.cls-23{clip-path:url(#clip-path-2);}.cls-25{letter-spacing:0.56em;}</style><clipPath id="clip-path"><path id="_クリッピングパス_" data-name="&lt;クリッピングパス&gt;" class="cls-1" d="M909.11,886.33a15,15,0,0,0-15,15h0a15,15,0,0,0,15,15h21v-30Z"/></clipPath><clipPath id="clip-path-2"><path id="_クリッピングパス_2" data-name="&lt;クリッピングパス&gt;" class="cls-1" d="M513.74,819.8a15,15,0,0,0-15,15h0a15,15,0,0,0,15,15h21v-30Z"/></clipPath></defs><title>3229_7149</title><rect id="_長方形_" data-name="&lt;長方形&gt;" class="cls-2" x="1024.24" y="950.5" width="240" height="60"/><path id="_クリッピングパス_3" data-name="&lt;クリッピングパス&gt;" class="cls-3" d="M909.11,886.33a15,15,0,0,0-15,15h0a15,15,0,0,0,15,15h21v-30Z"/><g class="cls-4"><text class="cls-5" transform="translate(907.9 910.91)">6</text></g><path id="_クリッピングパス_4" data-name="&lt;クリッピングパス&gt;" class="cls-6" d="M909.11,886.33a15,15,0,0,0-15,15h0a15,15,0,0,0,15,15h21v-30Z"/><path class="cls-2" d="M1119.11,886.33h-189v30h189a15,15,0,0,0,15-15h0A15,15,0,0,0,1119.11,886.33Z"/><text class="cls-7" transform="translate(959.72 908.17)">八<tspan class="cls-8" x="21.89" y="0">丁</tspan><tspan class="cls-9" x="42.71" y="0">目</tspan><tspan class="cls-10" x="65.12" y="-2.28">(</tspan><tspan class="cls-11" x="70.24" y="-2.28">H</tspan><tspan class="cls-12" x="75.55" y="-2.28">a</tspan><tspan class="cls-13" x="80.92" y="-2.28">m</tspan><tspan class="cls-14" x="86.42" y="-2.28">a</tspan><tspan class="cls-15" x="91.73" y="-2.28">s</tspan><tspan class="cls-16" x="97.05" y="-2.28">a</tspan><tspan class="cls-17" x="102.21" y="-2.28">k</tspan><tspan class="cls-18" x="107.73" y="-2.28">a</tspan><tspan class="cls-19" x="113.34" y="-2.28"> </tspan><tspan class="cls-20" x="119.06" y="-2.28">8</tspan><tspan class="cls-21" x="124.23" y="-2.28">)</tspan></text><line class="cls-2" x1="883.09" y1="960.23" x2="1026.11" y2="916.33"/><circle class="cls-22" cx="883.09" cy="960.23" r="10"/><path id="_クリッピングパス_5" data-name="&lt;クリッピングパス&gt;" class="cls-3" d="M513.74,819.8a15,15,0,0,0-15,15h0a15,15,0,0,0,15,15h21v-30Z"/><g class="cls-23"><text class="cls-5" transform="translate(505.33 844.38)">11</text></g><path id="_クリッピングパス_6" data-name="&lt;クリッピングパス&gt;" class="cls-6" d="M513.74,819.8a15,15,0,0,0-15,15h0a15,15,0,0,0,15,15h21v-30Z"/><path class="cls-2" d="M723.74,819.8h-189v30h189a15,15,0,0,0,15-15h0A15,15,0,0,0,723.74,819.8Z"/><text class="cls-24" transform="translate(546.73 841.64)"><tspan class="cls-25">賀露地</tspan><tspan x="84" y="0">域 </tspan><tspan class="cls-26" x="111" y="-2.28">Karo Area</tspan></text><rect class="cls-27" x="-5031" y="-2044" width="11720" height="11720"/></svg>