<svg id="_15zoom" data-name="15zoom" xmlns="http://www.w3.org/2000/svg" xmlns:xlink="http://www.w3.org/1999/xlink" viewBox="0 0 1024 1024"><defs><style>.cls-1,.cls-16,.cls-19,.cls-2,.cls-23,.cls-28,.cls-5,.cls-9{fill:#fff;}.cls-1,.cls-15,.cls-16,.cls-17,.cls-19,.cls-2,.cls-20,.cls-22,.cls-26,.cls-28,.cls-29,.cls-31,.cls-33,.cls-4,.cls-5,.cls-9{stroke:#231815;}.cls-1,.cls-14,.cls-15,.cls-16,.cls-17,.cls-18,.cls-19,.cls-2,.cls-20,.cls-21,.cls-22,.cls-26,.cls-28,.cls-29,.cls-30,.cls-31,.cls-33,.cls-35,.cls-36,.cls-4,.cls-5,.cls-9{stroke-miterlimit:10;}.cls-1,.cls-26{stroke-width:2.11px;}.cls-2,.cls-33{stroke-width:2px;}.cls-10,.cls-25,.cls-3,.cls-6{fill:#231815;}.cls-14,.cls-15,.cls-17,.cls-18,.cls-20,.cls-21,.cls-22,.cls-26,.cls-29,.cls-30,.cls-31,.cls-33,.cls-35,.cls-36,.cls-37,.cls-4{fill:none;}.cls-4,.cls-5{stroke-width:2.4px;}.cls-6{font-size:18px;}.cls-10,.cls-25,.cls-6{font-family:NotoSansMonoCJKjp-Regular-90ms-RKSJ-H, Noto Sans Mono CJK JP;}.cls-7{letter-spacing:0.5em;}.cls-8{font-size:12px;}.cls-9{stroke-width:2.4px;}.cls-10{font-size:18px;}.cls-11,.cls-12{letter-spacing:0.25em;}.cls-12,.cls-13{font-size:12px;}.cls-14{stroke:#eb5d19;stroke-width:5.27px;}.cls-14,.cls-15,.cls-17,.cls-18,.cls-20,.cls-21,.cls-29,.cls-30{stroke-linecap:round;}.cls-15{stroke-width:2.64px;stroke-dasharray:0 17.58;}.cls-16{stroke-width:2.4px;}.cls-17{stroke-width:5.27px;}.cls-18{stroke:#f6ad3c;stroke-width:2.64px;}.cls-19{stroke-width:2.4px;}.cls-20{stroke-width:5.27px;}.cls-21{stroke:#ca2e34;stroke-width:2.64px;}.cls-22{stroke-width:3px;}.cls-24{clip-path:url(#clip-path);}.cls-25{font-size:15px;}.cls-27{clip-path:url(#clip-path-2);}.cls-28{stroke-width:2.4px;}.cls-29{stroke-width:5.27px;}.cls-30{stroke:#ef845d;stroke-width:2.64px;}.cls-31{stroke-width:3px;}.cls-32{clip-path:url(#clip-path-3);}.cls-34{opacity:0.5;}.cls-35,.cls-36{stroke:#e60012;stroke-width:20px;}.cls-36{stroke-dasharray:10 10;}</style><clipPath id="clip-path"><rect id="_長方形_" data-name="&lt;長方形&gt;" class="cls-1" x="268" y="47" width="200" height="50"/></clipPath><clipPath id="clip-path-2"><rect id="_長方形_2" data-name="&lt;長方形&gt;" class="cls-1" x="-59" y="19" width="200" height="50"/></clipPath><clipPath id="clip-path-3"><rect id="_長方形_3" data-name="&lt;長方形&gt;" class="cls-2" x="130" y="754.47" width="180" height="50"/></clipPath></defs><title>3231_7149</title><path id="_クリッピングパス_" data-name="&lt;クリッピングパス&gt;" class="cls-3" d="M808.28,340.71a15,15,0,0,0-15,15h0a15,15,0,0,0,15,15h21v-30Z"/><path id="_クリッピングパス_2" data-name="&lt;クリッピングパス&gt;" class="cls-4" d="M808.28,340.71a15,15,0,0,0-15,15h0a15,15,0,0,0,15,15h21v-30Z"/><path class="cls-5" d="M1018.28,340.71h-189v30h189a15,15,0,0,0,15-15h0A15,15,0,0,0,1018.28,340.71Z"/><text class="cls-6" transform="translate(835.28 362.55)">因幡大<tspan class="cls-7" x="54" y="0">橋</tspan><tspan class="cls-8" x="81" y="-2.28">(Inaba Ohashi Brg.)</tspan></text><line class="cls-5" x1="1096.94" y1="505.25" x2="925.28" y2="370.71"/><rect id="_長方形_4" data-name="&lt;長方形&gt;" class="cls-9" x="952.89" y="703.73" width="240" height="60"/><text class="cls-10" transform="translate(980.64 727.2)">市立病院<tspan class="cls-11" x="72" y="0">線</tspan><tspan class="cls-12" x="94.5" y="-2.28">(注:</tspan><tspan class="cls-13" x="127.5" y="-2.28">日本交</tspan><tspan class="cls-12" x="163.5" y="-2.28">通</tspan><tspan class="cls-13" x="178.5" y="-2.28">)</tspan><tspan class="cls-13"><tspan x="2.25" y="16.32">(local bus)Shiritsu Byoin line</tspan></tspan></text><line class="cls-14" x1="1012.89" y1="751.73" x2="1132.89" y2="751.73"/><line class="cls-15" x1="1012.89" y1="751.73" x2="1132.89" y2="751.73"/><rect id="_長方形_5" data-name="&lt;長方形&gt;" class="cls-16" x="954.61" y="581.56" width="240" height="60"/><text class="cls-10" transform="translate(970.36 605.03)">市立病院<tspan class="cls-11" x="72" y="0">線</tspan><tspan class="cls-12" x="94.5" y="-2.28">(注:</tspan><tspan class="cls-13" x="127.5" y="-2.28">日ノ丸自動</tspan><tspan class="cls-12" x="187.5" y="-2.28">車</tspan><tspan class="cls-13" x="202.5" y="-2.28">)</tspan><tspan class="cls-13"><tspan x="14.25" y="16.32">(local bus)Shiritsu Byoin line</tspan></tspan></text><line class="cls-17" x1="1014.61" y1="629.56" x2="1134.61" y2="629.56"/><line class="cls-18" x1="1014.61" y1="629.56" x2="1134.61" y2="629.56"/><rect id="_長方形_6" data-name="&lt;長方形&gt;" class="cls-19" x="390.2" y="-26.77" width="240" height="60"/><text class="cls-10" transform="translate(483.13 -3.3)">松上線<tspan class="cls-13"><tspan x="-48" y="16.32">(local bus)Matsugami line</tspan></tspan></text><line class="cls-20" x1="450.2" y1="21.23" x2="570.2" y2="21.23"/><line class="cls-21" x1="450.2" y1="21.23" x2="570.2" y2="21.23"/><line class="cls-22" x1="510.2" y1="33.23" x2="586.26" y2="84.17"/><path class="cls-3" d="M601.3,94.24c-8.84-2.11-20.62-3.51-29.24-2.41l12.23-9,3.65-14.73C590.2,76.51,596,86.88,601.3,94.24Z"/><rect id="_長方形_7" data-name="&lt;長方形&gt;" class="cls-23" x="268" y="47" width="200" height="50"/><g class="cls-24"><text class="cls-25" transform="translate(293 65.74)">松上線<tspan class="cls-11" x="45" y="0">は1</tspan><tspan x="75" y="0">便鳥取駅で</tspan><tspan x="15" y="20">市立病院線に直通</tspan></text></g><rect id="_長方形_8" data-name="&lt;長方形&gt;" class="cls-26" x="268" y="47" width="200" height="50"/><rect id="_長方形_9" data-name="&lt;長方形&gt;" class="cls-23" x="-59" y="19" width="200" height="50"/><g class="cls-27"><text class="cls-25" transform="translate(-34 37.74)">吉岡線<tspan class="cls-11" x="45" y="0">は1</tspan><tspan x="75" y="0">便鳥取駅で</tspan><tspan x="15" y="20">市立病院線に直通</tspan></text></g><rect id="_長方形_10" data-name="&lt;長方形&gt;" class="cls-26" x="-59" y="19" width="200" height="50"/><rect id="_長方形_11" data-name="&lt;長方形&gt;" class="cls-28" x="276.99" y="514.43" width="240" height="60"/><text class="cls-10" transform="translate(369.99 537.91)">東郷線<tspan class="cls-13"><tspan x="-33" y="16.32">(local bus)Togo line</tspan></tspan></text><line class="cls-29" x1="336.99" y1="562.43" x2="456.99" y2="562.43"/><line class="cls-30" x1="336.99" y1="562.43" x2="456.99" y2="562.43"/><line class="cls-31" x1="396.99" y1="574.43" x2="488.43" y2="633.2"/><path class="cls-3" d="M503.66,643c-8.87-2-20.68-3.12-29.28-1.86l12.05-9.21,3.37-14.79C492.23,625.48,498.2,635.73,503.66,643Z"/><rect id="_長方形_12" data-name="&lt;長方形&gt;" class="cls-23" x="130" y="754.47" width="180" height="50"/><g class="cls-32"><text class="cls-25" transform="translate(160 773.21)">東郷線フリー乗降<tspan x="15" y="20">山ヶ</tspan><tspan class="cls-11" x="45" y="20">鼻-</tspan><tspan x="75" y="20">高路</tspan></text></g><rect id="_長方形_13" data-name="&lt;長方形&gt;" class="cls-33" x="130" y="754.47" width="180" height="50"/><g id="東郷"><g class="cls-34"><line class="cls-35" x1="900.31" y1="159.08" x2="897.16" y2="162.96"/><polyline class="cls-36" points="890.85 170.71 875.11 190.05 870.21 194.79 860.85 200.53 859.47 201.22 858.38 201.79 854.34 204.2 852.31 204.99 841.76 212.29 817.4 237.32 803.49 252.36 781.29 276.38 763.8 295.08 731.67 330.18 730.51 331.35 725.32 337.02 701.51 362.73 694.17 370.67 684.75 380.84 678.18 387.95 672.56 393.11 668.23 396.65 664.05 399.34 661.81 400.8 647.37 406.45 638.51 409.95 631.72 415.03 627.55 418.5 614.24 429.11 611.09 431.87 608.85 433.88 583.44 454.61 582.33 455.76 579.29 458.92 575.75 463.26 574.63 465.35 572.87 468.89 571.91 471.95 569.68 483.08 567.74 498.21 566.09 510.84 564.37 531.7 562.62 544.6 561.8 551.37 559.89 559.27 558.45 563.3 556.52 567.96 553.47 572.65 528.15 605.51 521.72 614.54 514.97 624.22 512.66 627.89 498.16 652.24 482.6 678.03 476.85 687.7 462.06 714.47 458.54 720.73 454.02 729.16 449.9 734.46 441.89 744.26 437.56 748.64 433.08 752.33 415.1 765.71 404.69 772.63 393.47 780.07 361.14 804.2 358.51 806.66 353.88 812.78 348.27 821.64 342.33 833.85 338 841.43 336.25 843.37 332.36 847.49 327.75 851.9 326.93 852.58 320.34 858.18 314.76 862.53 288.6 882.35 269.53 897.19 266.45 900.05 260.72 905.39 244.21 923.92 229.77 942.45 229.47 942.79 227.91 944.97 226.93 946.46 222.6 955.32 220.34 959.04 217.59 963.24 213.12 968.56 208.95 972.28 205.11 975.82 202.22 980.31 190.67 1003.04 186.17 1010.45 182.49 1014.3 175.74 1019.45 174.48 1020.42 172.39 1022.85 169.99 1026.23 163.75 1037.18 160.54 1040.58 147.21 1049.76 140.48 1055.11 137.27 1058.31 135.17 1061.4 133.73 1065.06 133.26 1067.18 130.86 1083.65 129.89 1086.22 128.3 1087.82 114.67 1098.28 105.52 1105.23 100.24 1110.03 92.37 1118.27 89.8 1122.13 86.27 1128.24 83.54 1134.85 74.16 1157.95 72.85 1161.27 66.31 1177.71 58.25 1196.55 52.15 1209.27 37.45 1237.43 36.91 1238.43 34.52 1241.49 15.77 1261.48 12.55 1265.48 10.46 1268.71 8.87 1271.32 5.82 1277.74 1.82 1288.21 -16.14 1335.27 -16.88 1336.7 -17.93 1337.58 -26.06 1344.55 -29.11 1347.13 -34.74 1353.3 -40.84 1361.02 -45.48 1367.8 -47.57 1371.49 -63.62 1400.05 -67.31 1406.79 -73.41 1418.88 -77.88 1426.95 -84.14 1439.01 -88.47 1446.88 -93.11 1454.3 -105.92 1467.66 -110.58 1473.46 -116.19 1482.18 -135.75 1516 -137.82 1518.91 -151.77 1530.66 -155.47 1535.49 -156.73 1538.55 -158.02 1542.9 -163.95 1577.86 -165 1584.49"/></g></g><rect class="cls-37" x="-5031" y="-4092" width="11720" height="11720"/></svg>