<svg id="_15zoom" data-name="15zoom" xmlns="http://www.w3.org/2000/svg" xmlns:xlink="http://www.w3.org/1999/xlink" viewBox="0 0 1024 1024"><defs><style>.cls-1,.cls-23,.cls-4,.cls-9{fill:#231815;}.cls-1,.cls-10,.cls-11,.cls-13,.cls-16,.cls-2,.cls-20,.cls-25,.cls-3,.cls-6,.cls-8{stroke:#231815;}.cls-1,.cls-10,.cls-11,.cls-12,.cls-13,.cls-16,.cls-2,.cls-20,.cls-25,.cls-27,.cls-28,.cls-29,.cls-3,.cls-30,.cls-31,.cls-6,.cls-7,.cls-8{stroke-miterlimit:10;}.cls-1,.cls-10,.cls-16{stroke-width:2.4px;}.cls-10,.cls-15,.cls-2,.cls-20,.cls-21,.cls-3{fill:#fff;}.cls-2,.cls-25{stroke-width:2px;}.cls-3{stroke-width:2.4px;}.cls-4{font-size:18px;}.cls-15,.cls-23,.cls-4{font-family:NotoSansMonoCJKjp-Regular-90ms-RKSJ-H, Noto Sans Mono CJK JP;}.cls-19,.cls-5{font-size:12px;}.cls-11,.cls-12,.cls-13,.cls-16,.cls-25,.cls-27,.cls-28,.cls-29,.cls-30,.cls-31,.cls-32,.cls-6,.cls-7,.cls-8{fill:none;}.cls-11,.cls-12,.cls-6,.cls-7{stroke-linecap:round;}.cls-6{stroke-width:5.27px;}.cls-7{stroke:#aace36;stroke-width:2.64px;}.cls-8{stroke-width:3px;}.cls-11{stroke-width:5.27px;}.cls-12{stroke:#985d1b;stroke-width:2.64px;}.cls-13{stroke-width:3px;}.cls-14{clip-path:url(#clip-path);}.cls-15{font-size:28.8px;}.cls-17{letter-spacing:1.33em;}.cls-18{letter-spacing:0.83em;}.cls-19{letter-spacing:0.5em;}.cls-20{stroke-width:4px;}.cls-22{clip-path:url(#clip-path-2);}.cls-23{font-size:15px;}.cls-24{letter-spacing:0.25em;}.cls-26{opacity:0.5;}.cls-27,.cls-28,.cls-29,.cls-30,.cls-31{stroke:#e60012;stroke-width:20px;}.cls-27{stroke-dasharray:10 10;}.cls-29{stroke-dasharray:9.96 9.96;}.cls-30{stroke-dasharray:9.95 9.95;}.cls-31{stroke-dasharray:10.12 10.12;}</style><clipPath id="clip-path"><path id="_クリッピングパス_" data-name="&lt;クリッピングパス&gt;" class="cls-1" d="M192.09,523.8a15,15,0,0,0-15,15h0a15,15,0,0,0,15,15h21v-30Z"/></clipPath><clipPath id="clip-path-2"><rect id="_長方形_" data-name="&lt;長方形&gt;" class="cls-2" x="442" y="8.47" width="200" height="50"/></clipPath></defs><title>3232_7149</title><rect id="_長方形_2" data-name="&lt;長方形&gt;" class="cls-3" x="632.78" y="196.17" width="240" height="60"/><text class="cls-4" transform="translate(725.78 219.64)">横枕線<tspan class="cls-5"><tspan x="-51" y="16.32">(local bus)Yokomakura line</tspan></tspan></text><line class="cls-6" x1="692.78" y1="244.17" x2="812.78" y2="244.17"/><line class="cls-7" x1="692.78" y1="244.17" x2="812.78" y2="244.17"/><line class="cls-8" x1="752.78" y1="196.17" x2="738.29" y2="89"/><path class="cls-9" d="M735.86,71.06c4.28,8,11,17.77,17.58,23.5l-14.83-3.2-13.45,7C730,91.13,733.88,79.93,735.86,71.06Z"/><line class="cls-8" x1="1192.67" y1="698.45" x2="962.88" y2="795.4"/><path class="cls-9" d="M946.2,802.44c6.62-6.22,14.26-15.3,18.08-23.11l.79,15.15,10.3,11.14C967.11,802.9,955.27,802,946.2,802.44Z"/><rect id="_長方形_3" data-name="&lt;長方形&gt;" class="cls-10" x="629.39" y="477.37" width="240" height="60"/><text class="cls-4" transform="translate(722.38 500.84)">神戸線<tspan class="cls-5"><tspan x="-36" y="16.32">(local bus)Kando line</tspan></tspan></text><line class="cls-11" x1="689.39" y1="525.37" x2="809.39" y2="525.37"/><line class="cls-12" x1="689.39" y1="525.37" x2="809.39" y2="525.37"/><line class="cls-13" x1="749.39" y1="537.37" x2="877.52" y2="582.09"/><path class="cls-9" d="M894.62,588.05c-9.09.18-20.84,1.79-28.91,5l9.57-11.78-.17-15.16C879.41,573.69,887.62,582.26,894.62,588.05Z"/><path id="_クリッピングパス_2" data-name="&lt;クリッピングパス&gt;" class="cls-9" d="M192.09,523.8a15,15,0,0,0-15,15h0a15,15,0,0,0,15,15h21v-30Z"/><g class="cls-14"><text class="cls-15" transform="translate(183.69 548.38)">70</text></g><path id="_クリッピングパス_3" data-name="&lt;クリッピングパス&gt;" class="cls-16" d="M192.09,523.8a15,15,0,0,0-15,15h0a15,15,0,0,0,15,15h21v-30Z"/><path class="cls-10" d="M402.09,523.8h-189v30h189a15,15,0,0,0,15-15h0A15,15,0,0,0,402.09,523.8Z"/><text class="cls-4" transform="translate(243.09 545.63)"><tspan class="cls-17">猪</tspan><tspan class="cls-18" x="42" y="0">子</tspan><tspan class="cls-19" x="75" y="-2.28">Inok</tspan><tspan class="cls-5" x="123" y="-2.28">o</tspan></text><line class="cls-10" x1="273" y1="486" x2="309.09" y2="523.8"/><circle class="cls-20" cx="273" cy="486" r="10"/><rect id="_長方形_4" data-name="&lt;長方形&gt;" class="cls-21" x="442" y="8.47" width="200" height="50"/><g class="cls-22"><text class="cls-23" transform="translate(482 27.21)">横枕線フリー乗降<tspan x="-37.5" y="20">美和保育所</tspan><tspan class="cls-24" x="37.5" y="20">前-</tspan><tspan x="67.5" y="20">江山中学校前</tspan></text></g><rect id="_長方形_5" data-name="&lt;長方形&gt;" class="cls-25" x="442" y="8.47" width="200" height="50"/><g id="東郷"><g class="cls-26"><polyline class="cls-27" points="890.85 -853.29 875.11 -833.95 870.21 -829.21 860.85 -823.47 859.47 -822.78 858.38 -822.21 854.34 -819.8 852.31 -819.01 841.76 -811.71 817.4 -786.68 803.49 -771.64 781.29 -747.63 763.8 -728.92 731.67 -693.82 730.51 -692.65 725.32 -686.98 701.51 -661.27 694.17 -653.33 684.75 -643.16 678.18 -636.05 672.56 -630.89 668.23 -627.35 664.05 -624.66 661.81 -623.2 647.37 -617.55 638.51 -614.05 631.72 -608.97 627.55 -605.5 614.24 -594.89 611.09 -592.13 608.85 -590.12 583.44 -569.39 582.33 -568.24 579.29 -565.08 575.75 -560.74 574.63 -558.65 572.87 -555.11 571.91 -552.05 569.68 -540.92 567.74 -525.79 566.09 -513.16 564.37 -492.3 562.62 -479.4 561.8 -472.63 559.89 -464.73 558.45 -460.7 556.52 -456.04 553.47 -451.35 528.15 -418.49 521.72 -409.46 514.97 -399.79 512.66 -396.11 498.16 -371.76 482.6 -345.97 476.85 -336.3 462.06 -309.53 458.54 -303.27 454.02 -294.84 449.9 -289.54 441.89 -279.74 437.56 -275.36 433.08 -271.67 415.1 -258.29 404.69 -251.38 393.47 -243.93 361.14 -219.8 358.51 -217.34 353.88 -211.22 348.27 -202.36 342.33 -190.15 338 -182.57 336.25 -180.63 332.36 -176.51 327.75 -172.1 326.93 -171.42 320.34 -165.81 314.76 -161.47 288.6 -141.65 269.53 -126.81 266.45 -123.95 260.72 -118.61 244.21 -100.08 229.77 -81.55 229.47 -81.2 227.91 -79.03 226.93 -77.54 222.6 -68.68 220.34 -64.96 217.59 -60.76 213.12 -55.44 208.95 -51.72 205.11 -48.18 202.22 -43.69 190.67 -20.96 186.17 -13.55 182.49 -9.7 175.74 -4.55 174.48 -3.58 172.39 -1.15 169.99 2.23 163.75 13.18 160.54 16.58 147.21 25.76 140.48 31.11 137.27 34.31 135.17 37.4 133.73 41.06 133.26 43.18 130.86 59.65 129.89 62.22 128.3 63.82 114.67 74.28 105.52 81.23 100.24 86.03 92.37 94.27 89.8 98.13 86.27 104.24 83.54 110.85 74.16 133.96 72.85 137.27 66.31 153.71 58.25 172.55 52.15 185.27 37.45 213.43 36.91 214.43 34.52 217.49 15.77 237.48 12.55 241.48 10.46 244.71 8.87 247.31 5.82 253.74 1.82 264.21 -16.14 311.27 -16.88 312.7 -17.93 313.58 -26.06 320.55 -29.11 323.13 -34.74 329.3 -40.84 337.02 -45.48 343.8 -47.57 347.49 -63.62 376.05 -67.31 382.79 -73.41 394.88 -77.88 402.95 -84.14 415.01 -88.47 422.88 -93.11 430.3 -105.92 443.66 -110.58 449.46 -116.19 458.18 -135.75 492 -137.82 494.91 -151.77 506.66 -155.47 511.49 -156.73 514.55 -158.02 518.9 -163.95 553.86 -165 560.49"/></g></g><g class="cls-26"><polyline class="cls-28" points="274.07 482.2 277 480.09 277.97 479.1"/><polyline class="cls-29" points="285.04 472.15 287.99 469.96 295.46 467.19 301.13 463.21 305.95 458.63 312.1 451.64 321.73 442.37 328.96 435.25 336.07 429.59 341.5 423.2 346.2 415.01 350.53 403.56 356.08 392.48 363.31 382.35 371.87 373.55 382.11 363.67 393.8 357.05 402.84 352.34 415.01 344.87 415.9 344.38 435.73 327.64 442.49 323.54 447.79 321.61 453.45 321.97 460.32 324.75 471.29 330.89 476.95 333.06 481.53 333.54 487.92 331.25 492.32 328.07 503.31 320.14 503.94 319.68 512.26 313.54 530.82 300.16 536.72 297.63 544.92 294.74 557.09 289.56 564.68 282.69 565.6 281.94 572.03 276.67 577.34 273.89 582.51 274.61 589.75 276.67 595.29 279.56 602.04 281.25 609.27 281.85 609.63 281.79 621.32 280.28 632 278.23"/><polyline class="cls-28" points="636.89 277.29 641.8 276.35 643.49 280.39 643.73 280.97"/><polyline class="cls-30" points="646.35 290.55 646.47 291.02 647.76 299.87 645.67 328.88 645.54 330.77 644.98 338.63 644.98 343 645.37 345.99 646.77 347.97 649.16 350.02 655.98 354.76 660 357.79 670.78 365.62 689.99 378.74 692.21 379.73 694.94 380.96 699.67 382.93 704.63 385.48 708.51 388.64 711.63 392.69 713.96 399.13 716.92 402.88 719.55 405.28 726.5 409.76 730.31 413.26 739.57 425.15 741.03 426.76 743.2 429.13 746.73 432.64 757.46 434.86 766.01 436.05 768.52 436.5 770.68 436.87 777.11 434.68 780.3 433.15 781.98 431.98 783.39 430.5 788.56 425.14 795.57 417.69 799.38 414.6 802.57 413.45 804.71 413.59 818.35 414.5 823.75 414.85 848.96 415.67 875.69 415.89 879.67 415.72"/><line class="cls-28" x1="884.65" y1="415.51" x2="889.64" y2="415.3"/></g><g class="cls-26"><polyline class="cls-28" points="862.13 48.37 857.68 48.47 857.13 48.47"/><polyline class="cls-31" points="847.01 48.56 842.52 48.52 837.16 48.25 822.33 46.74 808.05 45.41 800.41 44.22 792.52 43.54 784.75 44 776.72 44.83 769.74 46.1 764.83 48.44 760.65 51.53 752.36 57.98 751.88 58.35 737.39 70.3 735.86 71.06 733.12 71.31 729.3 70.39 720.22 67.46 715.52 67.26 710.66 68.65 704.53 71.25 702.33 72.7 700.13 74.37 698.36 77.36 695.54 82.39 693.85 85.62 690.97 91.12 687.3 98.31 684.11 104.33 681.47 109.1 675.53 114.52 665.86 121.7 662.13 124.46 644.22 137.67 631.8 146.82 626.86 150.34 622.79 154.31 619.24 157.93 617.75 160.02 615.32 167.41 614.2 172.37 612.06 177.29 605.99 186.28 595.97 199.92 589.38 208.86 586.14 214.24 585.41 217.69 586.05 229.9 586.44 231.27 585.56 234.59 583.74 240.48 581.32 244.56 580.51 246.02 579.3 248.2 578.67 248.83 578.07 249.44 574.17 251.17 570.94 252.4 568.25 252.64 565.56 253.24 563.41 254.54 561.46 257.06 561.32 257.23 559.22 259.51 556.32 264 553.79 267.85 552.74 268.76 550.14 269.38 540.88 269.2 539.48 269.51 537.42 270.07 534.84 271.44 531.72 273.19 529.01 277 525.06 282.69 520.95 286.29 518.81 287.93 514.73 290.81 512.19 292.62 508.09 297.75 504.98 302.15 503.79 305.26 503.35 307.33"/><polyline class="cls-28" points="502.27 312.28 501.22 317.17 503.31 320.14"/></g><rect class="cls-32" x="-5031" y="-5116" width="11720" height="11720"/></svg>