<svg id="_15zoom" data-name="15zoom" xmlns="http://www.w3.org/2000/svg" xmlns:xlink="http://www.w3.org/1999/xlink" viewBox="0 0 1024 1024"><defs><style>.cls-1,.cls-12,.cls-14,.cls-26,.cls-40,.cls-5{fill:#231815;}.cls-1,.cls-11,.cls-13,.cls-16,.cls-18,.cls-2,.cls-21,.cls-25,.cls-3,.cls-36,.cls-4,.cls-41,.cls-47,.cls-8{stroke:#231815;}.cls-1,.cls-10,.cls-11,.cls-13,.cls-16,.cls-17,.cls-18,.cls-2,.cls-21,.cls-25,.cls-3,.cls-36,.cls-4,.cls-41,.cls-43,.cls-44,.cls-45,.cls-47,.cls-8,.cls-9{stroke-miterlimit:10;}.cls-1,.cls-13,.cls-21{stroke-width:2.4px;}.cls-13,.cls-2,.cls-20,.cls-25,.cls-3,.cls-36,.cls-38,.cls-4{fill:#fff;}.cls-2,.cls-41{stroke-width:2px;}.cls-3,.cls-47{stroke-width:2.11px;}.cls-4{stroke-width:2.4px;}.cls-5{font-size:18px;}.cls-14,.cls-20,.cls-26,.cls-40,.cls-5{font-family:NotoSansMonoCJKjp-Regular-90ms-RKSJ-H, Noto Sans Mono CJK JP;}.cls-6{letter-spacing:0.25em;}.cls-7{font-size:12px;}.cls-10,.cls-11,.cls-16,.cls-17,.cls-18,.cls-21,.cls-41,.cls-43,.cls-44,.cls-45,.cls-47,.cls-48,.cls-8,.cls-9{fill:none;}.cls-10,.cls-16,.cls-17,.cls-8,.cls-9{stroke-linecap:round;}.cls-8{stroke-width:5.27px;}.cls-9{stroke:#a73766;}.cls-10,.cls-9{stroke-width:2.64px;}.cls-10{stroke:#006b4b;}.cls-11{stroke-width:3px;}.cls-14{font-size:18px;}.cls-15,.cls-24{font-size:12px;}.cls-16{stroke-width:5.27px;}.cls-17{stroke:#00ada9;stroke-width:2.64px;}.cls-18{stroke-width:3px;}.cls-19{clip-path:url(#clip-path);}.cls-20{font-size:28.8px;}.cls-22{letter-spacing:1.07em;}.cls-23{letter-spacing:0.57em;}.cls-24{letter-spacing:0.1em;}.cls-25{stroke-width:4px;}.cls-26{font-size:15px;}.cls-27{letter-spacing:-0.04em;}.cls-28{letter-spacing:0.03em;}.cls-29{letter-spacing:0.03em;}.cls-30{letter-spacing:0.02em;}.cls-31{letter-spacing:-0.01em;}.cls-32{letter-spacing:-0.02em;}.cls-33{letter-spacing:-0.03em;}.cls-34{letter-spacing:0.26em;}.cls-35{font-size:9px;}.cls-36{stroke-width:4px;}.cls-37{letter-spacing:0.5em;}.cls-39{clip-path:url(#clip-path-2);}.cls-40{font-size:15px;}.cls-42{opacity:0.5;}.cls-43,.cls-44,.cls-45{stroke:#e60012;stroke-width:20px;}.cls-44{stroke-dasharray:10.27 10.27;}.cls-45{stroke-dasharray:10.04 10.04;}.cls-46{clip-path:url(#clip-path-3);}</style><clipPath id="clip-path"><path id="_クリッピングパス_" data-name="&lt;クリッピングパス&gt;" class="cls-1" d="M888.86,408.34a15,15,0,0,0-15,15h0a15,15,0,0,0,15,15h21v-30Z"/></clipPath><clipPath id="clip-path-2"><rect id="_長方形_" data-name="&lt;長方形&gt;" class="cls-2" x="123.23" y="445" width="180" height="50"/></clipPath><clipPath id="clip-path-3"><rect id="_長方形_2" data-name="&lt;長方形&gt;" class="cls-3" x="386.01" y="49.93" width="200" height="50"/></clipPath></defs><title>3235_7149</title><rect id="_長方形_3" data-name="&lt;長方形&gt;" class="cls-4" x="608.69" y="43.46" width="240" height="60"/><text class="cls-5" transform="translate(658.94 66.94)">南部幹<tspan class="cls-6" x="54" y="0">線(</tspan><tspan x="90" y="0">快</tspan><tspan class="cls-6" x="108" y="0">速</tspan><tspan x="130.5" y="0">)</tspan><tspan class="cls-7"><tspan x="-38.25" y="16.32">(local bus)South Shuttle line(Rapid)</tspan></tspan></text><line class="cls-8" x1="668.69" y1="91.46" x2="788.69" y2="91.46"/><line class="cls-9" x1="668.69" y1="91.46" x2="788.69" y2="91.46"/><rect id="_長方形_4" data-name="&lt;長方形&gt;" class="cls-4" x="515.7" y="506.44" width="240" height="60"/><text class="cls-5" transform="translate(565.95 529.91)">南部幹<tspan class="cls-6" x="54" y="0">線(</tspan><tspan x="90" y="0">普</tspan><tspan class="cls-6" x="108" y="0">通</tspan><tspan x="130.5" y="0">)</tspan><tspan class="cls-7"><tspan x="-38.25" y="16.32">(local bus)South Shuttle line(local)</tspan></tspan></text><line class="cls-8" x1="575.7" y1="554.44" x2="695.7" y2="554.44"/><line class="cls-10" x1="575.7" y1="554.44" x2="695.7" y2="554.44"/><line class="cls-11" x1="728.69" y1="103.46" x2="945.29" y2="223"/><path class="cls-12" d="M961.14,231.75c-9-1.35-20.85-1.74-29.35.1l11.42-10,2.37-15C948.56,215,955.21,224.87,961.14,231.75Z"/><line class="cls-11" x1="635.7" y1="506.44" x2="801.01" y2="451.95"/><path class="cls-12" d="M818.2,446.28c-7.1,5.67-15.45,14.1-19.88,21.58l.43-15.17-9.37-11.93C797.39,444.14,809.12,446,818.2,446.28Z"/><rect id="_長方形_5" data-name="&lt;長方形&gt;" class="cls-13" x="246.58" y="236.39" width="240" height="60"/><text class="cls-14" transform="translate(339.58 259.87)">佐治線<tspan class="cls-15"><tspan x="-33" y="16.32">(local bus)Saji line</tspan></tspan></text><line class="cls-16" x1="306.58" y1="284.39" x2="426.58" y2="284.39"/><line class="cls-17" x1="306.58" y1="284.39" x2="426.58" y2="284.39"/><line class="cls-18" x1="366.58" y1="296.4" x2="325.95" y2="337.97"/><path class="cls-12" d="M313.29,350.92c3.7-8.31,7.23-19.63,7.72-28.31l6.6,13.66,13.81,6.28C332.75,343.24,321.51,347,313.29,350.92Z"/><path id="_クリッピングパス_2" data-name="&lt;クリッピングパス&gt;" class="cls-12" d="M888.86,408.34a15,15,0,0,0-15,15h0a15,15,0,0,0,15,15h21v-30Z"/><g class="cls-19"><text class="cls-20" transform="translate(880.46 432.92)">66</text></g><path id="_クリッピングパス_3" data-name="&lt;クリッピングパス&gt;" class="cls-21" d="M888.86,408.34a15,15,0,0,0-15,15h0a15,15,0,0,0,15,15h21v-30Z"/><path class="cls-13" d="M1098.86,408.34h-189v30h189a15,15,0,0,0,15-15h0A15,15,0,0,0,1098.86,408.34Z"/><text class="cls-14" transform="translate(939.86 430.18)"><tspan class="cls-22">用</tspan><tspan class="cls-23" x="37.2" y="0">瀬</tspan><tspan class="cls-24" x="65.4" y="-2.28">Mochigas</tspan><tspan class="cls-15" x="123" y="-2.28">e</tspan></text><line class="cls-13" x1="866" y1="357" x2="1005.86" y2="408.34"/><circle class="cls-25" cx="866" cy="357" r="10"/><path id="_クリッピングパス_4" data-name="&lt;クリッピングパス&gt;" class="cls-12" d="M840.62,577.16a15,15,0,0,0-15,15h0a15,15,0,0,0,15,15h21v-30Z"/><path id="_クリッピングパス_5" data-name="&lt;クリッピングパス&gt;" class="cls-21" d="M840.62,577.16a15,15,0,0,0-15,15h0a15,15,0,0,0,15,15h21v-30Z"/><path class="cls-13" d="M1050.62,577.16h-189v30h189a15,15,0,0,0,15-15h0A15,15,0,0,0,1050.62,577.16Z"/><text class="cls-26" transform="translate(867.19 596.36)"><tspan class="cls-27">用</tspan><tspan class="cls-28" x="14.38" y="0">瀬</tspan><tspan class="cls-29" x="29.79" y="0">小</tspan><tspan class="cls-30" x="45.24" y="0">運</tspan><tspan class="cls-31" x="60.47" y="0">動</tspan><tspan class="cls-32" x="75.32" y="0">公</tspan><tspan class="cls-33" x="90.03" y="0">園</tspan><tspan class="cls-34" x="104.59" y="0">前</tspan><tspan class="cls-35" x="123.43" y="-2.28">(Mochigase E.S.)</tspan></text><line class="cls-13" x1="834" y1="504" x2="957.62" y2="577.16"/><circle class="cls-36" cx="834" cy="504" r="10"/><path id="_クリッピングパス_6" data-name="&lt;クリッピングパス&gt;" class="cls-12" d="M650.76,205.46a15,15,0,0,0-15,15h0a15,15,0,0,0,15,15h21v-30Z"/><path id="_クリッピングパス_7" data-name="&lt;クリッピングパス&gt;" class="cls-21" d="M650.76,205.46a15,15,0,0,0-15,15h0a15,15,0,0,0,15,15h21v-30Z"/><path class="cls-13" d="M860.76,205.46h-189v30h189a15,15,0,0,0,15-15h0A15,15,0,0,0,860.76,205.46Z"/><text class="cls-14" transform="translate(683.76 227.3)">用瀬駅<tspan class="cls-37" x="54" y="0">前</tspan><tspan class="cls-15" x="81" y="-2.28">(Mochigase Sta.)</tspan></text><line class="cls-13" x1="917" y1="304" x2="767.76" y2="235.46"/><circle class="cls-25" cx="917" cy="304" r="10"/><rect id="_長方形_6" data-name="&lt;長方形&gt;" class="cls-38" x="123.23" y="445" width="180" height="50"/><g class="cls-39"><text class="cls-40" transform="translate(153.23 463.74)">佐治線フリー乗降<tspan x="7.5" y="20">栃</tspan><tspan class="cls-6" x="22.5" y="20">原-</tspan><tspan x="52.5" y="20">中学校前</tspan></text></g><rect id="_長方形_7" data-name="&lt;長方形&gt;" class="cls-41" x="123.23" y="445" width="180" height="50"/><g id="江波デマンド"><g class="cls-42"><line class="cls-43" x1="979.83" y1="-7.02" x2="983.85" y2="-4.05"/><polyline class="cls-44" points="992.66 1.09 994.95 2.05 999.07 3.85 1001.05 4.75 1031.49 19.77 1049.15 28.28 1051.66 29.5 1067.27 38.07 1083.88 46.79 1094.63 52.54 1107.01 58.9 1108.97 59.97 1116.98 64.08 1127.99 68.81 1136.91 71.25 1146.22 73.46 1149.16 73.77 1162.1 75.13 1190.23 76.59 1201.83 75.98 1214.01 73.21 1220.94 70.61 1237.04 63.19 1254.46 55.66"/></g></g><g id="佐治4"><g class="cls-42"><polyline class="cls-45" points="-1186.46 674.2 -1184.46 674.32 -1175.17 674.97 -1169.88 674.95 -1164.52 674.37 -1144.17 669.92 -1140.44 668.75 -1136.83 667.12 -1129.29 663.61 -1124.09 661.38 -1120.22 659.91 -1116.15 658.07 -1106.86 653.57 -1096.77 649.05 -1091.95 646.68 -1088.79 644.88 -1085.41 642.94 -1067.17 633.29 -1056.16 628.33 -1036.17 620.76 -1028.49 618.34 -1021.29 615.71 -1002.12 608.91 -994.48 604.48 -983.82 602.16 -971.71 599.83 -958.71 596.5 -943.53 592.67 -934.38 590.15 -923.68 587.9 -914.68 585.53 -908.51 583.22 -900.96 580.54 -899.02 580.06 -888.24 577.11 -875.2 575.4 -870.45 575.4 -865.91 575.4 -865.05 575.63 -863.05 576.2 -857.13 577.97 -854.4 578.6 -850.73 579.4 -841.76 581.34 -839.52 581.45 -834.57 582.36 -823.2 583.05 -819.1 583.42 -807.56 593.94 -802.93 595.54 -797.98 594.74 -777.87 585.64 -748.16 570.47 -743.86 570.15 -733.15 571.43 -725.17 571.27 -710.16 566.48 -660.82 546.84 -636.71 532.63 -632.65 531.95 -620.43 537.5 -591.63 546.61 -588.83 547.5 -584.11 546.84 -579.79 545.58 -568.63 543.31 -557.82 540.35 -547.8 536.25 -541.31 533.18 -533.22 527.03 -517.13 514.08 -509.77 508.36 -502.49 504.71 -487.11 497.88 -481.76 497.43 -474.71 498.22 -442.75 517.13 -435.69 518.87 -426.37 519.13 -408.93 513.67 -378.7 498.75 -364.86 490.1 -349.27 475.31 -330.63 466.66 -310.12 454.94 -301.26 449.34 -295.21 443.23 -287.13 437.91 -284.69 436.3 -274.04 428.71 -267.11 424.18 -252.47 420.99 -246.81 419.02 -218.86 404.76 -211.77 400.61 -200.89 391.64 -164.84 353.46 -158.62 347.95 -140.77 335.2 -103.45 314.26 -50.19 287 -38.89 284.01 -14.75 284.83 13.78 285.79 20.44 286.82 79.03 306.8 99.6 306.21 106.25 307.24 124.14 317.2 144.37 326.2 158.04 328.4 178.9 326.48 223.27 320.55 237.04 319.52 252.73 320.41 269.15 323.08 286.45 328.03 291 332.22 313.29 350.92 335.55 381.82 337.27 384.41 342.73 390.23 355.13 401.2 364.97 409.32 384.64 420.87 388.6 423.39 403.88 431.27 420.28 440.1 431.67 441.96 446.49 442.11 456.84 441.47 470.57 437.4 473.21 436.69 481.73 435 490.44 432.54 504.05 428.6 507.22 427.58 525.91 422.11 542.43 417.04 551.18 414.31 561.68 411.25 566.8 409.69 567.67 409.46 582.3 405.85 588.26 404.37 603.84 400.67 622.91 395.99 634.59 393.22 645.57 390.45 677.08 383.52 683.66 381.16 689.2 377.89 694.5 374.22 702.58 367.59 706.74 363.39 720.88 348.75 723.42 346.67 727.81 344.31 732.88 342.13 734.5 341.44 759.75 333.62 770.05 330.3"/><line class="cls-43" x1="774.83" y1="328.75" x2="779.59" y2="327.22"/></g></g><rect id="_長方形_8" data-name="&lt;長方形&gt;" class="cls-38" x="386.01" y="49.93" width="200" height="50"/><g class="cls-46"><text class="cls-40" transform="translate(396.01 68.67)">鷹狩以北に通過停留所あり<tspan x="-7.5" y="20">鷹</tspan><tspan class="cls-6" x="7.5" y="20">狩,</tspan><tspan x="37.5" y="20">用瀬駅</tspan><tspan class="cls-6" x="82.5" y="20">前,</tspan><tspan x="112.5" y="20">用瀬に停車</tspan></text></g><rect id="_長方形_9" data-name="&lt;長方形&gt;" class="cls-47" x="386.01" y="49.93" width="200" height="50"/><rect class="cls-48" x="-5031" y="-8188" width="11720" height="11720"/></svg>