<svg id="routes" xmlns="http://www.w3.org/2000/svg" xmlns:xlink="http://www.w3.org/1999/xlink" viewBox="0 0 1024 1024"><defs><style>.cls-1,.cls-3,.cls-4,.cls-5,.cls-6,.cls-7,.cls-8{fill:none;}.cls-2{clip-path:url(#clip-path);}.cls-3,.cls-6,.cls-8{stroke:#231815;}.cls-3,.cls-4,.cls-5,.cls-6,.cls-7,.cls-8{stroke-linecap:round;stroke-miterlimit:10;}.cls-3,.cls-5,.cls-7{stroke-width:8.79px;}.cls-4{stroke:#aace36;}.cls-4,.cls-6,.cls-8{stroke-width:4.4px;}.cls-5{stroke:#718cc7;}.cls-6{stroke-dasharray:0 29.16;}.cls-7{stroke:#a97443;}.cls-8{stroke-dasharray:0 29.43;}</style><clipPath id="clip-path"><rect class="cls-1" x="-7079" y="-3068" width="11720" height="11720"/></clipPath></defs><title>3230_7151</title><g class="cls-2"><g id="日ノ丸線"><g id="百谷"><path class="cls-3" d="M32.3,1142.64l.82,1.3.46,1.26.34,1.57,0,1.77-.24,1.84-1.95,8.49-2.56,8-1.13,2.63-1.71,4-2.44,5.77-5.09,12-.8,2.42V1196l.33,2.6.29,2.32.18,1.46L20,1216.44l.15,2.6.06.8-.44,3.49-.88,3.67-.89,3.74-1,4-.47,2L15.35,1242l-1.43,6.39-.33,1.79L12.5,1255l-1.2,5.31-.77,3.9-.39,1.94-1.65,6.45-.73,2.89-1.13-.73-7.9-5.14c-5.29-3.47-10.47-7.38-15.86-10.88-2.71-1.75-5.3-3.61-7.92-5.44l-7.86-5.5-15.67-11c-1.21-.91-2.38-1.73-3.62-2.72l-3.72-2.92-3.92-3.08c-1.31-1.07-2.68-2-4-3l-4.1-2.92-4-2.8-8-5.54-15.89-11-4-2.73-4-2.86c-1.33-1-2.74-1.85-4.11-2.78l-4.63-3.07-6.89-3.6-6.39-2.45-6.09-1.24-2.53-.52-3-1.4c.27.45-2.6-3.84-3.14-4.63l-1.59-3.06-.94-1.82-.5-1-.78-1.37-1.54-2.75-.78-1.38-.39-.68-.49-.7-2-2.81-.5-.7-.25-.35-.13-.18a1.63,1.63,0,0,0-.19-.09l-1.58-.65c-1.06-.43-2.11-.9-3.18-1.3l-3.22-1.15-4.21-1.52c-1.28-.44-2.54-.91-3.76-1.4l-4.24-1.66-10.33-3-7.24-1.4c-2.21-.47-4.56-.75-6.86-1.11-4.49-.65-8.92-1.4-13.47-1.89l-13.19-1.55c-4.36-.49-8.71-1.22-13.07-1.81l-13.27-1.91c-2.28-.37-4.51-.59-6.74-.8l-6.69-.68-27.15-2.77m321.21,6.53.85-.36,5.72-2.94,1.26-.57,10.8-4.88,2.78-1.19,18.49-7.84,6.44-2.88,6-2.7,1.64-.73,6.31-2.73,10.77-6.46,11.32-7.56,2.45-1.89,2.44-2,10.6-9.82,6.08-6.55,3.93-4.23,2.32-4.11,2.88-4.33,2.71-3.4,3.4-3.14,2.5-1.79,6.25-4,2.64-2.16,16.54-14.69,4.18-3.56,4.7-2.81,3.47-2,1.45-1,13-4.84,8.12-2.68,5.26-1.78,6.67-1.88,4.08-.08,2.9,0,11.05.39,14.27.24,10.21.63,17.9.06,14.22.19,3.35-.46,9.62-.61,6.25-1.27,5.7-1.51,4.39-2.38,6.1-4.19,5.92-6.47,1.59-2.82,9.81-14.88,1.33-2,4.64-7,8.55-10,8.54-8.13,6.92-5.19,3.45-2.6,13.85-10.19,4.37-4.55,4.41-5.73,8.08-10.47,10-10.52,18.88-15.06,12-9.72,7.46-4.42,7.37-2.77,10.18-2.2L495.43,873l8-2.86,5-2.82,7.42-5.12L522,858l3.95-3,15.63-10.19,5.12-2.48,7.28-4.8,4-3.84,2.21-4.88.42-5.08-1-4.69-1-2.77-3.15-8-.42-4,1.45-28.49,0-8.13,0-7.65-1.41-9.39-2.39-12-6.39-16.34-2.72-7.08-9-23.2-.19-.93-1-5L532,677l-.19-6.82.75-8.86,2.34-10.59,1.94-4.72-3.16-2.48-4.9-3.5-10.85-5-6.3-2.27-7.06-.84-8.82-.67-4-1.18-2.6-1.34-2.6-1.43L484.32,625l-1.85-3.53L481.13,618l-.26-4.37.93-14.54,1.43-27.73-.34-6-1.36-15.52-.62-8-1.37-4.9-4.91-7.72L468.87,521,467,518.06l-2-2.76-2.29-3.83-1.81-2.21-1.56-2.3-3.56,1.79-2.51,1.57"/><path class="cls-4" d="M32.3,1142.64l.82,1.3.46,1.26.34,1.57,0,1.77-.24,1.84-1.95,8.49-2.56,8-1.13,2.63-1.71,4-2.44,5.77-5.09,12-.8,2.42V1196l.33,2.6.29,2.32.18,1.46L20,1216.44l.15,2.6.06.8-.44,3.49-.88,3.67-.89,3.74-1,4-.47,2L15.35,1242l-1.43,6.39-.33,1.79L12.5,1255l-1.2,5.31-.77,3.9-.39,1.94-1.65,6.45-.73,2.89-1.13-.73-7.9-5.14c-5.29-3.47-10.47-7.38-15.86-10.88-2.71-1.75-5.3-3.61-7.92-5.44l-7.86-5.5-15.67-11c-1.21-.91-2.38-1.73-3.62-2.72l-3.72-2.92-3.92-3.08c-1.31-1.07-2.68-2-4-3l-4.1-2.92-4-2.8-8-5.54-15.89-11-4-2.73-4-2.86c-1.33-1-2.74-1.85-4.11-2.78l-4.63-3.07-6.89-3.6-6.39-2.45-6.09-1.24-2.53-.52-3-1.4c.27.45-2.6-3.84-3.14-4.63l-1.59-3.06-.94-1.82-.5-1-.78-1.37-1.54-2.75-.78-1.38-.39-.68-.49-.7-2-2.81-.5-.7-.25-.35-.13-.18a1.63,1.63,0,0,0-.19-.09l-1.58-.65c-1.06-.43-2.11-.9-3.18-1.3l-3.22-1.15-4.21-1.52c-1.28-.44-2.54-.91-3.76-1.4l-4.24-1.66-10.33-3-7.24-1.4c-2.21-.47-4.56-.75-6.86-1.11-4.49-.65-8.92-1.4-13.47-1.89l-13.19-1.55c-4.36-.49-8.71-1.22-13.07-1.81l-13.27-1.91c-2.28-.37-4.51-.59-6.74-.8l-6.69-.68-27.15-2.77m321.21,6.53.85-.36,5.72-2.94,1.26-.57,10.8-4.88,2.78-1.19,18.49-7.84,6.44-2.88,6-2.7,1.64-.73,6.31-2.73,10.77-6.46,11.32-7.56,2.45-1.89,2.44-2,10.6-9.82,6.08-6.55,3.93-4.23,2.32-4.11,2.88-4.33,2.71-3.4,3.4-3.14,2.5-1.79,6.25-4,2.64-2.16,16.54-14.69,4.18-3.56,4.7-2.81,3.47-2,1.45-1,13-4.84,8.12-2.68,5.26-1.78,6.67-1.88,4.08-.08,2.9,0,11.05.39,14.27.24,10.21.63,17.9.06,14.22.19,3.35-.46,9.62-.61,6.25-1.27,5.7-1.51,4.39-2.38,6.1-4.19,5.92-6.47,1.59-2.82,9.81-14.88,1.33-2,4.64-7,8.55-10,8.54-8.13,6.92-5.19,3.45-2.6,13.85-10.19,4.37-4.55,4.41-5.73,8.08-10.47,10-10.52,18.88-15.06,12-9.72,7.46-4.42,7.37-2.77,10.18-2.2L495.43,873l8-2.86,5-2.82,7.42-5.12L522,858l3.95-3,15.63-10.19,5.12-2.48,7.28-4.8,4-3.84,2.21-4.88.42-5.08-1-4.69-1-2.77-3.15-8-.42-4,1.45-28.49,0-8.13,0-7.65-1.41-9.39-2.39-12-6.39-16.34-2.72-7.08-9-23.2-.19-.93-1-5L532,677l-.19-6.82.75-8.86,2.34-10.59,1.94-4.72-3.16-2.48-4.9-3.5-10.85-5-6.3-2.27-7.06-.84-8.82-.67-4-1.18-2.6-1.34-2.6-1.43L484.32,625l-1.85-3.53L481.13,618l-.26-4.37.93-14.54,1.43-27.73-.34-6-1.36-15.52-.62-8-1.37-4.9-4.91-7.72L468.87,521,467,518.06l-2-2.76-2.29-3.83-1.81-2.21-1.56-2.3-3.56,1.79-2.51,1.57"/></g></g><g id="日交線"><g id="岩井"><path class="cls-5" d="M2562.68-651.13l12.05,6.59,8.5,4.36,2.75,1.78,11.06,5.18,8.51,4.58,2,.61,36,18.88.25.13,14,6.81,15.1,7.93,1.46.76,14.18,6.72,16.59,9.34,19,13.35,1.17.81,5.51,2.84,9.05,4.29.45.22,1.65.6.89.36,36.19,12.06,4.42,2.11,5.5,5.14,3.81,4.35,6.36,7.64,3.83,5.12,5.21,5,6.66,5.12,26.44,19.76,8,6.56,3.17,3.54,2.6,4,1.56,2.15,2.61,5.94,1.18,5.29,1.17,14.68.77,4.59,1.37,3,1.44,2.37,2.47,2.07,1.7.88,3.3,1,6.55,1.43,22,3.82,2.1.21,10,1.42,8.67,1.57,1.91.59,3.5,1.09,6.51,3.36,6.7,4.87,11.54,8.08,5.84,4.26c-.12-.58-.24-1.15-.34-1.73l-1.11-5.68-3.64-7.87-4.59-6.25-5.45-7.16-10.63-14-13.89-15.72-25-33.7L2883-515.92c-1.62-3.47-3.11-7-4.74-10.45L2873-537.6l-3-11.08-.18-13.11-.9-7.15-1.07-4.77c-.22-.88-.51-1.73-.76-2.6l-.46-1.53-1.22-2.35-1.13-1.55-1-1.42-3.16-3.08-4.15-3M1046.27-1400.64l-2.78,14.72-6.34,26.35-.71,2.82-.55,2.2-5.69,23.65-.19.79-2.42,10-4.52,19.87,18,4.66,5.72,1.48,5.46,1.41,20,5.55,15.38,4.26-2.4,10.83-.35,1.6-2.16,7.92-.62,2.32-2.41,8.85-3.6,13.23-1.54,5.67-5.93,21.85L1066-1200l0,2.56,1.41,14.87-.24,3.51-3.45.46-30.1,2.87-16.8,1.44-2,.16-32.31,3.55L961.23-1169l-15.36,1.3-4.12-.19-7.17,1-4.92,1.24L924-1163l-5.4,4-4.08,3.6-3.75,3.75-3.69,3.8-3.09,3.6-2.2,2.77-1,2.23-1.93,4.5-.43,1.59-2.19,8.17-.57,6-.07,5.6.32,4,.8,5,1.38,6,1.29,5.46,1.12,4.64,1.08,4.55,1,6,0,4.64-.29,6.32-.74,5.82-1.36,5.85-1.74,6.26-2.13,7.6-2.55,6.65-2.54,6.5-1.79,5.33-.85,4.72-.19,4.78.57,4.81,1.64,4.55,1.35,2.53.24.46,1.78,2.4,3.3,3.76,2.83,2.14,3,1.93,6.24,3.13,8.27,1.48,9.46,1.27,10.09,1.54,5.53.94,1.09.19,7.66,2.34-1.91,3.29-1.81,2.13-2.87,1.16-4.24.86-.8,0-3.45-.08-3.82-1-3.37-2.06-4.32-2.29-3.24-.57-3.88.69-3.55,1.46-3.63,1.85-.89.45-4.5,1.4-4.83,1.14-5.32.55-4.25.28-2.5.17-5.34,1.19-5.44,2.28L870.76-963l-6.24,3.21-6.12,4.26-5.95,5.82-5.48,6-6.16,7.12-11.59,12.56-29.63,35.07-38.33,50-9.72,8.65-8.21,4.86-8.64,6.76-5.23,6.8-4.07,5.07-6.13,6.08-3.6,2.09-6.78,2.67L702-793.34,691.92-790l-8.73,2.89L679-783.79l-3.33,3-4.75,6.49-4.41,6.08-2.59,2.09-2,4.24L658-756l-5.56,9.35-9,14.57-4.72,7.63-6.75,10.94-7,11.37-5.36,10.26-3.94,9.9-3.1,7.21L611-669.47l-.76,4.5-.18,2.91.12,1,.63,3.26,1.08,3.42,1.3,3.93,4.12,9.93,1.12,2,1.94,3.09,1.57,2.29,13.57,14.58,3.71,6.57,4.38,10.33,7.47,26.09,3.93.07,1.54.77L658-573.4l1.12,2.3,1.06,3.2.87,2.33,3.88,8.92,4.63,10.54,3.35,8.91.88,3.08,1.23,4.45,2.46,18.35,1.69,9.31,1.48,5.51,10.72,25.6,8.7,18.59,9.22,20.38,9.28,17.18,6.32,9.06,6.79,6.44,5.12,6.72,3.49,4.45,2.09,3.13,2.11,4.4,1.54,6.18.23,1,4,15.13L753-347.48l3,9-4.08-.49-19.86-6.27-17.56-5.56-1-.3-4.33-1.45-1.45-.51-11-3.89-6.58-2.61-9-6.14-10.42-9.15-1.23-1.21-6.31-4-26.58-18.43L627-404.68l-5.65-3.7-9.43-6.25-11.17-6.74-18.91-11.39-12.43-7.59-6.9-4.22-2.9-3-.54-.56-2.9-4.15-5.44,4-7.59,3.66-7.55,3-6.86,2.44-4.88,1.38-7.16,1.28-4.65.84-30.76,6.13-9,1.93-9.81,2.11-9.92,2.15-9,1.65L435-419l-6.84,1.34-3.92.44-3.31.37-6.73.34-6.22-.38-7-1-9.87-.55-6,.1-4.35.29-1,.07-5.71.93L369.4-416,362-414.6l-15.09,2.89-8.33,2.27-5.61,1.78-9.5,4.45L312.36-398l-5.83,2.68-.73.34-20.36,9.92-7.31,3.54-6.67,3.08-8.82,3.85-6.57,3.1-9.54,4.42-8.64,4.27-29,13.56-2.5,1-1.79.69-6,1.29-5.69-.16-4.17-.43-1.37-.15-11.08-2.15-13.31.1-4.06,1.41-4.22,1.54L150.42-343l-3.13,2.58-2.63,2.77-3.48,5.33-6.46,13.74-3.78,6.23-3.78,4.68-7.36,6.15L115.59-299l-5.35,3.41L88.07-281.38,55.73-263.12,37.92-252.21l-19.8,12-6.58,3.13L8.2-235.74l-5.27,2.1-11,3.18-5.53,1.05-9.53,2.09-9.24.75-4.41-.05h-1.52l-5.09-.25-9-.89-6.25-.89-16.09-5.22L-80-235.51l-11.65-3.58-7.6-2.43-3.83-1.22-6.59-2.16-10.58-4-6.7-1.64-6.06-.76-6.31-.43-14,2.68-14.21,3.42-9.32,2.24-23.84,6.86L-212-233l-6.41,4.32L-222-223.3l-3.58,7.3-4.32,13.26-3.43,8.79-4,5.81-6,4.92-6.26,3-8.64.86-10.66-.19-44.2-.13-2.9-.45-15.43-.62-9.76,5.84c-3.2,0-6.45,0-9.69.08l-18.9.31-2.39.5-5.53,1.88-4.6,2.29-4.38,2.79-3.07,2.59-2.6,2.65-7.28,9.12-.08.1-13.37,16.05-6.76,8.06-3.38,4c-1.13,1.34-2.36,2.63-3.53,4l-7.1,7.86-1.78,2-1.85,1.87-3.72,3.73c-5,5-9.9,10-14.91,14.85q-15.06,14.67-30.55,28.69l-15.42,14.08-7.58,7.24c-1.24,1.23-2.61,2.37-3.92,3.54l-3.37,3-2.69,4.11-2,3.65-3.06,6.75-4.36,14.57-4.27,15.06-4.27,15.06-4.64,15.43-5.14,11.13c-.86,1.81-1.49,3.52-2.25,5.28-.36.88-.63,1.72-1,2.58l-.75,2.26-.4,2.81.09,3,.63,3.47,1,2.86,9.8,21.17c1.63,3.6,3.37,7.12,4.91,10.77l4.78,11.08,2,5.73c.33.92.64,1.85.89,2.84l.82,3c.47,2,1,3.89,1.39,5.84l1.06,6,.85,8.8.71,8.58,1.43,17.09,1.54,17.09c.26,2.82.47,5.8.71,8.7l.36,8.94-.25,5.47-1.82,9c-1.79,4.58-2.67,6.63-4.47,11.05l-3.46,5.71-3.44,5-6.88,10.1-.27.37c-1.82,2.3-3.7,4.54-5.6,6.77l-2.86,3.37c-1,1.11-1.94,2.15-2.91,3.23-2,2.14-3.84,4.3-5.71,6.45l-5.84,6.72M1863.74-1201.26l24.85.62,22.94.56.71.12,1.39.24.74.81v1.59l-4.79,13.62-4.76,15.92-2,6.78-2.56,8-.78,2.47-1.68,6.29v3.61l.56,2.15.25,1,2,3,1.68,1.39,1.67.93,5.72,2.66,6.22,3.29,5.56,4.4,7,8,.72.91,1.45,1.82,4.85,6.12,4.19,6,1.44,1.73,6,7.23,13.25,16.83,22.45,28.67,8.16,11,13.16,15.71.24.31,12.09,15.57.18.23,7.11,9.15,4.54,5.23.93,1.17,19.5,24.71,1.69,2.15,17.12,21.68.54.66,7.47,8.91,1.71,2,5.07,6.37,4.58,4,10.46,9.81,2.21,3.68.25,2.94-.7,3.83-9,8.46,3.08,14.34.61,7.29,2.47,18.27.59,5.33.31,2.73,1.65,7,4.76,7.5L2108-820l6.8,4.34,7,3.44,8.13,2.86,12,2.18,14.66,1.39,14.31.18,13.53-.12,11.58,1.13,32.53,8.3,25.33,4.93,24.88,3.56,14.58,1.84,21.17,3.75,7.05-.12,8.08,1.4,8.69,1.92,19.22,6.49,6.35,2.6,16.87,9.63,8.83,4.65,1.78.68,11.29,4.31,6.08,3.34,4.31,3.47,4.57,4.46,5.77,5.49,4.5,4.69,1.77,1.75,10.72,9.76,7.25,6.87,8.16,4.68.79.45,9.19,5.12,2.43,1.22,12.51,6.5,6.54,3.36,4.57,2.86,7.51,3.56,10,5,15.55,8,10.51,5.47,13.11,6.15,9.48,5.3,4.7,2.06.37-2.07,1.66-7.9,1.92-8.46.2-1.09,3.1-10.71.4-1.19,5,.26,12.28,1.43,5,.76,4,.37,16.4,1.54,11.17,1.27,3.13.36,6.68.54,5.92,1,9.46,2.41,8.15,2.63,7.46,2.41,4.68,1.74,7.37,2.33,9.32,3.4,40,13.54,27.66,8.88,85.61,30,10.1,3.31,7.79,2.65,4.72,2.51,5.5,4,4.55,4.43,1.59,2.25,1.58,2.17,2.14,4.12,1.58,5.27,1.36,6,1.05,8.36.17,12.29,2.35,8.67,5.83,12.41,3.41,7.62,10.18,21.54,24,32.36L2941.31-452l16.18,21.26,5.58,7.58L2967.8-413l2.57,13.22,1.33,9,6.08,35.69,5.27,29.07,4.52,25,9.52,47.58,4.64,34.94.36,6,1.33,7.4,2.37,17.66L3008-171l8.25,50.65,2.66,24.64,1.33,12.57,2.2,13.79,2,5.72,2.9,5.19,3.09,4.15,5.18,5.15,8.18,4.92,8.74,2.67,5,.65,11.69,1.51,4.58.6,7.9,1.9,6.18,2.58,13.2,7.34,13.79,8.54,17.6,11.22,5.4,4.15,59.6,43.56L3214,49.75l41,20.33,25.87,9.35,10.93,7,56.78,55.06,15.15,18.35,9.69,15.49,11.48,12.95,12.49,8.53,12,4.75,1.23,10,1.51,6.93,1.22,6.09,2.05,10,.51,5.15-.32,11.13-.65,4.52-.82,3.72-6.22,26.09-2.28,14.51-.3,3.52-.24,4.12-.11,2.87-.3,3.34-.59,6.76-.7,35.16-.56,17.77-1.46,17.11-1.17,12.85L3395.66,419l-2.26,5.64-5.47,11.93-1.75,3.86-5.94,12.1-2.4,4.52-8,15-14.65,27.38-.61,1.14-2.88,5-3.06,5.78-2.11,4.86-.89,3-.21,1.69.16,3.23.63,3.06,4.83,15,8.52,25.8.32,1.6.33,7.73V599l.82,11.59.62,2.92,2.57,4.52,5.77,8.24,1.49,3.89,1.1,5.26.41,2.69.54,3.46-.16,5.47-1.45,9.18-.63,5.81v4.52l.5,6.29.62,2.58,2.73,6.78,2.58,5,6.9,7.09,27,22.12,3,1.91,1.74,1.46,8.2,3.86,11.06,3.69,7.71,3.72,14.6,5.15,2.89,1.29,4.17,2.92,2.26,2.09,1.26,1.77,3.16,4.43,2.19,1.72,2,.77H3479l4.17-.77,6.89-2.28,2.89-1.12,3.63-.29,2.29.72M935.13-1485.55l9.17-7.44,1.4-1.58-4.08-4-2.69-2.26-3.94-3.43-8.84,8.36,7.48,8.77,1.5,1.61,3.5,5.14,2.13,3.76.09.28,2.59,8.22,1.36,4.3,1.38,5.07,1.18,3.82.44,4.3-.27,5.17-.1,1.64-.62,5,.12.92.8.86,6.81,4,10.58,6.26,20.57,12.19,2.22,2,2,1.49,2.92,1,4.67.74,15.26,2.58,20.13,3.46,13.35,2.6,3.41.63,8.61,1.61.38.07,1.26.3,8.12,1.9,1.31.43,6.69,2.23.3.1L1080-1392l2.18.82,11.2,5.81,10,4,.17.06,8.09,2.55,5.44,1.5L1125-1375l10.15,2.7,7.46.45,12.81.59,1.75.54,9.22,2.1,16.52,4.72,5.18,2.59,2.84,1.43,7.8,3.94,4.69,2.46,4.58,3.35.6.53,2.42,2.12,1.34,1.74,1.22,3.16-.23,2.54,2.86-.16,2.65.61,8,3.67.78.39,5.05,2.55,5.54,2.81,5.5,2.49,22.64,10.65,7.29,2.26,16.4,4.06,15.52,3.87,22.56,5.42,12.2,2.55,11.76,3.17,20.87,4.67,6.58,2.37.22,0,4.29-.56,5.43-.26,11-.51,13.1-1,9.59-.77,4.91-.28,13.27-.76,3-.18,2.93-.17,2.87-.17,12.91-.51,6.15.88,6.78,1,5,2.06,5.72,1.79,4.48.82,5.27.29,8.12-1.44,4.67-2,8.07-4,9.78-5.44,13-7.13,12-6.63,15.29-8.41,9-4.84.5-.28,4.3-2.39,4.12-2.13,4.29-1.72,4.17-1,4.5-.59,3.44.47,5.72,1.58,5,1.11,6.93,1.48,5.42.9,5.15.73,5,.84,4.39.51,4,0,4.81-.6,4.51-1,4.29-1.09,4.2-2.33,4.34-2.27,3.23-3.14,3.57-3.83,3.31-5,3.32-5.86,7.35-14.49,7.33-14.56,7.44-14.82,3.17-5.18,5-8.43,2.71-5.56.17-.54,1.19-3.62,1.19-4.42.68-4.93.42-6-.24-4.69-.28-5.7,0-2.2-.06-2.91-.2-5.16.06-.76.26-3.41-.54-4.31-.33-3.35-.15-1.25-.93-5.86-.94-5.94-.68-5.27-.82-4.75-.42-5,.57-3.18,1.07-3.91,1.88-5.72,2.24-5.87.61-1.9,6.44-15.57,1.25-1.74,3.2,2,11.55,4.69,2,.78,12.57,5,1.79.62,10.36,3.92,13.54,4.87,7.69,2.09,3,.44,2.42,2.75,30.58,24.37,4.25,3.14,5.18,4.22,2,2.72,1.51,2.05,2.17,4.9,16.51-1.67-.18,40.53.11,4.27.1,3.62.47,9.8.27,4.86.46,6.38.08,1.3.38,8,.2,3.72.74,13.06.59,9.36.2,4.94.87,18.08.66,7.3.76,15.23.69,12.92.41,11.19,1.33,25,.27,3.2.1,7.06.26,18.27.27,13,.07,9.63.09,14.7-.2,21.22H1873M-810.9,278.49l7.49-2.81,3-1.15,5.47-1.74,9.85-2.93,5.47-1.9,8.46-2,17.74-5.29,32.26-10.86,7-2.64,8.56-2.63,12.65-3.13,9-1.51L-676,239l13.62-.59,4.05.22,7,.62,10.42,2,8.13,1.79,15.43,5.28,17,6.84,18.21,7.92,16.85,8.34,7.54,3.87m-136.42,144c20.51-22.56,5.11-6.16,26.15-28.22,22.73-23.83,45.08-48.17,67.95-71.82,12.09-12.49,25.15-24.08,37.74-36.06"/><path class="cls-6" d="M530-439.7l-1.33.47-4.88,1.38-7.16,1.28-4.65.84-30.76,6.13-9,1.93-9.81,2.11-9.92,2.15-9,1.65L435-419l-6.84,1.34-3.92.44-3.31.37-6.73.34-6.22-.38-7-1-9.87-.55-6,.1-4.35.29-1,.07-5.71.93L369.4-416,362-414.6l-15.09,2.89-8.33,2.27-5.61,1.78-9.5,4.45L312.36-398l-5.83,2.68-.73.34-20.36,9.92-7.31,3.54-6.67,3.08-8.82,3.85-6.57,3.1-9.54,4.42-8.64,4.27-29,13.56-2.5,1-1.79.69-6,1.29-5.69-.16-4.17-.43-1.37-.15-11.08-2.15-13.31.1-4.06,1.41-4.22,1.54L150.42-343l-3.13,2.58-2.63,2.77-3.48,5.33-6.46,13.74-3.78,6.23-3.78,4.68-7.36,6.15L115.59-299l-5.35,3.41L88.07-281.38,55.73-263.12,37.92-252.21l-19.8,12-6.58,3.13L8.2-235.74l-5.27,2.1-11,3.18-5.53,1.05-9.53,2.09-9.24.75-4.41-.05h-1.52l-5.09-.25-9-.89-6.25-.89-16.09-5.22L-80-235.51l-11.65-3.58-7.6-2.43-3.83-1.22-6.59-2.16-10.58-4-6.7-1.64-6.06-.76-6.31-.43-14,2.68-14.2,3.42-9.33,2.24-23.84,6.86L-212-233l-6.41,4.32L-222-223.3l-3.58,7.3-4.32,13.26-3.43,8.79-4,5.81-6,4.92-6.26,3-8.64.86-10.66-.19-44.2-.13-2.9-.45-15.43-.62-9.76,5.84c-3.2,0-6.45,0-9.69.08l-18.9.31-2.39.5-5.53,1.88-4.6,2.29-4.38,2.79-3.07,2.59-2.6,2.65-7.28,9.12-.08.1-13.37,16.05-6.76,8.06-3.38,4c-1.13,1.34-2.36,2.63-3.53,4l-7.1,7.86-1.78,2-1.85,1.87-3.72,3.73c-5,5-9.9,10-14.91,14.85q-15.06,14.67-30.55,28.69l-15.42,14.08-7.58,7.24c-1.24,1.23-2.61,2.37-3.92,3.54l-3.37,3-2.69,4.11-2,3.65-3.06,6.75-4.35,14.57-4.28,15.06-4.27,15.06-4.64,15.43-5.14,11.13c-.86,1.81-1.49,3.52-2.25,5.28-.36.88-.63,1.72-1,2.58l-.75,2.26-.4,2.81.09,3,.63,3.47,1,2.86,9.8,21.17c1.63,3.6,3.37,7.12,4.91,10.77l4.78,11.08,2,5.73c.33.92.64,1.85.89,2.84l.82,3c.47,2,1,3.89,1.39,5.84l1.06,6,.85,8.8.71,8.58,1.43,17.09,1.54,17.09c.26,2.82.47,5.8.71,8.7l.36,8.94-.25,5.47-1.82,9c-1.79,4.58-2.67,6.63-4.47,11.05l-3.46,5.71-3.44,5-6.88,10.1-.27.37c-1.82,2.3-3.7,4.54-5.6,6.77l-2.86,3.37c-1,1.11-1.94,2.15-2.91,3.23-.67.73-1.32,1.45-2,2.18"/></g><g id="快岩井"><path class="cls-7" d="M1394-1161.63l15.76-.32,12.28-.23,30.74-.19,12.32.09,12.14-.14,11.11-.66,10-1,10.39-1.52,9.91-1.38,20.26-3.73,9.29-2.06,10.51-2.61,14.22-4.4,14-5.34,28.19-12.38,28.77-15.81,23.37-16.81,22.6-17.88,25.69-25.13,24.46-29.77,24.91-31.86L1790.5-1365l7.51-7.7,15.48-16.58,7.72-7.5,17.08-13.47,8.58-5.07,3-1.2,4.7-1.69,11.71-.57.72,14.49.55,7.75.59,11.75,1.33,22.58.2,4.94.85,17.75.68,7.53,1.46,28.31.4,11.09,1.31,24.67.3,3.84.36,25.34.27,13,.08,13,37.28.91,6.91,1.21,6.5,7.07,0,8.16-5.36,15.26M-814.92,267.48l10.92-4.12,5.68-1.81,9.6-2.85,6.39-2.16,8.12-1.89,17.21-5.13,31.85-10.72,7.48-2.82,9.18-2.8,13.52-3.3,9.59-1.6,8.88-1,14.2-.63,5,.28,8.22.8,10.7,2.09,8.78,1.93,16.63,5.71,17.27,7,18.73,8.17,17,8.41,7.54,3.88,18.77,22.44,12.53,6.24,12.54,6.17,17.28,7.15,11.21,3.28,8.65,1.92,6.86,1.51,6.9.52,5.84.22,10.19-.28,7.39-1,11.15-2.25,11.94-3.84,9.59-4.05,5.54-2.46,8.79-4.83,9.3-5.58,4.82-3.73,11.57-9.28,6.56-6.75,9.14-10.3,69.68-82.1,56.5-66.5,5.47-6.44,21-24.28,6.82-7.87,53.14-62L-128.62,5l62.31-72.44,41.65-49.53,5.65-7,35.14-42.48,26.29-32.42,11.73-14.13,6.8-8.65,35-41.24,7.89-9.07L120.11-291l6.82-6.79,15.15-16.63L152-326.62,164.26-342l2.69-3.9,7.91-9.84,14.09-16,22.11-24.06,18.25-17.91,20-17.12,19.44-14.5,26.09-16.76,14-7.8,13.43-6.75,20.26-9.11,20.06-8L402-505.4l59.62-15.38,51-16.11,18.8-8.26,18.81-9.32,19.24-12.29,19.1-13.38,15-12.71,11-10.62,10.16-10.38L644.18-637l6.36-9,9.21-14.22,8.66-15.22L682-700.91l27.89-54.41,23.66-47,8-15.37,16.31-30.93,9.79-17.2,10.66-16.13,17.87-25.86,17.29-19,19.29-20,19.3-18.07,31.72-25.09,17.26-11,34.8-19.9,27.36-12.59L989.57-1044l28.88-11.46,13-5.64,30-11.23,5-1.75,44.43-15.8,32.39-11.41,69.66-24.91,31.7-9.76,31-7.81,28.21-6,19.27-3.59,11.53-2.09,30.29-3.88,9.2-1,19.73-1.31"/><polyline class="cls-8" points="-787.03 258.13 -782.33 256.54 -774.21 254.65 -757 249.51 -725.15 238.79 -717.67 235.99 -708.49 233.18 -694.97 229.88 -685.38 228.28 -676.5 227.29 -662.3 226.66 -657.27 226.94 -649.05 227.74 -638.35 229.83 -629.57 231.76 -612.94 237.47 -595.67 244.43 -576.94 252.6 -559.93 261.01 -552.39 264.89 -533.62 287.33 -521.09 293.57 -508.55 299.74 -491.27 306.89 -480.06 310.17 -471.41 312.09 -464.55 313.6 -457.65 314.12 -451.81 314.34 -441.62 314.06 -434.24 313.03 -423.08 310.78 -411.14 306.94 -401.55 302.89 -396.01 300.43 -387.22 295.6 -377.92 290.02 -373.1 286.29 -361.53 277.01 -354.97 270.26 -345.83 259.96 -276.15 177.86 -219.65 111.36 -214.18 104.92 -193.19 80.64 -186.37 72.77 -133.23 10.72 -128.62 5.03 -66.31 -67.42 -24.66 -116.94 -19 -123.91 16.13 -166.39 42.42 -198.81 54.15 -212.94 60.95 -221.59 95.9 -262.82 103.79 -271.9 120.11 -291.05 126.93 -297.84 142.08 -314.47 152.03 -326.62 164.26 -342 166.95 -345.9 174.85 -355.74 188.95 -371.76 211.06 -395.81 229.31 -413.73 249.3 -430.86 268.74 -445.35 294.83 -462.11 308.83 -469.91 322.26 -476.66 342.52 -485.77 362.58 -493.76 401.98 -505.4 461.6 -520.78 512.61 -536.89 531.41 -545.15 550.22 -554.47 569.46 -566.76 588.56 -580.14 603.59 -592.85 614.63 -603.47 624.78 -613.85 644.18 -636.98 650.54 -645.96 659.75 -660.18 668.41 -675.4 681.97 -700.91 709.86 -755.32 733.52 -802.3 741.54 -817.67 757.85 -848.6 767.64 -865.8 778.3 -881.92 796.17 -907.79 813.46 -926.81 832.75 -946.78 852.05 -964.85 883.77 -989.94 901.03 -1000.93 935.83 -1020.83 963.19 -1033.42 989.57 -1044.01 1018.46 -1055.47 1031.5 -1061.11 1061.49 -1072.34 1066.53 -1074.09 1110.96 -1089.89 1143.35 -1101.3 1213.01 -1126.21 1244.71 -1135.96 1275.72 -1143.78 1303.93 -1149.79 1323.2 -1153.38 1334.73 -1155.47 1365.02 -1159.35 1374.22 -1160.32 1379.27 -1160.66"/></g></g></g></svg>