<svg id="routes" xmlns="http://www.w3.org/2000/svg" xmlns:xlink="http://www.w3.org/1999/xlink" viewBox="0 0 1024 1024"><defs><style>.cls-1,.cls-10,.cls-3,.cls-4,.cls-5,.cls-6,.cls-7,.cls-8,.cls-9{fill:none;}.cls-2{clip-path:url(#clip-path);}.cls-3{stroke:#231815;stroke-width:8.79px;}.cls-10,.cls-3,.cls-4,.cls-5,.cls-6,.cls-7,.cls-8,.cls-9{stroke-linecap:round;stroke-miterlimit:10;}.cls-4{stroke:#187fc4;}.cls-10,.cls-4,.cls-5,.cls-6,.cls-7,.cls-8,.cls-9{stroke-width:4.4px;}.cls-5{stroke:#aace36;}.cls-6{stroke:#ef845d;}.cls-7{stroke:#ca2e34;}.cls-8{stroke:#985d1b;}.cls-9{stroke:#a73766;}.cls-10{stroke:#006b4b;}</style><clipPath id="clip-path"><rect class="cls-1" x="-5031" y="-5116" width="11720" height="11720"/></clipPath></defs><title>3232_7149</title><g class="cls-2"><g id="日ノ丸線"><g id="吉岡"><path class="cls-3" d="M370.85-1182.32l-32.59-1-32.59-1.7-32.54-1.85q-8.11-.51-16.22-.92l-16-.86-12.45.22-4.69-1.07-6.62-.22L185-1197l-9.52-.74-1-.09-1-.11-9.3-.95H164l-15.22-2.53-5.54-.87-8.67-.45-7.46.67-3.93.31-4.89.84-3.18,1.12-4.47,2.35-5.08,4.9L65.59-1149.2l-1.7,1.88-1.24,1.37L48.3-1130.06l-.26.52-.51,1,.35,2.12,1.35,3.48-2.93,1.67-5.33,3-1.39.79-5.3,4.2-2.9,2.31-5.29,5.66-5.82,7.9-.46,1.2L16-1086.41l-4.08,9.71-3.06,5.18-2.08,2.82-5.25,3.43-8.19,4.37-12,4.75-10.1,3.29-11.42,2.3L-65.12-1049l-5,.32-9.17.6-7.43.23-1.88-.21-4.31-.48-7.57-1.46-8.21-3.27-19.94-6.72-12.53-2.79-7.94-1.79-5.52-.91h-5.33l-11.06,1.7-37.2,6.26-6.26,2-5.88,3.25L-230-1046l-15,10.59-20.25,13.3-7.35,3.64-7.28,2.09-14.53,4-2,.49-7.08,1.71-7.21.3-5.31-1.29-1.68-.66-2.7-1.58-4.74-5-5.18-8.49-3-4-4.06-2.71-8.49-2.63-10.74-2.92-10.06-3.24-3.69-1.72-2.32-1.93-1.21-1-3.75-5.56-6-10.07-4.66-5.63-7.66-3.83-17.65-5.26-3.9-.08-4.66,1.13-20.06,6.76-28.16,9.77-7.44,4-14.95,10.44-11.79,8.19-5.18,2.7-9.09,2-19.16,2.55-4,2.33-3.38,3.31-2.78,6.16-6.61,16-3.23,4.59-4.21,4.28-5.41,3.38-6.23,2.4-5,1.06-24.11-2-19.75-1.87-12-1.2L-689-1006c-.51,1.14-1,2.23-1.18,2.63-.45,1-2.64,6-2.64,6l-2.57,6.15-5.14,12.32-5.14,12.32-5,12.42-10,24.85-5,12.42-2.5,6.21-1.25,3.1-1.15,3.16c-2.95,8.45-6.54,16.68-9.88,25l-10.14,24.89-20.1,49.47-1,3.25-12.08,29.23-11.42,29-.88,2.83.79,11.65.65,12.83.64,12.82c.09,2.14.3,4.28.19,6.42l-.05,3.22,0,1.61c0,.29,0,.52,0,.73l0,1-.33,5.61c0,.89-.16,1.8-.24,2.71l-.33,3.18-3,10.84c-2.17,5.9-4,10.61-5.79,16.55l-4.54,11.34-6.75,10.68-7.95,10.31-3.89,5.05-4.38,5.48-7.5,6.16-9.71,4.82-3.92,1.25-4.17.59c-1.23.17-2.4.22-3.6.33l-7.17.59-14.34,1.18s-6-2.13-8-2.61a29.61,29.61,0,0,0-9.55-.65,19.12,19.12,0,0,0-3.87,1.93l-2.25,1.55-4.2,3.87-29.1,32.64-41.72,46.83-13.35,13.51L-1005-485.58l-8.67,7.83-7.37,6.32-4.1,3.72-6.59,3.84-12.39,4.83-9.39,3.53-6.85,3.32-5,4.37-5,5.15-2.22,3.13-.79,3.72.33,4.63,2.68,8.21,3.06,10.44,1,3.3,1.74,5.47,1.76,7-.13,8.17-2.22,6.85-9.27,13.45-2.87,6.72-2.35,4.64-.59,3.86.91,4.89,1.89,3.72,3,5.36.72,3.59v5.35l-2,5-2.35,12.47-2.85,11.32-7.91,27.77L-1093-266l-12.23,17.46-3.16,6.39-1.58,7.63-3.37,33.54-2,17.74-1.59,7.56-3.16,6.46-6.18,7.15-9,6.73-5.64,4-3.5,5-1.65,3.5-2.68,9.08-2.06,7-1.93,4.81-1.85,2.89-7.5,7.14-12.09,9.08-6.88,4.33-3.3,5L-1187-82.37l-.52,2.18-4.08,11-3,3.09-3.85,3.16-7.35,2.27-9.21,1.92-8.25,2.2-6.67,2.48-6,3.57-7.35,6.12-19.25,22.61-4.81,5.43-2.41,5.64-1.44,9.07L-1273.13,3l-3.1,4.13-3.78,3.09-5.77,3.92-3.92,1.65-9.34,2.54-4.61,2.13-24.75,19.19-11.27,9.48-1.58,3.16-2.55,7.42-5.08,14.85-7.29,13.4-5.36,6-5,3.78-5.09,3.37-18.7,8.25-29.42,11.89-2.55,1.11-12.91,5.21-4.51,2.56-2.56,3.29-3,5.85-3.53,9.5-2.19,5.12-22.18,23.64-5.48,5.49-2.44,4.87-1.22,5.36-2.19,11.94-1.46,4.75-5.61,3.17-7.79,3.17-7.32,3.9-4,3.65-4.14,7.68-3.78,8-4.51,9.5-2.28,5-2.32,9.86-.73,5.26-2.2,8.34-5,5.6M1008.18-1124.13c-2.72-.44-5.45-.79-8.17-1.19l-4.09-.58c-1.35-.21-2.72-.39-4.1-.48l-8.43-.73-19.12-2.81-9.49-1.41L950-1132c-.79-.12-1.57-.22-2.41-.4l-2.18-.42-28.08-3-3.56-.37-3.51-.49-7-1c-4.67-.51-9.33-.85-14-1.28l-14.07-1.19L861-1141l-7.11-.42-3.55-.21c-1.18-.1-2.71-.2-3.83-.4l-14-2.19-14.74-1.2-14.94-1.54L788-1148.46c-5-.49-10-1.1-14.93-1.67m.12,0-100.56-10c-16.68-1.69-33.44-3.07-50.26-4.66l-50.28-5q-12.59-1.23-25.18-2.59l-12.61-1.43-6.3-.77c-2-.23-4-.45-6-.6-8.1-.66-16.42-.71-24.89-.89-4.22-.07-8.58-.24-12.75-.41l-12.61-.49-12.62-.5c-4.2-.15-8.41-.32-12.62-.58l-25.26-1.42-50.52-2.82"/><path class="cls-4" d="M370.85-1182.32l-32.59-1-32.59-1.7-32.54-1.85q-8.11-.51-16.22-.92l-16-.86-12.45.22-4.69-1.07-6.62-.22L185-1197l-9.52-.74-1-.09-1-.11-9.3-.95H164l-15.22-2.53-5.54-.87-8.67-.45-7.46.67-3.93.31-4.89.84-3.18,1.12-4.47,2.35-5.08,4.9L65.59-1149.2l-1.7,1.88-1.24,1.37L48.3-1130.06l-.26.52-.51,1,.35,2.12,1.35,3.48-2.93,1.67-5.33,3-1.39.79-5.3,4.2-2.9,2.31-5.29,5.66-5.82,7.9-.46,1.2L16-1086.41l-4.08,9.71-3.06,5.18-2.08,2.82-5.25,3.43-8.19,4.37-12,4.75-10.1,3.29-11.42,2.3L-65.12-1049l-5,.32-9.17.6-7.43.23-1.88-.21-4.31-.48-7.57-1.46-8.21-3.27-19.94-6.72-12.53-2.79-7.94-1.79-5.52-.91h-5.33l-11.06,1.7-37.2,6.26-6.26,2-5.88,3.25L-230-1046l-15,10.59-20.25,13.3-7.35,3.64-7.28,2.09-14.53,4-2,.49-7.08,1.71-7.21.3-5.31-1.29-1.68-.66-2.7-1.58-4.74-5-5.18-8.49-3-4-4.06-2.71-8.49-2.63-10.74-2.92-10.06-3.24-3.69-1.72-2.32-1.93-1.21-1-3.75-5.56-6-10.07-4.66-5.63-7.66-3.83-17.65-5.26-3.9-.08-4.66,1.13-20.06,6.76-28.16,9.77-7.44,4-14.95,10.44-11.79,8.19-5.18,2.7-9.09,2-19.16,2.55-4,2.33-3.38,3.31-2.78,6.16-6.61,16-3.23,4.59-4.21,4.28-5.41,3.38-6.23,2.4-5,1.06-24.11-2-19.75-1.87-12-1.2L-689-1006c-.51,1.14-1,2.23-1.18,2.63-.45,1-2.64,6-2.64,6l-2.57,6.15-5.14,12.32-5.14,12.32-5,12.42-10,24.85-5,12.42-2.5,6.21-1.25,3.1-1.15,3.16c-2.95,8.45-6.54,16.68-9.88,25l-10.14,24.89-20.1,49.47-1,3.25-12.08,29.23-11.42,29-.88,2.83.79,11.65.65,12.83.64,12.82c.09,2.14.3,4.28.19,6.42l-.05,3.22,0,1.61c0,.29,0,.52,0,.73l0,1-.33,5.61c0,.89-.16,1.8-.24,2.71l-.33,3.18-3,10.84c-2.17,5.9-4,10.61-5.79,16.55l-4.54,11.34-6.75,10.68-7.95,10.31-3.89,5.05-4.38,5.48-7.5,6.16-9.71,4.82-3.92,1.25-4.17.59c-1.23.17-2.4.22-3.6.33l-7.17.59-14.34,1.18s-6-2.13-8-2.61a29.61,29.61,0,0,0-9.55-.65,19.12,19.12,0,0,0-3.87,1.93l-2.25,1.55-4.2,3.87-29.1,32.64-41.72,46.83-13.35,13.51L-1005-485.58l-8.67,7.83-7.37,6.32-4.1,3.72-6.59,3.84-12.39,4.83-9.39,3.53-6.85,3.32-5,4.37-5,5.15-2.22,3.13-.79,3.72.33,4.63,2.68,8.21,3.06,10.44,1,3.3,1.74,5.47,1.76,7-.13,8.17-2.22,6.85-9.27,13.45-2.87,6.72-2.35,4.64-.59,3.86.91,4.89,1.89,3.72,3,5.36.72,3.59v5.35l-2,5-2.35,12.47-2.85,11.32-7.91,27.77L-1093-266l-12.23,17.46-3.16,6.39-1.58,7.63-3.37,33.54-2,17.74-1.59,7.56-3.16,6.46-6.18,7.15-9,6.73-5.64,4-3.5,5-1.65,3.5-2.68,9.08-2.06,7-1.93,4.81-1.85,2.89-7.5,7.14-12.09,9.08-6.88,4.33-3.3,5L-1187-82.37l-.52,2.18-4.08,11-3,3.09-3.85,3.16-7.35,2.27-9.21,1.92-8.25,2.2-6.67,2.48-6,3.57-7.35,6.12-19.25,22.61-4.81,5.43-2.41,5.64-1.44,9.07L-1273.13,3l-3.1,4.13-3.78,3.09-5.77,3.92-3.92,1.65-9.34,2.54-4.61,2.13-24.75,19.19-11.27,9.48-1.58,3.16-2.55,7.42-5.08,14.85-7.29,13.4-5.36,6-5,3.78-5.09,3.37-18.7,8.25-29.42,11.89-2.55,1.11-12.91,5.21-4.51,2.56-2.56,3.29-3,5.85-3.53,9.5-2.19,5.12-22.18,23.64-5.48,5.49-2.44,4.87-1.22,5.36-2.19,11.94-1.46,4.75-5.61,3.17-7.79,3.17-7.32,3.9-4,3.65-4.14,7.68-3.78,8-4.51,9.5-2.28,5-2.32,9.86-.73,5.26-2.2,8.34-5,5.6M1008.18-1124.13c-2.72-.44-5.45-.79-8.17-1.19l-4.09-.58c-1.35-.21-2.72-.39-4.1-.48l-8.43-.73-19.12-2.81-9.49-1.41L950-1132c-.79-.12-1.57-.22-2.41-.4l-2.18-.42-28.08-3-3.56-.37-3.51-.49-7-1c-4.67-.51-9.33-.85-14-1.28l-14.07-1.19L861-1141l-7.11-.42-3.55-.21c-1.18-.1-2.71-.2-3.83-.4l-14-2.19-14.74-1.2-14.94-1.54L788-1148.46c-5-.49-10-1.1-14.93-1.67m.12,0-100.56-10c-16.68-1.69-33.44-3.07-50.26-4.66l-50.28-5q-12.59-1.23-25.18-2.59l-12.61-1.43-6.3-.77c-2-.23-4-.45-6-.6-8.1-.66-16.42-.71-24.89-.89-4.22-.07-8.58-.24-12.75-.41l-12.61-.49-12.62-.5c-4.2-.15-8.41-.32-12.62-.58l-25.26-1.42-50.52-2.82"/></g><g id="鹿野"><path class="cls-3" d="M-729.41-1895.09c3.43,0,6.86.13,10.29,0l10.28-.38,20.56-.75,35.18,3.07,31.51,6.94,6.59,8.79,12.19,5,28.35,7.45,29,5.45,24.77,7.08M-2470.51-90.17l-1.85.34-1.6.42-1.79.78-1.58.89-18.94,16.53-.78.67L-2537.33-36l4.77,6.1,5.12,8,2.86,5.54,9.6,17.63-8.16,4.71M-2198.43-71l-3.45.35-7.63-.28-6.43-.35-4.11-.5-57.17-6.87-.86-.1-6.5-.52-.88-.11-15.3-2-15.74-2.18-20.67-2.87-19.61-2.73-9.08-.81-20.54-1.85-18.55.45-17.55.43-2.91.07-43,.55-2.13.14-2.59-2.3L-2475-93.8l-16.43-10.49-3.17-1.85-29.93-18.75-7.25-5.64-5.37-5.77-4.43-6-1.33-3.15-16,3-7.85,1.41-8.17,1.48-3.39.61-19.39,3.51-.54.1-41.79,7.86-19.79,3.72M-2576.78-332l-16.15.75-13.82.88-4.8.31-25,1.08-16,.7-32.09,2-.82,1-.25,1.07,2.63,17.72.36,2.31,5,27.48.86,5.33.55,2.84,3.34,17.29,12.92,71.27.55,10.89-.33,24.4m-2.64-1256.66-3.58-12.29-.41-2.5-.66-5.54-.65-5.71,2.12-3.26,4.9-4.08,2.28-2,1.63-2.78-.65-3.42-3-13.94-1.37-6.69-1.9-9.51-.42-4-.4-3.49-1.27-11.37-1.94-18-21.24.91-4.15.11-23,.63-7.4.15h-.84l-.49,0-23.3.86-31.72,1.06,1.34,51.2.92,44,0,18.61.51,14,.72,5.1,1,4.75,1.23,4.29,2.89,8.53,6.57,12.9,7.89,15.57,10.82,21.07,6.68,14.33L-2735-1279l1.47,7.13,4.2,19.72,5.23,30.49,1.62,7.22,4.15,21.64.36,6.68-.9,13.89.36,7.93,2.71,6.32,4.32,6.31,6.14,4.87,9.92,4,7.4,2.7,7.57,1.09,3.77.08,6.88.46,7.4-.9,10.46-1.09,2.89-.36,8.11,1.09,7.94,4.15,2.09,2.33,4,4.52,2.53,3.61,2.82,6.4.9,24.46,1.89,28.07,1.91,28.1,1.83,51.32,3.91,58.71,1,17.12,2.16,39,.4,7.34,1.73,31.93.63,10.79,2,35.2v4.29l.11.53.25,4.22.18,3.32,3,49.88,5.2,85.5,3.21,52.46,2.14,37.39,2.5,44.2.07,1.68.84,18.68,2.34,46.43,3.25,50.85,1.69,26.3,1.61,29.06m1294.38-1489.7c-5.64,3.35-12.37,6.34-17.29,10.72a95.26,95.26,0,0,0-15,16.28c-4,5.62-6.14,11.93-9.44,17.86-3.2,5.73-8.34,11.4-13.11,15.82-5.08,4.71-11.24,7.84-17.21,11.25s-12,6.74-17.9,10.31c-11.68,7.07-23.48,14.54-36,20.1-6.59,2.93-13.23,4-20.34,4.81-6.9.81-13.42-.33-20.14-1.44-6.34-1-13.81.65-20,2.14-7.3,1.76-14.34,4.71-21.42,7.2-13.35,4.7-26.47,10-39.74,15-2.4.89-4.79,1.82-7.21,2.66a30.16,30.16,0,0,1-11,1.65c-6.47,0-14.23-3.68-20.38-5.64a123.54,123.54,0,0,1-18.13-7.16c-5.92-3-10.93-7.76-15.87-12.11-10.47-9.23-20.72-18.75-31.09-28.09-5-4.54-11.16-9.16-15.06-14.75-3.63-5.21-3.26-13.29-3.4-19.41-.16-6.87,0-14.24-1.52-21s-9.13-9.59-14.86-12.31c-12.71-6-25.18-12.59-37.67-19.09-3.21-1.67-6.39-3.83-10-4.59-3.32-.7-6.54-.13-9.87.22-7.39.8-14.85,1.13-22.27,1.68-3.33.24-7.14,0-10.4.75-2.65.6-5.61,2.44-7.88,4-6.09,4.12-11.1,10.65-16.32,15.82-4.43,4.4-8.62,9.12-14.43,11.67-4.92,2.14-10.74,2.59-16,3.08-3.75.35-5.87.44-9.24-1.22a22.75,22.75,0,0,1-6.12-3.87c-4.59-4.49-8.78-11.54-15.82-12-8.18-.51-11.8,5.88-14.26,12.74s-3.82,14.23-5.63,21.24c-1.49,5.8-2.59,11.78-3.5,17.69-1,6.74-2.73,14.22-2.75,21,0,7.32,1.12,14.4-.09,21.68-.45,2.78-1.2,6.49-2.9,8.81-1.88,2.57-5.07,3.6-7.75,5-2.23,1.2-7.62,2.52-8.85,4.85-1.49,2.84,1.14,6.26,2.59,8.34m0,0a174.92,174.92,0,0,0-16.81,19.06c-4.89,6.32-9.2,12.17-16.45,15.87a79.79,79.79,0,0,1-22,7.35c-16.4,3.17-33.06,6.42-49.06,11.29-15.51,4.73-30,12.49-45,18.44-14.73,5.81-29.82,10.5-45,15.06-17.34,5.22-34.75,10.26-52,15.71-7.2,2.28-14.76,5.63-22.16,6.9-8.9,1.53-17.11,1.13-26.08.43-7.14-.56-14.41-2.75-21.26-4.78q-12.17-3.6-24.23-7.58c-8.24-2.72-16.55-6.1-24.93-8.36-7.48-2-15.18-2.75-22.59-5.14-16.22-5.23-32.18-10.7-47.43-18.37-15.08-7.59-29.71-16.09-44.58-24.08-14-7.51-28.14-15-44.21-16.55-17.55-1.7-35,3.2-52.08,6.46-1.36.26-1.52.07-1.9,1-.69,1.63.59,5.84.77,7.62.08.79.77,3.23.39,3.94-.23.46-.55.29-1,.68-1.49,1.16-4.17,1.54-5.94,2.28-7.78,3.25-15.25,7.28-23,10.65a81.43,81.43,0,0,0-9.6,4.85c-3.51,2.11-7.36,3.46-10,6.73-2.2,2.78-4,5.83-6,8.77-2.12,3.16-4.91,6.22-6.39,9.74-3.23,7.73-4.92,16.46-7.27,24.5s-3.22,16.18-6.24,24a82.77,82.77,0,0,1-11.3,20.88c-4.38,5.76-12.15,11.87-12.86,19.35-.35,3.65,2.45,7.58,3.51,11.13,1.22,4.09,2.3,8.23,3.44,12.34,2.15,7.67,3.75,16,7,23.29a17.36,17.36,0,0,0,2.58,4c.89,1.11,4.17,4,4.34,5.44.34,2.89-5.7,5.28-7.53,6.62-7.73,5.65-15.22,11.64-22.82,17.46-2.66,2-5.41,4.81-8.37,6.4-2.8,1.49-6.69,1.33-9.77,1.56-8.24.63-16.5,1.17-24.74,1.81-7.88.62-15.57.89-23.23,2.82-8.89,2.24-17.77,4.55-26.65,6.82m1936.7-481.48-19-.19-24.65-2-3.08-.25-3.06-.45-6.12-.9-12.23-1.79-8.28-.53c-25.32,4.9-50.67,9.67-76,14.69l-38,7.48c-12.65,2.53-25.35,4.77-38,7.18l-34.41,3.19-6.48.3-12.59.59-18.45-4.11-37.6,4.7-36,10-20.24,4-18.45,0-36.6-6.6-33.76.92-34.5,18-35.53,19.15m283.76-46.71,1.79,32.18M-2672.11-1.58l11.1-23,1.19-2.49,5-13,1.19-4,.76-3.82-.19-6.33-1.32-7.32-1.32-8.34-1.75-10.71-.53-7.73-.41-4.8-1.49-30.64.08-3.27.09-4.1-.19-13.48M-380.56-1820.09l-8.84,40.87,12.65,31.36m1076.85,221-85.17-11.37-85.13-11.72L508-1554.73l-15.82-13.37c-9.64-10.52-19.17-21.16-28.91-31.58L433.06-1630c-5.46-4-10.88-8.16-16.37-12.17l-16.94-11.37-42.45-11-43.06-8.28L274-1667.67l-40.15.62-31.47-2.12-14.91-4.57c-5.42-1.59-10.77-3.48-16.15-5.26l-32.24-10.79-32.23-11-16.12-5.51c-5.36-1.84-10.67-3.79-16-5.68l-32-11.43c-5.36-1.84-10.62-4-15.91-6L11-1735.6l-31.7-12.33c-5.34-2-35.76-2.33-35.76-2.33l-28.67-7.88c-4.76-1.35-9.57-2.56-14.37-3.77l-14.41-3.65-28.82-7.29c-2.4-.6-4.8-1.24-7.21-1.81l-7.28-1.48-14.56-3-29-6.73c-9.64-2.27-19.33-4.33-29-6.51l-29-6.45c-2.41-.58-4.85-1-7.29-1.42l-7.32-1.29-14.64-2.57c-19.52-3.43-39-6.93-58.57-10.22l-29.3-5-14.65-2.5c-2.44-.43-4.89-.79-7.32-1.29l-7.27-1.52-29.1-6.09-14.54-3-7.28-1.52c-2.43-.47-4.8-1.22-7.2-1.82l-28.74-7.6-14.37-3.8-7.18-1.92-7.14-2m1220.8,325.6,85.95,11.74,43,5.72c14.31,2.1,28.56,4.53,42.86,6.69l86,11.2,86,11.75,19-.68,35.3-9.54,17.65-4.77,8.83-2.38,8.91-2.07,51.09-11.8"/><path class="cls-5" d="M-729.41-1895.09c3.43,0,6.86.13,10.29,0l10.28-.38,20.56-.75,35.18,3.07,31.51,6.94,6.59,8.79,12.19,5,28.35,7.45,29,5.45,24.77,7.08M-2470.51-90.17l-1.85.34-1.6.42-1.79.78-1.58.89-18.94,16.53-.78.67L-2537.33-36l4.77,6.1,5.12,8,2.86,5.54,9.6,17.63-8.16,4.71M-2198.43-71l-3.45.35-7.63-.28-6.43-.35-4.11-.5-57.17-6.87-.86-.1-6.5-.52-.88-.11-15.3-2-15.74-2.18-20.67-2.87-19.61-2.73-9.08-.81-20.54-1.85-18.55.45-17.55.43-2.91.07-43,.55-2.13.14-2.59-2.3L-2475-93.8l-16.43-10.49-3.17-1.85-29.93-18.75-7.25-5.64-5.37-5.77-4.43-6-1.33-3.15-16,3-7.85,1.41-8.17,1.48-3.39.61-19.39,3.51-.54.1-41.79,7.86-19.79,3.72M-2576.78-332l-16.15.75-13.82.88-4.8.31-25,1.08-16,.7-32.09,2-.82,1-.25,1.07,2.63,17.72.36,2.31,5,27.48.86,5.33.55,2.84,3.34,17.29,12.92,71.27.55,10.89-.33,24.4m-2.64-1256.66-3.58-12.29-.41-2.5-.66-5.54-.65-5.71,2.12-3.26,4.9-4.08,2.28-2,1.63-2.78-.65-3.42-3-13.94-1.37-6.69-1.9-9.51-.42-4-.4-3.49-1.27-11.37-1.94-18-21.24.91-4.15.11-23,.63-7.4.15h-.84l-.49,0-23.3.86-31.72,1.06,1.34,51.2.92,44,0,18.61.51,14,.72,5.1,1,4.75,1.23,4.29,2.89,8.53,6.57,12.9,7.89,15.57,10.82,21.07,6.68,14.33L-2735-1279l1.47,7.13,4.2,19.72,5.23,30.49,1.62,7.22,4.15,21.64.36,6.68-.9,13.89.36,7.93,2.71,6.32,4.32,6.31,6.14,4.87,9.92,4,7.4,2.7,7.57,1.09,3.77.08,6.88.46,7.4-.9,10.46-1.09,2.89-.36,8.11,1.09,7.94,4.15,2.09,2.33,4,4.52,2.53,3.61,2.82,6.4.9,24.46,1.89,28.07,1.91,28.1,1.83,51.32,3.91,58.71,1,17.12,2.16,39,.4,7.34,1.73,31.93.63,10.79,2,35.2v4.29l.11.53.25,4.22.18,3.32,3,49.88,5.2,85.5,3.21,52.46,2.14,37.39,2.5,44.2.07,1.68.84,18.68,2.34,46.43,3.25,50.85,1.69,26.3,1.61,29.06m1294.38-1489.7c-5.64,3.35-12.37,6.34-17.29,10.72a95.26,95.26,0,0,0-15,16.28c-4,5.62-6.14,11.93-9.44,17.86-3.2,5.73-8.34,11.4-13.11,15.82-5.08,4.71-11.24,7.84-17.21,11.25s-12,6.74-17.9,10.31c-11.68,7.07-23.48,14.54-36,20.1-6.59,2.93-13.23,4-20.34,4.81-6.9.81-13.42-.33-20.14-1.44-6.34-1-13.81.65-20,2.14-7.3,1.76-14.34,4.71-21.42,7.2-13.35,4.7-26.47,10-39.74,15-2.4.89-4.79,1.82-7.21,2.66a30.16,30.16,0,0,1-11,1.65c-6.47,0-14.23-3.68-20.38-5.64a123.54,123.54,0,0,1-18.13-7.16c-5.92-3-10.93-7.76-15.87-12.11-10.47-9.23-20.72-18.75-31.09-28.09-5-4.54-11.16-9.16-15.06-14.75-3.63-5.21-3.26-13.29-3.4-19.41-.16-6.87,0-14.24-1.52-21s-9.13-9.59-14.86-12.31c-12.71-6-25.18-12.59-37.67-19.09-3.21-1.67-6.39-3.83-10-4.59-3.32-.7-6.54-.13-9.87.22-7.39.8-14.85,1.13-22.27,1.68-3.33.24-7.14,0-10.4.75-2.65.6-5.61,2.44-7.88,4-6.09,4.12-11.1,10.65-16.32,15.82-4.43,4.4-8.62,9.12-14.43,11.67-4.92,2.14-10.74,2.59-16,3.08-3.75.35-5.87.44-9.24-1.22a22.75,22.75,0,0,1-6.12-3.87c-4.59-4.49-8.78-11.54-15.82-12-8.18-.51-11.8,5.88-14.26,12.74s-3.82,14.23-5.63,21.24c-1.49,5.8-2.59,11.78-3.5,17.69-1,6.74-2.73,14.22-2.75,21,0,7.32,1.12,14.4-.09,21.68-.45,2.78-1.2,6.49-2.9,8.81-1.88,2.57-5.07,3.6-7.75,5-2.23,1.2-7.62,2.52-8.85,4.85-1.49,2.84,1.14,6.26,2.59,8.34m0,0a174.92,174.92,0,0,0-16.81,19.06c-4.89,6.32-9.2,12.17-16.45,15.87a79.79,79.79,0,0,1-22,7.35c-16.4,3.17-33.06,6.42-49.06,11.29-15.51,4.73-30,12.49-45,18.44-14.73,5.81-29.82,10.5-45,15.06-17.34,5.22-34.75,10.26-52,15.71-7.2,2.28-14.76,5.63-22.16,6.9-8.9,1.53-17.11,1.13-26.08.43-7.14-.56-14.41-2.75-21.26-4.78q-12.17-3.6-24.23-7.58c-8.24-2.72-16.55-6.1-24.93-8.36-7.48-2-15.18-2.75-22.59-5.14-16.22-5.23-32.18-10.7-47.43-18.37-15.08-7.59-29.71-16.09-44.58-24.08-14-7.51-28.14-15-44.21-16.55-17.55-1.7-35,3.2-52.08,6.46-1.36.26-1.52.07-1.9,1-.69,1.63.59,5.84.77,7.62.08.79.77,3.23.39,3.94-.23.46-.55.29-1,.68-1.49,1.16-4.17,1.54-5.94,2.28-7.78,3.25-15.25,7.28-23,10.65a81.43,81.43,0,0,0-9.6,4.85c-3.51,2.11-7.36,3.46-10,6.73-2.2,2.78-4,5.83-6,8.77-2.12,3.16-4.91,6.22-6.39,9.74-3.23,7.73-4.92,16.46-7.27,24.5s-3.22,16.18-6.24,24a82.77,82.77,0,0,1-11.3,20.88c-4.38,5.76-12.15,11.87-12.86,19.35-.35,3.65,2.45,7.58,3.51,11.13,1.22,4.09,2.3,8.23,3.44,12.34,2.15,7.67,3.75,16,7,23.29a17.36,17.36,0,0,0,2.58,4c.89,1.11,4.17,4,4.34,5.44.34,2.89-5.7,5.28-7.53,6.62-7.73,5.65-15.22,11.64-22.82,17.46-2.66,2-5.41,4.81-8.37,6.4-2.8,1.49-6.69,1.33-9.77,1.56-8.24.63-16.5,1.17-24.74,1.81-7.88.62-15.57.89-23.23,2.82-8.89,2.24-17.77,4.55-26.65,6.82m1936.7-481.48-19-.19-24.65-2-3.08-.25-3.06-.45-6.12-.9-12.23-1.79-8.28-.53c-25.32,4.9-50.67,9.67-76,14.69l-38,7.48c-12.65,2.53-25.35,4.77-38,7.18l-34.41,3.19-6.48.3-12.59.59-18.45-4.11-37.6,4.7-36,10-20.24,4-18.45,0-36.6-6.6-33.76.92-34.5,18-35.53,19.15m283.76-46.71,1.79,32.18M-2672.11-1.58l11.1-23,1.19-2.49,5-13,1.19-4,.76-3.82-.19-6.33-1.32-7.32-1.32-8.34-1.75-10.71-.53-7.73-.41-4.8-1.49-30.64.08-3.27.09-4.1-.19-13.48M-380.56-1820.09l-8.84,40.87,12.65,31.36m1076.85,221-85.17-11.37-85.13-11.72L508-1554.73l-15.82-13.37c-9.64-10.52-19.17-21.16-28.91-31.58L433.06-1630c-5.46-4-10.88-8.16-16.37-12.17l-16.94-11.37-42.45-11-43.06-8.28L274-1667.67l-40.15.62-31.47-2.12-14.91-4.57c-5.42-1.59-10.77-3.48-16.15-5.26l-32.24-10.79-32.23-11-16.12-5.51c-5.36-1.84-10.67-3.79-16-5.68l-32-11.43c-5.36-1.84-10.62-4-15.91-6L11-1735.6l-31.7-12.33c-5.34-2-35.76-2.33-35.76-2.33l-28.67-7.88c-4.76-1.35-9.57-2.56-14.37-3.77l-14.41-3.65-28.82-7.29c-2.4-.6-4.8-1.24-7.21-1.81l-7.28-1.48-14.56-3-29-6.73c-9.64-2.27-19.33-4.33-29-6.51l-29-6.45c-2.41-.58-4.85-1-7.29-1.42l-7.32-1.29-14.64-2.57c-19.52-3.43-39-6.93-58.57-10.22l-29.3-5-14.65-2.5c-2.44-.43-4.89-.79-7.32-1.29l-7.27-1.52-29.1-6.09-14.54-3-7.28-1.52c-2.43-.47-4.8-1.22-7.2-1.82l-28.74-7.6-14.37-3.8-7.18-1.92-7.14-2m1220.8,325.6,85.95,11.74,43,5.72c14.31,2.1,28.56,4.53,42.86,6.69l86,11.2,86,11.75,19-.68,35.3-9.54,17.65-4.77,8.83-2.38,8.91-2.07,51.09-11.8"/></g><g id="東郷"><path class="cls-3" d="M903.29-868.25l-3.62-19.66-17.15-96.58-.76-4.27-7.45-37.86-1.23-5.54-1.64-8.65-.37-1.68-1.54-7-2.38-10.9L864.6-1070l-3-11.43-.64-3-1.75-8-3.12-14.83-.42-2-2.7-12.13-1.57-8.4,1.63.1,7.13.42,14.25.84,13.87,1.17c4.56.43,9.09.76,13.68,1.25l6.95,1,3.49.48,3.62.38,27.69,2.93,1.84.36c1,.21,1.72.3,2.53.42l4.8.72,9.59,1.42,19.58,2.88,8.52.73c1.34.09,2.65.26,4,.47l3.93.56c2.62.38,5.22.71,7.85,1.14m-22,154.83-16.74,17.9-16,17.92-15.33,16.85-16.91,18.72L908.57-874l-3,3.42-2.33,2.29-3,3.33-25.2,31-4.9,4.74-9.36,5.74-1.38.69-1.09.57-4,2.41-2,.79-10.55,7.3-24.36,25-13.91,15-22.2,24-17.49,18.7-32.13,35.1-1.16,1.17L725.32-687l-23.8,25.71-7.35,7.94-9.42,10.17L678.18-636l-5.62,5.16-4.33,3.54-4.17,2.69-2.25,1.46-14.44,5.65-8.86,3.5L631.72-609l-4.17,3.47-13.31,10.61-3.15,2.76-2.24,2-25.41,20.73-1.11,1.15-3,3.16-3.54,4.34-1.12,2.09-1.76,3.55-1,3.05-2.23,11.13-1.94,15.13-1.65,12.63-1.72,20.86-1.75,12.89-.82,6.78-1.91,7.9-1.44,4L556.52-456l-3,4.69-25.32,32.86-6.43,9L515-399.79l-2.31,3.68-14.5,24.35L482.6-346l-5.76,9.67-14.78,26.77-3.52,6.26L454-294.84l-4.12,5.3-8,9.8-4.33,4.38-4.48,3.69-18,13.38-10.41,6.92-11.22,7.44L361.14-219.8l-2.63,2.46-4.63,6.12-5.61,8.86-5.94,12.21L338-182.57l-1.74,1.94-3.89,4.12-4.61,4.41-.82.68-6.59,5.61-5.58,4.34L288.6-141.65l-19.07,14.84-3.08,2.86-5.73,5.34-16.51,18.53L229.77-81.55l-.3.34L227.91-79l-1,1.49-4.33,8.86L220.34-65l-2.75,4.2-4.47,5.32L209-51.72l-3.84,3.54-2.89,4.49L190.67-21l-4.5,7.41L182.49-9.7l-6.75,5.15-1.26,1-2.09,2.43L170,2.23l-6.24,11-3.21,3.4-13.33,9.18-6.73,5.35-3.21,3.2-2.1,3.09-1.44,3.66-.47,2.12-2.4,16.47-1,2.57-1.59,1.6L114.67,74.28l-9.15,7L100.24,86l-7.87,8.24L89.8,98.13l-3.53,6.11-2.73,6.61L74.16,134l-1.31,3.31-6.54,16.44-8.06,18.84-6.1,12.72-14.7,28.16-.53,1-2.4,3.06-18.75,20-3.22,4-2.09,3.23-1.59,2.61-3,6.42-4,10.47-18,47.06-.74,1.43-1.05.88-8.13,7-3.05,2.58-5.63,6.17-6.1,7.72-4.64,6.78-2.09,3.69-16,28.56-3.69,6.74-6.1,12.09L-77.88,403-84.14,415l-4.33,7.87-4.64,7.42-12.81,13.36-4.66,5.8-5.61,8.72L-135.75,492l-2.07,2.91-14,11.75-3.7,4.83-1.26,3.06L-158,518.9l-5.93,35-2.56,16.27v.26h0l-.16,4.26.49,4.17,8.18,39.48,2.07,7.71,1.58,3.41,3.56,5.31,1.26,3.06v3.72L-150.8,645l-2.75,5-15.21,21.93-4,7.72-.6,1.34-4.34,9.46-1,2.14-1.35,1.86-21,25.67-5.45,7.75-1.54,1.86-2.42,3.25-4.91,8.18-3.52,2.74-4,2.75-3.52,3.85-.13.35-8.2,11.26m1293.3-1863.66-3.82,5.34c-1.63,2.2-3.17,4.63-4.77,7s-3,4.82-4.5,7.26l-4,6.74-1.58,2.41-.39.76-9.1,11.79-3,5.5-1,1.29c-.59.75-1,1.38-1.51,2.07l-2.92,4.07-5.85,8.14-2.91,4.08-2.8,4.11-4.62,6.79-4,3.25-6.89,9.52-1.82,3.8-1.19,4.5-.74,6,.09,5.91-2.05,24-.38,4.53-4.65,5"/><path class="cls-6" d="M903.29-868.25l-3.62-19.66-17.15-96.58-.76-4.27-7.45-37.86-1.23-5.54-1.64-8.65-.37-1.68-1.54-7-2.38-10.9L864.6-1070l-3-11.43-.64-3-1.75-8-3.12-14.83-.42-2-2.7-12.13-1.57-8.4,1.63.1,7.13.42,14.25.84,13.87,1.17c4.56.43,9.09.76,13.68,1.25l6.95,1,3.49.48,3.62.38,27.69,2.93,1.84.36c1,.21,1.72.3,2.53.42l4.8.72,9.59,1.42,19.58,2.88,8.52.73c1.34.09,2.65.26,4,.47l3.93.56c2.62.38,5.22.71,7.85,1.14m-22,154.83-16.74,17.9-16,17.92-15.33,16.85-16.91,18.72L908.57-874l-3,3.42-2.33,2.29-3,3.33-25.2,31-4.9,4.74-9.36,5.74-1.38.69-1.09.57-4,2.41-2,.79-10.55,7.3-24.36,25-13.91,15-22.2,24-17.49,18.7-32.13,35.1-1.16,1.17L725.32-687l-23.8,25.71-7.35,7.94-9.42,10.17L678.18-636l-5.62,5.16-4.33,3.54-4.17,2.69-2.25,1.46-14.44,5.65-8.86,3.5L631.72-609l-4.17,3.47-13.31,10.61-3.15,2.76-2.24,2-25.41,20.73-1.11,1.15-3,3.16-3.54,4.34-1.12,2.09-1.76,3.55-1,3.05-2.23,11.13-1.94,15.13-1.65,12.63-1.72,20.86-1.75,12.89-.82,6.78-1.91,7.9-1.44,4L556.52-456l-3,4.69-25.32,32.86-6.43,9L515-399.79l-2.31,3.68-14.5,24.35L482.6-346l-5.76,9.67-14.78,26.77-3.52,6.26L454-294.84l-4.12,5.3-8,9.8-4.33,4.38-4.48,3.69-18,13.38-10.41,6.92-11.22,7.44L361.14-219.8l-2.63,2.46-4.63,6.12-5.61,8.86-5.94,12.21L338-182.57l-1.74,1.94-3.89,4.12-4.61,4.41-.82.68-6.59,5.61-5.58,4.34L288.6-141.65l-19.07,14.84-3.08,2.86-5.73,5.34-16.51,18.53L229.77-81.55l-.3.34L227.91-79l-1,1.49-4.33,8.86L220.34-65l-2.75,4.2-4.47,5.32L209-51.72l-3.84,3.54-2.89,4.49L190.67-21l-4.5,7.41L182.49-9.7l-6.75,5.15-1.26,1-2.09,2.43L170,2.23l-6.24,11-3.21,3.4-13.33,9.18-6.73,5.35-3.21,3.2-2.1,3.09-1.44,3.66-.47,2.12-2.4,16.47-1,2.57-1.59,1.6L114.67,74.28l-9.15,7L100.24,86l-7.87,8.24L89.8,98.13l-3.53,6.11-2.73,6.61L74.16,134l-1.31,3.31-6.54,16.44-8.06,18.84-6.1,12.72-14.7,28.16-.53,1-2.4,3.06-18.75,20-3.22,4-2.09,3.23-1.59,2.61-3,6.42-4,10.47-18,47.06-.74,1.43-1.05.88-8.13,7-3.05,2.58-5.63,6.17-6.1,7.72-4.64,6.78-2.09,3.69-16,28.56-3.69,6.74-6.1,12.09L-77.88,403-84.14,415l-4.33,7.87-4.64,7.42-12.81,13.36-4.66,5.8-5.61,8.72L-135.75,492l-2.07,2.91-14,11.75-3.7,4.83-1.26,3.06L-158,518.9l-5.93,35-2.56,16.27v.26h0l-.16,4.26.49,4.17,8.18,39.48,2.07,7.71,1.58,3.41,3.56,5.31,1.26,3.06v3.72L-150.8,645l-2.75,5-15.21,21.93-4,7.72-.6,1.34-4.34,9.46-1,2.14-1.35,1.86-21,25.67-5.45,7.75-1.54,1.86-2.42,3.25-4.91,8.18-3.52,2.74-4,2.75-3.52,3.85-.13.35-8.2,11.26m1293.3-1863.66-3.82,5.34c-1.63,2.2-3.17,4.63-4.77,7s-3,4.82-4.5,7.26l-4,6.74-1.58,2.41-.39.76-9.1,11.79-3,5.5-1,1.29c-.59.75-1,1.38-1.51,2.07l-2.92,4.07-5.85,8.14-2.91,4.08-2.8,4.11-4.62,6.79-4,3.25-6.89,9.52-1.82,3.8-1.19,4.5-.74,6,.09,5.91-2.05,24-.38,4.53-4.65,5"/></g><g id="松上"><path class="cls-3" d="M1012-1147.26c-2.9-.48-5.86-.85-8.8-1.28l-4.41-.63c-1.47-.22-2.93-.41-4.4-.51l-8.25-.72-18.2-2.67-9.29-1.38-4.65-.69c-.76-.11-1.6-.22-2.18-.35L949-1156l-28.86-3.06-3.45-.36-3.56-.49-7.13-1c-4.83-.52-9.75-.89-14.63-1.35l-14.46-1.21-14.14-.84-7.06-.41-3.54-.21-.44,0-.28,0-.56,0-.56,0-.81-.13-14.19-2.23-15.36-1.25-14.69-1.51-10.06-1L783-1154.87,770.56-1138l-9.93,12.56L741.08-1100l-15.87,20.83-1.93,2.75-1.94,2-7.68,9.56-3.49,4.63-1.53,2.57-3.83,6-4.4,6.71-9.41,14.9-7.78,10-4.81,5.93-4.88,5.7L663.24-998l-9.57,8.71-5.15,5.3-16.09,16.66-5,5-14.83,18L609.12-940l-3.65,4.39-6.16,7.41-3.14,3.78L587-913.83l-8.87,10.47-3.29,4.08-13.65,14.76-4.44,5.11-9.26,10.14v0l-.71.9-5,6.14-8.46,9.88L505.35-821.7,488-802.47l-11.58,12.84-5.77,6.42-3.07,3.38-2.46,2.72-.16,1.48-36.81,21.92-52.1,31.08-58.36,33-37.86,21.24-1,.83-3.8,2.16-10.31,5-9.49,4L243.2-652l-7.42,2-9.55,3.68-2.4,1-1.17.76-1.08.58-1.19,1.57-1,1.66-6.1,17.59-.88,2.52-1.09,1.34-.38.48L208-617l-4.41,1.71-6.42,1.82-5.8,1.94-5.67,2.48-7.22,3.69L171-600.62l-10.83,7.24-7,5.52L139-577.22l-8.8,7.12L122.45-563l-5.25,5.55-9.6,10.73-10.19,11-6.75,6.65-6.35,5.94L68.8-509.2l-23.51,19L33.1-479.45-1.09-449.86l-12.25,9.92L-47.29-412l-26.93,21.91L-86.91-380l-1,.78-6.38,3.8-5.12,1.77-15.21,3.4-15.23,3.55-14.42,4-14.93,4.38-14.41,4-16.37,4-6.73.65-9.63,1-5.61,1.28-2.89,1.29-4.47,2.57-7.38,5.8-18.75,17.54-5.71,7.88-7.36,9.13-3.92,4.42-3.19,5.48-1.92,5.28-1.42,5.71-.43,5.15.05,5.92-4,.25-3.24,1.54-3.24,2.91-6.06,4.66-18.27,12.41-4.66,4-7.71,6.28-10.27,9.67-1.75,2.26-1.61,4.34-2.21,8.88-2.42,9-3.51,9.52-3.71,8.7-1.12,2.57-4.17,8.06-3.37,6.44-1.43,2.42-5.6,9.18-4.55,5.81-19.4,24.83-10.56,15.32-3.77,5.35-.81,2-.36,1.9.21,1.62,1.05,2.11,1,2-8.12,6.91-6.82,8.86-9.75,22.85-8.37,27.1-5.45,14.16-2.26,4.17-4.47,7-9.63,10.65-4.28,7.16L-455,15l-.81,3.74-1.42,10.93v16.1l.31,3.09v4.83L-458,58.33l-8.5,15.15-21,35.6-6.08,9.83-6.24,10-4,5.63L-521,159l-3.51,5.8L-527.1,170l-4.33,10.32-1.44,3.55-3.84,10.28-3.38,8.87-11.27,30.33-1.07,2.89-4.8,14.49-.49,5L-558,273.1l-.49,4.86-1.11,5.63-1.59,4.52-2.72,4.83-11.39,19.64-1.94,3.2-8.84,16.44-10.72,21.67-5.94,12-3.05,5.8-2.89,3.86-2.09,2.89-13,12.58-6.9,7.43-3.84,5-4,6.6-4.17,8.06-1.93,6.29.16,4,1.77,8,.47,4.2-.47,5.14-.33,1.29-2.72,8.71-3.21,6.27-3.68,6-2.73,3.72-8.66,8.72-20.52,19-14.74,15.46-17.66,18.84-8.8,10.32-4,4.34-10.59,9.21h0l-19.9,16.61-5.14,5.15-2.23,2.89-1.45,3.85-.79,9.83-.63,2.61-1.15,2.57-3.18,4.8-1.94,1.78-15.2,13.2-10.6,7.55-4.48,2.12-3.53,1.28-3.68,1.11-9.62,1.63H-840l-15.06-.82-11.53-.09-2.58.43-7.23,2.4-7.38,2.74-8,2.26-6.73,1.29-19.23,4.83-12.67,4-5.32,3.23-6.1,4.83-13,14.18-5.12,5-3.38,2.75-31.3,21.12-13.62,7.72-9.93,6.43-9.12,8.2-3,2.6-6.73,4.34-13.3,6.92-9.48,3.87-3.35,2.11-4.17,3.06-4.17,3.37-2.56,1.95-2.24,1.74-1,.48-4.66-2.8-1.47-.08-1.86.68L-1099,765.83l-12.35,11.46-9.94,8.21-15.4,14.49-3.84,2.09-1.91.65-4.14,1.35-4.83,1.57-3.88,2.22-11.71,7.9-4,2.14-10.47,1.4-10.38,2.75-7.89,2.56-5.94,3.24-1.42,1-8.32,6.74-8,6.92-18.75,18.09-17.14,16.72-5.31,6.63-11.37,17.24-6.42,8.52-34.47,41.41-4.4,4.46-5.59,4.49-9.66,6.33-15.26,6.82-10.34,5.72-9,8.07-4.63,4.74-1.9,1.63-1.91,2.5-6.83,10.87-9.6,13.12-7.41,7.49-5.11,2.06-4.8,1-6.87,1.92-10.53,1.72-17.61-.66-13.16-.14-11.52.8-64.45,7.4-4.16.63-7.53,1-8.5,2.12-11.22,4.83-12.18,5.8-19.89,8.69-12.18,5-50.14,18.29-4,1.49-2.91-4.46-4.36-4.35-5.1-5.79-1.74-.41-1.61.23-3.4,1.14-10.25,4.66-5.59,2.26-4.84,2h-4.47l-4.64-1.46-6.12-2.58-4-1.45-1.77-.52-1.91.38-2.1,1.11-5.12,4-5.77,4.17-5,2.92-21.78,10.14-6.42,3.86-5.95,5.49-3.74,3.34-2.33,1.52-3.17,1.86-6.78-1.75-6.08-1.12-8.66-1-5-.24-5.26.41-6.73,1-8,2.23-9.16,3-8,3.23-6.24,3.06-5.45,3.4-6.1,4.35-17,14.11-10.76,8.92-17.86,14.17-3.49,4.49-3,1.29-3.2.66-17.3.31-5.45.32-15.2,3.88-10.41,2.57-4.34,1.29-5.91,2.25-9.32,5.32-4.66,3.38-8.15,6.91-12,13.54-4.49,4.52-5.28,4.49-3.52,2.11-7.2,3.69-6.73,2.91-5.29,2.74-40.52,26.9-2.84,2-6.45,4.57-10.74,7.54-15,10.63-7.9,5.43-4.1,2.8-4,2.58-5.12,2.39-23.55,7.58-5.12,1.94-5.76,2.89-5,3.23-2.7,1.63-3.87,2.88-3.51,3.06-9,9.17-8,10.32-7.85,10.8L-2231,1364l-11.85,6.77-13.6,6.14-7.39,4.18-3.81,2.54-4.36,2.92-4,3.54-2.73,2.91-2.09,3.38-.63,2.08-1.4,8.83-4.51,28.52-.5,3.11-6.57,33.49-5.44,27-.33.49L-2306,1530l-1.89,9.17-.91,1.69-2,1.23-5.82,2-6,2.18-9,4.68-11.85,7.09-10.1,6.6-5.92,3.68-6.57,3.89"/><path class="cls-7" d="M1012-1147.26c-2.9-.48-5.86-.85-8.8-1.28l-4.41-.63c-1.47-.22-2.93-.41-4.4-.51l-8.25-.72-18.2-2.67-9.29-1.38-4.65-.69c-.76-.11-1.6-.22-2.18-.35L949-1156l-28.86-3.06-3.45-.36-3.56-.49-7.13-1c-4.83-.52-9.75-.89-14.63-1.35l-14.46-1.21-14.14-.84-7.06-.41-3.54-.21-.44,0-.28,0-.56,0-.56,0-.81-.13-14.19-2.23-15.36-1.25-14.69-1.51-10.06-1L783-1154.87,770.56-1138l-9.93,12.56L741.08-1100l-15.87,20.83-1.93,2.75-1.94,2-7.68,9.56-3.49,4.63-1.53,2.57-3.83,6-4.4,6.71-9.41,14.9-7.78,10-4.81,5.93-4.88,5.7L663.24-998l-9.57,8.71-5.15,5.3-16.09,16.66-5,5-14.83,18L609.12-940l-3.65,4.39-6.16,7.41-3.14,3.78L587-913.83l-8.87,10.47-3.29,4.08-13.65,14.76-4.44,5.11-9.26,10.14v0l-.71.9-5,6.14-8.46,9.88L505.35-821.7,488-802.47l-11.58,12.84-5.77,6.42-3.07,3.38-2.46,2.72-.16,1.48-36.81,21.92-52.1,31.08-58.36,33-37.86,21.24-1,.83-3.8,2.16-10.31,5-9.49,4L243.2-652l-7.42,2-9.55,3.68-2.4,1-1.17.76-1.08.58-1.19,1.57-1,1.66-6.1,17.59-.88,2.52-1.09,1.34-.38.48L208-617l-4.41,1.71-6.42,1.82-5.8,1.94-5.67,2.48-7.22,3.69L171-600.62l-10.83,7.24-7,5.52L139-577.22l-8.8,7.12L122.45-563l-5.25,5.55-9.6,10.73-10.19,11-6.75,6.65-6.35,5.94L68.8-509.2l-23.51,19L33.1-479.45-1.09-449.86l-12.25,9.92L-47.29-412l-26.93,21.91L-86.91-380l-1,.78-6.38,3.8-5.12,1.77-15.21,3.4-15.23,3.55-14.42,4-14.93,4.38-14.41,4-16.37,4-6.73.65-9.63,1-5.61,1.28-2.89,1.29-4.47,2.57-7.38,5.8-18.75,17.54-5.71,7.88-7.36,9.13-3.92,4.42-3.19,5.48-1.92,5.28-1.42,5.71-.43,5.15.05,5.92-4,.25-3.24,1.54-3.24,2.91-6.06,4.66-18.27,12.41-4.66,4-7.71,6.28-10.27,9.67-1.75,2.26-1.61,4.34-2.21,8.88-2.42,9-3.51,9.52-3.71,8.7-1.12,2.57-4.17,8.06-3.37,6.44-1.43,2.42-5.6,9.18-4.55,5.81-19.4,24.83-10.56,15.32-3.77,5.35-.81,2-.36,1.9.21,1.62,1.05,2.11,1,2-8.12,6.91-6.82,8.86-9.75,22.85-8.37,27.1-5.45,14.16-2.26,4.17-4.47,7-9.63,10.65-4.28,7.16L-455,15l-.81,3.74-1.42,10.93v16.1l.31,3.09v4.83L-458,58.33l-8.5,15.15-21,35.6-6.08,9.83-6.24,10-4,5.63L-521,159l-3.51,5.8L-527.1,170l-4.33,10.32-1.44,3.55-3.84,10.28-3.38,8.87-11.27,30.33-1.07,2.89-4.8,14.49-.49,5L-558,273.1l-.49,4.86-1.11,5.63-1.59,4.52-2.72,4.83-11.39,19.64-1.94,3.2-8.84,16.44-10.72,21.67-5.94,12-3.05,5.8-2.89,3.86-2.09,2.89-13,12.58-6.9,7.43-3.84,5-4,6.6-4.17,8.06-1.93,6.29.16,4,1.77,8,.47,4.2-.47,5.14-.33,1.29-2.72,8.71-3.21,6.27-3.68,6-2.73,3.72-8.66,8.72-20.52,19-14.74,15.46-17.66,18.84-8.8,10.32-4,4.34-10.59,9.21h0l-19.9,16.61-5.14,5.15-2.23,2.89-1.45,3.85-.79,9.83-.63,2.61-1.15,2.57-3.18,4.8-1.94,1.78-15.2,13.2-10.6,7.55-4.48,2.12-3.53,1.28-3.68,1.11-9.62,1.63H-840l-15.06-.82-11.53-.09-2.58.43-7.23,2.4-7.38,2.74-8,2.26-6.73,1.29-19.23,4.83-12.67,4-5.32,3.23-6.1,4.83-13,14.18-5.12,5-3.38,2.75-31.3,21.12-13.62,7.72-9.93,6.43-9.12,8.2-3,2.6-6.73,4.34-13.3,6.92-9.48,3.87-3.35,2.11-4.17,3.06-4.17,3.37-2.56,1.95-2.24,1.74-1,.48-4.66-2.8-1.47-.08-1.86.68L-1099,765.83l-12.35,11.46-9.94,8.21-15.4,14.49-3.84,2.09-1.91.65-4.14,1.35-4.83,1.57-3.88,2.22-11.71,7.9-4,2.14-10.47,1.4-10.38,2.75-7.89,2.56-5.94,3.24-1.42,1-8.32,6.74-8,6.92-18.75,18.09-17.14,16.72-5.31,6.63-11.37,17.24-6.42,8.52-34.47,41.41-4.4,4.46-5.59,4.49-9.66,6.33-15.26,6.82-10.34,5.72-9,8.07-4.63,4.74-1.9,1.63-1.91,2.5-6.83,10.87-9.6,13.12-7.41,7.49-5.11,2.06-4.8,1-6.87,1.92-10.53,1.72-17.61-.66-13.16-.14-11.52.8-64.45,7.4-4.16.63-7.53,1-8.5,2.12-11.22,4.83-12.18,5.8-19.89,8.69-12.18,5-50.14,18.29-4,1.49-2.91-4.46-4.36-4.35-5.1-5.79-1.74-.41-1.61.23-3.4,1.14-10.25,4.66-5.59,2.26-4.84,2h-4.47l-4.64-1.46-6.12-2.58-4-1.45-1.77-.52-1.91.38-2.1,1.11-5.12,4-5.77,4.17-5,2.92-21.78,10.14-6.42,3.86-5.95,5.49-3.74,3.34-2.33,1.52-3.17,1.86-6.78-1.75-6.08-1.12-8.66-1-5-.24-5.26.41-6.73,1-8,2.23-9.16,3-8,3.23-6.24,3.06-5.45,3.4-6.1,4.35-17,14.11-10.76,8.92-17.86,14.17-3.49,4.49-3,1.29-3.2.66-17.3.31-5.45.32-15.2,3.88-10.41,2.57-4.34,1.29-5.91,2.25-9.32,5.32-4.66,3.38-8.15,6.91-12,13.54-4.49,4.52-5.28,4.49-3.52,2.11-7.2,3.69-6.73,2.91-5.29,2.74-40.52,26.9-2.84,2-6.45,4.57-10.74,7.54-15,10.63-7.9,5.43-4.1,2.8-4,2.58-5.12,2.39-23.55,7.58-5.12,1.94-5.76,2.89-5,3.23-2.7,1.63-3.87,2.88-3.51,3.06-9,9.17-8,10.32-7.85,10.8L-2231,1364l-11.85,6.77-13.6,6.14-7.39,4.18-3.81,2.54-4.36,2.92-4,3.54-2.73,2.91-2.09,3.38-.63,2.08-1.4,8.83-4.51,28.52-.5,3.11-6.57,33.49-5.44,27-.33.49L-2306,1530l-1.89,9.17-.91,1.69-2,1.23-5.82,2-6,2.18-9,4.68-11.85,7.09-10.1,6.6-5.92,3.68-6.57,3.89"/></g><g id="神戸"><path class="cls-3" d="M1061.42-1062.76l4.26-7.16c1.3-2.2,2.56-4.43,4-6.49s2.75-4.23,4.34-6.36l5.59-7.8m-78,537.68,10.86-15.55,5.43-7.77,1.43-2.07a26.55,26.55,0,0,0,1.53-2.47,35.29,35.29,0,0,0,2.36-5.14c2.55-7,3.13-13.69,4.11-19.73a32.66,32.66,0,0,1,1.88-7.76,9.85,9.85,0,0,1,1.58-2.55,8.19,8.19,0,0,1,1-1c.44-.37,1-.8,1.53-1.18a76.33,76.33,0,0,1,7.57-4.56c1.42-.81,2.84-1.6,4.39-2.59a34.8,34.8,0,0,0,4.57-3.56c5.46-5.14,9-11,12.38-16.29,6.72-10.45,14.31-20.91,20.39-32.77,1.5-3,2.85-5.85,4.21-8.67.32-.65.72-1.47,1.1-2.35s.73-1.78,1.06-2.73a23.72,23.72,0,0,0,1.17-6.18,35.14,35.14,0,0,0-.25-5.74l-.62-4.8-1.24-9.4-2.46-18.8a30.77,30.77,0,0,1-.22-8,19.06,19.06,0,0,1,.88-3.54c.43-1.24,1-2.56,1.6-4s1.29-2.89,2-4.51c.33-.81.65-1.66,1-2.53l.77-2.24c1-3,2.06-5.84,3.19-8.62l.87-2.06c.29-.66.56-1.25.88-1.87.61-1.24,1.32-2.48,2.08-3.75,1.53-2.52,3.33-5.22,5-8a39.17,39.17,0,0,0,2.65-4.92,22.25,22.25,0,0,0,1.7-6.24c0-.56.1-1.11.11-1.66s0-1.13,0-1.47l0-2.38-.09-4.77-.18-9.54c-.09-3.23-.2-6.46-.39-9.67-.69-12.87-2-25.57-3.25-38.16s-2.23-25.16-3.11-37.75-1.47-25.12-1.66-37.71c-.11-6.3-.16-12.56,0-18.76.06-3.15.27-6.05.37-9.53.07-3.32,0-6.53,0-9.61l0-2.28,0-1c0-.31,0-.64.06-1,.12-1.33.33-2.72.59-4.2l.85-4.68c.3-1.61.54-3.5.76-5l2.72-18.73,1.36-9.37.34-2.35.36-2.19c.26-1.45.57-2.91.9-4.37,1.36-5.85,3.27-11.76,5.15-17.88s3.51-12.51,5.17-18.46c.84-3,1.72-5.91,2.7-8.75s2.14-5.73,3.29-8.61m-62.63,23.89-1.17,1.78-.32.62-.49.95-.65.85-8.56,11.1-3,5.5-2,2.61c-.43.54-.93,1.28-1.39,1.91l-2.82,3.94-5.66,7.88-2.82,3.95-2.75,4-6.47,9.52-4.31,3.47-3.78,5.22-.47,9,3.34-1.09,5.14-1.13,8.93-1.29,8.69-1.31,17.42-2.68,17.33-2.66,8.64-1.35,8.45-1.83,7.13,21.64M-1304,1638.15l.76.3,3,1.14,3.5,1.51,2,.35,2.3.41.34.07,3.17.68,1,.21,5.22.28,4.83-.61,2.93-.36,8.1-1.16h8.64l5.77-.14,2.68-.14,4.87.07,3.46.09,2,.05,4.12.55,5.15,1.1,3.5.82,4.88,1.65,4,1,5.21,2.13,3.43,1.51.47.27,2.48,1.51,4.06,3.13,4.77,4.12,4.12,3.44,4.44,3.18,3.31,1.19,3,.91,1.19.36,3.45.39,5.24-1.19,5.9-1.66,2.45-.66,3.12-.67,4.11-.52,3.78-.14,3.38,1.13,4.35,2.36,3.27,2,3.55,2.17,3.35,2.57,27.4,21,2.67,1.8,2.6-.33,2.12-.79,1.2.76,4.64,2.88,3.72,1.22,3.3.81,2.64.53,1.41-.13,2.36-.28,2.07-.51,4.66-2.43,5.45-3.86,8.34-5.46,4.47-2.56,13.3-7.89,5-1.63,6.73-1.63,5-2.09,2.07-1.45,2.75-2.57,5.28-7.89,1.28-1.28,2.56-2.26,3.85-2.4,14.09-6.08,7.22-1,16.81-1.77,11.53-.32,7.52.46,16,1.94,6.74.52,5.26-.2,6.1-1.77,5.45-1.72,3.61-1,2.94-.8,6.1.51,8.17,2.43,4.8,1.6.79.45,4.66,1.6,9.13,1.66,14.09,1,11.22,1.59,1.89.49,18.42,2.57,33.47,4.8,14.11,1.8,3.38.49,7.52.8,10.88-.18,4.65-.79,10.25-2.89,9.62-3.09,8-3.2,9.62-5.31,9.12-6.11,16-8.55,10.87-7.71,5.78-4.83,6.41-6.46.09,0,4.54-3,4.82-2.25,6.4-2.23,27.23-6.29,17.14-3.71,4.82-.17,14.07,5.17,3.84.94,5.87-.45,3.86-4.38.68-.63,3.38-1.77,7.68-2.28,3.68-1,5.45-1.63,4-.94,3.38-1.2,4.31-1.06,2.89-.8,10.87-3,24.2-7,29.62-8.51,4.48-1.15,5.64-1,4.14-3,3.56-2.42,5.12-2.57,5.59-1.63,1.82-.38,2.84-.57,11.86-1.94,3.68-.48,3.79-.8,2-.75,2.59-1,4.21-2.12,11.23-5.58,1.21-.43,6.43-2.88,7.31-1.69,3.28-.79,1.8-.38,2-.2,5.43-.34,5-.63,3.21-.83,5.13-2.25,2.4-2.09,1.51-1.94,11-14.32,3.85-5.14,13.13-19,6.57-9.18,5-4.37,8-3.86,5.31-2.19,4.63-2.46,3.05-2.6,4.31-4.66,17.93-25.6,1.77-1.78,2.21-1.45,8.18-4.83,1.93-1L-254,1424l3.21-2.25,6.41-2.61,9-1.91,7.38-1.46,2.4-1.28.47-29.46.65-3.72.48-1.14,2.1-2.4,2.56-2,5.76-3.45,11.39-4,9.07-2.66,1.8-.8,1.84-.64,3.93-1.3,31.54-11,5.12-1.6,27.39-9.51,9.19-3,8.44-1.24,4.29-.48,5.47-.27,9.43-.26,8.15,1.38,5.74,1.63,4.39,2.53,13.3,6.61,14.07,6.91,6.75,2.15,2.8-.52.44-.08,2.37-2.52,1-1.94-.3-3.43L-27,1335.94l-.48-5.39.15-3.31.61-2.76,1.12-5.17,1.66-4,2.36-4,1.08-2.15,5.47-6.6,4-2.11,9.79-6.53,12.37-8,4.36-3.15,11.24-5.23,6-2.72,7.9-2.91,26.89-8.14,14-3.84,4-.79,5.12-1.74,5.43-1.85,5.94-1.61,5.29-.84,13.66-.27,7.12.08,14.26-1,14.2-1,10.57-2.59,6.71-2.49,7.09-2.75,6.93-3.45,18.44-12.24L226.56,1217l11-4.9,1.3-.39,2.64-.28h6.38l10.75,0,3.59-.52,7.21-.63,2.42-.78,10.14-12,2.61-3.4,4.64-2.65,7.52-4.63,2.42-2.3,6-7.46,9.25-9.56L318,1165l4.3-2.29,13.9-7.68,9.18-7.46,6.06-4.84,5.29-4.12,6.58-5.49,4.33-3,3.91-2,3.84-1.33,4.66-1.41,9.76-3.06,11.3-4.37,16.9-7.71,9.32-4,8.47-2.43,9.22-2.59,8-2.16,12.64-3.82,11.31-2.59,7.29-1.91,3.86-1,2.55-2.3,6.53-6.42,13.32-15.94,1.15-1.42,13.95-16.43,3.58-5.09,2.9-6.87,11.58-27.45,4.32-6.17,4.38-3.58,12-8.54,4.5-4.52,7.39-8,4.41-3.09,2.81-1.28,2.6-.74,5.52-.72,5.94-.07,4.85.24,11.15.39,2.86-.3,1.74-.18,5-2.66,2.89-2,2.73-2.53,2.24-2.78,1.8-3.52.88-2.92.22-8.1.63-18.06,2.16-8.3,1.92-4.29,2.68-5.44,5.58-10.79.59-1.15,15.56-30.1L669,859.1l3.42-4.21,3.93-3,1.19-.38,1-.36,5.81-2.65,1.43-.62,61.61-24.67,7.32-3.25,10.76-3.42,8.25-2,10.64-2.29,12.86-3,3.68-1,2.85-1.33,5.74-3.27,9.39-6.5,5.91-4.06,4.19-2,5.39-2.39,1.2-.49.76-.35,4.61-1.62,7.21-1.56,7.36-2.33,38.15-11M1001.87-553.36l-1.5,2.65L990.28-538c-1.6,2.06-3.31,4.05-4.81,6.18L981-525.44l-9.28,13-1.16,1.63-1.22,1.56-1.22,1.56-1.1,1.53-4.44,6.24-6.3,10.53L954-484.52c-4.12,12.74-8.57,27.43-12.55,40.34l-1.25,6.74c-.47,2.35-.83,4.71-1.18,7.06-.74,4.69-1.37,9.48-2,14.23s-1.3,9.54-1.83,14.3l-1.68,14.43-1.75,14.49-.88,7.25c-.13,1.2-.29,2.41-.53,3.66l-.53,3.55-1,7.07c-.33,2.37-.57,4.84-.86,7.25s-.78,4.84-1.17,7.26l-1.4,7.74-3.4,9.32-1,8.76c-.2,1.56-.31,3.16-.4,4.77l-.32,4.82c-.65,6.45-1.12,12.78-1.6,19.15l-.73,9.55-.82,9.7c-.35,6.55-1.68,12.79-2,19.17l-6.23,76.51v.41l-.87,10.5-.9,10.35-1.81,20.7c-.62,6.9-1.23,13.8-1.68,20.71l-1.44,20,1.82,10.55c.66,3.81,1.27,7.32,2.11,11,1,3.65,1.68,7.56,2.4,11.41l1,5.8c.16,1,.27,2.07.4,3l.4,3.21v12c0,3.89,0,7.79-.18,11.62l-.48,11.56-.24,5.78c-.06,1-.07,1.91-.06,2.84v3.1L906.68,34.6c-.39,4.54-1,9-1.54,13.58L903.46,62l-2,9.3-1.76,13.61c-.28,2.31-.61,4.6-.87,6.93l-.71,7-1.44,14c-.13,1.17-.2,2.33-.39,3.5l-.59,3.52-1.14,6.81-.81,8.79.09,9.15.58,7.26c.18,2.49.6,5,.89,7.46l2,15,2.08,15,2.16,15.26.41,5.71.35,5.51.65,11m0,.24c-.06,8.18-.37,15.94-.54,23.77l-.3,11.74c-.06,3.91-.29,7.81-.21,11.74,0,15.68.29,31.35,0,47.07-.09,15.69,0,31.36,0,47l.11,23.62c.23,7.89-.37,15.81-.64,23.72l-5.65,16.65.25,22.05-.33,22.67-.16,12.41-.31,9.38-.09,47.16-.08,1.66.1,17.57-.66,32.78,0,1.8-.33,28.29.34,10.7.31,9.7-.08,2.82-.61,12.32L893,671.52l-.37,2.79-1,7.49-1.15,8.27-.33,2.09L889,699.22,886.9,712l-.07.73-.15,1.37-.33,3.24-1.09,10.44-.25,5.94,2.39,10.92,6.23,26.69m106.44-1321.9,8.21,4.93,10,5.16,3.49,1.93,13.22,5,10,3.14,18.85,4.94,18.78,3.51,84.66,18.83,4.39,1.78,3.14.44L1197-495.8l11.08,2.54,5.54,1.26,5.6,1,8.43,2.45c1.9.31,3.79.66,5.69,1m0,0,1.32-5.33,1.46-5.86.73-2.93.89-2.82.88-2.82,1-2.9,2-5.8,4-11.6,2-5.8,2.11-5.76,8.5-23.17,2.13-5.82,1.9-5.86c1.22-3.94,2.68-7.75,4.06-11.6L1283-631.9c2.82-7.71,5.53-15.55,8.18-23.28,1.34-3.88,2.66-7.76,4.07-11.61l4.28-11.94,1.75-8.25,1.53-7.88,1.51-7.83c.5-2.6,1-5.19,1.55-7.81,1-5.22,2.19-10.46,3.11-15.67.48-2.6.87-5.21,1.44-7.82s1-5.23,1.49-7.86c.93-5.25,1.83-10.58,2.79-15.76l1.44-7.8,1.56-7.83,1.57-7.84c.53-2.61.91-5.19,1.38-7.79s.82-5.21,1.51-7.73l1.78-7.38,1.58-4.83,5.28-7.77,9.74-11.78M893.63,771.36l3.47,14.91M1377.32-423.58l-18.53-12.37-2.56-2.92c-11.37-8-23.08-15.51-35-22.65l-8.68-4-8.9-3.52-9-3.32-9-3.22-14.39-3.75-3.61-.9L1264-481l-7.27-1.55-14.55-3.09c-3-.63-5.93-1.26-8.9-1.85"/><path class="cls-8" d="M1061.42-1062.76l4.26-7.16c1.3-2.2,2.56-4.43,4-6.49s2.75-4.23,4.34-6.36l5.59-7.8m-78,537.68,10.86-15.55,5.43-7.77,1.43-2.07a26.55,26.55,0,0,0,1.53-2.47,35.29,35.29,0,0,0,2.36-5.14c2.55-7,3.13-13.69,4.11-19.73a32.66,32.66,0,0,1,1.88-7.76,9.85,9.85,0,0,1,1.58-2.55,8.19,8.19,0,0,1,1-1c.44-.37,1-.8,1.53-1.18a76.33,76.33,0,0,1,7.57-4.56c1.42-.81,2.84-1.6,4.39-2.59a34.8,34.8,0,0,0,4.57-3.56c5.46-5.14,9-11,12.38-16.29,6.72-10.45,14.31-20.91,20.39-32.77,1.5-3,2.85-5.85,4.21-8.67.32-.65.72-1.47,1.1-2.35s.73-1.78,1.06-2.73a23.72,23.72,0,0,0,1.17-6.18,35.14,35.14,0,0,0-.25-5.74l-.62-4.8-1.24-9.4-2.46-18.8a30.77,30.77,0,0,1-.22-8,19.06,19.06,0,0,1,.88-3.54c.43-1.24,1-2.56,1.6-4s1.29-2.89,2-4.51c.33-.81.65-1.66,1-2.53l.77-2.24c1-3,2.06-5.84,3.19-8.62l.87-2.06c.29-.66.56-1.25.88-1.87.61-1.24,1.32-2.48,2.08-3.75,1.53-2.52,3.33-5.22,5-8a39.17,39.17,0,0,0,2.65-4.92,22.25,22.25,0,0,0,1.7-6.24c0-.56.1-1.11.11-1.66s0-1.13,0-1.47l0-2.38-.09-4.77-.18-9.54c-.09-3.23-.2-6.46-.39-9.67-.69-12.87-2-25.57-3.25-38.16s-2.23-25.16-3.11-37.75-1.47-25.12-1.66-37.71c-.11-6.3-.16-12.56,0-18.76.06-3.15.27-6.05.37-9.53.07-3.32,0-6.53,0-9.61l0-2.28,0-1c0-.31,0-.64.06-1,.12-1.33.33-2.72.59-4.2l.85-4.68c.3-1.61.54-3.5.76-5l2.72-18.73,1.36-9.37.34-2.35.36-2.19c.26-1.45.57-2.91.9-4.37,1.36-5.85,3.27-11.76,5.15-17.88s3.51-12.51,5.17-18.46c.84-3,1.72-5.91,2.7-8.75s2.14-5.73,3.29-8.61m-62.63,23.89-1.17,1.78-.32.62-.49.95-.65.85-8.56,11.1-3,5.5-2,2.61c-.43.54-.93,1.28-1.39,1.91l-2.82,3.94-5.66,7.88-2.82,3.95-2.75,4-6.47,9.52-4.31,3.47-3.78,5.22-.47,9,3.34-1.09,5.14-1.13,8.93-1.29,8.69-1.31,17.42-2.68,17.33-2.66,8.64-1.35,8.45-1.83,7.13,21.64M-1304,1638.15l.76.3,3,1.14,3.5,1.51,2,.35,2.3.41.34.07,3.17.68,1,.21,5.22.28,4.83-.61,2.93-.36,8.1-1.16h8.64l5.77-.14,2.68-.14,4.87.07,3.46.09,2,.05,4.12.55,5.15,1.1,3.5.82,4.88,1.65,4,1,5.21,2.13,3.43,1.51.47.27,2.48,1.51,4.06,3.13,4.77,4.12,4.12,3.44,4.44,3.18,3.31,1.19,3,.91,1.19.36,3.45.39,5.24-1.19,5.9-1.66,2.45-.66,3.12-.67,4.11-.52,3.78-.14,3.38,1.13,4.35,2.36,3.27,2,3.55,2.17,3.35,2.57,27.4,21,2.67,1.8,2.6-.33,2.12-.79,1.2.76,4.64,2.88,3.72,1.22,3.3.81,2.64.53,1.41-.13,2.36-.28,2.07-.51,4.66-2.43,5.45-3.86,8.34-5.46,4.47-2.56,13.3-7.89,5-1.63,6.73-1.63,5-2.09,2.07-1.45,2.75-2.57,5.28-7.89,1.28-1.28,2.56-2.26,3.85-2.4,14.09-6.08,7.22-1,16.81-1.77,11.53-.32,7.52.46,16,1.94,6.74.52,5.26-.2,6.1-1.77,5.45-1.72,3.61-1,2.94-.8,6.1.51,8.17,2.43,4.8,1.6.79.45,4.66,1.6,9.13,1.66,14.09,1,11.22,1.59,1.89.49,18.42,2.57,33.47,4.8,14.11,1.8,3.38.49,7.52.8,10.88-.18,4.65-.79,10.25-2.89,9.62-3.09,8-3.2,9.62-5.31,9.12-6.11,16-8.55,10.87-7.71,5.78-4.83,6.41-6.46.09,0,4.54-3,4.82-2.25,6.4-2.23,27.23-6.29,17.14-3.71,4.82-.17,14.07,5.17,3.84.94,5.87-.45,3.86-4.38.68-.63,3.38-1.77,7.68-2.28,3.68-1,5.45-1.63,4-.94,3.38-1.2,4.31-1.06,2.89-.8,10.87-3,24.2-7,29.62-8.51,4.48-1.15,5.64-1,4.14-3,3.56-2.42,5.12-2.57,5.59-1.63,1.82-.38,2.84-.57,11.86-1.94,3.68-.48,3.79-.8,2-.75,2.59-1,4.21-2.12,11.23-5.58,1.21-.43,6.43-2.88,7.31-1.69,3.28-.79,1.8-.38,2-.2,5.43-.34,5-.63,3.21-.83,5.13-2.25,2.4-2.09,1.51-1.94,11-14.32,3.85-5.14,13.13-19,6.57-9.18,5-4.37,8-3.86,5.31-2.19,4.63-2.46,3.05-2.6,4.31-4.66,17.93-25.6,1.77-1.78,2.21-1.45,8.18-4.83,1.93-1L-254,1424l3.21-2.25,6.41-2.61,9-1.91,7.38-1.46,2.4-1.28.47-29.46.65-3.72.48-1.14,2.1-2.4,2.56-2,5.76-3.45,11.39-4,9.07-2.66,1.8-.8,1.84-.64,3.93-1.3,31.54-11,5.12-1.6,27.39-9.51,9.19-3,8.44-1.24,4.29-.48,5.47-.27,9.43-.26,8.15,1.38,5.74,1.63,4.39,2.53,13.3,6.61,14.07,6.91,6.75,2.15,2.8-.52.44-.08,2.37-2.52,1-1.94-.3-3.43L-27,1335.94l-.48-5.39.15-3.31.61-2.76,1.12-5.17,1.66-4,2.36-4,1.08-2.15,5.47-6.6,4-2.11,9.79-6.53,12.37-8,4.36-3.15,11.24-5.23,6-2.72,7.9-2.91,26.89-8.14,14-3.84,4-.79,5.12-1.74,5.43-1.85,5.94-1.61,5.29-.84,13.66-.27,7.12.08,14.26-1,14.2-1,10.57-2.59,6.71-2.49,7.09-2.75,6.93-3.45,18.44-12.24L226.56,1217l11-4.9,1.3-.39,2.64-.28h6.38l10.75,0,3.59-.52,7.21-.63,2.42-.78,10.14-12,2.61-3.4,4.64-2.65,7.52-4.63,2.42-2.3,6-7.46,9.25-9.56L318,1165l4.3-2.29,13.9-7.68,9.18-7.46,6.06-4.84,5.29-4.12,6.58-5.49,4.33-3,3.91-2,3.84-1.33,4.66-1.41,9.76-3.06,11.3-4.37,16.9-7.71,9.32-4,8.47-2.43,9.22-2.59,8-2.16,12.64-3.82,11.31-2.59,7.29-1.91,3.86-1,2.55-2.3,6.53-6.42,13.32-15.94,1.15-1.42,13.95-16.43,3.58-5.09,2.9-6.87,11.58-27.45,4.32-6.17,4.38-3.58,12-8.54,4.5-4.52,7.39-8,4.41-3.09,2.81-1.28,2.6-.74,5.52-.72,5.94-.07,4.85.24,11.15.39,2.86-.3,1.74-.18,5-2.66,2.89-2,2.73-2.53,2.24-2.78,1.8-3.52.88-2.92.22-8.1.63-18.06,2.16-8.3,1.92-4.29,2.68-5.44,5.58-10.79.59-1.15,15.56-30.1L669,859.1l3.42-4.21,3.93-3,1.19-.38,1-.36,5.81-2.65,1.43-.62,61.61-24.67,7.32-3.25,10.76-3.42,8.25-2,10.64-2.29,12.86-3,3.68-1,2.85-1.33,5.74-3.27,9.39-6.5,5.91-4.06,4.19-2,5.39-2.39,1.2-.49.76-.35,4.61-1.62,7.21-1.56,7.36-2.33,38.15-11M1001.87-553.36l-1.5,2.65L990.28-538c-1.6,2.06-3.31,4.05-4.81,6.18L981-525.44l-9.28,13-1.16,1.63-1.22,1.56-1.22,1.56-1.1,1.53-4.44,6.24-6.3,10.53L954-484.52c-4.12,12.74-8.57,27.43-12.55,40.34l-1.25,6.74c-.47,2.35-.83,4.71-1.18,7.06-.74,4.69-1.37,9.48-2,14.23s-1.3,9.54-1.83,14.3l-1.68,14.43-1.75,14.49-.88,7.25c-.13,1.2-.29,2.41-.53,3.66l-.53,3.55-1,7.07c-.33,2.37-.57,4.84-.86,7.25s-.78,4.84-1.17,7.26l-1.4,7.74-3.4,9.32-1,8.76c-.2,1.56-.31,3.16-.4,4.77l-.32,4.82c-.65,6.45-1.12,12.78-1.6,19.15l-.73,9.55-.82,9.7c-.35,6.55-1.68,12.79-2,19.17l-6.23,76.51v.41l-.87,10.5-.9,10.35-1.81,20.7c-.62,6.9-1.23,13.8-1.68,20.71l-1.44,20,1.82,10.55c.66,3.81,1.27,7.32,2.11,11,1,3.65,1.68,7.56,2.4,11.41l1,5.8c.16,1,.27,2.07.4,3l.4,3.21v12c0,3.89,0,7.79-.18,11.62l-.48,11.56-.24,5.78c-.06,1-.07,1.91-.06,2.84v3.1L906.68,34.6c-.39,4.54-1,9-1.54,13.58L903.46,62l-2,9.3-1.76,13.61c-.28,2.31-.61,4.6-.87,6.93l-.71,7-1.44,14c-.13,1.17-.2,2.33-.39,3.5l-.59,3.52-1.14,6.81-.81,8.79.09,9.15.58,7.26c.18,2.49.6,5,.89,7.46l2,15,2.08,15,2.16,15.26.41,5.71.35,5.51.65,11m0,.24c-.06,8.18-.37,15.94-.54,23.77l-.3,11.74c-.06,3.91-.29,7.81-.21,11.74,0,15.68.29,31.35,0,47.07-.09,15.69,0,31.36,0,47l.11,23.62c.23,7.89-.37,15.81-.64,23.72l-5.65,16.65.25,22.05-.33,22.67-.16,12.41-.31,9.38-.09,47.16-.08,1.66.1,17.57-.66,32.78,0,1.8-.33,28.29.34,10.7.31,9.7-.08,2.82-.61,12.32L893,671.52l-.37,2.79-1,7.49-1.15,8.27-.33,2.09L889,699.22,886.9,712l-.07.73-.15,1.37-.33,3.24-1.09,10.44-.25,5.94,2.39,10.92,6.23,26.69m106.44-1321.9,8.21,4.93,10,5.16,3.49,1.93,13.22,5,10,3.14,18.85,4.94,18.78,3.51,84.66,18.83,4.39,1.78,3.14.44L1197-495.8l11.08,2.54,5.54,1.26,5.6,1,8.43,2.45c1.9.31,3.79.66,5.69,1m0,0,1.32-5.33,1.46-5.86.73-2.93.89-2.82.88-2.82,1-2.9,2-5.8,4-11.6,2-5.8,2.11-5.76,8.5-23.17,2.13-5.82,1.9-5.86c1.22-3.94,2.68-7.75,4.06-11.6L1283-631.9c2.82-7.71,5.53-15.55,8.18-23.28,1.34-3.88,2.66-7.76,4.07-11.61l4.28-11.94,1.75-8.25,1.53-7.88,1.51-7.83c.5-2.6,1-5.19,1.55-7.81,1-5.22,2.19-10.46,3.11-15.67.48-2.6.87-5.21,1.44-7.82s1-5.23,1.49-7.86c.93-5.25,1.83-10.58,2.79-15.76l1.44-7.8,1.56-7.83,1.57-7.84c.53-2.61.91-5.19,1.38-7.79s.82-5.21,1.51-7.73l1.78-7.38,1.58-4.83,5.28-7.77,9.74-11.78M893.63,771.36l3.47,14.91M1377.32-423.58l-18.53-12.37-2.56-2.92c-11.37-8-23.08-15.51-35-22.65l-8.68-4-8.9-3.52-9-3.32-9-3.22-14.39-3.75-3.61-.9L1264-481l-7.27-1.55-14.55-3.09c-3-.63-5.93-1.26-8.9-1.85"/></g><g id="横枕"><path class="cls-3" d="M1051.48-1069l-1.37,2.09-.6,1.17h0l-9.16,11.87-2.94,5.5q-11.76,15.82-22.77,32.2l-4.17,3.35-5.36,7.4-.88,1.85-.71,2.66-.54,4.39.09,5.69-1.85,21.6c1.32-.84,2.68-1.86,4-2.78s2.86-2.07,4.24-2.93l2.06-1.25,2.06-1.07,4.09-1.76,3.52-1.15,4.15-.91,8.53-1.23,8.76-1.33,17.45-2.67,17.54-2.7,8.79-1.38,1.67,8.69M891.24,227.55l-.65-11-.34-5.46-.38-5.25L887.76,191l-2.09-15.1c-.69-5-1.37-10.07-2-15.18-.3-2.56-.72-5.08-.91-7.66l-.64-7.9L882,135l.9-9.81,1.17-7,.58-3.39c.18-1.14.25-2.31.38-3.46l1.42-13.89.71-6.94c.25-2.32.59-4.65.88-7l1.83-14.2,2-9.26,1.6-13.21c.53-4.5,1.15-9,1.54-13.49l2.58-26.79V3.89c0-1,0-2,.06-2.94l.24-5.78.48-11.55c.23-3.87.18-7.68.18-11.5V-39l-.31-2.47c-.13-1-.2-1.76-.36-2.68l-1-5.49c-.69-3.65-1.3-7.27-2.31-11S893-68.42,892.4-72.12l-2.07-12,1.54-21.48c.46-6.93,1.07-13.83,1.68-20.74l1.82-20.72,1.74-20.58,0-.51,6.28-76.94c.29-6.46,1.64-12.82,2-19.1l.79-9.48.74-9.64c.49-6.42,1-12.88,1.61-19.19l.31-4.79c.1-1.6.2-3.19.41-4.81l1.14-10.38,3.54-9.69,1.17-6.54c.39-2.35.95-4.67,1.15-7.06s.51-4.73.85-7.15l1.07-7.28.55-3.62c.22-1.13.37-2.32.51-3.52l.86-7.15,1.73-14.31,1.67-14.39c.55-4.85,1.24-9.66,1.85-14.49s1.32-9.62,2.09-14.49c.36-2.43.73-4.85,1.2-7.24L930-447c4.47-14.5,8.32-27.27,13-41.83l2.85-6.07,6.84-11.44,4.75-6.67,1.22-1.7,1.22-1.56,1.23-1.56,1.14-1.6,9.13-12.83,4.67-6.56c1.55-2.2,3.29-4.22,4.93-6.34l9.62-12.13,1-1.85,11.23-16.12,5.46-7.82.68-1,.34-.48.25-.38a16.51,16.51,0,0,0,1-1.57,22.87,22.87,0,0,0,1.6-3.5c1.87-5,2.52-11,3.52-17.47a42.68,42.68,0,0,1,2.73-10.64,21.59,21.59,0,0,1,3.42-5.5,21.44,21.44,0,0,1,2.35-2.32c.77-.65,1.48-1.19,2.23-1.74a90.57,90.57,0,0,1,8.69-5.27c1.34-.76,2.69-1.52,3.81-2.24a23.31,23.31,0,0,0,2.93-2.29c3.83-3.56,7.06-8.64,10.46-14s7.08-10.66,10.47-15.93a179.88,179.88,0,0,0,9.35-15.85c1.38-2.71,2.71-5.55,4.1-8.45s2.08-4.64,2.18-6.79a21.73,21.73,0,0,0-.18-3.75l-.6-4.64-1.25-9.45-2.47-18.93a41.42,41.42,0,0,1-.18-11,30.64,30.64,0,0,1,1.4-5.68c.61-1.75,1.29-3.36,1.95-4.86s1.29-2.9,1.82-4.22c.28-.66.51-1.3.73-1.92l.77-2.25c1-3,2.16-6.14,3.42-9.23l1-2.31c.34-.8.74-1.65,1.14-2.44.8-1.6,1.66-3.12,2.53-4.56,1.77-2.91,3.5-5.48,5.1-8.09s2.5-4.5,2.68-6.33c0-.24,0-.47,0-.72v-.9l0-2.38-.09-4.74-.17-9.48c-.09-3.11-.2-6.21-.38-9.33-.67-12.47-2-25-3.22-37.66s-2.24-25.37-3.13-38.08-1.5-25.53-1.69-38.31c-.11-6.37-.16-12.8,0-19.27.07-3.19.29-6.63.37-9.49s0-6.15,0-9.41l0-2.47,0-1.34c0-.48.06-.94.09-1.41.16-1.83.43-3.58.72-5.22l.85-4.68c.28-1.51.42-2.76.67-4.43l2.75-18.91,1.37-9.46.34-2.36.42-2.5c.3-1.67.64-3.31,1-4.94,1.5-6.51,3.52-12.68,5.35-18.68s3.35-11.91,5.1-18.18c.87-3.11,1.81-6.27,2.91-9.42s2.29-6.15,3.49-9.16M274.07,482.2l2.93-2.11,2.48-2.54,2.82-3.37L288,470l7.47-2.77,5.67-4,4.82-4.58,6.15-7,9.63-9.27,7.23-7.12,7.11-5.66,5.43-6.39,4.7-8.19,4.33-11.45,5.55-11.08,7.23-10.13,8.56-8.8,10.24-9.88,11.69-6.62,9-4.71L415,344.87l.89-.49,19.83-16.74,6.76-4.1,5.29-1.93,5.67.36,6.87,2.78,11,6.14,5.66,2.17,4.58.48,6.39-2.28,4.4-3.19,11-7.93.63-.46,8.32-6.14,18.56-13.38,5.9-2.53,8.2-2.89,12.17-5.18,7.59-6.87.92-.75,6.43-5.27,5.3-2.78,5.18.72,7.24,2.06,5.54,2.89,6.75,1.68,7.23.61.36-.06,11.69-1.51,20.49-3.93,1.68,4,1,2.38,2,8.26,1.29,8.84-2.09,29-.13,1.88-.56,7.86V343l.39,3,1.4,2,2.39,2.06,6.81,4.73,4,3,10.78,7.83L690,378.74l2.22,1,2.73,1.23,4.73,2,5,2.55,3.89,3.16,3.11,4.05,2.33,6.44,3,3.75,2.63,2.4,7,4.48,3.81,3.5,9.26,11.89,1.46,1.61,2.16,2.37,3.54,3.51,10.73,2.22,8.55,1.19,2.51.45,2.16.37,6.43-2.19,3.19-1.53L782,432l1.41-1.48,5.17-5.36,7-7.45,3.81-3.09,3.19-1.15,2.14.14,13.63.91,5.41.35,25.2.82,26.74.22h0l13.95-.59c.26-7.78.87-15.53.63-23.34l-.11-23.48c0-15.71-.12-31.44,0-47.14.34-15.68.09-31.41,0-47.12-.08-3.92.15-7.86.21-11.8l.31-11.8c.16-7.86.47-15.8.53-23.31m2.38-286-11.32-1.1-7.7-.44-6.18-.27-25.16-1.66-1,0L846-45.54l5,23.11,4,18.14L856,.49l6.11,47.88-4.45.09-9.69.11-5.47,0-5.36-.27-14.83-1.51L808.05,45.4l-7.64-1.18-7.89-.68-7.77.46-8,.83-7,1.27-4.91,2.34-4.18,3.09L752.36,58l-.48.37L737.39,70.3l-1.53.76-2.74.25-3.81-.92-9.09-2.93-4.69-.2-4.87,1.39-6.13,2.6-2.2,1.45-2.2,1.67-1.77,3-2.82,5-1.69,3.23L691,91.12l-3.67,7.19-3.19,6-2.64,4.77-5.94,5.42-9.67,7.18-3.73,2.76-17.91,13.21-12.42,9.16-4.94,3.51-4.06,4-3.56,3.62L617.75,160l-2.44,7.39-1.11,5-2.14,4.92-6.07,9-10,13.64-6.59,8.94-3.24,5.38-.73,3.45.64,12.21.39,1.37-.88,3.32-1.82,5.89-2.42,4.08-.8,1.46-1.22,2.18-.63.63-.6.61-3.9,1.73-3.23,1.23-2.69.24-2.69.6-2.15,1.3-1.95,2.52-.14.17-2.1,2.28-2.9,4.49-2.53,3.85-1,.91-2.6.62-9.26-.18-1.4.31-2.06.56-2.58,1.37-3.12,1.75L529,277l-4,5.69-4.11,3.6-2.14,1.64-4.08,2.88-2.54,1.81-4.1,5.13-3.11,4.4-1.19,3.11-2.57,11.91,2.09,3M1051.48-1069l4.14-7c1.37-2.32,2.7-4.66,4.25-6.87,2.92-4.53,6.13-8.87,9.26-13.25"/><path class="cls-5" d="M1051.48-1069l-1.37,2.09-.6,1.17h0l-9.16,11.87-2.94,5.5q-11.76,15.82-22.77,32.2l-4.17,3.35-5.36,7.4-.88,1.85-.71,2.66-.54,4.39.09,5.69-1.85,21.6c1.32-.84,2.68-1.86,4-2.78s2.86-2.07,4.24-2.93l2.06-1.25,2.06-1.07,4.09-1.76,3.52-1.15,4.15-.91,8.53-1.23,8.76-1.33,17.45-2.67,17.54-2.7,8.79-1.38,1.67,8.69M891.24,227.55l-.65-11-.34-5.46-.38-5.25L887.76,191l-2.09-15.1c-.69-5-1.37-10.07-2-15.18-.3-2.56-.72-5.08-.91-7.66l-.64-7.9L882,135l.9-9.81,1.17-7,.58-3.39c.18-1.14.25-2.31.38-3.46l1.42-13.89.71-6.94c.25-2.32.59-4.65.88-7l1.83-14.2,2-9.26,1.6-13.21c.53-4.5,1.15-9,1.54-13.49l2.58-26.79V3.89c0-1,0-2,.06-2.94l.24-5.78.48-11.55c.23-3.87.18-7.68.18-11.5V-39l-.31-2.47c-.13-1-.2-1.76-.36-2.68l-1-5.49c-.69-3.65-1.3-7.27-2.31-11S893-68.42,892.4-72.12l-2.07-12,1.54-21.48c.46-6.93,1.07-13.83,1.68-20.74l1.82-20.72,1.74-20.58,0-.51,6.28-76.94c.29-6.46,1.64-12.82,2-19.1l.79-9.48.74-9.64c.49-6.42,1-12.88,1.61-19.19l.31-4.79c.1-1.6.2-3.19.41-4.81l1.14-10.38,3.54-9.69,1.17-6.54c.39-2.35.95-4.67,1.15-7.06s.51-4.73.85-7.15l1.07-7.28.55-3.62c.22-1.13.37-2.32.51-3.52l.86-7.15,1.73-14.31,1.67-14.39c.55-4.85,1.24-9.66,1.85-14.49s1.32-9.62,2.09-14.49c.36-2.43.73-4.85,1.2-7.24L930-447c4.47-14.5,8.32-27.27,13-41.83l2.85-6.07,6.84-11.44,4.75-6.67,1.22-1.7,1.22-1.56,1.23-1.56,1.14-1.6,9.13-12.83,4.67-6.56c1.55-2.2,3.29-4.22,4.93-6.34l9.62-12.13,1-1.85,11.23-16.12,5.46-7.82.68-1,.34-.48.25-.38a16.51,16.51,0,0,0,1-1.57,22.87,22.87,0,0,0,1.6-3.5c1.87-5,2.52-11,3.52-17.47a42.68,42.68,0,0,1,2.73-10.64,21.59,21.59,0,0,1,3.42-5.5,21.44,21.44,0,0,1,2.35-2.32c.77-.65,1.48-1.19,2.23-1.74a90.57,90.57,0,0,1,8.69-5.27c1.34-.76,2.69-1.52,3.81-2.24a23.31,23.31,0,0,0,2.93-2.29c3.83-3.56,7.06-8.64,10.46-14s7.08-10.66,10.47-15.93a179.88,179.88,0,0,0,9.35-15.85c1.38-2.71,2.71-5.55,4.1-8.45s2.08-4.64,2.18-6.79a21.73,21.73,0,0,0-.18-3.75l-.6-4.64-1.25-9.45-2.47-18.93a41.42,41.42,0,0,1-.18-11,30.64,30.64,0,0,1,1.4-5.68c.61-1.75,1.29-3.36,1.95-4.86s1.29-2.9,1.82-4.22c.28-.66.51-1.3.73-1.92l.77-2.25c1-3,2.16-6.14,3.42-9.23l1-2.31c.34-.8.74-1.65,1.14-2.44.8-1.6,1.66-3.12,2.53-4.56,1.77-2.91,3.5-5.48,5.1-8.09s2.5-4.5,2.68-6.33c0-.24,0-.47,0-.72v-.9l0-2.38-.09-4.74-.17-9.48c-.09-3.11-.2-6.21-.38-9.33-.67-12.47-2-25-3.22-37.66s-2.24-25.37-3.13-38.08-1.5-25.53-1.69-38.31c-.11-6.37-.16-12.8,0-19.27.07-3.19.29-6.63.37-9.49s0-6.15,0-9.41l0-2.47,0-1.34c0-.48.06-.94.09-1.41.16-1.83.43-3.58.72-5.22l.85-4.68c.28-1.51.42-2.76.67-4.43l2.75-18.91,1.37-9.46.34-2.36.42-2.5c.3-1.67.64-3.31,1-4.94,1.5-6.51,3.52-12.68,5.35-18.68s3.35-11.91,5.1-18.18c.87-3.11,1.81-6.27,2.91-9.42s2.29-6.15,3.49-9.16M274.07,482.2l2.93-2.11,2.48-2.54,2.82-3.37L288,470l7.47-2.77,5.67-4,4.82-4.58,6.15-7,9.63-9.27,7.23-7.12,7.11-5.66,5.43-6.39,4.7-8.19,4.33-11.45,5.55-11.08,7.23-10.13,8.56-8.8,10.24-9.88,11.69-6.62,9-4.71L415,344.87l.89-.49,19.83-16.74,6.76-4.1,5.29-1.93,5.67.36,6.87,2.78,11,6.14,5.66,2.17,4.58.48,6.39-2.28,4.4-3.19,11-7.93.63-.46,8.32-6.14,18.56-13.38,5.9-2.53,8.2-2.89,12.17-5.18,7.59-6.87.92-.75,6.43-5.27,5.3-2.78,5.18.72,7.24,2.06,5.54,2.89,6.75,1.68,7.23.61.36-.06,11.69-1.51,20.49-3.93,1.68,4,1,2.38,2,8.26,1.29,8.84-2.09,29-.13,1.88-.56,7.86V343l.39,3,1.4,2,2.39,2.06,6.81,4.73,4,3,10.78,7.83L690,378.74l2.22,1,2.73,1.23,4.73,2,5,2.55,3.89,3.16,3.11,4.05,2.33,6.44,3,3.75,2.63,2.4,7,4.48,3.81,3.5,9.26,11.89,1.46,1.61,2.16,2.37,3.54,3.51,10.73,2.22,8.55,1.19,2.51.45,2.16.37,6.43-2.19,3.19-1.53L782,432l1.41-1.48,5.17-5.36,7-7.45,3.81-3.09,3.19-1.15,2.14.14,13.63.91,5.41.35,25.2.82,26.74.22h0l13.95-.59c.26-7.78.87-15.53.63-23.34l-.11-23.48c0-15.71-.12-31.44,0-47.14.34-15.68.09-31.41,0-47.12-.08-3.92.15-7.86.21-11.8l.31-11.8c.16-7.86.47-15.8.53-23.31m2.38-286-11.32-1.1-7.7-.44-6.18-.27-25.16-1.66-1,0L846-45.54l5,23.11,4,18.14L856,.49l6.11,47.88-4.45.09-9.69.11-5.47,0-5.36-.27-14.83-1.51L808.05,45.4l-7.64-1.18-7.89-.68-7.77.46-8,.83-7,1.27-4.91,2.34-4.18,3.09L752.36,58l-.48.37L737.39,70.3l-1.53.76-2.74.25-3.81-.92-9.09-2.93-4.69-.2-4.87,1.39-6.13,2.6-2.2,1.45-2.2,1.67-1.77,3-2.82,5-1.69,3.23L691,91.12l-3.67,7.19-3.19,6-2.64,4.77-5.94,5.42-9.67,7.18-3.73,2.76-17.91,13.21-12.42,9.16-4.94,3.51-4.06,4-3.56,3.62L617.75,160l-2.44,7.39-1.11,5-2.14,4.92-6.07,9-10,13.64-6.59,8.94-3.24,5.38-.73,3.45.64,12.21.39,1.37-.88,3.32-1.82,5.89-2.42,4.08-.8,1.46-1.22,2.18-.63.63-.6.61-3.9,1.73-3.23,1.23-2.69.24-2.69.6-2.15,1.3-1.95,2.52-.14.17-2.1,2.28-2.9,4.49-2.53,3.85-1,.91-2.6.62-9.26-.18-1.4.31-2.06.56-2.58,1.37-3.12,1.75L529,277l-4,5.69-4.11,3.6-2.14,1.64-4.08,2.88-2.54,1.81-4.1,5.13-3.11,4.4-1.19,3.11-2.57,11.91,2.09,3M1051.48-1069l4.14-7c1.37-2.32,2.7-4.66,4.25-6.87,2.92-4.53,6.13-8.87,9.26-13.25"/></g><g id="快速幹"><path class="cls-3" d="M982,1009.24l-1.37-4.43L981,996l-2.29-14-13.88-55.4-14.11-57.87-4-13.3-1.79-2.66-2.25-6.19-9.06-29.78-7.38-30.68-3.39-16-1.29-5-.39-3.59L921,758l-.56-7.34.12-4.5.39-2.53,1.77-9.93,1.88-5.65,2.58-6.19,4.79-8.07m4.24,47.63-14.64,3.7-3.66.85-10,2.08-2.85.66,3.48,14.92m8.72,2585.53-8.27,9.3-8.28,9.26-7.66,8.5-25.23,39.44M896.61,1267,922,1227.87l3.76-5.93c.63-1,1.27-2,1.91-2.91l2.54-3.81,1.25-5.49,1.31-8.59.53-3.52.16-1c0-.18.14-.28.25-.39l.36-.34s.56-8.76,1.61-9.65l-.06-6.1,0-6.2.26-6.31.52-6.05.88-6.26,1.08-6.93,1.71-7.87,1.81-5.48,1.92-5.17,2.06-4.87,7.13-14.47,8.08-16.37,8.68-18.19,5.64-14.16,2.14-10.64,2.28-16.43,1-11.94,1.08-12.23.12-1.35,1.68-3.9.78-6.3,2.11-15.64-.2-3.46-6-25.19-7-30.34L958.65,867l-5.57-25.8-.3-7.87-3.46-18.22-.52-2-6-24.72-.54-2.18-6.06-24.81L934.43,756l-1.54-6.93-1.08-9.79-.57-7.55.23-9.39,0-2.06.44-6.52m0,0,6.82-19.51,4-9.3,3.37-6.28,8.89-13.4,7.36-7.89,5.12-4.71,39.52-28,10.12-9,6.5-7.13,4.87-6.24,4.12-5.5,5.13-10,2.12-4.25,3-8.57,3.74-16.17,9.52-67.76,1.73-10.32,3.81-12.14,4.66-13,17.63-36.93,2.84-4.63L1111,376.56l9.92-15.47,6.94-12.7,8-15.66,4.69-10.61,4.11-11.46,2.12-6.38-.76-19.35.45-1.54,2.91-14.06,2.85-14.28,1.36-7.08,1.17-7.19,2.28-14,.17-5c0-1.79.26-3.6.39-5.4s.27-3.63.49-5.38l.71-5.22,2.78-20.68.27-4.46.33-4.63c.22-3.08.48-6.16.61-9.24l.94-18.49.39-9.12c.11-1.5.05-3.06,0-4.61s-.08-3.09-.06-4.65l.4-9.39c.14-3.14.17-6.17.26-9.26.19-6.15.23-12.32.32-18.47l.11-9.24.06-4.62c0-1.54-.07-3.09-.1-4.63l-.13-4.63v-14l-.38-18.47-.2-9.23-.1-4.62,0-2.31-.17-2.29L1162.73.5l-4.22-37c-.11-3.12-.52-6.16-.85-9.23l-1-9.2-2.05-18.38-1-9.3-.53-4.67c-.16-1.56-.21-3.12-.33-4.67l-1.21-19.45,1.16-5.76.12-5.1c0-1.88.08-3.76.19-5.61l.28-5.59c0-.93.09-1.85.11-2.77l.1-3,.3-2.57.25-2.36c.15-1.57.4-3.24.6-4.85l.33-2.44.44-2.38.92-5,1.17-4.35.56-2.06.54-2.16c.32-1.45.79-2.86,1.24-4.28l1.4-4.43,4.13-9.91c.67-1.61,1.5-3.16,2.24-4.74l2.42-5,8.25-13.38,2-3.28,2.17-3.22c1.45-2.15,2.78-4.26,4.17-6.38l8.29-12.73c1.36-2.13,2.84-4.23,4-6.4l3.6-6.35,1.64-3.6c.58-1.28,1.19-2.54,1.71-3.85l3.1-7.55,3.45-11.62,1.52-8.91.39-2.31c.06-.35.12-.6.16-1l.13-1.12.5-4.51.51-4.51c0-1.45.19-2.75.16-4.31l-.08-8.92-1.19-10.42c-.53-3.59-1.1-7.19-1.43-10.8s-.71-7.25-1.23-10.78-1-7-1.62-10.6l-3.58-21.54c-.66-3.57-1-7.33-1.49-11-.19-1.85-.53-3.68-.59-5.55l-.34-5.87.68-16.84L1206-423l.91-4.36c.3-1.35.55-2.72.9-4.07l2-8.09,2-8.09c.66-2.69,1.48-5.29,2.21-7.94l1.47-5.14-1.74-44.83.63-2.48,1-3.29,1-3.29,1-3,2-5.92,4.05-11.83,2-5.92,2.14-5.86,8.45-23,2.08-5.7,1.9-5.84c1.2-3.88,2.7-7.8,4.1-11.72l16.79-46.45c2.82-7.72,5.42-15.24,8.13-23.13,1.34-3.9,2.67-7.8,4.09-11.69l3.79-10.56,1.37-6.47,1.49-7.69,1.51-7.82.77-4,.79-3.88,1.57-7.75c.53-2.59,1.07-5.15,1.52-7.83s.9-5.34,1.46-7.93,1-5.16,1.47-7.74l1.35-7.72,1.41-7.84,1.47-8,1.55-7.79,1.56-7.78c.52-2.58.94-5.36,1.42-8s.85-5.38,1.59-8.12l2.13-8.85,2.9-8.87,7.77-11.42,11.47-13.88M1181.9,2611.93l-1.1-10.93v-7.16l-.23-7.42-.42-14.7-.2-7.35-.1-3.68-.07-1.93-.11-1.85-.44-7.42-.54-7.54c-.18-2.51-.73-4.87-.87-7.33l-.53-7.34-.54-7.33c0-1.22-.26-2.46-.43-3.68l-.53-3.69-2.09-14.75c-.36-2.46-.64-4.93-1.17-7.36l-1.53-7.85-4.12-10.52-4.14-8.71c-.66-1.43-1.41-2.82-2.11-4.24l-2.4-4.75-13.44-16.88c-2.38-2.68-4.73-5.49-7.18-7.93s-4.92-5.07-7.19-7.53c-4.62-5-9.18-10.25-13.78-15.37l-6.78-7.9-7.24-8.12-8.61-7.29-4.17-3.53-4.29-3.5L1068.36,2363l-34.28-27.14-11.74-7.35-4.63-1.38c-1.3-.39-2.59-.78-3.89-1.11l-7.4-2-16.57-6.85-12.2-6.25c-4.11-2.14-8.35-4.21-12.34-6.4l-5.92-3.3c-1.95-1.16-3.83-2.46-5.75-3.68s-3.83-2.47-5.76-3.79l-5.13-3.47-2-2.24c-.82-.93-1.64-1.88-2.55-2.85l-1.32-1.45-1.33-1.32-2.65-2.62-10.81-10.66-9.15-7.54-10-6.3-13.76-10.54-7.57-11.56m300.25,378.72.46,13.8-.28,6.52c-.06,1.06-.06,2.09-.18,3.17l-.3,3.58-1.13,5.09-.52,2.35-.63,2.28-2.55,9.13-5.09,18.25-2.55,9.17c-.45,1.54-.83,3.11-1.33,4.62l-1.5,4.5-6.12,18.36-4.47,9.25-7.53,11.82-2.87,6.13-1.45,5.72-1.46,6.31-2.84,12.42-.94,6.35c-.35,2.19-.6,4.39-1.09,6.56-.91,4.35-1.72,8.71-2.72,13.06-.5,2.16-.93,4.38-1.5,6.5l-1.71,6.37-3.35,12.48-3.49,20-2.56,10.09-2.94,7.23-2.8,4.1-2.49,3.53-5.23,7.42-7.55,7.84-7.57,5.35c-1.2.83-2.48,1.55-3.71,2.34l-4.09,2.52-4.46,1.89-4,1.64c-2.67,1.1-5.26,2.26-7.92,3.41l-7.92,3.49-7.57,3.53-3.38,2-2.09,1.68-6.16,7.34-5.14,8.85-5.52,9.3c-3.58,6.32-7.68,12.12-11.58,18.11-2,2.94-3.78,6-5.6,9.07l-5.43,9.16-5.47,9.22L998,2984c-7.22,12.32-15.26,24.45-22.8,36.29l-5.37,9.22c-2,3.1-3.81,6.39-6,9.24-4.28,5.89-7.47,21.12-7.47,21.12l-16.29,23-8.15,11.51-2,2.87a2.41,2.41,0,0,0-.3.46l-.56,1.11-2.78,5.51-.62,1.89-.43,1.28-.41,1.63-1.4,4-1.91,9-.48,8.37.33,7.89,1.19,9.45,2.19,7.24,4.36,7.48,12,16.81,6.18,8.68,3,4.82,3.2,5.25,4.66,11.09,3.29,10,1.55,4.79,1.69,5.36,2.07,9.84,1,12.07.09,15.1-3,21.33-2.35,10.86c-.41,1.74-.69,3.47-1.2,5.24l-1.62,6-3.16,7.77-3.75,6.24c-1.06,1.84-2.33,3.66-3.53,5.49s-2.37,3.71-3.67,5.43l-3.86,5.2c-2.53,3.53-5.25,6.79-7.92,10.12-1.35,1.64-2.66,3.36-4,4.93l-4.11,4.75c-2.75,3.16-5.48,6.37-8.24,9.48M896.61,1267l-1.22,3.24c-.4,1.07-.95,2.19-1.42,3.28s-1.06,2.16-1.59,3.24-1.09,2-1.63,2.94l-6.54,11.57-6.53,11.57-3.23,5.73-1.55,2.81-1.46,2.95c-3.79,7.91-8.07,15.62-12.13,23.42l-5.53,11.8c-1,2-1.77,3.92-2.59,5.87-.39,1-.86,2-1.2,2.94l-1.18,3.25-2.33,4.94c-1.35,4.1-3.28,10-4.78,14.13l-1.25,5.51-.35,3.52c-.07,1.32-.09,2.66-.14,4l-.26,8.66-1.76,7.12-.59,10.55-.42,11.13,10.86,22.62-.1,11.08-.05,5.55-.19,5.72-.42,11.49c-.17,3.82-.49,7.58-.73,11.37l-1.52,22.27c-.29,3.72-.39,7.2-.59,10.8l-.32,10.65,0,5.53-.11,5.67-.26,11.34-.27,10.94c0,1.66,0,3.32,0,5l0,2.49c0,.23,0,.43,0,.5l0,.31,0,.31,1.26,6.2.87,2.82,1.09,3.64,2.68,9,.83,10.08v9.36l-1.47,12.28.67,8.22.89,9.17.6,3.12c.23,1.3.5,2.59.79,3.87l1.67,7.68c.53,2.66,1.18,4.86,1.81,7.29l1.92,6.63,3.88,9,22.64,38.55c1.25.31,2.49.61,3.74.89l19.31,4.43,21.27,4.83-1.29,5.71-4.47,19.63-1.86,10-.47,2.5-.61,2.48-1.24,5c-3.34,13.18-6.36,26.51-10.28,39.42l-11.18,39L891,1885.14c-.85,3.28-1.93,6.5-3,9.74l-3.11,9.71L878.7,1924l-3.55,9.61c-1.2,3.19-2.37,6.43-3.62,9.54L864.09,1962l-1.85,4.7c-.6,1.57-1.14,3.16-1.71,4.74l-3.39,9.48c-2.25,6.33-4.56,12.61-6.67,19.07l-3.24,9.62c-.55,1.6-1.07,3.21-1.64,4.8l-1.8,4.74-3.59,9.47c-1.08,3.1-2.16,6.18-3,9.24l-4.93,19.27-1.59,8.79-.68,7.2-.75,7.35c-.21,2.43-.34,4.87-.51,7.3l-.46,7.07.4,7c.1,2.47.46,4.84.67,7.27s.39,4.82.88,7.23l1.18,7,1.86,7.43c.67,2.55,1.06,5.08,1.61,7.62s1.18,5,1.78,7.5l1.82,7.21,6.45,18.61,6.86,14.31,7.05,11.79,3.59,6,3.84,5.88,15.4,23.51"/><path class="cls-9" d="M982,1009.24l-1.37-4.43L981,996l-2.29-14-13.88-55.4-14.11-57.87-4-13.3-1.79-2.66-2.25-6.19-9.06-29.78-7.38-30.68-3.39-16-1.29-5-.39-3.59L921,758l-.56-7.34.12-4.5.39-2.53,1.77-9.93,1.88-5.65,2.58-6.19,4.79-8.07m4.24,47.63-14.64,3.7-3.66.85-10,2.08-2.85.66,3.48,14.92m8.72,2585.53-8.27,9.3-8.28,9.26-7.66,8.5-25.23,39.44M896.61,1267,922,1227.87l3.76-5.93c.63-1,1.27-2,1.91-2.91l2.54-3.81,1.25-5.49,1.31-8.59.53-3.52.16-1c0-.18.14-.28.25-.39l.36-.34s.56-8.76,1.61-9.65l-.06-6.1,0-6.2.26-6.31.52-6.05.88-6.26,1.08-6.93,1.71-7.87,1.81-5.48,1.92-5.17,2.06-4.87,7.13-14.47,8.08-16.37,8.68-18.19,5.64-14.16,2.14-10.64,2.28-16.43,1-11.94,1.08-12.23.12-1.35,1.68-3.9.78-6.3,2.11-15.64-.2-3.46-6-25.19-7-30.34L958.65,867l-5.57-25.8-.3-7.87-3.46-18.22-.52-2-6-24.72-.54-2.18-6.06-24.81L934.43,756l-1.54-6.93-1.08-9.79-.57-7.55.23-9.39,0-2.06.44-6.52m0,0,6.82-19.51,4-9.3,3.37-6.28,8.89-13.4,7.36-7.89,5.12-4.71,39.52-28,10.12-9,6.5-7.13,4.87-6.24,4.12-5.5,5.13-10,2.12-4.25,3-8.57,3.74-16.17,9.52-67.76,1.73-10.32,3.81-12.14,4.66-13,17.63-36.93,2.84-4.63L1111,376.56l9.92-15.47,6.94-12.7,8-15.66,4.69-10.61,4.11-11.46,2.12-6.38-.76-19.35.45-1.54,2.91-14.06,2.85-14.28,1.36-7.08,1.17-7.19,2.28-14,.17-5c0-1.79.26-3.6.39-5.4s.27-3.63.49-5.38l.71-5.22,2.78-20.68.27-4.46.33-4.63c.22-3.08.48-6.16.61-9.24l.94-18.49.39-9.12c.11-1.5.05-3.06,0-4.61s-.08-3.09-.06-4.65l.4-9.39c.14-3.14.17-6.17.26-9.26.19-6.15.23-12.32.32-18.47l.11-9.24.06-4.62c0-1.54-.07-3.09-.1-4.63l-.13-4.63v-14l-.38-18.47-.2-9.23-.1-4.62,0-2.31-.17-2.29L1162.73.5l-4.22-37c-.11-3.12-.52-6.16-.85-9.23l-1-9.2-2.05-18.38-1-9.3-.53-4.67c-.16-1.56-.21-3.12-.33-4.67l-1.21-19.45,1.16-5.76.12-5.1c0-1.88.08-3.76.19-5.61l.28-5.59c0-.93.09-1.85.11-2.77l.1-3,.3-2.57.25-2.36c.15-1.57.4-3.24.6-4.85l.33-2.44.44-2.38.92-5,1.17-4.35.56-2.06.54-2.16c.32-1.45.79-2.86,1.24-4.28l1.4-4.43,4.13-9.91c.67-1.61,1.5-3.16,2.24-4.74l2.42-5,8.25-13.38,2-3.28,2.17-3.22c1.45-2.15,2.78-4.26,4.17-6.38l8.29-12.73c1.36-2.13,2.84-4.23,4-6.4l3.6-6.35,1.64-3.6c.58-1.28,1.19-2.54,1.71-3.85l3.1-7.55,3.45-11.62,1.52-8.91.39-2.31c.06-.35.12-.6.16-1l.13-1.12.5-4.51.51-4.51c0-1.45.19-2.75.16-4.31l-.08-8.92-1.19-10.42c-.53-3.59-1.1-7.19-1.43-10.8s-.71-7.25-1.23-10.78-1-7-1.62-10.6l-3.58-21.54c-.66-3.57-1-7.33-1.49-11-.19-1.85-.53-3.68-.59-5.55l-.34-5.87.68-16.84L1206-423l.91-4.36c.3-1.35.55-2.72.9-4.07l2-8.09,2-8.09c.66-2.69,1.48-5.29,2.21-7.94l1.47-5.14-1.74-44.83.63-2.48,1-3.29,1-3.29,1-3,2-5.92,4.05-11.83,2-5.92,2.14-5.86,8.45-23,2.08-5.7,1.9-5.84c1.2-3.88,2.7-7.8,4.1-11.72l16.79-46.45c2.82-7.72,5.42-15.24,8.13-23.13,1.34-3.9,2.67-7.8,4.09-11.69l3.79-10.56,1.37-6.47,1.49-7.69,1.51-7.82.77-4,.79-3.88,1.57-7.75c.53-2.59,1.07-5.15,1.52-7.83s.9-5.34,1.46-7.93,1-5.16,1.47-7.74l1.35-7.72,1.41-7.84,1.47-8,1.55-7.79,1.56-7.78c.52-2.58.94-5.36,1.42-8s.85-5.38,1.59-8.12l2.13-8.85,2.9-8.87,7.77-11.42,11.47-13.88M1181.9,2611.93l-1.1-10.93v-7.16l-.23-7.42-.42-14.7-.2-7.35-.1-3.68-.07-1.93-.11-1.85-.44-7.42-.54-7.54c-.18-2.51-.73-4.87-.87-7.33l-.53-7.34-.54-7.33c0-1.22-.26-2.46-.43-3.68l-.53-3.69-2.09-14.75c-.36-2.46-.64-4.93-1.17-7.36l-1.53-7.85-4.12-10.52-4.14-8.71c-.66-1.43-1.41-2.82-2.11-4.24l-2.4-4.75-13.44-16.88c-2.38-2.68-4.73-5.49-7.18-7.93s-4.92-5.07-7.19-7.53c-4.62-5-9.18-10.25-13.78-15.37l-6.78-7.9-7.24-8.12-8.61-7.29-4.17-3.53-4.29-3.5L1068.36,2363l-34.28-27.14-11.74-7.35-4.63-1.38c-1.3-.39-2.59-.78-3.89-1.11l-7.4-2-16.57-6.85-12.2-6.25c-4.11-2.14-8.35-4.21-12.34-6.4l-5.92-3.3c-1.95-1.16-3.83-2.46-5.75-3.68s-3.83-2.47-5.76-3.79l-5.13-3.47-2-2.24c-.82-.93-1.64-1.88-2.55-2.85l-1.32-1.45-1.33-1.32-2.65-2.62-10.81-10.66-9.15-7.54-10-6.3-13.76-10.54-7.57-11.56m300.25,378.72.46,13.8-.28,6.52c-.06,1.06-.06,2.09-.18,3.17l-.3,3.58-1.13,5.09-.52,2.35-.63,2.28-2.55,9.13-5.09,18.25-2.55,9.17c-.45,1.54-.83,3.11-1.33,4.62l-1.5,4.5-6.12,18.36-4.47,9.25-7.53,11.82-2.87,6.13-1.45,5.72-1.46,6.31-2.84,12.42-.94,6.35c-.35,2.19-.6,4.39-1.09,6.56-.91,4.35-1.72,8.71-2.72,13.06-.5,2.16-.93,4.38-1.5,6.5l-1.71,6.37-3.35,12.48-3.49,20-2.56,10.09-2.94,7.23-2.8,4.1-2.49,3.53-5.23,7.42-7.55,7.84-7.57,5.35c-1.2.83-2.48,1.55-3.71,2.34l-4.09,2.52-4.46,1.89-4,1.64c-2.67,1.1-5.26,2.26-7.92,3.41l-7.92,3.49-7.57,3.53-3.38,2-2.09,1.68-6.16,7.34-5.14,8.85-5.52,9.3c-3.58,6.32-7.68,12.12-11.58,18.11-2,2.94-3.78,6-5.6,9.07l-5.43,9.16-5.47,9.22L998,2984c-7.22,12.32-15.26,24.45-22.8,36.29l-5.37,9.22c-2,3.1-3.81,6.39-6,9.24-4.28,5.89-7.47,21.12-7.47,21.12l-16.29,23-8.15,11.51-2,2.87a2.41,2.41,0,0,0-.3.46l-.56,1.11-2.78,5.51-.62,1.89-.43,1.28-.41,1.63-1.4,4-1.91,9-.48,8.37.33,7.89,1.19,9.45,2.19,7.24,4.36,7.48,12,16.81,6.18,8.68,3,4.82,3.2,5.25,4.66,11.09,3.29,10,1.55,4.79,1.69,5.36,2.07,9.84,1,12.07.09,15.1-3,21.33-2.35,10.86c-.41,1.74-.69,3.47-1.2,5.24l-1.62,6-3.16,7.77-3.75,6.24c-1.06,1.84-2.33,3.66-3.53,5.49s-2.37,3.71-3.67,5.43l-3.86,5.2c-2.53,3.53-5.25,6.79-7.92,10.12-1.35,1.64-2.66,3.36-4,4.93l-4.11,4.75c-2.75,3.16-5.48,6.37-8.24,9.48M896.61,1267l-1.22,3.24c-.4,1.07-.95,2.19-1.42,3.28s-1.06,2.16-1.59,3.24-1.09,2-1.63,2.94l-6.54,11.57-6.53,11.57-3.23,5.73-1.55,2.81-1.46,2.95c-3.79,7.91-8.07,15.62-12.13,23.42l-5.53,11.8c-1,2-1.77,3.92-2.59,5.87-.39,1-.86,2-1.2,2.94l-1.18,3.25-2.33,4.94c-1.35,4.1-3.28,10-4.78,14.13l-1.25,5.51-.35,3.52c-.07,1.32-.09,2.66-.14,4l-.26,8.66-1.76,7.12-.59,10.55-.42,11.13,10.86,22.62-.1,11.08-.05,5.55-.19,5.72-.42,11.49c-.17,3.82-.49,7.58-.73,11.37l-1.52,22.27c-.29,3.72-.39,7.2-.59,10.8l-.32,10.65,0,5.53-.11,5.67-.26,11.34-.27,10.94c0,1.66,0,3.32,0,5l0,2.49c0,.23,0,.43,0,.5l0,.31,0,.31,1.26,6.2.87,2.82,1.09,3.64,2.68,9,.83,10.08v9.36l-1.47,12.28.67,8.22.89,9.17.6,3.12c.23,1.3.5,2.59.79,3.87l1.67,7.68c.53,2.66,1.18,4.86,1.81,7.29l1.92,6.63,3.88,9,22.64,38.55c1.25.31,2.49.61,3.74.89l19.31,4.43,21.27,4.83-1.29,5.71-4.47,19.63-1.86,10-.47,2.5-.61,2.48-1.24,5c-3.34,13.18-6.36,26.51-10.28,39.42l-11.18,39L891,1885.14c-.85,3.28-1.93,6.5-3,9.74l-3.11,9.71L878.7,1924l-3.55,9.61c-1.2,3.19-2.37,6.43-3.62,9.54L864.09,1962l-1.85,4.7c-.6,1.57-1.14,3.16-1.71,4.74l-3.39,9.48c-2.25,6.33-4.56,12.61-6.67,19.07l-3.24,9.62c-.55,1.6-1.07,3.21-1.64,4.8l-1.8,4.74-3.59,9.47c-1.08,3.1-2.16,6.18-3,9.24l-4.93,19.27-1.59,8.79-.68,7.2-.75,7.35c-.21,2.43-.34,4.87-.51,7.3l-.46,7.07.4,7c.1,2.47.46,4.84.67,7.27s.39,4.82.88,7.23l1.18,7,1.86,7.43c.67,2.55,1.06,5.08,1.61,7.62s1.18,5,1.78,7.5l1.82,7.21,6.45,18.61,6.86,14.31,7.05,11.79,3.59,6,3.84,5.88,15.4,23.51"/></g><g id="普通幹"><path class="cls-3" d="M922.47,1191.32l-1.4-4.93-.1-12.68.31-7.3.61-6.86.91-6.47,1.24-7.79,1.88-8.61,2.22-6.71,2.17-5.81,2.41-5.62,15.17-30.76,8.43-17.67,5-12.47,1.79-8.9,2.16-15.58.93-11.51,1-10.82-1.27-4.12.43-9.87L964.34,985l-13.73-54.81-14-57.57,36.34-8.94,14.68,57.48,7,30.33,6.29,26.34.36,6.17-2.29,17-1,8.3-1.58,3.67-1,11.21-1,12.67-2.44,17.32-2.4,11.93L983,1082.3l-8.77,18.36-15,30.46-1.78,4.18-1.7,4.6-1.49,4.5-1.45,6.69-1,6.4L951,1163M1217.85-377.6l10.46,2.9,8.35,2.31,6.41,1.71,3.58,1,2.32.75,5.26,2,6.3,2.66,8.91,3.77,3.66,1.46,10.11,3.8,7.58,2.27,6.59,2,7.79,2,6.52,1.43,4.49.66,3.85,0h6.77l16.49-.11h17.92l10.7-.12,9.93-.06.16-1.71,2.87-31.19.36-3.9c.12-1.31.2-2.54.45-4.06l3.52-13.34-18.46-12.48L1351-427.06l-2.65-3-3.11-2.17-4-2.7-8.75-5.76-4.2-2.76L1324-446.1l-8.32-5.07-7.78-3.6-8.65-3.43-8.54-3.15-8.51-3L1268.4-468l-3.2-.81-3.6-.76-7.28-1.54-14.55-3.09-7.31-1.55-3.17-.6-2.82-.5m0,0,.68,17.57-1.92,6.72c-.73,2.64-1.56,5.27-2.2,7.91l-1.92,7.92-1.91,7.91c-.34,1.32-.58,2.65-.87,4l-.78,3.71-1,8.93-.65,15.85.29,5c0,1.76.38,3.5.56,5.26.37,2.83.66,5.64,1.09,8.49M1332-836.46l-10.61,12.83-6.53,9.6-2.24,6.85-1.95,8.12c-.71,2.62-1.08,5.28-1.55,7.92s-.88,5.32-1.4,7.91l-1.57,7.81-1.55,7.81-1.45,7.89c-1,5.28-1.85,10.44-2.78,15.66-.47,2.6-.87,5.21-1.48,7.8s-1,5.25-1.45,7.87c-.92,5.27-2.07,10.42-3.1,15.63-.53,2.58-1,5.21-1.55,7.84l-1.51,7.82-1.52,7.79-1.55,7.36-4,11.25c-1.41,3.87-2.74,7.76-4.08,11.65-2.68,7.81-5.34,15.49-8.15,23.21l-16.77,46.38c-1.39,3.88-2.87,7.75-4.08,11.66l-1.9,5.85-2.1,5.76-8.48,23.09-2.12,5.82-2,5.85-4,11.72-2,5.86-1,2.93-1,3.05-1,3.06-.13.52,1.06,27.45M951,1163l21.16-17.37,50.47-68.21,7.94-9.86,21.57-32.81,6.4-9.66,6.55-11.11,3.84-7.27,6.1-12.88,5.61-14.67L1084,967.6l1.82-8.67,1.62-8.66,1.06-9.3.32-7.85.08-7.66-.74-10.25-1.05-9.84-3-14-1.91-6.68-3.61-10.29-5.14-12.58-8.24-15.54-3.92-9.3,3.55-1.91,50.37-24.19,3.66-1.79-3.42-7.16-4.57-8.27-9.6-20L1077,727.31,1056.2,687.5l-6.75-14.7-1.93-5.58-5.43-16.52-3.93-12.65-3.52-13.39-.78-5.55-.06-2.83.52-6.54,1.07-7.33,1-4,1.86-5.14,3.38-7.73,2.72-5.5,1-2.06,2.78-4.77,4-6.93,2.14-1.29,1-1.66,6.62-11.3,7.74-13.21,1.29-2.22,9.66-16.34,50.93-83.67,27.24-45.74,2.73-4.48,3.82-7.39.81-2.57.21-1,.78-6.36,1.06-9.5.1-6.47L1166.85,340l-2.52-12.11-1.22-8.22-1.4-12.33,0-7.06.6-11.86-4.88-.82.39-1.32,3-14.57,2.88-14.39,1.39-7.27,1.18-7.24,2.41-14.85.19-5.49c0-1.72.25-3.37.37-5.06s.24-3.35.46-5.06l.7-5.17,2.81-20.88.3-4.82.33-4.65c.22-3.1.48-6.19.61-9.3l.94-18.64.41-9.46c.11-1.59.05-3.13,0-4.68s-.08-3.1-.07-4.64l.4-9.18c.14-3,.18-6.22.27-9.32.19-6.24.23-12.47.32-18.7l.11-9.35.06-4.68c0-1.55-.07-3.11-.1-4.66l-.13-4.67V55.59l-.38-18.69-.21-9.36-.1-4.68-.06-2.33-.17-2.35L1174.4-.6l-4.21-36.87c-.11-3.08-.52-6.18-.86-9.28l-1-9.28-2.06-18.56-1-9.18-.52-4.56c-.17-1.52-.22-3.07-.33-4.6l-1.1-17.66,1.07-5.26.14-6.05c0-1.84.07-3.68.18-5.53l.28-5.56c0-.92.09-1.85.11-2.79l.09-2.57.25-2.14.25-2.34c.15-1.58.37-3,.55-4.54l.3-2.26.43-2.27.8-4.32,1.07-4,.57-2.1.5-2a39.55,39.55,0,0,1,1.16-4l1.19-3.78,3.81-9.14c.64-1.57,1.45-3.05,2.17-4.58l2.08-4.3,7.83-12.71,2-3.24,2.11-3.13c1.4-2.08,2.81-4.3,4.21-6.44l8.43-12.95c1.39-2.17,2.86-4.26,4.11-6.6l4-7,1.91-4.17c.6-1.32,1.23-2.63,1.76-4l3.41-8.28,3.82-12.87,1.63-9.59.39-2.31c.07-.42.17-.93.22-1.33l.13-1.2.55-4.82.53-4.81c.07-1.67.23-3.49.2-5.06l-.09-9.84-1.28-11.21c-.52-3.58-1.09-7.15-1.42-10.77s-.71-7.19-1.24-10.84-1-7.35-1.67-10.91l-3.56-21.41c-.13-.69-.23-1.38-.34-2.06M1519.1,5514.84l-2.86,2.61-7.48,7.14-.42.39-12.14,11.4-.37.34-8.33,10.52-2,2.83-1.19,1.61-1.5,2.23-4.14,6.15-7.19,10.51-.34.42-1.61,1.36-1.13,1-1.6,1.14-2,1.08-2.13,1-1.61.59-2.65.59-1,.21-2.17.43-2.73.3-4.65.51-6.47.73-.93.21-21.68,2.38.49,3.35,4.78,32.72M1170.2,2612.71l.43,13-.25,5.9c-.06,1-.06,2.06-.17,3l-.22,2.61-.92,4.13-.5,2.25-.62,2.26-2.52,9-5,18.09-2.51,9c-.43,1.48-.78,3-1.28,4.45l-1.48,4.44-5.81,17.44-3.84,8-7.58,11.87-3.66,7.84-1.75,6.91-1.47,6.37-3,12.95-1,6.61c-.33,2.13-.57,4.28-1,6.37-.88,4.19-1.67,8.43-2.63,12.59-.48,2.09-.87,4.17-1.44,6.27l-1.68,6.28-3.45,12.83-3.51,20.11-2.25,8.87-2.17,5.33-2,3-2.47,3.5-4.68,6.63-6.16,6.4-6.39,4.52c-1.14.79-2.35,1.47-3.52,2.22l-3.19,2-3.57,1.51-4,1.66c-2.7,1.11-5.42,2.33-8.09,3.48l-8,3.55-8.23,3.84-4.56,2.71-3.64,2.91-7.56,9-5.62,9.67-5.41,9.12c-3.47,6.13-7.61,12-11.51,18-2,2.93-3.8,6.06-5.65,9.15l-5.5,9.27-5.45,9.2-5.6,9.12c-7.22,12.33-15,24-22.78,36.26l-5.41,9.29c-1.87,2.92-3.49,5.9-5.65,8.74-4.14,5.66-7.33,20.9-7.33,20.9l-16.29,23c-5.29,7.75-11.41,15-15.11,23.73l-1,2.92-.48,1.46-.38,1.49-1.49,4.19-2.25,10.62-.57,9.84.39,9,1.36,10.91,2.88,9.52,5.33,9.12L931.35,3186l6.07,8.53,5.48,8.94,4.14,9.85c2.08,6.32,4.2,12.63,6.17,19l1.8,8.57.91,10.9.09,13.78-2.86,20c-1.54,6.81-2.77,13.69-4.75,20.39l-2.55,6.28c-8.23,14.32-18.51,27.34-29.29,39.81-5.37,6.27-10.85,12.43-16.35,18.59s-11,12.28-16.53,18.42l-25.75,40.25-6.76,24.26-15.24,21.63-7.45,12.67-3.79,6.44c-.61,1.07-1.3,2.15-1.85,3.22l-1.58,2.95-2.29,5.67-.77,3.31v8.81l.34,2.93,1.62,4.09,1.77,3.5c.63,1.26,1.33,2.41,2,3.63,1.35,2.41,2.86,4.88,4.28,7.32s2.87,4.7,4.45,7.74l4.2,8.77,1.54,15.32.21,8.05.09,3.91.21,3.86,1,15.93-.2,10-.82,5.36-1.63,4.23-2.7,5-5.08,6.21-5.41,4.72-5,4.42-5,4.42c-.81.76-1.58,1.56-2.37,2.34l-1.17,1.17-1,.9c-.24.24-1.91,2.66-2.42,3.3l-.31.54-.24.68-.4,1.87-.29,2c-.11.77-.2,1.56-.34,2.3l-.2,1.13-.14,1a7.88,7.88,0,0,0-.12,1l-.08.79-.22,18.18-1.55,13.86-5.55,22L795,3731.63l-.69,2.72-.77,2.67-1.56,5.34L788.85,3753c-.56,1.77-.93,3.59-1.36,5.39l-1.27,5.42-2.54,10.83c-.84,3.61-1.66,7.22-2.69,10.82l-11.72,43-2.92,10.72c-1,3.58-2,7.13-2.78,10.78l-2.52,10.88c-.38,1.81-1,3.63-1.46,5.45l-1.66,5.8-1.88,4.38c-.58,1.34-1.06,2.77-1.6,4.15l-3.23,8.6-7.49,15.53c-2.45,5.09-4.93,10.18-7.31,15.32s-4.77,10.26-7.25,15.38l-3.73,7.69c-1.23,2.55-2.51,5-3.64,7.57l-1.74,3.84-.91,2-.92,1.92-3.66,7.67-7.31,15.33-7.32,15.33-7,14.92-3.45,12.39-.92,5.22-.86,11.55,0,44.17,1.11,10.2.57,5.25c.18,1.75.38,3.49.69,5.23l3.36,20.88,1.87,18.17,2.26,5.34,2.1,4.14,11.13,17.55,4.66,7L730.37,4201l9.6,14.36,2,3.05,5,7.62,2.33,3.54,7.13,11.05,9.62,14.72,8,12.15.47.72.57.88,3.46,5.38.68,1.05L791.52,4295l11.84,19.53,4,6.05,3.72,4.79L832.87,4343l2.51,2.11,1,.83,2.93,4.65,2.16,3.72,1.75,4.15,1.31,4L845,4380l.13,4.95.18,6.86.36,8.42.14,3.19.41,3.84,1.4,6.31,6.59,16.8,4.73,8.19,3.68,5.65,8,8.61,1.5,1.49,1.5,1.48,8.8,7.93,9.71,7.3,1.41,1.79,15.34,11.65,6.3,4.19,12.61,8.58,7.63,4.92,5.71,3.22,6.41,3.89,8.16,3.34,10.57,3.16,4.91,1.77,11.28,6.17,14.28,9.33,2.7,1.85,1.41,1.25,1.77,1.61,2.53,2.69,1.15,1.45,1.38,1.92,1.91,2.38,2,3.07,1.77,2.84.43.78,1.64,3.05,1.84,3.68,1.08,2.46,1.76,3.52,1.38,3.22,1.53,3.31,3.92,8.05,2.48,4.74,4.43,8.47,5.83,15.35,2.26,4.66,3.72,8.38,2.74,6.15,7.82,15.29,4.85,6.13,7,7.13,2.53,2.29L1072,4660l3.85,2.54,2.9,1.64,2.07,1.17,6.72,3.8,4.86,2.81,28.69,16.57,8.69,4.31,4.53,2.16,3.47,1.44,4.21,1.65,7.9,2.61,4.89,1.21,15,3.19,3.88.69,14.76,3,5.94,1.29,4.47,1.76,5.62,3.37,2.07,1.46,7.66,7,6.9,9.09,2.86,3.71,1.73,2.68,1,1.46,16.74,18.66,14.32,8.85,148,71.51,8.09,4.6,18.85,10.29,7.55,3.89,7.31,5.83,6.35,6.8,18.77,46.42,9.14,21.75,14.87,33.47,12.44,27.51,5.29,12.43,1.92,4.58.72,2,.27.89,2.67,7.65.5,5.57.77,14.42.18,3.37.47,5.11,1.75,10.18L1527,5082l2.18,6.16.77,6.42.07,8.13-2,11.66-2.69,12.47-2.66,10.32-1.18,4.3-1.13,3.08-.11.32-.26.7-2.23,4.87-1.9,2.67-3.73,5.34-3.91,3.56-3.52,2.74-.5.43-3.78,3.15-12.12,10.09L1468,5195.31l-13.54,11.84-16.28,13.24-3.51,2.07-11.22,9.86-13,12.78-10.86,14-16.29,22.92-.55,1.09-5.23,10.38-1.57,6-1.51,27.83.2,3.45.51,8.73,1.26,22.47.26,2.39,1.39,7.36,4.62,8.28,19.59,18,16.2,14.78,20.18,18.69,9.51,9.28,23.42,21.83,8,7.46,1.59,2,20.09,22.75,1.85,2.2,9.49,11.22,4,4.21,2.51,2.44M951,1163l-1.17,1-12,12.85-3,2.54c-1.1.94-2.25,1.84-3.32,2.81l-7,6.72-1.18,1.12c-.38.38-.89.69-.84,1.3l-.5,3.2-.75,4.86-1.24,8.17-.67,3-1.38,2c-.66,1-1.33,2-1.95,3l-3.78,6-26.55,41.4-1.12,3c-.37,1-.81,1.86-1.21,2.79s-.88,1.8-1.32,2.7-1.06,1.9-1.58,2.85l-6.5,11.49-6.49,11.48-3.26,5.81-1.65,3-1.48,3c-3.84,8-8.13,15.75-12.22,23.61l-5.71,12.18c-1,2-1.86,4.12-2.75,6.24-.43,1.06-.92,2.09-1.31,3.19l-1.07,3-2.41,5.09c-1.88,5.72-3.12,9.62-5.15,15.23l-1.56,6.88-.46,4.61c-.07,1.4-.09,2.78-.14,4.17l-.24,7.67-1.72,7-.66,11.75-.42,11.2,10.86,22.75L836,1464.6l-.05,5.58-.19,5.63-.41,11.27c-.17,3.75-.48,7.48-.72,11.22-1,15-2.27,29.68-2.45,44.32l0,5.56-.11,5.61-.25,11.23-.28,11.09c0,1.8,0,3.59,0,5.39l0,2.69c0,.91.11,1.54.14,2.23l1.53,7.52,1,3.32,1.08,3.61,2.32,7.79.7,8.59.05.62,0,7.31-1.54,12.8.78,9.49,1,9.8.71,3.73c.25,1.34.52,2.67.82,4l1.72,7.93c.53,2.68,1.26,5.18,1.93,7.76l2.17,7.48,4.45,10.29,25.51,43.47c2.87.73,5.74,1.44,8.63,2.1l19.42,4.46,9.85,2.24-3.21,14.13-1.84,9.91-.46,2.47-.61,2.44-1.21,4.87c-3.31,13-6.24,26-10.17,39l-11.15,38.88-5.39,19.44c-.84,3.26-1.91,6.44-2.93,9.63l-3.07,9.58-6.14,19.15-3.48,9.39c-1.17,3.13-2.29,6.24-3.57,9.4l-7.45,18.86-1.86,4.71c-.61,1.58-1.15,3.19-1.73,4.79l-3.43,9.59c-2.27,6.39-4.61,12.78-6.7,19.16l-3.23,9.57c-.54,1.59-1,3.2-1.63,4.78l-1.79,4.74-3.59,9.46c-1.14,3.27-2.29,6.57-3.26,10l-5.12,20-1.75,9.69-.87,9.05-1.36,3.44-7.72,18-2.17,5.21-1.24,3-6.16,14.79-.17.4-5.25,13.82-.34.9-3.35,9.27-.91,2.86-2.1,6.88-1.16,6.12-.7,4.46-.21,1.75-.09.77.18,3.76.48,4.23.87,5.08,1.15,4.41,1.07,3,3.48,7.21.33.7,3.3,5.82,5.6,8.53,4.14,5.08,4.63,3.9,8.61,7.23,5,3.66,5.87,4.64,9.21,3.29,2.65,1,11.36,3.51,23.23,6.64.14.09,4,6.06L896.27,2265l9.83,6.18,8.18,6.74L924.55,2288l2.61,2.58,1.3,1.29,1.17,1.28c.78.83,1.58,1.75,2.38,2.67l2.92,3.33,6.46,4.37c1.93,1.32,3.92,2.62,5.94,3.91s4,2.64,6,3.86l6.3,3.52c4.2,2.3,8.35,4.32,12.52,6.5l12.73,6.52,17.71,7.32,8,2.16c1.28.33,2.54.7,3.79,1.08l3,.91,9.85,6.16,33.8,26.77,17.11,13.28,4.12,3.36,4.11,3.48,8,6.74,6.62,7.42,6.77,7.9c4.68,5.21,9.23,10.44,14,15.63,2.43,2.64,4.79,5,7.19,7.52s4.55,5,6.79,7.5l12.49,15.7,1.83,3.61c.69,1.39,1.42,2.75,2.07,4.16l3.91,8.23,3.58,9.14,1.28,6.58c.52,2.36.79,4.76,1.14,7.16l2,14.36.51,3.59a35.93,35.93,0,0,1,.43,3.61l.53,7.33.54,7.33c.13,2.43.69,4.88.86,7.26l.5,7.13.44,7.25.11,1.82,0,1.74.1,3.67.21,7.35.41,14.69.24,7.27v7.55l1.12,11.12"/><path class="cls-10" d="M922.47,1191.32l-1.4-4.93-.1-12.68.31-7.3.61-6.86.91-6.47,1.24-7.79,1.88-8.61,2.22-6.71,2.17-5.81,2.41-5.62,15.17-30.76,8.43-17.67,5-12.47,1.79-8.9,2.16-15.58.93-11.51,1-10.82-1.27-4.12.43-9.87L964.34,985l-13.73-54.81-14-57.57,36.34-8.94,14.68,57.48,7,30.33,6.29,26.34.36,6.17-2.29,17-1,8.3-1.58,3.67-1,11.21-1,12.67-2.44,17.32-2.4,11.93L983,1082.3l-8.77,18.36-15,30.46-1.78,4.18-1.7,4.6-1.49,4.5-1.45,6.69-1,6.4L951,1163M1217.85-377.6l10.46,2.9,8.35,2.31,6.41,1.71,3.58,1,2.32.75,5.26,2,6.3,2.66,8.91,3.77,3.66,1.46,10.11,3.8,7.58,2.27,6.59,2,7.79,2,6.52,1.43,4.49.66,3.85,0h6.77l16.49-.11h17.92l10.7-.12,9.93-.06.16-1.71,2.87-31.19.36-3.9c.12-1.31.2-2.54.45-4.06l3.52-13.34-18.46-12.48L1351-427.06l-2.65-3-3.11-2.17-4-2.7-8.75-5.76-4.2-2.76L1324-446.1l-8.32-5.07-7.78-3.6-8.65-3.43-8.54-3.15-8.51-3L1268.4-468l-3.2-.81-3.6-.76-7.28-1.54-14.55-3.09-7.31-1.55-3.17-.6-2.82-.5m0,0,.68,17.57-1.92,6.72c-.73,2.64-1.56,5.27-2.2,7.91l-1.92,7.92-1.91,7.91c-.34,1.32-.58,2.65-.87,4l-.78,3.71-1,8.93-.65,15.85.29,5c0,1.76.38,3.5.56,5.26.37,2.83.66,5.64,1.09,8.49M1332-836.46l-10.61,12.83-6.53,9.6-2.24,6.85-1.95,8.12c-.71,2.62-1.08,5.28-1.55,7.92s-.88,5.32-1.4,7.91l-1.57,7.81-1.55,7.81-1.45,7.89c-1,5.28-1.85,10.44-2.78,15.66-.47,2.6-.87,5.21-1.48,7.8s-1,5.25-1.45,7.87c-.92,5.27-2.07,10.42-3.1,15.63-.53,2.58-1,5.21-1.55,7.84l-1.51,7.82-1.52,7.79-1.55,7.36-4,11.25c-1.41,3.87-2.74,7.76-4.08,11.65-2.68,7.81-5.34,15.49-8.15,23.21l-16.77,46.38c-1.39,3.88-2.87,7.75-4.08,11.66l-1.9,5.85-2.1,5.76-8.48,23.09-2.12,5.82-2,5.85-4,11.72-2,5.86-1,2.93-1,3.05-1,3.06-.13.52,1.06,27.45M951,1163l21.16-17.37,50.47-68.21,7.94-9.86,21.57-32.81,6.4-9.66,6.55-11.11,3.84-7.27,6.1-12.88,5.61-14.67L1084,967.6l1.82-8.67,1.62-8.66,1.06-9.3.32-7.85.08-7.66-.74-10.25-1.05-9.84-3-14-1.91-6.68-3.61-10.29-5.14-12.58-8.24-15.54-3.92-9.3,3.55-1.91,50.37-24.19,3.66-1.79-3.42-7.16-4.57-8.27-9.6-20L1077,727.31,1056.2,687.5l-6.75-14.7-1.93-5.58-5.43-16.52-3.93-12.65-3.52-13.39-.78-5.55-.06-2.83.52-6.54,1.07-7.33,1-4,1.86-5.14,3.38-7.73,2.72-5.5,1-2.06,2.78-4.77,4-6.93,2.14-1.29,1-1.66,6.62-11.3,7.74-13.21,1.29-2.22,9.66-16.34,50.93-83.67,27.24-45.74,2.73-4.48,3.82-7.39.81-2.57.21-1,.78-6.36,1.06-9.5.1-6.47L1166.85,340l-2.52-12.11-1.22-8.22-1.4-12.33,0-7.06.6-11.86-4.88-.82.39-1.32,3-14.57,2.88-14.39,1.39-7.27,1.18-7.24,2.41-14.85.19-5.49c0-1.72.25-3.37.37-5.06s.24-3.35.46-5.06l.7-5.17,2.81-20.88.3-4.82.33-4.65c.22-3.1.48-6.19.61-9.3l.94-18.64.41-9.46c.11-1.59.05-3.13,0-4.68s-.08-3.1-.07-4.64l.4-9.18c.14-3,.18-6.22.27-9.32.19-6.24.23-12.47.32-18.7l.11-9.35.06-4.68c0-1.55-.07-3.11-.1-4.66l-.13-4.67V55.59l-.38-18.69-.21-9.36-.1-4.68-.06-2.33-.17-2.35L1174.4-.6l-4.21-36.87c-.11-3.08-.52-6.18-.86-9.28l-1-9.28-2.06-18.56-1-9.18-.52-4.56c-.17-1.52-.22-3.07-.33-4.6l-1.1-17.66,1.07-5.26.14-6.05c0-1.84.07-3.68.18-5.53l.28-5.56c0-.92.09-1.85.11-2.79l.09-2.57.25-2.14.25-2.34c.15-1.58.37-3,.55-4.54l.3-2.26.43-2.27.8-4.32,1.07-4,.57-2.1.5-2a39.55,39.55,0,0,1,1.16-4l1.19-3.78,3.81-9.14c.64-1.57,1.45-3.05,2.17-4.58l2.08-4.3,7.83-12.71,2-3.24,2.11-3.13c1.4-2.08,2.81-4.3,4.21-6.44l8.43-12.95c1.39-2.17,2.86-4.26,4.11-6.6l4-7,1.91-4.17c.6-1.32,1.23-2.63,1.76-4l3.41-8.28,3.82-12.87,1.63-9.59.39-2.31c.07-.42.17-.93.22-1.33l.13-1.2.55-4.82.53-4.81c.07-1.67.23-3.49.2-5.06l-.09-9.84-1.28-11.21c-.52-3.58-1.09-7.15-1.42-10.77s-.71-7.19-1.24-10.84-1-7.35-1.67-10.91l-3.56-21.41c-.13-.69-.23-1.38-.34-2.06M1519.1,5514.84l-2.86,2.61-7.48,7.14-.42.39-12.14,11.4-.37.34-8.33,10.52-2,2.83-1.19,1.61-1.5,2.23-4.14,6.15-7.19,10.51-.34.42-1.61,1.36-1.13,1-1.6,1.14-2,1.08-2.13,1-1.61.59-2.65.59-1,.21-2.17.43-2.73.3-4.65.51-6.47.73-.93.21-21.68,2.38.49,3.35,4.78,32.72M1170.2,2612.71l.43,13-.25,5.9c-.06,1-.06,2.06-.17,3l-.22,2.61-.92,4.13-.5,2.25-.62,2.26-2.52,9-5,18.09-2.51,9c-.43,1.48-.78,3-1.28,4.45l-1.48,4.44-5.81,17.44-3.84,8-7.58,11.87-3.66,7.84-1.75,6.91-1.47,6.37-3,12.95-1,6.61c-.33,2.13-.57,4.28-1,6.37-.88,4.19-1.67,8.43-2.63,12.59-.48,2.09-.87,4.17-1.44,6.27l-1.68,6.28-3.45,12.83-3.51,20.11-2.25,8.87-2.17,5.33-2,3-2.47,3.5-4.68,6.63-6.16,6.4-6.39,4.52c-1.14.79-2.35,1.47-3.52,2.22l-3.19,2-3.57,1.51-4,1.66c-2.7,1.11-5.42,2.33-8.09,3.48l-8,3.55-8.23,3.84-4.56,2.71-3.64,2.91-7.56,9-5.62,9.67-5.41,9.12c-3.47,6.13-7.61,12-11.51,18-2,2.93-3.8,6.06-5.65,9.15l-5.5,9.27-5.45,9.2-5.6,9.12c-7.22,12.33-15,24-22.78,36.26l-5.41,9.29c-1.87,2.92-3.49,5.9-5.65,8.74-4.14,5.66-7.33,20.9-7.33,20.9l-16.29,23c-5.29,7.75-11.41,15-15.11,23.73l-1,2.92-.48,1.46-.38,1.49-1.49,4.19-2.25,10.62-.57,9.84.39,9,1.36,10.91,2.88,9.52,5.33,9.12L931.35,3186l6.07,8.53,5.48,8.94,4.14,9.85c2.08,6.32,4.2,12.63,6.17,19l1.8,8.57.91,10.9.09,13.78-2.86,20c-1.54,6.81-2.77,13.69-4.75,20.39l-2.55,6.28c-8.23,14.32-18.51,27.34-29.29,39.81-5.37,6.27-10.85,12.43-16.35,18.59s-11,12.28-16.53,18.42l-25.75,40.25-6.76,24.26-15.24,21.63-7.45,12.67-3.79,6.44c-.61,1.07-1.3,2.15-1.85,3.22l-1.58,2.95-2.29,5.67-.77,3.31v8.81l.34,2.93,1.62,4.09,1.77,3.5c.63,1.26,1.33,2.41,2,3.63,1.35,2.41,2.86,4.88,4.28,7.32s2.87,4.7,4.45,7.74l4.2,8.77,1.54,15.32.21,8.05.09,3.91.21,3.86,1,15.93-.2,10-.82,5.36-1.63,4.23-2.7,5-5.08,6.21-5.41,4.72-5,4.42-5,4.42c-.81.76-1.58,1.56-2.37,2.34l-1.17,1.17-1,.9c-.24.24-1.91,2.66-2.42,3.3l-.31.54-.24.68-.4,1.87-.29,2c-.11.77-.2,1.56-.34,2.3l-.2,1.13-.14,1a7.88,7.88,0,0,0-.12,1l-.08.79-.22,18.18-1.55,13.86-5.55,22L795,3731.63l-.69,2.72-.77,2.67-1.56,5.34L788.85,3753c-.56,1.77-.93,3.59-1.36,5.39l-1.27,5.42-2.54,10.83c-.84,3.61-1.66,7.22-2.69,10.82l-11.72,43-2.92,10.72c-1,3.58-2,7.13-2.78,10.78l-2.52,10.88c-.38,1.81-1,3.63-1.46,5.45l-1.66,5.8-1.88,4.38c-.58,1.34-1.06,2.77-1.6,4.15l-3.23,8.6-7.49,15.53c-2.45,5.09-4.93,10.18-7.31,15.32s-4.77,10.26-7.25,15.38l-3.73,7.69c-1.23,2.55-2.51,5-3.64,7.57l-1.74,3.84-.91,2-.92,1.92-3.66,7.67-7.31,15.33-7.32,15.33-7,14.92-3.45,12.39-.92,5.22-.86,11.55,0,44.17,1.11,10.2.57,5.25c.18,1.75.38,3.49.69,5.23l3.36,20.88,1.87,18.17,2.26,5.34,2.1,4.14,11.13,17.55,4.66,7L730.37,4201l9.6,14.36,2,3.05,5,7.62,2.33,3.54,7.13,11.05,9.62,14.72,8,12.15.47.72.57.88,3.46,5.38.68,1.05L791.52,4295l11.84,19.53,4,6.05,3.72,4.79L832.87,4343l2.51,2.11,1,.83,2.93,4.65,2.16,3.72,1.75,4.15,1.31,4L845,4380l.13,4.95.18,6.86.36,8.42.14,3.19.41,3.84,1.4,6.31,6.59,16.8,4.73,8.19,3.68,5.65,8,8.61,1.5,1.49,1.5,1.48,8.8,7.93,9.71,7.3,1.41,1.79,15.34,11.65,6.3,4.19,12.61,8.58,7.63,4.92,5.71,3.22,6.41,3.89,8.16,3.34,10.57,3.16,4.91,1.77,11.28,6.17,14.28,9.33,2.7,1.85,1.41,1.25,1.77,1.61,2.53,2.69,1.15,1.45,1.38,1.92,1.91,2.38,2,3.07,1.77,2.84.43.78,1.64,3.05,1.84,3.68,1.08,2.46,1.76,3.52,1.38,3.22,1.53,3.31,3.92,8.05,2.48,4.74,4.43,8.47,5.83,15.35,2.26,4.66,3.72,8.38,2.74,6.15,7.82,15.29,4.85,6.13,7,7.13,2.53,2.29L1072,4660l3.85,2.54,2.9,1.64,2.07,1.17,6.72,3.8,4.86,2.81,28.69,16.57,8.69,4.31,4.53,2.16,3.47,1.44,4.21,1.65,7.9,2.61,4.89,1.21,15,3.19,3.88.69,14.76,3,5.94,1.29,4.47,1.76,5.62,3.37,2.07,1.46,7.66,7,6.9,9.09,2.86,3.71,1.73,2.68,1,1.46,16.74,18.66,14.32,8.85,148,71.51,8.09,4.6,18.85,10.29,7.55,3.89,7.31,5.83,6.35,6.8,18.77,46.42,9.14,21.75,14.87,33.47,12.44,27.51,5.29,12.43,1.92,4.58.72,2,.27.89,2.67,7.65.5,5.57.77,14.42.18,3.37.47,5.11,1.75,10.18L1527,5082l2.18,6.16.77,6.42.07,8.13-2,11.66-2.69,12.47-2.66,10.32-1.18,4.3-1.13,3.08-.11.32-.26.7-2.23,4.87-1.9,2.67-3.73,5.34-3.91,3.56-3.52,2.74-.5.43-3.78,3.15-12.12,10.09L1468,5195.31l-13.54,11.84-16.28,13.24-3.51,2.07-11.22,9.86-13,12.78-10.86,14-16.29,22.92-.55,1.09-5.23,10.38-1.57,6-1.51,27.83.2,3.45.51,8.73,1.26,22.47.26,2.39,1.39,7.36,4.62,8.28,19.59,18,16.2,14.78,20.18,18.69,9.51,9.28,23.42,21.83,8,7.46,1.59,2,20.09,22.75,1.85,2.2,9.49,11.22,4,4.21,2.51,2.44M951,1163l-1.17,1-12,12.85-3,2.54c-1.1.94-2.25,1.84-3.32,2.81l-7,6.72-1.18,1.12c-.38.38-.89.69-.84,1.3l-.5,3.2-.75,4.86-1.24,8.17-.67,3-1.38,2c-.66,1-1.33,2-1.95,3l-3.78,6-26.55,41.4-1.12,3c-.37,1-.81,1.86-1.21,2.79s-.88,1.8-1.32,2.7-1.06,1.9-1.58,2.85l-6.5,11.49-6.49,11.48-3.26,5.81-1.65,3-1.48,3c-3.84,8-8.13,15.75-12.22,23.61l-5.71,12.18c-1,2-1.86,4.12-2.75,6.24-.43,1.06-.92,2.09-1.31,3.19l-1.07,3-2.41,5.09c-1.88,5.72-3.12,9.62-5.15,15.23l-1.56,6.88-.46,4.61c-.07,1.4-.09,2.78-.14,4.17l-.24,7.67-1.72,7-.66,11.75-.42,11.2,10.86,22.75L836,1464.6l-.05,5.58-.19,5.63-.41,11.27c-.17,3.75-.48,7.48-.72,11.22-1,15-2.27,29.68-2.45,44.32l0,5.56-.11,5.61-.25,11.23-.28,11.09c0,1.8,0,3.59,0,5.39l0,2.69c0,.91.11,1.54.14,2.23l1.53,7.52,1,3.32,1.08,3.61,2.32,7.79.7,8.59.05.62,0,7.31-1.54,12.8.78,9.49,1,9.8.71,3.73c.25,1.34.52,2.67.82,4l1.72,7.93c.53,2.68,1.26,5.18,1.93,7.76l2.17,7.48,4.45,10.29,25.51,43.47c2.87.73,5.74,1.44,8.63,2.1l19.42,4.46,9.85,2.24-3.21,14.13-1.84,9.91-.46,2.47-.61,2.44-1.21,4.87c-3.31,13-6.24,26-10.17,39l-11.15,38.88-5.39,19.44c-.84,3.26-1.91,6.44-2.93,9.63l-3.07,9.58-6.14,19.15-3.48,9.39c-1.17,3.13-2.29,6.24-3.57,9.4l-7.45,18.86-1.86,4.71c-.61,1.58-1.15,3.19-1.73,4.79l-3.43,9.59c-2.27,6.39-4.61,12.78-6.7,19.16l-3.23,9.57c-.54,1.59-1,3.2-1.63,4.78l-1.79,4.74-3.59,9.46c-1.14,3.27-2.29,6.57-3.26,10l-5.12,20-1.75,9.69-.87,9.05-1.36,3.44-7.72,18-2.17,5.21-1.24,3-6.16,14.79-.17.4-5.25,13.82-.34.9-3.35,9.27-.91,2.86-2.1,6.88-1.16,6.12-.7,4.46-.21,1.75-.09.77.18,3.76.48,4.23.87,5.08,1.15,4.41,1.07,3,3.48,7.21.33.7,3.3,5.82,5.6,8.53,4.14,5.08,4.63,3.9,8.61,7.23,5,3.66,5.87,4.64,9.21,3.29,2.65,1,11.36,3.51,23.23,6.64.14.09,4,6.06L896.27,2265l9.83,6.18,8.18,6.74L924.55,2288l2.61,2.58,1.3,1.29,1.17,1.28c.78.83,1.58,1.75,2.38,2.67l2.92,3.33,6.46,4.37c1.93,1.32,3.92,2.62,5.94,3.91s4,2.64,6,3.86l6.3,3.52c4.2,2.3,8.35,4.32,12.52,6.5l12.73,6.52,17.71,7.32,8,2.16c1.28.33,2.54.7,3.79,1.08l3,.91,9.85,6.16,33.8,26.77,17.11,13.28,4.12,3.36,4.11,3.48,8,6.74,6.62,7.42,6.77,7.9c4.68,5.21,9.23,10.44,14,15.63,2.43,2.64,4.79,5,7.19,7.52s4.55,5,6.79,7.5l12.49,15.7,1.83,3.61c.69,1.39,1.42,2.75,2.07,4.16l3.91,8.23,3.58,9.14,1.28,6.58c.52,2.36.79,4.76,1.14,7.16l2,14.36.51,3.59a35.93,35.93,0,0,1,.43,3.61l.53,7.33.54,7.33c.13,2.43.69,4.88.86,7.26l.5,7.13.44,7.25.11,1.82,0,1.74.1,3.67.21,7.35.41,14.69.24,7.27v7.55l1.12,11.12"/></g></g></g></svg>