<svg id="routes" xmlns="http://www.w3.org/2000/svg" xmlns:xlink="http://www.w3.org/1999/xlink" viewBox="0 0 1024 1024"><defs><style>.cls-1,.cls-3,.cls-4,.cls-5,.cls-6,.cls-7{fill:none;}.cls-2{clip-path:url(#clip-path);}.cls-3{stroke:#231815;stroke-width:8.79px;}.cls-3,.cls-4,.cls-5,.cls-6,.cls-7{stroke-linecap:round;stroke-miterlimit:10;}.cls-4{stroke:#ebca1b;}.cls-4,.cls-5,.cls-6,.cls-7{stroke-width:4.4px;}.cls-5{stroke:#985d1b;}.cls-6{stroke:#a73766;}.cls-7{stroke:#006b4b;}</style><clipPath id="clip-path"><rect class="cls-1" x="-5031" y="-7164" width="11720" height="11720"/></clipPath></defs><title>3234_7149</title><g class="cls-2"><g id="日ノ丸線"><g id="江波"><path class="cls-3" d="M682,2080.54l-3.41-21.17c-.32-1.76-.51-3.54-.7-5.32l-.58-5.35-1.2-11,0-45.24.93-12.59,1.13-6.36,3.86-13.85,7.42-15.86,7.31-15.33,7.32-15.34,3.66-7.67.92-1.92.87-1.88,1.77-3.9c1.12-2.6,2.48-5.18,3.72-7.73l3.68-7.61c2.46-5.06,4.82-10.23,7.24-15.35s4.86-10.23,7.32-15.34l7.27-15.08,3.12-8.29c.55-1.42,1-2.85,1.64-4.26l1.68-3.91,1.4-4.92c.49-1.76,1.05-3.49,1.43-5.31l2.51-10.84c.78-3.62,1.81-7.21,2.78-10.8l2.94-10.79,11.7-43c1-3.55,1.85-7.19,2.7-10.81l2.54-10.87,1.28-5.44c.43-1.81.8-3.63,1.37-5.41l3.12-10.73,1.56-5.36.78-2.68.68-2.68,2.7-10.75,5.34-21.2,1.4-12.51.21-18.09.15-1.46c0-.41.09-.83.15-1.25l.19-1.24.19-1.1c.14-.74.22-1.45.32-2.16l.35-2.45.63-3,.89-2.46,1.12-1.93.55-.77.38-.52c.25-.32.49-.64.74-1s.47-.7.77-1.08l1.15-1.48,1.51-1.41,1.21-1.21c.81-.8,1.6-1.62,2.43-2.4l5.12-4.54,5.12-4.53,4.75-4.15,3.73-4.57,1.82-3.35.9-2.34.51-3.33.17-8.74-1-15.56-.22-4-.1-4-.19-7.73-1.3-12.84-3.2-6.7c-1-2-2.71-4.68-4.12-7.12s-2.92-4.91-4.37-7.49c-.7-1.3-1.48-2.59-2.12-3.89l-2.11-4.15-2.38-6-.6-5.12v-10.83l1.28-5.51,2.87-7.1,2-3.67c.6-1.15,1.26-2.19,1.89-3.29l3.82-6.5,7.77-13.21,15.16-21.5,6.83-24.35,26.27-41,8.9-9.9,8.23-9.19,8.18-9.2c2.72-3.06,5.33-6.14,8-9.21l4-4.6c1.34-1.53,2.52-3.1,3.8-4.64,2.49-3.11,5.06-6.19,7.34-9.37l3.51-4.74c1.2-1.56,2.17-3.21,3.27-4.82s2.16-3.18,3.16-4.92l2.62-4.37,1.94-4.77,1.12-4.13c.47-1.58.75-3.31,1.14-5l2.07-9.62,2.68-18.78-.07-12.45-.82-9.73-1.54-7.29-1.31-4.16-1.52-4.71-3-9-3.62-8.62-4.78-7.8-6-8.39-12.35-17.33L903,1116.48l-3.56-11.79-1.55-12.37-.43-10,.66-11.32,2.59-12.24,1.57-4.42.35-1.35.53-1.63,1.3-4,3.57-7.08,1-2a15.91,15.91,0,0,1,1.61-2.5l2-2.88,8.15-11.51,16.3-23,9.56,6.77,5.28,1.23,1.38.32,10.25,2.38,9.09,2.26,7.07,5.68,8.49,6.28,6.63,2.79,4.12,1.81,2,.89,30.44,15,17.66,8.5,2.51,1.22,15.61,8.57,16.61,8.72,10.75,5.75,12.38,6.36,2,1.07,8,4.11,11,4.73,8.92,2.45,9.31,2.2,2.94.31,12.94,1.36,28.13,1.47,11.6-.62,12.18-2.77,6.93-2.59,16.1-7.43,18.4-8,8.18-3.93,3.63,3.67.45.23,4,1.8,4.94,2.29.29.14,10.57,4,6.57-.42,14.24-.88,15.67-.82,11.37-.48,11.32.15,3.76,1,3.11.82,10.8,4.14,1,.6,10.4,6.33,2.1,2.09,4.6,6.91,4.1,6.16.83,1.54.67,1.42.67,1.38.71,1,.79,1,.91,1.23,1.22,1,1.46,1.15.31.24.71.54,4.06,2.45,1.31.72,4.71,2.61,2.75,1.88,1.58,2.28.62,1.68.74,1.58.56,1.67.56,2.14m-2138,1162.77,3.31-.94,4.51-4.94,1.26-.8,12.86,3.15h14.55l6.08-.49,3.22-.8,8.5-3.06,13.08-6.62,11.86-6.59,13.27-13,5.27-4.16,6.4-3.57,8-1.59,7.1-.38,6.36-.6,4.47-1.42,8.32-5.31,5-4.4,3-7.5,4.15-7.25,10.56-10,2.72-2.08,3.21-1.43,11.34-3.71,13.9-2.42,3.39-1.12,2.55-1.6,1-1L-525,2207l2.4-5.3,2.24-6.11.81-1.63,3.68-11.07,2.1-4.83,2.37-3.08,2.7-2.39,5.45-3.23,7.22-2.88h2.71l3.86,2.25,5.85,5.34,4.4,4,3.68,2.71,4.31,2.43,1.6,1.12,2.08,2.08.95,2.42,2.1,8.05,1.28,6.91,1.12,4.19,1.12,1.54,2,.86h3.16l6.66-1.29,3.22-.79,6.22-1.15,7.35-1.91,10.09-4.19,13.6-7.71,16.33-8.05,16.95-9.64,2.73-2.43,2.56-4.82,1.44-1.6,3-1.77,5.12-2.57,3.2-1h5.91l7.85,1.29,5.75.17,7.82-1.77,9.44-.49,7.35-1.45,7.53-2.43,5.61-1.29,10.41-1h6.88l2.86,1,4.65,2.09,7.69,5.65,1.09.32,1.47.48.47-.48,1.14-.49,1.75-1.62,11.52-15.42,3.52-4,3.68-2.24,2.89-1,7.68-1.45,7.83-1.12h15.83l4.5-1,5.91-2.91,1.13-1.11,1.6-1,6.38-6.43,10.08-13.83,2.24-1.77,4.33-1,17.77-.34,3.68-.63,2.56-.37,1.58-.45,1.31-1.26.42-2.11.37-3.6.51-2.14,1.1-2.19,3-1.72,5.6-2.08,5.92-1.29,4.49-.17,11,1.6,9.13,2.09,5.45,2.73,5,3.23,5.9,6,8.66,9.19,7.17,6.08,4.29,3.27,2.75,1.65,3.79.47h3.5l6.43-1.31,4.56-5.56,16.46-2,5.12.8,6.71,2.88,5.92,3.89,3.21,2.57,1.28.79,6.68,6.42.52.49,2.86,1.77,7.38,3.54,10.72,7.39,8.64,6.57,8.8,6.28,10.48,5.82,7.6,3.34,5.12,2.25,10.38,3.71.82.32,1.12.65,10.08,4,7.67,4,4.16,2.91,1.28,1.6,1,2.91.16,4.82-.63,4.32-1.6,6.13-1.78,3.37-3.84,4.19L84,2218.91l-2.07,2.57-.49.93L80,2226.78l-1.28,5.31-1.1,8.51.47.8,1.6,4.68,7.52,13.35,6.88,10.76,3,.66,5.61.62h5.59l6.25.18,4.65.34,10.72.28,6.57.49,3.68.51,6.38,2.23,4.32,2.08.49,2,.31,6.59-.47,10.16V2300l.31,6.28-.31,4.79-2.72,7.56-4,8.85-1.44,4.65v3.08l.79,1.78.49.31,1.28.8,2.56-.49.79-.31,9.78-4.83,8.15-3.22,5.29-1.29,5.75-1,10.72.17,1-.34,6.06-3.68,1.28-.48,2.14-.29,4.06.74,7.31,4.11,4.12-.2,7.17-2.8,3.68-1,4.82.34,3.68,3,10.72,14.64,2.55,4.48,1.94,6.14.79,4.82v7.54l-1.77,9L246,2381v13.15l1.72,23.23,1,2.8,6.12,7.93,1.21,1.77,1.89-1.23,6.47.09,3.22-.8,7.54-4.34,6.53-5.3,7.84-7.57,16.35-16.41,8.8-7.87,7-6.14,8.49-5.37,8.46-4.39,5.18-1.71,7-2.06,8.68-2.8,12.69-2.12,1.24-.2,1.17-.5,1.27-.62,1-1,1-1.67.5-1.59,2.9-8.43,2.08-2.79,2.13-1.14,2.27-1.42,6.82-2.13,2.87-.92,1.54-.5,3.84-1.14,2-.59,2.28-.68,8.68-2.67,5.25-1.6,3.26-1,4.55-1.41,10.34-3.68,7.48-4,1.15-.62,7.18-5.17,1.08-.88,9.46-7.82.89-.73,7.36-6.48,6.47-7.06,6.62-9.71,7.65-16.92.63-2.13,1.31-3.31,2.47-5.45,3.57-7.66,4.2-7.87,1.52-2.8,5-7.42,4.51-6.73,3.85-6.1,2.8-3.66,3.23-4.86,4.16-6.8,3.16-7.41,4.56-15.14,3.88-11.78,2.54-5.13,2-3.28,2.46-2.87,4.47-3.85,9.41-6.3,15.47-9.17,9.36-5.09,2.24-1.29.66-.27,5.95-2.49,9.87-4.12,2.79-1.18,2.69-1.15,7.8-3.34,4.15-1.43,2.56-1.31,13.69-6.16,4.14-1.38,2.66-.79,2.2-.66,6.41-2.6,3.4-1.62,3.41-2.43,2.47-1.76,1.17-.84,2.68-3.16,10.16-8.14.49-.39,1.86-1.55m-.55-3.43.55,3.43"/><path class="cls-4" d="M682,2080.54l-3.41-21.17c-.32-1.76-.51-3.54-.7-5.32l-.58-5.35-1.2-11,0-45.24.93-12.59,1.13-6.36,3.86-13.85,7.42-15.86,7.31-15.33,7.32-15.34,3.66-7.67.92-1.92.87-1.88,1.77-3.9c1.12-2.6,2.48-5.18,3.72-7.73l3.68-7.61c2.46-5.06,4.82-10.23,7.24-15.35s4.86-10.23,7.32-15.34l7.27-15.08,3.12-8.29c.55-1.42,1-2.85,1.64-4.26l1.68-3.91,1.4-4.92c.49-1.76,1.05-3.49,1.43-5.31l2.51-10.84c.78-3.62,1.81-7.21,2.78-10.8l2.94-10.79,11.7-43c1-3.55,1.85-7.19,2.7-10.81l2.54-10.87,1.28-5.44c.43-1.81.8-3.63,1.37-5.41l3.12-10.73,1.56-5.36.78-2.68.68-2.68,2.7-10.75,5.34-21.2,1.4-12.51.21-18.09.15-1.46c0-.41.09-.83.15-1.25l.19-1.24.19-1.1c.14-.74.22-1.45.32-2.16l.35-2.45.63-3,.89-2.46,1.12-1.93.55-.77.38-.52c.25-.32.49-.64.74-1s.47-.7.77-1.08l1.15-1.48,1.51-1.41,1.21-1.21c.81-.8,1.6-1.62,2.43-2.4l5.12-4.54,5.12-4.53,4.75-4.15,3.73-4.57,1.82-3.35.9-2.34.51-3.33.17-8.74-1-15.56-.22-4-.1-4-.19-7.73-1.3-12.84-3.2-6.7c-1-2-2.71-4.68-4.12-7.12s-2.92-4.91-4.37-7.49c-.7-1.3-1.48-2.59-2.12-3.89l-2.11-4.15-2.38-6-.6-5.12v-10.83l1.28-5.51,2.87-7.1,2-3.67c.6-1.15,1.26-2.19,1.89-3.29l3.82-6.5,7.77-13.21,15.16-21.5,6.83-24.35,26.27-41,8.9-9.9,8.23-9.19,8.18-9.2c2.72-3.06,5.33-6.14,8-9.21l4-4.6c1.34-1.53,2.52-3.1,3.8-4.64,2.49-3.11,5.06-6.19,7.34-9.37l3.51-4.74c1.2-1.56,2.17-3.21,3.27-4.82s2.16-3.18,3.16-4.92l2.62-4.37,1.94-4.77,1.12-4.13c.47-1.58.75-3.31,1.14-5l2.07-9.62,2.68-18.78-.07-12.45-.82-9.73-1.54-7.29-1.31-4.16-1.52-4.71-3-9-3.62-8.62-4.78-7.8-6-8.39-12.35-17.33L903,1116.48l-3.56-11.79-1.55-12.37-.43-10,.66-11.32,2.59-12.24,1.57-4.42.35-1.35.53-1.63,1.3-4,3.57-7.08,1-2a15.91,15.91,0,0,1,1.61-2.5l2-2.88,8.15-11.51,16.3-23,9.56,6.77,5.28,1.23,1.38.32,10.25,2.38,9.09,2.26,7.07,5.68,8.49,6.28,6.63,2.79,4.12,1.81,2,.89,30.44,15,17.66,8.5,2.51,1.22,15.61,8.57,16.61,8.72,10.75,5.75,12.38,6.36,2,1.07,8,4.11,11,4.73,8.92,2.45,9.31,2.2,2.94.31,12.94,1.36,28.13,1.47,11.6-.62,12.18-2.77,6.93-2.59,16.1-7.43,18.4-8,8.18-3.93,3.63,3.67.45.23,4,1.8,4.94,2.29.29.14,10.57,4,6.57-.42,14.24-.88,15.67-.82,11.37-.48,11.32.15,3.76,1,3.11.82,10.8,4.14,1,.6,10.4,6.33,2.1,2.09,4.6,6.91,4.1,6.16.83,1.54.67,1.42.67,1.38.71,1,.79,1,.91,1.23,1.22,1,1.46,1.15.31.24.71.54,4.06,2.45,1.31.72,4.71,2.61,2.75,1.88,1.58,2.28.62,1.68.74,1.58.56,1.67.56,2.14m-2138,1162.77,3.31-.94,4.51-4.94,1.26-.8,12.86,3.15h14.55l6.08-.49,3.22-.8,8.5-3.06,13.08-6.62,11.86-6.59,13.27-13,5.27-4.16,6.4-3.57,8-1.59,7.1-.38,6.36-.6,4.47-1.42,8.32-5.31,5-4.4,3-7.5,4.15-7.25,10.56-10,2.72-2.08,3.21-1.43,11.34-3.71,13.9-2.42,3.39-1.12,2.55-1.6,1-1L-525,2207l2.4-5.3,2.24-6.11.81-1.63,3.68-11.07,2.1-4.83,2.37-3.08,2.7-2.39,5.45-3.23,7.22-2.88h2.71l3.86,2.25,5.85,5.34,4.4,4,3.68,2.71,4.31,2.43,1.6,1.12,2.08,2.08.95,2.42,2.1,8.05,1.28,6.91,1.12,4.19,1.12,1.54,2,.86h3.16l6.66-1.29,3.22-.79,6.22-1.15,7.35-1.91,10.09-4.19,13.6-7.71,16.33-8.05,16.95-9.64,2.73-2.43,2.56-4.82,1.44-1.6,3-1.77,5.12-2.57,3.2-1h5.91l7.85,1.29,5.75.17,7.82-1.77,9.44-.49,7.35-1.45,7.53-2.43,5.61-1.29,10.41-1h6.88l2.86,1,4.65,2.09,7.69,5.65,1.09.32,1.47.48.47-.48,1.14-.49,1.75-1.62,11.52-15.42,3.52-4,3.68-2.24,2.89-1,7.68-1.45,7.83-1.12h15.83l4.5-1,5.91-2.91,1.13-1.11,1.6-1,6.38-6.43,10.08-13.83,2.24-1.77,4.33-1,17.77-.34,3.68-.63,2.56-.37,1.58-.45,1.31-1.26.42-2.11.37-3.6.51-2.14,1.1-2.19,3-1.72,5.6-2.08,5.92-1.29,4.49-.17,11,1.6,9.13,2.09,5.45,2.73,5,3.23,5.9,6,8.66,9.19,7.17,6.08,4.29,3.27,2.75,1.65,3.79.47h3.5l6.43-1.31,4.56-5.56,16.46-2,5.12.8,6.71,2.88,5.92,3.89,3.21,2.57,1.28.79,6.68,6.42.52.49,2.86,1.77,7.38,3.54,10.72,7.39,8.64,6.57,8.8,6.28,10.48,5.82,7.6,3.34,5.12,2.25,10.38,3.71.82.32,1.12.65,10.08,4,7.67,4,4.16,2.91,1.28,1.6,1,2.91.16,4.82-.63,4.32-1.6,6.13-1.78,3.37-3.84,4.19L84,2218.91l-2.07,2.57-.49.93L80,2226.78l-1.28,5.31-1.1,8.51.47.8,1.6,4.68,7.52,13.35,6.88,10.76,3,.66,5.61.62h5.59l6.25.18,4.65.34,10.72.28,6.57.49,3.68.51,6.38,2.23,4.32,2.08.49,2,.31,6.59-.47,10.16V2300l.31,6.28-.31,4.79-2.72,7.56-4,8.85-1.44,4.65v3.08l.79,1.78.49.31,1.28.8,2.56-.49.79-.31,9.78-4.83,8.15-3.22,5.29-1.29,5.75-1,10.72.17,1-.34,6.06-3.68,1.28-.48,2.14-.29,4.06.74,7.31,4.11,4.12-.2,7.17-2.8,3.68-1,4.82.34,3.68,3,10.72,14.64,2.55,4.48,1.94,6.14.79,4.82v7.54l-1.77,9L246,2381v13.15l1.72,23.23,1,2.8,6.12,7.93,1.21,1.77,1.89-1.23,6.47.09,3.22-.8,7.54-4.34,6.53-5.3,7.84-7.57,16.35-16.41,8.8-7.87,7-6.14,8.49-5.37,8.46-4.39,5.18-1.71,7-2.06,8.68-2.8,12.69-2.12,1.24-.2,1.17-.5,1.27-.62,1-1,1-1.67.5-1.59,2.9-8.43,2.08-2.79,2.13-1.14,2.27-1.42,6.82-2.13,2.87-.92,1.54-.5,3.84-1.14,2-.59,2.28-.68,8.68-2.67,5.25-1.6,3.26-1,4.55-1.41,10.34-3.68,7.48-4,1.15-.62,7.18-5.17,1.08-.88,9.46-7.82.89-.73,7.36-6.48,6.47-7.06,6.62-9.71,7.65-16.92.63-2.13,1.31-3.31,2.47-5.45,3.57-7.66,4.2-7.87,1.52-2.8,5-7.42,4.51-6.73,3.85-6.1,2.8-3.66,3.23-4.86,4.16-6.8,3.16-7.41,4.56-15.14,3.88-11.78,2.54-5.13,2-3.28,2.46-2.87,4.47-3.85,9.41-6.3,15.47-9.17,9.36-5.09,2.24-1.29.66-.27,5.95-2.49,9.87-4.12,2.79-1.18,2.69-1.15,7.8-3.34,4.15-1.43,2.56-1.31,13.69-6.16,4.14-1.38,2.66-.79,2.2-.66,6.41-2.6,3.4-1.62,3.41-2.43,2.47-1.76,1.17-.84,2.68-3.16,10.16-8.14.49-.39,1.86-1.55m-.55-3.43.55,3.43"/></g><g id="西郷"><path class="cls-3" d="M147.47,185.83,165.67,173l9.35-6,10.61-6.85,13.06-9.24,9.8-5.83,3.67-2.44,19.26-12.82,6.5-3.92,1-.61,20.72-13.69L280.5,97.93l10.84-6.27,10.42-6.6,11.53-7.73.95-.49,16.52-11.19L342.88,58l6.48-4.28,3.46-2,.77-.37L366,45.2l2.73-1.3,5.46-2.41,8-4.15.33-.15.9-.41L386,35.6,391,33.66l3.2-1,2.67-.81,7.89-1.34.32-.05L416,28.94l2.35-.28,2.89-.61,9.75-1.6,8.51-1.6,2.18-.49,1.49-.34,2.87-.29,2.57-.17,3-.06h3.15l2.18.17,1.83.29,2.29.46,2.36.46,3.61.74.31.14,1.06.09.86.12,1.49-.06,1.89-.23,1.32-.23,1.84-.46,1.31-.4,1.39-.52,10.53-4,1.08-.41,14.26-5.46L510.27,12l3-1,2.24-.75L541.37.37l17.35-6.6,9.58-3.5,21.82-7.95,12.25-4.46,2.25-1.13,11.61-4.07,4.07-.57,3.48.32,2.74.42,2,.55,4.1,1.61,13.83,5.52,4.26,1.59,2.66.32,5.2-.11.78,0,6.62-.74,1.47-.16,6.73-.35,1.57-.08,3,.09,5.64-.31,4-.49,2-.55,5.83-1.62,5.18-1.44L707-24.67l2.26-.52,6.31-2.19.4-.25,3.51-2.28,5.81-3.76,1.26-.81,5.69-16c1.57-2.18,3.17-4.23,4.72-6.51.8-1.12,1.5-2.23,2.38-3.37l2.52-3.29,9.85-12.82c6.59-8.53,13-17.19,19.46-25.81l19.4-25.92,4.88-6.51c1.61-2.19,3.25-4.34,4.95-6.46l9.85-12.5,2.16-3.47c.77-1.25,1.55-2.5,2.4-3.73l2.47-3.71,2.67-3.83,2.81-3.37,4.64-6.78,2.28-4.74,2.07-5.91c.76-2.05,1.38-4.18,2-6.3s1.27-4.22,2-6.35l2.09-6.17c2.68-10.58,5.76-22.15,9.2-32.77l4.07-17.43,2.07-8.77,1.7-8.51,1.53-16.42.08-.86L829.42-339l-5.57-12.9-2.67-9.19c-.75-2.88-1.62-6-2.16-8.7l-1.83-8.41c-.32-1.41-.61-2.81-.86-4.2l-1-5-1.08-11.06-1-12L815-424.3l0-4.95v-.11l-.46-5.63-1.6-5.38-1.06-3.54-1.35-4.33-2.06-10.15-.18-2.47-.07-1.09c0-.39,0-.66,0-.9l0-3.09c0-2.06-.06-4.12,0-6.18l.28-11.4.25-11,.12-5.5,0-5.65.35-11.68c.21-3.83.33-7.79.62-11.51l1.53-22.3c.23-3.65.54-7.31.7-10.94l.39-10.83.19-5.44,0-5.63.11-11.26M147.47,185.83l-10.21,2.27-7.87,4.17-11,6.55-.33.19-1,.49-1.62.81-5,.43-2-.47-10.35-2.06-2.49-.5-4-.86-3.81-.67-1-.07h-1l-1,0-.5.06-.92.11-1.18.18-1.38.31-1.14.31-1.11.42-1.07.41-1.25.59-1.56.94-11,7.28-4,2.67-4,2.61-.42.28-3.08,2-2.38,1.56L48.27,217l-1.72,1.18-1.76,1-1.88,1-1.58.82-.63.32-.44.11-1.48.34-2.05.37-2.33.25-2.38.12-2.08.08-2-.08-2.33-.16-1.42-.21-7.69-2.83-9.1-3.46L2,213.47.7,213l-8.4-2.59-10.91-3.67-5.82-1.26-3.57-.78-3.72-.49-3.21-.11-5.36.06-7.16.11-5.42.61-4.75.84-4.2.95-4.41,1.12-8.69,2.29-2.57.59-8.15,1.1-3.67-.75-3.26-.75L-96.26,209l-2.26-.94-4.33-1.52L-107,196.24l-2.2-2.85-2.1-2.5-3-2.35-8.51-5.15-6.7-4.21-3.77-2.7-5.25-3-2.86-1.25-6.11-1.35-22.11-4.09-7.78-2.06-3.28-.82-5.86-1.46-9.65-3.22-6.54-2.07-4-1.35-6.43-2-8.51-2.38-2.59-.63-4.87-1.34-3.22-1-3.52-1.18-9.95-3-1.44-.33-3.67-.87-12.44-4.42-3.79-2-4.61-2.93-12.61-10.3-.18-.15-6-4.94-11.65-8.79-8.47-4.66-9.75-4.77-11.86-3.7-33.16-5-8.37-1.06-6-.84-6.85-1-7.87-1.06-11.1-1.18-8.1-.65-4.49-.18-1-.06-1.66-.09-12-.18-10.79-.11-3.27-.19-4.13-.22-5-.45-.89-.08-3.38-.4-2.51-.41L-468,81.79l-7.28-2.1-6.53-1.75-5-1.2-4.86-1.11L-497,74.4l-6.44-1.35-5.75-.94-4.8-.58-5.86-.42-6.39-.11-6.74.11-7,.59-3.62.44-.72.09-3.75.52-2.58.53-11,2.53-2.17.58L-566,77l-3.06.85L-572.21,79l-2.82.94-2.23.82-2,1-1,.52-1.27.66L-588,86.3l-7,3.92-4.8,2.87-2.81,1.76-.23.14-2.47,1.56-1.09.66-2.07,1.27-3.23,1.64-2.61,1.06-.69.29-2,.59-16,4.15-1.59.46L-647,110.18l-32.25,9.59L-716.57,130l-12.33,3.53-18.26,5.42L-762,143.32l-4.22,1.12-3.7,1.12-3.6,1.24-3.55,1.45-1.23.58-1.95.92-3.55,1.54-2.81,1.38-2.39,1.16-1.19.48-1.93.84-3.39,1.52-3.33,1.46-2.91,1.42-2.4,1.2-2.58,1.23-2.43,1.23-3.13,1.7-2.56,1.37-2,1.65-2.21,2.13-2.5,2.69-2.47,2-.12.09-3.59,2.57-3.32,2.09-.77.47-1.47.92-1.73,1.46-2.94,3-.2.21-1.91,2.57-1.9,2.49-.3.39-1.56,1-1.36.88-2.32,1.76-2.77,2.4-2.88,2.58-1.71,1.83-1.69,1.64-2.77,3.22-4,4.3-6.76,7-2.75,2.89-1.32,1.66-1.9,2.49-1.53,2.18-3.18,3.21-3.06,3.16L-887,236l-3.87,3-4.51,2.74m213.13,568.84,5.47-14.65,2-8.85,1-2.08,1.75-1.78,4-2.74,6.86-3.68,7.22-3.43,6.06.2,21.77,5.14h3.24l2.4-1.63,1.58-1.57,2.4-4.85.68-4,1.39-2.43,1.8-1.46,2.56-1.45,9.45-1.91,8.81-6.6,11.06-7.11,2.07-3.72,1.77-5.79,2.07-12.06.47-1.28,1.3-2.91,2.87-4.34,4.61-7.06,2.74-3.39,1-1,19.73-17,3.27-3,2.29-2,1.62-1.24,1.45-.81.43-.23,4.39-2.29.91-.48.52-.36.47-.4.32-.46.33-.83.78-2,.84-2.05.71-1.65.6-1.16.65-1.15.64-1,.69-1.07,1.07-1.17,1.22-1.22,1.29-1,1.69-1,2.43-1.24,5.31-3,4-2.25,1.82-1,10.58-5.58,8.67-4.79,4.12-2.2,10.82-6,2.39-1.11,1.95-1.15,2.7-1.76,4.09-4.32,3.79-5.43,4.84-4.6,8.23-6.94,3.76-4,6.62-8,2.32-2.79,5-6.29,5.55-6.92,2.55-4.91,2.39-4.61,1.14-3.07.12-.42.61-2.24.75-2.74,2-5.83,1.13-4.32,1.75-5.8.88-2.7,1.5-4,2.69-5.89,6.77-13.47.24-.44,9.53-17.48,1-2.09.24-.53.82-1.78,11.48-21.32,2.9-7.57,2.09-5.61,5.67-8.64,1.28-1.55.8-1,16.09-18.41L-324.1,417l.37-.41.65-.7,9.33-10.46,1.64-1.4,2.08-1.57,2-1.2,2.21-.95,3-1.19,1.22-.44,23-8.26,10.77-3.87,3.54-1.32L-210,365.14l14.93-5.78,8.62-3.34,10.06-3.87,10.11-4.68,9.18-6.31,6.56-4.44,2.94-1.68,4-1.76,6.12-2.24,22.18-5.69,65.4-27.61,5.37-3,5.93-5,3.88-3.63,9.43-10.3,2.68-5.85,2.75-4.77L-15,256l5.13-12.71,2.23-5,.21-.51L.24,218.57l1.43-3.7.34-1.4"/><path class="cls-5" d="M147.47,185.83,165.67,173l9.35-6,10.61-6.85,13.06-9.24,9.8-5.83,3.67-2.44,19.26-12.82,6.5-3.92,1-.61,20.72-13.69L280.5,97.93l10.84-6.27,10.42-6.6,11.53-7.73.95-.49,16.52-11.19L342.88,58l6.48-4.28,3.46-2,.77-.37L366,45.2l2.73-1.3,5.46-2.41,8-4.15.33-.15.9-.41L386,35.6,391,33.66l3.2-1,2.67-.81,7.89-1.34.32-.05L416,28.94l2.35-.28,2.89-.61,9.75-1.6,8.51-1.6,2.18-.49,1.49-.34,2.87-.29,2.57-.17,3-.06h3.15l2.18.17,1.83.29,2.29.46,2.36.46,3.61.74.31.14,1.06.09.86.12,1.49-.06,1.89-.23,1.32-.23,1.84-.46,1.31-.4,1.39-.52,10.53-4,1.08-.41,14.26-5.46L510.27,12l3-1,2.24-.75L541.37.37l17.35-6.6,9.58-3.5,21.82-7.95,12.25-4.46,2.25-1.13,11.61-4.07,4.07-.57,3.48.32,2.74.42,2,.55,4.1,1.61,13.83,5.52,4.26,1.59,2.66.32,5.2-.11.78,0,6.62-.74,1.47-.16,6.73-.35,1.57-.08,3,.09,5.64-.31,4-.49,2-.55,5.83-1.62,5.18-1.44L707-24.67l2.26-.52,6.31-2.19.4-.25,3.51-2.28,5.81-3.76,1.26-.81,5.69-16c1.57-2.18,3.17-4.23,4.72-6.51.8-1.12,1.5-2.23,2.38-3.37l2.52-3.29,9.85-12.82c6.59-8.53,13-17.19,19.46-25.81l19.4-25.92,4.88-6.51c1.61-2.19,3.25-4.34,4.95-6.46l9.85-12.5,2.16-3.47c.77-1.25,1.55-2.5,2.4-3.73l2.47-3.71,2.67-3.83,2.81-3.37,4.64-6.78,2.28-4.74,2.07-5.91c.76-2.05,1.38-4.18,2-6.3s1.27-4.22,2-6.35l2.09-6.17c2.68-10.58,5.76-22.15,9.2-32.77l4.07-17.43,2.07-8.77,1.7-8.51,1.53-16.42.08-.86L829.42-339l-5.57-12.9-2.67-9.19c-.75-2.88-1.62-6-2.16-8.7l-1.83-8.41c-.32-1.41-.61-2.81-.86-4.2l-1-5-1.08-11.06-1-12L815-424.3l0-4.95v-.11l-.46-5.63-1.6-5.38-1.06-3.54-1.35-4.33-2.06-10.15-.18-2.47-.07-1.09c0-.39,0-.66,0-.9l0-3.09c0-2.06-.06-4.12,0-6.18l.28-11.4.25-11,.12-5.5,0-5.65.35-11.68c.21-3.83.33-7.79.62-11.51l1.53-22.3c.23-3.65.54-7.31.7-10.94l.39-10.83.19-5.44,0-5.63.11-11.26M147.47,185.83l-10.21,2.27-7.87,4.17-11,6.55-.33.19-1,.49-1.62.81-5,.43-2-.47-10.35-2.06-2.49-.5-4-.86-3.81-.67-1-.07h-1l-1,0-.5.06-.92.11-1.18.18-1.38.31-1.14.31-1.11.42-1.07.41-1.25.59-1.56.94-11,7.28-4,2.67-4,2.61-.42.28-3.08,2-2.38,1.56L48.27,217l-1.72,1.18-1.76,1-1.88,1-1.58.82-.63.32-.44.11-1.48.34-2.05.37-2.33.25-2.38.12-2.08.08-2-.08-2.33-.16-1.42-.21-7.69-2.83-9.1-3.46L2,213.47.7,213l-8.4-2.59-10.91-3.67-5.82-1.26-3.57-.78-3.72-.49-3.21-.11-5.36.06-7.16.11-5.42.61-4.75.84-4.2.95-4.41,1.12-8.69,2.29-2.57.59-8.15,1.1-3.67-.75-3.26-.75L-96.26,209l-2.26-.94-4.33-1.52L-107,196.24l-2.2-2.85-2.1-2.5-3-2.35-8.51-5.15-6.7-4.21-3.77-2.7-5.25-3-2.86-1.25-6.11-1.35-22.11-4.09-7.78-2.06-3.28-.82-5.86-1.46-9.65-3.22-6.54-2.07-4-1.35-6.43-2-8.51-2.38-2.59-.63-4.87-1.34-3.22-1-3.52-1.18-9.95-3-1.44-.33-3.67-.87-12.44-4.42-3.79-2-4.61-2.93-12.61-10.3-.18-.15-6-4.94-11.65-8.79-8.47-4.66-9.75-4.77-11.86-3.7-33.16-5-8.37-1.06-6-.84-6.85-1-7.87-1.06-11.1-1.18-8.1-.65-4.49-.18-1-.06-1.66-.09-12-.18-10.79-.11-3.27-.19-4.13-.22-5-.45-.89-.08-3.38-.4-2.51-.41L-468,81.79l-7.28-2.1-6.53-1.75-5-1.2-4.86-1.11L-497,74.4l-6.44-1.35-5.75-.94-4.8-.58-5.86-.42-6.39-.11-6.74.11-7,.59-3.62.44-.72.09-3.75.52-2.58.53-11,2.53-2.17.58L-566,77l-3.06.85L-572.21,79l-2.82.94-2.23.82-2,1-1,.52-1.27.66L-588,86.3l-7,3.92-4.8,2.87-2.81,1.76-.23.14-2.47,1.56-1.09.66-2.07,1.27-3.23,1.64-2.61,1.06-.69.29-2,.59-16,4.15-1.59.46L-647,110.18l-32.25,9.59L-716.57,130l-12.33,3.53-18.26,5.42L-762,143.32l-4.22,1.12-3.7,1.12-3.6,1.24-3.55,1.45-1.23.58-1.95.92-3.55,1.54-2.81,1.38-2.39,1.16-1.19.48-1.93.84-3.39,1.52-3.33,1.46-2.91,1.42-2.4,1.2-2.58,1.23-2.43,1.23-3.13,1.7-2.56,1.37-2,1.65-2.21,2.13-2.5,2.69-2.47,2-.12.09-3.59,2.57-3.32,2.09-.77.47-1.47.92-1.73,1.46-2.94,3-.2.21-1.91,2.57-1.9,2.49-.3.39-1.56,1-1.36.88-2.32,1.76-2.77,2.4-2.88,2.58-1.71,1.83-1.69,1.64-2.77,3.22-4,4.3-6.76,7-2.75,2.89-1.32,1.66-1.9,2.49-1.53,2.18-3.18,3.21-3.06,3.16L-887,236l-3.87,3-4.51,2.74m213.13,568.84,5.47-14.65,2-8.85,1-2.08,1.75-1.78,4-2.74,6.86-3.68,7.22-3.43,6.06.2,21.77,5.14h3.24l2.4-1.63,1.58-1.57,2.4-4.85.68-4,1.39-2.43,1.8-1.46,2.56-1.45,9.45-1.91,8.81-6.6,11.06-7.11,2.07-3.72,1.77-5.79,2.07-12.06.47-1.28,1.3-2.91,2.87-4.34,4.61-7.06,2.74-3.39,1-1,19.73-17,3.27-3,2.29-2,1.62-1.24,1.45-.81.43-.23,4.39-2.29.91-.48.52-.36.47-.4.32-.46.33-.83.78-2,.84-2.05.71-1.65.6-1.16.65-1.15.64-1,.69-1.07,1.07-1.17,1.22-1.22,1.29-1,1.69-1,2.43-1.24,5.31-3,4-2.25,1.82-1,10.58-5.58,8.67-4.79,4.12-2.2,10.82-6,2.39-1.11,1.95-1.15,2.7-1.76,4.09-4.32,3.79-5.43,4.84-4.6,8.23-6.94,3.76-4,6.62-8,2.32-2.79,5-6.29,5.55-6.92,2.55-4.91,2.39-4.61,1.14-3.07.12-.42.61-2.24.75-2.74,2-5.83,1.13-4.32,1.75-5.8.88-2.7,1.5-4,2.69-5.89,6.77-13.47.24-.44,9.53-17.48,1-2.09.24-.53.82-1.78,11.48-21.32,2.9-7.57,2.09-5.61,5.67-8.64,1.28-1.55.8-1,16.09-18.41L-324.1,417l.37-.41.65-.7,9.33-10.46,1.64-1.4,2.08-1.57,2-1.2,2.21-.95,3-1.19,1.22-.44,23-8.26,10.77-3.87,3.54-1.32L-210,365.14l14.93-5.78,8.62-3.34,10.06-3.87,10.11-4.68,9.18-6.31,6.56-4.44,2.94-1.68,4-1.76,6.12-2.24,22.18-5.69,65.4-27.61,5.37-3,5.93-5,3.88-3.63,9.43-10.3,2.68-5.85,2.75-4.77L-15,256l5.13-12.71,2.23-5,.21-.51L.24,218.57l1.43-3.7.34-1.4"/></g><g id="散岐"><path class="cls-3" d="M317.8,578.88l-2.56,1.28-1,.59-3.21,2.63-5.53,4.51-.59.42-1.61,1.23-2.41,2L296.31,595l-2,1.6-5,3.28-3.7,2.05-.27.15-5.47,2.84-5.68,2.3-3.17,1.08L266,609.71l-4.35,1.2-1.87.52-5.31,1.18-6.76,1.71-4.45,1.13-6.82,1.68-9.13,2.28-4,1-3.23.79-5.2,1.33-2.81.58-2.7.37-3.45,0-3.08-.1-2-.2-1.14-.12-.15,0L195.39,622l-5.62-1.43-6.22-1.46-2.59-.28-2.6-.09-2.87.27-11.58,1.37-9,1-12.59,2-2,.63-1.17.38-3,.75-3.06,1L119.28,633l-6,3-.61.31-13.33,6.48-1.44.63-12.27,5.39-.13,0-9.59,3.39-5.22,2-7.28,2.81-2.59,1.21-3,1.38-2.4,1.39-3.43,2-2.23,2-.27.24-2.09,1.53-.32.23-8.24,7.22-14,11.49-1.49-8.42M317.8,578.88l.33,4.08,1.26,9.39,2.84,21.49.94,8.22,1.24,10.81,1.07,8.69.93,7.55.38,9.56-.88,5.18-.81,2.1-2.59,2.28-2.79,1.7-3.3,1.27-6.35,1-3.34.56-4.14.52-2.79.84-1.91,1.2-1.79,1.46-2.16,1.9-4.59,4.58-12.41,14.38-11.13,11.46-2.52,2-2.3,2.09-3.25,3-2.44,3-1.35,2.3-1.12,3.91.08,4v1.3l.39,1.83,2.91,5.6,2.35,3.87,1.56,2.6,2.57,4.43,3.22,5.79,4.42,6.63,3.82,8.52,1.7,6.08.74,3.39,1.64,5.48,3.7,5.21,7.45,4.68,3.83,2.27,4.9,4.63,4.65,8.49,2.92,5.32,1.47,5.56-6.63,15.41-4.84,21.59.32,8.48.35,1.88.94,5,.84,5.14.68,4.83.43,4.39,1.29,7.18-.71,13,.16,1.46.2,1.8.52,3.3.33,1.78.19,1.68,6.49,4M317.8,578.88,329.49,569l9.83-8.31,5.25-4.41,1.25-1,9-7.19,4.45-3.55,6.35-5.06,1.7-1.31,3.36-2.62,16.88-13.15,6.57-4.17,6.44-3.35,3.48-2,10-5.31,15-8,2.44-1.18,30.27-16.58,1.42-.77,18.17-9.87,3.75-2,4.93-2.57,3.89-1.9,4.55-2.49,3.07-1.83,1.23-.73,5.55-2.32,4.31-1.49,2.54-.67,1.84-.49,4.39-1.16,12-3,6.37-1.83,5.44-1.34,3.58-.89,7.79-1.41,2.68-.26,6.75-.65,2.37-.32,8.56-1.17,11.09-1.16,4.81-.77,2.39-.38,4.3-1.41,3-1.59,1.34-.91,2.67-1.83,5.59-5.14,8-6.87,9.66-8.34,5.78-4.5,7.19-6.57,12.81-13.75,7.57-6.53,7-4.41,2.95-4.08,3.19-5.82,3.17-7.18,1.81-4.26,4.28-10.12,6.82-17,1.64-6,4.3-2.91,1.81-1.29.32-.24,2.56-1.46.41-.2,1.22-.52,1.5-.53,3-1.08,2.7-.53.28,0,3-.4h4.11l4.25.52h.11l5.07.94,4.75.94,3.4.9.24.08,1.11.36,3.69,1.11,1.93.59,3.92,1.86.42.2.35.16,4.43,2.59,4,2.58,2.52,1.89,7.61,5.72,2.31,1.73,1.7,1.35,1.3,1.86,2,1.4,4.87,2.07,12.85,4,2.86.55,1-4.37,1.59-4.35,1.66-4.53,1.66-4.35,1-4.71.34-2.24.67-5.61.35-3.72.86-1.18,1.35-9.39.06-.36,1.51-9.2,1.17-7.94.53-3.55.88-8.45.54-4.15-5.26-2.89-2.13-1-2.87-1.38-15-7-4.09-2.29-.76-.84L775,249.49l-4.64-6-2.66-2.89-.71-.76-2.13-2.25-17.3-12.28-1.13-1.07L742,220.55l-5.45-7.4-2.16-4.79-.63-5.13-1.55-12.63-.41-2.25-1.18-14-.12-.87-1.94-13.86-.31-2.22-.38-2.73,0-.26-.76-9-2.3-16-.51-4.13-.56-3.4-.88-6.41L722.2,109l-.06-.46-2.37-16.08-.44-3L717.27,74.2,716.61,65,715,48.86l-.84-13.94-.2-6,.26-2.31,1-2.51,1.58-2L718,20.4,720,18.66l1.58-1,1.79-1.11L734.85,12l5.83-2.27,4.57-1.92,2.45-1,3.12-3,1.5-4.24.21-1.67.18-1.45L752.62-7l-1-2.87-.87-2.41-.62-1.23L744-28.15l-.38-.9-2.14-5.89-.9-2.36-1-2.49-.23-.62,2.29-3.12c1.59-2.2,3.3-4.41,4.78-6.6.76-1.07,1.51-2.23,2.29-3.24l2.4-3.12,9.87-12.85c6.61-8.56,13-17.29,19.52-25.89L800-121.15l4.82-6.44c1.6-2.16,3.22-4.3,4.9-6.39l10.19-12.92,2.44-3.93c.75-1.22,1.51-2.43,2.31-3.59L827-158l2.32-3.31,2.84-3.42,5.45-8,3-6.13,2.33-6.68c.78-2.12,1.4-4.25,2.07-6.38s1.29-4.29,2-6.36l2.19-6.46c2.91-11.44,5.65-21.83,9.23-32.83l4.2-18,2.11-8.95,1.87-9.34,1.58-16.93.44-4.71-28.67-48.84-5-11.59-2.42-8.34c-.71-2.73-1.51-5.52-2-8.23l-1.78-8.17c-.31-1.36-.59-2.72-.84-4.09l-.83-4.36-1-10.42-.88-10.77,1.6-13.31,0-6.13,0-.36-.58-7.12-2-6.58-1.07-3.57-1.19-3.83L820.11-460c-.08-1.17-.2-2.39-.22-3.35l0-2.89c0-1.93-.06-3.85,0-5.78l.28-11.25.25-11.11.11-5.55,0-5.61c.19-15.16,1.53-30.16,2.48-44.91.23-3.69.54-7.39.71-11.07l.4-11.06.19-5.53,0-5.6.1-11.2"/><path class="cls-4" d="M317.8,578.88l-2.56,1.28-1,.59-3.21,2.63-5.53,4.51-.59.42-1.61,1.23-2.41,2L296.31,595l-2,1.6-5,3.28-3.7,2.05-.27.15-5.47,2.84-5.68,2.3-3.17,1.08L266,609.71l-4.35,1.2-1.87.52-5.31,1.18-6.76,1.71-4.45,1.13-6.82,1.68-9.13,2.28-4,1-3.23.79-5.2,1.33-2.81.58-2.7.37-3.45,0-3.08-.1-2-.2-1.14-.12-.15,0L195.39,622l-5.62-1.43-6.22-1.46-2.59-.28-2.6-.09-2.87.27-11.58,1.37-9,1-12.59,2-2,.63-1.17.38-3,.75-3.06,1L119.28,633l-6,3-.61.31-13.33,6.48-1.44.63-12.27,5.39-.13,0-9.59,3.39-5.22,2-7.28,2.81-2.59,1.21-3,1.38-2.4,1.39-3.43,2-2.23,2-.27.24-2.09,1.53-.32.23-8.24,7.22-14,11.49-1.49-8.42M317.8,578.88l.33,4.08,1.26,9.39,2.84,21.49.94,8.22,1.24,10.81,1.07,8.69.93,7.55.38,9.56-.88,5.18-.81,2.1-2.59,2.28-2.79,1.7-3.3,1.27-6.35,1-3.34.56-4.14.52-2.79.84-1.91,1.2-1.79,1.46-2.16,1.9-4.59,4.58-12.41,14.38-11.13,11.46-2.52,2-2.3,2.09-3.25,3-2.44,3-1.35,2.3-1.12,3.91.08,4v1.3l.39,1.83,2.91,5.6,2.35,3.87,1.56,2.6,2.57,4.43,3.22,5.79,4.42,6.63,3.82,8.52,1.7,6.08.74,3.39,1.64,5.48,3.7,5.21,7.45,4.68,3.83,2.27,4.9,4.63,4.65,8.49,2.92,5.32,1.47,5.56-6.63,15.41-4.84,21.59.32,8.48.35,1.88.94,5,.84,5.14.68,4.83.43,4.39,1.29,7.18-.71,13,.16,1.46.2,1.8.52,3.3.33,1.78.19,1.68,6.49,4M317.8,578.88,329.49,569l9.83-8.31,5.25-4.41,1.25-1,9-7.19,4.45-3.55,6.35-5.06,1.7-1.31,3.36-2.62,16.88-13.15,6.57-4.17,6.44-3.35,3.48-2,10-5.31,15-8,2.44-1.18,30.27-16.58,1.42-.77,18.17-9.87,3.75-2,4.93-2.57,3.89-1.9,4.55-2.49,3.07-1.83,1.23-.73,5.55-2.32,4.31-1.49,2.54-.67,1.84-.49,4.39-1.16,12-3,6.37-1.83,5.44-1.34,3.58-.89,7.79-1.41,2.68-.26,6.75-.65,2.37-.32,8.56-1.17,11.09-1.16,4.81-.77,2.39-.38,4.3-1.41,3-1.59,1.34-.91,2.67-1.83,5.59-5.14,8-6.87,9.66-8.34,5.78-4.5,7.19-6.57,12.81-13.75,7.57-6.53,7-4.41,2.95-4.08,3.19-5.82,3.17-7.18,1.81-4.26,4.28-10.12,6.82-17,1.64-6,4.3-2.91,1.81-1.29.32-.24,2.56-1.46.41-.2,1.22-.52,1.5-.53,3-1.08,2.7-.53.28,0,3-.4h4.11l4.25.52h.11l5.07.94,4.75.94,3.4.9.24.08,1.11.36,3.69,1.11,1.93.59,3.92,1.86.42.2.35.16,4.43,2.59,4,2.58,2.52,1.89,7.61,5.72,2.31,1.73,1.7,1.35,1.3,1.86,2,1.4,4.87,2.07,12.85,4,2.86.55,1-4.37,1.59-4.35,1.66-4.53,1.66-4.35,1-4.71.34-2.24.67-5.61.35-3.72.86-1.18,1.35-9.39.06-.36,1.51-9.2,1.17-7.94.53-3.55.88-8.45.54-4.15-5.26-2.89-2.13-1-2.87-1.38-15-7-4.09-2.29-.76-.84L775,249.49l-4.64-6-2.66-2.89-.71-.76-2.13-2.25-17.3-12.28-1.13-1.07L742,220.55l-5.45-7.4-2.16-4.79-.63-5.13-1.55-12.63-.41-2.25-1.18-14-.12-.87-1.94-13.86-.31-2.22-.38-2.73,0-.26-.76-9-2.3-16-.51-4.13-.56-3.4-.88-6.41L722.2,109l-.06-.46-2.37-16.08-.44-3L717.27,74.2,716.61,65,715,48.86l-.84-13.94-.2-6,.26-2.31,1-2.51,1.58-2L718,20.4,720,18.66l1.58-1,1.79-1.11L734.85,12l5.83-2.27,4.57-1.92,2.45-1,3.12-3,1.5-4.24.21-1.67.18-1.45L752.62-7l-1-2.87-.87-2.41-.62-1.23L744-28.15l-.38-.9-2.14-5.89-.9-2.36-1-2.49-.23-.62,2.29-3.12c1.59-2.2,3.3-4.41,4.78-6.6.76-1.07,1.51-2.23,2.29-3.24l2.4-3.12,9.87-12.85c6.61-8.56,13-17.29,19.52-25.89L800-121.15l4.82-6.44c1.6-2.16,3.22-4.3,4.9-6.39l10.19-12.92,2.44-3.93c.75-1.22,1.51-2.43,2.31-3.59L827-158l2.32-3.31,2.84-3.42,5.45-8,3-6.13,2.33-6.68c.78-2.12,1.4-4.25,2.07-6.38s1.29-4.29,2-6.36l2.19-6.46c2.91-11.44,5.65-21.83,9.23-32.83l4.2-18,2.11-8.95,1.87-9.34,1.58-16.93.44-4.71-28.67-48.84-5-11.59-2.42-8.34c-.71-2.73-1.51-5.52-2-8.23l-1.78-8.17c-.31-1.36-.59-2.72-.84-4.09l-.83-4.36-1-10.42-.88-10.77,1.6-13.31,0-6.13,0-.36-.58-7.12-2-6.58-1.07-3.57-1.19-3.83L820.11-460c-.08-1.17-.2-2.39-.22-3.35l0-2.89c0-1.93-.06-3.85,0-5.78l.28-11.25.25-11.11.11-5.55,0-5.61c.19-15.16,1.53-30.16,2.48-44.91.23-3.69.54-7.39.71-11.07l.4-11.06.19-5.53,0-5.6.1-11.2"/></g><g id="快速幹"><path class="cls-3" d="M982-1038.76l-1.37-4.43L981-1052l-2.29-14-13.88-55.4-14.11-57.87-4-13.3-1.79-2.66-2.25-6.19-9.06-29.78-7.38-30.68-3.39-16-1.29-5-.39-3.59L921-1290l-.56-7.34.12-4.5.39-2.53,1.77-9.93,1.88-5.65,2.58-6.19,4.79-8.07m4.24,47.63-14.64,3.7-3.66.85-10,2.08-2.85.66,3.48,14.92m8.72,2585.53-8.27,9.3-8.28,9.26-7.66,8.5-25.23,39.44M896.61-781,922-820.13l3.76-5.93c.63-1,1.27-2,1.91-2.91l2.54-3.81,1.25-5.49,1.31-8.59.53-3.52.16-1c0-.18.14-.28.25-.39l.36-.34s.56-8.76,1.61-9.65l-.06-6.1,0-6.2.26-6.31.52-6,.88-6.26,1.08-6.93,1.71-7.87,1.81-5.48,1.92-5.17,2.06-4.87L953-937.45l8.08-16.37L969.75-972l5.64-14.16,2.14-10.64,2.28-16.43,1-11.94,1.08-12.23.12-1.35,1.68-3.9.78-6.3,2.11-15.64-.2-3.46-6-25.19-7-30.34L958.65-1181l-5.57-25.8-.3-7.87-3.46-18.22-.52-2-6-24.72-.54-2.18-6.06-24.81-1.74-5.39-1.54-6.93-1.08-9.79-.57-7.55.23-9.39,0-2.06.44-6.52m0,0,6.82-19.51,4-9.3,3.37-6.28,8.89-13.4,7.36-7.89,5.12-4.71,39.52-28,10.12-9,6.5-7.13,4.87-6.24,4.12-5.5,5.13-10,2.12-4.25,3-8.57,3.74-16.17,9.52-67.76,1.73-10.32,3.81-12.14,4.66-13,17.63-36.93,2.84-4.63,24.23-36.46,9.92-15.47,6.94-12.7,8-15.66,4.69-10.61,4.11-11.46,2.12-6.38-.76-19.35.45-1.54,2.91-14.06,2.85-14.28,1.36-7.08,1.17-7.19,2.28-14,.17-5c0-1.79.26-3.6.39-5.4s.27-3.63.49-5.38l.71-5.22,2.78-20.68.27-4.46.33-4.63c.22-3.08.48-6.16.61-9.24l.94-18.49.39-9.12c.11-1.5.05-3.06,0-4.61s-.08-3.09-.06-4.65l.4-9.39c.14-3.14.17-6.17.26-9.26.19-6.15.23-12.32.32-18.47l.11-9.24.06-4.62c0-1.54-.07-3.09-.1-4.63l-.13-4.63v-14l-.38-18.47-.2-9.23-.1-4.62,0-2.31-.17-2.29-1.37-18.3-4.22-37c-.11-3.12-.52-6.16-.85-9.23l-1-9.2-2.05-18.38-1-9.3-.53-4.67c-.16-1.56-.21-3.12-.33-4.67l-1.21-19.45,1.16-5.76.12-5.1c0-1.88.08-3.76.19-5.61l.28-5.59c0-.93.09-1.85.11-2.77l.1-3,.3-2.57.25-2.36c.15-1.57.4-3.24.6-4.85l.33-2.44.44-2.38.92-5,1.17-4.35.56-2.06.54-2.16c.32-1.45.79-2.86,1.24-4.28l1.4-4.43,4.13-9.91c.67-1.61,1.5-3.16,2.24-4.74l2.42-5,8.25-13.38,2-3.28,2.17-3.22c1.45-2.15,2.78-4.26,4.17-6.38l8.29-12.73c1.36-2.13,2.84-4.23,4-6.4l3.6-6.35,1.64-3.6c.58-1.28,1.19-2.54,1.71-3.85l3.1-7.55,3.45-11.62,1.52-8.91.39-2.31c.06-.35.12-.6.16-1l.13-1.12.5-4.51.51-4.51c0-1.45.19-2.75.16-4.31l-.08-8.92-1.19-10.42c-.53-3.59-1.1-7.19-1.43-10.8s-.71-7.25-1.23-10.78-1-7-1.62-10.6l-3.58-21.54c-.66-3.57-1-7.33-1.49-11-.19-1.85-.53-3.68-.59-5.55l-.34-5.87.68-16.84,1.11-9.9.91-4.36c.3-1.35.55-2.72.9-4.07l2-8.09,2-8.09c.66-2.69,1.48-5.29,2.21-7.94l1.47-5.14-1.74-44.83.63-2.48,1-3.29,1-3.29,1-3,2-5.92,4.05-11.83,2-5.92,2.14-5.86,8.45-23,2.08-5.7,1.9-5.84c1.2-3.88,2.7-7.8,4.1-11.72l16.79-46.45c2.82-7.72,5.42-15.24,8.13-23.13,1.34-3.9,2.67-7.8,4.09-11.69l3.79-10.56,1.37-6.47,1.49-7.69,1.51-7.82.77-4,.79-3.88,1.57-7.75c.53-2.59,1.07-5.15,1.52-7.83s.9-5.34,1.46-7.93,1-5.16,1.47-7.74l1.35-7.72,1.41-7.84,1.47-8,1.55-7.79,1.56-7.78c.52-2.58.94-5.36,1.42-8s.85-5.38,1.59-8.12l2.13-8.85,2.9-8.87,7.77-11.42,11.47-13.88M1181.9,563.93,1180.8,553v-7.16l-.23-7.42-.42-14.7-.2-7.35-.1-3.68-.07-1.93-.11-1.85-.44-7.42-.54-7.54c-.18-2.51-.73-4.87-.87-7.33l-.53-7.34-.54-7.33c0-1.22-.26-2.46-.43-3.68l-.53-3.69-2.09-14.75c-.36-2.46-.64-4.93-1.17-7.36l-1.53-7.85-4.12-10.52-4.14-8.71c-.66-1.43-1.41-2.82-2.11-4.24l-2.4-4.75-13.44-16.88c-2.38-2.68-4.73-5.49-7.18-7.93s-4.92-5.07-7.19-7.53c-4.62-5-9.18-10.25-13.78-15.37l-6.78-7.9-7.24-8.12-8.61-7.29-4.17-3.53-4.29-3.5L1068.36,315l-34.28-27.14-11.74-7.35-4.63-1.38c-1.3-.39-2.59-.78-3.89-1.11l-7.4-2-16.57-6.85-12.2-6.25c-4.11-2.14-8.35-4.21-12.34-6.4l-5.92-3.3c-1.95-1.16-3.83-2.46-5.75-3.68s-3.83-2.47-5.76-3.79l-5.13-3.47-2-2.24c-.82-.93-1.64-1.88-2.55-2.85l-1.32-1.45-1.33-1.32-2.65-2.62-10.81-10.66L913,213.61l-10-6.3-13.76-10.54-7.57-11.56M1181.9,563.93l.46,13.8-.28,6.52c-.06,1.06-.06,2.09-.18,3.17l-.3,3.58-1.13,5.09-.52,2.35-.63,2.28-2.55,9.13-5.09,18.25-2.55,9.17c-.45,1.54-.83,3.11-1.33,4.62l-1.5,4.5-6.12,18.36-4.47,9.25-7.53,11.82-2.87,6.13-1.45,5.72L1142.4,704l-2.84,12.42-.94,6.35c-.35,2.19-.6,4.39-1.09,6.56-.91,4.35-1.72,8.71-2.72,13.06-.5,2.16-.93,4.38-1.5,6.5l-1.71,6.37-3.35,12.48-3.49,20-2.56,10.09-2.94,7.23-2.8,4.1-2.49,3.53-5.23,7.42-7.55,7.84-7.57,5.35c-1.2.83-2.48,1.55-3.71,2.34l-4.09,2.52-4.46,1.89-4,1.64c-2.67,1.1-5.26,2.26-7.92,3.41l-7.92,3.49-7.57,3.53-3.38,2-2.09,1.68-6.16,7.34-5.14,8.85-5.52,9.3c-3.58,6.32-7.68,12.12-11.58,18.11-2,2.94-3.78,6-5.6,9.07l-5.43,9.16-5.47,9.22L998,936c-7.22,12.32-15.26,24.45-22.8,36.29l-5.37,9.22c-2,3.1-3.81,6.39-6,9.24-4.28,5.89-7.47,21.12-7.47,21.12l-16.29,23-8.15,11.51-2,2.87a2.41,2.41,0,0,0-.3.46l-.56,1.11-2.78,5.51-.62,1.89-.43,1.28-.41,1.63-1.4,4-1.91,9-.48,8.37.33,7.89,1.19,9.45,2.19,7.24,4.36,7.48,12,16.81,6.18,8.68,3,4.82,3.2,5.25,4.66,11.09,3.29,10,1.55,4.79,1.69,5.36,2.07,9.84,1,12.07.09,15.1-3,21.33-2.35,10.86c-.41,1.74-.69,3.47-1.2,5.24l-1.62,6-3.16,7.77-3.75,6.24c-1.06,1.84-2.33,3.66-3.53,5.49s-2.37,3.71-3.67,5.43l-3.86,5.2c-2.53,3.53-5.25,6.79-7.92,10.12-1.35,1.64-2.66,3.36-4,4.93l-4.11,4.75c-2.75,3.16-5.48,6.37-8.24,9.48M896.61-781l-1.22,3.24c-.4,1.07-.95,2.19-1.42,3.28s-1.06,2.16-1.59,3.24-1.09,2-1.63,2.94l-6.54,11.57-6.53,11.57-3.23,5.73-1.55,2.81-1.46,3c-3.79,7.91-8.07,15.62-12.13,23.42l-5.53,11.8c-1,2-1.77,3.92-2.59,5.87-.39,1-.86,1.95-1.2,2.94l-1.18,3.25-2.33,4.94c-1.35,4.1-3.28,10-4.78,14.13l-1.25,5.51-.35,3.52c-.07,1.32-.09,2.66-.14,4l-.26,8.66-1.76,7.12-.59,10.55-.42,11.13,10.86,22.62-.1,11.08-.05,5.55-.19,5.72L847-560.34c-.17,3.82-.49,7.58-.73,11.37l-1.52,22.27c-.29,3.72-.39,7.2-.59,10.8l-.32,10.65,0,5.53-.11,5.67-.26,11.34-.27,10.94c0,1.66,0,3.32,0,5l0,2.49c0,.23,0,.43,0,.5l0,.31,0,.31,1.26,6.2.87,2.82,1.09,3.64,2.68,9,.83,10.08v9.36l-1.47,12.28.67,8.22.89,9.17.6,3.12c.23,1.3.5,2.59.79,3.87l1.67,7.68c.53,2.66,1.18,4.86,1.81,7.29l1.92,6.63,3.88,9,22.64,38.55c1.25.31,2.49.61,3.74.89L906.57-311l21.27,4.83-1.29,5.71-4.47,19.63-1.86,10-.47,2.5-.61,2.48-1.24,4.95c-3.34,13.18-6.36,26.51-10.28,39.42l-11.18,39L891-162.86c-.85,3.28-1.93,6.5-3,9.74l-3.11,9.71L878.7-124l-3.55,9.61c-1.2,3.19-2.37,6.43-3.62,9.54L864.09-86l-1.85,4.7c-.6,1.57-1.14,3.16-1.71,4.74l-3.39,9.48c-2.25,6.33-4.56,12.61-6.67,19.07l-3.24,9.62c-.55,1.6-1.07,3.21-1.64,4.8l-1.8,4.74-3.59,9.47c-1.08,3.1-2.16,6.18-3,9.24L832.25,9.09l-1.59,8.79-.68,7.2-.75,7.35c-.21,2.43-.34,4.87-.51,7.3l-.46,7.07.4,7c.1,2.47.46,4.84.67,7.27s.39,4.82.88,7.23l1.18,7,1.86,7.43c.67,2.55,1.06,5.08,1.61,7.62s1.18,5,1.78,7.5l1.82,7.21,6.45,18.61L851.77,138l7.05,11.79,3.59,6,3.84,5.88,15.4,23.51"/><path class="cls-6" d="M982-1038.76l-1.37-4.43L981-1052l-2.29-14-13.88-55.4-14.11-57.87-4-13.3-1.79-2.66-2.25-6.19-9.06-29.78-7.38-30.68-3.39-16-1.29-5-.39-3.59L921-1290l-.56-7.34.12-4.5.39-2.53,1.77-9.93,1.88-5.65,2.58-6.19,4.79-8.07m4.24,47.63-14.64,3.7-3.66.85-10,2.08-2.85.66,3.48,14.92m8.72,2585.53-8.27,9.3-8.28,9.26-7.66,8.5-25.23,39.44M896.61-781,922-820.13l3.76-5.93c.63-1,1.27-2,1.91-2.91l2.54-3.81,1.25-5.49,1.31-8.59.53-3.52.16-1c0-.18.14-.28.25-.39l.36-.34s.56-8.76,1.61-9.65l-.06-6.1,0-6.2.26-6.31.52-6,.88-6.26,1.08-6.93,1.71-7.87,1.81-5.48,1.92-5.17,2.06-4.87L953-937.45l8.08-16.37L969.75-972l5.64-14.16,2.14-10.64,2.28-16.43,1-11.94,1.08-12.23.12-1.35,1.68-3.9.78-6.3,2.11-15.64-.2-3.46-6-25.19-7-30.34L958.65-1181l-5.57-25.8-.3-7.87-3.46-18.22-.52-2-6-24.72-.54-2.18-6.06-24.81-1.74-5.39-1.54-6.93-1.08-9.79-.57-7.55.23-9.39,0-2.06.44-6.52m0,0,6.82-19.51,4-9.3,3.37-6.28,8.89-13.4,7.36-7.89,5.12-4.71,39.52-28,10.12-9,6.5-7.13,4.87-6.24,4.12-5.5,5.13-10,2.12-4.25,3-8.57,3.74-16.17,9.52-67.76,1.73-10.32,3.81-12.14,4.66-13,17.63-36.93,2.84-4.63,24.23-36.46,9.92-15.47,6.94-12.7,8-15.66,4.69-10.61,4.11-11.46,2.12-6.38-.76-19.35.45-1.54,2.91-14.06,2.85-14.28,1.36-7.08,1.17-7.19,2.28-14,.17-5c0-1.79.26-3.6.39-5.4s.27-3.63.49-5.38l.71-5.22,2.78-20.68.27-4.46.33-4.63c.22-3.08.48-6.16.61-9.24l.94-18.49.39-9.12c.11-1.5.05-3.06,0-4.61s-.08-3.09-.06-4.65l.4-9.39c.14-3.14.17-6.17.26-9.26.19-6.15.23-12.32.32-18.47l.11-9.24.06-4.62c0-1.54-.07-3.09-.1-4.63l-.13-4.63v-14l-.38-18.47-.2-9.23-.1-4.62,0-2.31-.17-2.29-1.37-18.3-4.22-37c-.11-3.12-.52-6.16-.85-9.23l-1-9.2-2.05-18.38-1-9.3-.53-4.67c-.16-1.56-.21-3.12-.33-4.67l-1.21-19.45,1.16-5.76.12-5.1c0-1.88.08-3.76.19-5.61l.28-5.59c0-.93.09-1.85.11-2.77l.1-3,.3-2.57.25-2.36c.15-1.57.4-3.24.6-4.85l.33-2.44.44-2.38.92-5,1.17-4.35.56-2.06.54-2.16c.32-1.45.79-2.86,1.24-4.28l1.4-4.43,4.13-9.91c.67-1.61,1.5-3.16,2.24-4.74l2.42-5,8.25-13.38,2-3.28,2.17-3.22c1.45-2.15,2.78-4.26,4.17-6.38l8.29-12.73c1.36-2.13,2.84-4.23,4-6.4l3.6-6.35,1.64-3.6c.58-1.28,1.19-2.54,1.71-3.85l3.1-7.55,3.45-11.62,1.52-8.91.39-2.31c.06-.35.12-.6.16-1l.13-1.12.5-4.51.51-4.51c0-1.45.19-2.75.16-4.31l-.08-8.92-1.19-10.42c-.53-3.59-1.1-7.19-1.43-10.8s-.71-7.25-1.23-10.78-1-7-1.62-10.6l-3.58-21.54c-.66-3.57-1-7.33-1.49-11-.19-1.85-.53-3.68-.59-5.55l-.34-5.87.68-16.84,1.11-9.9.91-4.36c.3-1.35.55-2.72.9-4.07l2-8.09,2-8.09c.66-2.69,1.48-5.29,2.21-7.94l1.47-5.14-1.74-44.83.63-2.48,1-3.29,1-3.29,1-3,2-5.92,4.05-11.83,2-5.92,2.14-5.86,8.45-23,2.08-5.7,1.9-5.84c1.2-3.88,2.7-7.8,4.1-11.72l16.79-46.45c2.82-7.72,5.42-15.24,8.13-23.13,1.34-3.9,2.67-7.8,4.09-11.69l3.79-10.56,1.37-6.47,1.49-7.69,1.51-7.82.77-4,.79-3.88,1.57-7.75c.53-2.59,1.07-5.15,1.52-7.83s.9-5.34,1.46-7.93,1-5.16,1.47-7.74l1.35-7.72,1.41-7.84,1.47-8,1.55-7.79,1.56-7.78c.52-2.58.94-5.36,1.42-8s.85-5.38,1.59-8.12l2.13-8.85,2.9-8.87,7.77-11.42,11.47-13.88M1181.9,563.93,1180.8,553v-7.16l-.23-7.42-.42-14.7-.2-7.35-.1-3.68-.07-1.93-.11-1.85-.44-7.42-.54-7.54c-.18-2.51-.73-4.87-.87-7.33l-.53-7.34-.54-7.33c0-1.22-.26-2.46-.43-3.68l-.53-3.69-2.09-14.75c-.36-2.46-.64-4.93-1.17-7.36l-1.53-7.85-4.12-10.52-4.14-8.71c-.66-1.43-1.41-2.82-2.11-4.24l-2.4-4.75-13.44-16.88c-2.38-2.68-4.73-5.49-7.18-7.93s-4.92-5.07-7.19-7.53c-4.62-5-9.18-10.25-13.78-15.37l-6.78-7.9-7.24-8.12-8.61-7.29-4.17-3.53-4.29-3.5L1068.36,315l-34.28-27.14-11.74-7.35-4.63-1.38c-1.3-.39-2.59-.78-3.89-1.11l-7.4-2-16.57-6.85-12.2-6.25c-4.11-2.14-8.35-4.21-12.34-6.4l-5.92-3.3c-1.95-1.16-3.83-2.46-5.75-3.68s-3.83-2.47-5.76-3.79l-5.13-3.47-2-2.24c-.82-.93-1.64-1.88-2.55-2.85l-1.32-1.45-1.33-1.32-2.65-2.62-10.81-10.66L913,213.61l-10-6.3-13.76-10.54-7.57-11.56M1181.9,563.93l.46,13.8-.28,6.52c-.06,1.06-.06,2.09-.18,3.17l-.3,3.58-1.13,5.09-.52,2.35-.63,2.28-2.55,9.13-5.09,18.25-2.55,9.17c-.45,1.54-.83,3.11-1.33,4.62l-1.5,4.5-6.12,18.36-4.47,9.25-7.53,11.82-2.87,6.13-1.45,5.72L1142.4,704l-2.84,12.42-.94,6.35c-.35,2.19-.6,4.39-1.09,6.56-.91,4.35-1.72,8.71-2.72,13.06-.5,2.16-.93,4.38-1.5,6.5l-1.71,6.37-3.35,12.48-3.49,20-2.56,10.09-2.94,7.23-2.8,4.1-2.49,3.53-5.23,7.42-7.55,7.84-7.57,5.35c-1.2.83-2.48,1.55-3.71,2.34l-4.09,2.52-4.46,1.89-4,1.64c-2.67,1.1-5.26,2.26-7.92,3.41l-7.92,3.49-7.57,3.53-3.38,2-2.09,1.68-6.16,7.34-5.14,8.85-5.52,9.3c-3.58,6.32-7.68,12.12-11.58,18.11-2,2.94-3.78,6-5.6,9.07l-5.43,9.16-5.47,9.22L998,936c-7.22,12.32-15.26,24.45-22.8,36.29l-5.37,9.22c-2,3.1-3.81,6.39-6,9.24-4.28,5.89-7.47,21.12-7.47,21.12l-16.29,23-8.15,11.51-2,2.87a2.41,2.41,0,0,0-.3.46l-.56,1.11-2.78,5.51-.62,1.89-.43,1.28-.41,1.63-1.4,4-1.91,9-.48,8.37.33,7.89,1.19,9.45,2.19,7.24,4.36,7.48,12,16.81,6.18,8.68,3,4.82,3.2,5.25,4.66,11.09,3.29,10,1.55,4.79,1.69,5.36,2.07,9.84,1,12.07.09,15.1-3,21.33-2.35,10.86c-.41,1.74-.69,3.47-1.2,5.24l-1.62,6-3.16,7.77-3.75,6.24c-1.06,1.84-2.33,3.66-3.53,5.49s-2.37,3.71-3.67,5.43l-3.86,5.2c-2.53,3.53-5.25,6.79-7.92,10.12-1.35,1.64-2.66,3.36-4,4.93l-4.11,4.75c-2.75,3.16-5.48,6.37-8.24,9.48M896.61-781l-1.22,3.24c-.4,1.07-.95,2.19-1.42,3.28s-1.06,2.16-1.59,3.24-1.09,2-1.63,2.94l-6.54,11.57-6.53,11.57-3.23,5.73-1.55,2.81-1.46,3c-3.79,7.91-8.07,15.62-12.13,23.42l-5.53,11.8c-1,2-1.77,3.92-2.59,5.87-.39,1-.86,1.95-1.2,2.94l-1.18,3.25-2.33,4.94c-1.35,4.1-3.28,10-4.78,14.13l-1.25,5.51-.35,3.52c-.07,1.32-.09,2.66-.14,4l-.26,8.66-1.76,7.12-.59,10.55-.42,11.13,10.86,22.62-.1,11.08-.05,5.55-.19,5.72L847-560.34c-.17,3.82-.49,7.58-.73,11.37l-1.52,22.27c-.29,3.72-.39,7.2-.59,10.8l-.32,10.65,0,5.53-.11,5.67-.26,11.34-.27,10.94c0,1.66,0,3.32,0,5l0,2.49c0,.23,0,.43,0,.5l0,.31,0,.31,1.26,6.2.87,2.82,1.09,3.64,2.68,9,.83,10.08v9.36l-1.47,12.28.67,8.22.89,9.17.6,3.12c.23,1.3.5,2.59.79,3.87l1.67,7.68c.53,2.66,1.18,4.86,1.81,7.29l1.92,6.63,3.88,9,22.64,38.55c1.25.31,2.49.61,3.74.89L906.57-311l21.27,4.83-1.29,5.71-4.47,19.63-1.86,10-.47,2.5-.61,2.48-1.24,4.95c-3.34,13.18-6.36,26.51-10.28,39.42l-11.18,39L891-162.86c-.85,3.28-1.93,6.5-3,9.74l-3.11,9.71L878.7-124l-3.55,9.61c-1.2,3.19-2.37,6.43-3.62,9.54L864.09-86l-1.85,4.7c-.6,1.57-1.14,3.16-1.71,4.74l-3.39,9.48c-2.25,6.33-4.56,12.61-6.67,19.07l-3.24,9.62c-.55,1.6-1.07,3.21-1.64,4.8l-1.8,4.74-3.59,9.47c-1.08,3.1-2.16,6.18-3,9.24L832.25,9.09l-1.59,8.79-.68,7.2-.75,7.35c-.21,2.43-.34,4.87-.51,7.3l-.46,7.07.4,7c.1,2.47.46,4.84.67,7.27s.39,4.82.88,7.23l1.18,7,1.86,7.43c.67,2.55,1.06,5.08,1.61,7.62s1.18,5,1.78,7.5l1.82,7.21,6.45,18.61L851.77,138l7.05,11.79,3.59,6,3.84,5.88,15.4,23.51"/></g><g id="普通幹"><path class="cls-3" d="M922.47-856.68l-1.4-4.93-.1-12.68.31-7.3.61-6.86.91-6.47,1.24-7.79,1.88-8.61,2.22-6.71,2.17-5.81,2.41-5.62,15.17-30.76,8.43-17.67,5-12.47,1.79-8.9,2.16-15.58.93-11.51,1-10.82-1.27-4.12.43-9.87L964.34-1063l-13.73-54.81-14-57.57,36.34-8.94,14.68,57.48,7,30.33,6.29,26.34.36,6.17-2.29,17-1,8.3-1.58,3.67-1,11.21-1,12.67-2.44,17.32L989.49-982,983-965.7l-8.77,18.36-15,30.46-1.78,4.18-1.7,4.6-1.49,4.5-1.45,6.69-1,6.4L951-885M1217.85-2425.6l10.46,2.9,8.35,2.31,6.41,1.71,3.58,1,2.32.75,5.26,2,6.3,2.66,8.91,3.77,3.66,1.46,10.11,3.8,7.58,2.27,6.59,2,7.79,2,6.52,1.43,4.49.66,3.85,0h6.77l16.49-.11h17.92l10.7-.12,9.93-.06.16-1.71,2.87-31.19.36-3.9c.12-1.31.2-2.54.45-4.06l3.52-13.34-18.46-12.48L1351-2475.06l-2.65-3-3.11-2.17-4-2.7-8.75-5.76-4.2-2.76-4.28-2.62-8.32-5.07-7.78-3.6-8.65-3.43-8.54-3.15-8.51-3L1268.4-2516l-3.2-.81-3.6-.76-7.28-1.54-14.55-3.09-7.31-1.55-3.17-.6-2.82-.5m0,0,.68,17.57-1.92,6.72c-.73,2.64-1.56,5.27-2.2,7.91l-1.92,7.92-1.91,7.91c-.34,1.32-.58,2.65-.87,4l-.78,3.71-1,8.93-.65,15.85.29,5c0,1.76.38,3.5.56,5.26.37,2.83.66,5.64,1.09,8.49M1332-2884.46l-10.61,12.83-6.53,9.6-2.24,6.85-1.95,8.12c-.71,2.62-1.08,5.28-1.55,7.92s-.88,5.32-1.4,7.91l-1.57,7.81-1.55,7.81-1.45,7.89c-1,5.28-1.85,10.44-2.78,15.66-.47,2.6-.87,5.21-1.48,7.8s-1,5.25-1.45,7.87c-.92,5.27-2.07,10.42-3.1,15.63-.53,2.58-1,5.21-1.55,7.84l-1.51,7.82-1.52,7.79-1.55,7.36-4,11.25c-1.41,3.87-2.74,7.76-4.08,11.65-2.68,7.81-5.34,15.49-8.15,23.21l-16.77,46.38c-1.39,3.88-2.87,7.75-4.08,11.66l-1.9,5.85-2.1,5.76-8.48,23.09-2.12,5.82-2,5.85-4,11.72-2,5.86-1,2.93-1,3.05-1,3.06-.13.52,1.06,27.45M951-885l21.16-17.37,50.47-68.21,7.94-9.86,21.57-32.81,6.4-9.66,6.55-11.11,3.84-7.27,6.1-12.88,5.61-14.67,3.35-11.57,1.82-8.67,1.62-8.66,1.06-9.3.32-7.85.08-7.66-.74-10.25-1.05-9.84-3-14-1.91-6.68-3.61-10.29-5.14-12.58-8.24-15.54-3.92-9.3,3.55-1.91,50.37-24.19,3.66-1.79-3.42-7.16-4.57-8.27-9.6-20L1077-1320.69l-20.81-39.81-6.75-14.7-1.93-5.58-5.43-16.52-3.93-12.65-3.52-13.39-.78-5.55-.06-2.83.52-6.54,1.07-7.33,1-4,1.86-5.14,3.38-7.73,2.72-5.5,1-2.06,2.78-4.77,4-6.93,2.14-1.29,1-1.66,6.62-11.3,7.74-13.21,1.29-2.22,9.66-16.34,50.93-83.67,27.24-45.74,2.73-4.48,3.82-7.39.81-2.57.21-1,.78-6.36,1.06-9.5.1-6.47-1.51-13.12-2.52-12.11-1.22-8.22-1.4-12.33,0-7.06.6-11.86-4.88-.82.39-1.32,3-14.57,2.88-14.39,1.39-7.27,1.18-7.24,2.41-14.85.19-5.49c0-1.72.25-3.37.37-5.06s.24-3.35.46-5.06l.7-5.17,2.81-20.88.3-4.82.33-4.65c.22-3.1.48-6.19.61-9.3l.94-18.64.41-9.46c.11-1.59.05-3.13,0-4.68s-.08-3.1-.07-4.64l.4-9.18c.14-3.05.18-6.22.27-9.32.19-6.24.23-12.47.32-18.7l.11-9.35.06-4.68c0-1.55-.07-3.11-.1-4.66l-.13-4.67v-13.92l-.38-18.69-.21-9.36-.1-4.68-.06-2.33-.17-2.35-1.4-18.78-4.21-36.87c-.11-3.08-.52-6.18-.86-9.28l-1-9.28-2.06-18.56-1-9.18-.52-4.56c-.17-1.52-.22-3.07-.33-4.6l-1.1-17.66,1.07-5.26.14-6.05c0-1.84.07-3.68.18-5.53l.28-5.56c0-.92.09-1.85.11-2.79l.09-2.57.25-2.14.25-2.34c.15-1.58.37-3,.55-4.54l.3-2.26.43-2.27.8-4.32,1.07-4,.57-2.1.5-2a39.55,39.55,0,0,1,1.16-4l1.19-3.78,3.81-9.14c.64-1.57,1.45-3.05,2.17-4.58l2.08-4.3,7.83-12.71,2-3.24,2.11-3.13c1.4-2.08,2.81-4.3,4.21-6.44l8.43-13c1.39-2.17,2.86-4.26,4.11-6.6l4-7,1.91-4.17c.6-1.32,1.23-2.63,1.76-4l3.41-8.28,3.82-12.87,1.63-9.59.39-2.31c.07-.42.17-.93.22-1.33l.13-1.2.55-4.82.53-4.81c.07-1.67.23-3.49.2-5.06l-.09-9.84-1.28-11.21c-.52-3.58-1.09-7.15-1.42-10.77s-.71-7.19-1.24-10.84-1-7.35-1.67-10.91l-3.56-21.41c-.13-.69-.23-1.38-.34-2.06M1519.1,3466.84l-2.86,2.61-7.48,7.14-.42.39-12.14,11.4-.37.34-8.33,10.52-2,2.83-1.19,1.61-1.5,2.23-4.14,6.15-7.19,10.51-.34.42-1.61,1.36-1.13,1-1.6,1.14-2,1.08-2.13,1-1.61.59-2.65.59-1,.21-2.17.43-2.73.3-4.65.51-6.47.73-.93.21-21.68,2.38.49,3.35,4.78,32.72M1170.2,564.71l.43,13-.25,5.9c-.06,1-.06,2.06-.17,3l-.22,2.61-.92,4.13-.5,2.25-.62,2.26-2.52,9-5,18.09-2.51,9c-.43,1.48-.78,3-1.28,4.45l-1.48,4.44-5.81,17.44-3.84,8-7.58,11.87-3.66,7.84-1.75,6.91-1.47,6.37-3,13-1,6.61c-.33,2.13-.57,4.28-1,6.37-.88,4.19-1.67,8.43-2.63,12.59-.48,2.09-.87,4.17-1.44,6.27l-1.68,6.28-3.45,12.83-3.51,20.11-2.25,8.87-2.17,5.33-2,3-2.47,3.5-4.68,6.63-6.16,6.4-6.39,4.52c-1.14.79-2.35,1.47-3.52,2.22l-3.19,2-3.57,1.51-4,1.66c-2.7,1.11-5.42,2.33-8.09,3.48l-8,3.55-8.23,3.84-4.56,2.71-3.64,2.91-7.56,9-5.62,9.67-5.41,9.12c-3.47,6.13-7.61,12-11.51,18-2,2.93-3.8,6.06-5.65,9.15L999,911.6l-5.45,9.2-5.6,9.12c-7.22,12.33-15,24-22.78,36.26l-5.41,9.29c-1.87,2.92-3.49,5.9-5.65,8.74-4.14,5.66-7.33,20.9-7.33,20.9l-16.29,23c-5.29,7.75-11.41,15-15.11,23.73l-1,2.92-.48,1.46-.38,1.49-1.49,4.19-2.25,10.62-.57,9.84.39,9,1.36,10.91,2.88,9.52,5.33,9.12L931.35,1138l6.07,8.53,5.48,8.94,4.14,9.85c2.08,6.32,4.2,12.63,6.17,19l1.8,8.57.91,10.9.09,13.78-2.86,20c-1.54,6.81-2.77,13.69-4.75,20.39l-2.55,6.28c-8.23,14.32-18.51,27.34-29.29,39.81-5.37,6.27-10.85,12.43-16.35,18.59s-11,12.28-16.53,18.42l-25.75,40.25-6.76,24.26-15.24,21.63-7.45,12.67-3.79,6.44c-.61,1.07-1.3,2.15-1.85,3.22l-1.58,3-2.29,5.67-.77,3.31v8.81l.34,2.93,1.62,4.09,1.77,3.5c.63,1.26,1.33,2.41,2,3.63,1.35,2.41,2.86,4.88,4.28,7.32s2.87,4.7,4.45,7.74l4.2,8.77,1.54,15.32.21,8.05.09,3.91.21,3.86,1,15.93-.2,10-.82,5.36-1.63,4.23-2.7,5-5.08,6.21-5.41,4.72-5,4.42-5,4.42c-.81.76-1.58,1.56-2.37,2.34l-1.17,1.17-1,.9c-.24.24-1.91,2.66-2.42,3.3l-.31.54-.24.68-.4,1.87-.29,2c-.11.77-.2,1.56-.34,2.3l-.2,1.13-.14,1a7.88,7.88,0,0,0-.12,1l-.08.79-.22,18.18-1.55,13.86-5.55,22L795,1683.63l-.69,2.72-.77,2.67-1.56,5.34L788.85,1705c-.56,1.77-.93,3.59-1.36,5.39l-1.27,5.42-2.54,10.83c-.84,3.61-1.66,7.22-2.69,10.82l-11.72,43-2.92,10.72c-1,3.58-2,7.13-2.78,10.78l-2.52,10.88c-.38,1.81-1,3.63-1.46,5.45l-1.66,5.8-1.88,4.38c-.58,1.34-1.06,2.77-1.6,4.15l-3.23,8.6-7.49,15.53c-2.45,5.09-4.93,10.18-7.31,15.32s-4.77,10.26-7.25,15.38l-3.73,7.69c-1.23,2.55-2.51,5-3.64,7.57l-1.74,3.84-.91,2-.92,1.92-3.66,7.67-7.31,15.33-7.32,15.33-7,14.92-3.45,12.39-.92,5.22-.86,11.55,0,44.17,1.11,10.2.57,5.25c.18,1.75.38,3.49.69,5.23l3.36,20.88,1.87,18.17,2.26,5.34,2.1,4.14,11.13,17.55,4.66,7L730.37,2153l9.6,14.36,2,3,5,7.62,2.33,3.54,7.13,11,9.62,14.72,8,12.15.47.72.57.88,3.46,5.38.68,1L791.52,2247l11.84,19.53,4,6.05,3.72,4.79L832.87,2295l2.51,2.11,1,.83,2.93,4.65,2.16,3.72,1.75,4.15,1.31,4L845,2332l.13,4.95.18,6.86.36,8.42.14,3.19.41,3.84,1.4,6.31,6.59,16.8,4.73,8.19,3.68,5.65,8,8.61,1.5,1.49,1.5,1.48,8.8,7.93,9.71,7.3,1.41,1.79,15.34,11.65,6.3,4.19,12.61,8.58,7.63,4.92,5.71,3.22,6.41,3.89,8.16,3.34,10.57,3.16,4.91,1.77,11.28,6.17,14.28,9.33,2.7,1.85,1.41,1.25,1.77,1.61,2.53,2.69,1.15,1.45,1.38,1.92,1.91,2.38,2,3.07,1.77,2.84.43.78,1.64,3.05,1.84,3.68,1.08,2.46,1.76,3.52,1.38,3.22,1.53,3.31,3.92,8,2.48,4.74,4.43,8.47,5.83,15.35,2.26,4.66,3.72,8.38,2.74,6.15,7.82,15.29,4.85,6.13,7,7.13,2.53,2.29L1072,2612l3.85,2.54,2.9,1.64,2.07,1.17,6.72,3.8,4.86,2.81,28.69,16.57,8.69,4.31,4.53,2.16,3.47,1.44,4.21,1.65,7.9,2.61,4.89,1.21,15,3.19,3.88.69,14.76,3,5.94,1.29,4.47,1.76,5.62,3.37,2.07,1.46,7.66,7,6.9,9.09,2.86,3.71,1.73,2.68,1,1.46,16.74,18.66,14.32,8.85,148,71.51,8.09,4.6,18.85,10.29,7.55,3.89,7.31,5.83,6.35,6.8,18.77,46.42,9.14,21.75,14.87,33.47,12.44,27.51,5.29,12.43,1.92,4.58.72,2,.27.89,2.67,7.65.5,5.57.77,14.42.18,3.37.47,5.11,1.75,10.18L1527,3034l2.18,6.16.77,6.42.07,8.13-2,11.66-2.69,12.47-2.66,10.32-1.18,4.3-1.13,3.08-.11.32-.26.7-2.23,4.87-1.9,2.67-3.73,5.34-3.91,3.56-3.52,2.74-.5.43-3.78,3.15-12.12,10.09L1468,3147.31l-13.54,11.84-16.28,13.24-3.51,2.07-11.22,9.86-13,12.78-10.86,14-16.29,22.92-.55,1.09-5.23,10.38-1.57,6-1.51,27.83.2,3.45.51,8.73,1.26,22.47.26,2.39,1.39,7.36,4.62,8.28,19.59,18,16.2,14.78,20.18,18.69,9.51,9.28,23.42,21.83,8,7.46,1.59,2,20.09,22.75,1.85,2.2,9.49,11.22,4,4.21,2.51,2.44M951-885l-1.17,1-12,12.85-3,2.54c-1.1.94-2.25,1.84-3.32,2.81l-7,6.72L923.31-858c-.38.38-.89.69-.84,1.3l-.5,3.2-.75,4.86L920-840.45l-.67,3-1.38,2c-.66,1-1.33,2-1.95,3l-3.78,6-26.55,41.4-1.12,3c-.37,1-.81,1.86-1.21,2.79s-.88,1.8-1.32,2.7-1.06,1.9-1.58,2.85l-6.5,11.49-6.49,11.48L864.17-745l-1.65,3L861-739c-3.84,8-8.13,15.75-12.22,23.61l-5.71,12.18c-1,2-1.86,4.12-2.75,6.24-.43,1.06-.92,2.09-1.31,3.19l-1.07,3-2.41,5.09c-1.88,5.72-3.12,9.62-5.15,15.23l-1.56,6.88L828.4-659c-.07,1.4-.09,2.78-.14,4.17L828-647.2l-1.72,7-.66,11.75-.42,11.2,10.86,22.75L836-583.4l-.05,5.58-.19,5.63-.41,11.27c-.17,3.75-.48,7.48-.72,11.22-1,15-2.27,29.68-2.45,44.32l0,5.56-.11,5.61L831.81-483l-.28,11.09c0,1.8,0,3.59,0,5.39l0,2.69c0,.91.11,1.54.14,2.23l1.53,7.52,1,3.32,1.08,3.61,2.32,7.79.7,8.59.05.62,0,7.31L836.87-410l.78,9.49,1,9.8.71,3.73c.25,1.34.52,2.67.82,4l1.72,7.93c.53,2.68,1.26,5.18,1.93,7.76l2.17,7.48,4.45,10.29,25.51,43.47c2.87.73,5.74,1.44,8.63,2.1L904-299.53l9.85,2.24-3.21,14.13-1.84,9.91-.46,2.47-.61,2.44-1.21,4.87c-3.31,13-6.24,26-10.17,39l-11.15,38.88-5.39,19.44c-.84,3.26-1.91,6.44-2.93,9.63L873.77-147l-6.14,19.15-3.48,9.39c-1.17,3.13-2.29,6.24-3.57,9.4l-7.45,18.86-1.86,4.71c-.61,1.58-1.15,3.19-1.73,4.79l-3.43,9.59c-2.27,6.39-4.61,12.78-6.7,19.16l-3.23,9.57c-.54,1.59-1,3.2-1.63,4.78l-1.79,4.74-3.59,9.46c-1.14,3.27-2.29,6.57-3.26,10l-5.12,20L819,16.29l-.87,9.05-1.36,3.44-7.72,18L806.92,52l-1.24,3-6.16,14.79-.17.4L794.1,83.94l-.34.9-3.35,9.27L789.5,97l-2.1,6.88L786.24,110l-.7,4.46-.21,1.75-.09.77.18,3.76.48,4.23.87,5.08,1.15,4.41,1.07,3,3.48,7.21.33.7,3.3,5.82,5.6,8.53,4.14,5.08,4.63,3.9,8.61,7.23,5,3.66,5.87,4.64,9.21,3.29,2.65,1,11.36,3.51,23.23,6.64.14.09,4,6.06L896.27,217l9.83,6.18,8.18,6.74L924.55,240l2.61,2.58,1.3,1.29,1.17,1.28c.78.83,1.58,1.75,2.38,2.67l2.92,3.33,6.46,4.37c1.93,1.32,3.92,2.62,5.94,3.91s4,2.64,6,3.86l6.3,3.52c4.2,2.3,8.35,4.32,12.52,6.5l12.73,6.52,17.71,7.32,8,2.16c1.28.33,2.54.7,3.79,1.08l3,.91,9.85,6.16,33.8,26.77,17.11,13.28,4.12,3.36,4.11,3.48,8,6.74,6.62,7.42,6.77,7.9c4.68,5.21,9.23,10.44,14,15.63,2.43,2.64,4.79,5,7.19,7.52s4.55,5,6.79,7.5l12.49,15.7,1.83,3.61c.69,1.39,1.42,2.75,2.07,4.16l3.91,8.23,3.58,9.14,1.28,6.58c.52,2.36.79,4.76,1.14,7.16l2,14.36.51,3.59a35.93,35.93,0,0,1,.43,3.61l.53,7.33.54,7.33c.13,2.43.69,4.88.86,7.26l.5,7.13.44,7.25.11,1.82,0,1.74.1,3.67.21,7.35.41,14.69.24,7.27v7.55l1.12,11.12"/><path class="cls-7" d="M922.47-856.68l-1.4-4.93-.1-12.68.31-7.3.61-6.86.91-6.47,1.24-7.79,1.88-8.61,2.22-6.71,2.17-5.81,2.41-5.62,15.17-30.76,8.43-17.67,5-12.47,1.79-8.9,2.16-15.58.93-11.51,1-10.82-1.27-4.12.43-9.87L964.34-1063l-13.73-54.81-14-57.57,36.34-8.94,14.68,57.48,7,30.33,6.29,26.34.36,6.17-2.29,17-1,8.3-1.58,3.67-1,11.21-1,12.67-2.44,17.32L989.49-982,983-965.7l-8.77,18.36-15,30.46-1.78,4.18-1.7,4.6-1.49,4.5-1.45,6.69-1,6.4L951-885M1217.85-2425.6l10.46,2.9,8.35,2.31,6.41,1.71,3.58,1,2.32.75,5.26,2,6.3,2.66,8.91,3.77,3.66,1.46,10.11,3.8,7.58,2.27,6.59,2,7.79,2,6.52,1.43,4.49.66,3.85,0h6.77l16.49-.11h17.92l10.7-.12,9.93-.06.16-1.71,2.87-31.19.36-3.9c.12-1.31.2-2.54.45-4.06l3.52-13.34-18.46-12.48L1351-2475.06l-2.65-3-3.11-2.17-4-2.7-8.75-5.76-4.2-2.76-4.28-2.62-8.32-5.07-7.78-3.6-8.65-3.43-8.54-3.15-8.51-3L1268.4-2516l-3.2-.81-3.6-.76-7.28-1.54-14.55-3.09-7.31-1.55-3.17-.6-2.82-.5m0,0,.68,17.57-1.92,6.72c-.73,2.64-1.56,5.27-2.2,7.91l-1.92,7.92-1.91,7.91c-.34,1.32-.58,2.65-.87,4l-.78,3.71-1,8.93-.65,15.85.29,5c0,1.76.38,3.5.56,5.26.37,2.83.66,5.64,1.09,8.49M1332-2884.46l-10.61,12.83-6.53,9.6-2.24,6.85-1.95,8.12c-.71,2.62-1.08,5.28-1.55,7.92s-.88,5.32-1.4,7.91l-1.57,7.81-1.55,7.81-1.45,7.89c-1,5.28-1.85,10.44-2.78,15.66-.47,2.6-.87,5.21-1.48,7.8s-1,5.25-1.45,7.87c-.92,5.27-2.07,10.42-3.1,15.63-.53,2.58-1,5.21-1.55,7.84l-1.51,7.82-1.52,7.79-1.55,7.36-4,11.25c-1.41,3.87-2.74,7.76-4.08,11.65-2.68,7.81-5.34,15.49-8.15,23.21l-16.77,46.38c-1.39,3.88-2.87,7.75-4.08,11.66l-1.9,5.85-2.1,5.76-8.48,23.09-2.12,5.82-2,5.85-4,11.72-2,5.86-1,2.93-1,3.05-1,3.06-.13.52,1.06,27.45M951-885l21.16-17.37,50.47-68.21,7.94-9.86,21.57-32.81,6.4-9.66,6.55-11.11,3.84-7.27,6.1-12.88,5.61-14.67,3.35-11.57,1.82-8.67,1.62-8.66,1.06-9.3.32-7.85.08-7.66-.74-10.25-1.05-9.84-3-14-1.91-6.68-3.61-10.29-5.14-12.58-8.24-15.54-3.92-9.3,3.55-1.91,50.37-24.19,3.66-1.79-3.42-7.16-4.57-8.27-9.6-20L1077-1320.69l-20.81-39.81-6.75-14.7-1.93-5.58-5.43-16.52-3.93-12.65-3.52-13.39-.78-5.55-.06-2.83.52-6.54,1.07-7.33,1-4,1.86-5.14,3.38-7.73,2.72-5.5,1-2.06,2.78-4.77,4-6.93,2.14-1.29,1-1.66,6.62-11.3,7.74-13.21,1.29-2.22,9.66-16.34,50.93-83.67,27.24-45.74,2.73-4.48,3.82-7.39.81-2.57.21-1,.78-6.36,1.06-9.5.1-6.47-1.51-13.12-2.52-12.11-1.22-8.22-1.4-12.33,0-7.06.6-11.86-4.88-.82.39-1.32,3-14.57,2.88-14.39,1.39-7.27,1.18-7.24,2.41-14.85.19-5.49c0-1.72.25-3.37.37-5.06s.24-3.35.46-5.06l.7-5.17,2.81-20.88.3-4.82.33-4.65c.22-3.1.48-6.19.61-9.3l.94-18.64.41-9.46c.11-1.59.05-3.13,0-4.68s-.08-3.1-.07-4.64l.4-9.18c.14-3.05.18-6.22.27-9.32.19-6.24.23-12.47.32-18.7l.11-9.35.06-4.68c0-1.55-.07-3.11-.1-4.66l-.13-4.67v-13.92l-.38-18.69-.21-9.36-.1-4.68-.06-2.33-.17-2.35-1.4-18.78-4.21-36.87c-.11-3.08-.52-6.18-.86-9.28l-1-9.28-2.06-18.56-1-9.18-.52-4.56c-.17-1.52-.22-3.07-.33-4.6l-1.1-17.66,1.07-5.26.14-6.05c0-1.84.07-3.68.18-5.53l.28-5.56c0-.92.09-1.85.11-2.79l.09-2.57.25-2.14.25-2.34c.15-1.58.37-3,.55-4.54l.3-2.26.43-2.27.8-4.32,1.07-4,.57-2.1.5-2a39.55,39.55,0,0,1,1.16-4l1.19-3.78,3.81-9.14c.64-1.57,1.45-3.05,2.17-4.58l2.08-4.3,7.83-12.71,2-3.24,2.11-3.13c1.4-2.08,2.81-4.3,4.21-6.44l8.43-13c1.39-2.17,2.86-4.26,4.11-6.6l4-7,1.91-4.17c.6-1.32,1.23-2.63,1.76-4l3.41-8.28,3.82-12.87,1.63-9.59.39-2.31c.07-.42.17-.93.22-1.33l.13-1.2.55-4.82.53-4.81c.07-1.67.23-3.49.2-5.06l-.09-9.84-1.28-11.21c-.52-3.58-1.09-7.15-1.42-10.77s-.71-7.19-1.24-10.84-1-7.35-1.67-10.91l-3.56-21.41c-.13-.69-.23-1.38-.34-2.06M1519.1,3466.84l-2.86,2.61-7.48,7.14-.42.39-12.14,11.4-.37.34-8.33,10.52-2,2.83-1.19,1.61-1.5,2.23-4.14,6.15-7.19,10.51-.34.42-1.61,1.36-1.13,1-1.6,1.14-2,1.08-2.13,1-1.61.59-2.65.59-1,.21-2.17.43-2.73.3-4.65.51-6.47.73-.93.21-21.68,2.38.49,3.35,4.78,32.72M1170.2,564.71l.43,13-.25,5.9c-.06,1-.06,2.06-.17,3l-.22,2.61-.92,4.13-.5,2.25-.62,2.26-2.52,9-5,18.09-2.51,9c-.43,1.48-.78,3-1.28,4.45l-1.48,4.44-5.81,17.44-3.84,8-7.58,11.87-3.66,7.84-1.75,6.91-1.47,6.37-3,13-1,6.61c-.33,2.13-.57,4.28-1,6.37-.88,4.19-1.67,8.43-2.63,12.59-.48,2.09-.87,4.17-1.44,6.27l-1.68,6.28-3.45,12.83-3.51,20.11-2.25,8.87-2.17,5.33-2,3-2.47,3.5-4.68,6.63-6.16,6.4-6.39,4.52c-1.14.79-2.35,1.47-3.52,2.22l-3.19,2-3.57,1.51-4,1.66c-2.7,1.11-5.42,2.33-8.09,3.48l-8,3.55-8.23,3.84-4.56,2.71-3.64,2.91-7.56,9-5.62,9.67-5.41,9.12c-3.47,6.13-7.61,12-11.51,18-2,2.93-3.8,6.06-5.65,9.15L999,911.6l-5.45,9.2-5.6,9.12c-7.22,12.33-15,24-22.78,36.26l-5.41,9.29c-1.87,2.92-3.49,5.9-5.65,8.74-4.14,5.66-7.33,20.9-7.33,20.9l-16.29,23c-5.29,7.75-11.41,15-15.11,23.73l-1,2.92-.48,1.46-.38,1.49-1.49,4.19-2.25,10.62-.57,9.84.39,9,1.36,10.91,2.88,9.52,5.33,9.12L931.35,1138l6.07,8.53,5.48,8.94,4.14,9.85c2.08,6.32,4.2,12.63,6.17,19l1.8,8.57.91,10.9.09,13.78-2.86,20c-1.54,6.81-2.77,13.69-4.75,20.39l-2.55,6.28c-8.23,14.32-18.51,27.34-29.29,39.81-5.37,6.27-10.85,12.43-16.35,18.59s-11,12.28-16.53,18.42l-25.75,40.25-6.76,24.26-15.24,21.63-7.45,12.67-3.79,6.44c-.61,1.07-1.3,2.15-1.85,3.22l-1.58,3-2.29,5.67-.77,3.31v8.81l.34,2.93,1.62,4.09,1.77,3.5c.63,1.26,1.33,2.41,2,3.63,1.35,2.41,2.86,4.88,4.28,7.32s2.87,4.7,4.45,7.74l4.2,8.77,1.54,15.32.21,8.05.09,3.91.21,3.86,1,15.93-.2,10-.82,5.36-1.63,4.23-2.7,5-5.08,6.21-5.41,4.72-5,4.42-5,4.42c-.81.76-1.58,1.56-2.37,2.34l-1.17,1.17-1,.9c-.24.24-1.91,2.66-2.42,3.3l-.31.54-.24.68-.4,1.87-.29,2c-.11.77-.2,1.56-.34,2.3l-.2,1.13-.14,1a7.88,7.88,0,0,0-.12,1l-.08.79-.22,18.18-1.55,13.86-5.55,22L795,1683.63l-.69,2.72-.77,2.67-1.56,5.34L788.85,1705c-.56,1.77-.93,3.59-1.36,5.39l-1.27,5.42-2.54,10.83c-.84,3.61-1.66,7.22-2.69,10.82l-11.72,43-2.92,10.72c-1,3.58-2,7.13-2.78,10.78l-2.52,10.88c-.38,1.81-1,3.63-1.46,5.45l-1.66,5.8-1.88,4.38c-.58,1.34-1.06,2.77-1.6,4.15l-3.23,8.6-7.49,15.53c-2.45,5.09-4.93,10.18-7.31,15.32s-4.77,10.26-7.25,15.38l-3.73,7.69c-1.23,2.55-2.51,5-3.64,7.57l-1.74,3.84-.91,2-.92,1.92-3.66,7.67-7.31,15.33-7.32,15.33-7,14.92-3.45,12.39-.92,5.22-.86,11.55,0,44.17,1.11,10.2.57,5.25c.18,1.75.38,3.49.69,5.23l3.36,20.88,1.87,18.17,2.26,5.34,2.1,4.14,11.13,17.55,4.66,7L730.37,2153l9.6,14.36,2,3,5,7.62,2.33,3.54,7.13,11,9.62,14.72,8,12.15.47.72.57.88,3.46,5.38.68,1L791.52,2247l11.84,19.53,4,6.05,3.72,4.79L832.87,2295l2.51,2.11,1,.83,2.93,4.65,2.16,3.72,1.75,4.15,1.31,4L845,2332l.13,4.95.18,6.86.36,8.42.14,3.19.41,3.84,1.4,6.31,6.59,16.8,4.73,8.19,3.68,5.65,8,8.61,1.5,1.49,1.5,1.48,8.8,7.93,9.71,7.3,1.41,1.79,15.34,11.65,6.3,4.19,12.61,8.58,7.63,4.92,5.71,3.22,6.41,3.89,8.16,3.34,10.57,3.16,4.91,1.77,11.28,6.17,14.28,9.33,2.7,1.85,1.41,1.25,1.77,1.61,2.53,2.69,1.15,1.45,1.38,1.92,1.91,2.38,2,3.07,1.77,2.84.43.78,1.64,3.05,1.84,3.68,1.08,2.46,1.76,3.52,1.38,3.22,1.53,3.31,3.92,8,2.48,4.74,4.43,8.47,5.83,15.35,2.26,4.66,3.72,8.38,2.74,6.15,7.82,15.29,4.85,6.13,7,7.13,2.53,2.29L1072,2612l3.85,2.54,2.9,1.64,2.07,1.17,6.72,3.8,4.86,2.81,28.69,16.57,8.69,4.31,4.53,2.16,3.47,1.44,4.21,1.65,7.9,2.61,4.89,1.21,15,3.19,3.88.69,14.76,3,5.94,1.29,4.47,1.76,5.62,3.37,2.07,1.46,7.66,7,6.9,9.09,2.86,3.71,1.73,2.68,1,1.46,16.74,18.66,14.32,8.85,148,71.51,8.09,4.6,18.85,10.29,7.55,3.89,7.31,5.83,6.35,6.8,18.77,46.42,9.14,21.75,14.87,33.47,12.44,27.51,5.29,12.43,1.92,4.58.72,2,.27.89,2.67,7.65.5,5.57.77,14.42.18,3.37.47,5.11,1.75,10.18L1527,3034l2.18,6.16.77,6.42.07,8.13-2,11.66-2.69,12.47-2.66,10.32-1.18,4.3-1.13,3.08-.11.32-.26.7-2.23,4.87-1.9,2.67-3.73,5.34-3.91,3.56-3.52,2.74-.5.43-3.78,3.15-12.12,10.09L1468,3147.31l-13.54,11.84-16.28,13.24-3.51,2.07-11.22,9.86-13,12.78-10.86,14-16.29,22.92-.55,1.09-5.23,10.38-1.57,6-1.51,27.83.2,3.45.51,8.73,1.26,22.47.26,2.39,1.39,7.36,4.62,8.28,19.59,18,16.2,14.78,20.18,18.69,9.51,9.28,23.42,21.83,8,7.46,1.59,2,20.09,22.75,1.85,2.2,9.49,11.22,4,4.21,2.51,2.44M951-885l-1.17,1-12,12.85-3,2.54c-1.1.94-2.25,1.84-3.32,2.81l-7,6.72L923.31-858c-.38.38-.89.69-.84,1.3l-.5,3.2-.75,4.86L920-840.45l-.67,3-1.38,2c-.66,1-1.33,2-1.95,3l-3.78,6-26.55,41.4-1.12,3c-.37,1-.81,1.86-1.21,2.79s-.88,1.8-1.32,2.7-1.06,1.9-1.58,2.85l-6.5,11.49-6.49,11.48L864.17-745l-1.65,3L861-739c-3.84,8-8.13,15.75-12.22,23.61l-5.71,12.18c-1,2-1.86,4.12-2.75,6.24-.43,1.06-.92,2.09-1.31,3.19l-1.07,3-2.41,5.09c-1.88,5.72-3.12,9.62-5.15,15.23l-1.56,6.88L828.4-659c-.07,1.4-.09,2.78-.14,4.17L828-647.2l-1.72,7-.66,11.75-.42,11.2,10.86,22.75L836-583.4l-.05,5.58-.19,5.63-.41,11.27c-.17,3.75-.48,7.48-.72,11.22-1,15-2.27,29.68-2.45,44.32l0,5.56-.11,5.61L831.81-483l-.28,11.09c0,1.8,0,3.59,0,5.39l0,2.69c0,.91.11,1.54.14,2.23l1.53,7.52,1,3.32,1.08,3.61,2.32,7.79.7,8.59.05.62,0,7.31L836.87-410l.78,9.49,1,9.8.71,3.73c.25,1.34.52,2.67.82,4l1.72,7.93c.53,2.68,1.26,5.18,1.93,7.76l2.17,7.48,4.45,10.29,25.51,43.47c2.87.73,5.74,1.44,8.63,2.1L904-299.53l9.85,2.24-3.21,14.13-1.84,9.91-.46,2.47-.61,2.44-1.21,4.87c-3.31,13-6.24,26-10.17,39l-11.15,38.88-5.39,19.44c-.84,3.26-1.91,6.44-2.93,9.63L873.77-147l-6.14,19.15-3.48,9.39c-1.17,3.13-2.29,6.24-3.57,9.4l-7.45,18.86-1.86,4.71c-.61,1.58-1.15,3.19-1.73,4.79l-3.43,9.59c-2.27,6.39-4.61,12.78-6.7,19.16l-3.23,9.57c-.54,1.59-1,3.2-1.63,4.78l-1.79,4.74-3.59,9.46c-1.14,3.27-2.29,6.57-3.26,10l-5.12,20L819,16.29l-.87,9.05-1.36,3.44-7.72,18L806.92,52l-1.24,3-6.16,14.79-.17.4L794.1,83.94l-.34.9-3.35,9.27L789.5,97l-2.1,6.88L786.24,110l-.7,4.46-.21,1.75-.09.77.18,3.76.48,4.23.87,5.08,1.15,4.41,1.07,3,3.48,7.21.33.7,3.3,5.82,5.6,8.53,4.14,5.08,4.63,3.9,8.61,7.23,5,3.66,5.87,4.64,9.21,3.29,2.65,1,11.36,3.51,23.23,6.64.14.09,4,6.06L896.27,217l9.83,6.18,8.18,6.74L924.55,240l2.61,2.58,1.3,1.29,1.17,1.28c.78.83,1.58,1.75,2.38,2.67l2.92,3.33,6.46,4.37c1.93,1.32,3.92,2.62,5.94,3.91s4,2.64,6,3.86l6.3,3.52c4.2,2.3,8.35,4.32,12.52,6.5l12.73,6.52,17.71,7.32,8,2.16c1.28.33,2.54.7,3.79,1.08l3,.91,9.85,6.16,33.8,26.77,17.11,13.28,4.12,3.36,4.11,3.48,8,6.74,6.62,7.42,6.77,7.9c4.68,5.21,9.23,10.44,14,15.63,2.43,2.64,4.79,5,7.19,7.52s4.55,5,6.79,7.5l12.49,15.7,1.83,3.61c.69,1.39,1.42,2.75,2.07,4.16l3.91,8.23,3.58,9.14,1.28,6.58c.52,2.36.79,4.76,1.14,7.16l2,14.36.51,3.59a35.93,35.93,0,0,1,.43,3.61l.53,7.33.54,7.33c.13,2.43.69,4.88.86,7.26l.5,7.13.44,7.25.11,1.82,0,1.74.1,3.67.21,7.35.41,14.69.24,7.27v7.55l1.12,11.12"/></g></g></g></svg>