<svg id="routes" xmlns="http://www.w3.org/2000/svg" xmlns:xlink="http://www.w3.org/1999/xlink" viewBox="0 0 1024 1024"><defs><style>.cls-1,.cls-10,.cls-11,.cls-12,.cls-13,.cls-14,.cls-3,.cls-4,.cls-5,.cls-6,.cls-7,.cls-8,.cls-9{fill:none;}.cls-2{clip-path:url(#clip-path);}.cls-10,.cls-11,.cls-12,.cls-13,.cls-14,.cls-3,.cls-7,.cls-8,.cls-9{stroke:#231815;stroke-width:8.79px;}.cls-10,.cls-11,.cls-12,.cls-13,.cls-14,.cls-3,.cls-4,.cls-5,.cls-6,.cls-7,.cls-8,.cls-9{stroke-linecap:round;stroke-miterlimit:10;}.cls-4{stroke:#a73766;}.cls-4,.cls-5,.cls-6{stroke-width:4.4px;}.cls-5{stroke:#ef845d;}.cls-6{stroke:#ebca1b;}.cls-7{stroke-dasharray:0 28.74;}.cls-8{stroke-dasharray:0 28.84;}.cls-9{stroke-dasharray:0 27.13;}.cls-10{stroke-dasharray:0 29.4;}.cls-11{stroke-dasharray:0 28.52;}.cls-12{stroke-dasharray:0 29.98;}.cls-13{stroke-dasharray:0 28.19;}.cls-14{stroke-dasharray:0 30.24;}</style><clipPath id="clip-path"><rect class="cls-1" x="-935" y="-3068" width="11720" height="11720"/></clipPath></defs><title>3230_1</title><g class="cls-2"><g id="日ノ丸線"><g id="長和瀬"><path class="cls-3" d="M-366.63,299.41l-.12,2.17-1.65,4.5-2.43,9.65-2.1,4.11-1.75,2.11-1.09,1.32-1.89,1.28-.95.64-3.73,1.17-5.33,1.26-5.1,1.35-2.09.45-.62.25-2.09.33-5.32,1.17-1.24.14-7.07.79-3.29.17-1.58.09-7.26-1.07-7.53-2.08-5-1.82-5.9-5.79M134.48,465l51.14,6.15c6.62-7.59,13.36-15.23,19.92-22.95l22.78-27.86,22.52-27.84c3.76-4.62,7.46-9.32,11.26-13.88l12-14.56,11.8-20.89.85-2.12,2.61-20.88,3.22-25.63,9.05-23,2.35-6.22,7-18.62,1.64-4.34-1.1-2.64,1.31-8.49.42-4.58-.2-3.61-.87-3.13-.89-2.35-.94-2-1.26-2.13-1.26-1.29-2.1-1.08h-1.71l-3.72.57-4.81,9.83-2.07,2.06-1.87,1.32-3.58,2.2-4.8,1.88-2.61.45-3.08.31-3.43-.31-4.51-.6-9.34-1.08L255.8,227l-6-.46-2.79.07-4.05.68-9.29,2.19-14.33,4.63-32.64,9.66L183,244.86l-4.47,1.75-6.11,2.15-6.91,3.87-5.35,3.24-29.31,14.79-5.32,3.08L122.26,277l-2.15,2.69-.71,1.17-2.18,3.58-2.82,7.18-1.3,11.1-.54,10.71.17,4.87-1,10.52-1,10.78-.44,4.79-.66,4.66-1.43,4.79-1.34,3.91-4.2,6.85-4.46,4.05-3.76,3.26L86,376.82l-3.92,1-3.93,1-5.67.42-6-.29-4.71-.73-4.91-1-5.07-.82-12.14-1.89-10.39-2.18-10-2.68-4.41-1-3.32-.75-.81-.37-7.28-3.19-1.51-.69-6.41-2.94-21-8.85-10.25-4.4L-60.5,337.12-67.91,334l-20-8.75-11.72-5.14-9.54-3.55-.45-.23-7.56-3.77-5.74-2.72-3.73-2.17-3.15-2-3.88-9.84-.82-4.73-.9-7L-136,278l-.76-4.63-2.11-3-1.23-1.95-3.22-4.14-3.52-2.81-3.26-2.16-3.66-1.65-3.83-.81-1.82-.57-2.91-.54-6.64,1.91-2.06.76-2.69,1.16-4.85,2-3.57,2.31-5.29,5L-193,278.94l-2,5.71L-197,290.9l-1.45,3.24-1.43,2.48-1.46,2.88-.8,1.2-6,5.44-7,3.78-8,3.23-8.21,1.12-8.21-.64-9-3.37-6.5-3.65-6.4-4.34-4.22-4.37-3-2-6.54-3.77-1.8-.81-2.11-1-7.26-2.34-3.65-1.17-3.86-1-2.58-.46-3.6-.11-3.06.55-4.47,2.18-6.59,2.51-2,.38-1.9-.06-5.43-.88-5.06-1.44-7-1.62-5-1.25-6.76-.26-4.26.62-6.78,4.4-6.26,5.56-2.05,3.45-4.14,4.47-3.72,3.65-1.89,1.84-6.83,5.14-4.61,2.34-11.36,3-16.64,2.88-5.61,1-4.6.18-10-.53-5.72-1.73M273.7,277.31l-1.63,21.9-.66,8.86-.13,1.67c0,.26-.12.58.11.8a2.5,2.5,0,0,0,.66.5c.41.22.84.39,1.26.58l.62.32,1.45.77,8.07,4.3,5.94,3.16"/><path class="cls-4" d="M-366.63,299.41l-.12,2.17-1.65,4.5-2.43,9.65-2.1,4.11-1.75,2.11-1.09,1.32-1.89,1.28-.95.64-3.73,1.17-5.33,1.26-5.1,1.35-2.09.45-.62.25-2.09.33-5.32,1.17-1.24.14-7.07.79-3.29.17-1.58.09-7.26-1.07-7.53-2.08-5-1.82-5.9-5.79M134.48,465l51.14,6.15c6.62-7.59,13.36-15.23,19.92-22.95l22.78-27.86,22.52-27.84c3.76-4.62,7.46-9.32,11.26-13.88l12-14.56,11.8-20.89.85-2.12,2.61-20.88,3.22-25.63,9.05-23,2.35-6.22,7-18.62,1.64-4.34-1.1-2.64,1.31-8.49.42-4.58-.2-3.61-.87-3.13-.89-2.35-.94-2-1.26-2.13-1.26-1.29-2.1-1.08h-1.71l-3.72.57-4.81,9.83-2.07,2.06-1.87,1.32-3.58,2.2-4.8,1.88-2.61.45-3.08.31-3.43-.31-4.51-.6-9.34-1.08L255.8,227l-6-.46-2.79.07-4.05.68-9.29,2.19-14.33,4.63-32.64,9.66L183,244.86l-4.47,1.75-6.11,2.15-6.91,3.87-5.35,3.24-29.31,14.79-5.32,3.08L122.26,277l-2.15,2.69-.71,1.17-2.18,3.58-2.82,7.18-1.3,11.1-.54,10.71.17,4.87-1,10.52-1,10.78-.44,4.79-.66,4.66-1.43,4.79-1.34,3.91-4.2,6.85-4.46,4.05-3.76,3.26L86,376.82l-3.92,1-3.93,1-5.67.42-6-.29-4.71-.73-4.91-1-5.07-.82-12.14-1.89-10.39-2.18-10-2.68-4.41-1-3.32-.75-.81-.37-7.28-3.19-1.51-.69-6.41-2.94-21-8.85-10.25-4.4L-60.5,337.12-67.91,334l-20-8.75-11.72-5.14-9.54-3.55-.45-.23-7.56-3.77-5.74-2.72-3.73-2.17-3.15-2-3.88-9.84-.82-4.73-.9-7L-136,278l-.76-4.63-2.11-3-1.23-1.95-3.22-4.14-3.52-2.81-3.26-2.16-3.66-1.65-3.83-.81-1.82-.57-2.91-.54-6.64,1.91-2.06.76-2.69,1.16-4.85,2-3.57,2.31-5.29,5L-193,278.94l-2,5.71L-197,290.9l-1.45,3.24-1.43,2.48-1.46,2.88-.8,1.2-6,5.44-7,3.78-8,3.23-8.21,1.12-8.21-.64-9-3.37-6.5-3.65-6.4-4.34-4.22-4.37-3-2-6.54-3.77-1.8-.81-2.11-1-7.26-2.34-3.65-1.17-3.86-1-2.58-.46-3.6-.11-3.06.55-4.47,2.18-6.59,2.51-2,.38-1.9-.06-5.43-.88-5.06-1.44-7-1.62-5-1.25-6.76-.26-4.26.62-6.78,4.4-6.26,5.56-2.05,3.45-4.14,4.47-3.72,3.65-1.89,1.84-6.83,5.14-4.61,2.34-11.36,3-16.64,2.88-5.61,1-4.6.18-10-.53-5.72-1.73M273.7,277.31l-1.63,21.9-.66,8.86-.13,1.67c0,.26-.12.58.11.8a2.5,2.5,0,0,0,.66.5c.41.22.84.39,1.26.58l.62.32,1.45.77,8.07,4.3,5.94,3.16"/></g><g id="日置小畑"><path class="cls-3" d="M483.39,2346.62l4-4.83,4-6.6,2.73-8.55,1.86-11.95,1.37-10,.14-3.4,1-5.46,2-4.35,3.21-4.86,3.85-3.37,10.9-8,3.36-3.38,3.53-4.69,3.2-5.46,1.51-1.6,3.63-5.32.79-1.63,5-8.2,7.2-9.84,4.5-5,2.72-2.26,8.43-7.15.68-1.14,1.4-7.58,8.27-36.33,2.23-6.78,1.91-4.35,30.48-57.66,9-21.59.3-.34,14.77-36.89,5.77-15.47,1.12-6.46.49-2.72v-.66l2.4-20,2.4-13.35,1.28-9.18,1.58-23.08,1.82-9.86.42-5.61,1.77-14,1.91-8.69,1-5.52.3-7.23-.14-29.54.44-3.67,1.78-8.8v-2.54l-1.71-1.89.26-5.12-.33-7.58-.46-3.55-2.42-12.55-3.66-11.29-1.14-4.52-1.77-13.7-.61-2.77-1-4.29-.46-2.26-5.15-14.35-2.56-8.7L633,1758.74,631,1740.83l-.33-10.78-.65-8.37-1.12-6.79-1.44-5.63-2.37-7.43-1.94-4.69-3.38-7.27-2.86-8-2-10.3-.3-4-.46-3.78-1.1-21.88-1.3-11-.52-6.61-.16-18.67-.3-6.47v-2.89l-.82-2.57-2.56-7.75L601.88,1569l-1.79-6.75-1.77-8.55-.16-.8-6.22-12.7-5-8.55-6.1-9.35L576,1516l-5.42-6.3-6.92-7.09-3.19-4.83-.49-.46-2.89-6.29-2.56-8.41-1.28-6.29-2.7-12.87-3.24-16.76-7.22-39.24-3-13.64-1.4-8.87-.48-8.35.3-4.83,1.12-8.56,1.44-6.12,1-3.52,4.49-14.95,4.19-13.9,5.18-14.68,3.65-8.69,4-8.38L572,1272.18l1.28-2.23,15.42-26.12L598,1227l4.47-8.7.81-1.6,2-4.5-5.14.19-2.48.49-3.71,1.1L582.73,1219c-1.92.87-3.88,1.64-5.83,2.44l-6.13,2.5-5.74,1.68-6.66.76c-2.06.23-4.06.27-6.1.41l-12.18.73-24.27,1.42c-11.43.68-22.85,1.46-34.29,2.24l-3-11.25-.19-1.23v-.35l0-.38,0-.76-.09-1.51-.16-3-.3-5.52-1.08-4.45-3-8.28-2.74-9.77-.59-3.93.46-18.77-1.44-12.24.17-11.29,1.28-11.42v-1.24l.3-3.23v-3.69l-.25-3.06-.33-1.59-1.84-5.79c-.31-1-.67-2-.92-3.07l-.91-3.41-4.66-28.48-4.51-28.22-2.24-14.2-1.12-7.1c-.17-1.19-.4-2.37-.53-3.56l-.36-3.57-.72-7.14c-.11-1.21-.28-2.32-.43-3.46l-.47-3.49-.95-7c-.17-1.16-.29-2.35-.52-3.47l-.66-3.66,0-.28-.26-2.83c-.1-.9-.15-1.79-.29-2.68l-.65-5-1.24-4.6-7-17.29-4.06-12.47-1.17-2.26-.67-1.28-.35-.62-1.53-1.53L431,937l-5.59-4L415.44,924c-1.62-1.47-3.2-2.86-4.85-4.4l-5.19-5.2-2.75-4.76-2.22-7-1.69-7.52c-.27-1.2-.55-2.41-.78-3.73s-.47-2.58-.64-3.9l-1-7.4-.92-7.63-.21-9.08-.11-4.39c-.05-1.47-.16-2.94-.24-4.4l-1.06-17.91.61-15.1.29-7.4.07-7.11-1.31-18.26-.66-9.24c-.23-3.08-.39-6.16-.76-9.23l-3.74-35.26-.48-.64-17-18.78-12.21-10.85c-4.16-3.68-8.43-7.24-12.64-10.87l-25.37-21.63-3.1-2.61-3.31-2.59c-2.23-1.69-4.35-3.52-6.47-5.34l-12.76-10.9-12.78-10.85-6.38-5.43-6.5-5.81-7.85-8.56-4.24-5.36-9.33-15.11-4.7-10.11-5-16-3.35-7.84-11.19,4.77-13.87,6.2-19.11,8.55L178,590.93l-30.8,12.72-4.46-9.86L126.91,558.9c-5.35-11.59-10-23.52-15.35-35.11L95.83,488.86C94.48,486,93.26,483,92,480.07l-3.68-8.82-6.18-14.82,19.82-31,16.52,13.92c3.57,3.05,7.24,6.06,10.93,9.05l5.51,4.5c.16.14.34.27.51.41l45.4,5.46c5.27-6,10.53-12,15.7-18.13l22.67-27.72c15.08-18.5,29.88-37.23,45.2-55.54l10.89-19.28,2.61-10.76m48.42,25.79L294.08,336l-16.14-8.6-8.07-4.3c-1.35-.7-2.67-1.47-4.05-2.1s-2.81-1.19-4.15-1.93a7.91,7.91,0,0,1-2.17-1.64c-.74-.7-.4-1.75-.34-2.62l.41-5.47.81-11,1.63-21.9"/><path class="cls-5" d="M483.39,2346.62l4-4.83,4-6.6,2.73-8.55,1.86-11.95,1.37-10,.14-3.4,1-5.46,2-4.35,3.21-4.86,3.85-3.37,10.9-8,3.36-3.38,3.53-4.69,3.2-5.46,1.51-1.6,3.63-5.32.79-1.63,5-8.2,7.2-9.84,4.5-5,2.72-2.26,8.43-7.15.68-1.14,1.4-7.58,8.27-36.33,2.23-6.78,1.91-4.35,30.48-57.66,9-21.59.3-.34,14.77-36.89,5.77-15.47,1.12-6.46.49-2.72v-.66l2.4-20,2.4-13.35,1.28-9.18,1.58-23.08,1.82-9.86.42-5.61,1.77-14,1.91-8.69,1-5.52.3-7.23-.14-29.54.44-3.67,1.78-8.8v-2.54l-1.71-1.89.26-5.12-.33-7.58-.46-3.55-2.42-12.55-3.66-11.29-1.14-4.52-1.77-13.7-.61-2.77-1-4.29-.46-2.26-5.15-14.35-2.56-8.7L633,1758.74,631,1740.83l-.33-10.78-.65-8.37-1.12-6.79-1.44-5.63-2.37-7.43-1.94-4.69-3.38-7.27-2.86-8-2-10.3-.3-4-.46-3.78-1.1-21.88-1.3-11-.52-6.61-.16-18.67-.3-6.47v-2.89l-.82-2.57-2.56-7.75L601.88,1569l-1.79-6.75-1.77-8.55-.16-.8-6.22-12.7-5-8.55-6.1-9.35L576,1516l-5.42-6.3-6.92-7.09-3.19-4.83-.49-.46-2.89-6.29-2.56-8.41-1.28-6.29-2.7-12.87-3.24-16.76-7.22-39.24-3-13.64-1.4-8.87-.48-8.35.3-4.83,1.12-8.56,1.44-6.12,1-3.52,4.49-14.95,4.19-13.9,5.18-14.68,3.65-8.69,4-8.38L572,1272.18l1.28-2.23,15.42-26.12L598,1227l4.47-8.7.81-1.6,2-4.5-5.14.19-2.48.49-3.71,1.1L582.73,1219c-1.92.87-3.88,1.64-5.83,2.44l-6.13,2.5-5.74,1.68-6.66.76c-2.06.23-4.06.27-6.1.41l-12.18.73-24.27,1.42c-11.43.68-22.85,1.46-34.29,2.24l-3-11.25-.19-1.23v-.35l0-.38,0-.76-.09-1.51-.16-3-.3-5.52-1.08-4.45-3-8.28-2.74-9.77-.59-3.93.46-18.77-1.44-12.24.17-11.29,1.28-11.42v-1.24l.3-3.23v-3.69l-.25-3.06-.33-1.59-1.84-5.79c-.31-1-.67-2-.92-3.07l-.91-3.41-4.66-28.48-4.51-28.22-2.24-14.2-1.12-7.1c-.17-1.19-.4-2.37-.53-3.56l-.36-3.57-.72-7.14c-.11-1.21-.28-2.32-.43-3.46l-.47-3.49-.95-7c-.17-1.16-.29-2.35-.52-3.47l-.66-3.66,0-.28-.26-2.83c-.1-.9-.15-1.79-.29-2.68l-.65-5-1.24-4.6-7-17.29-4.06-12.47-1.17-2.26-.67-1.28-.35-.62-1.53-1.53L431,937l-5.59-4L415.44,924c-1.62-1.47-3.2-2.86-4.85-4.4l-5.19-5.2-2.75-4.76-2.22-7-1.69-7.52c-.27-1.2-.55-2.41-.78-3.73s-.47-2.58-.64-3.9l-1-7.4-.92-7.63-.21-9.08-.11-4.39c-.05-1.47-.16-2.94-.24-4.4l-1.06-17.91.61-15.1.29-7.4.07-7.11-1.31-18.26-.66-9.24c-.23-3.08-.39-6.16-.76-9.23l-3.74-35.26-.48-.64-17-18.78-12.21-10.85c-4.16-3.68-8.43-7.24-12.64-10.87l-25.37-21.63-3.1-2.61-3.31-2.59c-2.23-1.69-4.35-3.52-6.47-5.34l-12.76-10.9-12.78-10.85-6.38-5.43-6.5-5.81-7.85-8.56-4.24-5.36-9.33-15.11-4.7-10.11-5-16-3.35-7.84-11.19,4.77-13.87,6.2-19.11,8.55L178,590.93l-30.8,12.72-4.46-9.86L126.91,558.9c-5.35-11.59-10-23.52-15.35-35.11L95.83,488.86C94.48,486,93.26,483,92,480.07l-3.68-8.82-6.18-14.82,19.82-31,16.52,13.92c3.57,3.05,7.24,6.06,10.93,9.05l5.51,4.5c.16.14.34.27.51.41l45.4,5.46c5.27-6,10.53-12,15.7-18.13l22.67-27.72c15.08-18.5,29.88-37.23,45.2-55.54l10.89-19.28,2.61-10.76m48.42,25.79L294.08,336l-16.14-8.6-8.07-4.3c-1.35-.7-2.67-1.47-4.05-2.1s-2.81-1.19-4.15-1.93a7.91,7.91,0,0,1-2.17-1.64c-.74-.7-.4-1.75-.34-2.62l.41-5.47.81-11,1.63-21.9"/></g><g id="勝部桑原"><path class="cls-3" d="M250.32,275.57l-1.63,21.9-1,13c-.08,1.54-.32,3.12-.3,4.63a20.43,20.43,0,0,0,.45,4.31c.15.66.3,1.27.5,1.89a7.81,7.81,0,0,0,.94,1.9,16.26,16.26,0,0,0,2.78,3.17,26.68,26.68,0,0,0,6.15,4c1.16.56,2.37,1.09,3.54,1.64l2.58,1.38,8.07,4.3,16.14,8.59,32.29,17.2m-56.5-30.09-9.62,17.32-10.78,13c-3.83,4.6-7.52,9.28-11.29,13.92l-22.51,27.83L187.61,433.1c-3.8,4.47-7.64,8.88-11.49,13.3l-35.89-4.32-3.39-2.77c-3.63-2.94-7.24-5.9-10.83-9l-21.56-18.18-5.12-4.31L69,455.28l1.18,2.83,7.4,17.74,3.7,8.86c1.22,3,2.45,5.92,3.8,8.81l15.75,35c5.36,11.62,10,23.52,15.36,35.14L123.6,580l-12.1,11.8-3.08,3-3,2-5.71,2.27-3.9.81-3.68.75-9.36,1.18-8.07,2-5.11,2.2-5.12,2.81-8,5.47-6.64,5.88-.21.19-2.72,2.44-3.74,3.88-1.67,2.42-2.61,4.65-4.45,9.41L32.72,646l-.41.7-8.87,9.09-6.72,6.08L12.47,666,8.2,669.1l-4.79,2.43-2.64.94-1.66.59h-.52l-8.9,0-9.76.47-3.64.62-2.64,1.08-2.15,1.75-2.68,2.12L-38,687.84l-2.17,2.64-3.68,2.74-4.68,2.43-3.87,1.46-3.2,1,2,9.19,1.94,10.3-.31,9.91c-.07,1.54,0,3.08,0,4.62l0,5.15-2.34,13.51-4.55,14.44-5.76,12.18L-69.28,785c-1.51,2.4-3.11,4.73-4.66,7.1l-5.14,7.77L-88.21,803l-10.63,16.08-.39.59-11.71,18.55-5.33,9.76-4.18,9.37-4.81,23.06-7.6,40.34L-138.25,936-143,946l-16.14,20-18.19,19.83L-203,1011.44l-13.74,15-5.7,7.54-58.09,79.79-5.93,7.57-32.11,34.52-4.48,7.17-1.8,3.73-2.32,4.82-7.31,15.13-2.31,2.39-2.46,1.86-8.89,2.85-4.2,1.55-2.33,2.32-1.16,3.14-.83,5.2-3.37,34.72-2.41,56.54-1.9,7.77-2.86,10.47-2.69,11.57-.63,11.58.47,12.21,2.38,15.53-2.7,26.33-.95,26.8.74,8.12.69,11.86,3.8,19.35,3.81,7.92,14.91,18.4,8.88,21.56,3.15,11.68,8.17,4.47,3,2.83.49.46,10.16,7.35,3.84,2.57,6.85,5.32,19.47,15.61,3.08,13.78-.79,10-.69,13.64,1.28,23,1.79,26.77,1.9,32.19v13.31l-2.36,12.11-4.31,13.83-10.3,29.88-.81,3.28,3.13,19.33,2.13,16.49,1.14,20.18-.57,24-12.47,29-3.22,7-8.18,16.31-4.94,11.6-5.12,10.57-7.46,21.31-2.85,14.82-5.26,30.28-3.27,10.94-7.1,11.94-5.12,6-15.91,13.93L-385.34,2027l-5.26,8.17-11.91,25.33-7.38,12.91-6.24,7-10.37,13-11.21,19.72-8.94,20.87-4.54,12.91-4.54,16.89-4.65,17-.9,8.31-.91,4.56-.7,6.37-.08,7.75,1.5,7.65,1.91,5.58,8.82,15.56,1.34,2.5.49,4.16-.33,1.83-2.66,5.74.08,1.5,5.91,34.79.83,4.08-1.9,9.51-3.21,7.45-1.49,1.72"/><path class="cls-6" d="M250.32,275.57l-1.63,21.9-1,13c-.08,1.54-.32,3.12-.3,4.63a20.43,20.43,0,0,0,.45,4.31c.15.66.3,1.27.5,1.89a7.81,7.81,0,0,0,.94,1.9,16.26,16.26,0,0,0,2.78,3.17,26.68,26.68,0,0,0,6.15,4c1.16.56,2.37,1.09,3.54,1.64l2.58,1.38,8.07,4.3,16.14,8.59,32.29,17.2m-56.5-30.09-9.62,17.32-10.78,13c-3.83,4.6-7.52,9.28-11.29,13.92l-22.51,27.83L187.61,433.1c-3.8,4.47-7.64,8.88-11.49,13.3l-35.89-4.32-3.39-2.77c-3.63-2.94-7.24-5.9-10.83-9l-21.56-18.18-5.12-4.31L69,455.28l1.18,2.83,7.4,17.74,3.7,8.86c1.22,3,2.45,5.92,3.8,8.81l15.75,35c5.36,11.62,10,23.52,15.36,35.14L123.6,580l-12.1,11.8-3.08,3-3,2-5.71,2.27-3.9.81-3.68.75-9.36,1.18-8.07,2-5.11,2.2-5.12,2.81-8,5.47-6.64,5.88-.21.19-2.72,2.44-3.74,3.88-1.67,2.42-2.61,4.65-4.45,9.41L32.72,646l-.41.7-8.87,9.09-6.72,6.08L12.47,666,8.2,669.1l-4.79,2.43-2.64.94-1.66.59h-.52l-8.9,0-9.76.47-3.64.62-2.64,1.08-2.15,1.75-2.68,2.12L-38,687.84l-2.17,2.64-3.68,2.74-4.68,2.43-3.87,1.46-3.2,1,2,9.19,1.94,10.3-.31,9.91c-.07,1.54,0,3.08,0,4.62l0,5.15-2.34,13.51-4.55,14.44-5.76,12.18L-69.28,785c-1.51,2.4-3.11,4.73-4.66,7.1l-5.14,7.77L-88.21,803l-10.63,16.08-.39.59-11.71,18.55-5.33,9.76-4.18,9.37-4.81,23.06-7.6,40.34L-138.25,936-143,946l-16.14,20-18.19,19.83L-203,1011.44l-13.74,15-5.7,7.54-58.09,79.79-5.93,7.57-32.11,34.52-4.48,7.17-1.8,3.73-2.32,4.82-7.31,15.13-2.31,2.39-2.46,1.86-8.89,2.85-4.2,1.55-2.33,2.32-1.16,3.14-.83,5.2-3.37,34.72-2.41,56.54-1.9,7.77-2.86,10.47-2.69,11.57-.63,11.58.47,12.21,2.38,15.53-2.7,26.33-.95,26.8.74,8.12.69,11.86,3.8,19.35,3.81,7.92,14.91,18.4,8.88,21.56,3.15,11.68,8.17,4.47,3,2.83.49.46,10.16,7.35,3.84,2.57,6.85,5.32,19.47,15.61,3.08,13.78-.79,10-.69,13.64,1.28,23,1.79,26.77,1.9,32.19v13.31l-2.36,12.11-4.31,13.83-10.3,29.88-.81,3.28,3.13,19.33,2.13,16.49,1.14,20.18-.57,24-12.47,29-3.22,7-8.18,16.31-4.94,11.6-5.12,10.57-7.46,21.31-2.85,14.82-5.26,30.28-3.27,10.94-7.1,11.94-5.12,6-15.91,13.93L-385.34,2027l-5.26,8.17-11.91,25.33-7.38,12.91-6.24,7-10.37,13-11.21,19.72-8.94,20.87-4.54,12.91-4.54,16.89-4.65,17-.9,8.31-.91,4.56-.7,6.37-.08,7.75,1.5,7.65,1.91,5.58,8.82,15.56,1.34,2.5.49,4.16-.33,1.83-2.66,5.74.08,1.5,5.91,34.79.83,4.08-1.9,9.51-3.21,7.45-1.49,1.72"/></g><g id="まる"><line class="cls-3" x1="461.26" y1="986.82" x2="461.26" y2="986.82"/><path class="cls-7" d="M454.17,959.18l-3-7.35-4.23-13-1.68-3.24-.77-1.45-1.18-2.08-3.93-4-2.33-1.2-4.37-3.12-9.27-8.34-4.72-4.27-3.93-3.94-1.34-2.33-1.69-5.28-1.54-6.86c-.27-1.19-.54-2.38-.73-3.48s-.41-2.25-.56-3.38l-.93-7.21-.85-7-.2-8.64-.11-4.47c-.05-1.49-.16-3-.24-4.45l-1-17.49.59-14.64.3-7.47.07-7.77-1.34-18.82-.67-9.3c-.23-3.1-.4-6.2-.77-9.28L400.83,742l-1-9.68L396.88,727l-17.82-19.65L366.3,696.06c-4.18-3.71-8.46-7.28-12.69-10.92l-25.49-21.72-3.28-2.77-3.27-2.56c-2.21-1.68-4.31-3.48-6.41-5.29L302.51,642l-12.69-10.78-6.34-5.39-6-5.33-7.17-7.81-3.54-4.47-8.63-14-4.08-8.76-4.93-15.78L247,564.63"/><line class="cls-3" x1="242.92" y1="550.89" x2="242.92" y2="550.89"/><line class="cls-8" x1="271.46" y1="554.14" x2="285.56" y2="557.2"/><line class="cls-3" x1="299.65" y1="560.25" x2="299.65" y2="560.25"/><path class="cls-9" d="M296.27,533.33q-1.42-11.21-2.93-22.39l-4.6-35.39-2.24-17.84-1.61-9.06-2-9.11-2.56-7.91-1.65-3.95c-.53-1.24-1-2.51-1.59-3.72l-3.7-7.42-5.89-9.84-5-5.83c-.8-.9-1.52-1.83-2.38-2.71l-2.66-2.82-2.12-1.93"/><line class="cls-3" x1="244.86" y1="384.78" x2="244.86" y2="384.78"/><line class="cls-3" x1="461.26" y1="986.82" x2="461.26" y2="986.82"/><path class="cls-10" d="M465.1,1016l.29,2.86c.12,1.17.35,2.33.52,3.5l1.11,7,2.2,14,4.51,28.19,4.56,27.89.71,2.66c.23,1,.58,2,.88,2.93l2,6.17.6,2.88.35,4.26V1123l-.3,3.23v1.34l-1.29,11.51-.15,10,1.45,12.3-.46,18.58.33,2.19,2.43,8.66,3.06,8.48,1.19,4.91"/><polyline class="cls-11" points="610.04 1171.91 609.73 1166.29 607.96 1151.47 604.91 1133.08 600.69 1113.12 600.41 1111.8 590.33 1074.27 588.89 1069.52 583.9 1052.96 578.94 1039.63 573.33 1025.98 570.12 1018.14 566.44 1010.25 562.1 1002.04 556.33 992.55 550.97 984.33 548.06 979.9 543.36 972.69 530.03 949.2 526.55 944.55 518.88 932.41 511.81 917.17 496.2 880.99 495.39 879.1 489.39 864.95 482.7 852.13 473.81 838.27 447.44 803.02 431.04 781.46 422.97 771.03 409.47 753.32"/><line class="cls-3" x1="400.83" y1="741.98" x2="400.83" y2="741.98"/><line class="cls-3" x1="225.21" y1="384.48" x2="225.21" y2="384.48"/><path class="cls-12" d="M248.64,403.16l.59.54,2.2,2.34c.8.8,1.53,1.75,2.3,2.61l4.23,4.93,5.14,8.6,3.35,6.68c.55,1.15,1,2.35,1.5,3.52l1.38,3.32,2.24,6.91,1.83,8.32,1.51,8.52L277.12,477l4.6,35.42q1.21,9,2.36,18"/><line class="cls-3" x1="285.97" y1="545.29" x2="285.97" y2="545.29"/><polyline class="cls-13" points="258.33 539.85 252.29 539.06 103.7 541.37 99.28 540.2 80.83 530.8 66.13 521.08 55.68 512.02"/><line class="cls-3" x1="45.03" y1="502.8" x2="45.03" y2="502.8"/><path class="cls-14" d="M25.06,525.5l-6.49,7.1-7.07,5L4,542.92l-3.38,2.4-27,16.69-1.81,1.23-.85.57-5.76,3.89-9.95,8-7.91,8.62-9.19,14.12-3.29,8-2.1,4.12-3.16,8-1.71,6.15-1.65,8.48-.57,6-.12,6.9.56,6.52,5.08,29.77,1.59,19.47,2.19,8.06,1.61,8.59-.27,8.82c-.07,1.58,0,3.16,0,4.74l0,4.23-2,11.72L-69.8,761l-2.55,5.4"/></g></g></g></svg>