<svg id="routes" xmlns="http://www.w3.org/2000/svg" xmlns:xlink="http://www.w3.org/1999/xlink" viewBox="0 0 1024 1024"><defs><style>.cls-1,.cls-3,.cls-4,.cls-5,.cls-6,.cls-7,.cls-8{fill:none;}.cls-2{clip-path:url(#clip-path);}.cls-3,.cls-6,.cls-7,.cls-8{stroke:#231815;stroke-width:8.79px;}.cls-3,.cls-4,.cls-5,.cls-6,.cls-7,.cls-8{stroke-linecap:round;stroke-miterlimit:10;}.cls-4{stroke:#ef845d;}.cls-4,.cls-5{stroke-width:4.4px;}.cls-5{stroke:#ebca1b;}.cls-6{stroke-dasharray:0 29.4;}.cls-7{stroke-dasharray:0 30.35;}.cls-8{stroke-dasharray:0 28.52;}</style><clipPath id="clip-path"><rect class="cls-1" x="-935" y="-4092" width="11720" height="11720"/></clipPath></defs><title>3231_7145</title><g class="cls-2"><g id="日ノ丸線"><g id="日置小畑"><path class="cls-3" d="M483.39,1322.62l4-4.83,4-6.6,2.73-8.55,1.86-12,1.37-10,.14-3.4,1-5.46,2-4.35,3.21-4.86,3.85-3.37,10.9-8,3.36-3.38,3.53-4.69,3.2-5.46,1.51-1.6,3.63-5.32.79-1.63,5-8.2,7.2-9.84,4.5-5,2.72-2.26,8.43-7.15.68-1.14,1.4-7.58,8.27-36.33,2.23-6.78,1.91-4.35,30.48-57.66,9-21.59.3-.34,14.77-36.89,5.77-15.47,1.12-6.46.49-2.72v-.66l2.4-19.95,2.4-13.35,1.28-9.18,1.58-23.08,1.82-9.86.42-5.61,1.77-14,1.91-8.69,1-5.52.3-7.23-.14-29.54.44-3.67,1.78-8.8v-2.54l-1.71-1.89.26-5.12-.33-7.58-.46-3.55-2.42-12.55-3.66-11.29-1.14-4.52-1.77-13.7-.61-2.77-1-4.29-.46-2.26-5.15-14.35-2.56-8.7L633,734.74,631,716.83l-.33-10.78-.65-8.37-1.12-6.79-1.44-5.63-2.37-7.43-1.94-4.69-3.38-7.27-2.86-8-2-10.3-.3-4-.46-3.78-1.1-21.88-1.3-11-.52-6.61-.16-18.67-.3-6.47v-2.89L610,569.7,607.47,562,601.88,545l-1.79-6.75-1.77-8.55-.16-.8-6.22-12.7-5-8.55-6.1-9.35L576,492l-5.42-6.3-6.92-7.09-3.19-4.83-.49-.46-2.89-6.29-2.56-8.41-1.28-6.29-2.7-12.87-3.24-16.76-7.22-39.24-3-13.64-1.4-8.87-.48-8.35.3-4.83,1.12-8.56,1.44-6.12,1-3.52,4.49-15,4.19-13.9L553,286.07l3.65-8.69,4-8.38L572,248.18l1.28-2.23,15.42-26.12L598,203l4.47-8.7.81-1.6,2-4.5-5.14.19-2.48.49-3.71,1.1L582.73,195c-1.92.87-3.88,1.64-5.83,2.44l-6.13,2.5L565,201.57l-6.66.76c-2.06.23-4.06.27-6.1.41l-12.18.73-24.27,1.42c-11.43.68-22.85,1.46-34.29,2.24l-3-11.25-.19-1.23v-.35l0-.38,0-.76-.09-1.51-.16-3-.3-5.52-1.08-4.45-3-8.28-2.74-9.77-.59-3.93.46-18.77-1.44-12.24.17-11.29L470.77,103v-1.24l.3-3.23V94.79l-.25-3.06-.33-1.59-1.84-5.79c-.31-1-.67-2-.92-3.07l-.91-3.41-4.66-28.48-4.51-28.22L455.41,7l-1.12-7.1c-.17-1.19-.4-2.37-.53-3.56l-.36-3.57-.72-7.14c-.11-1.21-.28-2.32-.43-3.46l-.47-3.49-.95-7c-.17-1.16-.29-2.35-.52-3.47l-.66-3.66,0-.28-.26-2.83c-.1-.9-.15-1.79-.29-2.68l-.65-5-1.24-4.6-7-17.29-4.06-12.47-1.17-2.26-.67-1.28-.35-.62-1.53-1.53L431-87l-5.59-4L415.44-100c-1.62-1.47-3.2-2.86-4.85-4.4l-5.19-5.2-2.75-4.76-2.22-7-1.69-7.52c-.27-1.2-.55-2.41-.78-3.73s-.47-2.58-.64-3.9l-1-7.4-.92-7.63-.21-9.08-.11-4.39c-.05-1.47-.16-2.94-.24-4.4l-1.06-17.91.61-15.1.29-7.4.07-7.11-1.31-18.26-.66-9.24c-.23-3.08-.39-6.16-.76-9.23l-3.74-35.26-.48-.64-17-18.78-12.21-10.85c-4.16-3.68-8.43-7.24-12.64-10.87l-25.37-21.63-3.1-2.61-3.31-2.59c-2.23-1.69-4.35-3.52-6.47-5.34l-12.76-10.9-12.78-10.85-6.38-5.43-6.5-5.81-7.85-8.56-4.24-5.36-9.33-15.11-4.7-10.11-5-15.95-3.35-7.84-11.19,4.77-13.87,6.2-19.11,8.55L178-433.07l-30.8,12.72-4.46-9.86L126.91-465.1c-5.35-11.59-10-23.52-15.35-35.11L95.83-535.14C94.48-538,93.26-541,92-543.93l-3.68-8.82-6.18-14.82,19.82-31,16.52,13.92c3.57,3,7.24,6.06,10.93,9l5.51,4.5c.16.14.34.27.51.41l45.4,5.46c5.27-6,10.53-12,15.7-18.13l22.67-27.72c15.08-18.5,29.88-37.23,45.2-55.54l10.89-19.28,2.61-10.76m48.42,25.79L294.08-688l-16.14-8.6-8.07-4.3c-1.35-.7-2.67-1.47-4.05-2.1s-2.81-1.19-4.15-1.93a7.91,7.91,0,0,1-2.17-1.64c-.74-.7-.4-1.75-.34-2.62l.41-5.47.81-10.95,1.63-21.9"/><path class="cls-4" d="M483.39,1322.62l4-4.83,4-6.6,2.73-8.55,1.86-12,1.37-10,.14-3.4,1-5.46,2-4.35,3.21-4.86,3.85-3.37,10.9-8,3.36-3.38,3.53-4.69,3.2-5.46,1.51-1.6,3.63-5.32.79-1.63,5-8.2,7.2-9.84,4.5-5,2.72-2.26,8.43-7.15.68-1.14,1.4-7.58,8.27-36.33,2.23-6.78,1.91-4.35,30.48-57.66,9-21.59.3-.34,14.77-36.89,5.77-15.47,1.12-6.46.49-2.72v-.66l2.4-19.95,2.4-13.35,1.28-9.18,1.58-23.08,1.82-9.86.42-5.61,1.77-14,1.91-8.69,1-5.52.3-7.23-.14-29.54.44-3.67,1.78-8.8v-2.54l-1.71-1.89.26-5.12-.33-7.58-.46-3.55-2.42-12.55-3.66-11.29-1.14-4.52-1.77-13.7-.61-2.77-1-4.29-.46-2.26-5.15-14.35-2.56-8.7L633,734.74,631,716.83l-.33-10.78-.65-8.37-1.12-6.79-1.44-5.63-2.37-7.43-1.94-4.69-3.38-7.27-2.86-8-2-10.3-.3-4-.46-3.78-1.1-21.88-1.3-11-.52-6.61-.16-18.67-.3-6.47v-2.89L610,569.7,607.47,562,601.88,545l-1.79-6.75-1.77-8.55-.16-.8-6.22-12.7-5-8.55-6.1-9.35L576,492l-5.42-6.3-6.92-7.09-3.19-4.83-.49-.46-2.89-6.29-2.56-8.41-1.28-6.29-2.7-12.87-3.24-16.76-7.22-39.24-3-13.64-1.4-8.87-.48-8.35.3-4.83,1.12-8.56,1.44-6.12,1-3.52,4.49-15,4.19-13.9L553,286.07l3.65-8.69,4-8.38L572,248.18l1.28-2.23,15.42-26.12L598,203l4.47-8.7.81-1.6,2-4.5-5.14.19-2.48.49-3.71,1.1L582.73,195c-1.92.87-3.88,1.64-5.83,2.44l-6.13,2.5L565,201.57l-6.66.76c-2.06.23-4.06.27-6.1.41l-12.18.73-24.27,1.42c-11.43.68-22.85,1.46-34.29,2.24l-3-11.25-.19-1.23v-.35l0-.38,0-.76-.09-1.51-.16-3-.3-5.52-1.08-4.45-3-8.28-2.74-9.77-.59-3.93.46-18.77-1.44-12.24.17-11.29L470.77,103v-1.24l.3-3.23V94.79l-.25-3.06-.33-1.59-1.84-5.79c-.31-1-.67-2-.92-3.07l-.91-3.41-4.66-28.48-4.51-28.22L455.41,7l-1.12-7.1c-.17-1.19-.4-2.37-.53-3.56l-.36-3.57-.72-7.14c-.11-1.21-.28-2.32-.43-3.46l-.47-3.49-.95-7c-.17-1.16-.29-2.35-.52-3.47l-.66-3.66,0-.28-.26-2.83c-.1-.9-.15-1.79-.29-2.68l-.65-5-1.24-4.6-7-17.29-4.06-12.47-1.17-2.26-.67-1.28-.35-.62-1.53-1.53L431-87l-5.59-4L415.44-100c-1.62-1.47-3.2-2.86-4.85-4.4l-5.19-5.2-2.75-4.76-2.22-7-1.69-7.52c-.27-1.2-.55-2.41-.78-3.73s-.47-2.58-.64-3.9l-1-7.4-.92-7.63-.21-9.08-.11-4.39c-.05-1.47-.16-2.94-.24-4.4l-1.06-17.91.61-15.1.29-7.4.07-7.11-1.31-18.26-.66-9.24c-.23-3.08-.39-6.16-.76-9.23l-3.74-35.26-.48-.64-17-18.78-12.21-10.85c-4.16-3.68-8.43-7.24-12.64-10.87l-25.37-21.63-3.1-2.61-3.31-2.59c-2.23-1.69-4.35-3.52-6.47-5.34l-12.76-10.9-12.78-10.85-6.38-5.43-6.5-5.81-7.85-8.56-4.24-5.36-9.33-15.11-4.7-10.11-5-15.95-3.35-7.84-11.19,4.77-13.87,6.2-19.11,8.55L178-433.07l-30.8,12.72-4.46-9.86L126.91-465.1c-5.35-11.59-10-23.52-15.35-35.11L95.83-535.14C94.48-538,93.26-541,92-543.93l-3.68-8.82-6.18-14.82,19.82-31,16.52,13.92c3.57,3,7.24,6.06,10.93,9l5.51,4.5c.16.14.34.27.51.41l45.4,5.46c5.27-6,10.53-12,15.7-18.13l22.67-27.72c15.08-18.5,29.88-37.23,45.2-55.54l10.89-19.28,2.61-10.76m48.42,25.79L294.08-688l-16.14-8.6-8.07-4.3c-1.35-.7-2.67-1.47-4.05-2.1s-2.81-1.19-4.15-1.93a7.91,7.91,0,0,1-2.17-1.64c-.74-.7-.4-1.75-.34-2.62l.41-5.47.81-10.95,1.63-21.9"/></g><g id="勝部桑原"><path class="cls-3" d="M250.32-748.43l-1.63,21.9-1,13c-.08,1.54-.32,3.12-.3,4.63a20.43,20.43,0,0,0,.45,4.31c.15.66.3,1.27.5,1.89a7.81,7.81,0,0,0,.94,1.9,16.26,16.26,0,0,0,2.78,3.17,26.68,26.68,0,0,0,6.15,4c1.16.56,2.37,1.09,3.54,1.64l2.58,1.38,8.07,4.3,16.14,8.59,32.29,17.2m-56.5-30.09-9.62,17.32-10.78,13c-3.83,4.6-7.52,9.28-11.29,13.92l-22.51,27.83L187.61-590.9c-3.8,4.47-7.64,8.88-11.49,13.3l-35.89-4.32-3.39-2.77c-3.63-2.94-7.24-5.9-10.83-9l-21.56-18.18-5.12-4.31L69-568.72l1.18,2.83,7.4,17.74,3.7,8.86c1.22,3,2.45,5.92,3.8,8.81l15.75,35c5.36,11.62,10,23.52,15.36,35.14L123.6-444l-12.1,11.8-3.08,3-3,2-5.71,2.27-3.9.81-3.68.75-9.36,1.18-8.07,2-5.11,2.2-5.12,2.81-8,5.47-6.64,5.88-.21.19-2.72,2.44-3.74,3.88-1.67,2.42-2.61,4.65-4.45,9.41L32.72-378l-.41.7-8.87,9.09-6.72,6.08L12.47-358,8.2-354.9l-4.79,2.43-2.64.94-1.66.59h-.52l-8.9,0-9.76.47-3.64.62-2.64,1.08-2.15,1.75-2.68,2.12L-38-336.16l-2.17,2.64-3.68,2.74-4.68,2.43-3.87,1.46-3.2,1,2,9.19,1.94,10.3-.31,9.91c-.07,1.54,0,3.08,0,4.62l0,5.15-2.34,13.51-4.55,14.44-5.76,12.18L-69.28-239c-1.51,2.4-3.11,4.73-4.66,7.1l-5.14,7.77L-88.21-221l-10.63,16.08-.39.59-11.71,18.55-5.33,9.76-4.18,9.37-4.81,23.06-7.6,40.34L-138.25-88-143-78l-16.14,20-18.19,19.83L-203-12.56l-13.74,15-5.7,7.54-58.09,79.79-5.93,7.57-32.11,34.52-4.48,7.17-1.8,3.73-2.32,4.82-7.31,15.13-2.31,2.39-2.46,1.86-8.89,2.85-4.2,1.55-2.33,2.32-1.16,3.14-.83,5.2-3.37,34.72-2.41,56.54-1.9,7.77-2.86,10.47-2.69,11.57-.63,11.58.47,12.21,2.38,15.53-2.7,26.33-.95,26.8.74,8.12.69,11.86,3.8,19.35,3.81,7.92,14.91,18.4,8.88,21.56,3.15,11.68,8.17,4.47,3,2.83.49.46,10.16,7.35,3.84,2.57,6.85,5.32,19.47,15.61,3.08,13.78-.79,10-.69,13.64,1.28,23,1.79,26.77,1.9,32.19v13.31l-2.36,12.11-4.31,13.83-10.3,29.88-.81,3.28,3.13,19.33,2.13,16.49,1.14,20.18-.57,24-12.47,29-3.22,7-8.18,16.31-4.94,11.6-5.12,10.57-7.46,21.31L-333,915.48l-5.26,30.28-3.27,10.94-7.1,11.94-5.12,6-15.91,13.93L-385.34,1003l-5.26,8.17-11.91,25.33-7.38,12.91-6.24,7-10.37,13-11.21,19.72-8.94,20.87-4.54,12.91-4.54,16.89-4.65,17-.9,8.31-.91,4.56-.7,6.37-.08,7.75,1.5,7.65,1.91,5.58,8.82,15.56,1.34,2.5.49,4.16-.33,1.83-2.66,5.74.08,1.5,5.91,34.79.83,4.08-1.9,9.51-3.21,7.45-1.49,1.72"/><path class="cls-5" d="M250.32-748.43l-1.63,21.9-1,13c-.08,1.54-.32,3.12-.3,4.63a20.43,20.43,0,0,0,.45,4.31c.15.66.3,1.27.5,1.89a7.81,7.81,0,0,0,.94,1.9,16.26,16.26,0,0,0,2.78,3.17,26.68,26.68,0,0,0,6.15,4c1.16.56,2.37,1.09,3.54,1.64l2.58,1.38,8.07,4.3,16.14,8.59,32.29,17.2m-56.5-30.09-9.62,17.32-10.78,13c-3.83,4.6-7.52,9.28-11.29,13.92l-22.51,27.83L187.61-590.9c-3.8,4.47-7.64,8.88-11.49,13.3l-35.89-4.32-3.39-2.77c-3.63-2.94-7.24-5.9-10.83-9l-21.56-18.18-5.12-4.31L69-568.72l1.18,2.83,7.4,17.74,3.7,8.86c1.22,3,2.45,5.92,3.8,8.81l15.75,35c5.36,11.62,10,23.52,15.36,35.14L123.6-444l-12.1,11.8-3.08,3-3,2-5.71,2.27-3.9.81-3.68.75-9.36,1.18-8.07,2-5.11,2.2-5.12,2.81-8,5.47-6.64,5.88-.21.19-2.72,2.44-3.74,3.88-1.67,2.42-2.61,4.65-4.45,9.41L32.72-378l-.41.7-8.87,9.09-6.72,6.08L12.47-358,8.2-354.9l-4.79,2.43-2.64.94-1.66.59h-.52l-8.9,0-9.76.47-3.64.62-2.64,1.08-2.15,1.75-2.68,2.12L-38-336.16l-2.17,2.64-3.68,2.74-4.68,2.43-3.87,1.46-3.2,1,2,9.19,1.94,10.3-.31,9.91c-.07,1.54,0,3.08,0,4.62l0,5.15-2.34,13.51-4.55,14.44-5.76,12.18L-69.28-239c-1.51,2.4-3.11,4.73-4.66,7.1l-5.14,7.77L-88.21-221l-10.63,16.08-.39.59-11.71,18.55-5.33,9.76-4.18,9.37-4.81,23.06-7.6,40.34L-138.25-88-143-78l-16.14,20-18.19,19.83L-203-12.56l-13.74,15-5.7,7.54-58.09,79.79-5.93,7.57-32.11,34.52-4.48,7.17-1.8,3.73-2.32,4.82-7.31,15.13-2.31,2.39-2.46,1.86-8.89,2.85-4.2,1.55-2.33,2.32-1.16,3.14-.83,5.2-3.37,34.72-2.41,56.54-1.9,7.77-2.86,10.47-2.69,11.57-.63,11.58.47,12.21,2.38,15.53-2.7,26.33-.95,26.8.74,8.12.69,11.86,3.8,19.35,3.81,7.92,14.91,18.4,8.88,21.56,3.15,11.68,8.17,4.47,3,2.83.49.46,10.16,7.35,3.84,2.57,6.85,5.32,19.47,15.61,3.08,13.78-.79,10-.69,13.64,1.28,23,1.79,26.77,1.9,32.19v13.31l-2.36,12.11-4.31,13.83-10.3,29.88-.81,3.28,3.13,19.33,2.13,16.49,1.14,20.18-.57,24-12.47,29-3.22,7-8.18,16.31-4.94,11.6-5.12,10.57-7.46,21.31L-333,915.48l-5.26,30.28-3.27,10.94-7.1,11.94-5.12,6-15.91,13.93L-385.34,1003l-5.26,8.17-11.91,25.33-7.38,12.91-6.24,7-10.37,13-11.21,19.72-8.94,20.87-4.54,12.91-4.54,16.89-4.65,17-.9,8.31-.91,4.56-.7,6.37-.08,7.75,1.5,7.65,1.91,5.58,8.82,15.56,1.34,2.5.49,4.16-.33,1.83-2.66,5.74.08,1.5,5.91,34.79.83,4.08-1.9,9.51-3.21,7.45-1.49,1.72"/></g><g id="まる"><path class="cls-6" d="M465.1-8l.29,2.86c.12,1.17.35,2.33.52,3.5l1.11,7,2.2,14,4.51,28.19,4.56,27.89.71,2.66c.23,1,.58,2,.88,2.93l2,6.17.6,2.88.35,4.26V99l-.3,3.23v1.34l-1.29,11.51-.15,10,1.45,12.3L482,155.94l.33,2.19,2.43,8.66,3.06,8.48,1.19,4.91"/><line class="cls-3" x1="490.36" y1="194.78" x2="490.36" y2="194.78"/><path class="cls-7" d="M520.65,192.87l18.63-1.1,12-.71c2-.14,4-.18,6-.41l5.4-.61,4.19-1.23,5.49-2.23c1.92-.79,3.84-1.55,5.74-2.41L589.89,179l4.18-1.25"/><line class="cls-3" x1="609.13" y1="176.36" x2="609.13" y2="176.36"/><polyline class="cls-8" points="610.04 147.91 609.73 142.29 607.96 127.47 604.91 109.08 600.69 89.12 600.41 87.8 590.33 50.27 588.89 45.52 583.9 28.96 578.94 15.63 573.33 1.98 570.12 -5.86 566.44 -13.75 562.1 -21.96 556.33 -31.45 550.97 -39.67 548.06 -44.1 543.36 -51.31 530.03 -74.8 526.55 -79.45 518.88 -91.59 511.81 -106.83 496.2 -143.01 495.39 -144.9 489.39 -159.05 482.7 -171.87 473.81 -185.73 447.44 -220.98 431.04 -242.54 422.97 -252.97 409.47 -270.68"/></g></g></g></svg>