<svg id="routes" xmlns="http://www.w3.org/2000/svg" xmlns:xlink="http://www.w3.org/1999/xlink" viewBox="0 0 1024 1024"><defs><style>.cls-1,.cls-3,.cls-4{fill:none;}.cls-2{clip-path:url(#clip-path);}.cls-3{stroke:#231815;stroke-width:8.79px;}.cls-3,.cls-4{stroke-linecap:round;stroke-miterlimit:10;}.cls-4{stroke:#00ada9;stroke-width:4.4px;}</style><clipPath id="clip-path"><rect class="cls-1" x="-935" y="-8188" width="11720" height="11720"/></clipPath></defs><title>3235</title><g class="cls-2"><g id="日ノ丸線"><g id="佐治4"><polyline class="cls-3" points="746.04 887.38 752.28 884.15 757.76 881.1 764.02 878.07 769.12 876.1 771.12 875.13 775.75 873.99 779.71 873.73 781.41 873.85 784.63 874.33 790.22 875.96 804.77 882.55 807.99 883.52 812.93 883.98 815.18 883.52 821.1 881.9 829.09 878.53 833.77 877.02 838.06 876.67 840.29 876.9 844.79 877.7 850.21 879.5 854.94 880.64 860.41 881.47 864.76 881.41 867.33 880.93 870.05 879.7 872.29 878.18 876.23 875.05 879 872.34 879.58 871.39 880.86 869.54 884.28 862.29 887.17 856.32 889.57 853.1 894.04 849.25 898.37 846.36 909.57 841.05 918.05 837.68 924.76 835.75 927.02 835.26 927.97 835.09 938.03 835.09 943.32 835.57 950.52 836.71 957.88 837.83 967.14 838.17 970.66 837.51 980.09 835.26 989.41 832.2 997.4 830.44 998.96 830.18 1003.29 829.46 1012.88 828.49 1019.62 828.01 1023.6 828.01 1025.51 828.06 1048.05 827.61 1053.03 827.15 1059.56 826.04 1063.05 825.04 1069.57 822.58 1077.61 818.84 1083.64 815.56 1088.53 811.93 1090.35 809.85 1092.25 806.77 1104.9 782.16 1108.28 775.57 1110.98 770.92 1112.73 769.12 1114.24 768.44 1116.34 768.29 1120.88 770.06 1131.92 777.31 1135.06 778.99 1148.41 784.71 1155.93 784.01 1162.82 781.38 1169.63 777.82 1173.04 774.57 1176.29 766.04 1179.85 758.92 1184.5 755.28 1190.31 753.11 1199.6 752.1 1205.07 750.6 1210.23 747.85 1220.13 739.92 1223.97 737.4 1234.62 733.15 1242.46 729.76 1255.58 721.08 1257.54 719.97 1261.43 719.27 1264.66 719.39 1268.97 719.97 1285.13 722.53 1301.4 723.82 1313.35 721.92 1319.18 719.85 1320.58 719.28 1322.56 718.22 1324.77 716.94 1327.33 715.05 1330.64 712.57 1336.88 707.09 1340.05 703.61 1341.89 701.13 1347.78 691.56 1355.96 675.98 1358.17 672.52 1360.56 669.55 1367.72 665.16 1382.72 664.83 1393.38 663.5 1412.22 656 1425.55 647.5 1432.1 644.11 1435.61 642.29 1438.5 641.56 1450.6 641.27 1459.72 644.43 1468 650.17 1473.33 654.14 1476.59 656.79 1481.48 664.78 1483.58 667.44 1485.49 669.27 1488.35 670.89 1490.26 671.52 1492.83 671.87 1497.18 671.87 1508.72 670.74 1533.16 668.35 1550.93 667.32 1559.31 668.41 1573.7 671.64 1580.06 672 1587.72 671.04 1595.34 668.35 1604.75 664.04 1622.61 655.98 1629.61 654.52 1660.71 657.77 1666.72 657.94 1672.91 655.65 1678.29 652.07 1684.47 646.86 1685.62 640.19 1675.03 601.28 1676.49 596.88 1679.75 593.63 1685.94 592.33 1704.66 592.65 1724.44 589.48 1762.72 583.63 1787.58 568.84 1795.36 566.85 1802.99 568.84 1812.14 573.1 1818.04 574.94 1823.24 575.34 1830.29 574.48 1836.69 575.4 1839.32 578.48 1841.32 580.71 1849.05 595.99 1882.15 619.02 1888.1 624.51 1893.14 631.99 1897.56 642.97 1902.13 666.92 1904.88 681.25 1907.78 685.98 1914.03 692.08 1922.95 696.45 1929.13 697.73 1934.32 697.88 1941.18 695.29 1946.52 691.94 1952.77 682.32 1961.14 671.96 1973.62 660.03 1988.36 645.93 1992.35 643.13 1998.08 642.69 2002.5 643.34 2006.5 645.93 2009.96 649.5 2031.38 686.17 2046.41 710.27 2047.54 712.07 2056.47 719.83 2065.22 724.11 2070.91 725.39 2115.02 720.91 2119.85 719.37 2123.5 715.81 2126.05 710.52 2128.16 700.22 2131.35 692.74 2135.18 689.18 2140.28 684.89 2145.12 682.52 2150.5 681.89 2173.3 684.25 2187.16 686.26 2192.09 688.54 2200 695.73 2206.04 700.94 2208.41 710.16 2206.88 751.23 2209.04 755.1 2211.64 759.78 2216.44 764.92 2220.28 768.46 2222.12 769.55 2224.8 770.61 2234.84 773.6 2239.59 775.51 2242.03 777.25 2243.08 778.31 2245.25 782.14 2252.61 805 2253.89 807.83 2255.47 810.31 2257.61 812.13 2259.94 813.68 2262.36 814.34 2264.43 814.65 2269.59 814.73 2274.12 813.42 2277.27 812.39 2281.39 810.31 2285.56 807.4 2302.03 794.21 2307.31 790.52 2318.02 781.19 2323.29 776.37 2336.4 765.24 2347.78 759.12 2353.51 758.39 2368.6 756.52 2371.57 760.93 2373.55 763.01 2378.95 766.24 2383.93 768.49 2388.26 769.29 2396.07 769.27 2408.11 767.35 2418.65 764.61 2428.09 761.24 2443.93 754.31 2475.53 738.69 2480.88 736.01 2486.63 733.07 2489.04 731.64 2497.91 726.39 2500.8 724.36 2504.43 721.56 2519.73 710.72 2525.18 706.21 2529.51 702.95 2538.13 697.84 2547.09 693.5 2560.23 687.85 2562.63 686.91 2565.62 685.65 2569.82 684.17 2579.12 680.8 2588.39 678.23 2593.74 677.57 2600.22 676.78 2608.06 675.66 2612.47 675.43 2617.99 675.32 2624.23 675.98 2632.87 677.43 2642.79 679.49 2649.49 681.09 2658.3 683.34 2669.71 684.88 2680.05 686.08 2687.85 686.73 2695.43 687.2 2709.49 687.2 2714.77 686.71 2726.3 686.4 2741.16 686.08 2751.22 685.42 2757.18 685.59 2761.12 686.31 2765.78 687.71 2772.98 690.9 2777.89 692.02 2781.13 692.85 2785.22 692.96 2787.55 692.85 2807.86 686.71 2810.91 686.08 2814.99 685.94 2835.72 686.08 2844.84 684.94 2848.99 684.14 2853.02 682.74 2863.41 679.14 2870.27 676.58 2872.05 675.95 2878.59 674.49 2883.25 673.84 2889.79 673.52 2894.52 673.55 2894.52 673.54 2898.24 673.54 2911.54 674.32 2920.83 674.97 2926.12 674.95 2931.48 674.37 2951.83 669.92 2955.56 668.75 2959.17 667.12 2966.71 663.61 2971.91 661.38 2975.78 659.91 2979.85 658.07 2989.14 653.57 2999.23 649.05 3004.05 646.68 3007.21 644.88 3010.59 642.94 3028.83 633.29 3039.84 628.33 3059.83 620.76 3067.51 618.34 3074.7 615.71 3093.88 608.91 3101.52 604.48 3112.18 602.16 3124.29 599.84 3137.29 596.5 3152.47 592.67 3161.62 590.15 3172.32 587.9 3181.32 585.53 3187.49 583.22 3195.04 580.54 3196.97 580.06 3207.76 577.11 3220.8 575.4 3225.55 575.4 3230.09 575.4 3230.95 575.63 3232.95 576.2 3238.87 577.97 3241.59 578.6 3245.28 579.4 3254.24 581.34 3256.47 581.45 3261.43 582.36 3272.8 583.05 3276.9 583.42 3288.44 593.94 3293.07 595.54 3298.02 594.74 3318.14 585.64 3347.84 570.47 3352.14 570.15 3362.85 571.43 3370.83 571.27 3385.84 566.48 3435.18 546.84 3459.29 532.63 3463.35 531.95 3475.57 537.5 3504.37 546.61 3507.17 547.5 3511.89 546.84 3516.21 545.58 3527.37 543.31 3538.18 540.35 3548.2 536.25 3554.69 533.18 3562.78 527.03 3578.87 514.08 3586.23 508.36 3593.51 504.71 3608.89 497.88 3614.24 497.43 3621.29 498.22 3653.25 517.13 3660.3 518.87 3669.63 519.13 3687.07 513.67 3717.3 498.76 3731.14 490.1 3746.73 475.32 3765.37 466.66 3785.88 454.94 3794.74 449.34 3800.79 443.23 3808.87 437.91 3811.31 436.3 3821.96 428.71 3828.89 424.18 3843.53 420.99 3849.19 419.02 3877.14 404.76 3884.23 400.61 3895.11 391.64 3931.16 353.46 3937.39 347.95 3955.23 335.2 3992.55 314.26 4045.81 287 4057.11 284.01 4081.25 284.83 4109.78 285.79 4116.44 286.82 4175.03 306.8 4195.6 306.21 4202.25 307.24 4220.14 317.2 4240.37 326.2 4254.04 328.4 4274.9 326.48 4319.27 320.55 4333.04 319.52 4348.73 320.41 4365.15 323.08 4382.45 328.03 4387 332.22 4409.29 350.92 4431.55 381.82 4433.27 384.41 4438.73 390.23 4451.14 401.2 4460.97 409.32 4480.64 420.87 4484.6 423.39 4499.88 431.27 4516.28 440.1 4527.67 441.96 4542.49 442.11 4552.84 441.47 4566.57 437.4 4569.21 436.69 4577.73 434.99 4586.44 432.54 4600.05 428.6 4603.22 427.58 4621.91 422.11 4638.43 417.04 4647.18 414.31 4657.68 411.25 4662.8 409.69 4663.68 409.46 4678.3 405.85 4684.27 404.37 4699.84 400.67 4718.91 395.99 4730.59 393.22 4741.57 390.45 4773.08 383.52 4779.66 381.16 4785.2 377.89 4790.49 374.22 4798.58 367.59 4802.73 363.39 4816.88 348.75 4819.42 346.67 4823.81 344.31 4828.88 342.13 4830.5 341.44 4855.75 333.62 4875.59 327.22 4881.91 325.55 4883.17 324.88 4890.85 324.01 4897.25 324.42 4902.59 325.35 4905.98 325.95 4908.92 326.95 4910.13 327.58 4915.39 330.35 4920.7 333.88 4922.52 335.09 4926.19 337.52 4927.12 338.15 4950.8 355.03 4953.93 357.32 4973.67 369.95 4998.39 331.33 5022 304.93"/><polyline class="cls-4" points="746.04 887.38 752.28 884.15 757.76 881.1 764.02 878.07 769.12 876.1 771.12 875.13 775.75 873.99 779.71 873.73 781.41 873.85 784.63 874.33 790.22 875.96 804.77 882.55 807.99 883.52 812.93 883.98 815.18 883.52 821.1 881.9 829.09 878.53 833.77 877.02 838.06 876.67 840.29 876.9 844.79 877.7 850.21 879.5 854.94 880.64 860.41 881.47 864.76 881.41 867.33 880.93 870.05 879.7 872.29 878.18 876.23 875.05 879 872.34 879.58 871.39 880.86 869.54 884.28 862.29 887.17 856.32 889.57 853.1 894.04 849.25 898.37 846.36 909.57 841.05 918.05 837.68 924.76 835.75 927.02 835.26 927.97 835.09 938.03 835.09 943.32 835.57 950.52 836.71 957.88 837.83 967.14 838.17 970.66 837.51 980.09 835.26 989.41 832.2 997.4 830.44 998.96 830.18 1003.29 829.46 1012.88 828.49 1019.62 828.01 1023.6 828.01 1025.51 828.06 1048.05 827.61 1053.03 827.15 1059.56 826.04 1063.05 825.04 1069.57 822.58 1077.61 818.84 1083.64 815.56 1088.53 811.93 1090.35 809.85 1092.25 806.77 1104.9 782.16 1108.28 775.57 1110.98 770.92 1112.73 769.12 1114.24 768.44 1116.34 768.29 1120.88 770.06 1131.92 777.31 1135.06 778.99 1148.41 784.71 1155.93 784.01 1162.82 781.38 1169.63 777.82 1173.04 774.57 1176.29 766.04 1179.85 758.92 1184.5 755.28 1190.31 753.11 1199.6 752.1 1205.07 750.6 1210.23 747.85 1220.13 739.92 1223.97 737.4 1234.62 733.15 1242.46 729.76 1255.58 721.08 1257.54 719.97 1261.43 719.27 1264.66 719.39 1268.97 719.97 1285.13 722.53 1301.4 723.82 1313.35 721.92 1319.18 719.85 1320.58 719.28 1322.56 718.22 1324.77 716.94 1327.33 715.05 1330.64 712.57 1336.88 707.09 1340.05 703.61 1341.89 701.13 1347.78 691.56 1355.96 675.98 1358.17 672.52 1360.56 669.55 1367.72 665.16 1382.72 664.83 1393.38 663.5 1412.22 656 1425.55 647.5 1432.1 644.11 1435.61 642.29 1438.5 641.56 1450.6 641.27 1459.72 644.43 1468 650.17 1473.33 654.14 1476.59 656.79 1481.48 664.78 1483.58 667.44 1485.49 669.27 1488.35 670.89 1490.26 671.52 1492.83 671.87 1497.18 671.87 1508.72 670.74 1533.16 668.35 1550.93 667.32 1559.31 668.41 1573.7 671.64 1580.06 672 1587.72 671.04 1595.34 668.35 1604.75 664.04 1622.61 655.98 1629.61 654.52 1660.71 657.77 1666.72 657.94 1672.91 655.65 1678.29 652.07 1684.47 646.86 1685.62 640.19 1675.03 601.28 1676.49 596.88 1679.75 593.63 1685.94 592.33 1704.66 592.65 1724.44 589.48 1762.72 583.63 1787.58 568.84 1795.36 566.85 1802.99 568.84 1812.14 573.1 1818.04 574.94 1823.24 575.34 1830.29 574.48 1836.69 575.4 1839.32 578.48 1841.32 580.71 1849.05 595.99 1882.15 619.02 1888.1 624.51 1893.14 631.99 1897.56 642.97 1902.13 666.92 1904.88 681.25 1907.78 685.98 1914.03 692.08 1922.95 696.45 1929.13 697.73 1934.32 697.88 1941.18 695.29 1946.52 691.94 1952.77 682.32 1961.14 671.96 1973.62 660.03 1988.36 645.93 1992.35 643.13 1998.08 642.69 2002.5 643.34 2006.5 645.93 2009.96 649.5 2031.38 686.17 2046.41 710.27 2047.54 712.07 2056.47 719.83 2065.22 724.11 2070.91 725.39 2115.02 720.91 2119.85 719.37 2123.5 715.81 2126.05 710.52 2128.16 700.22 2131.35 692.74 2135.18 689.18 2140.28 684.89 2145.12 682.52 2150.5 681.89 2173.3 684.25 2187.16 686.26 2192.09 688.54 2200 695.73 2206.04 700.94 2208.41 710.16 2206.88 751.23 2209.04 755.1 2211.64 759.78 2216.44 764.92 2220.28 768.46 2222.12 769.55 2224.8 770.61 2234.84 773.6 2239.59 775.51 2242.03 777.25 2243.08 778.31 2245.25 782.14 2252.61 805 2253.89 807.83 2255.47 810.31 2257.61 812.13 2259.94 813.68 2262.36 814.34 2264.43 814.65 2269.59 814.73 2274.12 813.42 2277.27 812.39 2281.39 810.31 2285.56 807.4 2302.03 794.21 2307.31 790.52 2318.02 781.19 2323.29 776.37 2336.4 765.24 2347.78 759.12 2353.51 758.39 2368.6 756.52 2371.57 760.93 2373.55 763.01 2378.95 766.24 2383.93 768.49 2388.26 769.29 2396.07 769.27 2408.11 767.35 2418.65 764.61 2428.09 761.24 2443.93 754.31 2475.53 738.69 2480.88 736.01 2486.63 733.07 2489.04 731.64 2497.91 726.39 2500.8 724.36 2504.43 721.56 2519.73 710.72 2525.18 706.21 2529.51 702.95 2538.13 697.84 2547.09 693.5 2560.23 687.85 2562.63 686.91 2565.62 685.65 2569.82 684.17 2579.12 680.8 2588.39 678.23 2593.74 677.57 2600.22 676.78 2608.06 675.66 2612.47 675.43 2617.99 675.32 2624.23 675.98 2632.87 677.43 2642.79 679.49 2649.49 681.09 2658.3 683.34 2669.71 684.88 2680.05 686.08 2687.85 686.73 2695.43 687.2 2709.49 687.2 2714.77 686.71 2726.3 686.4 2741.16 686.08 2751.22 685.42 2757.18 685.59 2761.12 686.31 2765.78 687.71 2772.98 690.9 2777.89 692.02 2781.13 692.85 2785.22 692.96 2787.55 692.85 2807.86 686.71 2810.91 686.08 2814.99 685.94 2835.72 686.08 2844.84 684.94 2848.99 684.14 2853.02 682.74 2863.41 679.14 2870.27 676.58 2872.05 675.95 2878.59 674.49 2883.25 673.84 2889.79 673.52 2894.52 673.55 2894.52 673.54 2898.24 673.54 2911.54 674.32 2920.83 674.97 2926.12 674.95 2931.48 674.37 2951.83 669.92 2955.56 668.75 2959.17 667.12 2966.71 663.61 2971.91 661.38 2975.78 659.91 2979.85 658.07 2989.14 653.57 2999.23 649.05 3004.05 646.68 3007.21 644.88 3010.59 642.94 3028.83 633.29 3039.84 628.33 3059.83 620.76 3067.51 618.34 3074.7 615.71 3093.88 608.91 3101.52 604.48 3112.18 602.16 3124.29 599.84 3137.29 596.5 3152.47 592.67 3161.62 590.15 3172.32 587.9 3181.32 585.53 3187.49 583.22 3195.04 580.54 3196.97 580.06 3207.76 577.11 3220.8 575.4 3225.55 575.4 3230.09 575.4 3230.95 575.63 3232.95 576.2 3238.87 577.97 3241.59 578.6 3245.28 579.4 3254.24 581.34 3256.47 581.45 3261.43 582.36 3272.8 583.05 3276.9 583.42 3288.44 593.94 3293.07 595.54 3298.02 594.74 3318.14 585.64 3347.84 570.47 3352.14 570.15 3362.85 571.43 3370.83 571.27 3385.84 566.48 3435.18 546.84 3459.29 532.63 3463.35 531.95 3475.57 537.5 3504.37 546.61 3507.17 547.5 3511.89 546.84 3516.21 545.58 3527.37 543.31 3538.18 540.35 3548.2 536.25 3554.69 533.18 3562.78 527.03 3578.87 514.08 3586.23 508.36 3593.51 504.71 3608.89 497.88 3614.24 497.43 3621.29 498.22 3653.25 517.13 3660.3 518.87 3669.63 519.13 3687.07 513.67 3717.3 498.76 3731.14 490.1 3746.73 475.32 3765.37 466.66 3785.88 454.94 3794.74 449.34 3800.79 443.23 3808.87 437.91 3811.31 436.3 3821.96 428.71 3828.89 424.18 3843.53 420.99 3849.19 419.02 3877.14 404.76 3884.23 400.61 3895.11 391.64 3931.16 353.46 3937.39 347.95 3955.23 335.2 3992.55 314.26 4045.81 287 4057.11 284.01 4081.25 284.83 4109.78 285.79 4116.44 286.82 4175.03 306.8 4195.6 306.21 4202.25 307.24 4220.14 317.2 4240.37 326.2 4254.04 328.4 4274.9 326.48 4319.27 320.55 4333.04 319.52 4348.73 320.41 4365.15 323.08 4382.45 328.03 4387 332.22 4409.29 350.92 4431.55 381.82 4433.27 384.41 4438.73 390.23 4451.14 401.2 4460.97 409.32 4480.64 420.87 4484.6 423.39 4499.88 431.27 4516.28 440.1 4527.67 441.96 4542.49 442.11 4552.84 441.47 4566.57 437.4 4569.21 436.69 4577.73 434.99 4586.44 432.54 4600.05 428.6 4603.22 427.58 4621.91 422.11 4638.43 417.04 4647.18 414.31 4657.68 411.25 4662.8 409.69 4663.68 409.46 4678.3 405.85 4684.27 404.37 4699.84 400.67 4718.91 395.99 4730.59 393.22 4741.57 390.45 4773.08 383.52 4779.66 381.16 4785.2 377.89 4790.49 374.22 4798.58 367.59 4802.73 363.39 4816.88 348.75 4819.42 346.67 4823.81 344.31 4828.88 342.13 4830.5 341.44 4855.75 333.62 4875.59 327.22 4881.91 325.55 4883.17 324.88 4890.85 324.01 4897.25 324.42 4902.59 325.35 4905.98 325.95 4908.92 326.95 4910.13 327.58 4915.39 330.35 4920.7 333.88 4922.52 335.09 4926.19 337.52 4927.12 338.15 4950.8 355.03 4953.93 357.32 4973.67 369.95 4998.39 331.33 5022 304.93"/></g></g></g></svg>