<svg id="_13zoom" data-name="13zoom" xmlns="http://www.w3.org/2000/svg" xmlns:xlink="http://www.w3.org/1999/xlink" viewBox="0 0 1024 1024"><defs><style>.cls-1,.cls-12,.cls-13,.cls-3,.cls-41{fill:#231815;}.cls-1,.cls-10,.cls-11,.cls-2,.cls-40,.cls-5,.cls-9{stroke:#231815;}.cls-1,.cls-10,.cls-11,.cls-2,.cls-40,.cls-5,.cls-6,.cls-8,.cls-9{stroke-miterlimit:10;}.cls-1,.cls-2,.cls-40{stroke-width:4px;}.cls-2,.cls-39{fill:#fff;}.cls-3{font-size:30px;}.cls-13,.cls-3,.cls-39,.cls-41{font-family:NotoSansMonoCJKjp-Regular-90ms-RKSJ-H, Noto Sans Mono CJK JP;}.cls-21,.cls-22,.cls-23,.cls-24,.cls-25,.cls-26,.cls-27,.cls-28,.cls-29,.cls-30,.cls-31,.cls-32,.cls-33,.cls-34,.cls-35,.cls-36,.cls-37,.cls-4{font-size:20px;}.cls-10,.cls-11,.cls-40,.cls-44,.cls-5,.cls-6,.cls-8,.cls-9{fill:none;}.cls-10,.cls-5,.cls-6,.cls-8,.cls-9{stroke-linecap:round;}.cls-5,.cls-8{stroke-width:8.79px;}.cls-6{stroke:#aace36;}.cls-10,.cls-6,.cls-9{stroke-width:4.4px;}.cls-7{letter-spacing:0.25em;}.cls-8{stroke:#a97443;}.cls-9{stroke-dasharray:0 28.57;}.cls-11{stroke-width:5px;}.cls-13,.cls-41{font-size:25px;}.cls-13{letter-spacing:-0.09em;}.cls-14{letter-spacing:-0.14em;}.cls-15{letter-spacing:-0.21em;}.cls-16{letter-spacing:-0.2em;}.cls-17{letter-spacing:-0.15em;}.cls-18{letter-spacing:-0.21em;}.cls-19{letter-spacing:-0.21em;}.cls-20{letter-spacing:0.01em;}.cls-21{letter-spacing:-0.04em;}.cls-22{letter-spacing:-0.1em;}.cls-23{letter-spacing:-0.05em;}.cls-24{letter-spacing:-0.06em;}.cls-25{letter-spacing:-0.05em;}.cls-26{letter-spacing:-0.06em;}.cls-27{letter-spacing:-0.05em;}.cls-28{letter-spacing:-0.02em;}.cls-29{letter-spacing:-0.03em;}.cls-30{letter-spacing:-0.06em;}.cls-31{letter-spacing:-0.02em;}.cls-32{letter-spacing:0em;}.cls-33{letter-spacing:-0.01em;}.cls-34{letter-spacing:-0.04em;}.cls-35{letter-spacing:-0.02em;}.cls-36{letter-spacing:-0.03em;}.cls-37{letter-spacing:-0.03em;}.cls-38{clip-path:url(#clip-path);}.cls-39{font-size:48px;}.cls-42{letter-spacing:0.4em;}.cls-43{letter-spacing:0.33em;}</style><clipPath id="clip-path"><path id="_クリッピングパス_" data-name="&lt;クリッピングパス&gt;" class="cls-1" d="M294.06,417.48a25,25,0,0,0-25,25h0a25,25,0,0,0,25,25h35v-50Z"/></clipPath></defs><title>3230_7151</title><rect id="_長方形_" data-name="&lt;長方形&gt;" class="cls-2" x="661" y="613" width="400" height="100"/><text class="cls-3" transform="translate(816 652.12)">百谷線<tspan class="cls-4"><tspan x="-75" y="27.2">(local bus)Momodani line</tspan></tspan></text><line class="cls-5" x1="761" y1="693" x2="961" y2="693"/><line class="cls-6" x1="761" y1="693" x2="961" y2="693"/><rect id="_長方形_2" data-name="&lt;長方形&gt;" class="cls-2" x="-176.01" y="127.55" width="400" height="100"/><text class="cls-3" transform="translate(-77.26 166.67)">岩井<tspan class="cls-7" x="60" y="0">線(</tspan><tspan x="120" y="0">快</tspan><tspan class="cls-7" x="150" y="0">速</tspan><tspan x="187.5" y="0">)</tspan><tspan class="cls-4"><tspan x="-33.75" y="27.2">(local bus)Iwai line(Rapid)</tspan></tspan></text><line class="cls-8" x1="-76.01" y1="207.55" x2="123.99" y2="207.55"/><line class="cls-9" x1="-47.44" y1="207.55" x2="109.7" y2="207.55"/><line class="cls-10" x1="123.99" y1="207.55" x2="123.99" y2="207.55"/><rect id="_長方形_3" data-name="&lt;長方形&gt;" class="cls-2" x="-315.48" y="563" width="400" height="100"/><text class="cls-3" transform="translate(-190.48 602.12)">北園団地線<tspan class="cls-4"><tspan x="-75" y="27.2">(local bus)Kitazono line(loop)</tspan></tspan></text><rect id="_長方形_4" data-name="&lt;長方形&gt;" class="cls-2" x="-357.53" y="1018.37" width="400" height="100"/><line class="cls-11" x1="861" y1="713" x2="583.87" y2="795.77"/><path class="cls-12" d="M555,804.4c12.1-9.11,26.41-22.76,34.14-35l-1.43,25.25,15,20.31C589.52,809,570.07,805.38,555,804.4Z"/><line class="cls-11" x1="23.99" y1="127.55" x2="-53.63" y2="-40.03"/><path class="cls-2" d="M216.53,261.19h-315v50h315a25,25,0,0,0,25-25h0A25,25,0,0,0,216.53,261.19Z"/><text class="cls-13" transform="translate(-89.21 293.19)">北<tspan class="cls-14" x="22.72" y="0">園</tspan><tspan class="cls-15" x="44.18" y="0">ニ</tspan><tspan class="cls-16" x="63.94" y="0">ュ</tspan><tspan class="cls-17" x="84.02" y="0">ー</tspan><tspan class="cls-18" x="105.16" y="0">タ</tspan><tspan class="cls-19" x="124.88" y="0">ウ</tspan><tspan class="cls-20" x="144.7" y="0">ン</tspan><tspan class="cls-21" x="169.2" y="-1.9">K</tspan><tspan class="cls-22" x="178.35" y="-1.9">i</tspan><tspan class="cls-23" x="186.4" y="-1.9">t</tspan><tspan class="cls-24" x="195.39" y="-1.9">a</tspan><tspan class="cls-25" x="204.16" y="-1.9">z</tspan><tspan class="cls-26" x="213.19" y="-1.9">o</tspan><tspan class="cls-27" x="222.08" y="-1.9">n</tspan><tspan class="cls-28" x="231.09" y="-1.9">o</tspan><tspan class="cls-29" x="240.65" y="-1.9"> </tspan><tspan class="cls-30" x="250.03" y="-1.9">N</tspan><tspan class="cls-31" x="258.91" y="-1.9">e</tspan><tspan class="cls-32" x="268.43" y="-1.9">w</tspan><tspan class="cls-33" x="278.42" y="-1.9"> </tspan><tspan class="cls-34" x="288.14" y="-1.9">T</tspan><tspan class="cls-35" x="297.42" y="-1.9">o</tspan><tspan class="cls-36" x="306.97" y="-1.9">w</tspan><tspan class="cls-37" x="316.29" y="-1.9">n</tspan></text><line class="cls-2" x1="-261.96" y1="356.21" x2="61.53" y2="311.19"/><path id="_クリッピングパス_2" data-name="&lt;クリッピングパス&gt;" class="cls-12" d="M294.06,417.48a25,25,0,0,0-25,25h0a25,25,0,0,0,25,25h35v-50Z"/><g class="cls-38"><text class="cls-39" transform="translate(280.06 458.45)">39</text></g><path id="_クリッピングパス_3" data-name="&lt;クリッピングパス&gt;" class="cls-40" d="M294.06,417.48a25,25,0,0,0-25,25h0a25,25,0,0,0,25,25h35v-50Z"/><path class="cls-2" d="M644.06,417.48h-315v50h315a25,25,0,0,0,25-25h0A25,25,0,0,0,644.06,417.48Z"/><text class="cls-41" transform="translate(339.06 449.48)">百谷公民<tspan class="cls-42" x="100" y="0">館</tspan><tspan class="cls-4" x="135" y="-1.9">(Momodani Terminal)</tspan></text><line class="cls-2" x1="458.01" y1="510.7" x2="489.06" y2="467.48"/><circle class="cls-2" cx="458.01" cy="510.7" r="10"/><path class="cls-2" d="M-14.46,890.26h-315v50h315a25,25,0,0,0,25-25h0A25,25,0,0,0-14.46,890.26Z"/><text class="cls-3" transform="translate(-324.46 926.66)">鳥取<tspan class="cls-43" x="60" y="0">駅</tspan><tspan class="cls-4" x="100" y="-3.8">(Tottori Sta. terminal)</tspan></text><rect class="cls-44" x="-7079" y="-3068" width="11720" height="11720"/></svg>