<svg id="_13zoom" data-name="13zoom" xmlns="http://www.w3.org/2000/svg" xmlns:xlink="http://www.w3.org/1999/xlink" viewBox="0 0 1024 1024"><defs><style>.cls-1,.cls-15,.cls-3{fill:#231815;}.cls-1,.cls-11,.cls-12,.cls-14,.cls-18,.cls-2,.cls-5,.cls-9{stroke:#231815;}.cls-1,.cls-10,.cls-11,.cls-12,.cls-13,.cls-14,.cls-18,.cls-2,.cls-5,.cls-6,.cls-7,.cls-8,.cls-9{stroke-miterlimit:10;}.cls-1,.cls-18,.cls-2{stroke-width:4px;}.cls-17,.cls-2{fill:#fff;}.cls-3{font-size:30px;}.cls-17,.cls-3{font-family:NotoSansMonoCJKjp-Regular-90ms-RKSJ-H, Noto Sans Mono CJK JP;}.cls-21,.cls-4{font-size:20px;}.cls-10,.cls-11,.cls-12,.cls-13,.cls-14,.cls-18,.cls-22,.cls-5,.cls-6,.cls-7,.cls-8,.cls-9{fill:none;}.cls-10,.cls-11,.cls-12,.cls-13,.cls-5,.cls-6,.cls-7,.cls-8,.cls-9{stroke-linecap:round;}.cls-10,.cls-13,.cls-5,.cls-8{stroke-width:8.79px;}.cls-6{stroke:#00ada9;}.cls-11,.cls-12,.cls-6,.cls-7,.cls-9{stroke-width:4.4px;}.cls-7{stroke:#ed6d46;}.cls-8{stroke:#59c3e1;}.cls-9{stroke-dasharray:0 29.3;}.cls-10{stroke:#70b058;}.cls-12{stroke-dasharray:0 28.57;}.cls-13{stroke:#718cc7;}.cls-14{stroke-width:5px;}.cls-16{clip-path:url(#clip-path);}.cls-17{font-size:48px;}.cls-19{letter-spacing:1.17em;}.cls-20{letter-spacing:0.67em;}.cls-21{letter-spacing:0.25em;}</style><clipPath id="clip-path"><path id="_クリッピングパス_" data-name="&lt;クリッピングパス&gt;" class="cls-1" d="M247.53,234.87a25,25,0,0,0-25,25h0a25,25,0,0,0,25,25h35v-50Z"/></clipPath></defs><title>3231_7151</title><rect id="_長方形_" data-name="&lt;長方形&gt;" class="cls-2" x="589" y="485" width="400" height="100"/><text class="cls-3" transform="translate(729 524.12)">中河原線<tspan class="cls-4"><tspan x="-70" y="27.2">(local bus)Nakagawara line</tspan></tspan></text><line class="cls-5" x1="689" y1="565" x2="889" y2="565"/><line class="cls-6" x1="689" y1="565" x2="889" y2="565"/><rect id="_長方形_2" data-name="&lt;長方形&gt;" class="cls-2" x="133.99" y="75.84" width="400" height="100"/><text class="cls-3" transform="translate(258.99 114.96)">市内岩倉線<tspan class="cls-4"><tspan x="-75" y="27.2">(local bus)Shinai Iwakura line</tspan></tspan></text><line class="cls-5" x1="233.99" y1="155.84" x2="433.99" y2="155.84"/><line class="cls-7" x1="233.99" y1="155.84" x2="433.99" y2="155.84"/><rect id="_長方形_3" data-name="&lt;長方形&gt;" class="cls-2" x="313.02" y="348.74" width="400" height="100"/><text class="cls-3" transform="translate(438.02 387.86)">桜谷団地線<tspan class="cls-4"><tspan x="-90" y="27.2">(local bus)Sakuradani Danchi line</tspan></tspan></text><line class="cls-8" x1="413.02" y1="428.74" x2="613.02" y2="428.74"/><line class="cls-9" x1="413.02" y1="428.74" x2="613.02" y2="428.74"/><rect id="_長方形_4" data-name="&lt;長方形&gt;" class="cls-2" x="39.52" y="787" width="400" height="100"/><text class="cls-3" transform="translate(134.52 826.12)">桜谷面影循環線<tspan class="cls-4"><tspan x="-95" y="27.2">(local bus)Sakuradani Omokage line(loop)</tspan></tspan></text><line class="cls-10" x1="139.52" y1="867" x2="339.52" y2="867"/><line class="cls-11" x1="139.52" y1="867" x2="139.52" y2="867"/><line class="cls-12" x1="168.09" y1="867" x2="325.23" y2="867"/><line class="cls-11" x1="339.52" y1="867" x2="339.52" y2="867"/><rect id="_長方形_5" data-name="&lt;長方形&gt;" class="cls-2" x="181.02" y="909.76" width="400" height="100"/><text class="cls-3" transform="translate(261.02 948.88)">津ノ井倉田循環線<tspan class="cls-4"><tspan x="-55" y="27.2">(local bus)Tsunoi Kurata line(loop)</tspan></tspan></text><line class="cls-13" x1="281.02" y1="989.76" x2="481.02" y2="989.76"/><line class="cls-11" x1="281.02" y1="989.76" x2="281.02" y2="989.76"/><line class="cls-12" x1="309.59" y1="989.76" x2="466.73" y2="989.76"/><line class="cls-11" x1="481.02" y1="989.76" x2="481.02" y2="989.76"/><rect id="_長方形_6" data-name="&lt;長方形&gt;" class="cls-2" x="-357.53" y="-5.63" width="400" height="100"/><line class="cls-14" x1="333.99" y1="175.84" x2="62.72" y2="287.04"/><path class="cls-15" d="M34.8,298.49c11.14-10.26,24-25.26,30.52-38.21l1.07,25.26,17,18.74C69.65,299.61,49.94,298,34.8,298.49Z"/><line class="cls-14" x1="513.02" y1="448.74" x2="80.92" y2="616.41"/><path class="cls-15" d="M52.79,627.33c11.33-10.05,24.5-24.8,31.24-37.63L84.61,615l16.62,19C87.61,629.11,67.93,627.1,52.79,627.33Z"/><line class="cls-14" x1="789" y1="585" x2="677.44" y2="694.42"/><path class="cls-15" d="M655.9,715.55c6.44-13.7,12.73-32.45,13.86-46.9l10.51,23,22.78,11C688.59,703.45,669.72,709.37,655.9,715.55Z"/><line class="cls-14" x1="239.52" y1="787" x2="54.37" y2="669.79"/><path class="cls-15" d="M28.87,653.65c14.82,3.14,34.51,5,48.83,2.76l-20,15.5-5.45,24.68C48.13,682.71,38.05,665.69,28.87,653.65Z"/><line class="cls-14" x1="381.02" y1="1009.76" x2="128.16" y2="1065.4"/><line class="cls-2" x1="149.02" y1="362.66" x2="442.53" y2="284.87"/><path id="_クリッピングパス_2" data-name="&lt;クリッピングパス&gt;" class="cls-15" d="M247.53,234.87a25,25,0,0,0-25,25h0a25,25,0,0,0,25,25h35v-50Z"/><g class="cls-16"><text class="cls-17" transform="translate(245.53 275.84)">2</text></g><path id="_クリッピングパス_3" data-name="&lt;クリッピングパス&gt;" class="cls-18" d="M247.53,234.87a25,25,0,0,0-25,25h0a25,25,0,0,0,25,25h35v-50Z"/><path class="cls-2" d="M597.53,234.87h-315v50h315a25,25,0,0,0,25-25h0A25,25,0,0,0,597.53,234.87Z"/><text class="cls-3" transform="translate(332.53 271.27)"><tspan class="cls-19">岩</tspan><tspan class="cls-20" x="65" y="0">倉</tspan><tspan class="cls-21" x="115" y="-3.8">Iwakur</tspan><tspan class="cls-4" x="205" y="-3.8">a</tspan></text><line class="cls-2" x1="146.02" y1="332.66" x2="442.53" y2="284.87"/><circle class="cls-2" cx="146.02" cy="332.66" r="10"/><circle class="cls-2" cx="149.02" cy="362.66" r="10"/><rect class="cls-22" x="-7079" y="-4092" width="11720" height="11720"/></svg>