<svg id="_15zoom" data-name="15zoom" xmlns="http://www.w3.org/2000/svg" xmlns:xlink="http://www.w3.org/1999/xlink" viewBox="0 0 1024 1024"><defs><style>.cls-1,.cls-21,.cls-23,.cls-40,.cls-5,.cls-8{fill:#231815;}.cls-1,.cls-11,.cls-18,.cls-19,.cls-2,.cls-26,.cls-27,.cls-3,.cls-31,.cls-32,.cls-33,.cls-36,.cls-37,.cls-4,.cls-41,.cls-43,.cls-44,.cls-6,.cls-7{stroke:#231815;}.cls-1,.cls-11,.cls-18,.cls-19,.cls-2,.cls-25,.cls-26,.cls-27,.cls-3,.cls-30,.cls-31,.cls-32,.cls-33,.cls-34,.cls-35,.cls-36,.cls-37,.cls-4,.cls-41,.cls-43,.cls-44,.cls-6,.cls-7{stroke-miterlimit:10;}.cls-1,.cls-6,.cls-7{stroke-width:2.4px;}.cls-11,.cls-13,.cls-18,.cls-19,.cls-2,.cls-27,.cls-3,.cls-32,.cls-38,.cls-4,.cls-43,.cls-44,.cls-7{fill:#fff;}.cls-2,.cls-41{stroke-width:2px;}.cls-3{stroke-width:2.4px;}.cls-4{stroke-width:4px;}.cls-25,.cls-26,.cls-30,.cls-31,.cls-33,.cls-34,.cls-35,.cls-36,.cls-37,.cls-41,.cls-46,.cls-6{fill:none;}.cls-8{font-size:18px;}.cls-13,.cls-21,.cls-23,.cls-40,.cls-8{font-family:NotoSansMonoCJKjp-Regular-90ms-RKSJ-H, Noto Sans Mono CJK JP;}.cls-9{letter-spacing:0.5em;}.cls-10,.cls-21{font-size:12px;}.cls-11{stroke-width:4px;}.cls-12{clip-path:url(#clip-path);}.cls-13{font-size:28.8px;}.cls-14{letter-spacing:-0.05em;}.cls-15{letter-spacing:-0.04em;}.cls-16{letter-spacing:-0.06em;}.cls-17{letter-spacing:0.35em;}.cls-18{stroke-width:4px;}.cls-19{stroke-width:2.09px;}.cls-20{clip-path:url(#clip-path-2);}.cls-22{clip-path:url(#clip-path-3);}.cls-23{font-size:18px;}.cls-24,.cls-29{font-size:12px;}.cls-25{stroke:#70b058;}.cls-25,.cls-26,.cls-30,.cls-31,.cls-33,.cls-34,.cls-35,.cls-36{stroke-linecap:round;}.cls-25,.cls-35{stroke-width:5.27px;}.cls-26,.cls-36{stroke-width:2.64px;}.cls-27{stroke-width:2.4px;}.cls-28,.cls-29{letter-spacing:0.25em;}.cls-30{stroke:#eb5d19;stroke-width:5.27px;}.cls-31{stroke-width:2.64px;}.cls-31,.cls-36{stroke-dasharray:0 17.58;}.cls-32{stroke-width:2.4px;}.cls-33{stroke-width:5.27px;}.cls-34{stroke:#f6ad3c;stroke-width:2.64px;}.cls-35{stroke:#006b4b;}.cls-37{stroke-width:3px;}.cls-39{clip-path:url(#clip-path-4);}.cls-40{font-size:15px;}.cls-42{letter-spacing:0.33em;}.cls-43{stroke-width:2.4px;}.cls-44{stroke-width:2.4px;}.cls-45{clip-path:url(#clip-path-6);}</style><clipPath id="clip-path"><path id="_クリッピングパス_" data-name="&lt;クリッピングパス&gt;" class="cls-1" d="M406.62,696.11a15,15,0,0,0-15,15h0a15,15,0,0,0,15,15h21v-30Z"/></clipPath><clipPath id="clip-path-2"><path id="_クリッピングパス_2" data-name="&lt;クリッピングパス&gt;" class="cls-1" d="M574.49,789a15,15,0,0,0-15,15h0a15,15,0,0,0,15,15h21V789Z"/></clipPath><clipPath id="clip-path-3"><path id="_クリッピングパス_3" data-name="&lt;クリッピングパス&gt;" class="cls-1" d="M574.49,825a15,15,0,0,0-15,15h0a15,15,0,0,0,15,15h21V825Z"/></clipPath><clipPath id="clip-path-4"><rect id="_長方形_" data-name="&lt;長方形&gt;" class="cls-2" x="104.61" y="129.18" width="180" height="50"/></clipPath><clipPath id="clip-path-6"><rect id="_長方形_3" data-name="&lt;長方形&gt;" class="cls-2" x="873.61" y="44.18" width="180" height="50"/></clipPath></defs><title>3231_7150</title><line class="cls-3" x1="954" y1="699" x2="1168.52" y2="753.64"/><circle class="cls-4" cx="954" cy="699" r="10"/><path id="_クリッピングパス_4" data-name="&lt;クリッピングパス&gt;" class="cls-5" d="M573.28,736a15,15,0,0,0-15,15h0a15,15,0,0,0,15,15h21V736Z"/><path id="_クリッピングパス_5" data-name="&lt;クリッピングパス&gt;" class="cls-6" d="M573.28,736a15,15,0,0,0-15,15h0a15,15,0,0,0,15,15h21V736Z"/><path class="cls-7" d="M783.28,736h-189v30h189a15,15,0,0,0,15-15h0A15,15,0,0,0,783.28,736Z"/><text class="cls-8" transform="translate(606.28 757.81)">雲山日<tspan class="cls-9" x="54" y="0">交</tspan><tspan class="cls-10" x="81" y="-2.28">(Nikko Office)</tspan></text><line class="cls-7" x1="665" y1="607" x2="690.28" y2="735.97"/><circle class="cls-11" cx="665" cy="607" r="10"/><path class="cls-7" d="M-5.72,340.71h-189v30h189a15,15,0,0,0,15-15h0A15,15,0,0,0-5.72,340.71Z"/><text class="cls-8" transform="translate(-188.72 362.55)">因幡大<tspan class="cls-9" x="54" y="0">橋</tspan><tspan class="cls-10" x="81" y="-2.28">(Inaba Ohashi Brg.)</tspan></text><line class="cls-7" x1="72.94" y1="505.25" x2="-98.72" y2="370.71"/><path id="_クリッピングパス_6" data-name="&lt;クリッピングパス&gt;" class="cls-5" d="M406.62,696.11a15,15,0,0,0-15,15h0a15,15,0,0,0,15,15h21v-30Z"/><g class="cls-12"><text class="cls-13" transform="translate(405.42 720.69)">8</text></g><path id="_クリッピングパス_7" data-name="&lt;クリッピングパス&gt;" class="cls-6" d="M406.62,696.11a15,15,0,0,0-15,15h0a15,15,0,0,0,15,15h21v-30Z"/><path class="cls-7" d="M616.62,696.11h-189v30h189a15,15,0,0,0,15-15h0A15,15,0,0,0,616.62,696.11Z"/><text class="cls-8" transform="translate(433.13 717.95)"><tspan class="cls-14">市</tspan><tspan class="cls-15" x="17.05" y="0">立</tspan><tspan class="cls-16" x="34.27" y="0">病</tspan><tspan class="cls-17" x="51.14" y="0">院</tspan><tspan class="cls-10" x="75.49" y="-2.28">(Municipal Hospital)</tspan></text><line class="cls-7" x1="559.55" y1="638.65" x2="523.62" y2="696.11"/><circle class="cls-18" cx="563.55" cy="634.65" r="10"/><rect class="cls-19" x="553.49" y="779.99" width="120" height="84"/><path id="_クリッピングパス_8" data-name="&lt;クリッピングパス&gt;" class="cls-5" d="M574.49,789a15,15,0,0,0-15,15h0a15,15,0,0,0,15,15h21V789Z"/><g class="cls-20"><text class="cls-13" transform="translate(566.09 813.57)">41</text></g><path id="_クリッピングパス_9" data-name="&lt;クリッピングパス&gt;" class="cls-6" d="M574.49,789a15,15,0,0,0-15,15h0a15,15,0,0,0,15,15h21V789Z"/><text class="cls-21" transform="translate(604.49 808.98)">南大橋経由</text><path id="_クリッピングパス_10" data-name="&lt;クリッピングパス&gt;" class="cls-5" d="M574.49,825a15,15,0,0,0-15,15h0a15,15,0,0,0,15,15h21V825Z"/><g class="cls-22"><text class="cls-13" transform="translate(566.09 849.57)">42</text></g><path id="_クリッピングパス_11" data-name="&lt;クリッピングパス&gt;" class="cls-6" d="M574.49,825a15,15,0,0,0-15,15h0a15,15,0,0,0,15,15h21V825Z"/><text class="cls-21" transform="translate(598.49 844.98)">大覚寺口経由</text><rect id="_長方形_4" data-name="&lt;長方形&gt;" class="cls-3" x="949.73" y="815.98" width="240" height="60"/><text class="cls-23" transform="translate(1006.73 839.45)">桜谷面影循環線<tspan class="cls-24"><tspan x="-57" y="16.32">(local bus)Sakuradani Omokage line(loop)</tspan></tspan></text><line class="cls-25" x1="1009.73" y1="863.98" x2="1129.73" y2="863.98"/><line class="cls-26" x1="1009.73" y1="863.98" x2="1009.73" y2="863.98"/><rect id="_長方形_5" data-name="&lt;長方形&gt;" class="cls-27" x="-71.11" y="703.73" width="240" height="60"/><text class="cls-23" transform="translate(-43.36 727.2)">市立病院<tspan class="cls-28" x="72" y="0">線</tspan><tspan class="cls-29" x="94.5" y="-2.28">(注:</tspan><tspan class="cls-24" x="127.5" y="-2.28">日本交</tspan><tspan class="cls-29" x="163.5" y="-2.28">通</tspan><tspan class="cls-24" x="178.5" y="-2.28">)</tspan><tspan class="cls-24"><tspan x="2.25" y="16.32">(local bus)Shiritsu Byoin line</tspan></tspan></text><line class="cls-30" x1="-11.11" y1="751.73" x2="108.89" y2="751.73"/><line class="cls-31" x1="-11.11" y1="751.73" x2="108.89" y2="751.73"/><rect id="_長方形_6" data-name="&lt;長方形&gt;" class="cls-32" x="-69.39" y="581.56" width="240" height="60"/><text class="cls-23" transform="translate(-53.64 605.03)">市立病院<tspan class="cls-28" x="72" y="0">線</tspan><tspan class="cls-29" x="94.5" y="-2.28">(注:</tspan><tspan class="cls-24" x="127.5" y="-2.28">日ノ丸自動</tspan><tspan class="cls-29" x="187.5" y="-2.28">車</tspan><tspan class="cls-24" x="202.5" y="-2.28">)</tspan><tspan class="cls-24"><tspan x="14.25" y="16.32">(local bus)Shiritsu Byoin line</tspan></tspan></text><line class="cls-33" x1="-9.39" y1="629.56" x2="110.61" y2="629.56"/><line class="cls-34" x1="-9.39" y1="629.56" x2="110.61" y2="629.56"/><rect id="_長方形_7" data-name="&lt;長方形&gt;" class="cls-3" x="606.8" y="27.43" width="240" height="60"/><text class="cls-23" transform="translate(628.55 50.9)">雲山日交<tspan class="cls-28" x="72" y="0">線</tspan><tspan class="cls-29" x="94.5" y="-2.28">(</tspan><tspan class="cls-24" x="103.5" y="-2.28">南大</tspan><tspan class="cls-29" x="127.5" y="-2.28">橋,</tspan><tspan class="cls-24" x="151.5" y="-2.28">大覚</tspan><tspan class="cls-29" x="175.5" y="-2.28">寺</tspan><tspan class="cls-24" x="190.5" y="-2.28">)</tspan><tspan class="cls-24"><tspan x="8.25" y="16.32">(local bus)Kumoyama Nikko line</tspan></tspan></text><line class="cls-35" x1="666.8" y1="75.43" x2="786.8" y2="75.43"/><line class="cls-36" x1="666.8" y1="75.43" x2="786.8" y2="75.43"/><line class="cls-37" x1="48.89" y1="703.73" x2="384.15" y2="571.85"/><path class="cls-5" d="M401,565.23c-6.77,6.06-14.63,14.95-18.64,22.66l-.42-15.17-10-11.38C380.11,564.26,391.92,565.41,401,565.23Z"/><line class="cls-37" x1="1195.19" y1="183" x2="1006.28" y2="246.31"/><path class="cls-5" d="M989.12,252.06c7.07-5.7,15.38-14.18,19.77-21.67l-.35,15.16,9.42,11.89C1009.93,254.1,998.2,252.35,989.12,252.06Z"/><line class="cls-37" x1="1069.73" y1="815.98" x2="901.38" y2="683.5"/><path class="cls-5" d="M887.15,672.3c8.65,2.79,20.29,5.09,29,4.65l-12.88,8-4.76,14.4C896.86,690.83,891.89,680.05,887.15,672.3Z"/><line class="cls-37" x1="726.8" y1="87.43" x2="571.71" y2="270.83"/><path class="cls-5" d="M560,284.66c3.09-8.55,5.79-20.1,5.66-28.79L573.25,269l14.22,5.27C578.88,275.6,567.93,280.19,560,284.66Z"/><line class="cls-37" x1="50.6" y1="581.56" x2="232.56" y2="537.55"/><path class="cls-5" d="M250.15,533.29c-7.53,5.08-16.54,12.8-21.57,19.9l1.67-15.08-8.37-12.65C229.59,529.47,241.13,532.23,250.15,533.29Z"/><rect id="_長方形_8" data-name="&lt;長方形&gt;" class="cls-38" x="104.61" y="129.18" width="180" height="50"/><g class="cls-39"><text class="cls-40" transform="translate(136.48 147.92)">南部幹<tspan class="cls-28" x="45" y="0">線(</tspan><tspan x="75" y="0">普</tspan><tspan class="cls-28" x="90" y="0">通</tspan><tspan x="108.75" y="0">)</tspan><tspan x="20.63" y="20">東富安経由</tspan></text></g><rect id="_長方形_9" data-name="&lt;長方形&gt;" class="cls-41" x="104.61" y="129.18" width="180" height="50"/><line class="cls-37" x1="194.6" y1="179.18" x2="329.11" y2="301.89"/><path class="cls-5" d="M342.49,314.09c-8.43-3.41-19.87-6.55-28.56-6.74l13.43-7.07,5.8-14C334.15,294.9,338.32,306,342.49,314.09Z"/><text class="cls-23" transform="translate(590.54 -17.93)">鳥取<tspan class="cls-42" x="36" y="0">駅</tspan><tspan class="cls-24" x="60" y="-2.28">(Tottori Sta. terminal)</tspan></text><line class="cls-43" x1="422.85" y1="63.08" x2="683.54" y2="-9.77"/><circle class="cls-43" cx="422.85" cy="63.08" r="15"/><circle class="cls-43" cx="422.85" cy="63.08" r="9"/><rect id="_長方形_10" data-name="&lt;長方形&gt;" class="cls-44" x="496.86" y="995" width="240" height="60"/><text class="cls-23" transform="translate(544.86 1018.47)">津ノ井倉田循環線<tspan class="cls-24"><tspan x="-33" y="16.32">(local bus)Tsunoi Kurata line(loop)</tspan></tspan></text><rect id="_長方形_11" data-name="&lt;長方形&gt;" class="cls-38" x="104.61" y="129.18" width="180" height="50"/><g class="cls-39"><text class="cls-40" transform="translate(136.48 147.92)">南部幹<tspan class="cls-28" x="45" y="0">線(</tspan><tspan x="75" y="0">普</tspan><tspan class="cls-28" x="90" y="0">通</tspan><tspan x="108.75" y="0">)</tspan><tspan x="20.63" y="20">東富安経由</tspan></text></g><rect id="_長方形_12" data-name="&lt;長方形&gt;" class="cls-41" x="104.61" y="129.18" width="180" height="50"/><line class="cls-37" x1="194.6" y1="179.18" x2="329.11" y2="301.89"/><path class="cls-5" d="M342.49,314.09c-8.43-3.41-19.87-6.55-28.56-6.74l13.43-7.07,5.8-14C334.15,294.9,338.32,306,342.49,314.09Z"/><rect id="_長方形_13" data-name="&lt;長方形&gt;" class="cls-38" x="873.61" y="44.18" width="180" height="50"/><g class="cls-45"><text class="cls-40" transform="translate(941.11 62.92)">百谷線<tspan x="-37.5" y="20">稲葉山小学校経由</tspan></text></g><rect id="_長方形_14" data-name="&lt;長方形&gt;" class="cls-41" x="873.61" y="44.18" width="180" height="50"/><line class="cls-37" x1="963.6" y1="94.18" x2="991.5" y2="127.57"/><path class="cls-5" d="M1003.11,141.47c-7.89-4.51-18.8-9.17-27.39-10.53L990,125.75l7.64-13.1C997.43,121.34,1000.07,132.91,1003.11,141.47Z"/><rect class="cls-46" x="-6055" y="-4092" width="11720" height="11720"/></svg>