<svg id="_15zoom" data-name="15zoom" xmlns="http://www.w3.org/2000/svg" xmlns:xlink="http://www.w3.org/1999/xlink" viewBox="0 0 1024 1024"><defs><style>.cls-1,.cls-2,.cls-9{fill:#fff;}.cls-1,.cls-6,.cls-7,.cls-9{stroke:#231815;stroke-miterlimit:10;}.cls-1,.cls-6{stroke-width:2px;}.cls-3{clip-path:url(#clip-path);}.cls-4{font-size:15px;}.cls-10,.cls-4,.cls-8{fill:#231815;}.cls-10,.cls-4{font-family:NotoSansMonoCJKjp-Regular-90ms-RKSJ-H, Noto Sans Mono CJK JP;}.cls-5{letter-spacing:0.25em;}.cls-13,.cls-6,.cls-7{fill:none;}.cls-7{stroke-width:3px;}.cls-9{stroke-width:2.4px;}.cls-10{font-size:18px;}.cls-11{font-size:12px;}.cls-12{opacity:0.5;}</style><clipPath id="clip-path"><rect id="_長方形_" data-name="&lt;長方形&gt;" class="cls-1" x="148.23" y="835.28" width="180" height="50"/></clipPath></defs><title>3236_7150</title><rect id="_長方形_2" data-name="&lt;長方形&gt;" class="cls-2" x="148.23" y="835.28" width="180" height="50"/><g class="cls-3"><text class="cls-4" transform="translate(180.11 854.02)">南部幹<tspan class="cls-5" x="45" y="0">線(</tspan><tspan x="75" y="0">普</tspan><tspan class="cls-5" x="90" y="0">通</tspan><tspan x="108.75" y="0">)</tspan><tspan x="13.13" y="20">一ノ瀬橋経由</tspan></text></g><rect id="_長方形_3" data-name="&lt;長方形&gt;" class="cls-6" x="148.23" y="835.28" width="180" height="50"/><line class="cls-7" x1="238.23" y1="835.28" x2="313.98" y2="776.97"/><path class="cls-8" d="M328.33,765.93c-4.83,7.7-9.91,18.42-11.62,27l-4.61-14.46-12.79-8.15C308,770.8,319.65,768.62,328.33,765.93Z"/><rect id="_長方形_4" data-name="&lt;長方形&gt;" class="cls-9" x="212.7" y="986.44" width="240" height="60"/><text class="cls-10" transform="translate(262.95 1009.91)">南部幹<tspan class="cls-5" x="54" y="0">線(</tspan><tspan x="90" y="0">普</tspan><tspan class="cls-5" x="108" y="0">通</tspan><tspan x="130.5" y="0">)</tspan><tspan class="cls-11"><tspan x="-38.25" y="16.32">(local bus)South Shuttle line(local)</tspan></tspan></text><rect class="cls-13" x="-6055" y="-9212" width="11720" height="11720"/></svg>