<svg id="_15zoom" data-name="15zoom" xmlns="http://www.w3.org/2000/svg" xmlns:xlink="http://www.w3.org/1999/xlink" viewBox="0 0 1024 1024"><defs><style>.cls-1,.cls-11,.cls-19,.cls-23,.cls-24,.cls-3,.cls-4,.cls-5{fill:#fff;}.cls-1,.cls-10,.cls-11,.cls-14,.cls-16,.cls-2,.cls-20,.cls-23,.cls-24,.cls-28,.cls-3,.cls-4{stroke:#231815;}.cls-1,.cls-10,.cls-11,.cls-14,.cls-15,.cls-16,.cls-2,.cls-20,.cls-23,.cls-24,.cls-28,.cls-3,.cls-30,.cls-31,.cls-32,.cls-4{stroke-miterlimit:10;}.cls-1,.cls-10{stroke-width:2.11px;}.cls-12,.cls-17,.cls-2,.cls-21,.cls-25,.cls-7{fill:#231815;}.cls-11,.cls-2,.cls-20{stroke-width:2.4px;}.cls-28,.cls-3{stroke-width:2px;}.cls-4{stroke-width:2.4px;}.cls-6{clip-path:url(#clip-path);}.cls-7{font-size:15px;}.cls-12,.cls-19,.cls-21,.cls-25,.cls-7{font-family:NotoSansMonoCJKjp-Regular-90ms-RKSJ-H, Noto Sans Mono CJK JP;}.cls-8{letter-spacing:0.25em;}.cls-9{letter-spacing:-0.5em;}.cls-10,.cls-14,.cls-15,.cls-16,.cls-20,.cls-28,.cls-30,.cls-31,.cls-32,.cls-33{fill:none;}.cls-12{font-size:18px;}.cls-13{font-size:12px;}.cls-14,.cls-15{stroke-linecap:round;}.cls-14{stroke-width:5.27px;}.cls-15{stroke:#aace36;stroke-width:2.64px;}.cls-16{stroke-width:3px;}.cls-18{clip-path:url(#clip-path-2);}.cls-19{font-size:28.8px;}.cls-21{font-size:15px;}.cls-22{letter-spacing:0.4em;}.cls-23{stroke-width:4px;}.cls-24{stroke-width:2.4px;}.cls-25{font-size:18px;}.cls-26{font-size:12px;}.cls-27{clip-path:url(#clip-path-3);}.cls-29{opacity:0.5;}.cls-30,.cls-31,.cls-32{stroke:#e60012;stroke-width:20px;}.cls-31{stroke-dasharray:9.95 9.95;}.cls-32{stroke-dasharray:10.19 10.19;}</style><clipPath id="clip-path"><rect id="_長方形_" data-name="&lt;長方形&gt;" class="cls-1" x="58.98" y="113.49" width="200" height="50"/></clipPath><clipPath id="clip-path-2"><path id="_クリッピングパス_" data-name="&lt;クリッピングパス&gt;" class="cls-2" d="M308.84,454.48a15,15,0,0,0-15,15h0a15,15,0,0,0,15,15h21v-30Z"/></clipPath><clipPath id="clip-path-3"><rect id="_長方形_2" data-name="&lt;長方形&gt;" class="cls-3" x="464" y="927.66" width="180" height="50"/></clipPath></defs><title>3230_7151</title><path class="cls-4" d="M-13.09,256.09h-189v30h189a15,15,0,0,0,15-15h0A15,15,0,0,0-13.09,256.09Z"/><rect id="_長方形_3" data-name="&lt;長方形&gt;" class="cls-5" x="58.98" y="113.49" width="200" height="50"/><g class="cls-6"><text class="cls-7" transform="translate(72.73 132.23)">鳥取<tspan class="cls-8" x="30" y="0">駅-</tspan><tspan x="60" y="0">城北団地の全て</tspan><tspan class="cls-9" x="165" y="0">、</tspan><tspan x="3.75" y="20">中央病院、岩美駅に停車</tspan></text></g><rect id="_長方形_4" data-name="&lt;長方形&gt;" class="cls-10" x="58.98" y="113.49" width="200" height="50"/><rect id="_長方形_5" data-name="&lt;長方形&gt;" class="cls-11" x="276" y="728.79" width="240" height="60"/><text class="cls-12" transform="translate(368.92 752.26)">百谷線<tspan class="cls-13"><tspan x="-45" y="16.32">(local bus)Momodani line</tspan></tspan></text><line class="cls-14" x1="336" y1="776.79" x2="456" y2="776.79"/><line class="cls-15" x1="336" y1="776.79" x2="456" y2="776.79"/><line class="cls-16" x1="396" y1="788.79" x2="455.09" y2="866.03"/><path class="cls-17" d="M466.09,880.41c-7.69-4.84-18.4-10-26.91-11.7l14.46-4.56,8.2-12.77C461.28,860.05,463.42,871.73,466.09,880.41Z"/><path id="_クリッピングパス_2" data-name="&lt;クリッピングパス&gt;" class="cls-17" d="M308.84,454.48a15,15,0,0,0-15,15h0a15,15,0,0,0,15,15h21v-30Z"/><g class="cls-18"><text class="cls-19" transform="translate(300.36 479.06)">39</text></g><path id="_クリッピングパス_3" data-name="&lt;クリッピングパス&gt;" class="cls-20" d="M308.84,454.48a15,15,0,0,0-15,15h0a15,15,0,0,0,15,15h21v-30Z"/><path class="cls-11" d="M518.84,454.48h-189v30h189a15,15,0,0,0,15-15h0A15,15,0,0,0,518.84,454.48Z"/><text class="cls-21" transform="translate(335.76 473.68)">百谷公民<tspan class="cls-22" x="60" y="0">館</tspan><tspan class="cls-13" x="81" y="-1.14">(Momodani Terminal)</tspan></text><line class="cls-11" x1="458" y1="508" x2="425.84" y2="484.48"/><circle class="cls-23" cx="458" cy="508" r="10"/><rect id="_長方形_6" data-name="&lt;長方形&gt;" class="cls-24" x="-195.82" y="101.84" width="240" height="60"/><text class="cls-25" transform="translate(-136.58 125.31)">岩井<tspan class="cls-8" x="36" y="0">線(</tspan><tspan x="72" y="0">快</tspan><tspan class="cls-8" x="90" y="0">速</tspan><tspan x="112.5" y="0">)</tspan><tspan class="cls-26"><tspan x="-20.25" y="16.32">(local bus)Iwai line(Rapid)</tspan></tspan></text><rect id="_長方形_7" data-name="&lt;長方形&gt;" class="cls-5" x="464" y="927.66" width="180" height="50"/><g class="cls-27"><text class="cls-7" transform="translate(494 946.4)">百谷線フリー乗降<tspan x="-7.5" y="20">小西</tspan><tspan class="cls-8" x="22.5" y="20">谷-</tspan><tspan x="52.5" y="20">百谷公民館</tspan></text></g><rect id="_長方形_8" data-name="&lt;長方形&gt;" class="cls-28" x="464" y="927.66" width="180" height="50"/><g class="cls-29"><line class="cls-30" x1="206.23" y1="1025.53" x2="210.98" y2="1023.97"/><polyline class="cls-31" points="220.42 1020.84 226.28 1019.19 230.36 1019.11 233.26 1019.13 244.31 1019.52 258.58 1019.76 268.79 1020.39 286.69 1020.45 300.91 1020.64 304.26 1020.18 313.88 1019.57 320.13 1018.3 325.83 1016.79 330.22 1014.41 336.32 1010.23 342.24 1003.75 343.83 1000.93 353.64 986.05 354.97 984.05 359.61 977.03 368.16 966.99 376.7 958.87 383.62 953.67 387.07 951.07 400.92 940.88 405.29 936.33 409.7 930.6 417.78 920.13 427.73 909.61 446.61 894.55 458.63 884.83 466.09 880.41 473.46 877.64 483.64 875.44 495.43 872.95 503.46 870.09 508.48 867.27 515.9 862.15 521.95 858.01 525.9 855.06 541.53 844.88 546.65 842.38 553.93 837.6 557.92 833.75 560.13 828.87 560.55 823.79 559.52 819.1 558.53 816.33 555.38 808.35 554.96 804.4 556.41 775.9 556.44 767.78 556.46 760.13 555.05 750.74 552.66 738.77 546.27 722.43 543.55 715.35 534.59 692.15 534.4 691.22 533.41 686.19 532 677.03 531.81 670.21 532.56 661.35 533.85 655.52"/><polyline class="cls-30" points="534.94 650.67 536.84 646.04 533.68 643.56 532.88 642.98"/><polyline class="cls-32" points="524.09 637.91 517.93 635.1 511.63 632.83 504.57 631.99 495.75 631.32 491.71 630.14 489.11 628.8 486.51 627.37 484.32 625.02 482.47 621.49 481.13 618.04 480.87 613.67 481.8 599.13 483.23 571.4 482.89 565.43 481.53 549.91 480.92 541.95 479.54 537.05 474.63 529.33 468.87 520.97 466.96 518.07 464.91 515.3 464.91 515.3"/><polyline class="cls-30" points="462.21 510.98 460.81 509.26 459.25 506.96 455.69 508.75 453.18 510.32"/></g><rect class="cls-33" x="-7079" y="-3068" width="11720" height="11720"/></svg>