<svg id="_15zoom" data-name="15zoom" xmlns="http://www.w3.org/2000/svg" xmlns:xlink="http://www.w3.org/1999/xlink" viewBox="0 0 1024 1024"><defs><style>.cls-1,.cls-2,.cls-21,.cls-34,.cls-4,.cls-43,.cls-9{fill:#231815;}.cls-1,.cls-14,.cls-16,.cls-18,.cls-2,.cls-20,.cls-24,.cls-26,.cls-27,.cls-28,.cls-29,.cls-3,.cls-30,.cls-33,.cls-39,.cls-41,.cls-45,.cls-7,.cls-8{stroke:#231815;}.cls-1,.cls-14,.cls-15,.cls-16,.cls-18,.cls-19,.cls-2,.cls-20,.cls-23,.cls-24,.cls-25,.cls-26,.cls-27,.cls-28,.cls-29,.cls-3,.cls-30,.cls-33,.cls-39,.cls-41,.cls-45,.cls-49,.cls-50,.cls-7,.cls-8{stroke-miterlimit:10;}.cls-1,.cls-7,.cls-8{stroke-width:2.4px;}.cls-2,.cls-30,.cls-33{stroke-width:2.4px;}.cls-16,.cls-20,.cls-3,.cls-30,.cls-32,.cls-39,.cls-40,.cls-6,.cls-8{fill:#fff;}.cls-3,.cls-45{stroke-width:2.11px;}.cls-5{clip-path:url(#clip-path);}.cls-6{font-size:28.8px;}.cls-21,.cls-32,.cls-34,.cls-43,.cls-6,.cls-9{font-family:NotoSansMonoCJKjp-Regular-90ms-RKSJ-H, Noto Sans Mono CJK JP;}.cls-14,.cls-15,.cls-18,.cls-19,.cls-23,.cls-24,.cls-25,.cls-26,.cls-27,.cls-28,.cls-29,.cls-33,.cls-41,.cls-45,.cls-49,.cls-50,.cls-51,.cls-7{fill:none;}.cls-9{font-size:18px;}.cls-10{letter-spacing:1.03em;}.cls-11{letter-spacing:0.53em;}.cls-12,.cls-13{font-size:12px;}.cls-12{letter-spacing:0.05em;}.cls-14,.cls-15,.cls-18,.cls-19,.cls-23,.cls-24,.cls-25,.cls-26,.cls-27{stroke-linecap:round;}.cls-14,.cls-25{stroke-width:5.27px;}.cls-15{stroke:#00ada9;}.cls-15,.cls-26,.cls-27{stroke-width:2.64px;}.cls-16{stroke-width:2.4px;}.cls-17{font-size:12px;}.cls-18{stroke-width:5.27px;}.cls-19{stroke:#ed6d46;stroke-width:2.64px;}.cls-20{stroke-width:2.4px;}.cls-21{font-size:18px;}.cls-22{font-size:12px;}.cls-23{stroke:#59c3e1;stroke-width:5.27px;}.cls-24{stroke-width:2.64px;stroke-dasharray:0 17.58;}.cls-25{stroke:#70b058;}.cls-26{stroke-dasharray:0 17.14;}.cls-28{stroke-width:3px;}.cls-29{stroke-width:3px;}.cls-31{clip-path:url(#clip-path-2);}.cls-32{font-size:28.8px;}.cls-34{font-size:18px;}.cls-35{letter-spacing:1.17em;}.cls-36{letter-spacing:0.67em;}.cls-37,.cls-38{font-size:12px;}.cls-37{letter-spacing:0.25em;}.cls-39{stroke-width:4px;}.cls-41{stroke-width:2px;}.cls-42{clip-path:url(#clip-path-3);}.cls-43{font-size:15px;}.cls-44{letter-spacing:0.25em;}.cls-46{clip-path:url(#clip-path-4);}.cls-47{clip-path:url(#clip-path-5);}.cls-48{opacity:0.5;}.cls-49,.cls-50{stroke:#e60012;stroke-width:20px;}.cls-50{stroke-dasharray:9.95 9.95;}</style><clipPath id="clip-path"><path id="_クリッピングパス_" data-name="&lt;クリッピングパス&gt;" class="cls-1" d="M27.52,753.64a15,15,0,0,0-15,15h0a15,15,0,0,0,15,15h21v-30Z"/></clipPath><clipPath id="clip-path-2"><path id="_クリッピングパス_2" data-name="&lt;クリッピングパス&gt;" class="cls-2" d="M75.93,238a15,15,0,0,0-15,15h0a15,15,0,0,0,15,15h21V238Z"/></clipPath><clipPath id="clip-path-3"><rect id="_長方形_" data-name="&lt;長方形&gt;" class="cls-3" x="304.47" y="130.17" width="200" height="50"/></clipPath><clipPath id="clip-path-4"><rect id="_長方形_2" data-name="&lt;長方形&gt;" class="cls-3" x="613.46" y="596.46" width="200" height="50"/></clipPath><clipPath id="clip-path-5"><rect id="_長方形_3" data-name="&lt;長方形&gt;" class="cls-3" x="613.46" y="526.46" width="200" height="50"/></clipPath></defs><title>3231_7151</title><path id="_クリッピングパス_3" data-name="&lt;クリッピングパス&gt;" class="cls-4" d="M27.52,753.64a15,15,0,0,0-15,15h0a15,15,0,0,0,15,15h21v-30Z"/><g class="cls-5"><text class="cls-6" transform="translate(19.12 778.22)">40</text></g><path id="_クリッピングパス_4" data-name="&lt;クリッピングパス&gt;" class="cls-7" d="M27.52,753.64a15,15,0,0,0-15,15h0a15,15,0,0,0,15,15h21v-30Z"/><path class="cls-8" d="M237.52,753.64h-189v30h189a15,15,0,0,0,15-15h0A15,15,0,0,0,237.52,753.64Z"/><text class="cls-9" transform="translate(78.52 775.48)"><tspan class="cls-10">桜</tspan><tspan class="cls-11" x="36.55" y="0">谷</tspan><tspan class="cls-12" x="64.09" y="-2.28">Sakuradan</tspan><tspan class="cls-13" x="123" y="-2.28">i</tspan></text><line class="cls-8" x1="-70" y1="699" x2="144.52" y2="753.64"/><rect id="_長方形_4" data-name="&lt;長方形&gt;" class="cls-8" x="427.4" y="749.91" width="240" height="60"/><text class="cls-9" transform="translate(511.4 773.38)">中河原線<tspan class="cls-13"><tspan x="-42" y="16.32">(local bus)Nakagawara line</tspan></tspan></text><line class="cls-14" x1="487.4" y1="797.91" x2="607.4" y2="797.91"/><line class="cls-15" x1="487.4" y1="797.91" x2="607.4" y2="797.91"/><rect id="_長方形_5" data-name="&lt;長方形&gt;" class="cls-16" x="51.19" y="123" width="240" height="60"/><text class="cls-9" transform="translate(126.19 146.47)">市内岩倉線<tspan class="cls-17"><tspan x="-45" y="16.32">(local bus)Shinai Iwakura line</tspan></tspan></text><line class="cls-18" x1="111.19" y1="171" x2="231.19" y2="171"/><line class="cls-19" x1="111.19" y1="171" x2="231.19" y2="171"/><rect id="_長方形_6" data-name="&lt;長方形&gt;" class="cls-20" x="75.8" y="545.81" width="240" height="60"/><text class="cls-21" transform="translate(150.75 569.28)">桜谷団地線<tspan class="cls-22"><tspan x="-54" y="16.32">(local bus)Sakuradani Danchi line</tspan></tspan></text><line class="cls-23" x1="135.8" y1="593.81" x2="255.79" y2="593.81"/><line class="cls-24" x1="135.8" y1="593.81" x2="255.79" y2="593.81"/><rect id="_長方形_7" data-name="&lt;長方形&gt;" class="cls-8" x="-74.27" y="815.98" width="240" height="60"/><text class="cls-9" transform="translate(-17.27 839.45)">桜谷面影循環線<tspan class="cls-13"><tspan x="-57" y="16.32">(local bus)Sakuradani Omokage line(loop)</tspan></tspan></text><line class="cls-25" x1="-14.27" y1="863.98" x2="105.73" y2="863.98"/><line class="cls-26" x1="2.87" y1="863.98" x2="97.16" y2="863.98"/><line class="cls-27" x1="105.73" y1="863.98" x2="105.73" y2="863.98"/><line class="cls-28" x1="171.19" y1="183" x2="-17.72" y2="246.31"/><line class="cls-29" x1="195.79" y1="605.81" x2="69.46" y2="653.59"/><path class="cls-4" d="M52.52,660c6.86-6,14.83-14.76,18.94-22.42l.22,15.17,9.88,11.52C73.41,661.24,61.61,659.94,52.52,660Z"/><line class="cls-28" x1="547.4" y1="749.91" x2="620.02" y2="709.76"/><path class="cls-4" d="M635.86,701c-5.92,6.89-12.57,16.72-15.54,24.89l-2.38-15-11.42-10C615,702.75,626.88,702.35,635.86,701Z"/><line class="cls-28" x1="45.73" y1="815.98" x2="-122.62" y2="683.5"/><line class="cls-30" x1="143" y1="361" x2="192.93" y2="267.98"/><path id="_クリッピングパス_5" data-name="&lt;クリッピングパス&gt;" class="cls-4" d="M75.93,238a15,15,0,0,0-15,15h0a15,15,0,0,0,15,15h21V238Z"/><g class="cls-31"><text class="cls-32" transform="translate(74.73 262.57)">2</text></g><path id="_クリッピングパス_6" data-name="&lt;クリッピングパス&gt;" class="cls-33" d="M75.93,238a15,15,0,0,0-15,15h0a15,15,0,0,0,15,15h21V238Z"/><path class="cls-30" d="M285.93,238h-189v30h189a15,15,0,0,0,15-15h0A15,15,0,0,0,285.93,238Z"/><text class="cls-34" transform="translate(126.93 259.82)"><tspan class="cls-35">岩</tspan><tspan class="cls-36" x="39" y="0">倉</tspan><tspan class="cls-37" x="69" y="-2.28">Iwakur</tspan><tspan class="cls-38" x="123" y="-2.28">a</tspan></text><line class="cls-30" x1="137" y1="332" x2="192.93" y2="267.98"/><circle class="cls-39" cx="137" cy="332" r="10"/><circle class="cls-39" cx="143" cy="361" r="10"/><rect id="_長方形_8" data-name="&lt;長方形&gt;" class="cls-40" x="-150.39" y="44.18" width="180" height="50"/><rect id="_長方形_9" data-name="&lt;長方形&gt;" class="cls-41" x="-150.39" y="44.18" width="180" height="50"/><rect id="_長方形_10" data-name="&lt;長方形&gt;" class="cls-40" x="304.47" y="130.17" width="200" height="50"/><g class="cls-42"><text class="cls-43" transform="translate(314.47 148.91)">市内岩倉線<tspan class="cls-44" x="75" y="0">は1</tspan><tspan x="105" y="0">便鳥取駅で</tspan><tspan x="0" y="20">国体道路湖山鳥大線に直通</tspan></text></g><rect id="_長方形_11" data-name="&lt;長方形&gt;" class="cls-45" x="304.47" y="130.17" width="200" height="50"/><rect id="_長方形_12" data-name="&lt;長方形&gt;" class="cls-40" x="613.46" y="596.46" width="200" height="50"/><g class="cls-46"><text class="cls-43" transform="translate(630.96 615.2)">中河原線<tspan class="cls-44" x="60" y="0">は1</tspan><tspan x="90" y="0">便本通りで</tspan><tspan x="0" y="20">相生町湖山鳥大線に直通</tspan></text></g><rect id="_長方形_13" data-name="&lt;長方形&gt;" class="cls-45" x="613.46" y="596.46" width="200" height="50"/><rect id="_長方形_14" data-name="&lt;長方形&gt;" class="cls-40" x="613.46" y="526.46" width="200" height="50"/><g class="cls-47"><text class="cls-43" transform="translate(630.96 545.2)">中河原線<tspan class="cls-44" x="60" y="0">は1</tspan><tspan x="90" y="0">便本通りで</tspan><tspan x="0" y="20">西品治湖山鳥大線に直通</tspan></text></g><rect id="_長方形_15" data-name="&lt;長方形&gt;" class="cls-45" x="613.46" y="526.46" width="200" height="50"/><g class="cls-48"><line class="cls-49" x1="206.23" y1="1.53" x2="210.98" y2="-0.03"/><polyline class="cls-50" points="220.42 -3.16 226.28 -4.81 230.36 -4.89 233.26 -4.87 244.31 -4.47 258.58 -4.24 268.79 -3.61 286.69 -3.55 300.91 -3.36 304.26 -3.82 313.88 -4.43 320.13 -5.7 325.83 -7.21 330.22 -9.59 336.32 -13.78 342.24 -20.25 343.83 -23.07 353.64 -37.95 354.97 -39.95 359.61 -46.97 368.16 -57.01 376.7 -65.14 383.62 -70.33 387.07 -72.93 400.92 -83.12 405.29 -87.67 409.7 -93.4 417.78 -103.87 427.73 -114.39 446.61 -129.45 458.63 -139.17 466.09 -143.59 473.46 -146.36 483.64 -148.56 495.43 -151.05 503.46 -153.91 508.48 -156.73 515.9 -161.85 521.95 -165.99 525.9 -168.94 541.53 -179.13 546.65 -181.62 553.93 -186.41 557.92 -190.25 560.13 -195.13 560.55 -200.21 559.52 -204.9 558.53 -207.67 555.38 -215.65 554.96 -219.6 556.41 -248.09 556.44 -256.21 556.46 -263.87 555.05 -273.26 552.66 -285.23 546.27 -301.57 543.55 -308.65 534.59 -331.85 534.4 -332.79 533.41 -337.81 532 -346.97 531.81 -353.79 532.56 -362.65 533.85 -368.48"/></g><rect class="cls-51" x="-7079" y="-4092" width="11720" height="11720"/></svg>