<svg id="routes" xmlns="http://www.w3.org/2000/svg" xmlns:xlink="http://www.w3.org/1999/xlink" viewBox="0 0 1024 1024"><defs><style>.cls-1,.cls-10,.cls-3,.cls-4,.cls-5,.cls-6,.cls-7,.cls-8,.cls-9{fill:none;}.cls-2{clip-path:url(#clip-path);}.cls-10,.cls-3,.cls-6,.cls-7,.cls-8,.cls-9{stroke:#231815;}.cls-10,.cls-3,.cls-4,.cls-5,.cls-6,.cls-7,.cls-8,.cls-9{stroke-linecap:round;stroke-miterlimit:10;}.cls-3,.cls-5{stroke-width:8.79px;}.cls-4{stroke:#ed6d46;}.cls-10,.cls-4,.cls-6,.cls-7,.cls-8,.cls-9{stroke-width:4.4px;}.cls-5{stroke:#70b058;}.cls-6{stroke-dasharray:0 30.2;}.cls-8{stroke-dasharray:0 21.5;}.cls-9{stroke-dasharray:0 25.49;}.cls-10{stroke-dasharray:0 19.93;}</style><clipPath id="clip-path"><rect class="cls-1" x="-5031" y="-2044" width="11720" height="11720"/></clipPath></defs><title>3229_7149</title><g class="cls-2"><g id="日ノ丸線"><g id="賀露"><path class="cls-3" d="M225.64,1260.23l0,.1,3,6.39,1.08,1.92a24.86,24.86,0,0,0,1.37,2.3l3.37,5.13,11.45,23.37c1.83,3.82,3.77,7.58,5.5,11.46l5.3,11.8L275,1370.45l2.88,9.76,37.11-4.73,47.45,9.14,47,12.14,20.73,13.93c2.85,2,5.64,4.18,8.46,6.27l9.77,7.28,31.79,31.89c5,5.21,9.79,10.65,14.69,16L508.51,1487l10.23,8.65,15.2,3.36,84.13,11.59,85.16,11.36M225.64,1260.23s-18.53-11.38-20.84-16-4.71-9.16-7.21-13.67l-7.68-13.41-3.89-3.72-3-2.09-2.89-2.18-3.62-1.88c-3.37-.61-6.77-1.07-10.16-1.56l-8.42-.32-3-.68-5.24-.45-13.1-.89-12.94-1.13-11.63-1.42-14.18-1.12-13.4-.41-33.13-1.57-2.24,1-1.88,1-1.34,1.59-.79,2.15-.3,3.78-.37,4.67.26,2,.55,1.38,1.11,1.6,1.08,1.15,2.45,1.37,2.7,1,11.28.61,6.09.35,5.86.49,3.13-.16,2.34-.23,2.33-.55,2.27-1,2.28-1.38,6.93-6.12,9.06-6.2,5.31-1.94,4.37-.63,9.59.47,9.57.59,5.7.31,6.09.49,4.19,0,6-.77m70.64,55.5,53.92-20,16.35-6.2,33.76-12.58,21.22-7,2.61-.47,1.82-.64,4.5-.72,4.95-.16h5.56l5.23.56,6.33.54,5.95,1.31,4.72,1,5.23,2,7.52,3.51,7.17,4.06,15,10.23,7.44,4.86,15.76,11.61,23.73,17.62,6.07,3.21,27.05,19.34,1.71-3.58.26-.8.88-1.86,1.39-3.07-1.54-.68-1.32-.8-1.9-1.57-2.49-2.94-1-4.2-.76-5.81-1.22-11.7-.28-3.3-.15-8.49-.23-4.8.49-7.5,1.24-9,.92-7.37.49-4.18.79-5.25,1-5.12,3.5-15.84.36-1.34,2.61-12.1,1.3-6,.92-4.31.15-3.76.19-4.83,0-1-.06-5.2,0-5.07.13-3,.2-4.75,1.86-11,4-10.73.86-3.78,2.12-9.27,1.26-5,1.44-9.84,1.11-17.37-1.58-16.66-.14-2.57-2-15.13-.54-13.46.17-13.2.34-12.52,0-7.71-.49-6.1-2.33-5-2.86-3.21-3.32-1.9-3-1.69-6.18-2.59-4.59-2-2.22-1.22-2.21-1.62-3.16-2.4-3-3L486,948.3l-3.25-6.47-2.38-7.27-1.25-3.74-5.9-6.19-.74-.65-3.08-2.6-3.34-2.75L463,916.37l-.51-.37-3.65-4.39-1.53-2.17-3.14-4L452,902.2l-1.67-3.64-.26-1.17-1-4.38,1.4-10.38.06-.5,1-8.38.45-5.08-.83-3.42-2.39-1.53m371,353.83,2.78,6.87-4.3,87.67,31.13,2.06,30.44,1.1m0,0c.12-1.35.24-2.71.37-4.06.64-7.14,1.19-14.45,1.53-21.64l1.1-21.45,2.21-42.88.28-5.48-21.14-2.81L840.56,1214l-17.29-2.12-3.39,5.65L800.29,1215l-19.58-2.54-44-5.41-15.47-1.11-.93-.06-4.8-.22-.75-.08-15.56-.66-12.73-.84L669,1203.4l-8.89-.7-9-1.84-8.34-3.13-1.19-9.36L639,1171.08l-.25-4,.19-4.38,1.27-4,1.3-2.14,1.11-2.82,1.37-2.36,1.84-2.63,1.85-2.27.38-.48,2.76-3.34,7.86-9.64,4-5.44,2.48-3.17.4-.51,3.8-4,5-5.77,2-1.85L693,1097.1l7.47-7.67,6.48-11.16,5.46-12,.51-1.12,1.43-5.87,1.07-6.68.1-1.75.33-5.44.05-6.23,0-7.16-.11-10.41,2.37-5.77-6.43-3.77-3.22-1.37-4.39-1.1-1.09-.25-2.74-.28-2.55-.27-14.11-2.92-4.08-1.69h0l-2.07-1.27-.28-.17-1.58-1.88-3-4.44-4.45-6.54L659,977.17l-6-8.57-9-9-8.52-7.41-12.43-9.82-6.35-4.56-21.28-13.54-13.8-8.77-27.37-18L544.41,891l-29.09-17.11-.21-.13-17.9-11.84-2.68-1.48-2.76-1.37-4.25-1.49-4-1-8.4-1.51-4.83-.26-2.1,0-3.17.31-2.89.57-4.39,1.45-3.64,1.93-5.21,4.65-8,7.65-11.74,11-4.85,4.32-2.87,2.57-8.34,5.83-4.93,2.76-3.3,1.25-12.61,5.59-1.29.4L376.09,911l-11,4-13,4.72-47.58,19h0l7.1,20L316,970.37l3.15,8.25.72.86,1.16.16,34.66-12.85,12-4.85-15.56-42.2M907.31,1551.1,894,1549a29.31,29.31,0,0,1-24.76-30.58l6.78-121.66c.44-7.16.87-14.35,1.13-21.59q.21-5.43.27-10.9c0-3.62,0-7.37,0-10.76.09-12.61,1.31-25.37,2.48-38.3M867.81,1545c-11.79-1.85-23.55-3.8-35.39-5.54l-43.22-5.75-86-11.74m164.58,23c2.48.39,5,.78,7.45,1.15L961,1557.29l84,11.48,14.29-.51,32.94-8.9,17.77-4.8,8.88-2.4,9-2.08,50.91-11.77"/><path class="cls-4" d="M225.64,1260.23l0,.1,3,6.39,1.08,1.92a24.86,24.86,0,0,0,1.37,2.3l3.37,5.13,11.45,23.37c1.83,3.82,3.77,7.58,5.5,11.46l5.3,11.8L275,1370.45l2.88,9.76,37.11-4.73,47.45,9.14,47,12.14,20.73,13.93c2.85,2,5.64,4.18,8.46,6.27l9.77,7.28,31.79,31.89c5,5.21,9.79,10.65,14.69,16L508.51,1487l10.23,8.65,15.2,3.36,84.13,11.59,85.16,11.36M225.64,1260.23s-18.53-11.38-20.84-16-4.71-9.16-7.21-13.67l-7.68-13.41-3.89-3.72-3-2.09-2.89-2.18-3.62-1.88c-3.37-.61-6.77-1.07-10.16-1.56l-8.42-.32-3-.68-5.24-.45-13.1-.89-12.94-1.13-11.63-1.42-14.18-1.12-13.4-.41-33.13-1.57-2.24,1-1.88,1-1.34,1.59-.79,2.15-.3,3.78-.37,4.67.26,2,.55,1.38,1.11,1.6,1.08,1.15,2.45,1.37,2.7,1,11.28.61,6.09.35,5.86.49,3.13-.16,2.34-.23,2.33-.55,2.27-1,2.28-1.38,6.93-6.12,9.06-6.2,5.31-1.94,4.37-.63,9.59.47,9.57.59,5.7.31,6.09.49,4.19,0,6-.77m70.64,55.5,53.92-20,16.35-6.2,33.76-12.58,21.22-7,2.61-.47,1.82-.64,4.5-.72,4.95-.16h5.56l5.23.56,6.33.54,5.95,1.31,4.72,1,5.23,2,7.52,3.51,7.17,4.06,15,10.23,7.44,4.86,15.76,11.61,23.73,17.62,6.07,3.21,27.05,19.34,1.71-3.58.26-.8.88-1.86,1.39-3.07-1.54-.68-1.32-.8-1.9-1.57-2.49-2.94-1-4.2-.76-5.81-1.22-11.7-.28-3.3-.15-8.49-.23-4.8.49-7.5,1.24-9,.92-7.37.49-4.18.79-5.25,1-5.12,3.5-15.84.36-1.34,2.61-12.1,1.3-6,.92-4.31.15-3.76.19-4.83,0-1-.06-5.2,0-5.07.13-3,.2-4.75,1.86-11,4-10.73.86-3.78,2.12-9.27,1.26-5,1.44-9.84,1.11-17.37-1.58-16.66-.14-2.57-2-15.13-.54-13.46.17-13.2.34-12.52,0-7.71-.49-6.1-2.33-5-2.86-3.21-3.32-1.9-3-1.69-6.18-2.59-4.59-2-2.22-1.22-2.21-1.62-3.16-2.4-3-3L486,948.3l-3.25-6.47-2.38-7.27-1.25-3.74-5.9-6.19-.74-.65-3.08-2.6-3.34-2.75L463,916.37l-.51-.37-3.65-4.39-1.53-2.17-3.14-4L452,902.2l-1.67-3.64-.26-1.17-1-4.38,1.4-10.38.06-.5,1-8.38.45-5.08-.83-3.42-2.39-1.53m371,353.83,2.78,6.87-4.3,87.67,31.13,2.06,30.44,1.1m0,0c.12-1.35.24-2.71.37-4.06.64-7.14,1.19-14.45,1.53-21.64l1.1-21.45,2.21-42.88.28-5.48-21.14-2.81L840.56,1214l-17.29-2.12-3.39,5.65L800.29,1215l-19.58-2.54-44-5.41-15.47-1.11-.93-.06-4.8-.22-.75-.08-15.56-.66-12.73-.84L669,1203.4l-8.89-.7-9-1.84-8.34-3.13-1.19-9.36L639,1171.08l-.25-4,.19-4.38,1.27-4,1.3-2.14,1.11-2.82,1.37-2.36,1.84-2.63,1.85-2.27.38-.48,2.76-3.34,7.86-9.64,4-5.44,2.48-3.17.4-.51,3.8-4,5-5.77,2-1.85L693,1097.1l7.47-7.67,6.48-11.16,5.46-12,.51-1.12,1.43-5.87,1.07-6.68.1-1.75.33-5.44.05-6.23,0-7.16-.11-10.41,2.37-5.77-6.43-3.77-3.22-1.37-4.39-1.1-1.09-.25-2.74-.28-2.55-.27-14.11-2.92-4.08-1.69h0l-2.07-1.27-.28-.17-1.58-1.88-3-4.44-4.45-6.54L659,977.17l-6-8.57-9-9-8.52-7.41-12.43-9.82-6.35-4.56-21.28-13.54-13.8-8.77-27.37-18L544.41,891l-29.09-17.11-.21-.13-17.9-11.84-2.68-1.48-2.76-1.37-4.25-1.49-4-1-8.4-1.51-4.83-.26-2.1,0-3.17.31-2.89.57-4.39,1.45-3.64,1.93-5.21,4.65-8,7.65-11.74,11-4.85,4.32-2.87,2.57-8.34,5.83-4.93,2.76-3.3,1.25-12.61,5.59-1.29.4L376.09,911l-11,4-13,4.72-47.58,19h0l7.1,20L316,970.37l3.15,8.25.72.86,1.16.16,34.66-12.85,12-4.85-15.56-42.2M907.31,1551.1,894,1549a29.31,29.31,0,0,1-24.76-30.58l6.78-121.66c.44-7.16.87-14.35,1.13-21.59q.21-5.43.27-10.9c0-3.62,0-7.37,0-10.76.09-12.61,1.31-25.37,2.48-38.3M867.81,1545c-11.79-1.85-23.55-3.8-35.39-5.54l-43.22-5.75-86-11.74m164.58,23c2.48.39,5,.78,7.45,1.15L961,1557.29l84,11.48,14.29-.51,32.94-8.9,17.77-4.8,8.88-2.4,9-2.08,50.91-11.77"/></g></g><g id="日交線"><g id="十六本松"><path class="cls-5" d="M1193,1134.56l.93-5.1,1-12-1.1-2.17-4.48-2.23-7.07-4.47-12.65-7.79-2.39-2.17,3.72-5.34,2.89-3.24-16.4-13-7.84-6.3-8.43-6.77-18.86-8.94-14.68-4.3-14.4-4.51-5.22-1.63-4.57,14.7-4.41,14.18-.79,2.57-4,33.35-36.37-14.91-.94-.39-11.72-7.26-5.78-4.9-9.23-9.9-12.08-13-.81-.72-8.39-9.55-1-1.09-11.51-12.52-4.45-4.84-1.28-1.22-3.25-3.08-4.82-4.19-5.16-3.66-4.07-2.24-3.15-.86-1.55-.39-5.4-1-3-.2-4.92-.82-9-2.92-.47-.16-11.76-4.84-.36-.15-10.85-4.76-1.13-.5L896,995.66l-5.84-5.16-19.32-18.1-7.29-7-3.46-3.27L849.4,952l-15.27-15m36.7,35.4,11.11-12.71,17.84-19.07-7.42-7L884.81,927l-6.55-6.74-7.57-6.79-9.56-5.74-6.83,7.87-9.14,9.71-11,11.74m634.58,354,5.15-5.94c2-2.24,3.9-4.49,5.8-6.54.94-1,1.94-2.11,2.83-3.14l2.6-3.07c1.62-1.91,3.22-3.83,4.77-5.76l-23.14-21.3-31.15-30.56-30.7-30.17-9.6-9-18.64-17.12-10.3-9.32-2,.94-1.35.67-1,.53-4.42,4.64-.88.85-17.55,17.11L1322.23,1189l-2.16-2.63-8.16-10.28-8.31-11.1-3.68-4.32-12-8.15-2.84-1.32-1.17-.53-2-1-4.7-2.22-2.22-1-3-.8-2.84-.68-3.52-.72-6-.54-1.9,0-6.28.42-9.73-.49-10.41-1.88-38.31-7.13m0,0-8,26-6.16,30-6.23,54.73,5.32,32.15m157.75,151c14-15.6,12.59-14.08,27.4-29.6,9.56-10,19.24-20.33,28.6-30.31,12.85-13.69,26.15-27.86,39.46-41.62,8.68-9,17.76-17.43,26.55-25.61,4-3.7,7.95-7.4,11.88-11.14"/><polyline class="cls-6" points="1046.29 1097.91 1037.86 1094.45 1036.92 1094.06 1025.2 1086.81 1019.42 1081.9 1010.19 1072 998.11 1059.04 997.3 1058.32 988.91 1048.77 987.94 1047.68 976.43 1035.16 971.98 1030.32 970.7 1029.1 967.45 1026.03 962.63 1021.84 957.47 1018.17 953.4 1015.93 950.25 1015.07 948.7 1014.68 943.3 1013.65 940.26 1013.45 935.35 1012.63 926.37 1009.71 925.9 1009.55 914.13 1004.71 913.78 1004.56 902.92 999.8 901.8 999.3 895.99 995.66 890.15 990.5 870.83 972.4 863.54 965.37 860.08 962.1 849.4 952 844.9 947.58"/><line class="cls-7" x1="834.13" y1="937" x2="834.13" y2="937"/><line class="cls-7" x1="870.83" y1="972.4" x2="870.83" y2="972.4"/><line class="cls-8" x1="885.09" y1="956.32" x2="892.44" y2="948.47"/><line class="cls-7" x1="899.78" y1="940.62" x2="899.78" y2="940.62"/><polyline class="cls-9" points="881.17 923.21 878.26 920.21 871.88 914.49"/><line class="cls-7" x1="861.13" y1="907.69" x2="861.13" y2="907.69"/><polyline class="cls-10" points="847.78 922.48 845.16 925.26 840.95 929.74"/><line class="cls-7" x1="834.13" y1="937" x2="834.13" y2="937"/></g></g></g></svg>