<svg id="routes" xmlns="http://www.w3.org/2000/svg" xmlns:xlink="http://www.w3.org/1999/xlink" viewBox="0 0 1024 1024"><defs><style>.cls-1,.cls-10,.cls-11,.cls-12,.cls-13,.cls-14,.cls-15,.cls-16,.cls-17,.cls-18,.cls-19,.cls-20,.cls-21,.cls-22,.cls-23,.cls-24,.cls-3,.cls-4,.cls-5,.cls-6,.cls-7,.cls-8,.cls-9{fill:none;}.cls-2{clip-path:url(#clip-path);}.cls-10,.cls-3{stroke:#ef845d;}.cls-10,.cls-11,.cls-12,.cls-13,.cls-14,.cls-15,.cls-16,.cls-17,.cls-18,.cls-19,.cls-20,.cls-21,.cls-22,.cls-23,.cls-24,.cls-3,.cls-4,.cls-5,.cls-6,.cls-7,.cls-8,.cls-9{stroke-miterlimit:10;}.cls-10,.cls-11,.cls-12,.cls-13,.cls-14,.cls-24,.cls-3,.cls-4,.cls-5,.cls-6,.cls-8,.cls-9{stroke-width:4.4px;}.cls-4,.cls-8{stroke:#f6ad3c;}.cls-11,.cls-5{stroke:#187fc4;}.cls-6,.cls-9{stroke:#ca2e34;}.cls-15,.cls-16,.cls-17,.cls-18,.cls-19,.cls-20,.cls-21,.cls-22,.cls-24,.cls-7{stroke:#231815;}.cls-10,.cls-11,.cls-12,.cls-13,.cls-14,.cls-15,.cls-16,.cls-17,.cls-18,.cls-19,.cls-20,.cls-21,.cls-22,.cls-23,.cls-24,.cls-7,.cls-8,.cls-9{stroke-linecap:round;}.cls-15,.cls-16,.cls-17,.cls-18,.cls-19,.cls-20,.cls-21,.cls-22,.cls-23,.cls-7{stroke-width:8.79px;}.cls-12{stroke:#ed6d46;}.cls-13{stroke:#aace36;}.cls-14{stroke:#985d1b;}.cls-15{stroke-dasharray:0 29.4;}.cls-16{stroke-dasharray:0 30.37;}.cls-17{stroke-dasharray:0 28.2;}.cls-18{stroke-dasharray:0 30.02;}.cls-19{stroke-dasharray:0 17.43;}.cls-20{stroke-dasharray:0 27.66;}.cls-21{stroke-dasharray:0 25.34;}.cls-22{stroke-dasharray:0 29.23;}.cls-23{stroke:#70b058;}.cls-24{stroke-dasharray:0 30.2;}</style><clipPath id="clip-path"><rect class="cls-1" x="-5031" y="-3068" width="11720" height="11720"/></clipPath></defs><title>3230_7149</title><g class="cls-2"><g id="市内"><polyline class="cls-3" points="1401.15 1033.25 1357.09 1011.99 1326.03 997.35 1295.55 983.78 1278.79 975.67 1257.67 964.17 1240.58 955.18 1234 952.15 1230.75 950.87 1222.87 948.75 1132.39 928.52 1131.16 927.97 1125.93 927.59 1121.7 926.98 1117.64 926.63 1114.05 926.63 1110.54 926.96 1109.92 927.1 1101.13 929.86 1090.39 934.43 1086.57 935.33 1084.37 935.61 1081.29 935.52 1073.86 934.66 1031.7 932.28 1015.66 929.7 1006.28 935.44 998.43 934.3"/><polyline class="cls-4" points="1404.87 1025.29 1360.88 1004.06 1329.69 989.36 1299.25 975.81 1282.9 967.9 1261.81 956.42 1244.58 947.36 1238.38 944.44 1233.76 942.61 1229.57 941.43 1224.91 940.21 1135.16 920.13 1133.32 919.31 1127.03 918.87 1122.83 918.26 1118.2 917.86 1113.84 917.84 1109.45 918.23 1107.84 918.55 1098.26 921.55 1088.94 925.53 1087.86 926.01 1085.26 926.64 1083.92 926.8 1082.07 926.76 1074.76 925.91 1032.87 923.56 1017.06 921.02 1010.08 912.31 1001.59 911.07"/><polyline class="cls-5" points="1403.01 1029.27 1390.42 1023.19 1386.24 1021.17 1359 1008.03 1327.9 993.37 1307.84 984.44 1297.34 979.77 1286.54 974.54 1280.89 971.81 1259.77 960.31 1242.54 951.25 1236.51 948.41 1235.6 948.06 1232.15 946.7 1228.4 945.66 1226.92 945.25 1223.95 944.49 1133.78 924.33 1132.24 923.64 1126.56 923.24 1122.2 922.61 1117.83 922.24 1113.84 922.24 1109.86 922.61 1108.79 922.85 1104.51 924.19 1099.58 925.74 1096.24 927.21 1090.71 929.55 1089.31 930.18 1087.43 930.65 1086.02 930.97 1084.14 931.21 1081.77 931.15 1078.57 930.79 1074.24 930.28 1032.4 927.94 1008.18 923.88"/><polyline class="cls-6" points="1407.01 1021.44 1362.75 1000.08 1331.65 985.42 1301.04 971.79 1284.91 963.99 1263.86 952.53 1246.63 943.47 1240.25 940.46 1235.37 938.52 1230.74 937.19 1226.13 935.98 1136.55 915.94 1134.4 914.98 1127.5 914.49 1123.46 913.91 1118.57 913.48 1113.84 913.45 1109.05 913.86 1106.9 914.26 1096.94 917.36 1087.16 921.51 1086.43 921.84 1084.5 922.3 1083.7 922.4 1082.36 922.37 1075.28 921.55 1033.34 919.19 1017.75 916.69 1011.97 900.74 1005.09 899.73"/></g><g id="日ノ丸線"><g id="国体"><path class="cls-7" d="M1334.08,1053.36l-6.79-3.11-1.38-.4.87.18-.35,0c-.32,0-1,0-1.62,0l-1.92.06-3.58.11-3.33.4c-.59.08-1.21.13-1.81.19l-2,.18c-2.5.06-3.87.08-6.41.08l-2.9-.23-2.73-.18c-1.85-.09-3.65-.33-5.47-.51-3.63-.38-7.32-.74-10.79-1.16l-21.61-1.77-10.81-.89-5.4-.44c-.9-.08-1.8-.13-2.71-.24l-2.7-.39c-7.23-1.06-14.38-2-21.67-3.17-1.81-.31-3.67-.51-5.44-.9l-5.32-1.12c-3.55-.79-7.1-1.39-10.66-2l-21.33-3.7-42.67-7.4-21.33-3.7-5.34-.93-2.66-.46-2.64-.61c-3.52-.75-7-1.26-10.56-1.91l-42.48-8.68-84.84-17.15-38.24-13.74-35.77-7.37-5-.95L864.83,967l-3.25-.51-4.65,0-12.22-1-5.42.21-3.86.32-3.41.62-5.09.87-7.19,1.78-14.4,4.39-32.05,9.7h0l-8.45,2.43-10,2.59-9.48,1.86-6.75.68-15,.44-11.49-.63-3.49-.43-1.63-.17-16.2-1.52-2.4-.28-39.07-4.51-10.26-1.56-12.51-2-7.64-1.41-9.68-2.41-11.06-3.38-8-2.47-4.72-1.78-3.6-1.47L575.61,965l-8.75-3.64-6.15-3-11.36-5.78-10.6-6.45-2.63-1.53-9.41-6.33-16.87-11.88-11.42-7.8-7.38-5-7.54-5.49-26.26-17.58-6.78-2-7.52-2.15-6.86-1-9.58-.74-11.15.15-23.15.48-35.08,1.07-48,1.19-40.18.7-41.36-2,1.89-41.55,1.15-20.76q.56-10.38,1.26-20.76c.48-6.91.84-13.84,1.41-20.75l.52-5.17.32-5.19.64-10.38c1.16-13.81,2.71-27.59,3.74-41.42s2-27.65,3.07-41.47,2.11-27.65,3.28-41.46l3.51-41.45c.27-4.22.61-8.43,1-12.65l-33.26-24.56"/><path class="cls-8" d="M1334.08,1053.36l-6.79-3.11-1.38-.4.87.18-.35,0c-.32,0-1,0-1.62,0l-1.92.06-3.58.11-3.33.4c-.59.08-1.21.13-1.81.19l-2,.18c-2.5.06-3.87.08-6.41.08l-2.9-.23-2.73-.18c-1.85-.09-3.65-.33-5.47-.51-3.63-.38-7.32-.74-10.79-1.16l-21.61-1.77-10.81-.89-5.4-.44c-.9-.08-1.8-.13-2.71-.24l-2.7-.39c-7.23-1.06-14.38-2-21.67-3.17-1.81-.31-3.67-.51-5.44-.9l-5.32-1.12c-3.55-.79-7.1-1.39-10.66-2l-21.33-3.7-42.67-7.4-21.33-3.7-5.34-.93-2.66-.46-2.64-.61c-3.52-.75-7-1.26-10.56-1.91l-42.48-8.68-84.84-17.15-38.24-13.74-35.77-7.37-5-.95L864.83,967l-3.25-.51-4.65,0-12.22-1-5.42.21-3.86.32-3.41.62-5.09.87-7.19,1.78-14.4,4.39-32.05,9.7h0l-8.45,2.43-10,2.59-9.48,1.86-6.75.68-15,.44-11.49-.63-3.49-.43-1.63-.17-16.2-1.52-2.4-.28-39.07-4.51-10.26-1.56-12.51-2-7.64-1.41-9.68-2.41-11.06-3.38-8-2.47-4.72-1.78-3.6-1.47L575.61,965l-8.75-3.64-6.15-3-11.36-5.78-10.6-6.45-2.63-1.53-9.41-6.33-16.87-11.88-11.42-7.8-7.38-5-7.54-5.49-26.26-17.58-6.78-2-7.52-2.15-6.86-1-9.58-.74-11.15.15-23.15.48-35.08,1.07-48,1.19-40.18.7-41.36-2,1.89-41.55,1.15-20.76q.56-10.38,1.26-20.76c.48-6.91.84-13.84,1.41-20.75l.52-5.17.32-5.19.64-10.38c1.16-13.81,2.71-27.59,3.74-41.42s2-27.65,3.07-41.47,2.11-27.65,3.28-41.46l3.51-41.45c.27-4.22.61-8.43,1-12.65l-33.26-24.56"/></g><path class="cls-7" d="M1339,1042.72l-7.65-3.5-2.26-.64-.43-.12-.44-.06-1-.12-2.36-.06-2.06.06-4.38.13-3.71.45c-.57.08-1.14.13-1.71.18l-1.51.14c-1.4,0-4,.07-5.31.06l-2.49-.2-2.67-.18c-1.76-.08-3.53-.32-5.3-.49-3.55-.37-7-.71-10.73-1.15l-21.52-1.77-10.76-.88-5.38-.44c-.89-.08-1.79-.13-2.68-.24l-2.65-.38c-7-1-14.19-2-21.15-3.1-1.74-.29-3.48-.47-5.23-.86l-5.27-1.1c-3.5-.79-7-1.39-10.61-2l-21.3-3.69-42.62-7.4-21.31-3.69-5.32-.93-2.66-.46-2.64-.61c-3.53-.75-7.15-1.28-10.73-1.94l-42.32-8.64L966,981.93l-12,24.23"/><path class="cls-9" d="M1339,1042.72l-7.65-3.5-2.26-.64-.43-.12-.44-.06-1-.12-2.36-.06-2.06.06-4.38.13-3.71.45c-.57.08-1.14.13-1.71.18l-1.51.14c-1.4,0-4,.07-5.31.06l-2.49-.2-2.67-.18c-1.76-.08-3.53-.32-5.3-.49-3.55-.37-7-.71-10.73-1.15l-21.52-1.77-10.76-.88-5.38-.44c-.89-.08-1.79-.13-2.68-.24l-2.65-.38c-7-1-14.19-2-21.15-3.1-1.74-.29-3.48-.47-5.23-.86l-5.27-1.1c-3.5-.79-7-1.39-10.61-2l-21.3-3.69-42.62-7.4-21.31-3.69-5.32-.93-2.66-.46-2.64-.61c-3.53-.75-7.15-1.28-10.73-1.94l-42.32-8.64L966,981.93l-12,24.23"/><g id="湖岸"><path class="cls-7" d="M-494.94,245.19l-9.4-.54L-534.7,243l-20.2-.67-6,1.46-3.48,1.55-3.52,3.24-2.59,2.89-3.35,4.52-7.66,9.52L-604,249.83l-6.64-5.17-11.25-8.07-5.09-2.08-3.11-.31-8,1.57L-678.32,245l-10.29,2.38L-702,250.67l-9.81,2-2.11.84-2,1.54-2,2-9.56,15.14L-740,292l-10.08,15.88-5.39,8.4-.38.9-.06.89v.83l.12.71.26.77.71,1,8.59,7,6,3.91,1.67.51,2.51.52,2,.51,2.69,1.09,6.09-8.85,11-15.14,6.35-9.29,7.83-10.65.83-1.08m0,0,2.82-3.67,5.58-8.7,2.12-2.71,5.13-6,17,11.93,12.14,9,8.06,0,56.88-.14c9.73,0,19.25.58,28.63.91a205.79,205.79,0,0,0,27.61-.45l3.33-.39,3.3-.5,3-.66c1-.27,2-.59,2.93-.87a29.82,29.82,0,0,0,10.26-5.94c6-5.25,9.88-13,12.32-21.52a114.24,114.24,0,0,0,3.18-15m0,0c.58-3.91,1-7.87,1.43-11.86.59-5.88,1-11.83,1.54-17.87m11.49,3-11.49-3m120.49,25.9-5.7,26.37,11.3,28m-114.6-77.26,14.47,3.83c2.42.6,4.8,1.36,7.26,1.83l7.33,1.53,14.67,3.08,29.34,6.14,7.34,1.53c2.44.5,4.89.86,7.34,1.3l14.69,2.5,6.56,1.12m-511,1201.09,14.14-1.16,7.06-.58c1.17-.11,2.38-.17,3.51-.32l2.9-.42,2.14-.68,7.71-3.82,5.52-4.54,3.55-4.45,3.87-5,7.57-9.82,5.89-9.31,4-9.94,1.27-4,.68-2.11.76-2.07,3-8,2.64-9.41.2-2.06c.08-.84.2-1.68.23-2.54l.29-4.92,0-.6c0-.32,0-.62,0-.86l0-1.58,0-3.15c.11-2.09-.1-4.2-.18-6.3l-.64-12.61-.64-12.61-.92-13.75,1.65-5.32,11.61-29.45,11.89-28.77,1-3.22,20.3-50,10.11-24.81c3.33-8.28,6.9-16.46,9.84-24.91l1.15-3.14,1.25-3.12,2.51-6.24,5-12.47,10-24.94,5-12.47,5.18-12.45,5.2-12.44,2.6-6.22,1.3-3.12c.43-1,2.13-4.54,2.13-4.54l-6.8-1.41-27.06-7.68-16.73-23-2.63-3.72-4.22-5.47-.91-1.09-6.13-5.82-5-2L-772.9,986l-10.31-11.49-.3-.4-9-12.11-8.07-8.93-2.29-2.62-1.14-1.29-4-5.38-4.6-8.53-.23-2.09-.06-.54,5.48-11.65.69-3.33-.1-16.25,1-4.9,2.74-6.36,2.54-4.31,5.21-3.8,12.22-7.94,3.23-2.84,4.31-6.27,10.86-13.9.29-3.32v-3.23l-13.08-30.17-3.16-3-6.17-3.33-9-3.43-7.44-1.18-10.18-.19-7.83-.49-4.9-1.48-3.52-1.56-8.22-4.1-9.2-5-6.07-4.9-3.54-4.45-4.44,1.38-4.17-.95-5.14-2.35-4.22-2.46-1.76-1.43-1.53-1.73-1.42-3.3-.34-1.78-.06-2,.7-2.89,1.49-2.75,2.62-3.39,7.1-6.29,4.92-4.12,2.09-1,3.53.06L-857,745l1.67-3.18,3.43-5.27,3.18-4.81,4.85-8.34,6.52-11,7.12-11.9,4-6.66,3.44-6,3.8-7.08,4.22-7.31,4.05-5.74L-807,665l10.31-4.69,8.08-3.54,10.18-3.58,8.38-2.94,4.69-2.51,3.83-3.92,4-6.33,6.42-8.51,4.88-4.49,4.92-3.69,3.94-2.67,7.57-1.41,13.12-.14,3.9.49,7,4.34,5.15,3.89,3.4,1.63,2.36-.22,2.84-.82,1.89-2.68,1.67-2.3,1.8-4.48,2.51-3,3-2.23,5.84-1.11,4.46-.39,8.87-2.83,12.21-4.27,11.1-3.87,4.07-2.23,1-.92,1.38-2.17,1.11-2.36-.58-2-1.38-1.58-3.22-2.16-3.09-1.51-3.87-.59-9.59-.53-6.5-1-3.35-1.64-11-14.19-6.1-7.81-2.76-4.67-.9-1.18-1.79-2.36-4.8-5.52-.06-3.21.59-5.78-.53-5.65-2.23-4.79-5.06-7.88-3.6-4.33-4.54-3-6.05-3.29-5.46-3-3.94-3.29L-723,496l-1-4.67-.33-6.64.52-7.62.4-8-.59-11.24-.06-7.9.22-2.47-1.94-5.82-1.71-8.16-.45-2.35-.27-4.17.19-5,2.18-6.58,2.83-6.47L-707.76,382l26.47-36.53.2-.28L-659,314l8.57-12.52h4l56.86-.14c18.48,0,37.59,2.31,57.42.4l3.72-.43,3.73-.58,3.91-.84c1.3-.35,2.59-.76,3.88-1.16a41.62,41.62,0,0,0,14.18-8.22,47.55,47.55,0,0,0,10-12.68,70.45,70.45,0,0,0,5.82-14.33c4.33-15.18,5.15-30.43,6.39-45m446.19,91.9-26.18-1.6-27.7-7.61c-4.75-1.35-9.53-2.55-14.3-3.75l-14.31-3.63-28.63-7.25c-2.39-.59-4.77-1.23-7.16-1.79l-7.25-1.47-14.49-2.95-29-6.74c-9.7-2.3-19.26-4.32-28.89-6.49l-28.85-6.42c-2.4-.58-4.83-1-7.26-1.41l-7.29-1.28-14.57-2.57c-19.46-3.41-38.79-6.88-58.45-10.19l-22.82-3.89m337.19,69L-25,311,6.78,323.34l15.91,6.19c5.31,2.05,10.59,4.18,16,6L70.81,347c5.36,1.9,10.7,3.86,16.08,5.71L103,358.27l32.3,11c21.6,7.18,43.09,14.69,64.93,21.12l32.81,2.21,31-.58,12.42-.23,37.41-4.76,40.85,7.85,40.15,10.38,15.05,10.1c2.72,2,5.37,4,8.06,6l7.39,5.51,29.45,29.53c4.91,5.12,9.59,10.44,14.39,15.65l14.85,16.28,18.61,15.74,25.07,5.54,85.61,11.79,85.18,11.36M264,392.06,252.8,354l-17.64-46.11-5-11.12c-1.69-3.77-3.6-7.45-5.38-11.19l-10.64-21.76-3-4.58c-.58-.84-1.09-1.76-1.6-2.67l-1.77-3.14-2-4.4-16.94,6.05-23.9,8.54-24.51,8.14-26,4.62-12,.53c-1.93.07-3.87-.06-5.81-.07l-6.28-.14-26.49-5.11-46.1-21.32L-12.37,233l-.52,1.84L-14.36,240c-.49,1.73-1.06,3.38-1.58,5.07l-6.43,20.16c-1.05,3.36-2.21,6.71-3.16,10.09l-2.54,10.2h0a30.83,30.83,0,0,1-31.79,23.29l-.61,0m759,224,86,11.74,42.89,5.71c14.29,2.09,28.57,4.53,42.86,6.69l86.16,11.22L1043.3,580l21.34-.76,36.48-9.86,17.6-4.76,8.79-2.38,8.87-2,51.18-11.82"/><path class="cls-10" d="M-494.94,245.19l-9.4-.54L-534.7,243l-20.2-.67-6,1.46-3.48,1.55-3.52,3.24-2.59,2.89-3.35,4.52-7.66,9.52L-604,249.83l-6.64-5.17-11.25-8.07-5.09-2.08-3.11-.31-8,1.57L-678.32,245l-10.29,2.38L-702,250.67l-9.81,2-2.11.84-2,1.54-2,2-9.56,15.14L-740,292l-10.08,15.88-5.39,8.4-.38.9-.06.89v.83l.12.71.26.77.71,1,8.59,7,6,3.91,1.67.51,2.51.52,2,.51,2.69,1.09,6.09-8.85,11-15.14,6.35-9.29,7.83-10.65.83-1.08m0,0,2.82-3.67,5.58-8.7,2.12-2.71,5.13-6,17,11.93,12.14,9,8.06,0,56.88-.14c9.73,0,19.25.58,28.63.91a205.79,205.79,0,0,0,27.61-.45l3.33-.39,3.3-.5,3-.66c1-.27,2-.59,2.93-.87a29.82,29.82,0,0,0,10.26-5.94c6-5.25,9.88-13,12.32-21.52a114.24,114.24,0,0,0,3.18-15m0,0c.58-3.91,1-7.87,1.43-11.86.59-5.88,1-11.83,1.54-17.87m11.49,3-11.49-3m120.49,25.9-5.7,26.37,11.3,28m-114.6-77.26,14.47,3.83c2.42.6,4.8,1.36,7.26,1.83l7.33,1.53,14.67,3.08,29.34,6.14,7.34,1.53c2.44.5,4.89.86,7.34,1.3l14.69,2.5,6.56,1.12m-511,1201.09,14.14-1.16,7.06-.58c1.17-.11,2.38-.17,3.51-.32l2.9-.42,2.14-.68,7.71-3.82,5.52-4.54,3.55-4.45,3.87-5,7.57-9.82,5.89-9.31,4-9.94,1.27-4,.68-2.11.76-2.07,3-8,2.64-9.41.2-2.06c.08-.84.2-1.68.23-2.54l.29-4.92,0-.6c0-.32,0-.62,0-.86l0-1.58,0-3.15c.11-2.09-.1-4.2-.18-6.3l-.64-12.61-.64-12.61-.92-13.75,1.65-5.32,11.61-29.45,11.89-28.77,1-3.22,20.3-50,10.11-24.81c3.33-8.28,6.9-16.46,9.84-24.91l1.15-3.14,1.25-3.12,2.51-6.24,5-12.47,10-24.94,5-12.47,5.18-12.45,5.2-12.44,2.6-6.22,1.3-3.12c.43-1,2.13-4.54,2.13-4.54l-6.8-1.41-27.06-7.68-16.73-23-2.63-3.72-4.22-5.47-.91-1.09-6.13-5.82-5-2L-772.9,986l-10.31-11.49-.3-.4-9-12.11-8.07-8.93-2.29-2.62-1.14-1.29-4-5.38-4.6-8.53-.23-2.09-.06-.54,5.48-11.65.69-3.33-.1-16.25,1-4.9,2.74-6.36,2.54-4.31,5.21-3.8,12.22-7.94,3.23-2.84,4.31-6.27,10.86-13.9.29-3.32v-3.23l-13.08-30.17-3.16-3-6.17-3.33-9-3.43-7.44-1.18-10.18-.19-7.83-.49-4.9-1.48-3.52-1.56-8.22-4.1-9.2-5-6.07-4.9-3.54-4.45-4.44,1.38-4.17-.95-5.14-2.35-4.22-2.46-1.76-1.43-1.53-1.73-1.42-3.3-.34-1.78-.06-2,.7-2.89,1.49-2.75,2.62-3.39,7.1-6.29,4.92-4.12,2.09-1,3.53.06L-857,745l1.67-3.18,3.43-5.27,3.18-4.81,4.85-8.34,6.52-11,7.12-11.9,4-6.66,3.44-6,3.8-7.08,4.22-7.31,4.05-5.74L-807,665l10.31-4.69,8.08-3.54,10.18-3.58,8.38-2.94,4.69-2.51,3.83-3.92,4-6.33,6.42-8.51,4.88-4.49,4.92-3.69,3.94-2.67,7.57-1.41,13.12-.14,3.9.49,7,4.34,5.15,3.89,3.4,1.63,2.36-.22,2.84-.82,1.89-2.68,1.67-2.3,1.8-4.48,2.51-3,3-2.23,5.84-1.11,4.46-.39,8.87-2.83,12.21-4.27,11.1-3.87,4.07-2.23,1-.92,1.38-2.17,1.11-2.36-.58-2-1.38-1.58-3.22-2.16-3.09-1.51-3.87-.59-9.59-.53-6.5-1-3.35-1.64-11-14.19-6.1-7.81-2.76-4.67-.9-1.18-1.79-2.36-4.8-5.52-.06-3.21.59-5.78-.53-5.65-2.23-4.79-5.06-7.88-3.6-4.33-4.54-3-6.05-3.29-5.46-3-3.94-3.29L-723,496l-1-4.67-.33-6.64.52-7.62.4-8-.59-11.24-.06-7.9.22-2.47-1.94-5.82-1.71-8.16-.45-2.35-.27-4.17.19-5,2.18-6.58,2.83-6.47L-707.76,382l26.47-36.53.2-.28L-659,314l8.57-12.52h4l56.86-.14c18.48,0,37.59,2.31,57.42.4l3.72-.43,3.73-.58,3.91-.84c1.3-.35,2.59-.76,3.88-1.16a41.62,41.62,0,0,0,14.18-8.22,47.55,47.55,0,0,0,10-12.68,70.45,70.45,0,0,0,5.82-14.33c4.33-15.18,5.15-30.43,6.39-45m446.19,91.9-26.18-1.6-27.7-7.61c-4.75-1.35-9.53-2.55-14.3-3.75l-14.31-3.63-28.63-7.25c-2.39-.59-4.77-1.23-7.16-1.79l-7.25-1.47-14.49-2.95-29-6.74c-9.7-2.3-19.26-4.32-28.89-6.49l-28.85-6.42c-2.4-.58-4.83-1-7.26-1.41l-7.29-1.28-14.57-2.57c-19.46-3.41-38.79-6.88-58.45-10.19l-22.82-3.89m337.19,69L-25,311,6.78,323.34l15.91,6.19c5.31,2.05,10.59,4.18,16,6L70.81,347c5.36,1.9,10.7,3.86,16.08,5.71L103,358.27l32.3,11c21.6,7.18,43.09,14.69,64.93,21.12l32.81,2.21,31-.58,12.42-.23,37.41-4.76,40.85,7.85,40.15,10.38,15.05,10.1c2.72,2,5.37,4,8.06,6l7.39,5.51,29.45,29.53c4.91,5.12,9.59,10.44,14.39,15.65l14.85,16.28,18.61,15.74,25.07,5.54,85.61,11.79,85.18,11.36M264,392.06,252.8,354l-17.64-46.11-5-11.12c-1.69-3.77-3.6-7.45-5.38-11.19l-10.64-21.76-3-4.58c-.58-.84-1.09-1.76-1.6-2.67l-1.77-3.14-2-4.4-16.94,6.05-23.9,8.54-24.51,8.14-26,4.62-12,.53c-1.93.07-3.87-.06-5.81-.07l-6.28-.14-26.49-5.11-46.1-21.32L-12.37,233l-.52,1.84L-14.36,240c-.49,1.73-1.06,3.38-1.58,5.07l-6.43,20.16c-1.05,3.36-2.21,6.71-3.16,10.09l-2.54,10.2h0a30.83,30.83,0,0,1-31.79,23.29l-.61,0m759,224,86,11.74,42.89,5.71c14.29,2.09,28.57,4.53,42.86,6.69l86.16,11.22L1043.3,580l21.34-.76,36.48-9.86,17.6-4.76,8.79-2.38,8.87-2,51.18-11.82"/></g><g id="吉岡"><path class="cls-7" d="M370.85,865.68l-32.59-1L305.67,863l-32.54-1.85q-8.11-.51-16.22-.92l-16-.86-12.45.22-4.69-1.07-6.62-.22L185,851l-9.52-.74-1-.09-1-.11-9.3-1H164l-15.22-2.53-5.54-.87-8.67-.45-7.46.67-3.93.31-4.89.84-3.18,1.12-4.47,2.35-5.08,4.9L65.59,898.8l-1.7,1.88-1.24,1.37L48.3,917.94l-.26.52-.51,1,.35,2.12,1.35,3.48-2.93,1.67-5.33,3-1.39.79-5.3,4.2-2.9,2.31-5.29,5.66-5.82,7.9-.46,1.2L16,961.59,11.9,971.3l-3.06,5.18L6.76,979.3l-5.25,3.43-8.19,4.37-12,4.75-10.1,3.29-11.42,2.3L-65.12,999l-5,.32-9.17.6-7.43.23-1.88-.21-4.31-.48-7.57-1.46-8.21-3.27L-128.59,988l-12.53-2.79-7.94-1.79-5.52-.91h-5.33l-11.06,1.7-37.2,6.26-6.26,2-5.88,3.25L-230,1002l-15,10.59-20.25,13.3-7.35,3.64-7.28,2.09-14.53,4-2,.49-7.08,1.71-7.21.3-5.31-1.29-1.68-.66-2.7-1.58-4.74-5-5.18-8.49-3-4-4.06-2.71-8.49-2.63-10.74-2.92-10.06-3.24-3.69-1.72-2.32-1.93-1.21-1-3.75-5.56-6-10.07-4.66-5.63-7.66-3.83-17.65-5.26-3.9-.08-4.66,1.13-20.06,6.76-28.16,9.77-7.44,4.05-14.95,10.44-11.79,8.19-5.18,2.7-9.09,2-19.16,2.55-4,2.33-3.38,3.31-2.78,6.16-6.61,16-3.23,4.59-4.21,4.28-5.41,3.38-6.23,2.4-5,1.06-24.11-2-19.75-1.87-12-1.2L-689,1042c-.51,1.14-1,2.23-1.18,2.63-.45,1-2.64,6-2.64,6l-2.57,6.15-5.14,12.32-5.14,12.32-5,12.42-10,24.85-5,12.42-2.5,6.21-1.25,3.1-1.15,3.16c-2.95,8.45-6.54,16.68-9.88,25l-10.14,24.89-20.1,49.47-1,3.25-12.08,29.23-11.42,28.95-.88,2.83.79,11.65.65,12.83.64,12.82c.09,2.14.3,4.28.19,6.42l-.05,3.22,0,1.61c0,.29,0,.52,0,.73l0,1-.33,5.61c0,.89-.16,1.8-.24,2.71l-.33,3.18-3,10.84c-2.17,5.9-4,10.61-5.79,16.55l-4.54,11.34-6.75,10.68-7.95,10.31-3.89,5-4.38,5.48-7.5,6.16-9.71,4.82-3.92,1.25-4.17.59c-1.23.17-2.4.22-3.6.33l-7.17.59-14.34,1.18s-6-2.13-8-2.61a29.61,29.61,0,0,0-9.55-.65,19.12,19.12,0,0,0-3.87,1.93l-2.25,1.55-4.2,3.87-29.1,32.64-41.72,46.83-13.35,13.51-11.55,11.22-8.67,7.83-7.37,6.32-4.1,3.72-6.59,3.84-12.39,4.83-9.39,3.53-6.85,3.32-5,4.37-5,5.15-2.22,3.13-.79,3.72.33,4.63,2.68,8.21,3.06,10.44,1,3.3,1.74,5.47,1.76,7-.13,8.17-2.22,6.85-9.27,13.45-2.87,6.72-2.35,4.64-.59,3.86.91,4.89,1.89,3.72,3,5.36.72,3.59v5.35l-2,5-2.35,12.47-2.85,11.32-7.91,27.77-4.2,7.63-12.23,17.46-3.16,6.39-1.58,7.63-3.37,33.54-2,17.74-1.59,7.56-3.16,6.46-6.18,7.15-9,6.73-5.64,4-3.5,5-1.65,3.5-2.68,9.08-2.06,7-1.93,4.81-1.85,2.89-7.5,7.14-12.09,9.08-6.88,4.33-3.3,5-2.68,11.06-.52,2.18-4.08,11-3,3.09-3.85,3.16-7.35,2.27-9.21,1.92-8.25,2.2-6.67,2.48-6,3.57-7.35,6.12-19.25,22.61-4.81,5.43-2.41,5.64-1.44,9.07-1.92,4.67-3.1,4.13-3.78,3.09-5.77,3.92-3.92,1.65-9.34,2.54-4.61,2.13-24.75,19.19-11.27,9.48-1.58,3.16-2.55,7.42-5.08,14.85-7.29,13.4-5.36,6-5,3.78-5.09,3.37-18.7,8.25-29.42,11.89-2.55,1.11-12.91,5.21-4.51,2.56-2.56,3.29-3,5.85-3.53,9.5-2.19,5.12-22.18,23.64-5.48,5.49-2.44,4.87-1.22,5.36-2.19,11.94-1.46,4.75-5.61,3.17-7.79,3.17-7.32,3.9-4,3.65-4.14,7.68-3.78,8.05-4.51,9.5-2.28,5-2.32,9.86-.73,5.26-2.2,8.34-5,5.6M1008.18,923.87c-2.72-.44-5.45-.79-8.17-1.19l-4.09-.58c-1.35-.21-2.72-.39-4.1-.48l-8.43-.73-19.12-2.81-9.49-1.41L950,916c-.79-.12-1.57-.22-2.41-.4l-2.18-.42-28.08-3-3.56-.37-3.51-.49-7-1c-4.67-.51-9.33-.85-14-1.28l-14.07-1.19L861,907l-7.11-.42-3.55-.21c-1.18-.1-2.71-.2-3.83-.4l-14-2.19-14.74-1.2-14.94-1.54L788,899.54c-5-.49-10-1.1-14.93-1.67m.12,0-100.56-10c-16.68-1.69-33.44-3.07-50.26-4.66l-50.28-5q-12.59-1.23-25.18-2.59l-12.61-1.43-6.3-.77c-2-.23-4-.45-6-.6-8.1-.66-16.42-.71-24.89-.89-4.22-.07-8.58-.24-12.75-.41L471.68,871l-12.62-.5c-4.2-.15-8.41-.32-12.62-.58l-25.26-1.42-50.52-2.82"/><path class="cls-11" d="M370.85,865.68l-32.59-1L305.67,863l-32.54-1.85q-8.11-.51-16.22-.92l-16-.86-12.45.22-4.69-1.07-6.62-.22L185,851l-9.52-.74-1-.09-1-.11-9.3-1H164l-15.22-2.53-5.54-.87-8.67-.45-7.46.67-3.93.31-4.89.84-3.18,1.12-4.47,2.35-5.08,4.9L65.59,898.8l-1.7,1.88-1.24,1.37L48.3,917.94l-.26.52-.51,1,.35,2.12,1.35,3.48-2.93,1.67-5.33,3-1.39.79-5.3,4.2-2.9,2.31-5.29,5.66-5.82,7.9-.46,1.2L16,961.59,11.9,971.3l-3.06,5.18L6.76,979.3l-5.25,3.43-8.19,4.37-12,4.75-10.1,3.29-11.42,2.3L-65.12,999l-5,.32-9.17.6-7.43.23-1.88-.21-4.31-.48-7.57-1.46-8.21-3.27L-128.59,988l-12.53-2.79-7.94-1.79-5.52-.91h-5.33l-11.06,1.7-37.2,6.26-6.26,2-5.88,3.25L-230,1002l-15,10.59-20.25,13.3-7.35,3.64-7.28,2.09-14.53,4-2,.49-7.08,1.71-7.21.3-5.31-1.29-1.68-.66-2.7-1.58-4.74-5-5.18-8.49-3-4-4.06-2.71-8.49-2.63-10.74-2.92-10.06-3.24-3.69-1.72-2.32-1.93-1.21-1-3.75-5.56-6-10.07-4.66-5.63-7.66-3.83-17.65-5.26-3.9-.08-4.66,1.13-20.06,6.76-28.16,9.77-7.44,4.05-14.95,10.44-11.79,8.19-5.18,2.7-9.09,2-19.16,2.55-4,2.33-3.38,3.31-2.78,6.16-6.61,16-3.23,4.59-4.21,4.28-5.41,3.38-6.23,2.4-5,1.06-24.11-2-19.75-1.87-12-1.2L-689,1042c-.51,1.14-1,2.23-1.18,2.63-.45,1-2.64,6-2.64,6l-2.57,6.15-5.14,12.32-5.14,12.32-5,12.42-10,24.85-5,12.42-2.5,6.21-1.25,3.1-1.15,3.16c-2.95,8.45-6.54,16.68-9.88,25l-10.14,24.89-20.1,49.47-1,3.25-12.08,29.23-11.42,28.95-.88,2.83.79,11.65.65,12.83.64,12.82c.09,2.14.3,4.28.19,6.42l-.05,3.22,0,1.61c0,.29,0,.52,0,.73l0,1-.33,5.61c0,.89-.16,1.8-.24,2.71l-.33,3.18-3,10.84c-2.17,5.9-4,10.61-5.79,16.55l-4.54,11.34-6.75,10.68-7.95,10.31-3.89,5-4.38,5.48-7.5,6.16-9.71,4.82-3.92,1.25-4.17.59c-1.23.17-2.4.22-3.6.33l-7.17.59-14.34,1.18s-6-2.13-8-2.61a29.61,29.61,0,0,0-9.55-.65,19.12,19.12,0,0,0-3.87,1.93l-2.25,1.55-4.2,3.87-29.1,32.64-41.72,46.83-13.35,13.51-11.55,11.22-8.67,7.83-7.37,6.32-4.1,3.72-6.59,3.84-12.39,4.83-9.39,3.53-6.85,3.32-5,4.37-5,5.15-2.22,3.13-.79,3.72.33,4.63,2.68,8.21,3.06,10.44,1,3.3,1.74,5.47,1.76,7-.13,8.17-2.22,6.85-9.27,13.45-2.87,6.72-2.35,4.64-.59,3.86.91,4.89,1.89,3.72,3,5.36.72,3.59v5.35l-2,5-2.35,12.47-2.85,11.32-7.91,27.77-4.2,7.63-12.23,17.46-3.16,6.39-1.58,7.63-3.37,33.54-2,17.74-1.59,7.56-3.16,6.46-6.18,7.15-9,6.73-5.64,4-3.5,5-1.65,3.5-2.68,9.08-2.06,7-1.93,4.81-1.85,2.89-7.5,7.14-12.09,9.08-6.88,4.33-3.3,5-2.68,11.06-.52,2.18-4.08,11-3,3.09-3.85,3.16-7.35,2.27-9.21,1.92-8.25,2.2-6.67,2.48-6,3.57-7.35,6.12-19.25,22.61-4.81,5.43-2.41,5.64-1.44,9.07-1.92,4.67-3.1,4.13-3.78,3.09-5.77,3.92-3.92,1.65-9.34,2.54-4.61,2.13-24.75,19.19-11.27,9.48-1.58,3.16-2.55,7.42-5.08,14.85-7.29,13.4-5.36,6-5,3.78-5.09,3.37-18.7,8.25-29.42,11.89-2.55,1.11-12.91,5.21-4.51,2.56-2.56,3.29-3,5.85-3.53,9.5-2.19,5.12-22.18,23.64-5.48,5.49-2.44,4.87-1.22,5.36-2.19,11.94-1.46,4.75-5.61,3.17-7.79,3.17-7.32,3.9-4,3.65-4.14,7.68-3.78,8.05-4.51,9.5-2.28,5-2.32,9.86-.73,5.26-2.2,8.34-5,5.6M1008.18,923.87c-2.72-.44-5.45-.79-8.17-1.19l-4.09-.58c-1.35-.21-2.72-.39-4.1-.48l-8.43-.73-19.12-2.81-9.49-1.41L950,916c-.79-.12-1.57-.22-2.41-.4l-2.18-.42-28.08-3-3.56-.37-3.51-.49-7-1c-4.67-.51-9.33-.85-14-1.28l-14.07-1.19L861,907l-7.11-.42-3.55-.21c-1.18-.1-2.71-.2-3.83-.4l-14-2.19-14.74-1.2-14.94-1.54L788,899.54c-5-.49-10-1.1-14.93-1.67m.12,0-100.56-10c-16.68-1.69-33.44-3.07-50.26-4.66l-50.28-5q-12.59-1.23-25.18-2.59l-12.61-1.43-6.3-.77c-2-.23-4-.45-6-.6-8.1-.66-16.42-.71-24.89-.89-4.22-.07-8.58-.24-12.75-.41L471.68,871l-12.62-.5c-4.2-.15-8.41-.32-12.62-.58l-25.26-1.42-50.52-2.82"/></g><g id="布勢湖山鳥大"><path class="cls-7" d="M252.85,571.26l-29.81-22m29.81,22,8.72,6.44c-.54,6.33-1.08,12.68-1.5,19.12l-3.51,41.48c-1.17,13.79-2.23,27.58-3.28,41.37l-1.5,20.74c-.48,6.91-1,13.84-1.57,20.82-.29,3.47-.53,7-.86,10.42l-1,10.31c-.63,6.89-1.35,13.75-1.9,20.65L245.83,773l-.32,5.21-.52,5.18c-.57,6.89-.92,13.72-1.4,20.58l-.66,10.28-.59,10.34-1.15,20.68-.1,2.32,16.45.87q8.16.42,16.29.94l32.47,1.84L338.74,853l32.49,1m0,0L369,840.45l-.26-2.43-.8-8.63L367,819.7l-.12-1.22-.32-3.39-.41-6.75-1.25-8.43.46-6.62.33-4.75L366,786l.13-1,.68-5.56,1.83-11.4,2.84-16.38,1.74-15.72.29-9.67.22-5.65,1.09-21.92.36-7.19,1.57-27.94.05-.92.35-11.95.22-2.75.58-18.46.51-7,.34-4.22.47-5.65,1.19-5.06,1-3.06,1.35-3.63.08-.24.43-1.64.06-.18.85-2.79,1.31-5,1.5-5.19,1.19-4.1,1.63-5.69,2.62-8.49,2.55-5.77,3.47-5.55,5.68-9.38,2.33-3.81,1.71-2.61,9.16-14,2.83-5,9.95-16,4.08-6.3,2.44-3.49,15.54-24.93c-1.95-2.13-3.9-4.25-5.89-6.33l-28.68-28.74L403.16,425,390,416.15l-37.85-9.8-38.66-7.42-34.58,4.41h-.8m-40.83.88,40.83-.88M252.85,571.26l4.58-15.7a40.77,40.77,0,0,1,1.89-7.31,12.38,12.38,0,0,1,1.44-2.66c.72-1,1.51-2.06,2.34-3.06a67.66,67.66,0,0,1,5.5-5.78c2.08-2,4.29-4,6.46-6.27a46.86,46.86,0,0,0,6.15-7.79,29.77,29.77,0,0,0,3.93-10,45,45,0,0,0,.59-9.93l-.15-4.38-.05-2.05v-2.08l.2-31.9c.43-.12.86-.23,1.32-.39a14.06,14.06,0,0,0,4.12-2.19,11.9,11.9,0,0,0,3.34-4.24,13.21,13.21,0,0,0,.54-9.58,12.72,12.72,0,0,0-1-2.35,14.4,14.4,0,0,0-1.33-1.91,18.42,18.42,0,0,0-2.86-2.79,13.27,13.27,0,0,0-4.21-2.3,10.1,10.1,0,0,0-1.56-.36c-.37-.05-.76-.1-1.1-.12a16.81,16.81,0,0,0-2,0,54.06,54.06,0,0,0-6,.73,17.48,17.48,0,0,1-2.07.22A11.62,11.62,0,0,1,271,437a21,21,0,0,1-4.11-.94c-1.49-.49-3.07-1.11-4.79-1.78l-5.11-2-10.1-3.92-14.79-5.74A79.28,79.28,0,0,0,236,411c.53-2.31.92-4.57,1.26-6.79m772.8,508.08c-2.82-.46-5.66-.82-8.49-1.24l-4.25-.6c-1.41-.22-2.83-.4-4.25-.5l-8.34-.72-18.66-2.75-9.39-1.39-4.7-.69c-.78-.12-1.58-.22-2.29-.38l-2.51-.49-28.47-3-3.51-.37-3.53-.49-7.07-1c-4.76-.51-9.55-.87-14.32-1.31L876,896.17l-14.18-.84-7.09-.42-3.54-.21c-1.18-.1-2-.13-3.24-.33l-14.09-2.22-15.06-1.22L804,889.4l-14.87-1.52c-4.93-.49-9.85-1.08-14.79-1.65m-.12,0-100.48-10c-16.83-1.71-33.63-3.09-50.34-4.67l-50.24-5c-8.37-.83-16.73-1.66-25.06-2.58l-12.49-1.42-6.24-.76c-2.18-.26-4.36-.49-6.53-.66-8.69-.7-17.23-.73-25.59-.91-4.2-.08-8.25-.24-12.5-.41l-12.62-.49-12.62-.5c-4.2-.15-8.41-.32-12.6-.58l-25.17-1.41L371.42,854"/><path class="cls-8" d="M252.85,571.26l-29.81-22m29.81,22,8.72,6.44c-.54,6.33-1.08,12.68-1.5,19.12l-3.51,41.48c-1.17,13.79-2.23,27.58-3.28,41.37l-1.5,20.74c-.48,6.91-1,13.84-1.57,20.82-.29,3.47-.53,7-.86,10.42l-1,10.31c-.63,6.89-1.35,13.75-1.9,20.65L245.83,773l-.32,5.21-.52,5.18c-.57,6.89-.92,13.72-1.4,20.58l-.66,10.28-.59,10.34-1.15,20.68-.1,2.32,16.45.87q8.16.42,16.29.94l32.47,1.84L338.74,853l32.49,1m0,0L369,840.45l-.26-2.43-.8-8.63L367,819.7l-.12-1.22-.32-3.39-.41-6.75-1.25-8.43.46-6.62.33-4.75L366,786l.13-1,.68-5.56,1.83-11.4,2.84-16.38,1.74-15.72.29-9.67.22-5.65,1.09-21.92.36-7.19,1.57-27.94.05-.92.35-11.95.22-2.75.58-18.46.51-7,.34-4.22.47-5.65,1.19-5.06,1-3.06,1.35-3.63.08-.24.43-1.64.06-.18.85-2.79,1.31-5,1.5-5.19,1.19-4.1,1.63-5.69,2.62-8.49,2.55-5.77,3.47-5.55,5.68-9.38,2.33-3.81,1.71-2.61,9.16-14,2.83-5,9.95-16,4.08-6.3,2.44-3.49,15.54-24.93c-1.95-2.13-3.9-4.25-5.89-6.33l-28.68-28.74L403.16,425,390,416.15l-37.85-9.8-38.66-7.42-34.58,4.41h-.8m-40.83.88,40.83-.88M252.85,571.26l4.58-15.7a40.77,40.77,0,0,1,1.89-7.31,12.38,12.38,0,0,1,1.44-2.66c.72-1,1.51-2.06,2.34-3.06a67.66,67.66,0,0,1,5.5-5.78c2.08-2,4.29-4,6.46-6.27a46.86,46.86,0,0,0,6.15-7.79,29.77,29.77,0,0,0,3.93-10,45,45,0,0,0,.59-9.93l-.15-4.38-.05-2.05v-2.08l.2-31.9c.43-.12.86-.23,1.32-.39a14.06,14.06,0,0,0,4.12-2.19,11.9,11.9,0,0,0,3.34-4.24,13.21,13.21,0,0,0,.54-9.58,12.72,12.72,0,0,0-1-2.35,14.4,14.4,0,0,0-1.33-1.91,18.42,18.42,0,0,0-2.86-2.79,13.27,13.27,0,0,0-4.21-2.3,10.1,10.1,0,0,0-1.56-.36c-.37-.05-.76-.1-1.1-.12a16.81,16.81,0,0,0-2,0,54.06,54.06,0,0,0-6,.73,17.48,17.48,0,0,1-2.07.22A11.62,11.62,0,0,1,271,437a21,21,0,0,1-4.11-.94c-1.49-.49-3.07-1.11-4.79-1.78l-5.11-2-10.1-3.92-14.79-5.74A79.28,79.28,0,0,0,236,411c.53-2.31.92-4.57,1.26-6.79m772.8,508.08c-2.82-.46-5.66-.82-8.49-1.24l-4.25-.6c-1.41-.22-2.83-.4-4.25-.5l-8.34-.72-18.66-2.75-9.39-1.39-4.7-.69c-.78-.12-1.58-.22-2.29-.38l-2.51-.49-28.47-3-3.51-.37-3.53-.49-7.07-1c-4.76-.51-9.55-.87-14.32-1.31L876,896.17l-14.18-.84-7.09-.42-3.54-.21c-1.18-.1-2-.13-3.24-.33l-14.09-2.22-15.06-1.22L804,889.4l-14.87-1.52c-4.93-.49-9.85-1.08-14.79-1.65m-.12,0-100.48-10c-16.83-1.71-33.63-3.09-50.34-4.67l-50.24-5c-8.37-.83-16.73-1.66-25.06-2.58l-12.49-1.42-6.24-.76c-2.18-.26-4.36-.49-6.53-.66-8.69-.7-17.23-.73-25.59-.91-4.2-.08-8.25-.24-12.5-.41l-12.62-.49-12.62-.5c-4.2-.15-8.41-.32-12.6-.58l-25.17-1.41L371.42,854"/></g><g id="賀露"><path class="cls-7" d="M225.64,236.23l0,.1,3,6.39,1.08,1.92a24.86,24.86,0,0,0,1.37,2.3l3.37,5.13,11.45,23.37c1.83,3.82,3.77,7.58,5.5,11.46l5.3,11.8L275,346.45l2.88,9.76L315,351.48l47.45,9.14,47,12.14,20.73,13.93c2.85,2,5.64,4.18,8.46,6.27l9.77,7.28,31.79,31.89c5,5.21,9.79,10.65,14.69,16L508.51,463l10.23,8.65,15.2,3.36,84.13,11.59,85.16,11.36M225.64,236.23s-18.53-11.38-20.84-16-4.71-9.16-7.21-13.67l-7.68-13.41L186,189.44l-3-2.09-2.89-2.18-3.62-1.88c-3.37-.61-6.77-1.07-10.16-1.56l-8.42-.32-3-.68-5.24-.45-13.1-.89-12.94-1.13-11.63-1.42-14.18-1.12-13.4-.41-33.13-1.57-2.24,1-1.88,1-1.34,1.59-.79,2.15-.3,3.78-.37,4.67.26,2.05.55,1.38,1.11,1.6,1.08,1.15,2.45,1.37,2.7.95,11.28.61,6.09.35,5.86.49L79,197.7l2.34-.23,2.33-.55,2.27-1,2.28-1.38,6.93-6.12,9.06-6.2,5.31-1.94,4.37-.63,9.59.47,9.57.59,5.7.31,6.09.49,4.19,0,6-.77m70.64,55.5,53.92-20,16.35-6.2,33.76-12.58,21.22-6.95,2.61-.47,1.82-.64,4.5-.72,4.95-.16h5.56l5.23.56,6.33.54,5.95,1.31,4.72,1,5.23,2,7.52,3.51,7.17,4.06,15,10.23,7.44,4.86,15.76,11.61,23.73,17.62L480.5,249l27.05,19.34,1.71-3.58.26-.8.88-1.86,1.39-3.07-1.54-.68-1.32-.8-1.9-1.57L504.54,253l-1-4.2-.76-5.81-1.22-11.7-.28-3.3-.15-8.49-.23-4.8.49-7.5,1.24-9,.92-7.37.49-4.18.79-5.25,1-5.12,3.5-15.84.36-1.34,2.61-12.1,1.3-6.05.92-4.31.15-3.76.19-4.83,0-1-.06-5.2,0-5.07.13-3,.2-4.75,1.86-11,4-10.73.86-3.78,2.12-9.27,1.26-5,1.44-9.84L527.66,42l-1.58-16.66-.14-2.57L524,7.64l-.54-13.46.17-13.2.34-12.52,0-7.71-.49-6.1-2.33-5-2.86-3.21-3.32-1.9-3-1.69-6.18-2.59-4.59-2-2.22-1.22-2.21-1.62-3.16-2.4-3-3L486-75.7l-3.25-6.47-2.38-7.27-1.25-3.74-5.9-6.19-.74-.65-3.08-2.6-3.34-2.75L463-107.63l-.51-.37-3.65-4.39-1.53-2.17-3.14-4L452-121.8l-1.67-3.64-.26-1.17-1-4.38,1.4-10.38.06-.5,1-8.38.45-5.08-.83-3.42-2.39-1.53m371,353.83,2.78,6.87-4.3,87.67,31.13,2.06,30.44,1.1m0,0c.12-1.35.24-2.71.37-4.06.64-7.14,1.19-14.45,1.53-21.64l1.1-21.45,2.21-42.88.28-5.48-21.14-2.81L840.56,190l-17.29-2.12-3.39,5.65L800.29,191l-19.58-2.54-44-5.41-15.47-1.11-.93-.06-4.8-.22-.75-.08-15.56-.66-12.73-.84L669,179.4l-8.89-.7-9-1.84-8.34-3.13-1.19-9.36L639,147.08l-.25-4,.19-4.38,1.27-4,1.3-2.14,1.11-2.82,1.37-2.36,1.84-2.63,1.85-2.27L648,122l2.76-3.34,7.86-9.64,4-5.44,2.48-3.17.4-.51,3.8-4,5-5.77,2-1.85L693,73.1l7.47-7.67,6.48-11.16,5.46-12,.51-1.12,1.43-5.87,1.07-6.68.1-1.75.33-5.44.05-6.23,0-7.16-.11-10.41,2.37-5.77-6.43-3.77-3.22-1.37-4.39-1.1L703-14.64l-2.74-.28-2.55-.27-14.11-2.92-4.08-1.69h0l-2.07-1.27-.28-.17-1.58-1.88-3-4.44-4.45-6.54L659-46.83l-6-8.57-9-9-8.52-7.41-12.43-9.82-6.35-4.56L595.45-99.75l-13.8-8.77-27.37-18L544.41-133l-29.09-17.11-.21-.13-17.9-11.84-2.68-1.48-2.76-1.37-4.25-1.49-4-1-8.4-1.51-4.83-.26-2.1,0-3.17.31-2.89.57-4.39,1.45-3.64,1.93-5.21,4.65-8,7.65-11.74,11-4.85,4.32-2.87,2.57-8.34,5.83-4.93,2.76-3.3,1.25-12.61,5.59-1.29.4L376.09-113l-11,4-13,4.72L304.51-85.21h0l7.1,20L316-53.63l3.15,8.25.72.86,1.16.16,34.66-12.85,12-4.85-15.56-42.2M907.31,527.1,894,525a29.31,29.31,0,0,1-24.76-30.58l6.78-121.66c.44-7.16.87-14.35,1.13-21.59q.21-5.43.27-10.9c0-3.62,0-7.37,0-10.76.09-12.61,1.31-25.37,2.48-38.3M867.81,521c-11.79-1.85-23.55-3.8-35.39-5.54l-43.22-5.75-86-11.74m164.58,23c2.48.39,5,.78,7.45,1.15L961,533.29l84,11.48,14.29-.51,32.94-8.9,17.77-4.8,8.88-2.4,9-2.08,50.91-11.77"/><path class="cls-12" d="M225.64,236.23l0,.1,3,6.39,1.08,1.92a24.86,24.86,0,0,0,1.37,2.3l3.37,5.13,11.45,23.37c1.83,3.82,3.77,7.58,5.5,11.46l5.3,11.8L275,346.45l2.88,9.76L315,351.48l47.45,9.14,47,12.14,20.73,13.93c2.85,2,5.64,4.18,8.46,6.27l9.77,7.28,31.79,31.89c5,5.21,9.79,10.65,14.69,16L508.51,463l10.23,8.65,15.2,3.36,84.13,11.59,85.16,11.36M225.64,236.23s-18.53-11.38-20.84-16-4.71-9.16-7.21-13.67l-7.68-13.41L186,189.44l-3-2.09-2.89-2.18-3.62-1.88c-3.37-.61-6.77-1.07-10.16-1.56l-8.42-.32-3-.68-5.24-.45-13.1-.89-12.94-1.13-11.63-1.42-14.18-1.12-13.4-.41-33.13-1.57-2.24,1-1.88,1-1.34,1.59-.79,2.15-.3,3.78-.37,4.67.26,2.05.55,1.38,1.11,1.6,1.08,1.15,2.45,1.37,2.7.95,11.28.61,6.09.35,5.86.49L79,197.7l2.34-.23,2.33-.55,2.27-1,2.28-1.38,6.93-6.12,9.06-6.2,5.31-1.94,4.37-.63,9.59.47,9.57.59,5.7.31,6.09.49,4.19,0,6-.77m70.64,55.5,53.92-20,16.35-6.2,33.76-12.58,21.22-6.95,2.61-.47,1.82-.64,4.5-.72,4.95-.16h5.56l5.23.56,6.33.54,5.95,1.31,4.72,1,5.23,2,7.52,3.51,7.17,4.06,15,10.23,7.44,4.86,15.76,11.61,23.73,17.62L480.5,249l27.05,19.34,1.71-3.58.26-.8.88-1.86,1.39-3.07-1.54-.68-1.32-.8-1.9-1.57L504.54,253l-1-4.2-.76-5.81-1.22-11.7-.28-3.3-.15-8.49-.23-4.8.49-7.5,1.24-9,.92-7.37.49-4.18.79-5.25,1-5.12,3.5-15.84.36-1.34,2.61-12.1,1.3-6.05.92-4.31.15-3.76.19-4.83,0-1-.06-5.2,0-5.07.13-3,.2-4.75,1.86-11,4-10.73.86-3.78,2.12-9.27,1.26-5,1.44-9.84L527.66,42l-1.58-16.66-.14-2.57L524,7.64l-.54-13.46.17-13.2.34-12.52,0-7.71-.49-6.1-2.33-5-2.86-3.21-3.32-1.9-3-1.69-6.18-2.59-4.59-2-2.22-1.22-2.21-1.62-3.16-2.4-3-3L486-75.7l-3.25-6.47-2.38-7.27-1.25-3.74-5.9-6.19-.74-.65-3.08-2.6-3.34-2.75L463-107.63l-.51-.37-3.65-4.39-1.53-2.17-3.14-4L452-121.8l-1.67-3.64-.26-1.17-1-4.38,1.4-10.38.06-.5,1-8.38.45-5.08-.83-3.42-2.39-1.53m371,353.83,2.78,6.87-4.3,87.67,31.13,2.06,30.44,1.1m0,0c.12-1.35.24-2.71.37-4.06.64-7.14,1.19-14.45,1.53-21.64l1.1-21.45,2.21-42.88.28-5.48-21.14-2.81L840.56,190l-17.29-2.12-3.39,5.65L800.29,191l-19.58-2.54-44-5.41-15.47-1.11-.93-.06-4.8-.22-.75-.08-15.56-.66-12.73-.84L669,179.4l-8.89-.7-9-1.84-8.34-3.13-1.19-9.36L639,147.08l-.25-4,.19-4.38,1.27-4,1.3-2.14,1.11-2.82,1.37-2.36,1.84-2.63,1.85-2.27L648,122l2.76-3.34,7.86-9.64,4-5.44,2.48-3.17.4-.51,3.8-4,5-5.77,2-1.85L693,73.1l7.47-7.67,6.48-11.16,5.46-12,.51-1.12,1.43-5.87,1.07-6.68.1-1.75.33-5.44.05-6.23,0-7.16-.11-10.41,2.37-5.77-6.43-3.77-3.22-1.37-4.39-1.1L703-14.64l-2.74-.28-2.55-.27-14.11-2.92-4.08-1.69h0l-2.07-1.27-.28-.17-1.58-1.88-3-4.44-4.45-6.54L659-46.83l-6-8.57-9-9-8.52-7.41-12.43-9.82-6.35-4.56L595.45-99.75l-13.8-8.77-27.37-18L544.41-133l-29.09-17.11-.21-.13-17.9-11.84-2.68-1.48-2.76-1.37-4.25-1.49-4-1-8.4-1.51-4.83-.26-2.1,0-3.17.31-2.89.57-4.39,1.45-3.64,1.93-5.21,4.65-8,7.65-11.74,11-4.85,4.32-2.87,2.57-8.34,5.83-4.93,2.76-3.3,1.25-12.61,5.59-1.29.4L376.09-113l-11,4-13,4.72L304.51-85.21h0l7.1,20L316-53.63l3.15,8.25.72.86,1.16.16,34.66-12.85,12-4.85-15.56-42.2M907.31,527.1,894,525a29.31,29.31,0,0,1-24.76-30.58l6.78-121.66c.44-7.16.87-14.35,1.13-21.59q.21-5.43.27-10.9c0-3.62,0-7.37,0-10.76.09-12.61,1.31-25.37,2.48-38.3M867.81,521c-11.79-1.85-23.55-3.8-35.39-5.54l-43.22-5.75-86-11.74m164.58,23c2.48.39,5,.78,7.45,1.15L961,533.29l84,11.48,14.29-.51,32.94-8.9,17.77-4.8,8.88-2.4,9-2.08,50.91-11.77"/></g><g id="鹿野"><path class="cls-7" d="M-729.41,152.91c3.43,0,6.86.13,10.29.05l10.28-.38,20.56-.75,35.18,3.07,31.51,6.94,6.59,8.79,12.19,5,28.35,7.45,29,5.45,24.77,7.08M-2470.51,1957.83l-1.85.34-1.6.42-1.79.78-1.58.89-18.94,16.53-.78.67-40.28,34.53,4.77,6.1,5.12,8,2.86,5.54,9.6,17.63-8.16,4.71m324.71-76.9-3.45.35-7.63-.28-6.43-.35-4.11-.5-57.17-6.87-.86-.1-6.5-.52-.88-.11-15.3-2-15.74-2.18-20.67-2.87-19.61-2.73-9.08-.81-20.54-1.85-18.55.45-17.55.43-2.91.07-43,.55-2.13.14-2.59-2.3-1.94-1.33-16.43-10.49-3.17-1.85-29.93-18.75-7.25-5.64-5.37-5.77-4.43-6-1.33-3.15-16,3-7.85,1.41-8.17,1.48-3.39.61-19.39,3.51-.54.1-41.79,7.86-19.79,3.72m83.09-208.16-16.15.75-13.82.88-4.8.31-25,1.08-16,.7-32.09,2-.82,1-.25,1.07,2.63,17.72.36,2.31,5,27.48.86,5.33.55,2.84,3.34,17.29,12.92,71.27.55,10.89-.33,24.4m-2.64-1256.66-3.58-12.29-.41-2.5-.66-5.54-.65-5.71,2.12-3.26,4.9-4.08,2.28-1.95,1.63-2.78-.65-3.42-3-13.94-1.37-6.69-1.9-9.51-.42-4-.4-3.49-1.27-11.37-1.94-18-21.24.91-4.15.11-23,.63-7.4.15h-.84l-.49,0-23.3.86-31.72,1.06,1.34,51.2.92,44,0,18.61.51,14,.72,5.1,1,4.75,1.23,4.29,2.89,8.53,6.57,12.9,7.89,15.57,10.82,21.07,6.68,14.33L-2735,769l1.47,7.13,4.2,19.72,5.23,30.49,1.62,7.22,4.15,21.64.36,6.68-.9,13.89.36,7.93,2.71,6.32,4.32,6.31,6.14,4.87,9.92,4,7.4,2.7,7.57,1.09,3.77.08,6.88.46,7.4-.9,10.46-1.09,2.89-.36,8.11,1.09,7.94,4.15,2.09,2.33,4,4.52,2.53,3.61,2.82,6.4.9,24.46,1.89,28.07,1.91,28.1,1.83,51.32,3.91,58.71,1,17.12,2.16,39,.4,7.34,1.73,31.93.63,10.79,2,35.2v4.29l.11.53.25,4.22.18,3.32,3,49.88,5.2,85.5,3.21,52.46,2.14,37.39,2.5,44.2.07,1.68.84,18.68,2.34,46.43,3.25,50.85,1.69,26.3,1.61,29.06m1294.38-1489.7c-5.64,3.35-12.37,6.34-17.29,10.72a95.26,95.26,0,0,0-15,16.28c-4,5.62-6.14,11.93-9.44,17.86-3.2,5.73-8.34,11.4-13.11,15.82-5.08,4.71-11.24,7.84-17.21,11.25s-12,6.74-17.9,10.31c-11.68,7.07-23.48,14.54-36,20.1-6.59,2.93-13.23,4-20.34,4.81-6.9.81-13.42-.33-20.14-1.44-6.34-1.05-13.81.65-20,2.14-7.3,1.76-14.34,4.71-21.42,7.2-13.35,4.7-26.47,10.05-39.74,15-2.4.89-4.79,1.82-7.21,2.66a30.16,30.16,0,0,1-11,1.65c-6.47,0-14.23-3.68-20.38-5.64a123.54,123.54,0,0,1-18.13-7.16c-5.92-3-10.93-7.76-15.87-12.11-10.47-9.23-20.72-18.75-31.09-28.09-5-4.54-11.16-9.16-15.06-14.75-3.63-5.21-3.26-13.29-3.4-19.41-.16-6.87,0-14.24-1.52-21s-9.13-9.59-14.86-12.31c-12.71-6-25.18-12.59-37.67-19.09-3.21-1.67-6.39-3.83-10-4.59-3.32-.7-6.54-.13-9.87.22-7.39.8-14.85,1.13-22.27,1.68-3.33.24-7.14,0-10.4.75-2.65.6-5.61,2.44-7.88,4-6.09,4.12-11.1,10.65-16.32,15.82-4.43,4.4-8.62,9.12-14.43,11.67-4.92,2.14-10.74,2.59-16,3.08-3.75.35-5.87.44-9.24-1.22a22.75,22.75,0,0,1-6.12-3.87c-4.59-4.49-8.78-11.54-15.82-12-8.18-.51-11.8,5.88-14.26,12.74s-3.82,14.23-5.63,21.24c-1.49,5.8-2.59,11.78-3.5,17.69-1,6.74-2.73,14.22-2.75,21,0,7.32,1.12,14.4-.09,21.68-.45,2.78-1.2,6.49-2.9,8.81-1.88,2.57-5.07,3.6-7.75,5-2.23,1.2-7.62,2.52-8.85,4.85-1.49,2.84,1.14,6.26,2.59,8.34m0,0a174.92,174.92,0,0,0-16.81,19.06c-4.89,6.32-9.2,12.17-16.45,15.87a79.79,79.79,0,0,1-22,7.35c-16.4,3.17-33.06,6.42-49.06,11.29-15.51,4.73-30,12.49-45,18.44-14.73,5.81-29.82,10.5-45,15.06-17.34,5.22-34.75,10.26-52,15.71-7.2,2.28-14.76,5.63-22.16,6.9-8.9,1.53-17.11,1.13-26.08.43-7.14-.56-14.41-2.75-21.26-4.78q-12.17-3.6-24.23-7.58c-8.24-2.72-16.55-6.1-24.93-8.36-7.48-2-15.18-2.75-22.59-5.14-16.22-5.23-32.18-10.7-47.43-18.37-15.08-7.59-29.71-16.09-44.58-24.08-14-7.51-28.14-15-44.21-16.55-17.55-1.7-35,3.2-52.08,6.46-1.36.26-1.52.07-1.9.95-.69,1.63.59,5.84.77,7.62.08.79.77,3.23.39,3.94-.23.46-.55.29-1,.68-1.49,1.16-4.17,1.54-5.94,2.28-7.78,3.25-15.25,7.28-23,10.65a81.43,81.43,0,0,0-9.6,4.85c-3.51,2.11-7.36,3.46-10,6.73-2.2,2.78-4,5.83-6,8.77-2.12,3.16-4.91,6.22-6.39,9.74-3.23,7.73-4.92,16.46-7.27,24.5s-3.22,16.18-6.24,24a82.77,82.77,0,0,1-11.3,20.88c-4.38,5.76-12.15,11.87-12.86,19.35-.35,3.65,2.45,7.58,3.51,11.13,1.22,4.09,2.3,8.23,3.44,12.34,2.15,7.67,3.75,16,7,23.29a17.36,17.36,0,0,0,2.58,4c.89,1.11,4.17,4,4.34,5.44.34,2.89-5.7,5.28-7.53,6.62-7.73,5.65-15.22,11.64-22.82,17.46-2.66,2-5.41,4.81-8.37,6.4-2.8,1.49-6.69,1.33-9.77,1.56-8.24.63-16.5,1.17-24.74,1.81-7.88.62-15.57.89-23.23,2.82-8.89,2.24-17.77,4.55-26.65,6.82m1936.7-481.48-19-.19-24.65-2-3.08-.25-3.06-.45-6.12-.9-12.23-1.79-8.28-.53c-25.32,4.9-50.67,9.67-76,14.69l-38,7.48c-12.65,2.53-25.35,4.77-38,7.18l-34.41,3.19-6.48.3-12.59.59-18.45-4.11-37.6,4.7-36,10-20.24,4-18.45,0-36.6-6.6-33.76.92-34.5,18-35.53,19.15m283.76-46.71,1.79,32.18M-2672.11,2046.42l11.1-23,1.19-2.49,5-13,1.19-4,.76-3.82-.19-6.33-1.32-7.32-1.32-8.34-1.75-10.71-.53-7.73-.41-4.8-1.49-30.64.08-3.27.09-4.1-.19-13.48M-380.56,227.91l-8.84,40.87,12.65,31.36m1076.85,221L614.93,509.8,529.8,498.08,508,493.27,492.21,479.9c-9.64-10.52-19.17-21.16-28.91-31.58L433.06,418c-5.46-4.05-10.88-8.16-16.37-12.17l-16.94-11.37-42.45-11-43.06-8.28L274,380.33l-40.15.62-31.47-2.12-14.91-4.57c-5.42-1.59-10.77-3.48-16.15-5.26L139.1,358.21l-32.23-11-16.12-5.51c-5.36-1.84-10.67-3.79-16-5.68l-32-11.43c-5.36-1.84-10.62-4-15.91-6L11,312.4l-31.7-12.33c-5.34-2-35.76-2.33-35.76-2.33l-28.67-7.88c-4.76-1.35-9.57-2.56-14.37-3.77l-14.41-3.65-28.82-7.29c-2.4-.6-4.8-1.24-7.21-1.81l-7.28-1.48-14.56-3-29-6.73c-9.64-2.27-19.33-4.33-29-6.51l-29-6.45c-2.41-.58-4.85-1-7.29-1.42l-7.32-1.29L-288,243.93c-19.52-3.43-39-6.93-58.57-10.22l-29.3-5-14.65-2.5c-2.44-.43-4.89-.79-7.32-1.29l-7.27-1.52-29.1-6.09-14.54-3-7.28-1.52c-2.43-.47-4.8-1.22-7.2-1.82l-28.74-7.6-14.37-3.8-7.18-1.92-7.14-2M700.1,521.17l85.95,11.74,43,5.72c14.31,2.1,28.56,4.53,42.86,6.69l86,11.2,86,11.75,19-.68,35.3-9.54,17.65-4.77,8.83-2.38,8.91-2.07,51.09-11.8"/><path class="cls-13" d="M-729.41,152.91c3.43,0,6.86.13,10.29.05l10.28-.38,20.56-.75,35.18,3.07,31.51,6.94,6.59,8.79,12.19,5,28.35,7.45,29,5.45,24.77,7.08M-2470.51,1957.83l-1.85.34-1.6.42-1.79.78-1.58.89-18.94,16.53-.78.67-40.28,34.53,4.77,6.1,5.12,8,2.86,5.54,9.6,17.63-8.16,4.71m324.71-76.9-3.45.35-7.63-.28-6.43-.35-4.11-.5-57.17-6.87-.86-.1-6.5-.52-.88-.11-15.3-2-15.74-2.18-20.67-2.87-19.61-2.73-9.08-.81-20.54-1.85-18.55.45-17.55.43-2.91.07-43,.55-2.13.14-2.59-2.3-1.94-1.33-16.43-10.49-3.17-1.85-29.93-18.75-7.25-5.64-5.37-5.77-4.43-6-1.33-3.15-16,3-7.85,1.41-8.17,1.48-3.39.61-19.39,3.51-.54.1-41.79,7.86-19.79,3.72m83.09-208.16-16.15.75-13.82.88-4.8.31-25,1.08-16,.7-32.09,2-.82,1-.25,1.07,2.63,17.72.36,2.31,5,27.48.86,5.33.55,2.84,3.34,17.29,12.92,71.27.55,10.89-.33,24.4m-2.64-1256.66-3.58-12.29-.41-2.5-.66-5.54-.65-5.71,2.12-3.26,4.9-4.08,2.28-1.95,1.63-2.78-.65-3.42-3-13.94-1.37-6.69-1.9-9.51-.42-4-.4-3.49-1.27-11.37-1.94-18-21.24.91-4.15.11-23,.63-7.4.15h-.84l-.49,0-23.3.86-31.72,1.06,1.34,51.2.92,44,0,18.61.51,14,.72,5.1,1,4.75,1.23,4.29,2.89,8.53,6.57,12.9,7.89,15.57,10.82,21.07,6.68,14.33L-2735,769l1.47,7.13,4.2,19.72,5.23,30.49,1.62,7.22,4.15,21.64.36,6.68-.9,13.89.36,7.93,2.71,6.32,4.32,6.31,6.14,4.87,9.92,4,7.4,2.7,7.57,1.09,3.77.08,6.88.46,7.4-.9,10.46-1.09,2.89-.36,8.11,1.09,7.94,4.15,2.09,2.33,4,4.52,2.53,3.61,2.82,6.4.9,24.46,1.89,28.07,1.91,28.1,1.83,51.32,3.91,58.71,1,17.12,2.16,39,.4,7.34,1.73,31.93.63,10.79,2,35.2v4.29l.11.53.25,4.22.18,3.32,3,49.88,5.2,85.5,3.21,52.46,2.14,37.39,2.5,44.2.07,1.68.84,18.68,2.34,46.43,3.25,50.85,1.69,26.3,1.61,29.06m1294.38-1489.7c-5.64,3.35-12.37,6.34-17.29,10.72a95.26,95.26,0,0,0-15,16.28c-4,5.62-6.14,11.93-9.44,17.86-3.2,5.73-8.34,11.4-13.11,15.82-5.08,4.71-11.24,7.84-17.21,11.25s-12,6.74-17.9,10.31c-11.68,7.07-23.48,14.54-36,20.1-6.59,2.93-13.23,4-20.34,4.81-6.9.81-13.42-.33-20.14-1.44-6.34-1.05-13.81.65-20,2.14-7.3,1.76-14.34,4.71-21.42,7.2-13.35,4.7-26.47,10.05-39.74,15-2.4.89-4.79,1.82-7.21,2.66a30.16,30.16,0,0,1-11,1.65c-6.47,0-14.23-3.68-20.38-5.64a123.54,123.54,0,0,1-18.13-7.16c-5.92-3-10.93-7.76-15.87-12.11-10.47-9.23-20.72-18.75-31.09-28.09-5-4.54-11.16-9.16-15.06-14.75-3.63-5.21-3.26-13.29-3.4-19.41-.16-6.87,0-14.24-1.52-21s-9.13-9.59-14.86-12.31c-12.71-6-25.18-12.59-37.67-19.09-3.21-1.67-6.39-3.83-10-4.59-3.32-.7-6.54-.13-9.87.22-7.39.8-14.85,1.13-22.27,1.68-3.33.24-7.14,0-10.4.75-2.65.6-5.61,2.44-7.88,4-6.09,4.12-11.1,10.65-16.32,15.82-4.43,4.4-8.62,9.12-14.43,11.67-4.92,2.14-10.74,2.59-16,3.08-3.75.35-5.87.44-9.24-1.22a22.75,22.75,0,0,1-6.12-3.87c-4.59-4.49-8.78-11.54-15.82-12-8.18-.51-11.8,5.88-14.26,12.74s-3.82,14.23-5.63,21.24c-1.49,5.8-2.59,11.78-3.5,17.69-1,6.74-2.73,14.22-2.75,21,0,7.32,1.12,14.4-.09,21.68-.45,2.78-1.2,6.49-2.9,8.81-1.88,2.57-5.07,3.6-7.75,5-2.23,1.2-7.62,2.52-8.85,4.85-1.49,2.84,1.14,6.26,2.59,8.34m0,0a174.92,174.92,0,0,0-16.81,19.06c-4.89,6.32-9.2,12.17-16.45,15.87a79.79,79.79,0,0,1-22,7.35c-16.4,3.17-33.06,6.42-49.06,11.29-15.51,4.73-30,12.49-45,18.44-14.73,5.81-29.82,10.5-45,15.06-17.34,5.22-34.75,10.26-52,15.71-7.2,2.28-14.76,5.63-22.16,6.9-8.9,1.53-17.11,1.13-26.08.43-7.14-.56-14.41-2.75-21.26-4.78q-12.17-3.6-24.23-7.58c-8.24-2.72-16.55-6.1-24.93-8.36-7.48-2-15.18-2.75-22.59-5.14-16.22-5.23-32.18-10.7-47.43-18.37-15.08-7.59-29.71-16.09-44.58-24.08-14-7.51-28.14-15-44.21-16.55-17.55-1.7-35,3.2-52.08,6.46-1.36.26-1.52.07-1.9.95-.69,1.63.59,5.84.77,7.62.08.79.77,3.23.39,3.94-.23.46-.55.29-1,.68-1.49,1.16-4.17,1.54-5.94,2.28-7.78,3.25-15.25,7.28-23,10.65a81.43,81.43,0,0,0-9.6,4.85c-3.51,2.11-7.36,3.46-10,6.73-2.2,2.78-4,5.83-6,8.77-2.12,3.16-4.91,6.22-6.39,9.74-3.23,7.73-4.92,16.46-7.27,24.5s-3.22,16.18-6.24,24a82.77,82.77,0,0,1-11.3,20.88c-4.38,5.76-12.15,11.87-12.86,19.35-.35,3.65,2.45,7.58,3.51,11.13,1.22,4.09,2.3,8.23,3.44,12.34,2.15,7.67,3.75,16,7,23.29a17.36,17.36,0,0,0,2.58,4c.89,1.11,4.17,4,4.34,5.44.34,2.89-5.7,5.28-7.53,6.62-7.73,5.65-15.22,11.64-22.82,17.46-2.66,2-5.41,4.81-8.37,6.4-2.8,1.49-6.69,1.33-9.77,1.56-8.24.63-16.5,1.17-24.74,1.81-7.88.62-15.57.89-23.23,2.82-8.89,2.24-17.77,4.55-26.65,6.82m1936.7-481.48-19-.19-24.65-2-3.08-.25-3.06-.45-6.12-.9-12.23-1.79-8.28-.53c-25.32,4.9-50.67,9.67-76,14.69l-38,7.48c-12.65,2.53-25.35,4.77-38,7.18l-34.41,3.19-6.48.3-12.59.59-18.45-4.11-37.6,4.7-36,10-20.24,4-18.45,0-36.6-6.6-33.76.92-34.5,18-35.53,19.15m283.76-46.71,1.79,32.18M-2672.11,2046.42l11.1-23,1.19-2.49,5-13,1.19-4,.76-3.82-.19-6.33-1.32-7.32-1.32-8.34-1.75-10.71-.53-7.73-.41-4.8-1.49-30.64.08-3.27.09-4.1-.19-13.48M-380.56,227.91l-8.84,40.87,12.65,31.36m1076.85,221L614.93,509.8,529.8,498.08,508,493.27,492.21,479.9c-9.64-10.52-19.17-21.16-28.91-31.58L433.06,418c-5.46-4.05-10.88-8.16-16.37-12.17l-16.94-11.37-42.45-11-43.06-8.28L274,380.33l-40.15.62-31.47-2.12-14.91-4.57c-5.42-1.59-10.77-3.48-16.15-5.26L139.1,358.21l-32.23-11-16.12-5.51c-5.36-1.84-10.67-3.79-16-5.68l-32-11.43c-5.36-1.84-10.62-4-15.91-6L11,312.4l-31.7-12.33c-5.34-2-35.76-2.33-35.76-2.33l-28.67-7.88c-4.76-1.35-9.57-2.56-14.37-3.77l-14.41-3.65-28.82-7.29c-2.4-.6-4.8-1.24-7.21-1.81l-7.28-1.48-14.56-3-29-6.73c-9.64-2.27-19.33-4.33-29-6.51l-29-6.45c-2.41-.58-4.85-1-7.29-1.42l-7.32-1.29L-288,243.93c-19.52-3.43-39-6.93-58.57-10.22l-29.3-5-14.65-2.5c-2.44-.43-4.89-.79-7.32-1.29l-7.27-1.52-29.1-6.09-14.54-3-7.28-1.52c-2.43-.47-4.8-1.22-7.2-1.82l-28.74-7.6-14.37-3.8-7.18-1.92-7.14-2M700.1,521.17l85.95,11.74,43,5.72c14.31,2.1,28.56,4.53,42.86,6.69l86,11.2,86,11.75,19-.68,35.3-9.54,17.65-4.77,8.83-2.38,8.91-2.07,51.09-11.8"/></g><g id="相生町西品治鳥大"><path class="cls-7" d="M1113,541.92l-17.71,4.79-34.12,9.22-16.64.59-85-11.62-85.91-11.18c-14.29-2.16-28.53-4.59-42.84-6.69l-43.11-5.74-86-11.74M230,539.83l16.23,12a44,44,0,0,1,2.23-8,24.08,24.08,0,0,1,2.69-5c.94-1.34,1.93-2.62,2.95-3.85a77.54,77.54,0,0,1,6.46-6.81c2.15-2,4.19-3.92,6-5.83,3.67-3.84,6.29-7.71,7-11.9s.1-10.08.18-16.27L274,459.3l4.57-7.41c.88-.18,9.38-1.62,3.51-4.1-1.43-.53-9.49,1.18-12.37.84a31.71,31.71,0,0,1-6.46-1.45c-1.95-.64-3.74-1.35-5.4-2l-5-1.93-10.16-3.94-20.3-7.88m479.25,78.11L616.5,498.19l-84.63-11.65-18.49-4.09-13-11-14-15.36c-4.87-5.28-9.62-10.67-14.59-15.86l-31-31.1-9-6.69c-2.78-2.05-5.52-4.16-8.33-6.17l-18.83-12.65-44.75-11.56-45.25-8.7-43.05,5.48-41.87.87-2.4,22c-1,5.95-1.52,11.59-2.7,16.7-1,4.76-3.49,9.78-5.58,15.67-.65,1.84-1.33,3.59-2,5.29l5.39,2.09m959.35,94.23-51,11.78-8.94,2.08-8.86,2.39"/><path class="cls-8" d="M1113,541.92l-17.71,4.79-34.12,9.22-16.64.59-85-11.62-85.91-11.18c-14.29-2.16-28.53-4.59-42.84-6.69l-43.11-5.74-86-11.74M230,539.83l16.23,12a44,44,0,0,1,2.23-8,24.08,24.08,0,0,1,2.69-5c.94-1.34,1.93-2.62,2.95-3.85a77.54,77.54,0,0,1,6.46-6.81c2.15-2,4.19-3.92,6-5.83,3.67-3.84,6.29-7.71,7-11.9s.1-10.08.18-16.27L274,459.3l4.57-7.41c.88-.18,9.38-1.62,3.51-4.1-1.43-.53-9.49,1.18-12.37.84a31.71,31.71,0,0,1-6.46-1.45c-1.95-.64-3.74-1.35-5.4-2l-5-1.93-10.16-3.94-20.3-7.88m479.25,78.11L616.5,498.19l-84.63-11.65-18.49-4.09-13-11-14-15.36c-4.87-5.28-9.62-10.67-14.59-15.86l-31-31.1-9-6.69c-2.78-2.05-5.52-4.16-8.33-6.17l-18.83-12.65-44.75-11.56-45.25-8.7-43.05,5.48-41.87.87-2.4,22c-1,5.95-1.52,11.59-2.7,16.7-1,4.76-3.49,9.78-5.58,15.67-.65,1.84-1.33,3.59-2,5.29l5.39,2.09m959.35,94.23-51,11.78-8.94,2.08-8.86,2.39"/></g><g id="東郷"><path class="cls-7" d="M903.29,1179.75l-3.62-19.66-17.15-96.58-.76-4.27-7.45-37.86-1.23-5.54-1.64-8.65-.37-1.68-1.54-7-2.38-10.9L864.6,978l-3-11.43-.64-3-1.75-8-3.12-14.83-.42-2L853,926.59l-1.57-8.4,1.63.1,7.13.42,14.25.84,13.87,1.17c4.56.43,9.09.76,13.68,1.25l6.95,1,3.49.48,3.62.38,27.69,2.93,1.84.36c1,.21,1.72.3,2.53.42l4.8.72,9.59,1.42L982,932.54l8.52.73c1.34.09,2.65.26,4,.47l3.93.56c2.62.38,5.22.71,7.85,1.14m-22,154.83-16.74,17.9-16,17.92-15.33,16.85-16.91,18.72L908.57,1174l-3,3.42-2.33,2.29-3,3.33-25.2,31-4.9,4.74-9.36,5.74-1.38.69-1.09.57-4,2.41-2,.79-10.55,7.3-24.36,25-13.91,15-22.2,24-17.49,18.7-32.13,35.1-1.16,1.17-5.19,5.67-23.8,25.71-7.35,7.94-9.42,10.17-6.57,7.11-5.62,5.16-4.33,3.54-4.17,2.69-2.25,1.46-14.44,5.65-8.86,3.5-6.79,5.08-4.17,3.47-13.31,10.61-3.15,2.76-2.24,2-25.41,20.73-1.11,1.15-3,3.16-3.54,4.34-1.12,2.09-1.76,3.55-1,3-2.23,11.13-1.94,15.13-1.65,12.63-1.72,20.86-1.75,12.89-.82,6.78-1.91,7.9-1.44,4-1.93,4.66-3,4.69-25.32,32.86-6.43,9-6.75,9.67-2.31,3.68-14.5,24.35L482.6,1702l-5.76,9.67-14.78,26.77-3.52,6.26-4.52,8.43-4.12,5.3-8,9.8-4.33,4.38-4.48,3.69-18,13.38-10.41,6.92-11.22,7.44-32.33,24.13-2.63,2.46-4.63,6.12-5.61,8.86-5.94,12.21-4.34,7.58-1.74,1.94-3.89,4.12-4.61,4.41-.82.68-6.59,5.61-5.58,4.34-26.16,19.82-19.07,14.84-3.08,2.86-5.73,5.34-16.51,18.53-14.44,18.53-.3.34-1.56,2.18-1,1.49-4.33,8.86-2.26,3.72-2.75,4.2-4.47,5.32-4.17,3.72-3.84,3.54-2.89,4.49L190.67,2027l-4.5,7.41-3.68,3.85-6.75,5.15-1.26,1-2.09,2.43-2.4,3.38-6.24,10.95-3.21,3.4-13.33,9.18-6.73,5.35-3.21,3.2-2.1,3.09-1.44,3.66-.47,2.12-2.4,16.47-1,2.57-1.59,1.6-13.63,10.46-9.15,6.95-5.28,4.8-7.87,8.24-2.57,3.86-3.53,6.11-2.73,6.61L74.16,2182l-1.31,3.31-6.54,16.44-8.06,18.84-6.1,12.72-14.7,28.16-.53,1-2.4,3.06-18.75,20-3.22,4-2.09,3.23-1.59,2.61-3,6.42-4,10.47-18,47.06-.74,1.43-1.05.88-8.13,7-3.05,2.58-5.63,6.17-6.1,7.72-4.64,6.78-2.09,3.69-16,28.56-3.69,6.74-6.1,12.09-4.47,8.07L-84.14,2463l-4.33,7.87-4.64,7.42-12.81,13.36-4.66,5.8-5.61,8.72L-135.75,2540l-2.07,2.91-14,11.75-3.7,4.83-1.26,3.06-1.29,4.35-5.93,34.95-2.56,16.27v.26h0l-.16,4.26.49,4.17,8.18,39.48,2.07,7.71,1.58,3.41,3.56,5.31,1.26,3.06v3.72l-1.26,3.51-2.75,5-15.21,21.93-4,7.72-.6,1.34-4.34,9.46-1,2.14-1.35,1.86-21,25.67-5.45,7.75-1.54,1.86-2.42,3.25-4.91,8.18-3.52,2.74-4,2.75-3.52,3.85-.13.35-8.2,11.26M1058.64,946.46l-3.82,5.34c-1.63,2.2-3.17,4.63-4.77,7s-3,4.82-4.5,7.26l-4,6.74-1.58,2.41-.39.76-9.1,11.79-3,5.5-1,1.29c-.59.75-1,1.38-1.51,2.07l-2.92,4.07-5.85,8.14-2.91,4.08-2.8,4.11-4.62,6.79-4,3.25-6.89,9.52-1.82,3.8-1.19,4.5-.74,6,.09,5.91-2.05,24-.38,4.53-4.65,5"/><path class="cls-10" d="M903.29,1179.75l-3.62-19.66-17.15-96.58-.76-4.27-7.45-37.86-1.23-5.54-1.64-8.65-.37-1.68-1.54-7-2.38-10.9L864.6,978l-3-11.43-.64-3-1.75-8-3.12-14.83-.42-2L853,926.59l-1.57-8.4,1.63.1,7.13.42,14.25.84,13.87,1.17c4.56.43,9.09.76,13.68,1.25l6.95,1,3.49.48,3.62.38,27.69,2.93,1.84.36c1,.21,1.72.3,2.53.42l4.8.72,9.59,1.42L982,932.54l8.52.73c1.34.09,2.65.26,4,.47l3.93.56c2.62.38,5.22.71,7.85,1.14m-22,154.83-16.74,17.9-16,17.92-15.33,16.85-16.91,18.72L908.57,1174l-3,3.42-2.33,2.29-3,3.33-25.2,31-4.9,4.74-9.36,5.74-1.38.69-1.09.57-4,2.41-2,.79-10.55,7.3-24.36,25-13.91,15-22.2,24-17.49,18.7-32.13,35.1-1.16,1.17-5.19,5.67-23.8,25.71-7.35,7.94-9.42,10.17-6.57,7.11-5.62,5.16-4.33,3.54-4.17,2.69-2.25,1.46-14.44,5.65-8.86,3.5-6.79,5.08-4.17,3.47-13.31,10.61-3.15,2.76-2.24,2-25.41,20.73-1.11,1.15-3,3.16-3.54,4.34-1.12,2.09-1.76,3.55-1,3-2.23,11.13-1.94,15.13-1.65,12.63-1.72,20.86-1.75,12.89-.82,6.78-1.91,7.9-1.44,4-1.93,4.66-3,4.69-25.32,32.86-6.43,9-6.75,9.67-2.31,3.68-14.5,24.35L482.6,1702l-5.76,9.67-14.78,26.77-3.52,6.26-4.52,8.43-4.12,5.3-8,9.8-4.33,4.38-4.48,3.69-18,13.38-10.41,6.92-11.22,7.44-32.33,24.13-2.63,2.46-4.63,6.12-5.61,8.86-5.94,12.21-4.34,7.58-1.74,1.94-3.89,4.12-4.61,4.41-.82.68-6.59,5.61-5.58,4.34-26.16,19.82-19.07,14.84-3.08,2.86-5.73,5.34-16.51,18.53-14.44,18.53-.3.34-1.56,2.18-1,1.49-4.33,8.86-2.26,3.72-2.75,4.2-4.47,5.32-4.17,3.72-3.84,3.54-2.89,4.49L190.67,2027l-4.5,7.41-3.68,3.85-6.75,5.15-1.26,1-2.09,2.43-2.4,3.38-6.24,10.95-3.21,3.4-13.33,9.18-6.73,5.35-3.21,3.2-2.1,3.09-1.44,3.66-.47,2.12-2.4,16.47-1,2.57-1.59,1.6-13.63,10.46-9.15,6.95-5.28,4.8-7.87,8.24-2.57,3.86-3.53,6.11-2.73,6.61L74.16,2182l-1.31,3.31-6.54,16.44-8.06,18.84-6.1,12.72-14.7,28.16-.53,1-2.4,3.06-18.75,20-3.22,4-2.09,3.23-1.59,2.61-3,6.42-4,10.47-18,47.06-.74,1.43-1.05.88-8.13,7-3.05,2.58-5.63,6.17-6.1,7.72-4.64,6.78-2.09,3.69-16,28.56-3.69,6.74-6.1,12.09-4.47,8.07L-84.14,2463l-4.33,7.87-4.64,7.42-12.81,13.36-4.66,5.8-5.61,8.72L-135.75,2540l-2.07,2.91-14,11.75-3.7,4.83-1.26,3.06-1.29,4.35-5.93,34.95-2.56,16.27v.26h0l-.16,4.26.49,4.17,8.18,39.48,2.07,7.71,1.58,3.41,3.56,5.31,1.26,3.06v3.72l-1.26,3.51-2.75,5-15.21,21.93-4,7.72-.6,1.34-4.34,9.46-1,2.14-1.35,1.86-21,25.67-5.45,7.75-1.54,1.86-2.42,3.25-4.91,8.18-3.52,2.74-4,2.75-3.52,3.85-.13.35-8.2,11.26M1058.64,946.46l-3.82,5.34c-1.63,2.2-3.17,4.63-4.77,7s-3,4.82-4.5,7.26l-4,6.74-1.58,2.41-.39.76-9.1,11.79-3,5.5-1,1.29c-.59.75-1,1.38-1.51,2.07l-2.92,4.07-5.85,8.14-2.91,4.08-2.8,4.11-4.62,6.79-4,3.25-6.89,9.52-1.82,3.8-1.19,4.5-.74,6,.09,5.91-2.05,24-.38,4.53-4.65,5"/></g><g id="松上"><path class="cls-7" d="M1012,900.74c-2.9-.48-5.86-.85-8.8-1.28l-4.41-.63c-1.47-.22-2.93-.41-4.4-.51l-8.25-.72-18.2-2.67-9.29-1.38-4.65-.69c-.76-.11-1.6-.22-2.18-.35L949,892l-28.86-3.06-3.45-.36-3.56-.49L906,887c-4.83-.52-9.75-.89-14.63-1.35l-14.46-1.21-14.14-.84-7.06-.41-3.54-.21-.44,0-.28,0-.56-.05-.56,0-.81-.13-14.19-2.23-15.36-1.25-14.69-1.51-10.06-1L783,893.13,770.56,910l-9.93,12.56L741.08,948l-15.87,20.83-1.93,2.75-1.94,2-7.68,9.56-3.49,4.63-1.53,2.57-3.83,6-4.4,6.71-9.41,14.9L683.22,1028l-4.81,5.93-4.88,5.7L663.24,1050l-9.57,8.71-5.15,5.3-16.09,16.66-5,5-14.83,18-3.51,4.25-3.65,4.39-6.16,7.41-3.14,3.78L587,1134.17l-8.87,10.47-3.29,4.08-13.65,14.76-4.44,5.11-9.26,10.14v0l-.71.9-5,6.14-8.46,9.88-27.92,30.63L488,1245.53l-11.58,12.84-5.77,6.42-3.07,3.38-2.46,2.72-.16,1.48-36.81,21.92-52.1,31.08-58.36,33-37.86,21.24-1,.83-3.8,2.16-10.31,5-9.49,4L243.2,1396l-7.42,2-9.55,3.68-2.4,1-1.17.76-1.08.58-1.19,1.57-1,1.66-6.1,17.59-.88,2.52-1.09,1.34-.38.48L208,1431l-4.41,1.71-6.42,1.82-5.8,1.94-5.67,2.48-7.22,3.69-7.43,4.79-10.83,7.24-7,5.52L139,1470.78l-8.8,7.12-7.72,7.06-5.25,5.55-9.6,10.73-10.19,11-6.75,6.65-6.35,5.94L68.8,1538.8l-23.51,19L33.1,1568.55l-34.19,29.59-12.25,9.92L-47.29,1636l-26.93,21.91L-86.91,1668l-1,.78-6.38,3.8-5.12,1.77-15.21,3.4-15.23,3.55-14.42,4-14.93,4.38-14.41,4-16.37,4-6.73.65-9.63,1-5.61,1.28-2.89,1.29-4.47,2.57-7.38,5.8-18.75,17.54-5.71,7.88-7.36,9.13-3.92,4.42-3.19,5.48-1.92,5.28-1.42,5.71-.43,5.15.05,5.92-4,.25-3.24,1.54-3.24,2.91-6.06,4.66-18.27,12.41-4.66,4-7.71,6.28-10.27,9.67-1.75,2.26-1.61,4.34-2.21,8.88-2.42,9-3.51,9.52-3.71,8.7-1.12,2.57-4.17,8.06-3.37,6.44-1.43,2.42-5.6,9.18-4.55,5.81-19.4,24.83-10.56,15.32-3.77,5.35-.81,2-.36,1.9.21,1.62,1.05,2.11,1,2-8.12,6.91-6.82,8.86-9.75,22.85-8.37,27.1-5.45,14.16-2.26,4.17-4.47,7-9.63,10.65-4.28,7.16-1,3.29-.81,3.74-1.42,10.93v16.1l.31,3.09v4.83l-1.12,4.66-8.5,15.15-21,35.6-6.08,9.83-6.24,10-4,5.63L-521,2207l-3.51,5.8-2.57,5.15-4.33,10.32-1.44,3.55-3.84,10.28-3.38,8.87-11.27,30.33-1.07,2.89-4.8,14.49-.49,5-.33,17.38-.49,4.86-1.11,5.63-1.59,4.52-2.72,4.83-11.39,19.64-1.94,3.2-8.84,16.44-10.72,21.67-5.94,12-3.05,5.8-2.89,3.86-2.09,2.89-13,12.58-6.9,7.43-3.84,5-4,6.6-4.17,8.06-1.93,6.29.16,4,1.77,8,.47,4.2-.47,5.14-.33,1.29-2.72,8.71-3.21,6.27-3.68,6-2.73,3.72-8.66,8.72-20.52,19-14.74,15.46-17.66,18.84-8.8,10.32-4,4.34-10.59,9.21h0l-19.9,16.61-5.14,5.15-2.23,2.89-1.45,3.85-.79,9.83-.63,2.61-1.15,2.57-3.18,4.8-1.94,1.78-15.2,13.2-10.6,7.55-4.48,2.12-3.53,1.28-3.68,1.11-9.62,1.63H-840l-15.06-.82-11.53-.09-2.58.43-7.23,2.4-7.38,2.74-8,2.26-6.73,1.29-19.23,4.83-12.67,4-5.32,3.23-6.1,4.83-13,14.18-5.12,5-3.38,2.75-31.3,21.12-13.62,7.72-9.93,6.43-9.12,8.2-3,2.6-6.73,4.34-13.3,6.92-9.48,3.87-3.35,2.11-4.17,3.06-4.17,3.37-2.56,1.95-2.24,1.74-1,.48-4.66-2.8-1.47-.08-1.86.68-13.62,12.52-12.35,11.46-9.94,8.21-15.4,14.49-3.84,2.09-1.91.65-4.14,1.35-4.83,1.57-3.88,2.22-11.71,7.9-4,2.14-10.47,1.4-10.38,2.75-7.89,2.56-5.94,3.24-1.42,1-8.32,6.74-8,6.92-18.75,18.09-17.14,16.72-5.31,6.63-11.37,17.24-6.42,8.52-34.47,41.41-4.4,4.46-5.59,4.49-9.66,6.33-15.26,6.82-10.34,5.72-9,8.07-4.63,4.74-1.9,1.63-1.91,2.5-6.83,10.87-9.6,13.12-7.41,7.49-5.11,2.06-4.8,1-6.87,1.92-10.53,1.72-17.61-.66-13.16-.14-11.52.8-64.45,7.4-4.16.63-7.53,1-8.5,2.12-11.22,4.83-12.18,5.8-19.89,8.69-12.18,5-50.14,18.29-4,1.49-2.91-4.46-4.36-4.35-5.1-5.79-1.74-.41-1.61.23-3.4,1.14-10.25,4.66-5.59,2.26-4.84,1.95h-4.47l-4.64-1.46-6.12-2.58-4-1.45-1.77-.52-1.91.38-2.1,1.11-5.12,4-5.77,4.17-5,2.92-21.78,10.14-6.42,3.86-5.95,5.49-3.74,3.34-2.33,1.52-3.17,1.86-6.78-1.75-6.08-1.12-8.66-1-5-.24-5.26.41-6.73,1-8,2.23-9.16,3-8,3.23-6.24,3.06-5.45,3.4-6.1,4.35-17,14.11-10.76,8.92-17.86,14.17-3.49,4.49-3,1.29-3.2.66-17.3.31-5.45.32-15.2,3.88-10.41,2.57-4.34,1.29-5.91,2.25-9.32,5.32-4.66,3.38-8.15,6.91-12,13.54-4.49,4.52-5.28,4.49-3.52,2.11-7.2,3.69-6.73,2.91-5.29,2.74-40.52,26.9-2.84,2-6.45,4.57-10.74,7.54-15,10.63-7.9,5.43-4.1,2.8-4,2.58-5.12,2.39-23.55,7.58-5.12,1.94-5.76,2.89-5,3.23-2.7,1.63-3.87,2.88-3.51,3.06-9,9.17-8,10.32-7.85,10.8L-2231,3412l-11.85,6.77-13.6,6.14-7.39,4.18-3.81,2.54-4.36,2.92-4,3.54-2.73,2.91-2.09,3.38-.63,2.08-1.4,8.83-4.51,28.52-.5,3.11-6.57,33.49-5.44,27-.33.49L-2306,3578l-1.89,9.17-.91,1.69-2,1.23-5.82,2-6,2.18-9,4.68-11.85,7.09-10.1,6.6-5.92,3.68-6.57,3.89"/><path class="cls-9" d="M1012,900.74c-2.9-.48-5.86-.85-8.8-1.28l-4.41-.63c-1.47-.22-2.93-.41-4.4-.51l-8.25-.72-18.2-2.67-9.29-1.38-4.65-.69c-.76-.11-1.6-.22-2.18-.35L949,892l-28.86-3.06-3.45-.36-3.56-.49L906,887c-4.83-.52-9.75-.89-14.63-1.35l-14.46-1.21-14.14-.84-7.06-.41-3.54-.21-.44,0-.28,0-.56-.05-.56,0-.81-.13-14.19-2.23-15.36-1.25-14.69-1.51-10.06-1L783,893.13,770.56,910l-9.93,12.56L741.08,948l-15.87,20.83-1.93,2.75-1.94,2-7.68,9.56-3.49,4.63-1.53,2.57-3.83,6-4.4,6.71-9.41,14.9L683.22,1028l-4.81,5.93-4.88,5.7L663.24,1050l-9.57,8.71-5.15,5.3-16.09,16.66-5,5-14.83,18-3.51,4.25-3.65,4.39-6.16,7.41-3.14,3.78L587,1134.17l-8.87,10.47-3.29,4.08-13.65,14.76-4.44,5.11-9.26,10.14v0l-.71.9-5,6.14-8.46,9.88-27.92,30.63L488,1245.53l-11.58,12.84-5.77,6.42-3.07,3.38-2.46,2.72-.16,1.48-36.81,21.92-52.1,31.08-58.36,33-37.86,21.24-1,.83-3.8,2.16-10.31,5-9.49,4L243.2,1396l-7.42,2-9.55,3.68-2.4,1-1.17.76-1.08.58-1.19,1.57-1,1.66-6.1,17.59-.88,2.52-1.09,1.34-.38.48L208,1431l-4.41,1.71-6.42,1.82-5.8,1.94-5.67,2.48-7.22,3.69-7.43,4.79-10.83,7.24-7,5.52L139,1470.78l-8.8,7.12-7.72,7.06-5.25,5.55-9.6,10.73-10.19,11-6.75,6.65-6.35,5.94L68.8,1538.8l-23.51,19L33.1,1568.55l-34.19,29.59-12.25,9.92L-47.29,1636l-26.93,21.91L-86.91,1668l-1,.78-6.38,3.8-5.12,1.77-15.21,3.4-15.23,3.55-14.42,4-14.93,4.38-14.41,4-16.37,4-6.73.65-9.63,1-5.61,1.28-2.89,1.29-4.47,2.57-7.38,5.8-18.75,17.54-5.71,7.88-7.36,9.13-3.92,4.42-3.19,5.48-1.92,5.28-1.42,5.71-.43,5.15.05,5.92-4,.25-3.24,1.54-3.24,2.91-6.06,4.66-18.27,12.41-4.66,4-7.71,6.28-10.27,9.67-1.75,2.26-1.61,4.34-2.21,8.88-2.42,9-3.51,9.52-3.71,8.7-1.12,2.57-4.17,8.06-3.37,6.44-1.43,2.42-5.6,9.18-4.55,5.81-19.4,24.83-10.56,15.32-3.77,5.35-.81,2-.36,1.9.21,1.62,1.05,2.11,1,2-8.12,6.91-6.82,8.86-9.75,22.85-8.37,27.1-5.45,14.16-2.26,4.17-4.47,7-9.63,10.65-4.28,7.16-1,3.29-.81,3.74-1.42,10.93v16.1l.31,3.09v4.83l-1.12,4.66-8.5,15.15-21,35.6-6.08,9.83-6.24,10-4,5.63L-521,2207l-3.51,5.8-2.57,5.15-4.33,10.32-1.44,3.55-3.84,10.28-3.38,8.87-11.27,30.33-1.07,2.89-4.8,14.49-.49,5-.33,17.38-.49,4.86-1.11,5.63-1.59,4.52-2.72,4.83-11.39,19.64-1.94,3.2-8.84,16.44-10.72,21.67-5.94,12-3.05,5.8-2.89,3.86-2.09,2.89-13,12.58-6.9,7.43-3.84,5-4,6.6-4.17,8.06-1.93,6.29.16,4,1.77,8,.47,4.2-.47,5.14-.33,1.29-2.72,8.71-3.21,6.27-3.68,6-2.73,3.72-8.66,8.72-20.52,19-14.74,15.46-17.66,18.84-8.8,10.32-4,4.34-10.59,9.21h0l-19.9,16.61-5.14,5.15-2.23,2.89-1.45,3.85-.79,9.83-.63,2.61-1.15,2.57-3.18,4.8-1.94,1.78-15.2,13.2-10.6,7.55-4.48,2.12-3.53,1.28-3.68,1.11-9.62,1.63H-840l-15.06-.82-11.53-.09-2.58.43-7.23,2.4-7.38,2.74-8,2.26-6.73,1.29-19.23,4.83-12.67,4-5.32,3.23-6.1,4.83-13,14.18-5.12,5-3.38,2.75-31.3,21.12-13.62,7.72-9.93,6.43-9.12,8.2-3,2.6-6.73,4.34-13.3,6.92-9.48,3.87-3.35,2.11-4.17,3.06-4.17,3.37-2.56,1.95-2.24,1.74-1,.48-4.66-2.8-1.47-.08-1.86.68-13.62,12.52-12.35,11.46-9.94,8.21-15.4,14.49-3.84,2.09-1.91.65-4.14,1.35-4.83,1.57-3.88,2.22-11.71,7.9-4,2.14-10.47,1.4-10.38,2.75-7.89,2.56-5.94,3.24-1.42,1-8.32,6.74-8,6.92-18.75,18.09-17.14,16.72-5.31,6.63-11.37,17.24-6.42,8.52-34.47,41.41-4.4,4.46-5.59,4.49-9.66,6.33-15.26,6.82-10.34,5.72-9,8.07-4.63,4.74-1.9,1.63-1.91,2.5-6.83,10.87-9.6,13.12-7.41,7.49-5.11,2.06-4.8,1-6.87,1.92-10.53,1.72-17.61-.66-13.16-.14-11.52.8-64.45,7.4-4.16.63-7.53,1-8.5,2.12-11.22,4.83-12.18,5.8-19.89,8.69-12.18,5-50.14,18.29-4,1.49-2.91-4.46-4.36-4.35-5.1-5.79-1.74-.41-1.61.23-3.4,1.14-10.25,4.66-5.59,2.26-4.84,1.95h-4.47l-4.64-1.46-6.12-2.58-4-1.45-1.77-.52-1.91.38-2.1,1.11-5.12,4-5.77,4.17-5,2.92-21.78,10.14-6.42,3.86-5.95,5.49-3.74,3.34-2.33,1.52-3.17,1.86-6.78-1.75-6.08-1.12-8.66-1-5-.24-5.26.41-6.73,1-8,2.23-9.16,3-8,3.23-6.24,3.06-5.45,3.4-6.1,4.35-17,14.11-10.76,8.92-17.86,14.17-3.49,4.49-3,1.29-3.2.66-17.3.31-5.45.32-15.2,3.88-10.41,2.57-4.34,1.29-5.91,2.25-9.32,5.32-4.66,3.38-8.15,6.91-12,13.54-4.49,4.52-5.28,4.49-3.52,2.11-7.2,3.69-6.73,2.91-5.29,2.74-40.52,26.9-2.84,2-6.45,4.57-10.74,7.54-15,10.63-7.9,5.43-4.1,2.8-4,2.58-5.12,2.39-23.55,7.58-5.12,1.94-5.76,2.89-5,3.23-2.7,1.63-3.87,2.88-3.51,3.06-9,9.17-8,10.32-7.85,10.8L-2231,3412l-11.85,6.77-13.6,6.14-7.39,4.18-3.81,2.54-4.36,2.92-4,3.54-2.73,2.91-2.09,3.38-.63,2.08-1.4,8.83-4.51,28.52-.5,3.11-6.57,33.49-5.44,27-.33.49L-2306,3578l-1.89,9.17-.91,1.69-2,1.23-5.82,2-6,2.18-9,4.68-11.85,7.09-10.1,6.6-5.92,3.68-6.57,3.89"/></g><g id="神戸"><path class="cls-7" d="M1061.42,985.24l4.26-7.16c1.3-2.2,2.56-4.43,4-6.49s2.75-4.23,4.34-6.36l5.59-7.8m-78,537.68,10.86-15.55,5.43-7.77,1.43-2.07a26.55,26.55,0,0,0,1.53-2.47,35.29,35.29,0,0,0,2.36-5.14c2.55-7,3.13-13.69,4.11-19.73a32.66,32.66,0,0,1,1.88-7.76,9.85,9.85,0,0,1,1.58-2.55,8.19,8.19,0,0,1,1-1c.44-.37,1-.8,1.53-1.18a76.33,76.33,0,0,1,7.57-4.56c1.42-.81,2.84-1.6,4.39-2.59a34.8,34.8,0,0,0,4.57-3.56c5.46-5.14,9-11,12.38-16.29,6.72-10.45,14.31-20.91,20.39-32.77,1.5-2.95,2.85-5.85,4.21-8.67.32-.65.72-1.47,1.1-2.35s.73-1.78,1.06-2.73a23.72,23.72,0,0,0,1.17-6.18,35.14,35.14,0,0,0-.25-5.74l-.62-4.8-1.24-9.4-2.46-18.8a30.77,30.77,0,0,1-.22-8,19.06,19.06,0,0,1,.88-3.54c.43-1.24,1-2.56,1.6-4s1.29-2.89,2-4.51c.33-.81.65-1.66,1-2.53l.77-2.24c1-3,2.06-5.84,3.19-8.62l.87-2.06c.29-.66.56-1.25.88-1.87.61-1.24,1.32-2.48,2.08-3.75,1.53-2.52,3.33-5.22,5-8a39.17,39.17,0,0,0,2.65-4.92,22.25,22.25,0,0,0,1.7-6.24c0-.56.1-1.11.11-1.66s0-1.13,0-1.47l0-2.38-.09-4.77-.18-9.54c-.09-3.23-.2-6.46-.39-9.67-.69-12.87-2-25.57-3.25-38.16s-2.23-25.16-3.11-37.75-1.47-25.12-1.66-37.71c-.11-6.3-.16-12.56,0-18.76.06-3.15.27-6,.37-9.53.07-3.32,0-6.53,0-9.61l0-2.28,0-1c0-.31,0-.64.06-1,.12-1.33.33-2.72.59-4.2l.85-4.68c.3-1.61.54-3.5.76-5l2.72-18.73,1.36-9.37.34-2.35.36-2.19c.26-1.45.57-2.91.9-4.37,1.36-5.85,3.27-11.76,5.15-17.88s3.51-12.51,5.17-18.46c.84-3,1.72-5.91,2.7-8.75s2.14-5.73,3.29-8.61m-62.63,23.89-1.17,1.78-.32.62-.49,1-.65.85-8.56,11.1-3,5.5-2,2.61c-.43.54-.93,1.28-1.39,1.91l-2.82,3.94-5.66,7.88-2.82,3.95-2.75,4-6.47,9.52-4.31,3.47-3.78,5.22-.47,9,3.34-1.09,5.14-1.13,8.93-1.29,8.69-1.31,17.42-2.68,17.33-2.66,8.64-1.35,8.45-1.83,7.13,21.64M-1304,3686.15l.76.3,3,1.14,3.5,1.51,2,.35,2.3.41.34.07,3.17.68,1,.21,5.22.28,4.83-.61,2.93-.36,8.1-1.16h8.64l5.77-.14,2.68-.14,4.87.07,3.46.09,2,.05,4.12.55,5.15,1.1,3.5.82,4.88,1.65,4,1,5.21,2.13,3.43,1.51.47.27,2.48,1.51,4.06,3.13,4.77,4.12,4.12,3.44,4.44,3.18,3.31,1.19,3,.91,1.19.36,3.45.39,5.24-1.19,5.9-1.66,2.45-.66,3.12-.67,4.11-.52,3.78-.14,3.38,1.13,4.35,2.36,3.27,2,3.55,2.17,3.35,2.57,27.4,21.05,2.67,1.8,2.6-.33,2.12-.79,1.2.76,4.64,2.88,3.72,1.22,3.3.81,2.64.53,1.41-.13,2.36-.28,2.07-.51,4.66-2.43,5.45-3.86,8.34-5.46,4.47-2.56,13.3-7.89,5-1.63,6.73-1.63,5-2.09,2.07-1.45,2.75-2.57,5.28-7.89,1.28-1.28,2.56-2.26,3.85-2.4,14.09-6.08,7.22-1,16.81-1.77,11.53-.32,7.52.46,16,1.94,6.74.52,5.26-.2,6.1-1.77,5.45-1.72,3.61-1,2.94-.8,6.1.51,8.17,2.43,4.8,1.6.79.45,4.66,1.6,9.13,1.66,14.09,1,11.22,1.59,1.89.49,18.42,2.57,33.47,4.8,14.11,1.8,3.38.49,7.52.8,10.88-.18,4.65-.79,10.25-2.89,9.62-3.09,8-3.2,9.62-5.31,9.12-6.11,16-8.55,10.87-7.71,5.78-4.83,6.41-6.46.09,0,4.54-3,4.82-2.25,6.4-2.23,27.23-6.29,17.14-3.71,4.82-.17,14.07,5.17,3.84.94,5.87-.45,3.86-4.38.68-.63,3.38-1.77,7.68-2.28,3.68-1,5.45-1.63,4-.94,3.38-1.2,4.31-1.06,2.89-.8,10.87-3.05,24.2-6.95,29.62-8.51,4.48-1.15,5.64-1,4.14-3,3.56-2.42,5.12-2.57,5.59-1.63,1.82-.38,2.84-.57,11.86-1.94,3.68-.48,3.79-.8,2-.75,2.59-1,4.21-2.12,11.23-5.58,1.21-.43,6.43-2.88,7.31-1.69,3.28-.79,1.8-.38,2-.2,5.43-.34,5-.63,3.21-.83,5.13-2.25,2.4-2.09,1.51-1.94,11-14.32,3.85-5.14,13.13-19,6.57-9.18,5-4.37,8-3.86,5.31-2.19,4.63-2.46,3.05-2.6,4.31-4.66,17.93-25.6,1.77-1.78,2.21-1.45,8.18-4.83,1.93-1L-254,3472l3.21-2.25,6.41-2.61,9-1.91,7.38-1.46,2.4-1.28.47-29.46.65-3.72.48-1.14,2.1-2.4,2.56-2,5.76-3.45,11.39-4,9.07-2.66,1.8-.8,1.84-.64,3.93-1.3,31.54-10.95,5.12-1.6,27.39-9.51,9.19-2.95,8.44-1.24,4.29-.48,5.47-.27,9.43-.26,8.15,1.38,5.74,1.63,4.39,2.53,13.3,6.61,14.07,6.91,6.75,2.15,2.8-.52.44-.08,2.37-2.52,1-1.94-.3-3.43L-27,3383.94l-.48-5.39.15-3.31.61-2.76,1.12-5.17,1.66-4,2.36-4,1.08-2.15,5.47-6.6,4-2.11,9.79-6.53,12.37-8,4.36-3.15,11.24-5.23,6-2.72,7.9-2.91,26.89-8.14,14-3.84,4-.79,5.12-1.74,5.43-1.85,5.94-1.61,5.29-.84,13.66-.27,7.12.08,14.26-1,14.2-1,10.57-2.59,6.71-2.49,7.09-2.75,6.93-3.45,18.44-12.24L226.56,3265l11-4.9,1.3-.39,2.64-.28h6.38l10.75,0,3.59-.52,7.21-.63,2.42-.78,10.14-12,2.61-3.4,4.64-2.65,7.52-4.63,2.42-2.3,6-7.46,9.25-9.56L318,3213l4.3-2.29,13.9-7.68,9.18-7.46,6.06-4.84,5.29-4.12,6.58-5.49,4.33-3,3.91-2,3.84-1.33,4.66-1.41,9.76-3.06,11.3-4.37,16.9-7.71,9.32-4,8.47-2.43,9.22-2.59,8-2.16,12.64-3.82,11.31-2.59,7.29-1.91,3.86-1,2.55-2.3,6.53-6.42,13.32-15.94,1.15-1.42,13.95-16.43,3.58-5.09,2.9-6.87,11.58-27.45,4.32-6.17,4.38-3.58,12-8.54,4.5-4.52,7.39-8,4.41-3.09,2.81-1.28,2.6-.74,5.52-.72,5.94-.07,4.85.24,11.15.39,2.86-.3,1.74-.18,5-2.66,2.89-2,2.73-2.53,2.24-2.78,1.8-3.52.88-2.92.22-8.1.63-18.06,2.16-8.3,1.92-4.29,2.68-5.44,5.58-10.79.59-1.15,15.56-30.1,5.87-9.47,3.42-4.21,3.93-3,1.19-.38,1-.36,5.81-2.65,1.43-.62,61.61-24.67,7.32-3.25,10.76-3.42,8.25-2,10.64-2.29,12.86-3,3.68-1,2.85-1.33,5.74-3.27,9.39-6.5,5.91-4.06,4.19-2,5.39-2.39,1.2-.49.76-.35,4.61-1.62,7.21-1.56,7.36-2.33,38.15-11m108.25-1324.72-1.5,2.65L990.28,1510c-1.6,2.06-3.31,4-4.81,6.18l-4.52,6.36-9.28,13-1.16,1.63-1.22,1.56-1.22,1.56-1.1,1.53-4.44,6.24-6.3,10.53-2.27,4.85c-4.12,12.74-8.57,27.43-12.55,40.34l-1.25,6.74c-.47,2.35-.83,4.71-1.18,7.06-.74,4.69-1.37,9.48-2,14.23s-1.3,9.54-1.83,14.3l-1.68,14.43-1.75,14.49-.88,7.25c-.13,1.2-.29,2.41-.53,3.66l-.53,3.55-1,7.07c-.33,2.37-.57,4.84-.86,7.25s-.78,4.84-1.17,7.26l-1.4,7.74-3.4,9.32-1,8.76c-.2,1.56-.31,3.16-.4,4.77l-.32,4.82c-.65,6.45-1.12,12.78-1.6,19.15l-.73,9.55-.82,9.7c-.35,6.55-1.68,12.79-2,19.17l-6.23,76.51v.41l-.87,10.5-.9,10.35-1.81,20.7c-.62,6.9-1.23,13.8-1.68,20.71l-1.44,20,1.82,10.55c.66,3.81,1.27,7.32,2.11,11,1,3.65,1.68,7.56,2.4,11.41l1,5.8c.16,1,.27,2.07.4,3l.4,3.21v12c0,3.89,0,7.79-.18,11.62l-.48,11.56-.24,5.78c-.06,1-.07,1.91-.06,2.84v3.1l-2.65,27.46c-.39,4.54-1,9.05-1.54,13.58L903.46,2110l-2,9.3-1.76,13.61c-.28,2.31-.61,4.6-.87,6.93l-.71,7-1.44,14c-.13,1.17-.2,2.33-.39,3.5l-.59,3.52-1.14,6.81-.81,8.79.09,9.15.58,7.26c.18,2.49.6,5,.89,7.46l2,15,2.08,15,2.16,15.26.41,5.71.35,5.51.65,11m0,.24c-.06,8.18-.37,15.94-.54,23.77l-.3,11.74c-.06,3.91-.29,7.81-.21,11.74,0,15.68.29,31.35,0,47.07-.09,15.69,0,31.36,0,47l.11,23.62c.23,7.89-.37,15.81-.64,23.72l-5.65,16.65.25,22-.33,22.67-.16,12.41-.31,9.38-.09,47.16-.08,1.66.1,17.57-.66,32.78,0,1.8-.33,28.29.34,10.7.31,9.7-.08,2.82-.61,12.32-1.06,7.77-.37,2.79-1,7.49-1.15,8.27-.33,2.09-1.11,7.06L886.9,2760l-.07.73-.15,1.37-.33,3.24-1.09,10.44-.25,5.94,2.39,10.92,6.23,26.69m106.44-1321.9,8.21,4.93,10,5.16,3.49,1.93,13.22,5,10,3.14,18.85,4.94,18.78,3.51,84.66,18.83,4.39,1.78,3.14.44,22.17,5.08,11.08,2.54,5.54,1.26,5.6,1,8.43,2.45c1.9.31,3.79.66,5.69,1m0,0,1.32-5.33,1.46-5.86.73-2.93.89-2.82.88-2.82,1-2.9,2-5.8,4-11.6,2-5.8,2.11-5.76,8.5-23.17,2.13-5.82,1.9-5.86c1.22-3.94,2.68-7.75,4.06-11.6L1283,1416.1c2.82-7.71,5.53-15.55,8.18-23.28,1.34-3.88,2.66-7.76,4.07-11.61l4.28-11.94,1.75-8.25,1.53-7.88,1.51-7.83c.5-2.6,1-5.19,1.55-7.81,1-5.22,2.19-10.46,3.11-15.67.48-2.6.87-5.21,1.44-7.82s1-5.23,1.49-7.86c.93-5.25,1.83-10.58,2.79-15.76l1.44-7.8,1.56-7.83,1.57-7.84c.53-2.61.91-5.19,1.38-7.79s.82-5.21,1.51-7.73l1.78-7.38,1.58-4.83,5.28-7.77,9.74-11.78M893.63,2819.36l3.47,14.91m480.22-1209.85-18.53-12.37-2.56-2.92c-11.37-8-23.08-15.51-35-22.65l-8.68-4-8.9-3.52-9-3.32-9-3.22-14.39-3.75-3.61-.9L1264,1567l-7.27-1.55-14.55-3.09c-3-.63-5.93-1.26-8.9-1.85"/><path class="cls-14" d="M1061.42,985.24l4.26-7.16c1.3-2.2,2.56-4.43,4-6.49s2.75-4.23,4.34-6.36l5.59-7.8m-78,537.68,10.86-15.55,5.43-7.77,1.43-2.07a26.55,26.55,0,0,0,1.53-2.47,35.29,35.29,0,0,0,2.36-5.14c2.55-7,3.13-13.69,4.11-19.73a32.66,32.66,0,0,1,1.88-7.76,9.85,9.85,0,0,1,1.58-2.55,8.19,8.19,0,0,1,1-1c.44-.37,1-.8,1.53-1.18a76.33,76.33,0,0,1,7.57-4.56c1.42-.81,2.84-1.6,4.39-2.59a34.8,34.8,0,0,0,4.57-3.56c5.46-5.14,9-11,12.38-16.29,6.72-10.45,14.31-20.91,20.39-32.77,1.5-2.95,2.85-5.85,4.21-8.67.32-.65.72-1.47,1.1-2.35s.73-1.78,1.06-2.73a23.72,23.72,0,0,0,1.17-6.18,35.14,35.14,0,0,0-.25-5.74l-.62-4.8-1.24-9.4-2.46-18.8a30.77,30.77,0,0,1-.22-8,19.06,19.06,0,0,1,.88-3.54c.43-1.24,1-2.56,1.6-4s1.29-2.89,2-4.51c.33-.81.65-1.66,1-2.53l.77-2.24c1-3,2.06-5.84,3.19-8.62l.87-2.06c.29-.66.56-1.25.88-1.87.61-1.24,1.32-2.48,2.08-3.75,1.53-2.52,3.33-5.22,5-8a39.17,39.17,0,0,0,2.65-4.92,22.25,22.25,0,0,0,1.7-6.24c0-.56.1-1.11.11-1.66s0-1.13,0-1.47l0-2.38-.09-4.77-.18-9.54c-.09-3.23-.2-6.46-.39-9.67-.69-12.87-2-25.57-3.25-38.16s-2.23-25.16-3.11-37.75-1.47-25.12-1.66-37.71c-.11-6.3-.16-12.56,0-18.76.06-3.15.27-6,.37-9.53.07-3.32,0-6.53,0-9.61l0-2.28,0-1c0-.31,0-.64.06-1,.12-1.33.33-2.72.59-4.2l.85-4.68c.3-1.61.54-3.5.76-5l2.72-18.73,1.36-9.37.34-2.35.36-2.19c.26-1.45.57-2.91.9-4.37,1.36-5.85,3.27-11.76,5.15-17.88s3.51-12.51,5.17-18.46c.84-3,1.72-5.91,2.7-8.75s2.14-5.73,3.29-8.61m-62.63,23.89-1.17,1.78-.32.62-.49,1-.65.85-8.56,11.1-3,5.5-2,2.61c-.43.54-.93,1.28-1.39,1.91l-2.82,3.94-5.66,7.88-2.82,3.95-2.75,4-6.47,9.52-4.31,3.47-3.78,5.22-.47,9,3.34-1.09,5.14-1.13,8.93-1.29,8.69-1.31,17.42-2.68,17.33-2.66,8.64-1.35,8.45-1.83,7.13,21.64M-1304,3686.15l.76.3,3,1.14,3.5,1.51,2,.35,2.3.41.34.07,3.17.68,1,.21,5.22.28,4.83-.61,2.93-.36,8.1-1.16h8.64l5.77-.14,2.68-.14,4.87.07,3.46.09,2,.05,4.12.55,5.15,1.1,3.5.82,4.88,1.65,4,1,5.21,2.13,3.43,1.51.47.27,2.48,1.51,4.06,3.13,4.77,4.12,4.12,3.44,4.44,3.18,3.31,1.19,3,.91,1.19.36,3.45.39,5.24-1.19,5.9-1.66,2.45-.66,3.12-.67,4.11-.52,3.78-.14,3.38,1.13,4.35,2.36,3.27,2,3.55,2.17,3.35,2.57,27.4,21.05,2.67,1.8,2.6-.33,2.12-.79,1.2.76,4.64,2.88,3.72,1.22,3.3.81,2.64.53,1.41-.13,2.36-.28,2.07-.51,4.66-2.43,5.45-3.86,8.34-5.46,4.47-2.56,13.3-7.89,5-1.63,6.73-1.63,5-2.09,2.07-1.45,2.75-2.57,5.28-7.89,1.28-1.28,2.56-2.26,3.85-2.4,14.09-6.08,7.22-1,16.81-1.77,11.53-.32,7.52.46,16,1.94,6.74.52,5.26-.2,6.1-1.77,5.45-1.72,3.61-1,2.94-.8,6.1.51,8.17,2.43,4.8,1.6.79.45,4.66,1.6,9.13,1.66,14.09,1,11.22,1.59,1.89.49,18.42,2.57,33.47,4.8,14.11,1.8,3.38.49,7.52.8,10.88-.18,4.65-.79,10.25-2.89,9.62-3.09,8-3.2,9.62-5.31,9.12-6.11,16-8.55,10.87-7.71,5.78-4.83,6.41-6.46.09,0,4.54-3,4.82-2.25,6.4-2.23,27.23-6.29,17.14-3.71,4.82-.17,14.07,5.17,3.84.94,5.87-.45,3.86-4.38.68-.63,3.38-1.77,7.68-2.28,3.68-1,5.45-1.63,4-.94,3.38-1.2,4.31-1.06,2.89-.8,10.87-3.05,24.2-6.95,29.62-8.51,4.48-1.15,5.64-1,4.14-3,3.56-2.42,5.12-2.57,5.59-1.63,1.82-.38,2.84-.57,11.86-1.94,3.68-.48,3.79-.8,2-.75,2.59-1,4.21-2.12,11.23-5.58,1.21-.43,6.43-2.88,7.31-1.69,3.28-.79,1.8-.38,2-.2,5.43-.34,5-.63,3.21-.83,5.13-2.25,2.4-2.09,1.51-1.94,11-14.32,3.85-5.14,13.13-19,6.57-9.18,5-4.37,8-3.86,5.31-2.19,4.63-2.46,3.05-2.6,4.31-4.66,17.93-25.6,1.77-1.78,2.21-1.45,8.18-4.83,1.93-1L-254,3472l3.21-2.25,6.41-2.61,9-1.91,7.38-1.46,2.4-1.28.47-29.46.65-3.72.48-1.14,2.1-2.4,2.56-2,5.76-3.45,11.39-4,9.07-2.66,1.8-.8,1.84-.64,3.93-1.3,31.54-10.95,5.12-1.6,27.39-9.51,9.19-2.95,8.44-1.24,4.29-.48,5.47-.27,9.43-.26,8.15,1.38,5.74,1.63,4.39,2.53,13.3,6.61,14.07,6.91,6.75,2.15,2.8-.52.44-.08,2.37-2.52,1-1.94-.3-3.43L-27,3383.94l-.48-5.39.15-3.31.61-2.76,1.12-5.17,1.66-4,2.36-4,1.08-2.15,5.47-6.6,4-2.11,9.79-6.53,12.37-8,4.36-3.15,11.24-5.23,6-2.72,7.9-2.91,26.89-8.14,14-3.84,4-.79,5.12-1.74,5.43-1.85,5.94-1.61,5.29-.84,13.66-.27,7.12.08,14.26-1,14.2-1,10.57-2.59,6.71-2.49,7.09-2.75,6.93-3.45,18.44-12.24L226.56,3265l11-4.9,1.3-.39,2.64-.28h6.38l10.75,0,3.59-.52,7.21-.63,2.42-.78,10.14-12,2.61-3.4,4.64-2.65,7.52-4.63,2.42-2.3,6-7.46,9.25-9.56L318,3213l4.3-2.29,13.9-7.68,9.18-7.46,6.06-4.84,5.29-4.12,6.58-5.49,4.33-3,3.91-2,3.84-1.33,4.66-1.41,9.76-3.06,11.3-4.37,16.9-7.71,9.32-4,8.47-2.43,9.22-2.59,8-2.16,12.64-3.82,11.31-2.59,7.29-1.91,3.86-1,2.55-2.3,6.53-6.42,13.32-15.94,1.15-1.42,13.95-16.43,3.58-5.09,2.9-6.87,11.58-27.45,4.32-6.17,4.38-3.58,12-8.54,4.5-4.52,7.39-8,4.41-3.09,2.81-1.28,2.6-.74,5.52-.72,5.94-.07,4.85.24,11.15.39,2.86-.3,1.74-.18,5-2.66,2.89-2,2.73-2.53,2.24-2.78,1.8-3.52.88-2.92.22-8.1.63-18.06,2.16-8.3,1.92-4.29,2.68-5.44,5.58-10.79.59-1.15,15.56-30.1,5.87-9.47,3.42-4.21,3.93-3,1.19-.38,1-.36,5.81-2.65,1.43-.62,61.61-24.67,7.32-3.25,10.76-3.42,8.25-2,10.64-2.29,12.86-3,3.68-1,2.85-1.33,5.74-3.27,9.39-6.5,5.91-4.06,4.19-2,5.39-2.39,1.2-.49.76-.35,4.61-1.62,7.21-1.56,7.36-2.33,38.15-11m108.25-1324.72-1.5,2.65L990.28,1510c-1.6,2.06-3.31,4-4.81,6.18l-4.52,6.36-9.28,13-1.16,1.63-1.22,1.56-1.22,1.56-1.1,1.53-4.44,6.24-6.3,10.53-2.27,4.85c-4.12,12.74-8.57,27.43-12.55,40.34l-1.25,6.74c-.47,2.35-.83,4.71-1.18,7.06-.74,4.69-1.37,9.48-2,14.23s-1.3,9.54-1.83,14.3l-1.68,14.43-1.75,14.49-.88,7.25c-.13,1.2-.29,2.41-.53,3.66l-.53,3.55-1,7.07c-.33,2.37-.57,4.84-.86,7.25s-.78,4.84-1.17,7.26l-1.4,7.74-3.4,9.32-1,8.76c-.2,1.56-.31,3.16-.4,4.77l-.32,4.82c-.65,6.45-1.12,12.78-1.6,19.15l-.73,9.55-.82,9.7c-.35,6.55-1.68,12.79-2,19.17l-6.23,76.51v.41l-.87,10.5-.9,10.35-1.81,20.7c-.62,6.9-1.23,13.8-1.68,20.71l-1.44,20,1.82,10.55c.66,3.81,1.27,7.32,2.11,11,1,3.65,1.68,7.56,2.4,11.41l1,5.8c.16,1,.27,2.07.4,3l.4,3.21v12c0,3.89,0,7.79-.18,11.62l-.48,11.56-.24,5.78c-.06,1-.07,1.91-.06,2.84v3.1l-2.65,27.46c-.39,4.54-1,9.05-1.54,13.58L903.46,2110l-2,9.3-1.76,13.61c-.28,2.31-.61,4.6-.87,6.93l-.71,7-1.44,14c-.13,1.17-.2,2.33-.39,3.5l-.59,3.52-1.14,6.81-.81,8.79.09,9.15.58,7.26c.18,2.49.6,5,.89,7.46l2,15,2.08,15,2.16,15.26.41,5.71.35,5.51.65,11m0,.24c-.06,8.18-.37,15.94-.54,23.77l-.3,11.74c-.06,3.91-.29,7.81-.21,11.74,0,15.68.29,31.35,0,47.07-.09,15.69,0,31.36,0,47l.11,23.62c.23,7.89-.37,15.81-.64,23.72l-5.65,16.65.25,22-.33,22.67-.16,12.41-.31,9.38-.09,47.16-.08,1.66.1,17.57-.66,32.78,0,1.8-.33,28.29.34,10.7.31,9.7-.08,2.82-.61,12.32-1.06,7.77-.37,2.79-1,7.49-1.15,8.27-.33,2.09-1.11,7.06L886.9,2760l-.07.73-.15,1.37-.33,3.24-1.09,10.44-.25,5.94,2.39,10.92,6.23,26.69m106.44-1321.9,8.21,4.93,10,5.16,3.49,1.93,13.22,5,10,3.14,18.85,4.94,18.78,3.51,84.66,18.83,4.39,1.78,3.14.44,22.17,5.08,11.08,2.54,5.54,1.26,5.6,1,8.43,2.45c1.9.31,3.79.66,5.69,1m0,0,1.32-5.33,1.46-5.86.73-2.93.89-2.82.88-2.82,1-2.9,2-5.8,4-11.6,2-5.8,2.11-5.76,8.5-23.17,2.13-5.82,1.9-5.86c1.22-3.94,2.68-7.75,4.06-11.6L1283,1416.1c2.82-7.71,5.53-15.55,8.18-23.28,1.34-3.88,2.66-7.76,4.07-11.61l4.28-11.94,1.75-8.25,1.53-7.88,1.51-7.83c.5-2.6,1-5.19,1.55-7.81,1-5.22,2.19-10.46,3.11-15.67.48-2.6.87-5.21,1.44-7.82s1-5.23,1.49-7.86c.93-5.25,1.83-10.58,2.79-15.76l1.44-7.8,1.56-7.83,1.57-7.84c.53-2.61.91-5.19,1.38-7.79s.82-5.21,1.51-7.73l1.78-7.38,1.58-4.83,5.28-7.77,9.74-11.78M893.63,2819.36l3.47,14.91m480.22-1209.85-18.53-12.37-2.56-2.92c-11.37-8-23.08-15.51-35-22.65l-8.68-4-8.9-3.52-9-3.32-9-3.22-14.39-3.75-3.61-.9L1264,1567l-7.27-1.55-14.55-3.09c-3-.63-5.93-1.26-8.9-1.85"/></g><g id="横枕"><path class="cls-7" d="M1051.48,979l-1.37,2.09-.6,1.17h0l-9.16,11.87-2.94,5.5q-11.76,15.83-22.77,32.2l-4.17,3.35-5.36,7.4-.88,1.85-.71,2.66-.54,4.39.09,5.69-1.85,21.6c1.32-.84,2.68-1.86,4-2.78s2.86-2.07,4.24-2.93l2.06-1.25,2.06-1.07,4.09-1.76,3.52-1.15,4.15-.91,8.53-1.23,8.76-1.33,17.45-2.67,17.54-2.7,8.79-1.38,1.67,8.69M891.24,2275.55l-.65-11-.34-5.46-.38-5.25L887.76,2239l-2.09-15.1c-.69-5-1.37-10.07-2-15.18-.3-2.56-.72-5.08-.91-7.66l-.64-7.9L882,2183l.9-9.81,1.17-7,.58-3.39c.18-1.14.25-2.31.38-3.46l1.42-13.89.71-6.94c.25-2.32.59-4.65.88-7l1.83-14.2,2-9.26,1.6-13.21c.53-4.5,1.15-9,1.54-13.49l2.58-26.79v-2.68c0-1,0-2,.06-2.94l.24-5.78.48-11.55c.23-3.87.18-7.68.18-11.5V2009l-.31-2.47c-.13-1-.2-1.76-.36-2.68l-1-5.49c-.69-3.65-1.3-7.27-2.31-11s-1.57-7.77-2.21-11.47l-2.07-12,1.54-21.48c.46-6.93,1.07-13.83,1.68-20.74l1.82-20.72,1.74-20.58,0-.51,6.28-76.94c.29-6.46,1.64-12.82,2-19.1l.79-9.48.74-9.64c.49-6.42,1-12.88,1.61-19.19l.31-4.79c.1-1.6.2-3.19.41-4.81l1.14-10.38,3.54-9.69,1.17-6.54c.39-2.35.95-4.67,1.15-7.06s.51-4.73.85-7.15l1.07-7.28.55-3.62c.22-1.13.37-2.32.51-3.52l.86-7.15,1.73-14.31,1.67-14.39c.55-4.85,1.24-9.66,1.85-14.49s1.32-9.62,2.09-14.49c.36-2.43.73-4.85,1.2-7.24L930,1601c4.47-14.5,8.32-27.27,13-41.83l2.85-6.07,6.84-11.44,4.75-6.67,1.22-1.7,1.22-1.56,1.23-1.56,1.14-1.6,9.13-12.83,4.67-6.56c1.55-2.2,3.29-4.22,4.93-6.34l9.62-12.13,1-1.85,11.23-16.12,5.46-7.82.68-1,.34-.48.25-.38a16.51,16.51,0,0,0,1-1.57,22.87,22.87,0,0,0,1.6-3.5c1.87-5,2.52-11,3.52-17.47a42.68,42.68,0,0,1,2.73-10.64,20.82,20.82,0,0,1,5.77-7.82c.77-.65,1.48-1.19,2.23-1.74a90.57,90.57,0,0,1,8.69-5.27c1.34-.76,2.69-1.52,3.81-2.24a23.31,23.31,0,0,0,2.93-2.29c3.83-3.56,7.06-8.64,10.46-14s7.08-10.66,10.47-15.93a179.88,179.88,0,0,0,9.35-15.85c1.38-2.71,2.71-5.55,4.1-8.45s2.08-4.64,2.18-6.79a21.73,21.73,0,0,0-.18-3.75l-.6-4.64-1.25-9.45-2.47-18.93a41.42,41.42,0,0,1-.18-11,30.64,30.64,0,0,1,1.4-5.68c.61-1.75,1.29-3.36,1.95-4.86s1.29-2.9,1.82-4.22c.28-.66.51-1.3.73-1.92l.77-2.25c1-3,2.16-6.14,3.42-9.23l1-2.31c.34-.8.74-1.65,1.14-2.44.8-1.6,1.66-3.12,2.53-4.56,1.77-2.91,3.5-5.48,5.1-8.09s2.5-4.5,2.68-6.33c0-.24,0-.47,0-.72v-.9l0-2.38-.09-4.74-.17-9.48c-.09-3.11-.2-6.21-.38-9.33-.67-12.47-2-25-3.22-37.66s-2.24-25.37-3.13-38.08-1.5-25.53-1.69-38.31c-.11-6.37-.16-12.8,0-19.27.07-3.19.29-6.63.37-9.49s0-6.15,0-9.41l0-2.47,0-1.34c0-.48.06-.94.09-1.41.16-1.83.43-3.58.72-5.22l.85-4.68c.28-1.51.42-2.76.67-4.43l2.75-18.91,1.37-9.46.34-2.36.42-2.5c.3-1.67.64-3.31,1-4.94,1.5-6.51,3.52-12.68,5.35-18.68s3.35-11.91,5.1-18.18c.87-3.11,1.81-6.27,2.91-9.42s2.29-6.15,3.49-9.16M274.07,2530.2l2.93-2.11,2.48-2.54,2.82-3.37L288,2518l7.47-2.77,5.67-4,4.82-4.58,6.15-7,9.63-9.27,7.23-7.12,7.11-5.66,5.43-6.39,4.7-8.19,4.33-11.45,5.55-11.08,7.23-10.13,8.56-8.8,10.24-9.88,11.69-6.62,9-4.71,12.17-7.47.89-.49,19.83-16.74,6.76-4.1,5.29-1.93,5.67.36,6.87,2.78,11,6.14,5.66,2.17,4.58.48,6.39-2.28,4.4-3.19,11-7.93.63-.46,8.32-6.14,18.56-13.38,5.9-2.53,8.2-2.89,12.17-5.18,7.59-6.87.92-.75,6.43-5.27,5.3-2.78,5.18.72,7.24,2.06,5.54,2.89,6.75,1.68,7.23.61.36-.06,11.69-1.51,20.49-3.93,1.68,4,1,2.38,2,8.26,1.29,8.84-2.09,29-.13,1.88-.56,7.86V2391l.39,3,1.4,2,2.39,2.06,6.81,4.73,4,3,10.78,7.83L690,2426.74l2.22,1,2.73,1.23,4.73,2,5,2.55,3.89,3.16,3.11,4.05,2.33,6.44,3,3.75,2.63,2.4,7,4.48,3.81,3.5,9.26,11.89,1.46,1.61,2.16,2.37,3.54,3.51,10.73,2.22,8.55,1.19,2.51.45,2.16.37,6.43-2.19,3.19-1.53L782,2480l1.41-1.48,5.17-5.36,7-7.45,3.81-3.09,3.19-1.15,2.14.14,13.63.91,5.41.35,25.2.82,26.74.22h0l13.95-.59c.26-7.78.87-15.53.63-23.34l-.11-23.48c0-15.71-.12-31.44,0-47.14.34-15.68.09-31.41,0-47.12-.08-3.92.15-7.86.21-11.8l.31-11.8c.16-7.86.47-15.8.53-23.31m2.38-286-11.32-1.1-7.7-.44-6.18-.27-25.16-1.66-1,0,3.76,16.71,5,23.11,4,18.14.93,4.78,6.11,47.88-4.45.09-9.69.11-5.47-.05-5.36-.27-14.83-1.51-14.28-1.34-7.64-1.18-7.89-.68-7.77.46-8,.83-7,1.27-4.91,2.34-4.18,3.09-8.29,6.45-.48.37-14.49,12-1.53.76-2.74.25-3.81-.92-9.09-2.93-4.69-.2-4.87,1.39-6.13,2.6-2.2,1.45-2.2,1.67-1.77,3-2.82,5-1.69,3.23-2.88,5.5-3.67,7.19-3.19,6-2.64,4.77-5.94,5.42-9.67,7.18-3.73,2.76-17.91,13.21-12.42,9.16-4.94,3.51-4.06,4-3.56,3.62-1.49,2.09-2.44,7.39-1.11,5-2.14,4.92-6.07,9-10,13.64-6.59,8.94-3.24,5.38-.73,3.45.64,12.21.39,1.37-.88,3.32-1.82,5.89-2.42,4.08-.8,1.46-1.22,2.18-.63.63-.6.61-3.9,1.73-3.23,1.23-2.69.24-2.69.6-2.15,1.3-1.95,2.52-.14.17-2.1,2.28-2.9,4.49-2.53,3.85-1,.91-2.6.62-9.26-.18-1.4.31-2.06.56-2.58,1.37-3.12,1.75L529,2325l-4,5.69-4.11,3.6-2.14,1.64-4.08,2.88-2.54,1.81-4.1,5.13-3.11,4.4-1.19,3.11-2.57,11.91,2.09,3M1051.48,979l4.14-6.95c1.37-2.32,2.7-4.66,4.25-6.87,2.92-4.53,6.13-8.87,9.26-13.25"/><path class="cls-13" d="M1051.48,979l-1.37,2.09-.6,1.17h0l-9.16,11.87-2.94,5.5q-11.76,15.83-22.77,32.2l-4.17,3.35-5.36,7.4-.88,1.85-.71,2.66-.54,4.39.09,5.69-1.85,21.6c1.32-.84,2.68-1.86,4-2.78s2.86-2.07,4.24-2.93l2.06-1.25,2.06-1.07,4.09-1.76,3.52-1.15,4.15-.91,8.53-1.23,8.76-1.33,17.45-2.67,17.54-2.7,8.79-1.38,1.67,8.69M891.24,2275.55l-.65-11-.34-5.46-.38-5.25L887.76,2239l-2.09-15.1c-.69-5-1.37-10.07-2-15.18-.3-2.56-.72-5.08-.91-7.66l-.64-7.9L882,2183l.9-9.81,1.17-7,.58-3.39c.18-1.14.25-2.31.38-3.46l1.42-13.89.71-6.94c.25-2.32.59-4.65.88-7l1.83-14.2,2-9.26,1.6-13.21c.53-4.5,1.15-9,1.54-13.49l2.58-26.79v-2.68c0-1,0-2,.06-2.94l.24-5.78.48-11.55c.23-3.87.18-7.68.18-11.5V2009l-.31-2.47c-.13-1-.2-1.76-.36-2.68l-1-5.49c-.69-3.65-1.3-7.27-2.31-11s-1.57-7.77-2.21-11.47l-2.07-12,1.54-21.48c.46-6.93,1.07-13.83,1.68-20.74l1.82-20.72,1.74-20.58,0-.51,6.28-76.94c.29-6.46,1.64-12.82,2-19.1l.79-9.48.74-9.64c.49-6.42,1-12.88,1.61-19.19l.31-4.79c.1-1.6.2-3.19.41-4.81l1.14-10.38,3.54-9.69,1.17-6.54c.39-2.35.95-4.67,1.15-7.06s.51-4.73.85-7.15l1.07-7.28.55-3.62c.22-1.13.37-2.32.51-3.52l.86-7.15,1.73-14.31,1.67-14.39c.55-4.85,1.24-9.66,1.85-14.49s1.32-9.62,2.09-14.49c.36-2.43.73-4.85,1.2-7.24L930,1601c4.47-14.5,8.32-27.27,13-41.83l2.85-6.07,6.84-11.44,4.75-6.67,1.22-1.7,1.22-1.56,1.23-1.56,1.14-1.6,9.13-12.83,4.67-6.56c1.55-2.2,3.29-4.22,4.93-6.34l9.62-12.13,1-1.85,11.23-16.12,5.46-7.82.68-1,.34-.48.25-.38a16.51,16.51,0,0,0,1-1.57,22.87,22.87,0,0,0,1.6-3.5c1.87-5,2.52-11,3.52-17.47a42.68,42.68,0,0,1,2.73-10.64,20.82,20.82,0,0,1,5.77-7.82c.77-.65,1.48-1.19,2.23-1.74a90.57,90.57,0,0,1,8.69-5.27c1.34-.76,2.69-1.52,3.81-2.24a23.31,23.31,0,0,0,2.93-2.29c3.83-3.56,7.06-8.64,10.46-14s7.08-10.66,10.47-15.93a179.88,179.88,0,0,0,9.35-15.85c1.38-2.71,2.71-5.55,4.1-8.45s2.08-4.64,2.18-6.79a21.73,21.73,0,0,0-.18-3.75l-.6-4.64-1.25-9.45-2.47-18.93a41.42,41.42,0,0,1-.18-11,30.64,30.64,0,0,1,1.4-5.68c.61-1.75,1.29-3.36,1.95-4.86s1.29-2.9,1.82-4.22c.28-.66.51-1.3.73-1.92l.77-2.25c1-3,2.16-6.14,3.42-9.23l1-2.31c.34-.8.74-1.65,1.14-2.44.8-1.6,1.66-3.12,2.53-4.56,1.77-2.91,3.5-5.48,5.1-8.09s2.5-4.5,2.68-6.33c0-.24,0-.47,0-.72v-.9l0-2.38-.09-4.74-.17-9.48c-.09-3.11-.2-6.21-.38-9.33-.67-12.47-2-25-3.22-37.66s-2.24-25.37-3.13-38.08-1.5-25.53-1.69-38.31c-.11-6.37-.16-12.8,0-19.27.07-3.19.29-6.63.37-9.49s0-6.15,0-9.41l0-2.47,0-1.34c0-.48.06-.94.09-1.41.16-1.83.43-3.58.72-5.22l.85-4.68c.28-1.51.42-2.76.67-4.43l2.75-18.91,1.37-9.46.34-2.36.42-2.5c.3-1.67.64-3.31,1-4.94,1.5-6.51,3.52-12.68,5.35-18.68s3.35-11.91,5.1-18.18c.87-3.11,1.81-6.27,2.91-9.42s2.29-6.15,3.49-9.16M274.07,2530.2l2.93-2.11,2.48-2.54,2.82-3.37L288,2518l7.47-2.77,5.67-4,4.82-4.58,6.15-7,9.63-9.27,7.23-7.12,7.11-5.66,5.43-6.39,4.7-8.19,4.33-11.45,5.55-11.08,7.23-10.13,8.56-8.8,10.24-9.88,11.69-6.62,9-4.71,12.17-7.47.89-.49,19.83-16.74,6.76-4.1,5.29-1.93,5.67.36,6.87,2.78,11,6.14,5.66,2.17,4.58.48,6.39-2.28,4.4-3.19,11-7.93.63-.46,8.32-6.14,18.56-13.38,5.9-2.53,8.2-2.89,12.17-5.18,7.59-6.87.92-.75,6.43-5.27,5.3-2.78,5.18.72,7.24,2.06,5.54,2.89,6.75,1.68,7.23.61.36-.06,11.69-1.51,20.49-3.93,1.68,4,1,2.38,2,8.26,1.29,8.84-2.09,29-.13,1.88-.56,7.86V2391l.39,3,1.4,2,2.39,2.06,6.81,4.73,4,3,10.78,7.83L690,2426.74l2.22,1,2.73,1.23,4.73,2,5,2.55,3.89,3.16,3.11,4.05,2.33,6.44,3,3.75,2.63,2.4,7,4.48,3.81,3.5,9.26,11.89,1.46,1.61,2.16,2.37,3.54,3.51,10.73,2.22,8.55,1.19,2.51.45,2.16.37,6.43-2.19,3.19-1.53L782,2480l1.41-1.48,5.17-5.36,7-7.45,3.81-3.09,3.19-1.15,2.14.14,13.63.91,5.41.35,25.2.82,26.74.22h0l13.95-.59c.26-7.78.87-15.53.63-23.34l-.11-23.48c0-15.71-.12-31.44,0-47.14.34-15.68.09-31.41,0-47.12-.08-3.92.15-7.86.21-11.8l.31-11.8c.16-7.86.47-15.8.53-23.31m2.38-286-11.32-1.1-7.7-.44-6.18-.27-25.16-1.66-1,0,3.76,16.71,5,23.11,4,18.14.93,4.78,6.11,47.88-4.45.09-9.69.11-5.47-.05-5.36-.27-14.83-1.51-14.28-1.34-7.64-1.18-7.89-.68-7.77.46-8,.83-7,1.27-4.91,2.34-4.18,3.09-8.29,6.45-.48.37-14.49,12-1.53.76-2.74.25-3.81-.92-9.09-2.93-4.69-.2-4.87,1.39-6.13,2.6-2.2,1.45-2.2,1.67-1.77,3-2.82,5-1.69,3.23-2.88,5.5-3.67,7.19-3.19,6-2.64,4.77-5.94,5.42-9.67,7.18-3.73,2.76-17.91,13.21-12.42,9.16-4.94,3.51-4.06,4-3.56,3.62-1.49,2.09-2.44,7.39-1.11,5-2.14,4.92-6.07,9-10,13.64-6.59,8.94-3.24,5.38-.73,3.45.64,12.21.39,1.37-.88,3.32-1.82,5.89-2.42,4.08-.8,1.46-1.22,2.18-.63.63-.6.61-3.9,1.73-3.23,1.23-2.69.24-2.69.6-2.15,1.3-1.95,2.52-.14.17-2.1,2.28-2.9,4.49-2.53,3.85-1,.91-2.6.62-9.26-.18-1.4.31-2.06.56-2.58,1.37-3.12,1.75L529,2325l-4,5.69-4.11,3.6-2.14,1.64-4.08,2.88-2.54,1.81-4.1,5.13-3.11,4.4-1.19,3.11-2.57,11.91,2.09,3M1051.48,979l4.14-6.95c1.37-2.32,2.7-4.66,4.25-6.87,2.92-4.53,6.13-8.87,9.26-13.25"/></g><g id="イオン北店"><path class="cls-7" d="M854.8,543.69l9.56-171.61c.44-7.14.86-14.24,1.12-21.31.14-3.53.22-7.06.26-10.58s0-6.94,0-10.71c.11-14.72,1.64-29.13,2.89-43.33.21-2.35.39-4.68.57-7l-19.1-.69-19.46-1.29,3.73-76.09,4.69.57,23.69,2.91,10.42,1.39-1.93,37.55-.84,16.28-1.13.29-2.64.92L866,259.2l1.13-22.42-.09-.78-.52-.39-8.95-.52-1.3.48-.83.77-.39,1-.39,3.91-.08,2.83.17,2.86-.17,1-4,7.43-.24,4.9-.72,14.65.11,1.83.11,1.82m4.95,265.16-.41,7.5a16.56,16.56,0,0,0,14,17.31l.15,0,86.28,11.23,87.88,12,23.68-.85,37.66-10.18L1121.6,576l8.76-2.37,8.83-2,51.28-11.85"/><path class="cls-9" d="M854.8,543.69l9.56-171.61c.44-7.14.86-14.24,1.12-21.31.14-3.53.22-7.06.26-10.58s0-6.94,0-10.71c.11-14.72,1.64-29.13,2.89-43.33.21-2.35.39-4.68.57-7l-19.1-.69-19.46-1.29,3.73-76.09,4.69.57,23.69,2.91,10.42,1.39-1.93,37.55-.84,16.28-1.13.29-2.64.92L866,259.2l1.13-22.42-.09-.78-.52-.39-8.95-.52-1.3.48-.83.77-.39,1-.39,3.91-.08,2.83.17,2.86-.17,1-4,7.43-.24,4.9-.72,14.65.11,1.83.11,1.82m4.95,265.16-.41,7.5a16.56,16.56,0,0,0,14,17.31l.15,0,86.28,11.23,87.88,12,23.68-.85,37.66-10.18L1121.6,576l8.76-2.37,8.83-2,51.28-11.85"/></g><g id="まる"><path class="cls-15" d="M-14.58,327.61l17.17,6.68,16,6.21c5.32,2.06,10.62,4.19,16,6.05l32.29,11.53C72.26,360,77.64,362,83,363.81l16.19,5.54,32.37,11.06,32.5,10.88c5.43,1.79,10.81,3.69,16.32,5.31L198.13,402l24.47,1.65"/><line class="cls-7" x1="237.28" y1="404.23" x2="237.28" y2="404.23"/><line class="cls-7" x1="313.49" y1="398.93" x2="313.49" y2="398.93"/><path class="cls-16" d="M283.5,400.43a14.1,14.1,0,0,1-7.78-10.19l-11.81-40L246,303.3l-5.15-11.47c-1.71-3.82-3.63-7.54-5.44-11.32l-11-22.56-3.18-4.86c-1.07-1.58-1.91-3.29-2.87-4.93"/><line class="cls-7" x1="211.94" y1="234.36" x2="211.94" y2="234.36"/><path class="cls-17" d="M185.39,243.86l-.48.17-23.82,8.51-23.58,7.83-24.38,4.34-10.82.48c-1.87.08-3.73-.06-5.59-.07l-5.1-.12L67.5,260.36,23.13,239.84l-35.68-20.43"/><line class="cls-7" x1="217.14" y1="858.26" x2="217.14" y2="858.26"/><path class="cls-18" d="M218.66,828.27l.28-5,.59-10.42.68-10.47c.48-7,.84-14,1.42-20.91l.52-5.16.32-5.17.64-10.35c.56-6.91,1.28-13.85,1.91-20.77l1-10.39c.32-3.46.56-6.86.85-10.3.57-6.84,1.07-13.74,1.55-20.66l1.51-20.74c1.05-13.85,2.11-27.71,3.29-41.55L236,603.78"/><line class="cls-7" x1="237.16" y1="588.81" x2="237.16" y2="588.81"/><line class="cls-19" x1="223.14" y1="578.46" x2="216.13" y2="573.29"/><line class="cls-7" x1="209.12" y1="568.11" x2="209.12" y2="568.11"/><polyline class="cls-20" points="1132.25 322.99 1130.85 323.46 1121.59 326.38 1097.44 332.69 1087.76 335.99 1081.76 338.11 1077.32 339.73 1059.83 346.11 1014.36 362.66"/><line class="cls-7" x1="1001.37" y1="367.4" x2="1001.37" y2="367.4"/><polyline class="cls-21" points="993.18 343.42 992.31 340.9 988.41 331.69"/><line class="cls-7" x1="983.47" y1="320.02" x2="983.47" y2="320.02"/><polyline class="cls-22" points="988.76 348.09 991.47 354.46 994.88 363.67 1002.98 384.93 1006.48 396.51 1007.23 399.17 1010.58 402.86 1014.43 404.76 1017.82 411.1 1026.14 435.46 1027.33 439.29 1028.48 443.03 1034.49 461.7 1047.38 505.27 1048.13 507.79 1053.52 526.28 1054.82 530.7 1059.9 550.26 1060.49 553.2"/></g></g><g id="日交線"><g id="十六本松"><path class="cls-23" d="M1193,110.56l.93-5.1,1-12-1.1-2.17L1189.29,89l-7.07-4.47-12.65-7.79-2.39-2.17,3.72-5.34,2.89-3.24-16.4-13-7.84-6.3-8.43-6.77L1122.26,31l-14.68-4.3-14.4-4.51L1088,20.56l-4.57,14.7L1079,49.44l-.79,2.57-4,33.35-36.37-14.91-.94-.39L1025.2,62.8l-5.78-4.9-9.23-9.9L998.11,35l-.81-.72-8.39-9.55-1-1.09L976.43,11.16,972,6.32,970.7,5.1,967.45,2l-4.82-4.19-5.16-3.66L953.4-8.07l-3.15-.86-1.55-.39-5.4-1-3-.2-4.92-.82-9-2.92-.47-.16-11.76-4.84-.36-.15L902.93-24.2l-1.13-.5L896-28.34l-5.84-5.16L870.83-51.6l-7.29-7-3.46-3.27L849.4-72,834.13-87m36.7,35.4,11.11-12.71,17.84-19.07-7.42-7L884.81-97l-6.55-6.74-7.57-6.79-9.56-5.74-6.83,7.87-9.14,9.71L834.13-87m634.58,354,5.15-5.94c2-2.24,3.9-4.49,5.8-6.54.94-1.05,1.94-2.11,2.83-3.14l2.6-3.07c1.62-1.91,3.22-3.83,4.77-5.76l-23.14-21.3-31.15-30.56-30.7-30.17-9.6-9-18.64-17.12-10.3-9.32-2,.94-1.35.67-1,.53-4.42,4.64-.88.85-17.55,17.11L1322.23,165l-2.16-2.63-8.16-10.28L1303.6,141l-3.68-4.32-12-8.15-2.84-1.32-1.17-.53-2-1-4.7-2.22-2.22-1-3-.8-2.84-.68-3.52-.72-6-.54-1.9,0-6.28.42-9.73-.49-10.41-1.88L1193,110.56m0,0-8,26-6.16,30.05-6.23,54.73,5.32,32.15m157.75,151c14-15.6,12.59-14.08,27.4-29.6,9.56-10,19.24-20.33,28.6-30.31,12.85-13.69,26.15-27.86,39.46-41.62,8.68-9,17.76-17.43,26.55-25.61,4-3.7,7.95-7.4,11.88-11.14"/><polyline class="cls-24" points="1046.29 73.91 1037.86 70.45 1036.92 70.06 1025.2 62.8 1019.42 57.9 1010.19 48 998.11 35.04 997.3 34.32 988.91 24.77 987.94 23.68 976.43 11.16 971.98 6.32 970.7 5.1 967.45 2.02 962.63 -2.17 957.47 -5.83 953.4 -8.07 950.25 -8.93 948.7 -9.32 943.3 -10.35 940.26 -10.55 935.35 -11.37 926.37 -14.29 925.9 -14.45 914.13 -19.29 913.78 -19.44 902.92 -24.2 901.8 -24.7 895.99 -28.34 890.15 -33.5 870.83 -51.6 863.54 -58.63 860.08 -61.9 849.4 -72 844.9 -76.42"/></g></g></g></svg>