<svg id="_15zoom" data-name="15zoom" xmlns="http://www.w3.org/2000/svg" viewBox="0 0 1024 1024"><defs><style>.cls-1,.cls-4{fill:#231815;}.cls-12,.cls-2{fill:none;}.cls-2,.cls-3{stroke:#231815;stroke-miterlimit:10;stroke-width:2.4px;}.cls-3{fill:#fff;}.cls-4{font-size:15px;font-family:NotoSansMonoCJKjp-Regular-90ms-RKSJ-H, Noto Sans Mono CJK JP;}.cls-5{letter-spacing:-0.08em;}.cls-6{letter-spacing:-0.02em;}.cls-7{letter-spacing:-0.02em;}.cls-8{letter-spacing:-0.03em;}.cls-9{letter-spacing:-0.03em;}.cls-10{letter-spacing:0.36em;}.cls-11{font-size:9px;}</style></defs><title>3230_7147</title><path id="_クリッピングパス_" data-name="&lt;クリッピングパス&gt;" class="cls-1" d="M859.37,271.24a15,15,0,0,0-15,15h0a15,15,0,0,0,15,15h21v-30Z"/><path id="_クリッピングパス_2" data-name="&lt;クリッピングパス&gt;" class="cls-2" d="M859.37,271.24a15,15,0,0,0-15,15h0a15,15,0,0,0,15,15h21v-30Z"/><path class="cls-3" d="M1069.37,271.24h-189v30h189a15,15,0,0,0,15-15h0A15,15,0,0,0,1069.37,271.24Z"/><text class="cls-4" transform="translate(885.24 290.44)"><tspan class="cls-5">白</tspan><tspan class="cls-6" x="13.79" y="0">兎</tspan><tspan class="cls-7" x="28.48" y="0">養</tspan><tspan class="cls-8" x="43.15" y="0">護</tspan><tspan class="cls-9" x="57.67" y="0">学</tspan><tspan class="cls-10" x="72.24" y="0">校</tspan><tspan class="cls-11" x="92.6" y="-2.28">(Hakuto Special School)</tspan></text><line class="cls-3" x1="1057" y1="202" x2="976.37" y2="271.24"/><rect class="cls-12" x="-2983" y="-3068" width="11720" height="11720"/></svg>