<svg id="_15zoom" data-name="15zoom" xmlns="http://www.w3.org/2000/svg" xmlns:xlink="http://www.w3.org/1999/xlink" viewBox="0 0 1024 1024"><defs><style>.cls-1,.cls-2,.cls-21,.cls-4,.cls-9{fill:#231815;}.cls-1,.cls-12,.cls-16,.cls-19,.cls-2,.cls-20,.cls-25,.cls-3,.cls-6,.cls-8{stroke:#231815;}.cls-1,.cls-12,.cls-16,.cls-19,.cls-2,.cls-20,.cls-25,.cls-3,.cls-6,.cls-7,.cls-8{stroke-miterlimit:10;}.cls-1,.cls-12,.cls-3{stroke-width:2.4px;}.cls-19,.cls-2,.cls-20{stroke-width:2.4px;}.cls-11,.cls-16,.cls-18,.cls-20,.cls-25,.cls-3{fill:#fff;}.cls-4{font-size:18px;}.cls-11,.cls-18,.cls-21,.cls-4{font-family:NotoSansMonoCJKjp-Regular-90ms-RKSJ-H, Noto Sans Mono CJK JP;}.cls-15,.cls-5{font-size:12px;}.cls-12,.cls-19,.cls-26,.cls-6,.cls-7,.cls-8{fill:none;}.cls-6,.cls-7{stroke-linecap:round;}.cls-6{stroke-width:5.27px;}.cls-7{stroke:#ca2e34;stroke-width:2.64px;}.cls-8{stroke-width:3px;}.cls-10{clip-path:url(#clip-path);}.cls-11{font-size:28.8px;}.cls-13{letter-spacing:1.11em;}.cls-14{letter-spacing:0.61em;}.cls-15{letter-spacing:0.17em;}.cls-16{stroke-width:4px;}.cls-17{clip-path:url(#clip-path-2);}.cls-18{font-size:28.8px;}.cls-21{font-size:18px;}.cls-22{letter-spacing:0.33em;}.cls-23{letter-spacing:0.5em;}.cls-24{font-size:12px;}.cls-25{stroke-width:4px;}</style><clipPath id="clip-path"><path id="_クリッピングパス_" data-name="&lt;クリッピングパス&gt;" class="cls-1" d="M583,681.31a15,15,0,0,0-15,15h0a15,15,0,0,0,15,15h21v-30Z"/></clipPath><clipPath id="clip-path-2"><path id="_クリッピングパス_2" data-name="&lt;クリッピングパス&gt;" class="cls-2" d="M24.5,19a15,15,0,0,0-15,15h0a15,15,0,0,0,15,15h21V19Z"/></clipPath></defs><title>3233_7147</title><rect id="_長方形_" data-name="&lt;長方形&gt;" class="cls-3" x="547.64" y="50.35" width="240" height="60"/><text class="cls-4" transform="translate(640.63 73.82)">松上線<tspan class="cls-5"><tspan x="-48" y="16.32">(local bus)Matsugami line</tspan></tspan></text><line class="cls-6" x1="607.64" y1="98.35" x2="727.64" y2="98.35"/><line class="cls-7" x1="607.64" y1="98.35" x2="727.64" y2="98.35"/><line class="cls-8" x1="667.64" y1="50.35" x2="657.01" y2="13.26"/><path class="cls-9" d="M652-4.15c5.38,7.32,13.48,16,20.78,20.72l-15.14-1-12.29,8.89C649.06,16.56,651.34,4.91,652-4.15Z"/><path id="_クリッピングパス_3" data-name="&lt;クリッピングパス&gt;" class="cls-9" d="M583,681.31a15,15,0,0,0-15,15h0a15,15,0,0,0,15,15h21v-30Z"/><g class="cls-10"><text class="cls-11" transform="translate(574.57 705.89)">71</text></g><path id="_クリッピングパス_4" data-name="&lt;クリッピングパス&gt;" class="cls-12" d="M583,681.31a15,15,0,0,0-15,15h0a15,15,0,0,0,15,15h21v-30Z"/><path class="cls-3" d="M793,681.31H604v30H793a15,15,0,0,0,15-15h0A15,15,0,0,0,793,681.31Z"/><text class="cls-4" transform="translate(633.97 703.15)"><tspan class="cls-13">岩</tspan><tspan class="cls-14" x="38" y="0">坪</tspan><tspan class="cls-15" x="67" y="-2.28">Iwatsub</tspan><tspan class="cls-5" x="123" y="-2.28">o</tspan></text><line class="cls-3" x1="741.2" y1="615.55" x2="699.99" y2="681.31"/><circle class="cls-16" cx="741.2" cy="615.55" r="10"/><path id="_クリッピングパス_5" data-name="&lt;クリッピングパス&gt;" class="cls-9" d="M24.5,19a15,15,0,0,0-15,15h0a15,15,0,0,0,15,15h21V19Z"/><g class="cls-17"><text class="cls-18" transform="translate(16.1 43.53)">80</text></g><path id="_クリッピングパス_6" data-name="&lt;クリッピングパス&gt;" class="cls-19" d="M24.5,19a15,15,0,0,0-15,15h0a15,15,0,0,0,15,15h21V19Z"/><path class="cls-20" d="M234.5,19H45.5V49h189a15,15,0,0,0,15-15h0A15,15,0,0,0,234.5,19Z"/><text class="cls-21" transform="translate(57.5 40.79)"><tspan class="cls-22">河内車</tspan><tspan class="cls-23" x="72" y="0">庫</tspan><tspan class="cls-24" x="99" y="-2.28">Kochi Shako</tspan></text><line class="cls-20" x1="237.22" y1="90.57" x2="141.5" y2="48.95"/><circle class="cls-25" cx="237.22" cy="90.57" r="10"/><rect class="cls-26" x="-2983" y="-6140" width="11720" height="11720"/></svg>