<svg id="_15zoom" data-name="15zoom" xmlns="http://www.w3.org/2000/svg" xmlns:xlink="http://www.w3.org/1999/xlink" viewBox="0 0 1024 1024"><defs><style>.cls-1,.cls-11,.cls-12,.cls-39,.cls-5{fill:#231815;}.cls-1,.cls-10,.cls-27,.cls-3,.cls-30,.cls-31,.cls-33,.cls-35,.cls-38,.cls-4,.cls-64,.cls-8,.cls-9{stroke:#231815;}.cls-1,.cls-10,.cls-27,.cls-29,.cls-3,.cls-30,.cls-31,.cls-33,.cls-34,.cls-35,.cls-38,.cls-4,.cls-64,.cls-7,.cls-8,.cls-9{stroke-miterlimit:10;}.cls-1,.cls-27,.cls-38{stroke-width:2.4px;}.cls-2,.cls-27,.cls-37,.cls-4,.cls-64{fill:#fff;}.cls-10,.cls-29,.cls-3,.cls-30,.cls-31,.cls-33,.cls-34,.cls-35,.cls-38,.cls-65,.cls-7,.cls-8,.cls-9{fill:none;}.cls-3{stroke-width:2px;}.cls-4{stroke-width:2.4px;}.cls-12,.cls-39,.cls-5{font-size:18px;}.cls-12,.cls-37,.cls-39,.cls-5{font-family:NotoSansMonoCJKjp-Regular-90ms-RKSJ-H, Noto Sans Mono CJK JP;}.cls-15,.cls-16,.cls-17,.cls-18,.cls-19,.cls-20,.cls-21,.cls-22,.cls-23,.cls-24,.cls-25,.cls-26,.cls-32,.cls-43,.cls-44,.cls-45,.cls-46,.cls-47,.cls-48,.cls-49,.cls-50,.cls-51,.cls-52,.cls-53,.cls-54,.cls-55,.cls-56,.cls-57,.cls-58,.cls-59,.cls-6,.cls-60,.cls-61,.cls-62,.cls-63{font-size:12px;}.cls-7{stroke:#70b058;stroke-width:5.27px;}.cls-29,.cls-30,.cls-31,.cls-33,.cls-34,.cls-7,.cls-8,.cls-9{stroke-linecap:round;}.cls-8,.cls-9{stroke-width:2.64px;}.cls-9{stroke-dasharray:0 17.14;}.cls-10{stroke-width:3px;}.cls-12{letter-spacing:0.22em;}.cls-13{letter-spacing:0.16em;}.cls-14{letter-spacing:0.29em;}.cls-15{letter-spacing:-0.07em;}.cls-16{letter-spacing:-0.06em;}.cls-17{letter-spacing:-0.05em;}.cls-18{letter-spacing:-0.04em;}.cls-19{letter-spacing:-0.06em;}.cls-20{letter-spacing:-0.06em;}.cls-21{letter-spacing:-0.07em;}.cls-22{letter-spacing:-0.04em;}.cls-23{letter-spacing:-0.03em;}.cls-24{letter-spacing:-0.02em;}.cls-25{letter-spacing:-0.07em;}.cls-26{letter-spacing:-0.07em;}.cls-28,.cls-32{letter-spacing:0.25em;}.cls-29{stroke:#718cc7;}.cls-29,.cls-33{stroke-width:5.27px;}.cls-30,.cls-31,.cls-34{stroke-width:2.64px;}.cls-31{stroke-dasharray:0 17.14;}.cls-34{stroke:#ee87b4;}.cls-35{stroke-width:3px;}.cls-36{clip-path:url(#clip-path);}.cls-37{font-size:28.8px;}.cls-39{letter-spacing:-0.01em;}.cls-40{letter-spacing:0em;}.cls-41{letter-spacing:-0.02em;}.cls-42{letter-spacing:0.35em;}.cls-43{letter-spacing:-0.07em;}.cls-44{letter-spacing:-0.05em;}.cls-45{letter-spacing:-0.07em;}.cls-46{letter-spacing:-0.05em;}.cls-47{letter-spacing:-0.03em;}.cls-48{letter-spacing:-0.03em;}.cls-49{letter-spacing:-0.05em;}.cls-50{letter-spacing:-0.07em;}.cls-51{letter-spacing:-0.05em;}.cls-52{letter-spacing:-0.05em;}.cls-53{letter-spacing:-0.03em;}.cls-54{letter-spacing:-0.01em;}.cls-55{letter-spacing:-0.04em;}.cls-56{letter-spacing:-0.08em;}.cls-57{letter-spacing:-0.04em;}.cls-58{letter-spacing:-0.05em;}.cls-59{letter-spacing:-0.11em;}.cls-60{letter-spacing:-0.06em;}.cls-61{letter-spacing:-0.06em;}.cls-62{letter-spacing:-0.07em;}.cls-63{letter-spacing:-0.07em;}.cls-64{stroke-width:4px;}</style><clipPath id="clip-path"><path id="_クリッピングパス_" data-name="&lt;クリッピングパス&gt;" class="cls-1" d="M650.94,667.76a15,15,0,0,0-15,15h0a15,15,0,0,0,15,15h21v-30Z"/></clipPath></defs><title>3229_7150</title><rect id="_長方形_" data-name="&lt;長方形&gt;" class="cls-2" x="154.61" y="1023" width="180" height="50"/><rect id="_長方形_2" data-name="&lt;長方形&gt;" class="cls-3" x="154.61" y="1023" width="180" height="50"/><rect id="_長方形_3" data-name="&lt;長方形&gt;" class="cls-4" x="0.24" y="950.5" width="240" height="60"/><text class="cls-5" transform="translate(75.24 973.98)">十六本松線<tspan class="cls-6"><tspan x="-45" y="16.32">(local bus)Jyuroppommatsu line</tspan></tspan></text><line class="cls-7" x1="60.24" y1="998.5" x2="180.24" y2="998.5"/><line class="cls-8" x1="60.24" y1="998.5" x2="60.24" y2="998.5"/><line class="cls-9" x1="77.39" y1="998.5" x2="171.67" y2="998.5"/><line class="cls-8" x1="180.24" y1="998.5" x2="180.24" y2="998.5"/><line class="cls-10" x1="120.24" y1="1010.5" x2="99.03" y2="1037.69"/><path class="cls-11" d="M87.89,1052c2.75-8.66,5-20.31,4.53-29l8.07,12.85,14.42,4.7C106.37,1042.17,95.62,1047.19,87.89,1052Z"/><path class="cls-4" d="M95.11,886.33h-189v30h189a15,15,0,0,0,15-15h0A15,15,0,0,0,95.11,886.33Z"/><text class="cls-12" transform="translate(-64.28 908.17)">八<tspan class="cls-13" x="21.89" y="0">丁</tspan><tspan class="cls-14" x="42.71" y="0">目</tspan><tspan class="cls-15" x="65.12" y="-2.28">(</tspan><tspan class="cls-16" x="70.24" y="-2.28">H</tspan><tspan class="cls-17" x="75.55" y="-2.28">a</tspan><tspan class="cls-18" x="80.92" y="-2.28">m</tspan><tspan class="cls-19" x="86.42" y="-2.28">a</tspan><tspan class="cls-20" x="91.73" y="-2.28">s</tspan><tspan class="cls-21" x="97.05" y="-2.28">a</tspan><tspan class="cls-22" x="102.21" y="-2.28">k</tspan><tspan class="cls-23" x="107.73" y="-2.28">a</tspan><tspan class="cls-24" x="113.34" y="-2.28"> </tspan><tspan class="cls-25" x="119.06" y="-2.28">8</tspan><tspan class="cls-26" x="124.23" y="-2.28">)</tspan></text><line class="cls-4" x1="-140.91" y1="960.23" x2="2.11" y2="916.33"/><rect id="_長方形_4" data-name="&lt;長方形&gt;" class="cls-27" x="708.15" y="872.35" width="240" height="60"/><text class="cls-5" transform="translate(767.39 895.82)">岩井<tspan class="cls-28" x="36" y="0">線(</tspan><tspan x="72" y="0">普</tspan><tspan class="cls-28" x="90" y="0">通</tspan><tspan x="112.5" y="0">)</tspan><tspan class="cls-6"><tspan x="-20.25" y="16.32">(local bus)Iwai line(local)</tspan></tspan></text><line class="cls-29" x1="768.15" y1="920.35" x2="888.15" y2="920.35"/><line class="cls-30" x1="768.15" y1="920.35" x2="768.15" y2="920.35"/><line class="cls-31" x1="785.29" y1="920.35" x2="879.57" y2="920.35"/><line class="cls-30" x1="888.15" y1="920.35" x2="888.15" y2="920.35"/><rect id="_長方形_5" data-name="&lt;長方形&gt;" class="cls-27" x="377.38" y="703.31" width="240" height="60"/><text class="cls-5" transform="translate(435.12 726.78)">砂丘<tspan class="cls-28" x="36" y="0">線</tspan><tspan class="cls-32" x="58.5" y="-2.28">(</tspan><tspan class="cls-6" x="67.5" y="-2.28">共同運</tspan><tspan class="cls-32" x="103.5" y="-2.28">行</tspan><tspan class="cls-6" x="118.5" y="-2.28">)</tspan><tspan class="cls-6"><tspan x="-54.75" y="16.32">(local bus)Sakyu line(Nikko + hinomaru)</tspan></tspan></text><line class="cls-33" x1="437.38" y1="751.31" x2="557.38" y2="751.31"/><line class="cls-34" x1="437.38" y1="751.31" x2="557.38" y2="751.31"/><line class="cls-30" x1="437.38" y1="751.31" x2="437.38" y2="751.31"/><line class="cls-31" x1="454.52" y1="751.31" x2="548.81" y2="751.31"/><line class="cls-30" x1="557.38" y1="751.31" x2="557.38" y2="751.31"/><line class="cls-35" x1="828.15" y1="872.35" x2="805.02" y2="830.29"/><path class="cls-11" d="M796.3,814.42c6.87,6,16.69,12.61,24.85,15.6l-15,2.35-10,11.4C798,835.27,797.64,823.41,796.3,814.42Z"/><line class="cls-35" x1="497.38" y1="763.31" x2="615.06" y2="837.81"/><path class="cls-11" d="M630.35,847.5c-8.89-1.89-20.7-3-29.29-1.66l12-9.3,3.27-14.81C618.8,830.06,624.84,840.27,630.35,847.5Z"/><path id="_クリッピングパス_2" data-name="&lt;クリッピングパス&gt;" class="cls-11" d="M650.94,667.76a15,15,0,0,0-15,15h0a15,15,0,0,0,15,15h21v-30Z"/><g class="cls-36"><text class="cls-37" transform="translate(642.53 692.34)">20</text></g><path id="_クリッピングパス_3" data-name="&lt;クリッピングパス&gt;" class="cls-38" d="M650.94,667.76a15,15,0,0,0-15,15h0a15,15,0,0,0,15,15h21v-30Z"/><path class="cls-27" d="M860.94,667.76h-189v30h189a15,15,0,0,0,15-15h0A15,15,0,0,0,860.94,667.76Z"/><text class="cls-39" transform="translate(683.52 689.6)">鳥<tspan class="cls-40" x="17.75" y="0">取</tspan><tspan class="cls-41" x="35.78" y="0">砂</tspan><tspan class="cls-42" x="53.5" y="0">丘</tspan><tspan class="cls-43" x="76.94" y="-2.28">(</tspan><tspan class="cls-44" x="82.14" y="-2.28">S</tspan><tspan class="cls-45" x="87.52" y="-2.28">a</tspan><tspan class="cls-46" x="92.73" y="-2.28">n</tspan><tspan class="cls-47" x="98.12" y="-2.28">d</tspan><tspan class="cls-48" x="103.71" y="-2.28"> </tspan><tspan class="cls-49" x="109.34" y="-2.28">D</tspan><tspan class="cls-50" x="114.79" y="-2.28">u</tspan><tspan class="cls-51" x="119.96" y="-2.28">n</tspan><tspan class="cls-52" x="125.33" y="-2.28">e</tspan><tspan class="cls-53" x="130.75" y="-2.28">s</tspan><tspan class="cls-54" x="136.41" y="-2.28"> </tspan><tspan class="cls-55" x="142.24" y="-2.28">T</tspan><tspan class="cls-56" x="147.77" y="-2.28">e</tspan><tspan class="cls-57" x="152.83" y="-2.28">r</tspan><tspan class="cls-58" x="158.36" y="-2.28">m</tspan><tspan class="cls-59" x="163.78" y="-2.28">i</tspan><tspan class="cls-60" x="168.5" y="-2.28">n</tspan><tspan class="cls-61" x="173.83" y="-2.28">a</tspan><tspan class="cls-62" x="179.09" y="-2.28">l</tspan><tspan class="cls-63" x="184.26" y="-2.28">)</tspan></text><line class="cls-27" x1="646" y1="729" x2="767.94" y2="697.76"/><circle class="cls-64" cx="646" cy="729" r="10"/><rect class="cls-65" x="-6055" y="-2044" width="11720" height="11720"/></svg>