<svg id="_15zoom" data-name="15zoom" xmlns="http://www.w3.org/2000/svg" xmlns:xlink="http://www.w3.org/1999/xlink" viewBox="0 0 1024 1024"><defs><style>.cls-1,.cls-12,.cls-16,.cls-3,.cls-4,.cls-43,.cls-45,.cls-68,.cls-69,.cls-76{fill:#fff;}.cls-1,.cls-11,.cls-12,.cls-16,.cls-17,.cls-2,.cls-20,.cls-21,.cls-3,.cls-43,.cls-46,.cls-68,.cls-69,.cls-7,.cls-71,.cls-72,.cls-75,.cls-76,.cls-79,.cls-8,.cls-80,.cls-81{stroke:#231815;}.cls-1,.cls-11,.cls-12,.cls-16,.cls-17,.cls-18,.cls-19,.cls-2,.cls-20,.cls-21,.cls-3,.cls-43,.cls-46,.cls-68,.cls-69,.cls-7,.cls-70,.cls-71,.cls-72,.cls-75,.cls-76,.cls-78,.cls-79,.cls-8,.cls-80,.cls-81{stroke-miterlimit:10;}.cls-1,.cls-7{stroke-width:2px;}.cls-13,.cls-2,.cls-47,.cls-6,.cls-9{fill:#231815;}.cls-16,.cls-2,.cls-46{stroke-width:2.4px;}.cls-3,.cls-75{stroke-width:2.11px;}.cls-5{clip-path:url(#clip-path);}.cls-47,.cls-6{font-size:15px;}.cls-13,.cls-45,.cls-47,.cls-6{font-family:NotoSansMonoCJKjp-Regular-90ms-RKSJ-H, Noto Sans Mono CJK JP;}.cls-11,.cls-17,.cls-18,.cls-19,.cls-20,.cls-21,.cls-46,.cls-7,.cls-70,.cls-71,.cls-72,.cls-75,.cls-78,.cls-79,.cls-8,.cls-80,.cls-81,.cls-82{fill:none;}.cls-8{stroke-width:3px;}.cls-10{clip-path:url(#clip-path-2);}.cls-11,.cls-12{stroke-width:2.4px;}.cls-13{font-size:18px;}.cls-14{letter-spacing:0.33em;}.cls-15,.cls-23,.cls-24,.cls-25,.cls-26,.cls-27,.cls-28,.cls-29,.cls-30,.cls-31,.cls-32,.cls-33,.cls-34,.cls-35,.cls-36,.cls-37,.cls-38,.cls-39,.cls-40,.cls-41,.cls-42,.cls-55,.cls-56,.cls-57,.cls-58,.cls-59,.cls-60,.cls-61,.cls-62,.cls-63,.cls-64,.cls-65,.cls-66,.cls-67{font-size:12px;}.cls-17,.cls-18,.cls-19,.cls-20,.cls-70,.cls-71,.cls-78,.cls-79,.cls-80{stroke-linecap:round;}.cls-17,.cls-19{stroke-width:5.27px;}.cls-18{stroke:#ca2e34;}.cls-18,.cls-20{stroke-width:2.64px;}.cls-19{stroke:#ba79b1;}.cls-20,.cls-71{stroke-dasharray:0 17.58;}.cls-21{stroke-width:3px;}.cls-22{letter-spacing:0.39em;}.cls-23{letter-spacing:-0.08em;}.cls-24{letter-spacing:-0.07em;}.cls-25{letter-spacing:-0.05em;}.cls-26{letter-spacing:-0.06em;}.cls-27{letter-spacing:-0.03em;}.cls-28{letter-spacing:-0.05em;}.cls-29{letter-spacing:-0.05em;}.cls-30{letter-spacing:-0.05em;}.cls-31{letter-spacing:-0.09em;}.cls-32{letter-spacing:-0.06em;}.cls-33{letter-spacing:-0.03em;}.cls-34{letter-spacing:-0.03em;}.cls-35{letter-spacing:-0.05em;}.cls-36{letter-spacing:-0.05em;}.cls-37{letter-spacing:-0.06em;}.cls-38{letter-spacing:-0.06em;}.cls-39{letter-spacing:-0.1em;}.cls-40{letter-spacing:-0.05em;}.cls-41{letter-spacing:-0.07em;}.cls-42{letter-spacing:-0.07em;}.cls-43{stroke-width:4px;}.cls-44{clip-path:url(#clip-path-3);}.cls-45{font-size:28.8px;}.cls-47{letter-spacing:-0.09em;}.cls-48{letter-spacing:-0.14em;}.cls-49{letter-spacing:-0.21em;}.cls-50{letter-spacing:-0.2em;}.cls-51{letter-spacing:-0.15em;}.cls-52{letter-spacing:-0.21em;}.cls-53{letter-spacing:-0.21em;}.cls-54{letter-spacing:0.01em;}.cls-55{letter-spacing:-0.04em;}.cls-56{letter-spacing:-0.06em;}.cls-57{letter-spacing:-0.05em;}.cls-58{letter-spacing:-0.02em;}.cls-59{letter-spacing:-0.03em;}.cls-60{letter-spacing:-0.06em;}.cls-61{letter-spacing:-0.02em;}.cls-62{letter-spacing:0em;}.cls-63{letter-spacing:-0.01em;}.cls-64{letter-spacing:-0.04em;}.cls-65{letter-spacing:-0.02em;}.cls-66{letter-spacing:-0.03em;}.cls-67{letter-spacing:-0.03em;}.cls-68{stroke-width:4px;}.cls-69{stroke-width:2.4px;}.cls-70{stroke:#59c3e1;stroke-width:5.27px;}.cls-71{stroke-width:2.64px;}.cls-72{stroke-width:3px;}.cls-73{clip-path:url(#clip-path-4);}.cls-74{letter-spacing:0.5em;}.cls-76{stroke-width:2.4px;}.cls-77{letter-spacing:0.25em;}.cls-78{stroke:#a97443;stroke-width:5.27px;}.cls-79,.cls-80{stroke-width:2.64px;}.cls-80{stroke-dasharray:0 17.14;}.cls-81{stroke-width:3px;}</style><clipPath id="clip-path"><rect id="_長方形_" data-name="&lt;長方形&gt;" class="cls-1" x="25.61" y="408.41" width="180" height="50"/></clipPath><clipPath id="clip-path-2"><rect id="_長方形_2" data-name="&lt;長方形&gt;" class="cls-1" x="154.61" y="-1" width="180" height="50"/></clipPath><clipPath id="clip-path-3"><path id="_クリッピングパス_" data-name="&lt;クリッピングパス&gt;" class="cls-2" d="M800.91,256.09a15,15,0,0,0-15,15h0a15,15,0,0,0,15,15h21v-30Z"/></clipPath><clipPath id="clip-path-4"><rect id="_長方形_3" data-name="&lt;長方形&gt;" class="cls-3" x="708" y="752.46" width="200" height="50"/></clipPath></defs><title>3230_7150</title><rect id="_長方形_4" data-name="&lt;長方形&gt;" class="cls-4" x="25.61" y="408.41" width="180" height="50"/><g class="cls-5"><text class="cls-6" transform="translate(93.11 427.15)">鹿野線<tspan x="-22.5" y="20">中央病院経由</tspan></text></g><rect id="_長方形_5" data-name="&lt;長方形&gt;" class="cls-7" x="25.61" y="408.41" width="180" height="50"/><line class="cls-8" x1="115.6" y1="458.41" x2="40.06" y2="499.19"/><path class="cls-9" d="M24.13,507.79c6-6.83,12.73-16.59,15.78-24.73l2.24,15,11.32,10.1C45,506.25,33.12,506.52,24.13,507.79Z"/><rect id="_長方形_6" data-name="&lt;長方形&gt;" class="cls-4" x="154.61" y="-1" width="180" height="50"/><g class="cls-10"><text class="cls-6" transform="translate(207.11 17.74)">十六本松線<tspan x="0" y="20">早朝ルート</tspan></text></g><rect id="_長方形_7" data-name="&lt;長方形&gt;" class="cls-7" x="154.61" y="-1" width="180" height="50"/><line class="cls-8" x1="244.6" y1="49" x2="133.57" y2="95.06"/><path class="cls-9" d="M116.84,102c6.66-6.18,14.36-15.21,18.22-23l.7,15.16L146,105.35C137.75,102.58,125.92,101.65,116.84,102Z"/><path id="_クリッピングパス_2" data-name="&lt;クリッピングパス&gt;" class="cls-9" d="M566.54,984.23a15,15,0,0,0-15,15h0a15,15,0,0,0,15,15h21v-30Z"/><path id="_クリッピングパス_3" data-name="&lt;クリッピングパス&gt;" class="cls-11" d="M566.54,984.23a15,15,0,0,0-15,15h0a15,15,0,0,0,15,15h21v-30Z"/><path class="cls-12" d="M776.54,984.23h-189v30h189a15,15,0,0,0,15-15h0A15,15,0,0,0,776.54,984.23Z"/><text class="cls-13" transform="translate(590.54 1006.07)">鳥取<tspan class="cls-14" x="36" y="0">駅</tspan><tspan class="cls-15" x="60" y="-2.28">(Tottori Sta. terminal)</tspan></text><line class="cls-12" x1="422.85" y1="1087.08" x2="683.54" y2="1014.23"/><rect id="_長方形_8" data-name="&lt;長方形&gt;" class="cls-16" x="9.23" y="832.46" width="240" height="60"/><text class="cls-13" transform="translate(75.15 855.93)">日ノ丸本社線<tspan class="cls-15"><tspan x="-39" y="16.32">(local bus)Hinomaru Honsha line</tspan></tspan></text><line class="cls-17" x1="69.23" y1="880.46" x2="189.23" y2="880.46"/><line class="cls-18" x1="69.23" y1="880.46" x2="189.23" y2="880.46"/><rect id="_長方形_9" data-name="&lt;長方形&gt;" class="cls-16" x="-39.43" y="625.33" width="240" height="60"/><text class="cls-13" transform="translate(26.49 648.8)">イオン北店線<tspan class="cls-15"><tspan x="-45" y="16.32">(local bus)AEON Tottori Kita line</tspan></tspan></text><line class="cls-17" x1="20.57" y1="673.33" x2="140.57" y2="673.33"/><line class="cls-18" x1="20.57" y1="673.33" x2="140.57" y2="673.33"/><rect id="_長方形_10" data-name="&lt;長方形&gt;" class="cls-16" x="421.72" y="395.17" width="240" height="60"/><text class="cls-13" transform="translate(496.63 418.65)">北園団地線<tspan class="cls-15"><tspan x="-45" y="16.32">(local bus)Kitazono line(loop)</tspan></tspan></text><line class="cls-19" x1="481.72" y1="443.17" x2="601.72" y2="443.17"/><line class="cls-20" x1="481.72" y1="443.17" x2="601.72" y2="443.17"/><line class="cls-21" x1="541.72" y1="395.17" x2="628.9" y2="326.43"/><path class="cls-9" d="M643.11,315.22c-4.73,7.76-9.69,18.54-11.3,27.08L627,327.91l-12.88-8C622.83,320.33,634.47,318,643.11,315.22Z"/><line class="cls-21" x1="80.57" y1="625.33" x2="119.36" y2="581.42"/><path class="cls-9" d="M131.34,567.86c-3.27,8.47-6.22,20-6.28,28.66l-7.28-13.31-14.1-5.58C112.3,576.5,123.34,572.15,131.34,567.86Z"/><line class="cls-21" x1="129.23" y1="892.46" x2="131.53" y2="1000.75"/><path class="cls-9" d="M131.91,1018.85c-3.34-8.45-9-18.9-14.81-25.33l14.38,4.85,14.15-5.46C140.06,999.58,134.89,1010.27,131.91,1018.85Z"/><path class="cls-16" d="M110.65,209.46h-189v30h189a15,15,0,0,0,15-15h0A15,15,0,0,0,110.65,209.46Z"/><text class="cls-13" transform="translate(-72.43 231.3)">中央病<tspan class="cls-22" x="54" y="0">院</tspan><tspan class="cls-23" x="78.15" y="-2.28">(</tspan><tspan class="cls-24" x="83.2" y="-2.28">P</tspan><tspan class="cls-25" x="88.32" y="-2.28">r</tspan><tspan class="cls-26" x="93.78" y="-2.28">e</tspan><tspan class="cls-27" x="99.04" y="-2.28">f</tspan><tspan class="cls-28" x="104.64" y="-2.28">e</tspan><tspan class="cls-29" x="110.01" y="-2.28">c</tspan><tspan class="cls-30" x="115.46" y="-2.28">t</tspan><tspan class="cls-31" x="120.88" y="-2.28">u</tspan><tspan class="cls-30" x="125.79" y="-2.28">r</tspan><tspan class="cls-32" x="131.21" y="-2.28">a</tspan><tspan class="cls-33" x="136.47" y="-2.28">l</tspan><tspan class="cls-34" x="142.16" y="-2.28"> </tspan><tspan class="cls-35" x="147.81" y="-2.28">H</tspan><tspan class="cls-36" x="153.19" y="-2.28">o</tspan><tspan class="cls-37" x="158.63" y="-2.28">s</tspan><tspan class="cls-38" x="163.88" y="-2.28">p</tspan><tspan class="cls-39" x="169.19" y="-2.28">i</tspan><tspan class="cls-40" x="174.02" y="-2.28">t</tspan><tspan class="cls-32" x="179.41" y="-2.28">a</tspan><tspan class="cls-41" x="184.67" y="-2.28">l</tspan><tspan class="cls-42" x="189.85" y="-2.28">)</tspan></text><line class="cls-16" x1="105.33" y1="287.67" x2="17.65" y2="239.46"/><circle class="cls-43" cx="105.33" cy="287.67" r="10"/><path id="_クリッピングパス_4" data-name="&lt;クリッピングパス&gt;" class="cls-9" d="M800.91,256.09a15,15,0,0,0-15,15h0a15,15,0,0,0,15,15h21v-30Z"/><g class="cls-44"><text class="cls-45" transform="translate(799.62 280.67)">7</text></g><path id="_クリッピングパス_5" data-name="&lt;クリッピングパス&gt;" class="cls-46" d="M800.91,256.09a15,15,0,0,0-15,15h0a15,15,0,0,0,15,15h21v-30Z"/><path class="cls-16" d="M1010.91,256.09h-189v30h189a15,15,0,0,0,15-15h0A15,15,0,0,0,1010.91,256.09Z"/><text class="cls-47" transform="translate(827.38 275.29)">北<tspan class="cls-48" x="13.63" y="0">園</tspan><tspan class="cls-49" x="26.51" y="0">ニ</tspan><tspan class="cls-50" x="38.36" y="0">ュ</tspan><tspan class="cls-51" x="50.41" y="0">ー</tspan><tspan class="cls-52" x="63.1" y="0">タ</tspan><tspan class="cls-53" x="74.93" y="0">ウ</tspan><tspan class="cls-54" x="86.82" y="0">ン</tspan><tspan class="cls-55" x="101.52" y="-1.14">K</tspan><tspan class="cls-39" x="107.01" y="-1.14">i</tspan><tspan class="cls-40" x="111.84" y="-1.14">t</tspan><tspan class="cls-32" x="117.23" y="-1.14">a</tspan><tspan class="cls-30" x="122.5" y="-1.14">z</tspan><tspan class="cls-56" x="127.91" y="-1.14">o</tspan><tspan class="cls-57" x="133.25" y="-1.14">n</tspan><tspan class="cls-58" x="138.65" y="-1.14">o</tspan><tspan class="cls-59" x="144.39" y="-1.14"> </tspan><tspan class="cls-60" x="150.02" y="-1.14">N</tspan><tspan class="cls-61" x="155.35" y="-1.14">e</tspan><tspan class="cls-62" x="161.06" y="-1.14">w</tspan><tspan class="cls-63" x="167.05" y="-1.14"> </tspan><tspan class="cls-64" x="172.88" y="-1.14">T</tspan><tspan class="cls-65" x="178.45" y="-1.14">o</tspan><tspan class="cls-66" x="184.18" y="-1.14">w</tspan><tspan class="cls-67" x="189.77" y="-1.14">n</tspan></text><line class="cls-16" x1="761.33" y1="361" x2="917.91" y2="286.09"/><circle class="cls-68" cx="761.33" cy="361" r="10"/><rect id="_長方形_11" data-name="&lt;長方形&gt;" class="cls-69" x="89.66" y="724.2" width="240" height="60"/><text class="cls-13" transform="translate(146.65 747.67)">大森中央病院線<tspan class="cls-15"><tspan x="-33" y="16.32">(local bus)Omori Chuo Byoin line</tspan></tspan></text><line class="cls-70" x1="149.66" y1="772.2" x2="269.66" y2="772.2"/><line class="cls-71" x1="149.66" y1="772.2" x2="269.66" y2="772.2"/><line class="cls-72" x1="120.24" y1="-13.5" x2="99.03" y2="13.69"/><path class="cls-9" d="M87.89,28c2.75-8.66,5-20.31,4.53-29l8.07,12.85,14.42,4.7C106.37,18.17,95.62,23.19,87.89,28Z"/><line class="cls-72" x1="209.66" y1="784.2" x2="353.23" y2="822.2"/><path class="cls-9" d="M370.73,826.83c-9,.88-20.64,3.39-28.44,7.23l8.64-12.47-1.34-15.11C354.47,813.68,363.3,821.6,370.73,826.83Z"/><rect id="_長方形_12" data-name="&lt;長方形&gt;" class="cls-4" x="708" y="752.46" width="200" height="50"/><g class="cls-73"><text class="cls-6" transform="translate(759.63 771.2)">“市内回り<tspan class="cls-74" x="67.13" y="0">”</tspan><tspan x="81.75" y="0">は</tspan><tspan x="-11.63" y="20">県庁日赤前を経由</tspan></text></g><rect id="_長方形_13" data-name="&lt;長方形&gt;" class="cls-75" x="708" y="752.46" width="200" height="50"/><rect id="_長方形_14" data-name="&lt;長方形&gt;" class="cls-76" x="828.18" y="101.84" width="240" height="60"/><text class="cls-13" transform="translate(887.42 125.31)">岩井<tspan class="cls-77" x="36" y="0">線(</tspan><tspan x="72" y="0">快</tspan><tspan class="cls-77" x="90" y="0">速</tspan><tspan x="112.5" y="0">)</tspan><tspan class="cls-15"><tspan x="-20.25" y="16.32">(local bus)Iwai line(Rapid)</tspan></tspan></text><line class="cls-78" x1="888.18" y1="149.84" x2="1008.18" y2="149.84"/><line class="cls-79" x1="888.18" y1="149.84" x2="888.18" y2="149.84"/><line class="cls-80" x1="905.32" y1="149.84" x2="999.61" y2="149.84"/><line class="cls-79" x1="1008.18" y1="149.84" x2="1008.18" y2="149.84"/><line class="cls-81" x1="948.18" y1="101.84" x2="879.58" y2="51.54"/><path class="cls-9" d="M865,40.84c8.74,2.49,20.45,4.39,29.11,3.65L881.5,53,877.22,67.5C875.32,59,870,48.42,865,40.84Z"/><rect class="cls-82" x="-6055" y="-3068" width="11720" height="11720"/></svg>