<svg id="_15zoom" data-name="15zoom" xmlns="http://www.w3.org/2000/svg" xmlns:xlink="http://www.w3.org/1999/xlink" viewBox="0 0 1024 1024"><defs><style>.cls-1,.cls-17,.cls-21,.cls-5{fill:#231815;}.cls-1,.cls-12,.cls-13,.cls-15,.cls-16,.cls-2,.cls-20,.cls-25,.cls-3,.cls-37,.cls-38,.cls-4,.cls-40,.cls-8{stroke:#231815;}.cls-1,.cls-10,.cls-11,.cls-12,.cls-13,.cls-14,.cls-15,.cls-16,.cls-2,.cls-20,.cls-25,.cls-3,.cls-37,.cls-38,.cls-4,.cls-40,.cls-8,.cls-9{stroke-miterlimit:10;}.cls-1,.cls-20,.cls-4{stroke-width:2.4px;}.cls-19,.cls-2,.cls-25,.cls-3,.cls-35,.cls-4{fill:#fff;}.cls-2,.cls-37{stroke-width:2px;}.cls-3,.cls-40{stroke-width:2.11px;}.cls-5{font-size:18px;}.cls-19,.cls-21,.cls-5{font-family:NotoSansMonoCJKjp-Regular-90ms-RKSJ-H, Noto Sans Mono CJK JP;}.cls-6{letter-spacing:0.25em;}.cls-7{font-size:12px;}.cls-10,.cls-11,.cls-12,.cls-13,.cls-14,.cls-15,.cls-16,.cls-20,.cls-37,.cls-38,.cls-40,.cls-41,.cls-8,.cls-9{fill:none;}.cls-10,.cls-11,.cls-12,.cls-13,.cls-14,.cls-15,.cls-8,.cls-9{stroke-linecap:round;}.cls-11,.cls-14,.cls-8{stroke-width:5.27px;}.cls-9{stroke:#a73766;}.cls-10,.cls-12,.cls-13,.cls-15,.cls-9{stroke-width:2.64px;}.cls-10{stroke:#006b4b;}.cls-11{stroke:#718cc7;}.cls-13{stroke-dasharray:0 17.14;}.cls-14{stroke:#ba79b1;}.cls-15{stroke-dasharray:0 17.58;}.cls-16{stroke-width:3px;}.cls-18{clip-path:url(#clip-path);}.cls-19{font-size:28.8px;}.cls-21{font-size:15px;}.cls-22{letter-spacing:0.12em;}.cls-23{letter-spacing:0.5em;}.cls-24{font-size:9px;}.cls-25{stroke-width:4px;}.cls-26{clip-path:url(#clip-path-2);}.cls-27{letter-spacing:-0.12em;}.cls-28{letter-spacing:-0.13em;}.cls-29{letter-spacing:-0.06em;}.cls-30{letter-spacing:-0.07em;}.cls-31{letter-spacing:-0.1em;}.cls-32{letter-spacing:-0.05em;}.cls-33{letter-spacing:-0.09em;}.cls-34{letter-spacing:-0.05em;}.cls-36{clip-path:url(#clip-path-3);}.cls-38{stroke-width:3px;}.cls-39{clip-path:url(#clip-path-4);}</style><clipPath id="clip-path"><path id="_クリッピングパス_" data-name="&lt;クリッピングパス&gt;" class="cls-1" d="M196.65,293.84a15,15,0,0,0-15,15h0a15,15,0,0,0,15,15h21v-30Z"/></clipPath><clipPath id="clip-path-2"><path id="_クリッピングパス_2" data-name="&lt;クリッピングパス&gt;" class="cls-1" d="M840.08,658.4a15,15,0,0,0-15,15h0a15,15,0,0,0,15,15h21v-30Z"/></clipPath><clipPath id="clip-path-3"><rect id="_長方形_" data-name="&lt;長方形&gt;" class="cls-2" x="815.93" y="376.78" width="180" height="50"/></clipPath><clipPath id="clip-path-4"><rect id="_長方形_2" data-name="&lt;長方形&gt;" class="cls-3" x="299.47" y="645.49" width="200" height="50"/></clipPath></defs><title>3232_7150</title><rect id="_長方形_3" data-name="&lt;長方形&gt;" class="cls-4" x="48.67" y="638.45" width="240" height="60"/><text class="cls-5" transform="translate(98.92 661.93)">南部幹<tspan class="cls-6" x="54" y="0">線(</tspan><tspan x="90" y="0">快</tspan><tspan class="cls-6" x="108" y="0">速</tspan><tspan x="130.5" y="0">)</tspan><tspan class="cls-7"><tspan x="-38.25" y="16.32">(local bus)South Shuttle line(Rapid)</tspan></tspan></text><line class="cls-8" x1="108.67" y1="686.45" x2="228.67" y2="686.45"/><line class="cls-9" x1="108.67" y1="686.45" x2="228.67" y2="686.45"/><rect id="_長方形_4" data-name="&lt;長方形&gt;" class="cls-4" x="48.67" y="547.96" width="240" height="60"/><text class="cls-5" transform="translate(98.92 571.43)">南部幹<tspan class="cls-6" x="54" y="0">線(</tspan><tspan x="90" y="0">普</tspan><tspan class="cls-6" x="108" y="0">通</tspan><tspan x="130.5" y="0">)</tspan><tspan class="cls-7"><tspan x="-38.25" y="16.32">(local bus)South Shuttle line(local)</tspan></tspan></text><line class="cls-8" x1="108.67" y1="595.96" x2="228.67" y2="595.96"/><line class="cls-10" x1="108.67" y1="595.96" x2="228.67" y2="595.96"/><rect id="_長方形_5" data-name="&lt;長方形&gt;" class="cls-4" x="496.86" y="-29" width="240" height="60"/><text class="cls-5" transform="translate(544.86 -5.53)">津ノ井倉田循環線<tspan class="cls-7"><tspan x="-33" y="16.32">(local bus)Tsunoi Kurata line(loop)</tspan></tspan></text><line class="cls-11" x1="556.86" y1="19" x2="676.86" y2="19"/><line class="cls-12" x1="556.86" y1="19" x2="556.86" y2="19"/><line class="cls-13" x1="574.01" y1="19" x2="668.29" y2="19"/><line class="cls-12" x1="676.86" y1="19" x2="676.86" y2="19"/><rect id="_長方形_6" data-name="&lt;長方形&gt;" class="cls-4" x="306.66" y="189.01" width="240" height="60"/><text class="cls-5" transform="translate(381.66 212.48)">倉田八坂線<tspan class="cls-7"><tspan x="-45" y="16.32">(local bus)Kurata Hassaka line</tspan></tspan></text><line class="cls-14" x1="366.66" y1="237.01" x2="486.66" y2="237.01"/><line class="cls-15" x1="366.66" y1="237.01" x2="486.66" y2="237.01"/><line class="cls-16" x1="616.86" y1="31" x2="655.81" y2="69.2"/><path class="cls-17" d="M668.73,81.87c-8.29-3.7-19.62-7.26-28.29-7.77l13.67-6.57,6.3-13.79C661.09,62.4,664.86,73.65,668.73,81.87Z"/><line class="cls-16" x1="426.66" y1="189.01" x2="321.7" y2="137.91"/><path class="cls-17" d="M305.42,130c9,.88,20.91.66,29.3-1.61L323.83,139,322.23,154C318.84,146,311.7,136.56,305.42,130Z"/><line class="cls-16" x1="168.67" y1="698.45" x2="-61.12" y2="795.4"/><line class="cls-16" x1="168.67" y1="547.96" x2="88.32" y2="503.13"/><path class="cls-17" d="M72.51,494.31c9,1.39,20.83,1.83,29.34,0l-11.46,10-2.44,15C85,511.08,78.41,501.22,72.51,494.31Z"/><path id="_クリッピングパス_3" data-name="&lt;クリッピングパス&gt;" class="cls-17" d="M196.65,293.84a15,15,0,0,0-15,15h0a15,15,0,0,0,15,15h21v-30Z"/><g class="cls-18"><text class="cls-19" transform="translate(188.25 318.42)">43</text></g><path id="_クリッピングパス_4" data-name="&lt;クリッピングパス&gt;" class="cls-20" d="M196.65,293.84a15,15,0,0,0-15,15h0a15,15,0,0,0,15,15h21v-30Z"/><path class="cls-4" d="M406.65,293.84h-189v30h189a15,15,0,0,0,15-15h0A15,15,0,0,0,406.65,293.84Z"/><text class="cls-21" transform="translate(223.65 313.04)"><tspan class="cls-22">倉田保育所</tspan><tspan class="cls-23" x="84" y="0">前</tspan><tspan class="cls-24" x="106.5" y="-2.28">(Kurata Terminal)</tspan></text><line class="cls-4" x1="254" y1="264" x2="313.65" y2="293.84"/><circle class="cls-25" cx="258" cy="260" r="10"/><path id="_クリッピングパス_5" data-name="&lt;クリッピングパス&gt;" class="cls-17" d="M840.08,658.4a15,15,0,0,0-15,15h0a15,15,0,0,0,15,15h21v-30Z"/><g class="cls-26"><text class="cls-19" transform="translate(831.68 682.98)">50</text></g><path id="_クリッピングパス_6" data-name="&lt;クリッピングパス&gt;" class="cls-20" d="M840.08,658.4a15,15,0,0,0-15,15h0a15,15,0,0,0,15,15h21v-30Z"/><path class="cls-4" d="M1050.08,658.4h-189v30h189a15,15,0,0,0,15-15h0A15,15,0,0,0,1050.08,658.4Z"/><text class="cls-21" transform="translate(866.62 677.6)"><tspan class="cls-27">ポ</tspan><tspan class="cls-28" x="13.23" y="0">リ</tspan><tspan class="cls-29" x="26.26" y="0">テ</tspan><tspan class="cls-30" x="40.31" y="0">ク</tspan><tspan class="cls-31" x="54.33" y="0">セ</tspan><tspan class="cls-32" x="67.85" y="0">ン</tspan><tspan class="cls-33" x="82.03" y="0">タ</tspan><tspan class="cls-34" x="95.73" y="0">ー</tspan><tspan class="cls-24" x="114.46" y="-2.28">Polytechnic Center</tspan></text><line class="cls-4" x1="1118" y1="585" x2="957.08" y2="658.4"/><rect id="_長方形_7" data-name="&lt;長方形&gt;" class="cls-35" x="815.93" y="376.78" width="180" height="50"/><g class="cls-36"><text class="cls-21" transform="translate(875.93 395.52)">若葉台線<tspan x="-37.5" y="20">津ノ井バイパス経由</tspan></text></g><rect id="_長方形_8" data-name="&lt;長方形&gt;" class="cls-37" x="815.93" y="376.78" width="180" height="50"/><line class="cls-38" x1="905.93" y1="376.78" x2="952.89" y2="318.18"/><path class="cls-17" d="M964.22,304.06c-2.87,8.62-5.27,20.24-4.91,28.93L951.41,320l-14.36-4.9C945.6,313.6,956.42,308.73,964.22,304.06Z"/><rect id="_長方形_9" data-name="&lt;長方形&gt;" class="cls-35" x="299.47" y="645.49" width="200" height="50"/><g class="cls-39"><text class="cls-21" transform="translate(301.97 664.23)">鳥取<tspan class="cls-6" x="30" y="0">駅-</tspan><tspan x="60" y="0">河原町総合支所前は</tspan><tspan x="22.5" y="20">待居を除く全てに停車</tspan></text></g><rect id="_長方形_10" data-name="&lt;長方形&gt;" class="cls-40" x="299.47" y="645.49" width="200" height="50"/><rect class="cls-41" x="-6055" y="-5116" width="11720" height="11720"/></svg>