<svg id="_15zoom" data-name="15zoom" xmlns="http://www.w3.org/2000/svg" xmlns:xlink="http://www.w3.org/1999/xlink" viewBox="0 0 1024 1024"><defs><style>.cls-1,.cls-16,.cls-2,.cls-27{fill:#fff;}.cls-1,.cls-12,.cls-16,.cls-2,.cls-31,.cls-5,.cls-7{stroke:#231815;}.cls-1,.cls-12,.cls-16,.cls-2,.cls-31,.cls-33,.cls-34,.cls-35,.cls-5,.cls-6,.cls-7{stroke-miterlimit:10;}.cls-1,.cls-31{stroke-width:2px;}.cls-12,.cls-2{stroke-width:2.4px;}.cls-3{font-size:18px;}.cls-17,.cls-29,.cls-3,.cls-8{fill:#231815;}.cls-17,.cls-29,.cls-3{font-family:NotoSansMonoCJKjp-Regular-90ms-RKSJ-H, Noto Sans Mono CJK JP;}.cls-11,.cls-15,.cls-4{font-size:12px;}.cls-12,.cls-31,.cls-33,.cls-34,.cls-35,.cls-36,.cls-5,.cls-6,.cls-7{fill:none;}.cls-5,.cls-6{stroke-linecap:round;}.cls-5{stroke-width:5.27px;}.cls-6{stroke:#ebca1b;stroke-width:2.64px;}.cls-7{stroke-width:3px;}.cls-9{letter-spacing:1.07em;}.cls-10{letter-spacing:0.57em;}.cls-11{letter-spacing:0.1em;}.cls-13{letter-spacing:1.17em;}.cls-14{letter-spacing:0.67em;}.cls-15{letter-spacing:0.25em;}.cls-16{stroke-width:4px;}.cls-17{font-size:15px;}.cls-18{letter-spacing:-0.04em;}.cls-19{letter-spacing:0.03em;}.cls-20{letter-spacing:0.03em;}.cls-21{letter-spacing:0.02em;}.cls-22{letter-spacing:-0.01em;}.cls-23{letter-spacing:-0.02em;}.cls-24{letter-spacing:-0.03em;}.cls-25{letter-spacing:0.26em;}.cls-26{font-size:9px;}.cls-28{clip-path:url(#clip-path);}.cls-29{font-size:15px;}.cls-30{letter-spacing:0.25em;}.cls-32{opacity:0.5;}.cls-33,.cls-34,.cls-35{stroke:#e60012;stroke-width:20px;}.cls-33{stroke-dasharray:10.27 10.27;}.cls-35{stroke-dasharray:9.76 9.76;}</style><clipPath id="clip-path"><rect id="_長方形_" data-name="&lt;長方形&gt;" class="cls-1" x="381.23" y="-35.72" width="180" height="50"/></clipPath></defs><title>3235_7150</title><rect id="_長方形_2" data-name="&lt;長方形&gt;" class="cls-2" x="115.8" y="-47.57" width="240" height="60"/><text class="cls-3" transform="translate(190.8 -24.1)">江波赤波線<tspan class="cls-4"><tspan x="-42" y="16.32">(local bus)Enami Aganami line</tspan></tspan></text><line class="cls-5" x1="175.8" y1="0.43" x2="295.8" y2="0.43"/><line class="cls-6" x1="175.8" y1="0.43" x2="295.8" y2="0.43"/><line class="cls-7" x1="235.8" y1="12.43" x2="233.28" y2="37.22"/><path class="cls-8" d="M231.44,55.23c-2.28-8.79-6.57-19.86-11.59-26.95l13.67,6.58,14.71-3.69C241.88,37.11,235.45,47.08,231.44,55.23Z"/><path class="cls-2" d="M74.86,408.34h-189v30h189a15,15,0,0,0,15-15h0A15,15,0,0,0,74.86,408.34Z"/><text class="cls-3" transform="translate(-84.14 430.18)"><tspan class="cls-9">用</tspan><tspan class="cls-10" x="37.2" y="0">瀬</tspan><tspan class="cls-11" x="65.4" y="-2.28">Mochigas</tspan><tspan class="cls-4" x="123" y="-2.28">e</tspan></text><path id="_クリッピングパス_" data-name="&lt;クリッピングパス&gt;" class="cls-8" d="M230.35,158.91a15,15,0,0,0-15,15h0a15,15,0,0,0,15,15h21v-30Z"/><path id="_クリッピングパス_2" data-name="&lt;クリッピングパス&gt;" class="cls-12" d="M230.35,158.91a15,15,0,0,0-15,15h0a15,15,0,0,0,15,15h21v-30Z"/><path class="cls-2" d="M440.35,158.91h-189v30h189a15,15,0,0,0,15-15h0A15,15,0,0,0,440.35,158.91Z"/><text class="cls-3" transform="translate(281.35 180.75)"><tspan class="cls-13">赤</tspan><tspan class="cls-14" x="39" y="0">波</tspan><tspan class="cls-15" x="69" y="-2.28">Aganam</tspan><tspan class="cls-4" x="123" y="-2.28">i</tspan></text><line class="cls-2" x1="388" y1="118" x2="347.35" y2="158.91"/><circle class="cls-16" cx="388" cy="118" r="10"/><path class="cls-2" d="M26.62,577.16h-189v30h189a15,15,0,0,0,15-15h0A15,15,0,0,0,26.62,577.16Z"/><text class="cls-17" transform="translate(-156.81 596.36)"><tspan class="cls-18">用</tspan><tspan class="cls-19" x="14.38" y="0">瀬</tspan><tspan class="cls-20" x="29.79" y="0">小</tspan><tspan class="cls-21" x="45.24" y="0">運</tspan><tspan class="cls-22" x="60.47" y="0">動</tspan><tspan class="cls-23" x="75.32" y="0">公</tspan><tspan class="cls-24" x="90.03" y="0">園</tspan><tspan class="cls-25" x="104.59" y="0">前</tspan><tspan class="cls-26" x="123.43" y="-2.28">(Mochigase E.S.)</tspan></text><rect id="_長方形_3" data-name="&lt;長方形&gt;" class="cls-27" x="381.23" y="-35.72" width="180" height="50"/><g class="cls-28"><text class="cls-29" transform="translate(396.23 -16.98)">江波赤波線フリー乗降<tspan x="22.5" y="20">公民館</tspan><tspan class="cls-30" x="67.5" y="20">前-</tspan><tspan x="97.5" y="20">赤波</tspan></text></g><rect id="_長方形_4" data-name="&lt;長方形&gt;" class="cls-31" x="381.23" y="-35.72" width="180" height="50"/><g id="江波デマンド"><g class="cls-32"><polyline class="cls-33" points="-31.34 1.09 -29.05 2.05 -24.93 3.85 -22.95 4.75 7.49 19.77 25.15 28.28 27.66 29.5 43.27 38.07 59.88 46.79 70.63 52.54 83.01 58.9 84.97 59.97 92.98 64.08 103.99 68.81 112.91 71.25 122.22 73.46 125.16 73.77 138.1 75.13 166.23 76.59 177.83 75.98 190.01 73.21 196.94 70.61 213.04 63.19 230.47 55.66"/><polyline class="cls-34" points="235.11 53.47 239.62 51.3 243.13 54.85"/><polyline class="cls-35" points="251.97 58.96 252.68 59.29 252.97 59.43 263.54 63.38 270.11 62.96 284.35 62.08 300.02 61.26 311.39 60.78 322.71 60.93 326.47 61.93 329.58 62.75 340.38 66.89 341.37 67.49 351.77 73.83 353.87 75.91 358.47 82.82 362.57 88.98 363.4 90.52 364.07 91.94 364.74 93.32 365.45 94.27 366.24 95.29 367.15 96.52 368.37 97.5 369.83 98.64 370.14 98.89 370.85 99.44 374.91 101.88 376.22 102.6 380.93 105.21 383.68 107.09 383.91 107.42"/><polyline class="cls-34" points="386.19 111.7 386.62 112.63 387.18 114.3 387.75 116.44"/></g></g><rect class="cls-36" x="-6055" y="-8188" width="11720" height="11720"/></svg>