<svg id="routes" xmlns="http://www.w3.org/2000/svg" xmlns:xlink="http://www.w3.org/1999/xlink" viewBox="0 0 1024 1024"><defs><style>.cls-1,.cls-3,.cls-4,.cls-5,.cls-6,.cls-7,.cls-8{fill:none;}.cls-2{clip-path:url(#clip-path);}.cls-3,.cls-5,.cls-6,.cls-8{stroke:#231815;}.cls-3,.cls-4,.cls-5,.cls-6,.cls-7,.cls-8{stroke-linecap:round;stroke-miterlimit:10;}.cls-3,.cls-5,.cls-6,.cls-7{stroke-width:8.79px;}.cls-4{stroke:#00ada9;}.cls-4,.cls-8{stroke-width:4.4px;}.cls-5{stroke-dasharray:0 29.36;}.cls-6{stroke-dasharray:0 29.15;}.cls-7{stroke:#e7336e;}.cls-8{stroke-dasharray:0 29.3;}</style><clipPath id="clip-path"><rect class="cls-1" x="-8103" y="-5116" width="11720" height="11720"/></clipPath></defs><title>3232_7152</title><g class="cls-2"><g id="日ノ丸線"><g id="中河原"><path class="cls-3" d="M-1313.56-900.18l26.49,2.71,6.62.67c2.21.21,4.42.43,6.61.78l13.18,1.9c4.39.6,8.77,1.33,13.18,1.82l13.23,1.56c4.41.47,8.79,1.21,13.18,1.85s8.74,1.5,13.1,2.32l9.31,2.68c5.08,2,10.25,3.85,15.4,5.7l1,.35c.29.16.42.52.64.78l1.2,1.67c.75,1.14,1.29,2.41,2,3.6l3.79,7.29c1.54,2.26,3,4.56,4.63,6.77l3.73,3,2.84,1.16c3.44.82,6.92,1.44,10.38,2.18l4.85,1.86,5.75,3c2.68,1.8,5.39,3.54,8,5.38s5.25,3.75,7.91,5.56l15.91,11c5.29,3.7,10.62,7.33,15.85,11.1s10.12,8,15.36,11.76l15.84,11.12c5.3,3.66,10.51,7.47,15.9,11s10.56,7.4,16,10.94l8.11,5.28,4,2.64,4.16,2.47,14.54,10.29c4.84,3.43,9.68,6.87,14.59,10.21L-957-717.5c19.67,13.32,38.93,27.23,58.9,40.09h0l12.46,9.67,6,3.93,5.9,4,23.59,16.17,23.58,16.18L-803-611.36M-425.44-337l-1.6-2.77-6.23-10.76-12.16-24-9.74-18.9L-463-410l-.93-1.7-3.44-7.55L-470-422.7l-6.73-8.75-6.88-8-9-9.67-7-5.65-6.22-3.35-8.1-4.42L-520.9-465l-9.41-2.7-7.27-1.79-7.71-2.47-2.26-1.06-11.74-4.16-28.07-12.05-1.12-1.29-9.53-5.1-1.49-1-5.17-3.42-14.54-7.9-10.38-4.4-7.9-3.42-1.66-.16-14.11-5-10.48-4.13-1.6-.31-.52-.2-8.42-3.43-10.84-4.42-7.78-3.15-7.5-2.74-6-2.69-2.41-1.46L-727.41-558l-3.44-2.71-5.63-3.94-9-6.66-12.08-8.37-25.94-17.92L-803-611.36M-60-73.26l5.78-7.89,10.35-25.92,3.14-8.52,2.24-5.57,1-1.24.54-5.38,5-51,.64-11.31.68-10.56,1.74-26.52.21-17.24.29-13-.12-13.07-.23-9.91,0-7.63-1.06-15.1M-847.91-703.2l9.71,22.9,3,11.22,39.69-4.27,2.7-19.49-3.09-10.84L-806.15-706l-24,1.77-17.79,1.08-15.77,1.43-18.17,2-5.3.13-21.49,15.34M-599.5-496.67l-1.65,2.65L-607-478.44l-.41,1-2.32,4.05-7,21.42-.4,1-1.82,4.7-3.46,6.51-1.35,1.78-2.81,3.68-4.06,4.34-.87.8-6,5.52-8.15,7.95-4,3.45-6.72,5.73-2.4,6.29-2.53,6.33-1.15,4.71L-664-376.58l-.72,9.2-.53,6.82-1.6,25.06L-668.77-306l37.71,1.7,43.9,2.52,2.68.12,31,1.93,11,.08,10.69-.47,2.74.22.93-25,1.85-27.85,0-.83,50.85,2.84,5.41.53,3.71,1.34,2.89,1.88,2.55,2.69,4.15,8.14,1.74,3.85,2.5,5.52,2.77-1,15.41-5.86,1.15-.44,7.66-3m0,0,6.19-1.27,10.13-1,3.49,3.22,17.49,13,16.2,11.55,3.84,3,5.22,3.27,30,22.67,51.37,37.84,17.78,13.19,12.52,9.28,3.37,2.15,2.36,1.51,7.29,4.68,7.57,4.59,23.36,14.35,13.07,8.47,5.26,3.4,9.4,7.68,6.31,5.05,5.89,6.21.68.87,1.33,1.52,3.27,3.75-1.31,3.12-1.47,3.53-1.82,5.25,16.9,6.65,10.5,5.86,20,13.69,16.05,12.78L-64.34-76-60-73.26-51.83-68-39-57.56l23.59,18,1.88,1.18,5.65,4.68,7,5.63,5.24,4.18L8.21-19.4,12-12.33,15.67-1.45l3,10,.06.35,1.16,7.33L20.05,18l.41,5.31.14,1.81.84,18.47.76,9,.61,7.12.46,2.9L24,65l3.76,3.5,6.12,4.44,4.59,1.38,6,1.22,6.63,1.27,5.62,2.07,8.76,4.08,9.92,5.54,8.54,3.92,35.84,14.23,18.76,7.23,11.15,2.69,2.39.62,8-5.24,12.3-8.22,6.54-1.85,6-.53,11-1.16,8.39-.15,6.54.37,9,1.63,8.09,3.24,25.72,15,1.14.63,32.35,17.53,52.42,27,15.89,7.34L372.19,184l10.24,4.39L396.29,196l12.09,9.62,2.39,2.32,21,17.55L445.19,239l14.17,15,5.49,7.66,6.36,9.55,13,25.08,12.32,26.89,29.14,70.31,5.79,13.91,11,20.64,17,24.63,13.06,17,37.71,37.56,3.31,3.56,15.69,17.88,5.23,6.9,1.68,1.9,3.17,9.23L650.46,562l9.92,11.48,4.46,2.68,5.91,1.67,14,.25,16.75-1.14,9.82-4,4.12-5.68,4.91-4.46,9.59-4.57,12.38-3.11,94.08-25.95,32.94-9.35,4.6-.92,33.59-.11,4.19-1.32,3.43-2.34,2.33-2.94,1.39-2.66.19-11L917,489.6"/><path class="cls-4" d="M-1313.56-900.18l26.49,2.71,6.62.67c2.21.21,4.42.43,6.61.78l13.18,1.9c4.39.6,8.77,1.33,13.18,1.82l13.23,1.56c4.41.47,8.79,1.21,13.18,1.85s8.74,1.5,13.1,2.32l9.31,2.68c5.08,2,10.25,3.85,15.4,5.7l1,.35c.29.16.42.52.64.78l1.2,1.67c.75,1.14,1.29,2.41,2,3.6l3.79,7.29c1.54,2.26,3,4.56,4.63,6.77l3.73,3,2.84,1.16c3.44.82,6.92,1.44,10.38,2.18l4.85,1.86,5.75,3c2.68,1.8,5.39,3.54,8,5.38s5.25,3.75,7.91,5.56l15.91,11c5.29,3.7,10.62,7.33,15.85,11.1s10.12,8,15.36,11.76l15.84,11.12c5.3,3.66,10.51,7.47,15.9,11s10.56,7.4,16,10.94l8.11,5.28,4,2.64,4.16,2.47,14.54,10.29c4.84,3.43,9.68,6.87,14.59,10.21L-957-717.5c19.67,13.32,38.93,27.23,58.9,40.09h0l12.46,9.67,6,3.93,5.9,4,23.59,16.17,23.58,16.18L-803-611.36M-425.44-337l-1.6-2.77-6.23-10.76-12.16-24-9.74-18.9L-463-410l-.93-1.7-3.44-7.55L-470-422.7l-6.73-8.75-6.88-8-9-9.67-7-5.65-6.22-3.35-8.1-4.42L-520.9-465l-9.41-2.7-7.27-1.79-7.71-2.47-2.26-1.06-11.74-4.16-28.07-12.05-1.12-1.29-9.53-5.1-1.49-1-5.17-3.42-14.54-7.9-10.38-4.4-7.9-3.42-1.66-.16-14.11-5-10.48-4.13-1.6-.31-.52-.2-8.42-3.43-10.84-4.42-7.78-3.15-7.5-2.74-6-2.69-2.41-1.46L-727.41-558l-3.44-2.71-5.63-3.94-9-6.66-12.08-8.37-25.94-17.92L-803-611.36M-60-73.26l5.78-7.89,10.35-25.92,3.14-8.52,2.24-5.57,1-1.24.54-5.38,5-51,.64-11.31.68-10.56,1.74-26.52.21-17.24.29-13-.12-13.07-.23-9.91,0-7.63-1.06-15.1M-847.91-703.2l9.71,22.9,3,11.22,39.69-4.27,2.7-19.49-3.09-10.84L-806.15-706l-24,1.77-17.79,1.08-15.77,1.43-18.17,2-5.3.13-21.49,15.34M-599.5-496.67l-1.65,2.65L-607-478.44l-.41,1-2.32,4.05-7,21.42-.4,1-1.82,4.7-3.46,6.51-1.35,1.78-2.81,3.68-4.06,4.34-.87.8-6,5.52-8.15,7.95-4,3.45-6.72,5.73-2.4,6.29-2.53,6.33-1.15,4.71L-664-376.58l-.72,9.2-.53,6.82-1.6,25.06L-668.77-306l37.71,1.7,43.9,2.52,2.68.12,31,1.93,11,.08,10.69-.47,2.74.22.93-25,1.85-27.85,0-.83,50.85,2.84,5.41.53,3.71,1.34,2.89,1.88,2.55,2.69,4.15,8.14,1.74,3.85,2.5,5.52,2.77-1,15.41-5.86,1.15-.44,7.66-3m0,0,6.19-1.27,10.13-1,3.49,3.22,17.49,13,16.2,11.55,3.84,3,5.22,3.27,30,22.67,51.37,37.84,17.78,13.19,12.52,9.28,3.37,2.15,2.36,1.51,7.29,4.68,7.57,4.59,23.36,14.35,13.07,8.47,5.26,3.4,9.4,7.68,6.31,5.05,5.89,6.21.68.87,1.33,1.52,3.27,3.75-1.31,3.12-1.47,3.53-1.82,5.25,16.9,6.65,10.5,5.86,20,13.69,16.05,12.78L-64.34-76-60-73.26-51.83-68-39-57.56l23.59,18,1.88,1.18,5.65,4.68,7,5.63,5.24,4.18L8.21-19.4,12-12.33,15.67-1.45l3,10,.06.35,1.16,7.33L20.05,18l.41,5.31.14,1.81.84,18.47.76,9,.61,7.12.46,2.9L24,65l3.76,3.5,6.12,4.44,4.59,1.38,6,1.22,6.63,1.27,5.62,2.07,8.76,4.08,9.92,5.54,8.54,3.92,35.84,14.23,18.76,7.23,11.15,2.69,2.39.62,8-5.24,12.3-8.22,6.54-1.85,6-.53,11-1.16,8.39-.15,6.54.37,9,1.63,8.09,3.24,25.72,15,1.14.63,32.35,17.53,52.42,27,15.89,7.34L372.19,184l10.24,4.39L396.29,196l12.09,9.62,2.39,2.32,21,17.55L445.19,239l14.17,15,5.49,7.66,6.36,9.55,13,25.08,12.32,26.89,29.14,70.31,5.79,13.91,11,20.64,17,24.63,13.06,17,37.71,37.56,3.31,3.56,15.69,17.88,5.23,6.9,1.68,1.9,3.17,9.23L650.46,562l9.92,11.48,4.46,2.68,5.91,1.67,14,.25,16.75-1.14,9.82-4,4.12-5.68,4.91-4.46,9.59-4.57,12.38-3.11,94.08-25.95,32.94-9.35,4.6-.92,33.59-.11,4.19-1.32,3.43-2.34,2.33-2.94,1.39-2.66.19-11L917,489.6"/></g><g id="まる"><polyline class="cls-5" points="1972.56 -673.46 1969.11 -672.5 1963.49 -671.57 1959.31 -670.42 1949.06 -666.07 1940.89 -661.87 1938.02 -659.87 1936.23 -657.87 1934.8 -655.58 1932.57 -651.26 1929.19 -642.71 1926.63 -633.99 1925 -630.78 1922.46 -627.86 1915.4 -623.03 1908.54 -619.48 1902.6 -615.62 1900.66 -613.85 1893.77 -604.18 1890.72 -599.17 1887.35 -596.08 1884.15 -593.69 1881.59 -592.4 1880.62 -591.74 1875.65 -590.14 1865.87 -588.36 1859.3 -587.42 1845.19 -583.56 1835.08 -581.13 1824.34 -579.01 1809.12 -575.01 1793.09 -570.97 1786.04 -569 1784.5 -568.63 1781.96 -567.92 1755.08 -560.42 1750.63 -559.14 1747.28 -557.76 1744.28 -556.25 1738.99 -553.33 1736.17 -551.53 1729.02 -546.18 1674.41 -505.08 1666.98 -498.74 1659.48 -491.67 1656.13 -488.53 1639.66 -471.74 1618.82 -451.29 1613.93 -445 1609.76 -438.85 1606.29 -432.7 1564.93 -346.19 1561.09 -336.7 1542.53 -290.12 1540.68 -286.77 1535.49 -277.53 1533.3 -272.62 1523.26 -245.65 1512.81 -221 1507.38 -209.42 1502.79 -200.93 1497.41 -193.15 1490.84 -185.4 1480.43 -175.08 1469.56 -165.61 1442.78 -144.71 1436.95 -141.39 1423.56 -135.73 1413.69 -130.07 1408.01 -124.3 1404.19 -116.66 1401.65 -108.08 1401.53 -99.5 1400.31 -86.54 1402.77 -80.56 1405.47 -67.98 1404.87 -56.69 1402.25 -48.94 1397.74 -40.74 1390.72 -32.33 1377.8 -24.69 1356.35 -13.64 1355.21 -12.92 1346.48 -8.39 1340.03 -4.41 1334.08 0.58 1331.14 3.76 1323.72 12.26 1320.87 15.98 1317.54 22.25 1313.08 35.52 1307.3 66.54 1305.25 74.3 1302.16 81.84 1294.31 91.58 1283.83 99.38 1255.11 118.75 1225.9 139.11 1209.84 146.95 1193.78 153.29 1163.13 165.69 1090.5 197.14 1076.95 204.08 1050.02 220.75 1044.12 224.67 1036.04 231.22 1022.35 241.22 1011.1 251.33 999.59 261.24 990.2 273.05 979.07 286.07 963.47 309.34 931.13 362.87 921.96 377.67 917.03 392.14 913.28 401.3 911.93 410.07 911.35 419.99 911.56 440.03 909.84 452.03 907.55 460.78 902.61 471.27 898.24 477.96 897.8 478.45"/><line class="cls-3" x1="887.64" y1="489.03" x2="887.64" y2="489.03"/><line class="cls-3" x1="917.03" y1="489.6" x2="917.03" y2="489.6"/><polyline class="cls-6" points="924.14 462.02 929.33 450.89 932.56 440.4 934.08 433.91 936.17 429.71 943.39 418.45 944.33 415.41 944.09 412.27 943.02 409.81 941.67 408.13 939.2 407.01 935.99 407.04 932.24 408.78 930.12 411.21 928.63 415.22 927.93 419.99 927.51 427.62 926.69 434.48 925.41 441.54 923.17 448.61 917.98 459.95 905.11 488.11 900.89 492.26 900.59 492.34"/><line class="cls-3" x1="887.64" y1="489.03" x2="887.64" y2="489.03"/></g></g><g id="日交線"><g id="若桜"><path class="cls-7" d="M-1643.48-425.65l1.18-4.35,2.22-8.72c1.44-5.81,3-11.63,4.35-17.44l3.85-17.44c2.54-11.56,5.29-23.16,7.62-34.46.31-1.42.58-2.83.93-4.27l1.1-4.36,1.09-4.37c.36-1.42.75-3,1-4.34l.42-1.69.22-.86.29-1,1.15-4.17,2.65-9.62,1.25-9.88.46-10v-.14c.72-18.17,1.32-36.22,1.87-54.48l.76-27.13.31-13.65.26-14.29-.21-3.42v2.07l.43-7.28,1.27-9.75,1.53-6.94,2.06-5,4.42-8.23-.68,1.16,1-1.5,6.07-11c1.92-3.48,3.71-6.84,5.75-10.31l11.88-20.7,5.94-10.34q3-5.17,5.85-10.34c1.93-3.43,3.77-6.94,5.82-10.25l6.41-10.74,1.37-2.84s4.79-16.9,10-25.14l-.17.26,18.57-27.05L-1514-863c1.5-2.26,3.21-4.33,4.83-6.47l5.67-7.36L-1500-884l1.22-1.39,1.78-2.77,3.58-5.53m135.6,138.28,31,89.2.67,18.07-1.62,27.22c-.19,4.54-.72,9.06-1.16,13.58l-1.4,13.56-4,21c-.68,3.5-1.32,7-2,10.5s-1.29,7-2.29,10.44l-.33,5.49c0,1.84,0,3.67,0,5.5,0,3.67-.16,7.34.16,11l1.06,5.65c.91,3.17,1.7,6.37,2.72,9.51l3.26,9.33,5.61,10.57c.94,1.76,1.84,3.54,2.82,5.27l3.14,5.1,6.24,10.21,6,10.36,6,10.37,3,5.18c1,1.74,2,3.44,2.9,5.24,1.76,3.58,3.78,7,5.65,10.54l5.73,10.5,5.73,10.51,2.86,5.25,1.44,2.63c.46.88.87,1.79,1.31,2.68.89,1.79,1.7,3.62,2.65,5.37l2.91,5.22,5.83,10.46,8.11,15.06,4.77,15.66,5.93,19.42c4.41,8.1,8.76,16.25,13.14,24.36l1.91,3.56,1.85,3.68,3.71,7.34,7.41,14.68,30.36,58.48,15.24,29.14,7.62,14.57c2.52,4.87,4.77,9.89,7.17,14.83,4.8,9.89,9.2,19.91,14.7,29.64l3.89,7.26,1.95,3.63c.35.67.6,1.07.8,1.53l.74,1.73c.54,1.28,1.07,2.56,1.68,3.87l1.72,3.77,3.18,6.91.94,4.3.83,11.69c.33,4,.45,8,.67,12l1.18,24.14c.26,4,.23,8,.34,12s.19,8,.12,12l-6,24-.56,23.72q-.26,11.94-.41,23.9t-.14,23.92l.06,12c0,4.12.15,8.13.23,12a167.49,167.49,0,0,1-.57,22.2c-.22,1.82-.41,3.23-.75,4.86s-.73,3.25-1.2,5c-1,3.44-2.16,7.08-3.38,11a109.69,109.69,0,0,0-3.29,12.85,76.79,76.79,0,0,0-1.21,13.93,142.31,142.31,0,0,0,2.83,25.73,206.85,206.85,0,0,0,5.74,24.41,124,124,0,0,0,4.16,12.44c.48,1.16,1,2.35,1.66,3.54s1.46,2.59,1.86,3.25l3.13,5.14a116.38,116.38,0,0,0,7.44,10.91,100.48,100.48,0,0,0,9.08,9.91l4.44,4.23,2.2,2.08c.92.87,1.84,1.66,2.74,2.41,3.61,3,6.9,5.25,9.45,7.35l18.12,15.22c6.2,5.19,12.28,10.08,17.89,15.09a138.4,138.4,0,0,1,15.3,15.75,147.05,147.05,0,0,1,12.62,18c.93,1.55,1.88,3.09,2.85,4.6l3.12-1.44,7-4.12,7-4.12,11.83-5.48,18.24-6.32m57.83,454-6-12.84-2.61-6.21-2.42-7.32-1.74-5.58-1.09-5.21-.94-6.23-.68-9.09,0-1.08-.8-18.17L-933,674.36l-2-11.54c3.56-.62,6.95-1.15,10.11-1.76,1.58-.3,3.11-.62,4.58-1s2.91-.75,4.1-1.14c2.56-.84,5.58-2.18,9.24-3.6l1.41-.53,1.19-.42.92-.3,1.52-.48.76-.24c.25-.06.56-.18.55-.48a10.46,10.46,0,0,0-.05-2l-.45-5.9-1.42-20.06L-904,604l-1.13-21.26-.55-10.57c-.09-3.13-.36-6.62-.47-10.49a67.73,67.73,0,0,1,.69-12.51c.62-4.11,1.52-7.8,2.3-11.18l11.58-3.19,8.41.25,5.34-1,5.77-1.67L-866,530l2-1,3.94-3.16,4.17-3.47,2.52-2.49,4.9-6.74,2.65-3.64c.87-1.22,1.85-2.3,2.77-3.46l11.16-13.66L-821,478.7c3.58-4.63,7.11-9.36,10.67-14,1.8-2.32,3.49-4.72,5.39-7l5.74-6.76L-788,437.41l22-26.65,2.75-4.78,3.65-7.9.88-2.47,1.76-7.1.08-.91c0-.3.06-.61.08-1,0-.77.1-1.48.08-2.29l-.05-4.35-1.64-7c-.55-2.5-1.28-5-2-7.46l-4.42-14.88-7.88-20.3-3.41-7-3.24-5.41-3.51-4.51-3.8-3.8-14.31-11.33-4.83-3.29c-.84-.54-1.67-1.17-2.5-1.83l-2-1.58-4.5-2.48-5.05-1.52-5.07-.74-6.53-.08-7.23.83-18.77,4.32c-6.34,1.5-12.72,2.78-18.95,4.79l-18.83,5.52-19,5.17-19.08,5-4.73,1.22-4.68,1.28c-3.12.89-6.26,1.63-9.35,2.65l-9.32,2.91c-3.08,1-6.17,1.88-9.25,3m-28.64,1177,2.65,7.15.76,2.05.48,1.3,5.49,8,5.18,7.13,7.52,8.29,15.19,17.36,32,39,9.2,9.58,1.92,2.24,14.73,15.91,14.83,18.73,40,51.55,5,5,8.72,6.06,8.44,4,30.37,8.08,8.35,1.39,7.57,0,18.68-3.19,2.53-.43,7.37-1.67,6.74-.87,5.31.68,3.93,1.5,3.3,1.84,9.06,8.18,16.49,14.53,11.27,9.91,14.69,13.87,10.42,13,10,13.63,4.59,7.19,5.48,7.27,3.73,4.46,3.53,4,4.85,4.79,6,5.54,9.3,6.28,12,4.83.62.24,6.58,1.35,6.59,1.07,17.83,3.33,6.76,1.81,1.78.77,33.76,14.63,11.79,5.11,29.26,13.61,7.12,4.51,12.91,11.54,25.57,29.43,11.3,13.24,1,1.07,23,26.31,10.56,12.31,34.14,39.82,19,22.1.95,1.1,9.49,10.49,14,13.1,35,24.59,4.38,3.29m-695.27-697.65,2.43-7.89,2.09-7,1.33-4.46,5.18-18.08,7.5-26.25,9.86-34,1.13-4.58.67-2.3,3.17-10.28,6.86-15.52,5.14-9.23,8.29-11.18,6.25-6.08,27.13-30.41,6.37-7.14,1.75-2,23.13-25.92,21.06-23.41,5.54-6.18,10.34-11.65,11.47-15.12,4.51-11.33,2.14-6.56,2.13-6.8,1.08-9.88.5-9.08-.9-12.74-1-6-2.21-9.25-15.79-43-14.76-40.76L-886.2,831.38l-2.34-6.18-1.72-3.65-22.58-44m-70.63,608.23-16.57-5.3-13.31-3.84-2.09-.6-4-1-4.72-1.44-6.53-1.59-6.27-1.74-2.46-1.28-2.48-1.21-6.42-3.83-1.63-.93-1.52-.61-.65-.12-.64.12-.56.44-.61.75-.45.84-1.66,4-.52,1.53-1.16,2.55-9,19.23-9.15,18-1,2.07-1.65,3.12-.54,1.05-7.61,15.39-1.15,2.27-1.93,3.9-2.31,4.12,1.63,1.34,1.18,1.47,2.63,3.09,2.92,3.29,2.58,3.34.21.27.79,1,1.65,2.13.37.48,9.8,12.45,1.57,1.7,4.77,6.21.08.11.36.47,3,3.87,1.59,2,2.52,3.08,2.24,2.75,1.45,1.28,3.83,3.36.64.39,6.44,3.85,2.42.85,4.84,1.7,2.73.28h3.45l27.16-1.89m3501.8,2013.31L2492.26,3500l-5.73-7.71-4.3-9-3.15-.78-1.61-.39-20.43-3.79-2.55-.72-4.08-6.2L2436,3453.18l-.84-1-2.28-1.95-12.13-14.39-13.44-15.91-3.42-4.15-7.15-8.6-6.16-7.41-7.66-9.25-2.68-3.25-10.38-12.42-20.11-24.58-.33-.4-12.57-14.74-6.76-8.32-5.09-6.24-11.92-14.3-10.81-13.11-1.69-1.49-14.72-13.59-4.05-3.63-.2-.17L2269,3263.14l-5.46-4.82-2.93-2.6-12.59-10.9-25.44-23.28-3.91-3.83-4.59-4.51-1.9-1.59-2.95-2.61-3-2.58-5.91-3.31-3.06-2-2.08-1.39-2.93-5.36-4.67-6.94-8.12-4.84-5.74-5.3-1.27-4.1-84.55-69.79-22.32-20.31-14-14-22.88-26.52-53.58-71.9-23.76-32.76-39.09-56.27-3-3.76-6.78-10.81-5.18-13.42-1.72-10.74-4.61-74.2-3.25-48.52-2.6-11.66-4.31-10.29-4.21-8.15-10.74-14.76-12.55-10.48-1.06-1-23-10.55-12.85-3.45-9.78-1-8.05.38-9.83,1.13-12.64,3.25-9,4-13,8.43-10.16,7.26-1.9,1.35-40,30.4-3.44,2.54-17,15.69-8.23,9.39-7.45,11.15L1646.48,2770,1612,2818.67l-7,6.54-5.72,4.54-8.83,3.73-14.91,2.82-1.91.23-18.36,2.17-8.49.66-16.72,1.06-1.17.07-22.81,1.36-14,.88-.55,0-11,.43-3,.12-8.45.57-.59,0-16.4,1.17-8.76.61-2.36.17h-9.46l-6.24-.1-5.52-.64-5.52-.82-4.75-.83-9.37-1.61-5-1-14.62-2.55-18.64-3.53-.54-.11-14.13-2.68-11-1.72-28.61-5.65-39.71-7.12-37.47-7-31.37-5.78-3.11-.78-60.62-11.18-14.74-3.14-9.91-4-8.31-4.87-7.38-6.38-2.37-2.81-20.9-19.68-25.83-24.33-11.45-6.54-20-8.6L983,2699l-8.58-2.39-4-1.09-15.57-2.1-9.4.11-12.31.1-22.24.19-13.9-.28-56-13.24-27.65-6.35-8.37-1.44-10.83-1.23-58.82-4.71-7.88-.88-8.31-.36-8.31.89-9.5,1.89-9.8,2.46-6.36,2.56-36.09,20.84-6,2.29-6.1,1-12.39.09-86.56.66h-4.43l-32-6.74-8-1.68-.77-.16-4.73-.61-4.72.26L462.44,2695l-4.46.52h-4.47l-8.84-2.84-34.33-13.57-5.32-2.32-4.93-2.14-8.15-4.37-4.61-2.48-9.62-7.2-9.12-7.88-1.14-1-.83-.86-23.88-24.43-27.94-28.87-1-1-2.87-2.8-1.11-1.07-11.2-11.43-8.18-8.35-11.8-16.79-7.33-10.8-12.05-18-5.9-6.15-10.19-7.63L221,2499.56l-26.28-16.35-49.09-31.06-8-4.89-10.94-5.21-6.64-1.62-9.94-1.6L93,2437.08l-18.35-4.44-5.18-2.55-1.25-.63-9.58-5.27L34,2409.61l-21-12.49L3,2391.22l-20.64-12.32-84.24-49.85-2.5-2.4-1.27-.84-3.7-2.43-4.28-4.65-5.47-7.05-3.59-6.54-2.07-6.85-.38-1.26-1.7-5.73-1.26-5.47-3.25-11.68-2.24-6.12-1.64-3.92-1.2-2.47-2.46-5.16-2.18-4.68-.25-.54-6.58-14.78-2.21-4.71-5.31-8.28-34.92-43.89-1.28-1.61-16.05-20.55-22.91-29.32-3.12-3.4-1.31-1.42-10.3-9.69-.83-.59-16.22-11.62-.65-.47-7.71-5.15-2.09-1.4-3.48-2.52-2.38-1.72-2-1.47-3.76-2.73-3.69-2.55M-1343.3-364.22l6.72.64,3.35.33c1.13.12,2.26.31,3.38.47l7.17,1,5.77,1.27,5.6,1.71,4.06,1.81s8,5.48,8.11,5.49l1,.2,20.47,2.07,2.51-1.09,2.74.13,4.14.19,2.06.1,2,.14,8,.29,7,.25m-395.15-72.69c.15-.66.28-1.34.44-2l.51-1.82"/><path class="cls-8" d="M-1643.48-425.65l1.18-4.35,2.22-8.72c1.44-5.81,3-11.63,4.35-17.44l3.85-17.44c2.54-11.56,5.29-23.16,7.62-34.46.31-1.42.58-2.83.93-4.27l1.1-4.36,1.09-4.37c.36-1.42.75-3,1-4.34l.42-1.69.22-.86.29-1,1.15-4.17,2.65-9.62,1.25-9.88.46-10v-.14c.72-18.17,1.32-36.22,1.87-54.48l.76-27.13.31-13.65.26-14.29-.21-3.42v2.07l.43-7.28,1.27-9.75,1.53-6.94,2.06-5,4.42-8.23-.68,1.16,1-1.5,6.07-11c1.92-3.48,3.71-6.84,5.75-10.31l11.88-20.7,5.94-10.34q3-5.17,5.85-10.34c1.93-3.43,3.77-6.94,5.82-10.25l6.41-10.74,1.37-2.84s4.79-16.9,10-25.14l-.17.26,18.57-27.05L-1514-863c1.5-2.26,3.21-4.33,4.83-6.47l5.67-7.36L-1500-884l1.22-1.39,1.78-2.77,3.58-5.53m135.6,138.28,31,89.2.67,18.07-1.62,27.22c-.19,4.54-.72,9.06-1.16,13.58l-1.4,13.56-4,21c-.68,3.5-1.32,7-2,10.5s-1.29,7-2.29,10.44l-.33,5.49c0,1.84,0,3.67,0,5.5,0,3.67-.16,7.34.16,11l1.06,5.65c.91,3.17,1.7,6.37,2.72,9.51l3.26,9.33,5.61,10.57c.94,1.76,1.84,3.54,2.82,5.27l3.14,5.1,6.24,10.21,6,10.36,6,10.37,3,5.18c1,1.74,2,3.44,2.9,5.24,1.76,3.58,3.78,7,5.65,10.54l5.73,10.5,5.73,10.51,2.86,5.25,1.44,2.63c.46.88.87,1.79,1.31,2.68.89,1.79,1.7,3.62,2.65,5.37l2.91,5.22,5.83,10.46,8.11,15.06,4.77,15.66,5.93,19.42c4.41,8.1,8.76,16.25,13.14,24.36l1.91,3.56,1.85,3.68,3.71,7.34,7.41,14.68,30.36,58.48,15.24,29.14,7.62,14.57c2.52,4.87,4.77,9.89,7.17,14.83,4.8,9.89,9.2,19.91,14.7,29.64l3.89,7.26,1.95,3.63c.35.67.6,1.07.8,1.53l.74,1.73c.54,1.28,1.07,2.56,1.68,3.87l1.72,3.77,3.18,6.91.94,4.3.83,11.69c.33,4,.45,8,.67,12l1.18,24.14c.26,4,.23,8,.34,12s.19,8,.12,12l-6,24-.56,23.72q-.26,11.94-.41,23.9t-.14,23.92l.06,12c0,4.12.15,8.13.23,12a167.49,167.49,0,0,1-.57,22.2c-.22,1.82-.41,3.23-.75,4.86s-.73,3.25-1.2,5c-1,3.44-2.16,7.08-3.38,11a109.69,109.69,0,0,0-3.29,12.85,76.79,76.79,0,0,0-1.21,13.93,142.31,142.31,0,0,0,2.83,25.73,206.85,206.85,0,0,0,5.74,24.41,124,124,0,0,0,4.16,12.44c.48,1.16,1,2.35,1.66,3.54s1.46,2.59,1.86,3.25l3.13,5.14a116.38,116.38,0,0,0,7.44,10.91,100.48,100.48,0,0,0,9.08,9.91l4.44,4.23,2.2,2.08c.92.87,1.84,1.66,2.74,2.41,3.61,3,6.9,5.25,9.45,7.35l18.12,15.22c6.2,5.19,12.28,10.08,17.89,15.09a138.4,138.4,0,0,1,15.3,15.75,147.05,147.05,0,0,1,12.62,18c.93,1.55,1.88,3.09,2.85,4.6l3.12-1.44,7-4.12,7-4.12,11.83-5.48,18.24-6.32m57.83,454-6-12.84-2.61-6.21-2.42-7.32-1.74-5.58-1.09-5.21-.94-6.23-.68-9.09,0-1.08-.8-18.17L-933,674.36l-2-11.54c3.56-.62,6.95-1.15,10.11-1.76,1.58-.3,3.11-.62,4.58-1s2.91-.75,4.1-1.14c2.56-.84,5.58-2.18,9.24-3.6l1.41-.53,1.19-.42.92-.3,1.52-.48.76-.24c.25-.06.56-.18.55-.48a10.46,10.46,0,0,0-.05-2l-.45-5.9-1.42-20.06L-904,604l-1.13-21.26-.55-10.57c-.09-3.13-.36-6.62-.47-10.49a67.73,67.73,0,0,1,.69-12.51c.62-4.11,1.52-7.8,2.3-11.18l11.58-3.19,8.41.25,5.34-1,5.77-1.67L-866,530l2-1,3.94-3.16,4.17-3.47,2.52-2.49,4.9-6.74,2.65-3.64c.87-1.22,1.85-2.3,2.77-3.46l11.16-13.66L-821,478.7c3.58-4.63,7.11-9.36,10.67-14,1.8-2.32,3.49-4.72,5.39-7l5.74-6.76L-788,437.41l22-26.65,2.75-4.78,3.65-7.9.88-2.47,1.76-7.1.08-.91c0-.3.06-.61.08-1,0-.77.1-1.48.08-2.29l-.05-4.35-1.64-7c-.55-2.5-1.28-5-2-7.46l-4.42-14.88-7.88-20.3-3.41-7-3.24-5.41-3.51-4.51-3.8-3.8-14.31-11.33-4.83-3.29c-.84-.54-1.67-1.17-2.5-1.83l-2-1.58-4.5-2.48-5.05-1.52-5.07-.74-6.53-.08-7.23.83-18.77,4.32c-6.34,1.5-12.72,2.78-18.95,4.79l-18.83,5.52-19,5.17-19.08,5-4.73,1.22-4.68,1.28c-3.12.89-6.26,1.63-9.35,2.65l-9.32,2.91c-3.08,1-6.17,1.88-9.25,3m-28.64,1177,2.65,7.15.76,2.05.48,1.3,5.49,8,5.18,7.13,7.52,8.29,15.19,17.36,32,39,9.2,9.58,1.92,2.24,14.73,15.91,14.83,18.73,40,51.55,5,5,8.72,6.06,8.44,4,30.37,8.08,8.35,1.39,7.57,0,18.68-3.19,2.53-.43,7.37-1.67,6.74-.87,5.31.68,3.93,1.5,3.3,1.84,9.06,8.18,16.49,14.53,11.27,9.91,14.69,13.87,10.42,13,10,13.63,4.59,7.19,5.48,7.27,3.73,4.46,3.53,4,4.85,4.79,6,5.54,9.3,6.28,12,4.83.62.24,6.58,1.35,6.59,1.07,17.83,3.33,6.76,1.81,1.78.77,33.76,14.63,11.79,5.11,29.26,13.61,7.12,4.51,12.91,11.54,25.57,29.43,11.3,13.24,1,1.07,23,26.31,10.56,12.31,34.14,39.82,19,22.1.95,1.1,9.49,10.49,14,13.1,35,24.59,4.38,3.29m-695.27-697.65,2.43-7.89,2.09-7,1.33-4.46,5.18-18.08,7.5-26.25,9.86-34,1.13-4.58.67-2.3,3.17-10.28,6.86-15.52,5.14-9.23,8.29-11.18,6.25-6.08,27.13-30.41,6.37-7.14,1.75-2,23.13-25.92,21.06-23.41,5.54-6.18,10.34-11.65,11.47-15.12,4.51-11.33,2.14-6.56,2.13-6.8,1.08-9.88.5-9.08-.9-12.74-1-6-2.21-9.25-15.79-43-14.76-40.76L-886.2,831.38l-2.34-6.18-1.72-3.65-22.58-44m-70.63,608.23-16.57-5.3-13.31-3.84-2.09-.6-4-1-4.72-1.44-6.53-1.59-6.27-1.74-2.46-1.28-2.48-1.21-6.42-3.83-1.63-.93-1.52-.61-.65-.12-.64.12-.56.44-.61.75-.45.84-1.66,4-.52,1.53-1.16,2.55-9,19.23-9.15,18-1,2.07-1.65,3.12-.54,1.05-7.61,15.39-1.15,2.27-1.93,3.9-2.31,4.12,1.63,1.34,1.18,1.47,2.63,3.09,2.92,3.29,2.58,3.34.21.27.79,1,1.65,2.13.37.48,9.8,12.45,1.57,1.7,4.77,6.21.08.11.36.47,3,3.87,1.59,2,2.52,3.08,2.24,2.75,1.45,1.28,3.83,3.36.64.39,6.44,3.85,2.42.85,4.84,1.7,2.73.28h3.45l27.16-1.89m3501.8,2013.31L2492.26,3500l-5.73-7.71-4.3-9-3.15-.78-1.61-.39-20.43-3.79-2.55-.72-4.08-6.2L2436,3453.18l-.84-1-2.28-1.95-12.13-14.39-13.44-15.91-3.42-4.15-7.15-8.6-6.16-7.41-7.66-9.25-2.68-3.25-10.38-12.42-20.11-24.58-.33-.4-12.57-14.74-6.76-8.32-5.09-6.24-11.92-14.3-10.81-13.11-1.69-1.49-14.72-13.59-4.05-3.63-.2-.17L2269,3263.14l-5.46-4.82-2.93-2.6-12.59-10.9-25.44-23.28-3.91-3.83-4.59-4.51-1.9-1.59-2.95-2.61-3-2.58-5.91-3.31-3.06-2-2.08-1.39-2.93-5.36-4.67-6.94-8.12-4.84-5.74-5.3-1.27-4.1-84.55-69.79-22.32-20.31-14-14-22.88-26.52-53.58-71.9-23.76-32.76-39.09-56.27-3-3.76-6.78-10.81-5.18-13.42-1.72-10.74-4.61-74.2-3.25-48.52-2.6-11.66-4.31-10.29-4.21-8.15-10.74-14.76-12.55-10.48-1.06-1-23-10.55-12.85-3.45-9.78-1-8.05.38-9.83,1.13-12.64,3.25-9,4-13,8.43-10.16,7.26-1.9,1.35-40,30.4-3.44,2.54-17,15.69-8.23,9.39-7.45,11.15L1646.48,2770,1612,2818.67l-7,6.54-5.72,4.54-8.83,3.73-14.91,2.82-1.91.23-18.36,2.17-8.49.66-16.72,1.06-1.17.07-22.81,1.36-14,.88-.55,0-11,.43-3,.12-8.45.57-.59,0-16.4,1.17-8.76.61-2.36.17h-9.46l-6.24-.1-5.52-.64-5.52-.82-4.75-.83-9.37-1.61-5-1-14.62-2.55-18.64-3.53-.54-.11-14.13-2.68-11-1.72-28.61-5.65-39.71-7.12-37.47-7-31.37-5.78-3.11-.78-60.62-11.18-14.74-3.14-9.91-4-8.31-4.87-7.38-6.38-2.37-2.81-20.9-19.68-25.83-24.33-11.45-6.54-20-8.6L983,2699l-8.58-2.39-4-1.09-15.57-2.1-9.4.11-12.31.1-22.24.19-13.9-.28-56-13.24-27.65-6.35-8.37-1.44-10.83-1.23-58.82-4.71-7.88-.88-8.31-.36-8.31.89-9.5,1.89-9.8,2.46-6.36,2.56-36.09,20.84-6,2.29-6.1,1-12.39.09-86.56.66h-4.43l-32-6.74-8-1.68-.77-.16-4.73-.61-4.72.26L462.44,2695l-4.46.52h-4.47l-8.84-2.84-34.33-13.57-5.32-2.32-4.93-2.14-8.15-4.37-4.61-2.48-9.62-7.2-9.12-7.88-1.14-1-.83-.86-23.88-24.43-27.94-28.87-1-1-2.87-2.8-1.11-1.07-11.2-11.43-8.18-8.35-11.8-16.79-7.33-10.8-12.05-18-5.9-6.15-10.19-7.63L221,2499.56l-26.28-16.35-49.09-31.06-8-4.89-10.94-5.21-6.64-1.62-9.94-1.6L93,2437.08l-18.35-4.44-5.18-2.55-1.25-.63-9.58-5.27L34,2409.61l-21-12.49L3,2391.22l-20.64-12.32-84.24-49.85-2.5-2.4-1.27-.84-3.7-2.43-4.28-4.65-5.47-7.05-3.59-6.54-2.07-6.85-.38-1.26-1.7-5.73-1.26-5.47-3.25-11.68-2.24-6.12-1.64-3.92-1.2-2.47-2.46-5.16-2.18-4.68-.25-.54-6.58-14.78-2.21-4.71-5.31-8.28-34.92-43.89-1.28-1.61-16.05-20.55-22.91-29.32-3.12-3.4-1.31-1.42-10.3-9.69-.83-.59-16.22-11.62-.65-.47-7.71-5.15-2.09-1.4-3.48-2.52-2.38-1.72-2-1.47-3.76-2.73-3.69-2.55M-1343.3-364.22l6.72.64,3.35.33c1.13.12,2.26.31,3.38.47l7.17,1,5.77,1.27,5.6,1.71,4.06,1.81s8,5.48,8.11,5.49l1,.2,20.47,2.07,2.51-1.09,2.74.13,4.14.19,2.06.1,2,.14,8,.29,7,.25m-395.15-72.69c.15-.66.28-1.34.44-2l.51-1.82"/></g></g></g></svg>