<svg id="_13zoom" data-name="13zoom" xmlns="http://www.w3.org/2000/svg" viewBox="0 0 1024 1024"><defs><style>.cls-1,.cls-4{fill:#231815;}.cls-2,.cls-8{fill:none;}.cls-2,.cls-3{stroke:#231815;stroke-miterlimit:10;stroke-width:4px;}.cls-3{fill:#fff;}.cls-4{font-size:30px;font-family:NotoSansMonoCJKjp-Regular-90ms-RKSJ-H, Noto Sans Mono CJK JP;}.cls-5{letter-spacing:0.33em;}.cls-6{letter-spacing:0.5em;}.cls-7{font-size:20px;}</style></defs><title>3230_7146</title><path id="_クリッピングパス_" data-name="&lt;クリッピングパス&gt;" class="cls-1" d="M420.58,766a25,25,0,0,0-25,25h0a25,25,0,0,0,25,25h35V766Z"/><path id="_クリッピングパス_2" data-name="&lt;クリッピングパス&gt;" class="cls-2" d="M420.58,766a25,25,0,0,0-25,25h0a25,25,0,0,0,25,25h35V766Z"/><path class="cls-3" d="M770.58,766h-315v50h315a25,25,0,0,0,25-25h0A25,25,0,0,0,770.58,766Z"/><text class="cls-4" transform="translate(475.58 802.38)"><tspan class="cls-5">浜村</tspan><tspan class="cls-6" x="80" y="0">駅</tspan><tspan class="cls-7" x="125" y="-3.8">(Hamamura Sta.)</tspan></text><line class="cls-3" x1="409.27" y1="651.7" x2="615.58" y2="765.98"/><circle class="cls-3" cx="409.27" cy="651.7" r="10"/><rect class="cls-8" x="-1959" y="-3068" width="11720" height="11720"/></svg>