<svg id="_15zoom" data-name="15zoom" xmlns="http://www.w3.org/2000/svg" xmlns:xlink="http://www.w3.org/1999/xlink" viewBox="0 0 1024 1024"><defs><style>.cls-1,.cls-10,.cls-15,.cls-2,.cls-3{fill:#fff;}.cls-1,.cls-10,.cls-13,.cls-18,.cls-2,.cls-22,.cls-3,.cls-7{stroke:#231815;}.cls-1,.cls-10,.cls-13,.cls-14,.cls-18,.cls-2,.cls-20,.cls-22,.cls-3,.cls-7,.cls-8,.cls-9{stroke-miterlimit:10;}.cls-1,.cls-18{stroke-width:2px;}.cls-2,.cls-22{stroke-width:2.11px;}.cls-3{stroke-width:2.4px;}.cls-4{font-size:18px;}.cls-11,.cls-17,.cls-4{fill:#231815;font-family:NotoSansMonoCJKjp-Regular-90ms-RKSJ-H, Noto Sans Mono CJK JP;}.cls-5{letter-spacing:0.25em;}.cls-6{font-size:12px;}.cls-13,.cls-14,.cls-18,.cls-20,.cls-22,.cls-23,.cls-7,.cls-8,.cls-9{fill:none;}.cls-13,.cls-14,.cls-7,.cls-8,.cls-9{stroke-linecap:round;}.cls-7{stroke-width:5.27px;}.cls-8{stroke:#a73766;}.cls-8,.cls-9{stroke-width:2.64px;}.cls-9{stroke:#006b4b;}.cls-10{stroke-width:2.4px;}.cls-11{font-size:18px;}.cls-12{font-size:12px;}.cls-13{stroke-width:5.27px;}.cls-14{stroke:#ebca1b;stroke-width:2.64px;}.cls-16{clip-path:url(#clip-path);}.cls-17{font-size:15px;}.cls-19{opacity:0.5;}.cls-20{stroke:#e60012;stroke-width:20px;stroke-dasharray:10.27 10.27;}.cls-21{clip-path:url(#clip-path-2);}</style><clipPath id="clip-path"><rect id="_長方形_" data-name="&lt;長方形&gt;" class="cls-1" x="381.23" y="988.28" width="180" height="50"/></clipPath><clipPath id="clip-path-2"><rect id="_長方形_2" data-name="&lt;長方形&gt;" class="cls-2" x="120.98" y="103.42" width="200" height="50"/></clipPath></defs><title>3234_7150</title><rect id="_長方形_3" data-name="&lt;長方形&gt;" class="cls-3" x="-143.92" y="99.02" width="240" height="60"/><text class="cls-4" transform="translate(-93.67 122.49)">南部幹<tspan class="cls-5" x="54" y="0">線(</tspan><tspan x="90" y="0">快</tspan><tspan class="cls-5" x="108" y="0">速</tspan><tspan x="130.5" y="0">)</tspan><tspan class="cls-6"><tspan x="-38.25" y="16.32">(local bus)South Shuttle line(Rapid)</tspan></tspan></text><line class="cls-7" x1="-83.92" y1="147.02" x2="36.08" y2="147.02"/><line class="cls-8" x1="-83.92" y1="147.02" x2="36.08" y2="147.02"/><rect id="_長方形_4" data-name="&lt;長方形&gt;" class="cls-3" x="-143.92" y="8.52" width="240" height="60"/><text class="cls-4" transform="translate(-93.67 31.99)">南部幹<tspan class="cls-5" x="54" y="0">線(</tspan><tspan x="90" y="0">普</tspan><tspan class="cls-5" x="108" y="0">通</tspan><tspan x="130.5" y="0">)</tspan><tspan class="cls-6"><tspan x="-38.25" y="16.32">(local bus)South Shuttle line(local)</tspan></tspan></text><line class="cls-7" x1="-83.92" y1="56.52" x2="36.08" y2="56.52"/><line class="cls-9" x1="-83.92" y1="56.52" x2="36.08" y2="56.52"/><rect id="_長方形_5" data-name="&lt;長方形&gt;" class="cls-10" x="115.8" y="976.43" width="240" height="60"/><text class="cls-11" transform="translate(190.8 999.9)">江波赤波線<tspan class="cls-12"><tspan x="-42" y="16.32">(local bus)Enami Aganami line</tspan></tspan></text><line class="cls-13" x1="175.8" y1="1024.43" x2="295.8" y2="1024.43"/><line class="cls-14" x1="175.8" y1="1024.43" x2="295.8" y2="1024.43"/><rect id="_長方形_6" data-name="&lt;長方形&gt;" class="cls-15" x="381.23" y="988.28" width="180" height="50"/><g class="cls-16"><text class="cls-17" transform="translate(396.23 1007.02)">江波赤波線フリー乗降<tspan x="22.5" y="20">公民館</tspan><tspan class="cls-5" x="67.5" y="20">前-</tspan><tspan x="97.5" y="20">赤波</tspan></text></g><rect id="_長方形_7" data-name="&lt;長方形&gt;" class="cls-18" x="381.23" y="988.28" width="180" height="50"/><g id="江波デマンド"><g class="cls-19"><polyline class="cls-20" points="-31.34 1025.09 -29.05 1026.05 -24.93 1027.86 -22.95 1028.75 7.49 1043.78 25.15 1052.28 27.66 1053.5 43.27 1062.07 59.88 1070.79 70.63 1076.54 83.01 1082.89 84.97 1083.97 92.98 1088.08 103.99 1092.81 112.91 1095.26 122.22 1097.46 125.16 1097.77 138.1 1099.13 166.23 1100.6 177.83 1099.98 190.01 1097.21 196.94 1094.62 213.04 1087.19 230.47 1079.65"/></g></g><rect id="_長方形_8" data-name="&lt;長方形&gt;" class="cls-15" x="120.98" y="103.42" width="200" height="50"/><g class="cls-21"><text class="cls-17" transform="translate(125.35 122.16)">河原町総合支所<tspan class="cls-5" x="105" y="0">前,</tspan><tspan x="135" y="0">福和</tspan><tspan class="cls-5" x="165" y="0">田</tspan><tspan x="183.75" y="0">,</tspan><tspan x="20.63" y="20">国英駅</tspan><tspan class="cls-5" x="65.63" y="20">前,</tspan><tspan x="95.63" y="20">鷹狩に停車</tspan></text></g><rect id="_長方形_9" data-name="&lt;長方形&gt;" class="cls-22" x="120.98" y="103.42" width="200" height="50"/><rect class="cls-23" x="-6055" y="-7164" width="11720" height="11720"/></svg>