<svg id="_15zoom" data-name="15zoom" xmlns="http://www.w3.org/2000/svg" xmlns:xlink="http://www.w3.org/1999/xlink" viewBox="0 0 1024 1024"><defs><style>.cls-1,.cls-11,.cls-13,.cls-18,.cls-19,.cls-3{fill:#fff;}.cls-1,.cls-12,.cls-13,.cls-18,.cls-19,.cls-2,.cls-20,.cls-22,.cls-7,.cls-8{stroke:#231815;}.cls-1,.cls-12,.cls-13,.cls-18,.cls-19,.cls-2,.cls-20,.cls-21,.cls-22,.cls-7,.cls-8{stroke-miterlimit:10;}.cls-1,.cls-7{stroke-width:2px;}.cls-14,.cls-2,.cls-5,.cls-9{fill:#231815;}.cls-12,.cls-13,.cls-2{stroke-width:2.4px;}.cls-4{clip-path:url(#clip-path);}.cls-5{font-size:15px;}.cls-11,.cls-14,.cls-5{font-family:NotoSansMonoCJKjp-Regular-90ms-RKSJ-H, Noto Sans Mono CJK JP;}.cls-6{letter-spacing:0.25em;}.cls-12,.cls-20,.cls-21,.cls-22,.cls-23,.cls-7,.cls-8{fill:none;}.cls-8{stroke-width:3px;}.cls-10{clip-path:url(#clip-path-2);}.cls-11{font-size:28.8px;}.cls-14{font-size:18px;}.cls-15{letter-spacing:0.22em;}.cls-16{letter-spacing:0.5em;}.cls-17{font-size:12px;}.cls-18{stroke-width:4px;}.cls-19{stroke-width:2.4px;}.cls-20,.cls-21{stroke-linecap:round;}.cls-20{stroke-width:5.27px;}.cls-21{stroke:#006b4b;stroke-width:2.64px;}.cls-22{stroke-width:3px;}</style><clipPath id="clip-path"><rect id="_長方形_" data-name="&lt;長方形&gt;" class="cls-1" x="477.27" y="277.34" width="180" height="50"/></clipPath><clipPath id="clip-path-2"><path id="_クリッピングパス_" data-name="&lt;クリッピングパス&gt;" class="cls-2" d="M312.52,528.09a15,15,0,0,0-15,15h0a15,15,0,0,0,15,15h21v-30Z"/></clipPath></defs><title>3237_7150</title><rect id="_長方形_2" data-name="&lt;長方形&gt;" class="cls-3" x="477.27" y="277.34" width="180" height="50"/><g class="cls-4"><text class="cls-5" transform="translate(509.15 296.08)">南部幹<tspan class="cls-6" x="45" y="0">線(</tspan><tspan x="75" y="0">普</tspan><tspan class="cls-6" x="90" y="0">通</tspan><tspan x="108.75" y="0">)</tspan><tspan x="5.63" y="20">ちづ保育園経由</tspan></text></g><rect id="_長方形_3" data-name="&lt;長方形&gt;" class="cls-7" x="477.27" y="277.34" width="180" height="50"/><line class="cls-8" x1="567.27" y1="327.34" x2="577.29" y2="372.73"/><path class="cls-9" d="M581.19,390.41c-4.93-7.64-12.47-16.8-19.46-22l15,2,12.82-8.11C585.42,369.93,582.43,381.41,581.19,390.41Z"/><path id="_クリッピングパス_2" data-name="&lt;クリッピングパス&gt;" class="cls-9" d="M312.52,528.09a15,15,0,0,0-15,15h0a15,15,0,0,0,15,15h21v-30Z"/><g class="cls-10"><text class="cls-11" transform="translate(304.1 552.67)">67</text></g><path id="_クリッピングパス_3" data-name="&lt;クリッピングパス&gt;" class="cls-12" d="M312.52,528.09a15,15,0,0,0-15,15h0a15,15,0,0,0,15,15h21v-30Z"/><path class="cls-13" d="M522.52,528.09h-189v30h189a15,15,0,0,0,15-15h0A15,15,0,0,0,522.52,528.09Z"/><text class="cls-14" transform="translate(345.5 549.93)"><tspan class="cls-15">智頭駅</tspan><tspan class="cls-16" x="66" y="0">前</tspan><tspan class="cls-17" x="93" y="-2.28">(Chizu Sta.)</tspan></text><line class="cls-13" x1="400" y1="484" x2="429.52" y2="528.09"/><circle class="cls-18" cx="400" cy="484" r="10"/><rect id="_長方形_4" data-name="&lt;長方形&gt;" class="cls-19" x="212.7" y="-37.56" width="240" height="60"/><text class="cls-14" transform="translate(262.95 -14.09)">南部幹<tspan class="cls-6" x="54" y="0">線(</tspan><tspan x="90" y="0">普</tspan><tspan class="cls-6" x="108" y="0">通</tspan><tspan x="130.5" y="0">)</tspan><tspan class="cls-17"><tspan x="-38.25" y="16.32">(local bus)South Shuttle line(local)</tspan></tspan></text><line class="cls-20" x1="272.7" y1="10.44" x2="392.7" y2="10.44"/><line class="cls-21" x1="272.7" y1="10.44" x2="392.7" y2="10.44"/><line class="cls-22" x1="332.7" y1="22.44" x2="397.99" y2="89.49"/><path class="cls-9" d="M410.62,102.46c-8.21-3.89-19.45-7.71-28.11-8.41l13.82-6.26L403,74.14C403.43,82.82,406.94,94.16,410.62,102.46Z"/><rect class="cls-23" x="-6055" y="-10236" width="11720" height="11720"/></svg>