<svg id="_13zoom" data-name="13zoom" xmlns="http://www.w3.org/2000/svg" viewBox="0 0 1024 1024"><defs><style>.cls-1{fill:#fff;}.cls-1,.cls-10,.cls-6,.cls-7,.cls-8{stroke:#231815;}.cls-1,.cls-10,.cls-5,.cls-6,.cls-7,.cls-8{stroke-miterlimit:10;}.cls-1,.cls-10{stroke-width:4px;}.cls-2{font-size:30px;font-family:NotoSansMonoCJKjp-Regular-90ms-RKSJ-H, Noto Sans Mono CJK JP;}.cls-2,.cls-9{fill:#231815;}.cls-3{letter-spacing:0.25em;}.cls-4{font-size:20px;}.cls-10,.cls-13,.cls-5,.cls-6,.cls-7,.cls-8{fill:none;}.cls-5{stroke:#a97443;stroke-width:8.79px;}.cls-5,.cls-6,.cls-7{stroke-linecap:round;}.cls-6,.cls-7{stroke-width:4.4px;}.cls-7{stroke-dasharray:0 28.57;}.cls-8{stroke-width:5px;}.cls-11{letter-spacing:0.83em;}.cls-12{letter-spacing:0.5em;}</style></defs><title>3228_7152</title><rect id="_長方形_" data-name="&lt;長方形&gt;" class="cls-1" x="198" y="565" width="400" height="100"/><text class="cls-2" transform="translate(296.75 604.12)">岩井<tspan class="cls-3" x="60" y="0">線(</tspan><tspan x="120" y="0">快</tspan><tspan class="cls-3" x="150" y="0">速</tspan><tspan x="187.5" y="0">)</tspan><tspan class="cls-4"><tspan x="-33.75" y="27.2">(local bus)Iwai line(Rapid)</tspan></tspan></text><line class="cls-5" x1="298" y1="645" x2="498" y2="645"/><line class="cls-6" x1="298" y1="645" x2="298" y2="645"/><line class="cls-7" x1="326.57" y1="645" x2="483.71" y2="645"/><line class="cls-6" x1="498" y1="645" x2="498" y2="645"/><line class="cls-8" x1="398" y1="665" x2="543.63" y2="839.74"/><path class="cls-9" d="M563,862.92c-13.14-7.53-31.32-15.31-45.63-17.6l23.78-8.62,12.75-21.83C553.53,829.36,557.9,848.64,563,862.92Z"/><path id="_クリッピングパス_" data-name="&lt;クリッピングパス&gt;" class="cls-9" d="M968.29,753.66a25,25,0,0,0-25,25h0a25,25,0,0,0,25,25h35v-50Z"/><path id="_クリッピングパス_2" data-name="&lt;クリッピングパス&gt;" class="cls-10" d="M968.29,753.66a25,25,0,0,0-25,25h0a25,25,0,0,0,25,25h35v-50Z"/><path class="cls-1" d="M1318.29,753.66h-315v50h315a25,25,0,0,0,25-25h0A25,25,0,0,0,1318.29,753.66Z"/><text class="cls-2" transform="translate(1023.29 790.06)"><tspan class="cls-11">岩美</tspan><tspan class="cls-12" x="110" y="0">駅</tspan><tspan class="cls-4" x="155" y="-3.8">(Iwami Sta.)</tspan></text><line class="cls-1" x1="888.93" y1="874.29" x2="1163.29" y2="803.66"/><circle class="cls-1" cx="888.93" cy="874.29" r="10"/><rect class="cls-13" x="-8103" y="-1020" width="11720" height="11720"/></svg>