<svg id="_13zoom" data-name="13zoom" xmlns="http://www.w3.org/2000/svg" xmlns:xlink="http://www.w3.org/1999/xlink" viewBox="0 0 1024 1024"><defs><style>.cls-1,.cls-3,.cls-8{fill:#231815;}.cls-1,.cls-11,.cls-2,.cls-5,.cls-7{stroke:#231815;}.cls-1,.cls-11,.cls-2,.cls-5,.cls-6,.cls-7{stroke-miterlimit:10;}.cls-1,.cls-11,.cls-2{stroke-width:4px;}.cls-10,.cls-2{fill:#fff;}.cls-3{font-size:30px;}.cls-10,.cls-3{font-family:NotoSansMonoCJKjp-Regular-90ms-RKSJ-H, Noto Sans Mono CJK JP;}.cls-4{font-size:20px;}.cls-11,.cls-13,.cls-5,.cls-6,.cls-7{fill:none;}.cls-5,.cls-6{stroke-linecap:round;}.cls-5{stroke-width:8.79px;}.cls-6{stroke:#00ada9;stroke-width:4.4px;}.cls-7{stroke-width:5px;}.cls-9{clip-path:url(#clip-path);}.cls-10{font-size:48px;}.cls-12{letter-spacing:0.5em;}</style><clipPath id="clip-path"><path id="_クリッピングパス_" data-name="&lt;クリッピングパス&gt;" class="cls-1" d="M844.79,579.16a25,25,0,0,0-25,25h0a25,25,0,0,0,25,25h35v-50Z"/></clipPath></defs><title>3232_7152</title><rect id="_長方形_" data-name="&lt;長方形&gt;" class="cls-2" x="599.52" y="116.02" width="400" height="100"/><text class="cls-3" transform="translate(739.52 155.14)">中河原線<tspan class="cls-4"><tspan x="-70" y="27.2">(local bus)Nakagawara line</tspan></tspan></text><line class="cls-5" x1="699.52" y1="196.02" x2="899.52" y2="196.02"/><line class="cls-6" x1="699.52" y1="196.02" x2="899.52" y2="196.02"/><line class="cls-7" x1="799.52" y1="216.02" x2="550.97" y2="377.09"/><path class="cls-8" d="M525.64,393.5c9.05-12.14,19-29.27,22.94-43.2l5.71,24.64,20.15,15.27C560.09,388.16,540.42,390.2,525.64,393.5Z"/><path id="_クリッピングパス_2" data-name="&lt;クリッピングパス&gt;" class="cls-8" d="M844.79,579.16a25,25,0,0,0-25,25h0a25,25,0,0,0,25,25h35v-50Z"/><g class="cls-9"><text class="cls-10" transform="translate(830.79 620.13)">37</text></g><path id="_クリッピングパス_3" data-name="&lt;クリッピングパス&gt;" class="cls-11" d="M844.79,579.16a25,25,0,0,0-25,25h0a25,25,0,0,0,25,25h35v-50Z"/><path class="cls-2" d="M1194.79,579.16h-315v50h315a25,25,0,0,0,25-25h0A25,25,0,0,0,1194.79,579.16Z"/><text class="cls-3" transform="translate(899.79 615.56)"><tspan class="cls-12">山崎橋</tspan><tspan class="cls-4" x="135" y="-3.8">Yamasaki Bashi</tspan></text><line class="cls-2" x1="918.93" y1="492.1" x2="1039.79" y2="579.16"/><circle class="cls-2" cx="918.93" cy="492.1" r="10"/><rect class="cls-13" x="-8103" y="-5116" width="11720" height="11720"/></svg>