<svg id="_13zoom" data-name="13zoom" xmlns="http://www.w3.org/2000/svg" viewBox="0 0 1024 1024"><defs><style>.cls-1{fill:#fff;}.cls-1,.cls-4,.cls-7{stroke:#231815;}.cls-1,.cls-4,.cls-5,.cls-7{stroke-miterlimit:10;}.cls-1,.cls-7{stroke-width:4px;}.cls-2{font-size:30px;}.cls-2,.cls-6,.cls-8{fill:#231815;}.cls-2,.cls-8{font-family:NotoSansMonoCJKjp-Regular-90ms-RKSJ-H, Noto Sans Mono CJK JP;}.cls-3{font-size:20px;}.cls-16,.cls-4,.cls-5,.cls-7{fill:none;}.cls-4,.cls-5{stroke-linecap:round;}.cls-4{stroke-width:8.79px;}.cls-5{stroke:#ef845d;stroke-width:4.4px;}.cls-8{font-size:25px;}.cls-9{letter-spacing:-0.08em;}.cls-10{letter-spacing:-0.02em;}.cls-11{letter-spacing:-0.02em;}.cls-12{letter-spacing:-0.03em;}.cls-13{letter-spacing:-0.03em;}.cls-14{letter-spacing:0.36em;}.cls-15{font-size:15px;}</style></defs><title>3230_7147</title><rect id="_長方形_" data-name="&lt;長方形&gt;" class="cls-1" x="993.07" y="-31.46" width="400" height="100"/><rect id="_長方形_2" data-name="&lt;長方形&gt;" class="cls-1" x="865" y="465" width="400" height="100"/><text class="cls-2" transform="translate(1020 504.12)">湖岸線<tspan class="cls-3"><tspan x="-60" y="27.2">(local bus)Kogan line</tspan></tspan></text><line class="cls-4" x1="965" y1="545" x2="1165" y2="545"/><line class="cls-5" x1="965" y1="545" x2="1165" y2="545"/><path id="_クリッピングパス_" data-name="&lt;クリッピングパス&gt;" class="cls-6" d="M778.87,300.74a25,25,0,0,0-25,25h0a25,25,0,0,0,25,25h35v-50Z"/><path id="_クリッピングパス_2" data-name="&lt;クリッピングパス&gt;" class="cls-7" d="M778.87,300.74a25,25,0,0,0-25,25h0a25,25,0,0,0,25,25h35v-50Z"/><path class="cls-1" d="M1128.87,300.74h-315v50h315a25,25,0,0,0,25-25h0A25,25,0,0,0,1128.87,300.74Z"/><text class="cls-8" transform="translate(822.04 332.74)"><tspan class="cls-9">白</tspan><tspan class="cls-10" x="22.98" y="0">兎</tspan><tspan class="cls-11" x="47.46" y="0">養</tspan><tspan class="cls-12" x="71.92" y="0">護</tspan><tspan class="cls-13" x="96.12" y="0">学</tspan><tspan class="cls-14" x="120.4" y="0">校</tspan><tspan class="cls-15" x="154.34" y="-3.8">(Hakuto Special School)</tspan></text><line class="cls-1" x1="1062.18" y1="210.72" x2="973.87" y2="300.74"/><rect class="cls-16" x="-2983" y="-3068" width="11720" height="11720"/></svg>