<svg id="_13zoom" data-name="13zoom" xmlns="http://www.w3.org/2000/svg" viewBox="0 0 1024 1024"><defs><style>.cls-1{fill:#fff;stroke-width:4px;}.cls-1,.cls-4,.cls-6{stroke:#231815;}.cls-1,.cls-4,.cls-5,.cls-6{stroke-miterlimit:10;}.cls-2,.cls-7{font-size:30px;fill:#231815;font-family:NotoSansMonoCJKjp-Regular-90ms-RKSJ-H, Noto Sans Mono CJK JP;}.cls-12,.cls-13,.cls-14,.cls-15,.cls-16,.cls-17,.cls-18,.cls-19,.cls-20,.cls-21,.cls-22,.cls-23,.cls-24,.cls-25,.cls-26,.cls-27,.cls-28,.cls-29,.cls-3{font-size:20px;}.cls-30,.cls-4,.cls-5,.cls-6{fill:none;}.cls-4,.cls-5{stroke-linecap:round;}.cls-4{stroke-width:8.79px;}.cls-5{stroke:#187fc4;stroke-width:4.4px;}.cls-6{stroke-width:5px;}.cls-7{letter-spacing:-0.05em;}.cls-8{letter-spacing:-0.07em;}.cls-9{letter-spacing:-0.06em;}.cls-10{letter-spacing:-0.03em;}.cls-11{letter-spacing:0.17em;}.cls-12{letter-spacing:-0.07em;}.cls-13{letter-spacing:-0.06em;}.cls-14{letter-spacing:-0.06em;}.cls-15{letter-spacing:-0.11em;}.cls-16{letter-spacing:-0.04em;}.cls-17{letter-spacing:-0.07em;}.cls-18{letter-spacing:-0.05em;}.cls-19{letter-spacing:-0.02em;}.cls-20{letter-spacing:-0.04em;}.cls-21{letter-spacing:-0.05em;}.cls-22{letter-spacing:-0.06em;}.cls-23{letter-spacing:-0.03em;}.cls-24{letter-spacing:-0.02em;}.cls-25{letter-spacing:-0.05em;}.cls-26{letter-spacing:-0.04em;}.cls-27{letter-spacing:-0.1em;}.cls-28{letter-spacing:-0.07em;}.cls-29{letter-spacing:-0.07em;}</style></defs><title>3231_7147</title><rect id="_長方形_" data-name="&lt;長方形&gt;" class="cls-1" x="785" y="126.83" width="400" height="100"/><text class="cls-2" transform="translate(940 165.95)">吉岡線<tspan class="cls-3"><tspan x="-75" y="27.2">(local bus)Yoshioka line</tspan></tspan></text><line class="cls-4" x1="885" y1="206.83" x2="1085" y2="206.83"/><line class="cls-5" x1="885" y1="206.83" x2="1085" y2="206.83"/><line class="cls-6" x1="985" y1="226.83" x2="1095.68" y2="440.08"/><path class="cls-1" d="M47.79,1021.38h-315v50h315a25,25,0,0,0,25-25h0A25,25,0,0,0,47.79,1021.38Z"/><text class="cls-7" transform="translate(-257.75 1057.78)">鹿<tspan class="cls-8" x="28.64" y="0">野</tspan><tspan class="cls-9" x="56.69" y="0">営</tspan><tspan class="cls-10" x="84.83" y="0">業</tspan><tspan class="cls-11" x="113.85" y="0">所</tspan><tspan class="cls-12" x="147.51" y="-3.8">(</tspan><tspan class="cls-13" x="156.18" y="-3.8">S</tspan><tspan class="cls-14" x="165.05" y="-3.8">h</tspan><tspan class="cls-15" x="173.81" y="-3.8">i</tspan><tspan class="cls-16" x="181.58" y="-3.8">k</tspan><tspan class="cls-17" x="190.79" y="-3.8">a</tspan><tspan class="cls-18" x="199.47" y="-3.8">n</tspan><tspan class="cls-19" x="208.48" y="-3.8">o</tspan><tspan class="cls-20" x="218.04" y="-3.8"> </tspan><tspan class="cls-21" x="227.27" y="-3.8">B</tspan><tspan class="cls-22" x="236.34" y="-3.8">u</tspan><tspan class="cls-23" x="245.12" y="-3.8">s</tspan><tspan class="cls-24" x="254.56" y="-3.8"> </tspan><tspan class="cls-13" x="264.19" y="-3.8">O</tspan><tspan class="cls-25" x="273.06" y="-3.8">f</tspan><tspan class="cls-26" x="282.13" y="-3.8">f</tspan><tspan class="cls-27" x="291.27" y="-3.8">i</tspan><tspan class="cls-25" x="299.22" y="-3.8">c</tspan><tspan class="cls-28" x="308.29" y="-3.8">e</tspan><tspan class="cls-29" x="316.95" y="-3.8">)</tspan></text><rect class="cls-30" x="-2983" y="-4092" width="11720" height="11720"/></svg>