<svg id="_13zoom" data-name="13zoom" xmlns="http://www.w3.org/2000/svg" xmlns:xlink="http://www.w3.org/1999/xlink" viewBox="0 0 1024 1024"><defs><style>.cls-1,.cls-3,.cls-8{fill:#231815;}.cls-1,.cls-11,.cls-2,.cls-5,.cls-7{stroke:#231815;}.cls-1,.cls-11,.cls-2,.cls-5,.cls-6,.cls-7{stroke-miterlimit:10;}.cls-1,.cls-11,.cls-2{stroke-width:4px;}.cls-10,.cls-2{fill:#fff;}.cls-3{font-size:30px;}.cls-10,.cls-3{font-family:NotoSansMonoCJKjp-Regular-90ms-RKSJ-H, Noto Sans Mono CJK JP;}.cls-14,.cls-4{font-size:20px;}.cls-11,.cls-15,.cls-5,.cls-6,.cls-7{fill:none;}.cls-5,.cls-6{stroke-linecap:round;}.cls-5{stroke-width:8.79px;}.cls-6{stroke:#ca2e34;stroke-width:4.4px;}.cls-7{stroke-width:5px;}.cls-9{clip-path:url(#clip-path);}.cls-10{font-size:48px;}.cls-12{letter-spacing:1.11em;}.cls-13{letter-spacing:0.61em;}.cls-14{letter-spacing:0.17em;}</style><clipPath id="clip-path"><path id="_クリッピングパス_" data-name="&lt;クリッピングパス&gt;" class="cls-1" d="M402,735a25,25,0,0,0-25,25h0a25,25,0,0,0,25,25h35V735Z"/></clipPath></defs><title>3233_7147</title><rect id="_長方形_" data-name="&lt;長方形&gt;" class="cls-2" x="277.89" y="175.86" width="400" height="100"/><text class="cls-3" transform="translate(432.89 214.98)">松上線<tspan class="cls-4"><tspan x="-80" y="27.2">(local bus)Matsugami line</tspan></tspan></text><line class="cls-5" x1="377.89" y1="255.86" x2="577.89" y2="255.86"/><line class="cls-6" x1="377.89" y1="255.86" x2="577.89" y2="255.86"/><line class="cls-7" x1="477.89" y1="175.86" x2="510.24" y2="42.81"/><path class="cls-8" d="M517.37,13.49c1.76,15,6.34,34.28,13,47.14l-21.08-14L484.17,49.4C496,41,508.9,26,517.37,13.49Z"/><path id="_クリッピングパス_2" data-name="&lt;クリッピングパス&gt;" class="cls-8" d="M402,735a25,25,0,0,0-25,25h0a25,25,0,0,0,25,25h35V735Z"/><g class="cls-9"><text class="cls-10" transform="translate(388 775.97)">71</text></g><path id="_クリッピングパス_3" data-name="&lt;クリッピングパス&gt;" class="cls-11" d="M402,735a25,25,0,0,0-25,25h0a25,25,0,0,0,25,25h35V735Z"/><path class="cls-2" d="M752,735H437v50H752a25,25,0,0,0,25-25h0A25,25,0,0,0,752,735Z"/><text class="cls-3" transform="translate(487 771.4)"><tspan class="cls-12">岩</tspan><tspan class="cls-13" x="63.33" y="0">坪</tspan><tspan class="cls-14" x="111.67" y="-3.8">Iwatsub</tspan><tspan class="cls-4" x="205" y="-3.8">o</tspan></text><line class="cls-2" x1="742.7" y1="614.05" x2="597" y2="735"/><circle class="cls-2" cx="742.7" cy="614.05" r="10"/><line class="cls-2" x1="234.22" y1="87.57" x2="33.03" y2="-23.46"/><circle class="cls-2" cx="234.22" cy="87.57" r="10"/><rect class="cls-15" x="-2983" y="-6140" width="11720" height="11720"/></svg>