<svg id="_13zoom" data-name="13zoom" xmlns="http://www.w3.org/2000/svg" viewBox="0 0 1024 1024"><defs><style>.cls-1,.cls-4{fill:#231815;}.cls-2,.cls-9{fill:none;}.cls-2,.cls-3{stroke:#231815;stroke-miterlimit:10;stroke-width:4px;}.cls-3{fill:#fff;}.cls-4{font-size:30px;font-family:NotoSansMonoCJKjp-Regular-90ms-RKSJ-H, Noto Sans Mono CJK JP;}.cls-5{letter-spacing:1.11em;}.cls-6{letter-spacing:0.61em;}.cls-7,.cls-8{font-size:20px;}.cls-7{letter-spacing:0.17em;}</style></defs><title>3234_7147</title><path id="_クリッピングパス_" data-name="&lt;クリッピングパス&gt;" class="cls-1" d="M747.94,149.91a25,25,0,0,0-25,25h0a25,25,0,0,0,25,25h35v-50Z"/><path id="_クリッピングパス_2" data-name="&lt;クリッピングパス&gt;" class="cls-2" d="M747.94,149.91a25,25,0,0,0-25,25h0a25,25,0,0,0,25,25h35v-50Z"/><path class="cls-3" d="M1097.94,149.91h-315v50h315a25,25,0,0,0,25-25h0A25,25,0,0,0,1097.94,149.91Z"/><text class="cls-4" transform="translate(832.94 186.31)"><tspan class="cls-5">北</tspan><tspan class="cls-6" x="63.33" y="0">村</tspan><tspan class="cls-7" x="111.67" y="-3.8">Kitamur</tspan><tspan class="cls-8" x="205" y="-3.8">a</tspan></text><line class="cls-3" x1="1150.68" y1="242.51" x2="942.94" y2="199.91"/><rect class="cls-9" x="-2983" y="-7164" width="11720" height="11720"/></svg>