<svg id="_13zoom" data-name="13zoom" xmlns="http://www.w3.org/2000/svg" xmlns:xlink="http://www.w3.org/1999/xlink" viewBox="0 0 1024 1024"><defs><style>.cls-1,.cls-15,.cls-19,.cls-3{fill:#231815;}.cls-1,.cls-10,.cls-12,.cls-14,.cls-18,.cls-2,.cls-7,.cls-9{stroke:#231815;}.cls-1,.cls-10,.cls-11,.cls-12,.cls-13,.cls-14,.cls-18,.cls-2,.cls-7,.cls-8,.cls-9{stroke-miterlimit:10;}.cls-1,.cls-18,.cls-2{stroke-width:4px;}.cls-17,.cls-2{fill:#fff;}.cls-19,.cls-3{font-size:30px;}.cls-17,.cls-19,.cls-3{font-family:NotoSansMonoCJKjp-Regular-90ms-RKSJ-H, Noto Sans Mono CJK JP;}.cls-4,.cls-5{letter-spacing:0.25em;}.cls-23,.cls-24,.cls-25,.cls-26,.cls-27,.cls-28,.cls-29,.cls-30,.cls-31,.cls-32,.cls-33,.cls-34,.cls-35,.cls-36,.cls-37,.cls-38,.cls-39,.cls-40,.cls-41,.cls-42,.cls-43,.cls-5,.cls-6{font-size:20px;}.cls-10,.cls-11,.cls-12,.cls-13,.cls-14,.cls-18,.cls-44,.cls-7,.cls-8,.cls-9{fill:none;}.cls-10,.cls-11,.cls-12,.cls-13,.cls-7,.cls-8,.cls-9{stroke-linecap:round;}.cls-11,.cls-13,.cls-7{stroke-width:8.79px;}.cls-8{stroke:#ee87b4;}.cls-10,.cls-12,.cls-8,.cls-9{stroke-width:4.4px;}.cls-10{stroke-dasharray:0 28.57;}.cls-11{stroke:#59c3e1;}.cls-12{stroke-dasharray:0 29.3;}.cls-13{stroke:#70b058;}.cls-14{stroke-width:5px;}.cls-16{clip-path:url(#clip-path);}.cls-17{font-size:48px;}.cls-19{letter-spacing:-0.01em;}.cls-20{letter-spacing:0em;}.cls-21{letter-spacing:-0.02em;}.cls-22{letter-spacing:0.35em;}.cls-23{letter-spacing:-0.07em;}.cls-24{letter-spacing:-0.05em;}.cls-25{letter-spacing:-0.07em;}.cls-26{letter-spacing:-0.05em;}.cls-27{letter-spacing:-0.03em;}.cls-28{letter-spacing:-0.03em;}.cls-29{letter-spacing:-0.05em;}.cls-30{letter-spacing:-0.07em;}.cls-31{letter-spacing:-0.05em;}.cls-32{letter-spacing:-0.05em;}.cls-33{letter-spacing:-0.03em;}.cls-34{letter-spacing:-0.01em;}.cls-35{letter-spacing:-0.04em;}.cls-36{letter-spacing:-0.08em;}.cls-37{letter-spacing:-0.04em;}.cls-38{letter-spacing:-0.05em;}.cls-39{letter-spacing:-0.11em;}.cls-40{letter-spacing:-0.06em;}.cls-41{letter-spacing:-0.06em;}.cls-42{letter-spacing:-0.07em;}.cls-43{letter-spacing:-0.07em;}</style><clipPath id="clip-path"><path id="_クリッピングパス_" data-name="&lt;クリッピングパス&gt;" class="cls-1" d="M702.58,615.75a25,25,0,0,0-25,25h0a25,25,0,0,0,25,25h35v-50Z"/></clipPath></defs><title>3229_7150</title><rect id="_長方形_" data-name="&lt;長方形&gt;" class="cls-2" x="199.98" y="435" width="400" height="100"/><text class="cls-3" transform="translate(296.23 474.12)">砂丘<tspan class="cls-4" x="60" y="0">線</tspan><tspan class="cls-5" x="97.5" y="-3.8">(</tspan><tspan class="cls-6" x="112.5" y="-3.8">共同運</tspan><tspan class="cls-5" x="172.5" y="-3.8">行</tspan><tspan class="cls-6" x="197.5" y="-3.8">)</tspan><tspan class="cls-6"><tspan x="-91.25" y="27.2">(local bus)Sakyu line(Nikko + hinomaru)</tspan></tspan></text><line class="cls-7" x1="299.98" y1="515" x2="499.98" y2="515"/><line class="cls-8" x1="299.98" y1="515" x2="499.98" y2="515"/><line class="cls-9" x1="299.98" y1="515" x2="299.98" y2="515"/><line class="cls-10" x1="328.55" y1="515" x2="485.69" y2="515"/><line class="cls-9" x1="499.98" y1="515" x2="499.98" y2="515"/><rect id="_長方形_2" data-name="&lt;長方形&gt;" class="cls-2" x="33.54" y="897.12" width="400" height="100"/><text class="cls-3" transform="translate(128.54 936.24)">大森中央病院線<tspan class="cls-6"><tspan x="-55" y="27.2">(local bus)Omori Chuo Byoin line</tspan></tspan></text><line class="cls-11" x1="133.54" y1="977.12" x2="333.54" y2="977.12"/><line class="cls-12" x1="133.54" y1="977.12" x2="333.54" y2="977.12"/><rect id="_長方形_3" data-name="&lt;長方形&gt;" class="cls-2" x="-229.12" y="684.87" width="400" height="100"/><text class="cls-3" transform="translate(-104.12 723.99)">十六本松線<tspan class="cls-6"><tspan x="-75" y="27.2">(local bus)Jyuroppommatsu line</tspan></tspan></text><line class="cls-13" x1="-129.12" y1="764.87" x2="70.88" y2="764.87"/><line class="cls-10" x1="-100.55" y1="764.87" x2="56.6" y2="764.87"/><line class="cls-9" x1="70.88" y1="764.87" x2="70.88" y2="764.87"/><line class="cls-14" x1="399.98" y1="535" x2="618.17" y2="747.25"/><path class="cls-15" d="M639.8,768.29c-13.85-6.12-32.74-12-47.21-12.75l22.75-11,10.41-23C626.94,735.89,633.3,754.62,639.8,768.29Z"/><line class="cls-14" x1="1047.99" y1="1151.55" x2="970.37" y2="983.97"/><path class="cls-15" d="M957.69,956.59c10.74,10.67,26.3,22.87,39.53,28.78L972,987.56l-18,17.8C958.12,991.45,958.88,971.68,957.69,956.59Z"/><line class="cls-14" x1="233.54" y1="997.12" x2="175.22" y2="1254.08"/><path id="_クリッピングパス_2" data-name="&lt;クリッピングパス&gt;" class="cls-15" d="M702.58,615.75a25,25,0,0,0-25,25h0a25,25,0,0,0,25,25h35v-50Z"/><g class="cls-16"><text class="cls-17" transform="translate(688.58 656.72)">20</text></g><path id="_クリッピングパス_3" data-name="&lt;クリッピングパス&gt;" class="cls-18" d="M702.58,615.75a25,25,0,0,0-25,25h0a25,25,0,0,0,25,25h35v-50Z"/><path class="cls-2" d="M1052.58,615.75h-315v50h315a25,25,0,0,0,25-25h0A25,25,0,0,0,1052.58,615.75Z"/><text class="cls-19" transform="translate(756.89 652.16)">鳥<tspan class="cls-20" x="29.59" y="0">取</tspan><tspan class="cls-21" x="59.63" y="0">砂</tspan><tspan class="cls-22" x="89.17" y="0">丘</tspan><tspan class="cls-23" x="128.23" y="-3.8">(</tspan><tspan class="cls-24" x="136.9" y="-3.8">S</tspan><tspan class="cls-25" x="145.87" y="-3.8">a</tspan><tspan class="cls-26" x="154.55" y="-3.8">n</tspan><tspan class="cls-27" x="163.54" y="-3.8">d</tspan><tspan class="cls-28" x="172.85" y="-3.8"> </tspan><tspan class="cls-29" x="182.23" y="-3.8">D</tspan><tspan class="cls-30" x="191.32" y="-3.8">u</tspan><tspan class="cls-31" x="199.93" y="-3.8">n</tspan><tspan class="cls-32" x="208.88" y="-3.8">e</tspan><tspan class="cls-33" x="217.91" y="-3.8">s</tspan><tspan class="cls-34" x="227.35" y="-3.8"> </tspan><tspan class="cls-35" x="237.07" y="-3.8">T</tspan><tspan class="cls-36" x="246.29" y="-3.8">e</tspan><tspan class="cls-37" x="254.72" y="-3.8">r</tspan><tspan class="cls-38" x="263.93" y="-3.8">m</tspan><tspan class="cls-39" x="272.97" y="-3.8">i</tspan><tspan class="cls-40" x="280.83" y="-3.8">n</tspan><tspan class="cls-41" x="289.71" y="-3.8">a</tspan><tspan class="cls-42" x="298.48" y="-3.8">l</tspan><tspan class="cls-43" x="307.1" y="-3.8">)</tspan></text><line class="cls-2" x1="645.05" y1="729.24" x2="897.58" y2="665.75"/><circle class="cls-2" cx="645.05" cy="729.24" r="10"/><rect class="cls-44" x="-6055" y="-2044" width="11720" height="11720"/></svg>