<svg id="_13zoom" data-name="13zoom" xmlns="http://www.w3.org/2000/svg" xmlns:xlink="http://www.w3.org/1999/xlink" viewBox="0 0 1024 1024"><defs><style>.cls-1,.cls-14,.cls-3,.cls-39{fill:#231815;}.cls-1,.cls-10,.cls-12,.cls-13,.cls-2,.cls-38,.cls-5,.cls-9{stroke:#231815;}.cls-1,.cls-10,.cls-11,.cls-12,.cls-13,.cls-2,.cls-38,.cls-5,.cls-6,.cls-8,.cls-9{stroke-miterlimit:10;}.cls-1,.cls-2,.cls-38{stroke-width:4px;}.cls-2,.cls-37{fill:#fff;}.cls-3{font-size:30px;}.cls-3,.cls-37,.cls-39{font-family:NotoSansMonoCJKjp-Regular-90ms-RKSJ-H, Noto Sans Mono CJK JP;}.cls-16,.cls-17,.cls-18,.cls-19,.cls-20,.cls-21,.cls-22,.cls-23,.cls-24,.cls-25,.cls-26,.cls-27,.cls-28,.cls-29,.cls-30,.cls-31,.cls-32,.cls-33,.cls-34,.cls-35,.cls-4,.cls-47,.cls-48,.cls-49,.cls-50,.cls-51,.cls-52,.cls-53,.cls-54,.cls-55,.cls-56,.cls-57,.cls-58,.cls-59{font-size:20px;}.cls-10,.cls-11,.cls-12,.cls-13,.cls-38,.cls-5,.cls-6,.cls-61,.cls-8,.cls-9{fill:none;}.cls-10,.cls-11,.cls-12,.cls-5,.cls-6,.cls-8,.cls-9{stroke-linecap:round;}.cls-11,.cls-5,.cls-8{stroke-width:8.79px;}.cls-6{stroke:#ca2e34;}.cls-10,.cls-12,.cls-6,.cls-9{stroke-width:4.4px;}.cls-7{letter-spacing:0.25em;}.cls-8{stroke:#a97443;}.cls-10{stroke-dasharray:0 28.57;}.cls-11{stroke:#ba79b1;}.cls-12{stroke-dasharray:0 29.3;}.cls-13{stroke-width:5px;}.cls-15{letter-spacing:0.39em;}.cls-16{letter-spacing:-0.08em;}.cls-17{letter-spacing:-0.07em;}.cls-18{letter-spacing:-0.04em;}.cls-19{letter-spacing:-0.06em;}.cls-20{letter-spacing:-0.03em;}.cls-21{letter-spacing:-0.05em;}.cls-22{letter-spacing:-0.05em;}.cls-23{letter-spacing:-0.05em;}.cls-24{letter-spacing:-0.09em;}.cls-25{letter-spacing:-0.05em;}.cls-26{letter-spacing:-0.03em;}.cls-27{letter-spacing:-0.03em;}.cls-28{letter-spacing:-0.05em;}.cls-29{letter-spacing:-0.05em;}.cls-30{letter-spacing:-0.06em;}.cls-31{letter-spacing:-0.06em;}.cls-32{letter-spacing:-0.1em;}.cls-33{letter-spacing:-0.05em;}.cls-34{letter-spacing:-0.07em;}.cls-35{letter-spacing:-0.07em;}.cls-36{clip-path:url(#clip-path);}.cls-37{font-size:48px;}.cls-39{font-size:25px;letter-spacing:-0.09em;}.cls-40{letter-spacing:-0.14em;}.cls-41{letter-spacing:-0.21em;}.cls-42{letter-spacing:-0.2em;}.cls-43{letter-spacing:-0.15em;}.cls-44{letter-spacing:-0.21em;}.cls-45{letter-spacing:-0.21em;}.cls-46{letter-spacing:0.01em;}.cls-47{letter-spacing:-0.04em;}.cls-48{letter-spacing:-0.06em;}.cls-49{letter-spacing:-0.05em;}.cls-50{letter-spacing:-0.02em;}.cls-51{letter-spacing:-0.03em;}.cls-52{letter-spacing:-0.06em;}.cls-53{letter-spacing:-0.02em;}.cls-54{letter-spacing:0em;}.cls-55{letter-spacing:-0.01em;}.cls-56{letter-spacing:-0.04em;}.cls-57{letter-spacing:-0.02em;}.cls-58{letter-spacing:-0.03em;}.cls-59{letter-spacing:-0.03em;}.cls-60{letter-spacing:0.33em;}</style><clipPath id="clip-path"><path id="_クリッピングパス_" data-name="&lt;クリッピングパス&gt;" class="cls-1" d="M890.53,261.19a25,25,0,0,0-25,25h0a25,25,0,0,0,25,25h35v-50Z"/></clipPath></defs><title>3230_7150</title><rect id="_長方形_" data-name="&lt;長方形&gt;" class="cls-2" x="-218.95" y="668.35" width="400" height="100"/><text class="cls-3" transform="translate(-108.95 707.47)">日ノ丸本社線<tspan class="cls-4"><tspan x="-65" y="27.2">(local bus)Hinomaru Honsha line</tspan></tspan></text><line class="cls-5" x1="-118.95" y1="748.35" x2="81.05" y2="748.35"/><line class="cls-6" x1="-118.95" y1="748.35" x2="81.05" y2="748.35"/><rect id="_長方形_2" data-name="&lt;長方形&gt;" class="cls-2" x="847.99" y="127.55" width="400" height="100"/><text class="cls-3" transform="translate(946.74 166.67)">岩井<tspan class="cls-7" x="60" y="0">線(</tspan><tspan x="120" y="0">快</tspan><tspan class="cls-7" x="150" y="0">速</tspan><tspan x="187.5" y="0">)</tspan><tspan class="cls-4"><tspan x="-33.75" y="27.2">(local bus)Iwai line(Rapid)</tspan></tspan></text><line class="cls-8" x1="947.99" y1="207.55" x2="1147.99" y2="207.55"/><line class="cls-9" x1="947.99" y1="207.55" x2="947.99" y2="207.55"/><line class="cls-10" x1="976.56" y1="207.55" x2="1133.7" y2="207.55"/><rect id="_長方形_3" data-name="&lt;長方形&gt;" class="cls-2" x="708.52" y="563" width="400" height="100"/><text class="cls-3" transform="translate(833.52 602.12)">北園団地線<tspan class="cls-4"><tspan x="-75" y="27.2">(local bus)Kitazono line(loop)</tspan></tspan></text><line class="cls-11" x1="808.52" y1="643" x2="1008.52" y2="643"/><line class="cls-12" x1="808.52" y1="643" x2="1008.52" y2="643"/><rect id="_長方形_4" data-name="&lt;長方形&gt;" class="cls-2" x="666.47" y="1018.37" width="400" height="100"/><line class="cls-13" x1="1047.99" y1="127.55" x2="970.37" y2="-40.03"/><line class="cls-13" x1="908.52" y1="563" x2="882.68" y2="520.77"/><path class="cls-14" d="M866.92,495c11.91,9.36,28.77,19.7,42.6,24l-24.78,5.08L869,543.89C871.38,529.61,869.85,509.89,866.92,495Z"/><line class="cls-13" x1="233.54" y1="-26.88" x2="175.22" y2="230.08"/><path class="cls-14" d="M168.54,259.51c-2-15-6.86-34.18-13.73-46.94l21.28,13.65,25.09-3.12C189.48,231.64,176.81,246.83,168.54,259.51Z"/><path class="cls-2" d="M75.08,113.48h-315v50h315a25,25,0,0,0,25-25h0A25,25,0,0,0,75.08,113.48Z"/><text class="cls-3" transform="translate(-229.92 149.88)">中央病<tspan class="cls-15" x="90" y="0">院</tspan><tspan class="cls-16" x="130.25" y="-3.8">(</tspan><tspan class="cls-17" x="138.66" y="-3.8">P</tspan><tspan class="cls-18" x="147.2" y="-3.8">r</tspan><tspan class="cls-19" x="156.3" y="-3.8">e</tspan><tspan class="cls-20" x="165.07" y="-3.8">f</tspan><tspan class="cls-21" x="174.4" y="-3.8">e</tspan><tspan class="cls-22" x="183.35" y="-3.8">c</tspan><tspan class="cls-23" x="192.44" y="-3.8">t</tspan><tspan class="cls-24" x="201.47" y="-3.8">u</tspan><tspan class="cls-25" x="209.65" y="-3.8">r</tspan><tspan class="cls-19" x="218.68" y="-3.8">a</tspan><tspan class="cls-26" x="227.45" y="-3.8">l</tspan><tspan class="cls-27" x="236.94" y="-3.8"> </tspan><tspan class="cls-28" x="246.35" y="-3.8">H</tspan><tspan class="cls-29" x="255.32" y="-3.8">o</tspan><tspan class="cls-30" x="264.38" y="-3.8">s</tspan><tspan class="cls-31" x="273.13" y="-3.8">p</tspan><tspan class="cls-32" x="281.98" y="-3.8">i</tspan><tspan class="cls-33" x="290.03" y="-3.8">t</tspan><tspan class="cls-19" x="299.02" y="-3.8">a</tspan><tspan class="cls-34" x="307.79" y="-3.8">l</tspan><tspan class="cls-35" x="316.41" y="-3.8">)</tspan></text><line class="cls-2" x1="106.58" y1="284.64" x2="-79.92" y2="163.48"/><circle class="cls-2" cx="106.58" cy="284.64" r="10"/><path id="_クリッピングパス_2" data-name="&lt;クリッピングパス&gt;" class="cls-14" d="M890.53,261.19a25,25,0,0,0-25,25h0a25,25,0,0,0,25,25h35v-50Z"/><g class="cls-36"><text class="cls-37" transform="translate(888.53 302.16)">7</text></g><path id="_クリッピングパス_3" data-name="&lt;クリッピングパス&gt;" class="cls-38" d="M890.53,261.19a25,25,0,0,0-25,25h0a25,25,0,0,0,25,25h35v-50Z"/><path class="cls-2" d="M1240.53,261.19h-315v50h315a25,25,0,0,0,25-25h0A25,25,0,0,0,1240.53,261.19Z"/><text class="cls-39" transform="translate(934.79 293.19)">北<tspan class="cls-40" x="22.72" y="0">園</tspan><tspan class="cls-41" x="44.18" y="0">ニ</tspan><tspan class="cls-42" x="63.94" y="0">ュ</tspan><tspan class="cls-43" x="84.02" y="0">ー</tspan><tspan class="cls-44" x="105.16" y="0">タ</tspan><tspan class="cls-45" x="124.88" y="0">ウ</tspan><tspan class="cls-46" x="144.7" y="0">ン</tspan><tspan class="cls-47" x="169.2" y="-1.9">K</tspan><tspan class="cls-32" x="178.35" y="-1.9">i</tspan><tspan class="cls-33" x="186.4" y="-1.9">t</tspan><tspan class="cls-19" x="195.39" y="-1.9">a</tspan><tspan class="cls-25" x="204.16" y="-1.9">z</tspan><tspan class="cls-48" x="213.19" y="-1.9">o</tspan><tspan class="cls-49" x="222.08" y="-1.9">n</tspan><tspan class="cls-50" x="231.09" y="-1.9">o</tspan><tspan class="cls-51" x="240.65" y="-1.9"> </tspan><tspan class="cls-52" x="250.03" y="-1.9">N</tspan><tspan class="cls-53" x="258.91" y="-1.9">e</tspan><tspan class="cls-54" x="268.43" y="-1.9">w</tspan><tspan class="cls-55" x="278.42" y="-1.9"> </tspan><tspan class="cls-56" x="288.14" y="-1.9">T</tspan><tspan class="cls-57" x="297.42" y="-1.9">o</tspan><tspan class="cls-58" x="306.97" y="-1.9">w</tspan><tspan class="cls-59" x="316.29" y="-1.9">n</tspan></text><line class="cls-2" x1="762.04" y1="356.21" x2="1085.53" y2="311.19"/><circle class="cls-2" cx="762.04" cy="356.21" r="10"/><path id="_クリッピングパス_4" data-name="&lt;クリッピングパス&gt;" class="cls-14" d="M659.54,890.26a25,25,0,0,0-25,25h0a25,25,0,0,0,25,25h35v-50Z"/><path id="_クリッピングパス_5" data-name="&lt;クリッピングパス&gt;" class="cls-38" d="M659.54,890.26a25,25,0,0,0-25,25h0a25,25,0,0,0,25,25h35v-50Z"/><path class="cls-2" d="M1009.54,890.26h-315v50h315a25,25,0,0,0,25-25h0A25,25,0,0,0,1009.54,890.26Z"/><text class="cls-3" transform="translate(699.54 926.66)">鳥取<tspan class="cls-60" x="60" y="0">駅</tspan><tspan class="cls-4" x="100" y="-3.8">(Tottori Sta. terminal)</tspan></text><line class="cls-2" x1="420.06" y1="1086.68" x2="854.54" y2="940.26"/><rect class="cls-61" x="-6055" y="-3068" width="11720" height="11720"/></svg>