<svg id="_13zoom" data-name="13zoom" xmlns="http://www.w3.org/2000/svg" viewBox="0 0 1024 1024"><defs><style>.cls-1{fill:#fff;stroke-width:4px;}.cls-1,.cls-7,.cls-9{stroke:#231815;}.cls-1,.cls-6,.cls-7,.cls-8,.cls-9{stroke-miterlimit:10;}.cls-2{font-size:30px;font-family:NotoSansMonoCJKjp-Regular-90ms-RKSJ-H, Noto Sans Mono CJK JP;}.cls-10,.cls-2{fill:#231815;}.cls-3,.cls-4{letter-spacing:0.25em;}.cls-4,.cls-5{font-size:20px;}.cls-11,.cls-6,.cls-7,.cls-8,.cls-9{fill:none;}.cls-6{stroke:#eb5d19;}.cls-6,.cls-7,.cls-8{stroke-linecap:round;}.cls-6,.cls-8{stroke-width:8.79px;}.cls-7{stroke-width:4.4px;stroke-dasharray:0 29.3;}.cls-8{stroke:#006b4b;}.cls-9{stroke-width:5px;}</style></defs><title>3231_7150</title><rect id="_長方形_" data-name="&lt;長方形&gt;" class="cls-1" x="666.47" y="-5.63" width="400" height="100"/><text class="cls-2" transform="translate(712.72 33.49)">市立病院<tspan class="cls-3" x="120" y="0">線</tspan><tspan class="cls-4" x="157.5" y="-3.8">(注:</tspan><tspan class="cls-5" x="212.5" y="-3.8">日本交</tspan><tspan class="cls-4" x="272.5" y="-3.8">通</tspan><tspan class="cls-5" x="297.5" y="-3.8">)</tspan><tspan class="cls-5"><tspan x="3.75" y="27.2">(local bus)Shiritsu Byoin line</tspan></tspan></text><line class="cls-6" x1="766.47" y1="74.37" x2="966.47" y2="74.37"/><line class="cls-7" x1="766.47" y1="74.37" x2="966.47" y2="74.37"/><rect id="_長方形_2" data-name="&lt;長方形&gt;" class="cls-1" x="371.31" y="876.73" width="400" height="100"/><text class="cls-2" transform="translate(407.56 915.85)">雲山日交<tspan class="cls-3" x="120" y="0">線</tspan><tspan class="cls-4" x="157.5" y="-3.8">(</tspan><tspan class="cls-5" x="172.5" y="-3.8">南大</tspan><tspan class="cls-4" x="212.5" y="-3.8">橋,</tspan><tspan class="cls-5" x="252.5" y="-3.8">大覚</tspan><tspan class="cls-4" x="292.5" y="-3.8">寺</tspan><tspan class="cls-5" x="317.5" y="-3.8">)</tspan><tspan class="cls-5"><tspan x="13.75" y="27.2">(local bus)Kumoyama Nikko line</tspan></tspan></text><line class="cls-8" x1="471.31" y1="956.73" x2="671.31" y2="956.73"/><line class="cls-7" x1="471.31" y1="956.73" x2="671.31" y2="956.73"/><line class="cls-9" x1="866.47" y1="94.37" x2="488.59" y2="253.3"/><path class="cls-10" d="M460.78,265c11-10.36,23.8-25.47,30.17-38.48l1.29,25.25,17.15,18.58C495.63,265.81,475.91,264.35,460.78,265Z"/><line class="cls-9" x1="571.31" y1="876.73" x2="658.51" y2="661.17"/><path class="cls-10" d="M669.83,633.19c-.44,15.14,1.28,34.85,6,48.54L657,664.84l-25.27-.94C644.68,657.34,659.62,644.38,669.83,633.19Z"/><line class="cls-9" x1="-364.61" y1="761" x2="283.34" y2="566.57"/><path class="cls-10" d="M312.24,557.9c-12.08,9.13-26.37,22.8-34.1,35.06l1.41-25.25-15.07-20.3C277.67,553.39,297.13,556.94,312.24,557.9Z"/><line class="cls-1" x1="420.06" y1="62.68" x2="854.54" y2="-83.74"/><circle class="cls-1" cx="420.06" cy="62.68" r="25"/><circle class="cls-1" cx="420.06" cy="62.68" r="15"/><rect class="cls-11" x="-6055" y="-4092" width="11720" height="11720"/></svg>