<svg id="_13zoom" data-name="13zoom" xmlns="http://www.w3.org/2000/svg" xmlns:xlink="http://www.w3.org/1999/xlink" viewBox="0 0 1024 1024"><defs><style>.cls-1,.cls-12,.cls-16,.cls-3{fill:#231815;}.cls-1,.cls-10,.cls-11,.cls-15,.cls-2,.cls-6{stroke:#231815;}.cls-1,.cls-10,.cls-11,.cls-15,.cls-2,.cls-6,.cls-7,.cls-8,.cls-9{stroke-miterlimit:10;}.cls-1,.cls-15,.cls-2{stroke-width:4px;}.cls-14,.cls-2{fill:#fff;}.cls-3{font-size:30px;}.cls-14,.cls-16,.cls-3{font-family:NotoSansMonoCJKjp-Regular-90ms-RKSJ-H, Noto Sans Mono CJK JP;}.cls-4{letter-spacing:0.25em;}.cls-5{font-size:20px;}.cls-10,.cls-11,.cls-15,.cls-30,.cls-6,.cls-7,.cls-8,.cls-9{fill:none;}.cls-10,.cls-6,.cls-7,.cls-8,.cls-9{stroke-linecap:round;}.cls-6,.cls-9{stroke-width:8.79px;}.cls-7{stroke:#a73766;}.cls-10,.cls-7,.cls-8{stroke-width:4.4px;}.cls-8{stroke:#006b4b;}.cls-9{stroke:#ba79b1;}.cls-10{stroke-dasharray:0 29.3;}.cls-11{stroke-width:5px;}.cls-13{clip-path:url(#clip-path);}.cls-14{font-size:48px;}.cls-16{font-size:25px;}.cls-17{letter-spacing:0.12em;}.cls-18{letter-spacing:0.5em;}.cls-19{font-size:15px;}.cls-20{clip-path:url(#clip-path-2);}.cls-21{letter-spacing:-0.12em;}.cls-22{letter-spacing:-0.13em;}.cls-23{letter-spacing:-0.06em;}.cls-24{letter-spacing:-0.07em;}.cls-25{letter-spacing:-0.1em;}.cls-26{letter-spacing:-0.05em;}.cls-27{letter-spacing:-0.09em;}.cls-28{letter-spacing:-0.05em;}.cls-29{clip-path:url(#clip-path-3);}</style><clipPath id="clip-path"><path id="_クリッピングパス_" data-name="&lt;クリッピングパス&gt;" class="cls-1" d="M204.8,400.47a25,25,0,0,0-25,25h0a25,25,0,0,0,25,25h35v-50Z"/></clipPath><clipPath id="clip-path-2"><path id="_クリッピングパス_2" data-name="&lt;クリッピングパス&gt;" class="cls-1" d="M708.85,668.08a25,25,0,0,0-25,25h0a25,25,0,0,0,25,25h35v-50Z"/></clipPath><clipPath id="clip-path-3"><path id="_クリッピングパス_3" data-name="&lt;クリッピングパス&gt;" class="cls-1" d="M1014.88,162.18a25,25,0,0,0-25,25h0a25,25,0,0,0,25,25h35v-50Z"/></clipPath></defs><title>3232_7150</title><rect id="_長方形_" data-name="&lt;長方形&gt;" class="cls-2" x="171.5" y="779.82" width="400" height="100"/><text class="cls-3" transform="translate(255.25 818.94)">南部幹<tspan class="cls-4" x="90" y="0">線(</tspan><tspan x="150" y="0">快</tspan><tspan class="cls-4" x="180" y="0">速</tspan><tspan x="217.5" y="0">)</tspan><tspan class="cls-5"><tspan x="-63.75" y="27.2">(local bus)South Shuttle line(Rapid)</tspan></tspan></text><line class="cls-6" x1="271.5" y1="859.82" x2="471.5" y2="859.82"/><line class="cls-7" x1="271.5" y1="859.82" x2="471.5" y2="859.82"/><rect id="_長方形_2" data-name="&lt;長方形&gt;" class="cls-2" x="171.5" y="629" width="400" height="100"/><text class="cls-3" transform="translate(255.25 668.12)">南部幹<tspan class="cls-4" x="90" y="0">線(</tspan><tspan x="150" y="0">普</tspan><tspan class="cls-4" x="180" y="0">通</tspan><tspan x="217.5" y="0">)</tspan><tspan class="cls-5"><tspan x="-63.75" y="27.2">(local bus)South Shuttle line(local)</tspan></tspan></text><line class="cls-6" x1="271.5" y1="709" x2="471.5" y2="709"/><line class="cls-8" x1="271.5" y1="709" x2="471.5" y2="709"/><rect id="_長方形_3" data-name="&lt;長方形&gt;" class="cls-2" x="334.26" y="211.78" width="400" height="100"/><text class="cls-3" transform="translate(459.26 250.9)">倉田八坂線<tspan class="cls-5"><tspan x="-75" y="27.2">(local bus)Kurata Hassaka line</tspan></tspan></text><line class="cls-9" x1="434.26" y1="291.78" x2="634.26" y2="291.78"/><line class="cls-10" x1="434.26" y1="291.78" x2="634.26" y2="291.78"/><line class="cls-11" x1="534.26" y1="211.78" x2="361.31" y2="69.35"/><path class="cls-12" d="M338,50.17c14.31,4.95,33.62,9.22,48.11,8.81L364.37,71.87,355.9,95.69C353.52,81.39,345.63,63.25,338,50.17Z"/><line class="cls-11" x1="371.5" y1="879.82" x2="-13.23" y2="1000.22"/><path class="cls-12" d="M-42,1009.24c12-9.27,26.11-23.11,33.69-35.46L-9.45,999l15.31,20.12C-7.41,1013.34-26.9,1010-42,1009.24Z"/><line class="cls-11" x1="371.5" y1="629" x2="139.5" y2="441.46"/><path class="cls-12" d="M116,422.49c14.35,4.83,33.7,8.91,48.18,8.37L142.58,444l-8.26,23.89C131.82,453.57,123.77,435.51,116,422.49Z"/><path id="_クリッピングパス_4" data-name="&lt;クリッピングパス&gt;" class="cls-12" d="M204.8,400.47a25,25,0,0,0-25,25h0a25,25,0,0,0,25,25h35v-50Z"/><g class="cls-13"><text class="cls-14" transform="translate(190.8 441.44)">43</text></g><path id="_クリッピングパス_5" data-name="&lt;クリッピングパス&gt;" class="cls-15" d="M204.8,400.47a25,25,0,0,0-25,25h0a25,25,0,0,0,25,25h35v-50Z"/><path class="cls-2" d="M554.8,400.47h-315v50h315a25,25,0,0,0,25-25h0A25,25,0,0,0,554.8,400.47Z"/><text class="cls-16" transform="translate(249.8 432.47)"><tspan class="cls-17">倉田保育所</tspan><tspan class="cls-18" x="140" y="0">前</tspan><tspan class="cls-19" x="177.5" y="-3.8">(Kurata Terminal)</tspan></text><line class="cls-2" x1="261.07" y1="261.66" x2="399.8" y2="400.47"/><circle class="cls-2" cx="261.07" cy="261.66" r="10"/><path id="_クリッピングパス_6" data-name="&lt;クリッピングパス&gt;" class="cls-12" d="M708.85,668.08a25,25,0,0,0-25,25h0a25,25,0,0,0,25,25h35v-50Z"/><g class="cls-20"><text class="cls-14" transform="translate(694.85 709.05)">50</text></g><path id="_クリッピングパス_7" data-name="&lt;クリッピングパス&gt;" class="cls-15" d="M708.85,668.08a25,25,0,0,0-25,25h0a25,25,0,0,0,25,25h35v-50Z"/><path class="cls-2" d="M1058.85,668.08h-315v50h315a25,25,0,0,0,25-25h0A25,25,0,0,0,1058.85,668.08Z"/><text class="cls-16" transform="translate(753.09 700.08)"><tspan class="cls-21">ポ</tspan><tspan class="cls-22" x="22.05" y="0">リ</tspan><tspan class="cls-23" x="43.77" y="0">テ</tspan><tspan class="cls-24" x="67.19" y="0">ク</tspan><tspan class="cls-25" x="90.55" y="0">セ</tspan><tspan class="cls-26" x="113.08" y="0">ン</tspan><tspan class="cls-27" x="136.71" y="0">タ</tspan><tspan class="cls-28" x="159.55" y="0">ー</tspan><tspan class="cls-19" x="190.76" y="-3.8">Polytechnic Center</tspan></text><line class="cls-2" x1="1117.52" y1="580.6" x2="903.85" y2="668.08"/><path id="_クリッピングパス_8" data-name="&lt;クリッピングパス&gt;" class="cls-12" d="M1014.88,162.18a25,25,0,0,0-25,25h0a25,25,0,0,0,25,25h35v-50Z"/><g class="cls-29"><text class="cls-14" transform="translate(1000.88 203.15)">45</text></g><path id="_クリッピングパス_9" data-name="&lt;クリッピングパス&gt;" class="cls-15" d="M1014.88,162.18a25,25,0,0,0-25,25h0a25,25,0,0,0,25,25h35v-50Z"/><rect class="cls-30" x="-6055" y="-5116" width="11720" height="11720"/></svg>