<svg id="_13zoom" data-name="13zoom" xmlns="http://www.w3.org/2000/svg" viewBox="0 0 1024 1024"><defs><style>.cls-1{fill:#fff;stroke-width:4px;}.cls-1,.cls-4,.cls-8{stroke:#231815;}.cls-1,.cls-4,.cls-5,.cls-7,.cls-8{stroke-miterlimit:10;}.cls-2{font-size:30px;font-family:NotoSansMonoCJKjp-Regular-90ms-RKSJ-H, Noto Sans Mono CJK JP;}.cls-2,.cls-9{fill:#231815;}.cls-3{font-size:20px;}.cls-10,.cls-4,.cls-5,.cls-7,.cls-8{fill:none;}.cls-4,.cls-5,.cls-7{stroke-linecap:round;}.cls-4{stroke-width:8.79px;}.cls-5{stroke:#ebca1b;}.cls-5,.cls-7{stroke-width:4.4px;}.cls-6{letter-spacing:0.25em;}.cls-7{stroke:#006b4b;}.cls-8{stroke-width:5px;}</style></defs><title>3234_7150</title><rect id="_長方形_" data-name="&lt;長方形&gt;" class="cls-1" x="199.49" y="905.93" width="400" height="100"/><text class="cls-2" transform="translate(324.49 945.05)">江波赤波線<tspan class="cls-3"><tspan x="-70" y="27.2">(local bus)Enami Aganami line</tspan></tspan></text><line class="cls-4" x1="299.49" y1="985.93" x2="499.49" y2="985.93"/><line class="cls-5" x1="299.49" y1="985.93" x2="499.49" y2="985.93"/><rect id="_長方形_2" data-name="&lt;長方形&gt;" class="cls-1" x="204.5" y="561" width="400" height="100"/><text class="cls-2" transform="translate(288.25 600.12)">南部幹<tspan class="cls-6" x="90" y="0">線(</tspan><tspan x="150" y="0">普</tspan><tspan class="cls-6" x="180" y="0">通</tspan><tspan x="217.5" y="0">)</tspan><tspan class="cls-3"><tspan x="-63.75" y="27.2">(local bus)South Shuttle line(local)</tspan></tspan></text><line class="cls-4" x1="304.5" y1="641" x2="504.5" y2="641"/><line class="cls-7" x1="304.5" y1="641" x2="504.5" y2="641"/><line class="cls-8" x1="404.5" y1="661" x2="131.48" y2="720.75"/><path class="cls-9" d="M102,727.21c12.74-8.19,28-20.73,36.66-32.37l-3.32,25.07,13.49,21.38C136.13,734.33,117,729.31,102,727.21Z"/><line class="cls-8" x1="399.49" y1="1005.93" x2="346.81" y2="1063.64"/><rect class="cls-10" x="-6055" y="-7164" width="11720" height="11720"/></svg>