<svg id="_13zoom" data-name="13zoom" xmlns="http://www.w3.org/2000/svg" viewBox="0 0 1024 1024"><defs><style>.cls-1,.cls-23,.cls-9{fill:none;}.cls-1,.cls-3,.cls-9{stroke:#231815;stroke-miterlimit:10;}.cls-1{stroke-width:5px;}.cls-13,.cls-2,.cls-4{fill:#231815;}.cls-3{fill:#fff;}.cls-3,.cls-9{stroke-width:4px;}.cls-4{font-size:30px;}.cls-13,.cls-4{font-family:NotoSansMonoCJKjp-Regular-90ms-RKSJ-H, Noto Sans Mono CJK JP;}.cls-5{letter-spacing:1.07em;}.cls-6{letter-spacing:0.57em;}.cls-12,.cls-7,.cls-8{font-size:20px;}.cls-7{letter-spacing:0.1em;}.cls-10{letter-spacing:1.17em;}.cls-11{letter-spacing:0.67em;}.cls-12{letter-spacing:0.25em;}.cls-13{font-size:25px;}.cls-14{letter-spacing:-0.04em;}.cls-15{letter-spacing:0.03em;}.cls-16{letter-spacing:0.03em;}.cls-17{letter-spacing:0.02em;}.cls-18{letter-spacing:-0.01em;}.cls-19{letter-spacing:-0.02em;}.cls-20{letter-spacing:-0.03em;}.cls-21{letter-spacing:0.26em;}.cls-22{font-size:15px;}</style></defs><title>3235_7150</title><line class="cls-1" x1="399.49" y1="-18.07" x2="346.81" y2="39.64"/><path class="cls-2" d="M326.47,61.93c5.68-14,10.92-33.11,11.25-47.6l11.76,22.39,23.36,9.67C358.44,48,339.93,55,326.47,61.93Z"/><path class="cls-3" d="M255.48,438.6h-315v50h315a25,25,0,0,0,25-25h0A25,25,0,0,0,255.48,438.6Z"/><text class="cls-4" transform="translate(-9.52 475)"><tspan class="cls-5">用</tspan><tspan class="cls-6" x="62" y="0">瀬</tspan><tspan class="cls-7" x="109" y="-3.8">Mochigas</tspan><tspan class="cls-8" x="205" y="-3.8">e</tspan></text><line class="cls-3" x1="-155.91" y1="346.46" x2="100.48" y2="438.6"/><path id="_クリッピングパス_" data-name="&lt;クリッピングパス&gt;" class="cls-2" d="M54.82,217.85a25,25,0,0,0-25,25h0a25,25,0,0,0,25,25h35v-50Z"/><path id="_クリッピングパス_2" data-name="&lt;クリッピングパス&gt;" class="cls-9" d="M54.82,217.85a25,25,0,0,0-25,25h0a25,25,0,0,0,25,25h35v-50Z"/><path class="cls-3" d="M404.82,217.85h-315v50h315a25,25,0,0,0,25-25h0A25,25,0,0,0,404.82,217.85Z"/><text class="cls-4" transform="translate(139.82 254.25)"><tspan class="cls-10">赤</tspan><tspan class="cls-11" x="65" y="0">波</tspan><tspan class="cls-12" x="115" y="-3.8">Aganam</tspan><tspan class="cls-8" x="205" y="-3.8">i</tspan></text><line class="cls-3" x1="387.06" y1="118.47" x2="249.82" y2="217.85"/><circle class="cls-3" cx="387.06" cy="118.47" r="10"/><path class="cls-3" d="M215.08,580h-315v50h315a25,25,0,0,0,25-25h0A25,25,0,0,0,215.08,580Z"/><text class="cls-13" transform="translate(-90.64 611.97)"><tspan class="cls-14">用</tspan><tspan class="cls-15" x="23.97" y="0">瀬</tspan><tspan class="cls-16" x="49.64" y="0">小</tspan><tspan class="cls-17" x="75.39" y="0">運</tspan><tspan class="cls-18" x="100.79" y="0">動</tspan><tspan class="cls-19" x="125.54" y="0">公</tspan><tspan class="cls-20" x="150.05" y="0">園</tspan><tspan class="cls-21" x="174.32" y="0">前</tspan><tspan class="cls-22" x="205.72" y="-3.8">(Mochigase E.S.)</tspan></text><line class="cls-3" x1="-190.41" y1="511.45" x2="60.08" y2="579.97"/><rect class="cls-23" x="-6055" y="-8188" width="11720" height="11720"/></svg>