<svg id="_13zoom" data-name="13zoom" xmlns="http://www.w3.org/2000/svg" xmlns:xlink="http://www.w3.org/1999/xlink" viewBox="0 0 1024 1024"><defs><style>.cls-1,.cls-2,.cls-7{fill:#231815;}.cls-1,.cls-5,.cls-6{stroke:#231815;stroke-miterlimit:10;stroke-width:4px;}.cls-3{clip-path:url(#clip-path);}.cls-4{font-size:48px;}.cls-4,.cls-6{fill:#fff;}.cls-4,.cls-7{font-family:NotoSansMonoCJKjp-Regular-90ms-RKSJ-H, Noto Sans Mono CJK JP;}.cls-11,.cls-5{fill:none;}.cls-7{font-size:30px;}.cls-8{letter-spacing:0.22em;}.cls-9{letter-spacing:0.5em;}.cls-10{font-size:20px;}</style><clipPath id="clip-path"><path id="_クリッピングパス_" data-name="&lt;クリッピングパス&gt;" class="cls-1" d="M44.52,580.25a25,25,0,0,0-25,25h0a25,25,0,0,0,25,25h35v-50Z"/></clipPath></defs><title>3237_7150</title><path id="_クリッピングパス_2" data-name="&lt;クリッピングパス&gt;" class="cls-2" d="M44.52,580.25a25,25,0,0,0-25,25h0a25,25,0,0,0,25,25h35v-50Z"/><g class="cls-3"><text class="cls-4" transform="translate(30.52 621.22)">67</text></g><path id="_クリッピングパス_3" data-name="&lt;クリッピングパス&gt;" class="cls-5" d="M44.52,580.25a25,25,0,0,0-25,25h0a25,25,0,0,0,25,25h35v-50Z"/><path class="cls-6" d="M394.52,580.25h-315v50h315a25,25,0,0,0,25-25h0A25,25,0,0,0,394.52,580.25Z"/><text class="cls-7" transform="translate(99.52 616.65)"><tspan class="cls-8">智頭駅</tspan><tspan class="cls-9" x="110" y="0">前</tspan><tspan class="cls-10" x="155" y="-3.8">(Chizu Sta.)</tspan></text><line class="cls-6" x1="400.56" y1="497.35" x2="239.52" y2="580.25"/><circle class="cls-6" cx="400.56" cy="497.35" r="10"/><rect class="cls-11" x="-6055" y="-10236" width="11720" height="11720"/></svg>