<svg id="_13zoom" data-name="13zoom" xmlns="http://www.w3.org/2000/svg" xmlns:xlink="http://www.w3.org/1999/xlink" viewBox="0 0 1024 1024"><defs><style>.cls-1,.cls-11,.cls-15,.cls-3{fill:#231815;}.cls-1,.cls-10,.cls-14,.cls-2,.cls-5,.cls-8,.cls-9{stroke:#231815;}.cls-1,.cls-10,.cls-14,.cls-2,.cls-5,.cls-6,.cls-7,.cls-8,.cls-9{stroke-miterlimit:10;}.cls-1,.cls-14,.cls-2{stroke-width:4px;}.cls-13,.cls-2{fill:#fff;}.cls-15,.cls-3{font-size:30px;}.cls-13,.cls-15,.cls-3{font-family:NotoSansMonoCJKjp-Regular-90ms-RKSJ-H, Noto Sans Mono CJK JP;}.cls-18,.cls-19,.cls-20,.cls-21,.cls-22,.cls-23,.cls-24,.cls-25,.cls-26,.cls-27,.cls-28,.cls-29,.cls-4{font-size:20px;}.cls-10,.cls-14,.cls-32,.cls-5,.cls-6,.cls-7,.cls-8,.cls-9{fill:none;}.cls-5,.cls-6,.cls-7,.cls-8,.cls-9{stroke-linecap:round;}.cls-5,.cls-7{stroke-width:8.79px;}.cls-6{stroke:#ed6d46;}.cls-6,.cls-8,.cls-9{stroke-width:4.4px;}.cls-7{stroke:#70b058;}.cls-9{stroke-dasharray:0 28.57;}.cls-10{stroke-width:5px;}.cls-12{clip-path:url(#clip-path);}.cls-13{font-size:48px;}.cls-15{letter-spacing:0.22em;}.cls-16{letter-spacing:0.16em;}.cls-17{letter-spacing:0.29em;}.cls-18{letter-spacing:-0.07em;}.cls-19{letter-spacing:-0.06em;}.cls-20{letter-spacing:-0.05em;}.cls-21{letter-spacing:-0.04em;}.cls-22{letter-spacing:-0.06em;}.cls-23{letter-spacing:-0.06em;}.cls-24{letter-spacing:-0.07em;}.cls-25{letter-spacing:-0.04em;}.cls-26{letter-spacing:-0.03em;}.cls-27{letter-spacing:-0.02em;}.cls-28{letter-spacing:-0.07em;}.cls-29{letter-spacing:-0.07em;}.cls-30{clip-path:url(#clip-path-2);}.cls-31{letter-spacing:0.56em;}</style><clipPath id="clip-path"><path id="_クリッピングパス_" data-name="&lt;クリッピングパス&gt;" class="cls-1" d="M564.14,816.74a25,25,0,0,0-25,25h0a25,25,0,0,0,25,25h35v-50Z"/></clipPath><clipPath id="clip-path-2"><path id="_クリッピングパス_2" data-name="&lt;クリッピングパス&gt;" class="cls-1" d="M295.17,747.21a25,25,0,0,0-25,25h0a25,25,0,0,0,25,25h35v-50Z"/></clipPath></defs><title>3229_7149</title><rect id="_長方形_" data-name="&lt;長方形&gt;" class="cls-2" x="-147" y="753" width="400" height="100"/><text class="cls-3" transform="translate(8 792.12)">賀露線<tspan class="cls-4"><tspan x="-85" y="27.2">(local bus)Karo line(loop)</tspan></tspan></text><line class="cls-5" x1="-47" y1="833" x2="153" y2="833"/><line class="cls-6" x1="-47" y1="833" x2="153" y2="833"/><rect id="_長方形_2" data-name="&lt;長方形&gt;" class="cls-2" x="794.88" y="684.87" width="400" height="100"/><text class="cls-3" transform="translate(919.88 723.99)">十六本松線<tspan class="cls-4"><tspan x="-75" y="27.2">(local bus)Jyuroppommatsu line</tspan></tspan></text><line class="cls-7" x1="894.88" y1="764.87" x2="1094.88" y2="764.87"/><line class="cls-8" x1="894.88" y1="764.87" x2="894.88" y2="764.87"/><line class="cls-9" x1="923.45" y1="764.87" x2="1080.6" y2="764.87"/><line class="cls-10" x1="994.88" y1="784.87" x2="958.74" y2="986.23"/><path class="cls-11" d="M953.4,1015.93c-2.67-14.91-8.41-33.84-15.85-46.27l21.89,12.67,24.92-4.26C973.05,987.13,961.09,1002.88,953.4,1015.93Z"/><line class="cls-10" x1="53" y1="853" x2="275.95" y2="929.05"/><path class="cls-11" d="M304.51,938.79c-15.14.4-34.71,3.22-48.12,8.71l15.82-19.73-.47-25.28C279,915,292.77,929.22,304.51,938.79Z"/><path id="_クリッピングパス_3" data-name="&lt;クリッピングパス&gt;" class="cls-11" d="M564.14,816.74a25,25,0,0,0-25,25h0a25,25,0,0,0,25,25h35v-50Z"/><g class="cls-12"><text class="cls-13" transform="translate(562.14 857.71)">6</text></g><path id="_クリッピングパス_4" data-name="&lt;クリッピングパス&gt;" class="cls-14" d="M564.14,816.74a25,25,0,0,0-25,25h0a25,25,0,0,0,25,25h35v-50Z"/><path class="cls-2" d="M914.14,816.74h-315v50h315a25,25,0,0,0,25-25h0A25,25,0,0,0,914.14,816.74Z"/><text class="cls-15" transform="translate(648.5 853.15)">八<tspan class="cls-16" x="36.48" y="0">丁</tspan><tspan class="cls-17" x="71.18" y="0">目</tspan><tspan class="cls-18" x="108.53" y="-3.8">(</tspan><tspan class="cls-19" x="117.07" y="-3.8">H</tspan><tspan class="cls-20" x="125.91" y="-3.8">a</tspan><tspan class="cls-21" x="134.88" y="-3.8">m</tspan><tspan class="cls-22" x="144.03" y="-3.8">a</tspan><tspan class="cls-23" x="152.88" y="-3.8">s</tspan><tspan class="cls-24" x="161.75" y="-3.8">a</tspan><tspan class="cls-25" x="170.34" y="-3.8">k</tspan><tspan class="cls-26" x="179.55" y="-3.8">a</tspan><tspan class="cls-27" x="188.9" y="-3.8"> </tspan><tspan class="cls-28" x="198.42" y="-3.8">8</tspan><tspan class="cls-29" x="207.05" y="-3.8">)</tspan></text><line class="cls-2" x1="884.59" y1="958.73" x2="759.14" y2="866.74"/><circle class="cls-2" cx="884.59" cy="958.73" r="10"/><path id="_クリッピングパス_5" data-name="&lt;クリッピングパス&gt;" class="cls-11" d="M295.17,747.21a25,25,0,0,0-25,25h0a25,25,0,0,0,25,25h35v-50Z"/><g class="cls-30"><text class="cls-13" transform="translate(281.17 788.18)">11</text></g><path id="_クリッピングパス_6" data-name="&lt;クリッピングパス&gt;" class="cls-14" d="M295.17,747.21a25,25,0,0,0-25,25h0a25,25,0,0,0,25,25h35v-50Z"/><path class="cls-2" d="M645.17,747.21h-315v50h315a25,25,0,0,0,25-25h0A25,25,0,0,0,645.17,747.21Z"/><text class="cls-3" transform="translate(350.17 783.61)"><tspan class="cls-31">賀露地</tspan><tspan x="140" y="0">域 </tspan><tspan class="cls-4" x="185" y="-3.8">Karo Area</tspan></text><rect class="cls-32" x="-5031" y="-2044" width="11720" height="11720"/></svg>