<svg id="_13zoom" data-name="13zoom" xmlns="http://www.w3.org/2000/svg" xmlns:xlink="http://www.w3.org/1999/xlink" viewBox="0 0 1024 1024"><defs><style>.cls-1,.cls-11,.cls-3,.cls-37{fill:#231815;}.cls-1,.cls-10,.cls-14,.cls-2,.cls-5{stroke:#231815;}.cls-1,.cls-10,.cls-14,.cls-2,.cls-5,.cls-6,.cls-9{stroke-miterlimit:10;}.cls-1,.cls-14,.cls-2{stroke-width:4px;}.cls-13,.cls-2{fill:#fff;}.cls-3{font-size:30px;}.cls-13,.cls-3,.cls-37{font-family:NotoSansMonoCJKjp-Regular-90ms-RKSJ-H, Noto Sans Mono CJK JP;}.cls-16,.cls-17,.cls-18,.cls-19,.cls-20,.cls-21,.cls-22,.cls-23,.cls-24,.cls-25,.cls-26,.cls-27,.cls-28,.cls-29,.cls-30,.cls-31,.cls-32,.cls-33,.cls-34,.cls-35,.cls-4,.cls-8{font-size:20px;}.cls-10,.cls-14,.cls-5,.cls-52,.cls-6,.cls-9{fill:none;}.cls-5,.cls-6,.cls-9{stroke-linecap:round;}.cls-5{stroke-width:8.79px;}.cls-6{stroke:#ca2e34;}.cls-6,.cls-9{stroke-width:4.4px;}.cls-7,.cls-8{letter-spacing:0.25em;}.cls-9{stroke:#f6ad3c;}.cls-10{stroke-width:5px;}.cls-12{clip-path:url(#clip-path);}.cls-13{font-size:48px;}.cls-15{letter-spacing:0.39em;}.cls-16{letter-spacing:-0.08em;}.cls-17{letter-spacing:-0.07em;}.cls-18{letter-spacing:-0.04em;}.cls-19{letter-spacing:-0.06em;}.cls-20{letter-spacing:-0.03em;}.cls-21{letter-spacing:-0.05em;}.cls-22{letter-spacing:-0.05em;}.cls-23{letter-spacing:-0.05em;}.cls-24{letter-spacing:-0.09em;}.cls-25{letter-spacing:-0.05em;}.cls-26{letter-spacing:-0.03em;}.cls-27{letter-spacing:-0.03em;}.cls-28{letter-spacing:-0.05em;}.cls-29{letter-spacing:-0.05em;}.cls-30{letter-spacing:-0.06em;}.cls-31{letter-spacing:-0.06em;}.cls-32{letter-spacing:-0.1em;}.cls-33{letter-spacing:-0.05em;}.cls-34{letter-spacing:-0.07em;}.cls-35{letter-spacing:-0.07em;}.cls-36{clip-path:url(#clip-path-2);}.cls-37{font-size:25px;}.cls-38{letter-spacing:-0.18em;}.cls-39{letter-spacing:-0.19em;}.cls-40{letter-spacing:-0.1em;}.cls-41{letter-spacing:-0.07em;}.cls-42{letter-spacing:-0.05em;}.cls-43{letter-spacing:0.06em;}.cls-44{letter-spacing:-0.09em;}.cls-45{letter-spacing:-0.05em;}.cls-46{letter-spacing:0.04em;}.cls-47{letter-spacing:0.02em;}.cls-48{letter-spacing:0.35em;}.cls-49{letter-spacing:0.07em;}.cls-50{letter-spacing:0.5em;}.cls-51{font-size:15px;}</style><clipPath id="clip-path"><path id="_クリッピングパス_" data-name="&lt;クリッピングパス&gt;" class="cls-1" d="M749.08,113.48a25,25,0,0,0-25,25h0a25,25,0,0,0,25,25h35v-50Z"/></clipPath><clipPath id="clip-path-2"><path id="_クリッピングパス_2" data-name="&lt;クリッピングパス&gt;" class="cls-1" d="M452.66,311.19a25,25,0,0,0-25,25h0a25,25,0,0,0,25,25h35v-50Z"/></clipPath></defs><title>3230_7149</title><rect id="_長方形_" data-name="&lt;長方形&gt;" class="cls-2" x="805.05" y="668.35" width="400" height="100"/><text class="cls-3" transform="translate(915.05 707.47)">日ノ丸本社線<tspan class="cls-4"><tspan x="-65" y="27.2">(local bus)Hinomaru Honsha line</tspan></tspan></text><line class="cls-5" x1="905.05" y1="748.35" x2="1105.05" y2="748.35"/><line class="cls-6" x1="905.05" y1="748.35" x2="1105.05" y2="748.35"/><rect id="_長方形_2" data-name="&lt;長方形&gt;" class="cls-2" x="73" y="947.05" width="400" height="100"/><text class="cls-3" transform="translate(139.25 986.17)">湖山鳥大<tspan class="cls-7" x="120" y="0">線</tspan><tspan class="cls-8" x="157.5" y="-3.8">(</tspan><tspan class="cls-4" x="172.5" y="-3.8">国体道</tspan><tspan class="cls-8" x="232.5" y="-3.8">路</tspan><tspan class="cls-4" x="257.5" y="-3.8">)</tspan><tspan class="cls-4"><tspan x="-16.25" y="27.2">(local bus)Koyama Toridai line</tspan></tspan></text><line class="cls-5" x1="173" y1="1027.05" x2="373" y2="1027.05"/><rect id="_長方形_3" data-name="&lt;長方形&gt;" class="cls-2" x="-205.5" y="682.24" width="400" height="100"/><text class="cls-3" transform="translate(-119.25 721.36)">湖山鳥大<tspan class="cls-7" x="120" y="0">線</tspan><tspan class="cls-8" x="157.5" y="-3.8">(</tspan><tspan class="cls-4" x="172.5" y="-3.8">布</tspan><tspan class="cls-8" x="192.5" y="-3.8">勢</tspan><tspan class="cls-4" x="217.5" y="-3.8">)</tspan><tspan class="cls-4"><tspan x="-36.25" y="27.2">(local bus)Koyama Toridai line</tspan></tspan></text><line class="cls-5" x1="-105.5" y1="762.24" x2="94.5" y2="762.24"/><line class="cls-9" x1="-105.5" y1="762.24" x2="94.5" y2="762.24"/><rect id="_長方形_4" data-name="&lt;長方形&gt;" class="cls-2" x="74" y="31" width="400" height="100"/><text class="cls-3" transform="translate(110.25 70.12)">湖山鳥大<tspan class="cls-7" x="120" y="0">線</tspan><tspan class="cls-8" x="157.5" y="-3.8">(</tspan><tspan class="cls-4" x="172.5" y="-3.8">相生</tspan><tspan class="cls-8" x="212.5" y="-3.8">町,</tspan><tspan class="cls-4" x="252.5" y="-3.8">西品</tspan><tspan class="cls-8" x="292.5" y="-3.8">治</tspan><tspan class="cls-4" x="317.5" y="-3.8">)</tspan><tspan class="cls-4"><tspan x="13.75" y="27.2">(local bus)Koyama Toridai line</tspan></tspan></text><line class="cls-5" x1="174" y1="111" x2="374" y2="111"/><line class="cls-9" x1="174" y1="111" x2="374" y2="111"/><rect id="_長方形_5" data-name="&lt;長方形&gt;" class="cls-2" x="396.46" y="625.23" width="400" height="100"/><text class="cls-3" transform="translate(506.46 664.35)">イオン北店線<tspan class="cls-4"><tspan x="-75" y="27.2">(local bus)AEON Tottori Kita line</tspan></tspan></text><line class="cls-5" x1="496.46" y1="705.23" x2="696.46" y2="705.23"/><line class="cls-6" x1="496.46" y1="705.23" x2="696.46" y2="705.23"/><line class="cls-10" x1="596.46" y1="625.23" x2="837.31" y2="443.51"/><path class="cls-11" d="M861.4,425.34c-8.17,12.75-16.82,30.54-19.8,44.72l-7.45-24.16L813,432.1C827.41,433.12,846.89,429.69,861.4,425.34Z"/><line class="cls-10" x1="1005.05" y1="768.35" x2="971.43" y2="952.25"/><path class="cls-11" d="M966,981.93c-2.63-14.92-8.31-33.86-15.71-46.32l21.85,12.74,24.93-4.19C985.75,953.19,973.74,968.91,966,981.93Z"/><line class="cls-10" x1="274" y1="131" x2="240.83" y2="339.76"/><path class="cls-11" d="M236.09,369.56c-3-14.85-9.08-33.66-16.77-45.93l22.13,12.22,24.83-4.76C255.16,340.38,243.52,356.37,236.09,369.56Z"/><line class="cls-10" x1="-5.5" y1="782.24" x2="248.72" y2="842.29"/><path class="cls-11" d="M278.09,849.23c-15,1.86-34.24,6.56-47.06,13.32l13.84-21.17L242,816.27C250.4,828,265.48,840.84,278.09,849.23Z"/><line class="cls-10" x1="273" y1="947.05" x2="327.33" y2="907.34"/><path class="cls-11" d="M351.69,889.54c-8.36,12.63-17.27,30.28-20.47,44.41l-7.09-24.27-21-14.12C317.59,896.8,337.12,893.66,351.69,889.54Z"/><path id="_クリッピングパス_3" data-name="&lt;クリッピングパス&gt;" class="cls-11" d="M749.08,113.48a25,25,0,0,0-25,25h0a25,25,0,0,0,25,25h35v-50Z"/><g class="cls-12"><text class="cls-13" transform="translate(747.08 154.45)">9</text></g><path id="_クリッピングパス_4" data-name="&lt;クリッピングパス&gt;" class="cls-14" d="M749.08,113.48a25,25,0,0,0-25,25h0a25,25,0,0,0,25,25h35v-50Z"/><path class="cls-2" d="M1099.08,113.48h-315v50h315a25,25,0,0,0,25-25h0A25,25,0,0,0,1099.08,113.48Z"/><text class="cls-3" transform="translate(794.08 149.88)">中央病<tspan class="cls-15" x="90" y="0">院</tspan><tspan class="cls-16" x="130.25" y="-3.8">(</tspan><tspan class="cls-17" x="138.66" y="-3.8">P</tspan><tspan class="cls-18" x="147.2" y="-3.8">r</tspan><tspan class="cls-19" x="156.3" y="-3.8">e</tspan><tspan class="cls-20" x="165.07" y="-3.8">f</tspan><tspan class="cls-21" x="174.4" y="-3.8">e</tspan><tspan class="cls-22" x="183.35" y="-3.8">c</tspan><tspan class="cls-23" x="192.44" y="-3.8">t</tspan><tspan class="cls-24" x="201.47" y="-3.8">u</tspan><tspan class="cls-25" x="209.65" y="-3.8">r</tspan><tspan class="cls-19" x="218.68" y="-3.8">a</tspan><tspan class="cls-26" x="227.45" y="-3.8">l</tspan><tspan class="cls-27" x="236.94" y="-3.8"> </tspan><tspan class="cls-28" x="246.35" y="-3.8">H</tspan><tspan class="cls-29" x="255.32" y="-3.8">o</tspan><tspan class="cls-30" x="264.38" y="-3.8">s</tspan><tspan class="cls-31" x="273.13" y="-3.8">p</tspan><tspan class="cls-32" x="281.98" y="-3.8">i</tspan><tspan class="cls-33" x="290.03" y="-3.8">t</tspan><tspan class="cls-19" x="299.02" y="-3.8">a</tspan><tspan class="cls-34" x="307.79" y="-3.8">l</tspan><tspan class="cls-35" x="316.41" y="-3.8">)</tspan></text><line class="cls-2" x1="1130.58" y1="284.64" x2="944.08" y2="163.48"/><path id="_クリッピングパス_5" data-name="&lt;クリッピングパス&gt;" class="cls-11" d="M452.66,311.19a25,25,0,0,0-25,25h0a25,25,0,0,0,25,25h35v-50Z"/><g class="cls-36"><text class="cls-13" transform="translate(438.66 352.15)">12</text></g><path id="_クリッピングパス_6" data-name="&lt;クリッピングパス&gt;" class="cls-14" d="M452.66,311.19a25,25,0,0,0-25,25h0a25,25,0,0,0,25,25h35v-50Z"/><path class="cls-2" d="M802.66,311.19h-315v50h315a25,25,0,0,0,25-25h0A25,25,0,0,0,802.66,311.19Z"/><text class="cls-37" transform="translate(495.96 343.19)"><tspan class="cls-38">イ</tspan><tspan class="cls-39" x="20.48" y="0">オ</tspan><tspan class="cls-40" x="40.62" y="0">ン</tspan><tspan class="cls-41" x="63.16" y="0">鳥</tspan><tspan class="cls-42" x="86.44" y="0">取</tspan><tspan class="cls-43" x="110.18" y="0">北</tspan><tspan class="cls-4" x="136.7" y="-1.9">(AEON Tottori kita)</tspan></text><line class="cls-2" x1="827.59" y1="233.22" x2="647.66" y2="311.19"/><circle class="cls-2" cx="827.59" cy="233.22" r="10"/><path id="_クリッピングパス_7" data-name="&lt;クリッピングパス&gt;" class="cls-11" d="M480.39,785.1a25,25,0,0,0-25,25h0a25,25,0,0,0,25,25h35v-50Z"/><path id="_クリッピングパス_8" data-name="&lt;クリッピングパス&gt;" class="cls-14" d="M480.39,785.1a25,25,0,0,0-25,25h0a25,25,0,0,0,25,25h35v-50Z"/><path class="cls-2" d="M830.39,785.1h-315v50h315a25,25,0,0,0,25-25h0A25,25,0,0,0,830.39,785.1Z"/><text class="cls-37" transform="translate(523.14 817.1)"><tspan class="cls-44">日</tspan><tspan class="cls-45" x="22.69" y="0">ノ</tspan><tspan class="cls-46" x="46.37" y="0">丸本</tspan><tspan class="cls-47" x="98.12" y="0">社</tspan><tspan class="cls-48" x="123.56" y="0">前</tspan><tspan class="cls-4" x="157.25" y="-1.9">(Hinomaru Office)</tspan></text><line class="cls-2" x1="953.58" y1="1010.18" x2="675.39" y2="835.1"/><circle class="cls-2" cx="953.58" cy="1010.18" r="10"/><path class="cls-2" d="M203.38,467.05h-315v50h315a25,25,0,0,0,25-25h0A25,25,0,0,0,203.38,467.05Z"/><text class="cls-37" transform="translate(-101.62 499.05)"><tspan class="cls-49">鳥大附属</tspan><tspan class="cls-50" x="107.5" y="0">校</tspan><tspan class="cls-51" x="145" y="-3.8">(Tottori Univ. Terminal)</tspan></text><line class="cls-2" x1="262.12" y1="533.78" x2="48.38" y2="517.05"/><line class="cls-2" x1="224.62" y1="551.7" x2="48.38" y2="517.05"/><circle class="cls-2" cx="262.12" cy="533.78" r="10"/><circle class="cls-2" cx="224.62" cy="551.7" r="10"/><rect class="cls-52" x="-5031" y="-3068" width="11720" height="11720"/></svg>