<svg id="_13zoom" data-name="13zoom" xmlns="http://www.w3.org/2000/svg" viewBox="0 0 1024 1024"><defs><style>.cls-1{fill:#fff;stroke-width:4px;}.cls-1,.cls-10,.cls-4{stroke:#231815;}.cls-1,.cls-10,.cls-4,.cls-5,.cls-6,.cls-9{stroke-miterlimit:10;}.cls-2{font-size:30px;font-family:NotoSansMonoCJKjp-Regular-90ms-RKSJ-H, Noto Sans Mono CJK JP;}.cls-11,.cls-2{fill:#231815;}.cls-3,.cls-8{font-size:20px;}.cls-10,.cls-12,.cls-4,.cls-5,.cls-6,.cls-9{fill:none;}.cls-4,.cls-5,.cls-6,.cls-9{stroke-linecap:round;}.cls-4{stroke-width:8.79px;}.cls-5{stroke:#ef845d;}.cls-5,.cls-6,.cls-9{stroke-width:4.4px;}.cls-6{stroke:#ca2e34;}.cls-7,.cls-8{letter-spacing:0.25em;}.cls-9{stroke:#f6ad3c;}.cls-10{stroke-width:5px;}</style></defs><title>3231_7149</title><rect id="_長方形_" data-name="&lt;長方形&gt;" class="cls-1" x="-214" y="797.08" width="400" height="100"/><text class="cls-2" transform="translate(-59 836.2)">東郷線<tspan class="cls-3"><tspan x="-55" y="27.2">(local bus)Togo line</tspan></tspan></text><line class="cls-4" x1="-114" y1="877.08" x2="86" y2="877.08"/><line class="cls-5" x1="-114" y1="877.08" x2="86" y2="877.08"/><rect id="_長方形_2" data-name="&lt;長方形&gt;" class="cls-1" x="315" y="958.65" width="400" height="100"/><text class="cls-2" transform="translate(470 997.77)">神戸線<tspan class="cls-3"><tspan x="-60" y="27.2">(local bus)Kando line</tspan></tspan></text><rect id="_長方形_3" data-name="&lt;長方形&gt;" class="cls-1" x="-82.96" y="135" width="400" height="100"/><text class="cls-2" transform="translate(72.04 174.12)">松上線<tspan class="cls-3"><tspan x="-80" y="27.2">(local bus)Matsugami line</tspan></tspan></text><line class="cls-4" x1="17.04" y1="215" x2="217.04" y2="215"/><line class="cls-6" x1="17.04" y1="215" x2="217.04" y2="215"/><rect id="_長方形_4" data-name="&lt;長方形&gt;" class="cls-1" x="73" y="-76.95" width="400" height="100"/><text class="cls-2" transform="translate(139.25 -37.83)">湖山鳥大<tspan class="cls-7" x="120" y="0">線</tspan><tspan class="cls-8" x="157.5" y="-3.8">(</tspan><tspan class="cls-3" x="172.5" y="-3.8">国体道</tspan><tspan class="cls-8" x="232.5" y="-3.8">路</tspan><tspan class="cls-3" x="257.5" y="-3.8">)</tspan><tspan class="cls-3"><tspan x="-16.25" y="27.2">(local bus)Koyama Toridai line</tspan></tspan></text><line class="cls-4" x1="173" y1="3.05" x2="373" y2="3.05"/><line class="cls-9" x1="173" y1="3.05" x2="373" y2="3.05"/><rect id="_長方形_5" data-name="&lt;長方形&gt;" class="cls-1" x="459.39" y="761" width="400" height="100"/><text class="cls-2" transform="translate(485.64 800.12)">市立病院<tspan class="cls-7" x="120" y="0">線</tspan><tspan class="cls-8" x="157.5" y="-3.8">(注:</tspan><tspan class="cls-3" x="212.5" y="-3.8">日ノ丸自動</tspan><tspan class="cls-8" x="312.5" y="-3.8">車</tspan><tspan class="cls-3" x="337.5" y="-3.8">)</tspan><tspan class="cls-3"><tspan x="23.75" y="27.2">(local bus)Shiritsu Byoin line</tspan></tspan></text><line class="cls-4" x1="559.39" y1="841" x2="759.39" y2="841"/><line class="cls-9" x1="559.39" y1="841" x2="759.39" y2="841"/><line class="cls-10" x1="-14" y1="897.08" x2="116.62" y2="1036.31"/><path class="cls-11" d="M137.27,1058.31c-13.56-6.75-32.17-13.45-46.59-14.89l23.23-10,11.45-22.54C125.89,1025.36,131.39,1044.36,137.27,1058.31Z"/><line class="cls-10" x1="659.39" y1="761" x2="1307.34" y2="566.57"/><line class="cls-10" x1="117.04" y1="235" x2="290.68" y2="320.96"/><path class="cls-11" d="M317.72,334.34c-15.06-1.57-34.84-1.33-48.85,2.35l18.26-17.49L290,294.08C295.53,307.46,307.33,323.33,317.72,334.34Z"/><rect class="cls-12" x="-5031" y="-4092" width="11720" height="11720"/></svg>