<svg id="_13zoom" data-name="13zoom" xmlns="http://www.w3.org/2000/svg" viewBox="0 0 1024 1024"><defs><style>.cls-1{fill:#fff;stroke-width:4px;}.cls-1,.cls-4,.cls-7{stroke:#231815;}.cls-1,.cls-4,.cls-5,.cls-6,.cls-7{stroke-miterlimit:10;}.cls-2{font-size:30px;font-family:NotoSansMonoCJKjp-Regular-90ms-RKSJ-H, Noto Sans Mono CJK JP;}.cls-2,.cls-8{fill:#231815;}.cls-11,.cls-3{font-size:20px;}.cls-12,.cls-4,.cls-5,.cls-6,.cls-7{fill:none;}.cls-4,.cls-5,.cls-6{stroke-linecap:round;}.cls-4{stroke-width:8.79px;}.cls-5{stroke:#aace36;}.cls-5,.cls-6{stroke-width:4.4px;}.cls-6{stroke:#985d1b;}.cls-7{stroke-width:5px;}.cls-9{letter-spacing:1.33em;}.cls-10{letter-spacing:0.83em;}.cls-11{letter-spacing:0.5em;}</style></defs><title>3232_7149</title><rect id="_長方形_" data-name="&lt;長方形&gt;" class="cls-1" x="321" y="493" width="400" height="100"/><text class="cls-2" transform="translate(476 532.12)">横枕線<tspan class="cls-3"><tspan x="-85" y="27.2">(local bus)Yokomakura line</tspan></tspan></text><line class="cls-4" x1="421" y1="573" x2="621" y2="573"/><line class="cls-5" x1="421" y1="573" x2="621" y2="573"/><rect id="_長方形_2" data-name="&lt;長方形&gt;" class="cls-1" x="315" y="-65.35" width="400" height="100"/><text class="cls-2" transform="translate(470 -26.23)">神戸線<tspan class="cls-3"><tspan x="-60" y="27.2">(local bus)Kando line</tspan></tspan></text><line class="cls-4" x1="415" y1="14.65" x2="615" y2="14.65"/><line class="cls-6" x1="415" y1="14.65" x2="615" y2="14.65"/><line class="cls-7" x1="515" y1="34.65" x2="864.58" y2="127.73"/><path class="cls-8" d="M893.74,135.49c-15.07,1.44-34.41,5.59-47.41,12l14.43-20.76-2.2-25.19C866.66,113.53,881.38,126.75,893.74,135.49Z"/><line class="cls-7" x1="-14" y1="-126.92" x2="116.62" y2="12.31"/><path class="cls-8" d="M137.27,34.31c-13.56-6.75-32.17-13.45-46.59-14.89l23.23-10,11.45-22.54C125.89,1.36,131.39,20.36,137.27,34.31Z"/><line class="cls-7" x1="521" y1="493" x2="638.37" y2="378.83"/><path class="cls-8" d="M660,357.79c-6.51,13.67-12.87,32.4-14,46.84l-10.42-23-22.74-11C627.25,369.75,646.15,363.91,660,357.79Z"/><line class="cls-7" x1="1395.5" y1="879.82" x2="1010.77" y2="1000.22"/><path class="cls-8" d="M982,1009.24c12-9.27,26.11-23.11,33.69-35.46L1014.55,999l15.31,20.12C1016.59,1013.34,997.1,1010,982,1009.24Z"/><path class="cls-1" d="M266.17,570.35h-315v50h315a25,25,0,0,0,25-25h0A25,25,0,0,0,266.17,570.35Z"/><text class="cls-2" transform="translate(1.17 606.75)"><tspan class="cls-9">猪</tspan><tspan class="cls-10" x="70" y="0">子</tspan><tspan class="cls-11" x="125" y="-3.8">Inok</tspan><tspan class="cls-3" x="205" y="-3.8">o</tspan></text><line class="cls-1" x1="274.12" y1="483.1" x2="111.17" y2="570.35"/><circle class="cls-1" cx="274.12" cy="483.1" r="10"/><rect class="cls-12" x="-5031" y="-5116" width="11720" height="11720"/></svg>