<svg id="_13zoom" data-name="13zoom" xmlns="http://www.w3.org/2000/svg" viewBox="0 0 1024 1024"><defs><style>.cls-1{fill:#fff;}.cls-1,.cls-4,.cls-6,.cls-8{stroke:#231815;}.cls-1,.cls-4,.cls-5,.cls-6,.cls-8{stroke-miterlimit:10;}.cls-1,.cls-8{stroke-width:4px;}.cls-2{font-size:30px;font-family:NotoSansMonoCJKjp-Regular-90ms-RKSJ-H, Noto Sans Mono CJK JP;}.cls-2,.cls-7{fill:#231815;}.cls-3{font-size:20px;}.cls-10,.cls-4,.cls-5,.cls-6,.cls-8{fill:none;}.cls-4,.cls-5{stroke-linecap:round;}.cls-4{stroke-width:8.79px;}.cls-5{stroke:#985d1b;stroke-width:4.4px;}.cls-6{stroke-width:5px;}.cls-9{letter-spacing:0.5em;}</style></defs><title>3233_7149</title><rect id="_長方形_" data-name="&lt;長方形&gt;" class="cls-1" x="993.59" y="574.04" width="400" height="100"/><rect id="_長方形_2" data-name="&lt;長方形&gt;" class="cls-1" x="291.63" y="385.05" width="400" height="100"/><text class="cls-2" transform="translate(446.63 424.17)">西郷線<tspan class="cls-3"><tspan x="-60" y="27.2">(local bus)Saigo line</tspan></tspan></text><line class="cls-4" x1="391.63" y1="465.05" x2="591.63" y2="465.05"/><line class="cls-5" x1="391.63" y1="465.05" x2="591.63" y2="465.05"/><line class="cls-6" x1="491.63" y1="485.05" x2="792.21" y2="640.36"/><path class="cls-7" d="M819,654.21c-15-1.83-34.81-1.93-48.88,1.51l18.55-17.18L792,613.48C797.3,627,808.82,643,819,654.21Z"/><line class="cls-6" x1="1193.59" y1="674.04" x2="880.38" y2="796.34"/><path class="cls-7" d="M852.27,807.32c11.31-10.07,24.45-24.85,31.16-37.7l.64,25.28,16.66,19C887.09,809,867.41,807.06,852.27,807.32Z"/><path id="_クリッピングパス_" data-name="&lt;クリッピングパス&gt;" class="cls-7" d="M951.57,286.08a25,25,0,0,0-25,25h0a25,25,0,0,0,25,25h35v-50Z"/><path id="_クリッピングパス_2" data-name="&lt;クリッピングパス&gt;" class="cls-8" d="M951.57,286.08a25,25,0,0,0-25,25h0a25,25,0,0,0,25,25h35v-50Z"/><path class="cls-1" d="M1301.57,286.08h-315v50h315a25,25,0,0,0,25-25h0A25,25,0,0,0,1301.57,286.08Z"/><text class="cls-2" transform="translate(1006.57 322.48)">河原<tspan class="cls-9" x="60" y="0">口</tspan><tspan class="cls-3" x="105" y="-3.8">(Kawahara terminal)</tspan></text><line class="cls-1" x1="827.59" y1="463.55" x2="1146.57" y2="336.08"/><circle class="cls-1" cx="827.59" cy="463.55" r="10"/><rect class="cls-10" x="-5031" y="-6140" width="11720" height="11720"/></svg>