<svg id="_13zoom" data-name="13zoom" xmlns="http://www.w3.org/2000/svg" viewBox="0 0 1024 1024"><defs><style>.cls-1{fill:#fff;stroke-width:4px;}.cls-1,.cls-4,.cls-8{stroke:#231815;}.cls-1,.cls-4,.cls-5,.cls-7,.cls-8{stroke-miterlimit:10;}.cls-2{font-size:30px;font-family:NotoSansMonoCJKjp-Regular-90ms-RKSJ-H, Noto Sans Mono CJK JP;}.cls-2,.cls-9{fill:#231815;}.cls-12,.cls-3{font-size:20px;}.cls-13,.cls-4,.cls-5,.cls-7,.cls-8{fill:none;}.cls-4,.cls-5,.cls-7{stroke-linecap:round;}.cls-4{stroke-width:8.79px;}.cls-5{stroke:#ebca1b;}.cls-5,.cls-7{stroke-width:4.4px;}.cls-6{letter-spacing:0.25em;}.cls-7{stroke:#a73766;}.cls-8{stroke-width:5px;}.cls-10{letter-spacing:1.33em;}.cls-11{letter-spacing:0.83em;}.cls-12{letter-spacing:0.5em;}</style></defs><title>3234_7149</title><rect id="_長方形_" data-name="&lt;長方形&gt;" class="cls-1" x="426" y="627" width="400" height="100"/><text class="cls-2" transform="translate(581 666.12)">散岐線<tspan class="cls-3"><tspan x="-65" y="27.2">(local bus)Sanuki line</tspan></tspan></text><line class="cls-4" x1="526" y1="707" x2="726" y2="707"/><line class="cls-5" x1="526" y1="707" x2="726" y2="707"/><rect id="_長方形_2" data-name="&lt;長方形&gt;" class="cls-1" x="471.97" y="807.98" width="400" height="100"/><text class="cls-2" transform="translate(555.72 847.1)">南部幹<tspan class="cls-6" x="90" y="0">線(</tspan><tspan x="150" y="0">快</tspan><tspan class="cls-6" x="180" y="0">速</tspan><tspan x="217.5" y="0">)</tspan><tspan class="cls-3"><tspan x="-63.75" y="27.2">(local bus)South Shuttle line(Rapid)</tspan></tspan></text><line class="cls-4" x1="571.97" y1="887.98" x2="771.97" y2="887.98"/><line class="cls-7" x1="571.97" y1="887.98" x2="771.97" y2="887.98"/><line class="cls-8" x1="626" y1="627" x2="603.76" y2="468.87"/><path class="cls-9" d="M599.56,439c7.2,13.33,18.55,29.52,29.5,39l-24.75-5.21L582,484.62C589.88,472.48,596.33,453.78,599.56,439Z"/><line class="cls-8" x1="671.97" y1="907.98" x2="897.77" y2="1049.11"/><path class="cls-9" d="M923.36,1065.11c-14.84-3.06-34.54-4.78-48.85-2.49l19.9-15.61,5.31-24.71C903.93,1036.16,914.11,1053.12,923.36,1065.11Z"/><path class="cls-1" d="M204.89,976.36h-315v50h315a25,25,0,0,0,25-25h0A25,25,0,0,0,204.89,976.36Z"/><text class="cls-2" transform="translate(-60.11 1012.76)"><tspan class="cls-10">小</tspan><tspan class="cls-11" x="70" y="0">倉</tspan><tspan class="cls-12" x="125" y="-3.8">Ogur</tspan><tspan class="cls-3" x="205" y="-3.8">a</tspan></text><line class="cls-1" x1="307.12" y1="923.48" x2="49.89" y2="976.36"/><circle class="cls-1" cx="307.12" cy="923.48" r="10"/><rect class="cls-13" x="-5031" y="-7164" width="11720" height="11720"/></svg>