<svg id="_13zoom" data-name="13zoom" xmlns="http://www.w3.org/2000/svg" xmlns:xlink="http://www.w3.org/1999/xlink" viewBox="0 0 1024 1024"><defs><style>.cls-1,.cls-18,.cls-3,.cls-8{fill:#231815;}.cls-1,.cls-11,.cls-2,.cls-5,.cls-7{stroke:#231815;}.cls-1,.cls-11,.cls-2,.cls-5,.cls-6,.cls-7{stroke-miterlimit:10;}.cls-1,.cls-11,.cls-2{stroke-width:4px;}.cls-10,.cls-2{fill:#fff;}.cls-3{font-size:30px;}.cls-10,.cls-18,.cls-3{font-family:NotoSansMonoCJKjp-Regular-90ms-RKSJ-H, Noto Sans Mono CJK JP;}.cls-14,.cls-17,.cls-4{font-size:20px;}.cls-11,.cls-29,.cls-5,.cls-6,.cls-7{fill:none;}.cls-5,.cls-6{stroke-linecap:round;}.cls-5{stroke-width:8.79px;}.cls-6{stroke:#00ada9;stroke-width:4.4px;}.cls-7{stroke-width:5px;}.cls-9{clip-path:url(#clip-path);}.cls-10{font-size:48px;}.cls-12{letter-spacing:1.07em;}.cls-13{letter-spacing:0.57em;}.cls-14{letter-spacing:0.1em;}.cls-15{letter-spacing:1.33em;}.cls-16{letter-spacing:0.83em;}.cls-17,.cls-28{letter-spacing:0.5em;}.cls-18{font-size:25px;}.cls-19{letter-spacing:-0.04em;}.cls-20{letter-spacing:0.03em;}.cls-21{letter-spacing:0.03em;}.cls-22{letter-spacing:0.02em;}.cls-23{letter-spacing:-0.01em;}.cls-24{letter-spacing:-0.02em;}.cls-25{letter-spacing:-0.03em;}.cls-26{letter-spacing:0.26em;}.cls-27{font-size:15px;}</style><clipPath id="clip-path"><path id="_クリッピングパス_" data-name="&lt;クリッピングパス&gt;" class="cls-1" d="M929.48,438.6a25,25,0,0,0-25,25h0a25,25,0,0,0,25,25h35v-50Z"/></clipPath></defs><title>3235_7149</title><rect id="_長方形_" data-name="&lt;長方形&gt;" class="cls-2" x="151.5" y="147.02" width="400" height="100"/><text class="cls-3" transform="translate(306.5 186.14)">佐治線<tspan class="cls-4"><tspan x="-55" y="27.2">(local bus)Saji line</tspan></tspan></text><line class="cls-5" x1="251.5" y1="227.02" x2="451.5" y2="227.02"/><line class="cls-6" x1="251.5" y1="227.02" x2="451.5" y2="227.02"/><line class="cls-7" x1="351.5" y1="247.02" x2="323.71" y2="322.6"/><path class="cls-8" d="M313.29,350.92c0-15.15-2.4-34.79-7.56-48.32l19.34,16.28,25.29.13C337.65,326,323.13,339.41,313.29,350.92Z"/><line class="cls-7" x1="671.97" y1="-116.02" x2="897.77" y2="25.11"/><path class="cls-8" d="M923.36,41.11c-14.84-3.06-34.54-4.78-48.85-2.49L894.41,23,899.72-1.7C903.93,12.16,914.11,29.12,923.36,41.11Z"/><path id="_クリッピングパス_2" data-name="&lt;クリッピングパス&gt;" class="cls-8" d="M929.48,438.6a25,25,0,0,0-25,25h0a25,25,0,0,0,25,25h35v-50Z"/><g class="cls-9"><text class="cls-10" transform="translate(915.48 479.57)">66</text></g><path id="_クリッピングパス_3" data-name="&lt;クリッピングパス&gt;" class="cls-11" d="M929.48,438.6a25,25,0,0,0-25,25h0a25,25,0,0,0,25,25h35v-50Z"/><path class="cls-2" d="M1279.48,438.6h-315v50h315a25,25,0,0,0,25-25h0A25,25,0,0,0,1279.48,438.6Z"/><text class="cls-3" transform="translate(1014.48 475)"><tspan class="cls-12">用</tspan><tspan class="cls-13" x="62" y="0">瀬</tspan><tspan class="cls-14" x="109" y="-3.8">Mochigas</tspan><tspan class="cls-4" x="205" y="-3.8">e</tspan></text><line class="cls-2" x1="868.09" y1="346.46" x2="1124.48" y2="438.6"/><circle class="cls-2" cx="868.09" cy="346.46" r="10"/><path class="cls-2" d="M204.89-47.64h-315v50h315a25,25,0,0,0,25-25h0A25,25,0,0,0,204.89-47.64Z"/><text class="cls-3" transform="translate(-60.11 -11.24)"><tspan class="cls-15">小</tspan><tspan class="cls-16" x="70" y="0">倉</tspan><tspan class="cls-17" x="125" y="-3.8">Ogur</tspan><tspan class="cls-4" x="205" y="-3.8">a</tspan></text><path id="_クリッピングパス_4" data-name="&lt;クリッピングパス&gt;" class="cls-8" d="M889.08,580a25,25,0,0,0-25,25h0a25,25,0,0,0,25,25h35V580Z"/><path id="_クリッピングパス_5" data-name="&lt;クリッピングパス&gt;" class="cls-11" d="M889.08,580a25,25,0,0,0-25,25h0a25,25,0,0,0,25,25h35V580Z"/><path class="cls-2" d="M1239.08,580h-315v50h315a25,25,0,0,0,25-25h0A25,25,0,0,0,1239.08,580Z"/><text class="cls-18" transform="translate(933.36 611.97)"><tspan class="cls-19">用</tspan><tspan class="cls-20" x="23.97" y="0">瀬</tspan><tspan class="cls-21" x="49.64" y="0">小</tspan><tspan class="cls-22" x="75.39" y="0">運</tspan><tspan class="cls-23" x="100.79" y="0">動</tspan><tspan class="cls-24" x="125.54" y="0">公</tspan><tspan class="cls-25" x="150.05" y="0">園</tspan><tspan class="cls-26" x="174.32" y="0">前</tspan><tspan class="cls-27" x="205.72" y="-3.8">(Mochigase E.S.)</tspan></text><line class="cls-2" x1="833.59" y1="511.45" x2="1084.08" y2="579.97"/><circle class="cls-2" cx="833.59" cy="511.45" r="10"/><path id="_クリッピングパス_6" data-name="&lt;クリッピングパス&gt;" class="cls-8" d="M482.64,88a25,25,0,0,0-25,25h0a25,25,0,0,0,25,25h35V88Z"/><path id="_クリッピングパス_7" data-name="&lt;クリッピングパス&gt;" class="cls-11" d="M482.64,88a25,25,0,0,0-25,25h0a25,25,0,0,0,25,25h35V88Z"/><path class="cls-2" d="M832.64,88h-315v50h315a25,25,0,0,0,25-25h0A25,25,0,0,0,832.64,88Z"/><text class="cls-3" transform="translate(537.64 124.37)">用瀬駅<tspan class="cls-28" x="90" y="0">前</tspan><tspan class="cls-4" x="135" y="-3.8">(Mochigase Sta.)</tspan></text><line class="cls-2" x1="917.59" y1="298.46" x2="677.64" y2="137.97"/><circle class="cls-2" cx="917.59" cy="298.46" r="10"/><rect class="cls-29" x="-5031" y="-8188" width="11720" height="11720"/></svg>