<svg id="routes" xmlns="http://www.w3.org/2000/svg" xmlns:xlink="http://www.w3.org/1999/xlink" viewBox="0 0 1024 1024"><defs><style>.cls-1,.cls-3,.cls-4,.cls-5{fill:none;}.cls-2{clip-path:url(#clip-path);}.cls-3{stroke:#231815;stroke-width:8.79px;}.cls-3,.cls-4,.cls-5{stroke-linecap:round;stroke-miterlimit:10;}.cls-4{stroke:#ebca1b;}.cls-4,.cls-5{stroke-width:4.4px;}.cls-5{stroke:#00ada9;}</style><clipPath id="clip-path"><rect class="cls-1" x="-4007" y="-8188" width="11720" height="11720"/></clipPath></defs><title>3235_7148</title><g class="cls-2"><g id="日ノ丸線"><g id="江波"><path class="cls-3" d="M1706,1056.54l-3.41-21.17c-.32-1.76-.51-3.54-.7-5.32l-.58-5.35-1.2-11,0-45.24.93-12.59,1.13-6.36,3.86-13.85,7.42-15.86,7.31-15.33,7.32-15.34,3.66-7.67.92-1.92.87-1.88,1.77-3.9c1.12-2.6,2.48-5.18,3.72-7.73l3.68-7.61c2.46-5.06,4.82-10.23,7.24-15.35s4.86-10.23,7.32-15.34l7.27-15.08,3.12-8.29c.55-1.42,1-2.85,1.64-4.26l1.68-3.91,1.4-4.92c.49-1.76,1-3.49,1.43-5.31l2.51-10.84c.78-3.62,1.81-7.21,2.78-10.8l2.94-10.79,11.7-43c1-3.55,1.85-7.19,2.7-10.81l2.54-10.87,1.28-5.44c.43-1.81.8-3.63,1.37-5.41l3.12-10.73,1.56-5.36.78-2.68.68-2.68,2.7-10.75,5.34-21.2,1.4-12.51.21-18.09.15-1.46c0-.41.09-.83.15-1.25l.19-1.24.19-1.1c.14-.74.22-1.45.32-2.16l.35-2.45.63-3,.89-2.46,1.12-1.93.55-.77.38-.52c.25-.32.49-.64.74-1s.47-.7.77-1.08l1.15-1.48,1.51-1.41,1.21-1.21c.81-.8,1.6-1.62,2.43-2.4l5.12-4.54,5.12-4.53,4.75-4.15,3.73-4.57,1.82-3.35.9-2.34.51-3.33.17-8.74-1-15.56-.22-4-.1-4-.19-7.73-1.3-12.84-3.2-6.7c-1-2-2.71-4.68-4.12-7.12s-2.92-4.91-4.37-7.49c-.7-1.3-1.48-2.59-2.12-3.89l-2.11-4.15-2.38-6-.6-5.12V436.13l1.28-5.51,2.87-7.1,2-3.67c.6-1.15,1.26-2.19,1.89-3.29l3.82-6.5,7.77-13.21,15.16-21.5,6.83-24.35L1898.33,310l8.9-9.9,8.23-9.19,8.18-9.2c2.72-3.06,5.33-6.14,8-9.21l4-4.6c1.34-1.53,2.52-3.1,3.8-4.64,2.49-3.11,5.06-6.19,7.34-9.37l3.51-4.74c1.2-1.56,2.17-3.21,3.27-4.82s2.16-3.18,3.16-4.92l2.62-4.37,1.94-4.77,1.12-4.13c.47-1.58.75-3.31,1.14-5l2.07-9.62,2.68-18.78-.07-12.45-.82-9.73-1.54-7.29-1.31-4.16-1.52-4.71-3-9-3.62-8.62-4.78-7.8-6-8.39-12.35-17.33L1927,92.48l-3.56-11.79-1.55-12.37-.43-10,.66-11.32,2.59-12.24,1.57-4.42.35-1.35.53-1.63,1.3-4,3.57-7.08,1-2a15.91,15.91,0,0,1,1.61-2.5l2-2.88,8.15-11.51,16.3-23,9.56,6.77,5.28,1.23,1.38.32L1987.67-15l9.09,2.26L2003.83-7l8.49,6.28L2019,2.05l4.12,1.81,2,.89,30.44,15,17.66,8.5,2.51,1.22,15.61,8.57,16.61,8.72,10.75,5.75L2131,58.9l2,1.07,8,4.11,11,4.73,8.92,2.45,9.31,2.2,2.94.31,12.94,1.36,28.13,1.47,11.6-.62L2238,73.21l6.93-2.59,16.1-7.43,18.4-8,8.18-3.93,3.63,3.67.45.23,4,1.8,4.94,2.29.29.14,10.57,4,6.57-.42,14.24-.88,15.67-.82,11.37-.48,11.32.15,3.76,1,3.11.82,10.8,4.14,1,.6,10.4,6.33,2.1,2.09,4.6,6.91,4.1,6.16.83,1.54.67,1.42.67,1.38.71,1,.79,1,.91,1.23,1.22,1,1.46,1.15.31.24.71.54,4.06,2.45,1.31.72,4.71,2.61,2.75,1.88,1.58,2.28.62,1.68.74,1.58.56,1.67.56,2.14m-2138,1162.77,3.31-.94,4.51-4.94,1.26-.8,12.86,3.15h14.55l6.08-.49,3.22-.8,8.5-3.06,13.08-6.62,11.86-6.59,13.27-13,5.27-4.16,6.4-3.57,8-1.59,7.1-.38,6.36-.6,4.47-1.42,8.32-5.31,5-4.4,3-7.5,4.15-7.25,10.56-10,2.72-2.08,3.21-1.43,11.34-3.71,13.9-2.42,3.39-1.12,2.55-1.6,1-1L499,1183l2.4-5.3,2.24-6.11.81-1.63,3.68-11.07,2.1-4.83,2.37-3.08,2.7-2.39,5.45-3.23,7.22-2.88h2.71l3.86,2.25,5.85,5.34,4.4,4,3.68,2.71,4.31,2.43,1.6,1.12,2.08,2.08.95,2.42,2.1,8.05,1.28,6.91,1.12,4.19,1.12,1.54,2,.86h3.16l6.66-1.29,3.22-.79,6.22-1.15,7.35-1.91,10.09-4.19,13.6-7.71,16.33-8,17-9.64,2.73-2.43,2.56-4.82,1.44-1.6,3-1.77,5.12-2.57,3.2-1h5.91l7.85,1.29,5.75.17,7.82-1.77,9.44-.49,7.35-1.45,7.53-2.43,5.61-1.29,10.41-1h6.88l2.86,1,4.65,2.09,7.69,5.65,1.09.32,1.47.48.47-.48,1.14-.49,1.75-1.62,11.52-15.42,3.52-4,3.68-2.24,2.89-1,7.68-1.45,7.83-1.12h15.83l4.5-1,5.91-2.91,1.13-1.11,1.6-1,6.38-6.43L844.93,1086l2.24-1.77,4.33-1,17.77-.34,3.68-.63,2.56-.37,1.58-.45,1.31-1.26.42-2.11.37-3.6.51-2.14,1.1-2.19,3-1.72,5.6-2.08,5.92-1.29,4.49-.17,11,1.6,9.13,2.09,5.45,2.73,5,3.23,5.9,6,8.66,9.19,7.17,6.08,4.29,3.27,2.75,1.65,3.79.47h3.5l6.43-1.31,4.56-5.56,16.46-2,5.12.8,6.71,2.88,5.92,3.89,3.21,2.57,1.28.79,6.68,6.42.52.49,2.86,1.77,7.38,3.54,10.72,7.39,8.64,6.57,8.8,6.28,10.48,5.82,7.6,3.34,5.12,2.25,10.38,3.71.82.32,1.12.65,10.08,4,7.67,4,4.16,2.91,1.28,1.6,1,2.91.16,4.82-.63,4.32-1.6,6.13-1.78,3.37-3.84,4.19-5.75,4.83-2.07,2.57-.49.93-1.44,4.37-1.28,5.31-1.1,8.51.47.8,1.6,4.68,7.52,13.35,6.88,10.76,3,.66,5.61.62h5.59l6.25.18,4.65.34,10.72.28,6.57.49,3.68.51,6.38,2.23,4.32,2.08.49,2,.31,6.59-.47,10.16V1276l.31,6.28-.31,4.79-2.72,7.56-4,8.85-1.44,4.65v3.08l.79,1.78.49.31,1.28.8,2.56-.49.79-.31,9.78-4.83,8.15-3.22,5.29-1.29,5.75-1,10.72.17,1-.34,6.06-3.68,1.28-.48,2.14-.29,4.06.74,7.31,4.11,4.12-.2,7.17-2.8,3.68-1,4.82.34,3.68,3.05,10.72,14.64,2.55,4.48,1.94,6.14.79,4.82v7.54l-1.77,9L1270,1357v13.15l1.72,23.23,1,2.8,6.12,7.93,1.21,1.77,1.89-1.23,6.47.09,3.22-.8,7.54-4.34,6.53-5.3,7.84-7.57,16.35-16.41,8.8-7.87,7-6.14,8.49-5.37,8.46-4.39,5.18-1.71,7-2.06,8.68-2.8,12.69-2.12,1.24-.2,1.17-.5,1.27-.62,1-1,1-1.67.5-1.59,2.9-8.43,2.08-2.79,2.13-1.14,2.27-1.42,6.82-2.13,2.87-.92,1.54-.5,3.84-1.14,2-.59,2.28-.68,8.68-2.67,5.25-1.6,3.26-1,4.55-1.41,10.34-3.68,7.48-4,1.15-.62,7.18-5.17,1.08-.88,9.46-7.82.89-.73,7.36-6.48,6.47-7.06,6.62-9.71,7.65-16.92.63-2.13,1.31-3.31,2.47-5.45,3.57-7.66,4.2-7.87,1.52-2.8,5-7.42,4.51-6.73,3.85-6.1,2.8-3.66,3.23-4.86,4.16-6.8,3.16-7.41,4.56-15.14,3.88-11.78,2.54-5.13,2.05-3.28,2.46-2.87,4.47-3.85,9.41-6.3,15.47-9.17,9.36-5.09,2.24-1.29.66-.27,6-2.49,9.87-4.12,2.79-1.18,2.69-1.15,7.8-3.34,4.15-1.43,2.56-1.31,13.69-6.16,4.14-1.38,2.66-.79,2.2-.66,6.41-2.6,3.4-1.62,3.41-2.43,2.47-1.76,1.17-.84,2.68-3.16,10.16-8.14.49-.39,1.86-1.55m-.55-3.43.55,3.43"/><path class="cls-4" d="M1706,1056.54l-3.41-21.17c-.32-1.76-.51-3.54-.7-5.32l-.58-5.35-1.2-11,0-45.24.93-12.59,1.13-6.36,3.86-13.85,7.42-15.86,7.31-15.33,7.32-15.34,3.66-7.67.92-1.92.87-1.88,1.77-3.9c1.12-2.6,2.48-5.18,3.72-7.73l3.68-7.61c2.46-5.06,4.82-10.23,7.24-15.35s4.86-10.23,7.32-15.34l7.27-15.08,3.12-8.29c.55-1.42,1-2.85,1.64-4.26l1.68-3.91,1.4-4.92c.49-1.76,1-3.49,1.43-5.31l2.51-10.84c.78-3.62,1.81-7.21,2.78-10.8l2.94-10.79,11.7-43c1-3.55,1.85-7.19,2.7-10.81l2.54-10.87,1.28-5.44c.43-1.81.8-3.63,1.37-5.41l3.12-10.73,1.56-5.36.78-2.68.68-2.68,2.7-10.75,5.34-21.2,1.4-12.51.21-18.09.15-1.46c0-.41.09-.83.15-1.25l.19-1.24.19-1.1c.14-.74.22-1.45.32-2.16l.35-2.45.63-3,.89-2.46,1.12-1.93.55-.77.38-.52c.25-.32.49-.64.74-1s.47-.7.77-1.08l1.15-1.48,1.51-1.41,1.21-1.21c.81-.8,1.6-1.62,2.43-2.4l5.12-4.54,5.12-4.53,4.75-4.15,3.73-4.57,1.82-3.35.9-2.34.51-3.33.17-8.74-1-15.56-.22-4-.1-4-.19-7.73-1.3-12.84-3.2-6.7c-1-2-2.71-4.68-4.12-7.12s-2.92-4.91-4.37-7.49c-.7-1.3-1.48-2.59-2.12-3.89l-2.11-4.15-2.38-6-.6-5.12V436.13l1.28-5.51,2.87-7.1,2-3.67c.6-1.15,1.26-2.19,1.89-3.29l3.82-6.5,7.77-13.21,15.16-21.5,6.83-24.35L1898.33,310l8.9-9.9,8.23-9.19,8.18-9.2c2.72-3.06,5.33-6.14,8-9.21l4-4.6c1.34-1.53,2.52-3.1,3.8-4.64,2.49-3.11,5.06-6.19,7.34-9.37l3.51-4.74c1.2-1.56,2.17-3.21,3.27-4.82s2.16-3.18,3.16-4.92l2.62-4.37,1.94-4.77,1.12-4.13c.47-1.58.75-3.31,1.14-5l2.07-9.62,2.68-18.78-.07-12.45-.82-9.73-1.54-7.29-1.31-4.16-1.52-4.71-3-9-3.62-8.62-4.78-7.8-6-8.39-12.35-17.33L1927,92.48l-3.56-11.79-1.55-12.37-.43-10,.66-11.32,2.59-12.24,1.57-4.42.35-1.35.53-1.63,1.3-4,3.57-7.08,1-2a15.91,15.91,0,0,1,1.61-2.5l2-2.88,8.15-11.51,16.3-23,9.56,6.77,5.28,1.23,1.38.32L1987.67-15l9.09,2.26L2003.83-7l8.49,6.28L2019,2.05l4.12,1.81,2,.89,30.44,15,17.66,8.5,2.51,1.22,15.61,8.57,16.61,8.72,10.75,5.75L2131,58.9l2,1.07,8,4.11,11,4.73,8.92,2.45,9.31,2.2,2.94.31,12.94,1.36,28.13,1.47,11.6-.62L2238,73.21l6.93-2.59,16.1-7.43,18.4-8,8.18-3.93,3.63,3.67.45.23,4,1.8,4.94,2.29.29.14,10.57,4,6.57-.42,14.24-.88,15.67-.82,11.37-.48,11.32.15,3.76,1,3.11.82,10.8,4.14,1,.6,10.4,6.33,2.1,2.09,4.6,6.91,4.1,6.16.83,1.54.67,1.42.67,1.38.71,1,.79,1,.91,1.23,1.22,1,1.46,1.15.31.24.71.54,4.06,2.45,1.31.72,4.71,2.61,2.75,1.88,1.58,2.28.62,1.68.74,1.58.56,1.67.56,2.14m-2138,1162.77,3.31-.94,4.51-4.94,1.26-.8,12.86,3.15h14.55l6.08-.49,3.22-.8,8.5-3.06,13.08-6.62,11.86-6.59,13.27-13,5.27-4.16,6.4-3.57,8-1.59,7.1-.38,6.36-.6,4.47-1.42,8.32-5.31,5-4.4,3-7.5,4.15-7.25,10.56-10,2.72-2.08,3.21-1.43,11.34-3.71,13.9-2.42,3.39-1.12,2.55-1.6,1-1L499,1183l2.4-5.3,2.24-6.11.81-1.63,3.68-11.07,2.1-4.83,2.37-3.08,2.7-2.39,5.45-3.23,7.22-2.88h2.71l3.86,2.25,5.85,5.34,4.4,4,3.68,2.71,4.31,2.43,1.6,1.12,2.08,2.08.95,2.42,2.1,8.05,1.28,6.91,1.12,4.19,1.12,1.54,2,.86h3.16l6.66-1.29,3.22-.79,6.22-1.15,7.35-1.91,10.09-4.19,13.6-7.71,16.33-8,17-9.64,2.73-2.43,2.56-4.82,1.44-1.6,3-1.77,5.12-2.57,3.2-1h5.91l7.85,1.29,5.75.17,7.82-1.77,9.44-.49,7.35-1.45,7.53-2.43,5.61-1.29,10.41-1h6.88l2.86,1,4.65,2.09,7.69,5.65,1.09.32,1.47.48.47-.48,1.14-.49,1.75-1.62,11.52-15.42,3.52-4,3.68-2.24,2.89-1,7.68-1.45,7.83-1.12h15.83l4.5-1,5.91-2.91,1.13-1.11,1.6-1,6.38-6.43L844.93,1086l2.24-1.77,4.33-1,17.77-.34,3.68-.63,2.56-.37,1.58-.45,1.31-1.26.42-2.11.37-3.6.51-2.14,1.1-2.19,3-1.72,5.6-2.08,5.92-1.29,4.49-.17,11,1.6,9.13,2.09,5.45,2.73,5,3.23,5.9,6,8.66,9.19,7.17,6.08,4.29,3.27,2.75,1.65,3.79.47h3.5l6.43-1.31,4.56-5.56,16.46-2,5.12.8,6.71,2.88,5.92,3.89,3.21,2.57,1.28.79,6.68,6.42.52.49,2.86,1.77,7.38,3.54,10.72,7.39,8.64,6.57,8.8,6.28,10.48,5.82,7.6,3.34,5.12,2.25,10.38,3.71.82.32,1.12.65,10.08,4,7.67,4,4.16,2.91,1.28,1.6,1,2.91.16,4.82-.63,4.32-1.6,6.13-1.78,3.37-3.84,4.19-5.75,4.83-2.07,2.57-.49.93-1.44,4.37-1.28,5.31-1.1,8.51.47.8,1.6,4.68,7.52,13.35,6.88,10.76,3,.66,5.61.62h5.59l6.25.18,4.65.34,10.72.28,6.57.49,3.68.51,6.38,2.23,4.32,2.08.49,2,.31,6.59-.47,10.16V1276l.31,6.28-.31,4.79-2.72,7.56-4,8.85-1.44,4.65v3.08l.79,1.78.49.31,1.28.8,2.56-.49.79-.31,9.78-4.83,8.15-3.22,5.29-1.29,5.75-1,10.72.17,1-.34,6.06-3.68,1.28-.48,2.14-.29,4.06.74,7.31,4.11,4.12-.2,7.17-2.8,3.68-1,4.82.34,3.68,3.05,10.72,14.64,2.55,4.48,1.94,6.14.79,4.82v7.54l-1.77,9L1270,1357v13.15l1.72,23.23,1,2.8,6.12,7.93,1.21,1.77,1.89-1.23,6.47.09,3.22-.8,7.54-4.34,6.53-5.3,7.84-7.57,16.35-16.41,8.8-7.87,7-6.14,8.49-5.37,8.46-4.39,5.18-1.71,7-2.06,8.68-2.8,12.69-2.12,1.24-.2,1.17-.5,1.27-.62,1-1,1-1.67.5-1.59,2.9-8.43,2.08-2.79,2.13-1.14,2.27-1.42,6.82-2.13,2.87-.92,1.54-.5,3.84-1.14,2-.59,2.28-.68,8.68-2.67,5.25-1.6,3.26-1,4.55-1.41,10.34-3.68,7.48-4,1.15-.62,7.18-5.17,1.08-.88,9.46-7.82.89-.73,7.36-6.48,6.47-7.06,6.62-9.71,7.65-16.92.63-2.13,1.31-3.31,2.47-5.45,3.57-7.66,4.2-7.87,1.52-2.8,5-7.42,4.51-6.73,3.85-6.1,2.8-3.66,3.23-4.86,4.16-6.8,3.16-7.41,4.56-15.14,3.88-11.78,2.54-5.13,2.05-3.28,2.46-2.87,4.47-3.85,9.41-6.3,15.47-9.17,9.36-5.09,2.24-1.29.66-.27,6-2.49,9.87-4.12,2.79-1.18,2.69-1.15,7.8-3.34,4.15-1.43,2.56-1.31,13.69-6.16,4.14-1.38,2.66-.79,2.2-.66,6.41-2.6,3.4-1.62,3.41-2.43,2.47-1.76,1.17-.84,2.68-3.16,10.16-8.14.49-.39,1.86-1.55m-.55-3.43.55,3.43"/></g><g id="佐治4"><polyline class="cls-3" points="-2325.96 887.38 -2319.72 884.15 -2314.24 881.1 -2307.98 878.07 -2302.88 876.1 -2300.88 875.13 -2296.25 873.99 -2292.29 873.73 -2290.59 873.85 -2287.37 874.33 -2281.78 875.96 -2267.23 882.55 -2264.01 883.52 -2259.07 883.98 -2256.82 883.52 -2250.9 881.9 -2242.91 878.53 -2238.23 877.02 -2233.94 876.67 -2231.71 876.9 -2227.21 877.7 -2221.79 879.5 -2217.06 880.64 -2211.59 881.47 -2207.24 881.41 -2204.67 880.93 -2201.95 879.7 -2199.71 878.18 -2195.77 875.05 -2193 872.34 -2192.42 871.39 -2191.14 869.54 -2187.72 862.29 -2184.83 856.32 -2182.43 853.1 -2177.96 849.25 -2173.63 846.36 -2162.43 841.05 -2153.95 837.68 -2147.24 835.75 -2144.98 835.26 -2144.03 835.09 -2133.97 835.09 -2128.68 835.57 -2121.48 836.71 -2114.12 837.83 -2104.86 838.17 -2101.34 837.51 -2091.91 835.26 -2082.59 832.2 -2074.6 830.44 -2073.04 830.18 -2068.71 829.46 -2059.12 828.49 -2052.38 828.01 -2048.4 828.01 -2046.49 828.06 -2023.95 827.61 -2018.97 827.15 -2012.44 826.04 -2008.95 825.04 -2002.43 822.58 -1994.39 818.84 -1988.36 815.56 -1983.47 811.93 -1981.65 809.85 -1979.75 806.77 -1967.1 782.16 -1963.72 775.57 -1961.02 770.92 -1959.27 769.12 -1957.76 768.44 -1955.66 768.29 -1951.13 770.06 -1940.08 777.31 -1936.94 778.99 -1923.59 784.71 -1916.07 784.01 -1909.18 781.38 -1902.37 777.82 -1898.96 774.57 -1895.71 766.04 -1892.15 758.92 -1887.5 755.28 -1881.69 753.11 -1872.4 752.1 -1866.93 750.6 -1861.77 747.85 -1851.87 739.92 -1848.03 737.4 -1837.38 733.15 -1829.54 729.76 -1816.42 721.08 -1814.46 719.97 -1810.57 719.27 -1807.34 719.39 -1803.03 719.97 -1786.87 722.53 -1770.6 723.82 -1758.65 721.92 -1752.82 719.85 -1751.42 719.28 -1749.44 718.22 -1747.23 716.94 -1744.67 715.05 -1741.36 712.57 -1735.12 707.09 -1731.95 703.61 -1730.11 701.13 -1724.22 691.56 -1716.04 675.98 -1713.83 672.52 -1711.44 669.55 -1704.28 665.16 -1689.28 664.83 -1678.62 663.5 -1659.78 656 -1646.45 647.5 -1639.9 644.11 -1636.39 642.29 -1633.5 641.56 -1621.4 641.27 -1612.28 644.43 -1604 650.17 -1598.67 654.14 -1595.41 656.79 -1590.52 664.78 -1588.42 667.44 -1586.51 669.27 -1583.65 670.89 -1581.74 671.52 -1579.17 671.87 -1574.82 671.87 -1563.28 670.74 -1538.84 668.35 -1521.07 667.32 -1512.69 668.41 -1498.3 671.64 -1491.94 672 -1484.28 671.04 -1476.66 668.35 -1467.25 664.04 -1449.39 655.98 -1442.39 654.52 -1411.29 657.77 -1405.28 657.94 -1399.09 655.65 -1393.71 652.07 -1387.53 646.86 -1386.38 640.19 -1396.97 601.28 -1395.51 596.88 -1392.25 593.63 -1386.06 592.33 -1367.34 592.65 -1347.56 589.48 -1309.28 583.63 -1284.42 568.84 -1276.64 566.85 -1269.01 568.84 -1259.86 573.1 -1253.96 574.94 -1248.76 575.34 -1241.71 574.48 -1235.31 575.4 -1232.68 578.48 -1230.68 580.71 -1222.95 595.99 -1189.85 619.02 -1183.9 624.51 -1178.86 631.99 -1174.44 642.97 -1169.87 666.92 -1167.12 681.25 -1164.22 685.98 -1157.97 692.08 -1149.05 696.45 -1142.87 697.73 -1137.68 697.88 -1130.82 695.29 -1125.48 691.94 -1119.23 682.32 -1110.86 671.96 -1098.38 660.03 -1083.64 645.93 -1079.65 643.13 -1073.92 642.69 -1069.5 643.34 -1065.5 645.93 -1062.04 649.5 -1040.62 686.17 -1025.59 710.27 -1024.46 712.07 -1015.53 719.83 -1006.78 724.11 -1001.09 725.39 -956.98 720.91 -952.15 719.37 -948.5 715.81 -945.95 710.52 -943.85 700.22 -940.65 692.74 -936.82 689.18 -931.72 684.89 -926.88 682.52 -921.5 681.89 -898.7 684.25 -884.84 686.26 -879.91 688.54 -872 695.73 -865.96 700.94 -863.59 710.16 -865.12 751.23 -862.96 755.1 -860.36 759.78 -855.56 764.92 -851.72 768.46 -849.88 769.55 -847.2 770.61 -837.16 773.6 -832.41 775.51 -829.97 777.25 -828.92 778.31 -826.75 782.14 -819.39 805 -818.11 807.83 -816.53 810.31 -814.39 812.13 -812.06 813.68 -809.64 814.34 -807.57 814.65 -802.41 814.73 -797.88 813.42 -794.73 812.39 -790.61 810.31 -786.44 807.4 -769.97 794.21 -764.69 790.52 -753.98 781.19 -748.71 776.37 -735.6 765.24 -724.22 759.12 -718.49 758.39 -703.4 756.52 -700.43 760.93 -698.45 763.01 -693.05 766.24 -688.07 768.49 -683.74 769.29 -675.93 769.27 -663.89 767.35 -653.35 764.61 -643.91 761.24 -628.07 754.31 -596.47 738.69 -591.12 736.01 -585.37 733.07 -582.96 731.64 -574.09 726.39 -571.2 724.36 -567.57 721.56 -552.27 710.72 -546.82 706.21 -542.49 702.95 -533.87 697.84 -524.91 693.5 -511.77 687.85 -509.37 686.91 -506.38 685.65 -502.18 684.17 -492.88 680.8 -483.61 678.23 -478.26 677.57 -471.78 676.78 -463.94 675.66 -459.53 675.43 -454.01 675.32 -447.77 675.98 -439.13 677.43 -429.21 679.49 -422.51 681.09 -413.7 683.34 -402.29 684.88 -391.95 686.08 -384.15 686.73 -376.57 687.2 -362.51 687.2 -357.23 686.71 -345.7 686.4 -330.84 686.08 -320.78 685.42 -314.82 685.59 -310.88 686.31 -306.22 687.71 -299.02 690.9 -294.11 692.02 -290.87 692.85 -286.77 692.96 -284.45 692.85 -264.14 686.71 -261.09 686.08 -257.01 685.94 -236.28 686.08 -227.16 684.94 -223.01 684.14 -218.98 682.74 -208.59 679.14 -201.73 676.58 -199.95 675.95 -193.41 674.49 -188.75 673.84 -182.21 673.52 -177.48 673.55 -177.48 673.54 -173.76 673.54 -160.46 674.32 -151.17 674.97 -145.88 674.95 -140.52 674.37 -120.17 669.92 -116.44 668.75 -112.83 667.12 -105.29 663.61 -100.09 661.38 -96.22 659.91 -92.15 658.07 -82.86 653.57 -72.77 649.05 -67.95 646.68 -64.79 644.88 -61.41 642.94 -43.17 633.29 -32.16 628.33 -12.17 620.76 -4.49 618.34 2.71 615.71 21.88 608.91 29.52 604.48 40.18 602.16 52.29 599.84 65.29 596.5 80.47 592.67 89.62 590.15 100.32 587.9 109.33 585.53 115.49 583.22 123.04 580.54 124.97 580.06 135.76 577.11 148.8 575.4 153.55 575.4 158.09 575.4 158.95 575.63 160.95 576.2 166.87 577.97 169.59 578.6 173.28 579.4 182.24 581.34 184.47 581.45 189.44 582.36 200.8 583.05 204.9 583.42 216.44 593.94 221.07 595.54 226.02 594.74 246.13 585.64 275.84 570.47 280.14 570.15 290.85 571.43 298.83 571.27 313.84 566.48 363.18 546.84 387.29 532.63 391.35 531.95 403.56 537.5 432.37 546.61 435.17 547.5 439.89 546.84 444.21 545.58 455.37 543.31 466.18 540.35 476.2 536.25 482.69 533.18 490.78 527.03 506.87 514.08 514.23 508.36 521.51 504.71 536.89 497.88 542.24 497.43 549.29 498.22 581.25 517.13 588.3 518.87 597.63 519.13 615.08 513.67 645.3 498.76 659.14 490.1 674.73 475.32 693.37 466.66 713.88 454.94 722.74 449.34 728.79 443.23 736.87 437.91 739.31 436.3 749.96 428.71 756.89 424.18 771.53 420.99 777.19 419.02 805.14 404.76 812.23 400.61 823.11 391.64 859.16 353.46 865.38 347.95 883.23 335.2 920.54 314.26 973.81 287 985.11 284.01 1009.25 284.83 1037.78 285.79 1044.44 286.82 1103.03 306.8 1123.6 306.21 1130.25 307.24 1148.14 317.2 1168.37 326.2 1182.04 328.4 1202.9 326.48 1247.27 320.55 1261.04 319.52 1276.73 320.41 1293.15 323.08 1310.45 328.03 1315 332.22 1337.29 350.92 1359.55 381.82 1361.27 384.41 1366.73 390.23 1379.13 401.2 1388.97 409.32 1408.64 420.87 1412.6 423.39 1427.88 431.27 1444.28 440.1 1455.67 441.96 1470.49 442.11 1480.84 441.47 1494.57 437.4 1497.21 436.69 1505.73 434.99 1514.44 432.54 1528.05 428.6 1531.22 427.58 1549.91 422.11 1566.43 417.04 1575.18 414.31 1585.68 411.25 1590.8 409.69 1591.67 409.46 1606.3 405.85 1612.27 404.37 1627.84 400.67 1646.91 395.99 1658.59 393.22 1669.57 390.45 1701.08 383.52 1707.66 381.16 1713.2 377.89 1718.49 374.22 1726.58 367.59 1730.73 363.39 1744.88 348.75 1747.42 346.67 1751.81 344.31 1756.88 342.13 1758.5 341.44 1783.75 333.62 1803.59 327.22 1809.91 325.55 1811.17 324.88 1818.85 324.01 1825.25 324.42 1830.59 325.35 1833.98 325.95 1836.92 326.95 1838.13 327.58 1843.39 330.35 1848.7 333.88 1850.52 335.09 1854.18 337.52 1855.12 338.15 1878.8 355.03 1881.93 357.32 1901.67 369.95 1926.39 331.33 1950 304.93"/><polyline class="cls-5" points="-2325.96 887.38 -2319.72 884.15 -2314.24 881.1 -2307.98 878.07 -2302.88 876.1 -2300.88 875.13 -2296.25 873.99 -2292.29 873.73 -2290.59 873.85 -2287.37 874.33 -2281.78 875.96 -2267.23 882.55 -2264.01 883.52 -2259.07 883.98 -2256.82 883.52 -2250.9 881.9 -2242.91 878.53 -2238.23 877.02 -2233.94 876.67 -2231.71 876.9 -2227.21 877.7 -2221.79 879.5 -2217.06 880.64 -2211.59 881.47 -2207.24 881.41 -2204.67 880.93 -2201.95 879.7 -2199.71 878.18 -2195.77 875.05 -2193 872.34 -2192.42 871.39 -2191.14 869.54 -2187.72 862.29 -2184.83 856.32 -2182.43 853.1 -2177.96 849.25 -2173.63 846.36 -2162.43 841.05 -2153.95 837.68 -2147.24 835.75 -2144.98 835.26 -2144.03 835.09 -2133.97 835.09 -2128.68 835.57 -2121.48 836.71 -2114.12 837.83 -2104.86 838.17 -2101.34 837.51 -2091.91 835.26 -2082.59 832.2 -2074.6 830.44 -2073.04 830.18 -2068.71 829.46 -2059.12 828.49 -2052.38 828.01 -2048.4 828.01 -2046.49 828.06 -2023.95 827.61 -2018.97 827.15 -2012.44 826.04 -2008.95 825.04 -2002.43 822.58 -1994.39 818.84 -1988.36 815.56 -1983.47 811.93 -1981.65 809.85 -1979.75 806.77 -1967.1 782.16 -1963.72 775.57 -1961.02 770.92 -1959.27 769.12 -1957.76 768.44 -1955.66 768.29 -1951.13 770.06 -1940.08 777.31 -1936.94 778.99 -1923.59 784.71 -1916.07 784.01 -1909.18 781.38 -1902.37 777.82 -1898.96 774.57 -1895.71 766.04 -1892.15 758.92 -1887.5 755.28 -1881.69 753.11 -1872.4 752.1 -1866.93 750.6 -1861.77 747.85 -1851.87 739.92 -1848.03 737.4 -1837.38 733.15 -1829.54 729.76 -1816.42 721.08 -1814.46 719.97 -1810.57 719.27 -1807.34 719.39 -1803.03 719.97 -1786.87 722.53 -1770.6 723.82 -1758.65 721.92 -1752.82 719.85 -1751.42 719.28 -1749.44 718.22 -1747.23 716.94 -1744.67 715.05 -1741.36 712.57 -1735.12 707.09 -1731.95 703.61 -1730.11 701.13 -1724.22 691.56 -1716.04 675.98 -1713.83 672.52 -1711.44 669.55 -1704.28 665.16 -1689.28 664.83 -1678.62 663.5 -1659.78 656 -1646.45 647.5 -1639.9 644.11 -1636.39 642.29 -1633.5 641.56 -1621.4 641.27 -1612.28 644.43 -1604 650.17 -1598.67 654.14 -1595.41 656.79 -1590.52 664.78 -1588.42 667.44 -1586.51 669.27 -1583.65 670.89 -1581.74 671.52 -1579.17 671.87 -1574.82 671.87 -1563.28 670.74 -1538.84 668.35 -1521.07 667.32 -1512.69 668.41 -1498.3 671.64 -1491.94 672 -1484.28 671.04 -1476.66 668.35 -1467.25 664.04 -1449.39 655.98 -1442.39 654.52 -1411.29 657.77 -1405.28 657.94 -1399.09 655.65 -1393.71 652.07 -1387.53 646.86 -1386.38 640.19 -1396.97 601.28 -1395.51 596.88 -1392.25 593.63 -1386.06 592.33 -1367.34 592.65 -1347.56 589.48 -1309.28 583.63 -1284.42 568.84 -1276.64 566.85 -1269.01 568.84 -1259.86 573.1 -1253.96 574.94 -1248.76 575.34 -1241.71 574.48 -1235.31 575.4 -1232.68 578.48 -1230.68 580.71 -1222.95 595.99 -1189.85 619.02 -1183.9 624.51 -1178.86 631.99 -1174.44 642.97 -1169.87 666.92 -1167.12 681.25 -1164.22 685.98 -1157.97 692.08 -1149.05 696.45 -1142.87 697.73 -1137.68 697.88 -1130.82 695.29 -1125.48 691.94 -1119.23 682.32 -1110.86 671.96 -1098.38 660.03 -1083.64 645.93 -1079.65 643.13 -1073.92 642.69 -1069.5 643.34 -1065.5 645.93 -1062.04 649.5 -1040.62 686.17 -1025.59 710.27 -1024.46 712.07 -1015.53 719.83 -1006.78 724.11 -1001.09 725.39 -956.98 720.91 -952.15 719.37 -948.5 715.81 -945.95 710.52 -943.85 700.22 -940.65 692.74 -936.82 689.18 -931.72 684.89 -926.88 682.52 -921.5 681.89 -898.7 684.25 -884.84 686.26 -879.91 688.54 -872 695.73 -865.96 700.94 -863.59 710.16 -865.12 751.23 -862.96 755.1 -860.36 759.78 -855.56 764.92 -851.72 768.46 -849.88 769.55 -847.2 770.61 -837.16 773.6 -832.41 775.51 -829.97 777.25 -828.92 778.31 -826.75 782.14 -819.39 805 -818.11 807.83 -816.53 810.31 -814.39 812.13 -812.06 813.68 -809.64 814.34 -807.57 814.65 -802.41 814.73 -797.88 813.42 -794.73 812.39 -790.61 810.31 -786.44 807.4 -769.97 794.21 -764.69 790.52 -753.98 781.19 -748.71 776.37 -735.6 765.24 -724.22 759.12 -718.49 758.39 -703.4 756.52 -700.43 760.93 -698.45 763.01 -693.05 766.24 -688.07 768.49 -683.74 769.29 -675.93 769.27 -663.89 767.35 -653.35 764.61 -643.91 761.24 -628.07 754.31 -596.47 738.69 -591.12 736.01 -585.37 733.07 -582.96 731.64 -574.09 726.39 -571.2 724.36 -567.57 721.56 -552.27 710.72 -546.82 706.21 -542.49 702.95 -533.87 697.84 -524.91 693.5 -511.77 687.85 -509.37 686.91 -506.38 685.65 -502.18 684.17 -492.88 680.8 -483.61 678.23 -478.26 677.57 -471.78 676.78 -463.94 675.66 -459.53 675.43 -454.01 675.32 -447.77 675.98 -439.13 677.43 -429.21 679.49 -422.51 681.09 -413.7 683.34 -402.29 684.88 -391.95 686.08 -384.15 686.73 -376.57 687.2 -362.51 687.2 -357.23 686.71 -345.7 686.4 -330.84 686.08 -320.78 685.42 -314.82 685.59 -310.88 686.31 -306.22 687.71 -299.02 690.9 -294.11 692.02 -290.87 692.85 -286.77 692.96 -284.45 692.85 -264.14 686.71 -261.09 686.08 -257.01 685.94 -236.28 686.08 -227.16 684.94 -223.01 684.14 -218.98 682.74 -208.59 679.14 -201.73 676.58 -199.95 675.95 -193.41 674.49 -188.75 673.84 -182.21 673.52 -177.48 673.55 -177.48 673.54 -173.76 673.54 -160.46 674.32 -151.17 674.97 -145.88 674.95 -140.52 674.37 -120.17 669.92 -116.44 668.75 -112.83 667.12 -105.29 663.61 -100.09 661.38 -96.22 659.91 -92.15 658.07 -82.86 653.57 -72.77 649.05 -67.95 646.68 -64.79 644.88 -61.41 642.94 -43.17 633.29 -32.16 628.33 -12.17 620.76 -4.49 618.34 2.71 615.71 21.88 608.91 29.52 604.48 40.18 602.16 52.29 599.84 65.29 596.5 80.47 592.67 89.62 590.15 100.32 587.9 109.33 585.53 115.49 583.22 123.04 580.54 124.97 580.06 135.76 577.11 148.8 575.4 153.55 575.4 158.09 575.4 158.95 575.63 160.95 576.2 166.87 577.97 169.59 578.6 173.28 579.4 182.24 581.34 184.47 581.45 189.44 582.36 200.8 583.05 204.9 583.42 216.44 593.94 221.07 595.54 226.02 594.74 246.13 585.64 275.84 570.47 280.14 570.15 290.85 571.43 298.83 571.27 313.84 566.48 363.18 546.84 387.29 532.63 391.35 531.95 403.56 537.5 432.37 546.61 435.17 547.5 439.89 546.84 444.21 545.58 455.37 543.31 466.18 540.35 476.2 536.25 482.69 533.18 490.78 527.03 506.87 514.08 514.23 508.36 521.51 504.71 536.89 497.88 542.24 497.43 549.29 498.22 581.25 517.13 588.3 518.87 597.63 519.13 615.08 513.67 645.3 498.76 659.14 490.1 674.73 475.32 693.37 466.66 713.88 454.94 722.74 449.34 728.79 443.23 736.87 437.91 739.31 436.3 749.96 428.71 756.89 424.18 771.53 420.99 777.19 419.02 805.14 404.76 812.23 400.61 823.11 391.64 859.16 353.46 865.38 347.95 883.23 335.2 920.54 314.26 973.81 287 985.11 284.01 1009.25 284.83 1037.78 285.79 1044.44 286.82 1103.03 306.8 1123.6 306.21 1130.25 307.24 1148.14 317.2 1168.37 326.2 1182.04 328.4 1202.9 326.48 1247.27 320.55 1261.04 319.52 1276.73 320.41 1293.15 323.08 1310.45 328.03 1315 332.22 1337.29 350.92 1359.55 381.82 1361.27 384.41 1366.73 390.23 1379.13 401.2 1388.97 409.32 1408.64 420.87 1412.6 423.39 1427.88 431.27 1444.28 440.1 1455.67 441.96 1470.49 442.11 1480.84 441.47 1494.57 437.4 1497.21 436.69 1505.73 434.99 1514.44 432.54 1528.05 428.6 1531.22 427.58 1549.91 422.11 1566.43 417.04 1575.18 414.31 1585.68 411.25 1590.8 409.69 1591.67 409.46 1606.3 405.85 1612.27 404.37 1627.84 400.67 1646.91 395.99 1658.59 393.22 1669.57 390.45 1701.08 383.52 1707.66 381.16 1713.2 377.89 1718.49 374.22 1726.58 367.59 1730.73 363.39 1744.88 348.75 1747.42 346.67 1751.81 344.31 1756.88 342.13 1758.5 341.44 1783.75 333.62 1803.59 327.22 1809.91 325.55 1811.17 324.88 1818.85 324.01 1825.25 324.42 1830.59 325.35 1833.98 325.95 1836.92 326.95 1838.13 327.58 1843.39 330.35 1848.7 333.88 1850.52 335.09 1854.18 337.52 1855.12 338.15 1878.8 355.03 1881.93 357.32 1901.67 369.95 1926.39 331.33 1950 304.93"/></g></g></g></svg>