<svg id="routes" xmlns="http://www.w3.org/2000/svg" xmlns:xlink="http://www.w3.org/1999/xlink" viewBox="0 0 1024 1024"><defs><style>.cls-1,.cls-3,.cls-4{fill:none;}.cls-2{clip-path:url(#clip-path);}.cls-3{stroke:#231815;stroke-width:8.79px;}.cls-3,.cls-4{stroke-linecap:round;stroke-miterlimit:10;}.cls-4{stroke:#ebca1b;stroke-width:4.4px;}</style><clipPath id="clip-path"><rect class="cls-1" x="-4007" y="-9212" width="11720" height="11720"/></clipPath></defs><title>3236_7148</title><g class="cls-2"><g id="日ノ丸線"><g id="江波"><path class="cls-3" d="M1706,32.54l-3.41-21.17c-.32-1.76-.51-3.54-.7-5.32L1701.26.7l-1.2-11,0-45.24.93-12.59,1.13-6.36,3.86-13.85,7.42-15.86,7.31-15.33,7.32-15.34,3.66-7.67.92-1.92.87-1.88,1.77-3.9c1.12-2.6,2.48-5.18,3.72-7.73l3.68-7.61c2.46-5.06,4.82-10.23,7.24-15.35s4.86-10.23,7.32-15.34l7.27-15.08,3.12-8.29c.55-1.42,1-2.85,1.64-4.26l1.68-3.91,1.4-4.92c.49-1.76,1-3.49,1.43-5.31l2.51-10.84c.78-3.62,1.81-7.21,2.78-10.8l2.94-10.79,11.7-43c1-3.55,1.85-7.19,2.7-10.81l2.54-10.87,1.28-5.44c.43-1.81.8-3.63,1.37-5.41l3.12-10.73,1.56-5.36.78-2.68.68-2.68,2.7-10.75,5.34-21.2,1.4-12.51.21-18.09.15-1.46c0-.41.09-.83.15-1.25l.19-1.24.19-1.1c.14-.74.22-1.45.32-2.16l.35-2.45.63-3,.89-2.46,1.12-1.93.55-.77.38-.52c.25-.32.49-.64.74-1s.47-.7.77-1.08l1.15-1.48,1.51-1.41,1.21-1.21c.81-.8,1.6-1.62,2.43-2.4l5.12-4.54,5.12-4.53,4.75-4.15,3.73-4.57,1.82-3.35.9-2.34.51-3.33.17-8.74-1-15.56-.22-4-.1-4-.19-7.73-1.3-12.84-3.2-6.7c-1-2-2.71-4.68-4.12-7.12s-2.92-4.91-4.37-7.49c-.7-1.3-1.48-2.59-2.12-3.89l-2.11-4.15-2.38-6-.6-5.12v-10.83l1.28-5.51,2.87-7.1,2-3.67c.6-1.15,1.26-2.19,1.89-3.29l3.82-6.5,7.77-13.21,15.16-21.5,6.83-24.35,26.27-41,8.9-9.9,8.23-9.19,8.18-9.2c2.72-3.06,5.33-6.14,8-9.21l4-4.6c1.34-1.53,2.52-3.1,3.8-4.64,2.49-3.11,5.06-6.19,7.34-9.37l3.51-4.74c1.2-1.56,2.17-3.21,3.27-4.82s2.16-3.18,3.16-4.92l2.62-4.37,1.94-4.77,1.12-4.13c.47-1.58.75-3.31,1.14-5l2.07-9.62,2.68-18.78-.07-12.45-.82-9.73-1.54-7.29-1.31-4.16-1.52-4.71-3-9-3.62-8.62-4.78-7.8-6-8.39-12.35-17.33L1927-931.52l-3.56-11.79-1.55-12.37-.43-10,.66-11.32,2.59-12.24,1.57-4.42.35-1.35.53-1.63,1.3-4,3.57-7.08,1-2a15.91,15.91,0,0,1,1.61-2.5l2-2.88,8.15-11.51,16.3-23,9.56,6.77,5.28,1.23,1.38.32,10.25,2.38,9.09,2.26,7.07,5.68,8.49,6.28,6.63,2.79,4.12,1.81,2,.89,30.44,15,17.66,8.5,2.51,1.22,15.61,8.57,16.61,8.72,10.75,5.75L2131-965.1l2,1.07,8,4.11,11,4.73,8.92,2.45,9.31,2.2,2.94.31,12.94,1.36,28.13,1.47,11.6-.62,12.18-2.77,6.93-2.59,16.1-7.43,18.4-8,8.18-3.93,3.63,3.67.45.23,4,1.8,4.94,2.29.29.14,10.57,4,6.57-.42,14.24-.88,15.67-.82,11.37-.48,11.32.15,3.76,1,3.11.82,10.8,4.14,1,.6,10.4,6.33,2.1,2.09,4.6,6.91,4.1,6.16.83,1.54.67,1.42.67,1.38.71.95.79,1,.91,1.23,1.22,1,1.46,1.15.31.24.71.54,4.06,2.45,1.31.72,4.71,2.61,2.75,1.88,1.58,2.28.62,1.68.74,1.58.56,1.67.56,2.14M297.76,255.21l3.31-.94,4.51-4.94,1.26-.8,12.86,3.15h14.55l6.08-.49,3.22-.8,8.5-3.06,13.08-6.62L377,234.12l13.27-13,5.27-4.16,6.4-3.57,8-1.59,7.1-.38,6.36-.6,4.47-1.42,8.32-5.31,5-4.4,3-7.5,4.15-7.25,10.56-10,2.72-2.08,3.21-1.43,11.34-3.71,13.9-2.42,3.39-1.12,2.55-1.6,1-1L499,159l2.4-5.3,2.24-6.11.81-1.63,3.68-11.07,2.1-4.83,2.37-3.08,2.7-2.39,5.45-3.23,7.22-2.88h2.71l3.86,2.25,5.85,5.34,4.4,4,3.68,2.71,4.31,2.43,1.6,1.12,2.08,2.08.95,2.42,2.1,8.05,1.28,6.91,1.12,4.19,1.12,1.54,2,.86h3.16l6.66-1.29,3.22-.79,6.22-1.15,7.35-1.91,10.09-4.19,13.6-7.71,16.33-8.05,17-9.64,2.73-2.43,2.56-4.82,1.44-1.6,3-1.77,5.12-2.57,3.2-1h5.91l7.85,1.29,5.75.17L694,113.2l9.44-.49,7.35-1.45,7.53-2.43,5.61-1.29,10.41-1h6.88l2.86,1,4.65,2.09,7.69,5.65,1.09.32,1.47.48.47-.48,1.14-.49,1.75-1.62L773.9,98.07l3.52-4,3.68-2.24,2.89-1,7.68-1.45,7.83-1.12h15.83l4.5-1,5.91-2.91,1.13-1.11,1.6-1,6.38-6.43L844.93,62l2.24-1.77,4.33-.95L869.27,59l3.68-.63,2.56-.37,1.58-.45,1.31-1.26.42-2.11.37-3.6.51-2.14,1.1-2.19,3-1.72,5.6-2.08,5.92-1.29,4.49-.17,11,1.6L920,44.65l5.45,2.73,5,3.23,5.9,6,8.66,9.19,7.17,6.08,4.29,3.27,2.75,1.65,3.79.47h3.5l6.43-1.31,4.56-5.56,16.46-2,5.12.8,6.71,2.88,5.92,3.89,3.21,2.57,1.28.79,6.68,6.42.52.49,2.86,1.77,7.38,3.54,10.72,7.39,8.64,6.57,8.8,6.28,10.48,5.82,7.6,3.34,5.12,2.25,10.38,3.71.82.32,1.12.65,10.08,4,7.67,4,4.16,2.91,1.28,1.6,1,2.91.16,4.82-.63,4.32-1.6,6.13-1.78,3.37-3.84,4.19-5.75,4.83-2.07,2.57-.49.93-1.44,4.37-1.28,5.31-1.1,8.51.47.8,1.6,4.68,7.52,13.35,6.88,10.76,3,.66,5.61.62h5.59l6.25.18,4.65.34,10.72.28,6.57.49,3.68.51,6.38,2.23,4.32,2.08.49,1.95.31,6.59-.47,10.16V252l.31,6.28-.31,4.79-2.72,7.56-4,8.85-1.44,4.65v3.08l.79,1.78.49.31,1.28.8,2.56-.49.79-.31,9.78-4.83,8.15-3.22,5.29-1.29,5.75-1,10.72.17,1-.34,6.06-3.68,1.28-.48,2.14-.29,4.06.74,7.31,4.11,4.12-.2,7.17-2.8,3.68-1,4.82.34,3.68,3.05,10.72,14.64,2.55,4.48,1.94,6.14.79,4.82v7.54l-1.77,9L1270,333v13.15l1.72,23.23,1,2.8,6.12,7.93,1.21,1.77,1.89-1.23,6.47.09,3.22-.8,7.54-4.34,6.53-5.3,7.84-7.57,16.35-16.41,8.8-7.87,7-6.14,8.49-5.37,8.46-4.39,5.18-1.71,7-2.06,8.68-2.8,12.69-2.12,1.24-.2,1.17-.5,1.27-.62,1-1,1-1.67.5-1.59,2.9-8.43,2.08-2.79,2.13-1.14,2.27-1.42,6.82-2.13,2.87-.92,1.54-.5,3.84-1.14,2-.59,2.28-.68,8.68-2.67,5.25-1.6,3.26-1,4.55-1.41,10.34-3.68,7.48-4,1.15-.62,7.18-5.17,1.08-.88,9.46-7.82.89-.73,7.36-6.48,6.47-7.06,6.62-9.71,7.65-16.92.63-2.13,1.31-3.31,2.47-5.45,3.57-7.66,4.2-7.87,1.52-2.8,5-7.42,4.51-6.73,3.85-6.1,2.8-3.66,3.23-4.86,4.16-6.8,3.16-7.41,4.56-15.14,3.88-11.78,2.54-5.13,2.05-3.28,2.46-2.87,4.47-3.85,9.41-6.3,15.47-9.17,9.36-5.09,2.24-1.29.66-.27,6-2.49,9.87-4.12,2.79-1.18,2.69-1.15,7.8-3.34,4.15-1.43,2.56-1.31,13.69-6.16,4.14-1.38,2.66-.79,2.2-.66,6.41-2.6,3.4-1.62,3.41-2.43,2.47-1.76,1.17-.84,2.68-3.16,10.16-8.14.49-.39L1706.5,36m-.55-3.43.55,3.43"/><path class="cls-4" d="M1706,32.54l-3.41-21.17c-.32-1.76-.51-3.54-.7-5.32L1701.26.7l-1.2-11,0-45.24.93-12.59,1.13-6.36,3.86-13.85,7.42-15.86,7.31-15.33,7.32-15.34,3.66-7.67.92-1.92.87-1.88,1.77-3.9c1.12-2.6,2.48-5.18,3.72-7.73l3.68-7.61c2.46-5.06,4.82-10.23,7.24-15.35s4.86-10.23,7.32-15.34l7.27-15.08,3.12-8.29c.55-1.42,1-2.85,1.64-4.26l1.68-3.91,1.4-4.92c.49-1.76,1-3.49,1.43-5.31l2.51-10.84c.78-3.62,1.81-7.21,2.78-10.8l2.94-10.79,11.7-43c1-3.55,1.85-7.19,2.7-10.81l2.54-10.87,1.28-5.44c.43-1.81.8-3.63,1.37-5.41l3.12-10.73,1.56-5.36.78-2.68.68-2.68,2.7-10.75,5.34-21.2,1.4-12.51.21-18.09.15-1.46c0-.41.09-.83.15-1.25l.19-1.24.19-1.1c.14-.74.22-1.45.32-2.16l.35-2.45.63-3,.89-2.46,1.12-1.93.55-.77.38-.52c.25-.32.49-.64.74-1s.47-.7.77-1.08l1.15-1.48,1.51-1.41,1.21-1.21c.81-.8,1.6-1.62,2.43-2.4l5.12-4.54,5.12-4.53,4.75-4.15,3.73-4.57,1.82-3.35.9-2.34.51-3.33.17-8.74-1-15.56-.22-4-.1-4-.19-7.73-1.3-12.84-3.2-6.7c-1-2-2.71-4.68-4.12-7.12s-2.92-4.91-4.37-7.49c-.7-1.3-1.48-2.59-2.12-3.89l-2.11-4.15-2.38-6-.6-5.12v-10.83l1.28-5.51,2.87-7.1,2-3.67c.6-1.15,1.26-2.19,1.89-3.29l3.82-6.5,7.77-13.21,15.16-21.5,6.83-24.35,26.27-41,8.9-9.9,8.23-9.19,8.18-9.2c2.72-3.06,5.33-6.14,8-9.21l4-4.6c1.34-1.53,2.52-3.1,3.8-4.64,2.49-3.11,5.06-6.19,7.34-9.37l3.51-4.74c1.2-1.56,2.17-3.21,3.27-4.82s2.16-3.18,3.16-4.92l2.62-4.37,1.94-4.77,1.12-4.13c.47-1.58.75-3.31,1.14-5l2.07-9.62,2.68-18.78-.07-12.45-.82-9.73-1.54-7.29-1.31-4.16-1.52-4.71-3-9-3.62-8.62-4.78-7.8-6-8.39-12.35-17.33L1927-931.52l-3.56-11.79-1.55-12.37-.43-10,.66-11.32,2.59-12.24,1.57-4.42.35-1.35.53-1.63,1.3-4,3.57-7.08,1-2a15.91,15.91,0,0,1,1.61-2.5l2-2.88,8.15-11.51,16.3-23,9.56,6.77,5.28,1.23,1.38.32,10.25,2.38,9.09,2.26,7.07,5.68,8.49,6.28,6.63,2.79,4.12,1.81,2,.89,30.44,15,17.66,8.5,2.51,1.22,15.61,8.57,16.61,8.72,10.75,5.75L2131-965.1l2,1.07,8,4.11,11,4.73,8.92,2.45,9.31,2.2,2.94.31,12.94,1.36,28.13,1.47,11.6-.62,12.18-2.77,6.93-2.59,16.1-7.43,18.4-8,8.18-3.93,3.63,3.67.45.23,4,1.8,4.94,2.29.29.14,10.57,4,6.57-.42,14.24-.88,15.67-.82,11.37-.48,11.32.15,3.76,1,3.11.82,10.8,4.14,1,.6,10.4,6.33,2.1,2.09,4.6,6.91,4.1,6.16.83,1.54.67,1.42.67,1.38.71.95.79,1,.91,1.23,1.22,1,1.46,1.15.31.24.71.54,4.06,2.45,1.31.72,4.71,2.61,2.75,1.88,1.58,2.28.62,1.68.74,1.58.56,1.67.56,2.14M297.76,255.21l3.31-.94,4.51-4.94,1.26-.8,12.86,3.15h14.55l6.08-.49,3.22-.8,8.5-3.06,13.08-6.62L377,234.12l13.27-13,5.27-4.16,6.4-3.57,8-1.59,7.1-.38,6.36-.6,4.47-1.42,8.32-5.31,5-4.4,3-7.5,4.15-7.25,10.56-10,2.72-2.08,3.21-1.43,11.34-3.71,13.9-2.42,3.39-1.12,2.55-1.6,1-1L499,159l2.4-5.3,2.24-6.11.81-1.63,3.68-11.07,2.1-4.83,2.37-3.08,2.7-2.39,5.45-3.23,7.22-2.88h2.71l3.86,2.25,5.85,5.34,4.4,4,3.68,2.71,4.31,2.43,1.6,1.12,2.08,2.08.95,2.42,2.1,8.05,1.28,6.91,1.12,4.19,1.12,1.54,2,.86h3.16l6.66-1.29,3.22-.79,6.22-1.15,7.35-1.91,10.09-4.19,13.6-7.71,16.33-8.05,17-9.64,2.73-2.43,2.56-4.82,1.44-1.6,3-1.77,5.12-2.57,3.2-1h5.91l7.85,1.29,5.75.17L694,113.2l9.44-.49,7.35-1.45,7.53-2.43,5.61-1.29,10.41-1h6.88l2.86,1,4.65,2.09,7.69,5.65,1.09.32,1.47.48.47-.48,1.14-.49,1.75-1.62L773.9,98.07l3.52-4,3.68-2.24,2.89-1,7.68-1.45,7.83-1.12h15.83l4.5-1,5.91-2.91,1.13-1.11,1.6-1,6.38-6.43L844.93,62l2.24-1.77,4.33-.95L869.27,59l3.68-.63,2.56-.37,1.58-.45,1.31-1.26.42-2.11.37-3.6.51-2.14,1.1-2.19,3-1.72,5.6-2.08,5.92-1.29,4.49-.17,11,1.6L920,44.65l5.45,2.73,5,3.23,5.9,6,8.66,9.19,7.17,6.08,4.29,3.27,2.75,1.65,3.79.47h3.5l6.43-1.31,4.56-5.56,16.46-2,5.12.8,6.71,2.88,5.92,3.89,3.21,2.57,1.28.79,6.68,6.42.52.49,2.86,1.77,7.38,3.54,10.72,7.39,8.64,6.57,8.8,6.28,10.48,5.82,7.6,3.34,5.12,2.25,10.38,3.71.82.32,1.12.65,10.08,4,7.67,4,4.16,2.91,1.28,1.6,1,2.91.16,4.82-.63,4.32-1.6,6.13-1.78,3.37-3.84,4.19-5.75,4.83-2.07,2.57-.49.93-1.44,4.37-1.28,5.31-1.1,8.51.47.8,1.6,4.68,7.52,13.35,6.88,10.76,3,.66,5.61.62h5.59l6.25.18,4.65.34,10.72.28,6.57.49,3.68.51,6.38,2.23,4.32,2.08.49,1.95.31,6.59-.47,10.16V252l.31,6.28-.31,4.79-2.72,7.56-4,8.85-1.44,4.65v3.08l.79,1.78.49.31,1.28.8,2.56-.49.79-.31,9.78-4.83,8.15-3.22,5.29-1.29,5.75-1,10.72.17,1-.34,6.06-3.68,1.28-.48,2.14-.29,4.06.74,7.31,4.11,4.12-.2,7.17-2.8,3.68-1,4.82.34,3.68,3.05,10.72,14.64,2.55,4.48,1.94,6.14.79,4.82v7.54l-1.77,9L1270,333v13.15l1.72,23.23,1,2.8,6.12,7.93,1.21,1.77,1.89-1.23,6.47.09,3.22-.8,7.54-4.34,6.53-5.3,7.84-7.57,16.35-16.41,8.8-7.87,7-6.14,8.49-5.37,8.46-4.39,5.18-1.71,7-2.06,8.68-2.8,12.69-2.12,1.24-.2,1.17-.5,1.27-.62,1-1,1-1.67.5-1.59,2.9-8.43,2.08-2.79,2.13-1.14,2.27-1.42,6.82-2.13,2.87-.92,1.54-.5,3.84-1.14,2-.59,2.28-.68,8.68-2.67,5.25-1.6,3.26-1,4.55-1.41,10.34-3.68,7.48-4,1.15-.62,7.18-5.17,1.08-.88,9.46-7.82.89-.73,7.36-6.48,6.47-7.06,6.62-9.71,7.65-16.92.63-2.13,1.31-3.31,2.47-5.45,3.57-7.66,4.2-7.87,1.52-2.8,5-7.42,4.51-6.73,3.85-6.1,2.8-3.66,3.23-4.86,4.16-6.8,3.16-7.41,4.56-15.14,3.88-11.78,2.54-5.13,2.05-3.28,2.46-2.87,4.47-3.85,9.41-6.3,15.47-9.17,9.36-5.09,2.24-1.29.66-.27,6-2.49,9.87-4.12,2.79-1.18,2.69-1.15,7.8-3.34,4.15-1.43,2.56-1.31,13.69-6.16,4.14-1.38,2.66-.79,2.2-.66,6.41-2.6,3.4-1.62,3.41-2.43,2.47-1.76,1.17-.84,2.68-3.16,10.16-8.14.49-.39L1706.5,36m-.55-3.43.55,3.43"/></g></g></g></svg>