<svg id="_15zoom" data-name="15zoom" xmlns="http://www.w3.org/2000/svg" xmlns:xlink="http://www.w3.org/1999/xlink" viewBox="0 0 1024 1024"><defs><style>.cls-1,.cls-2{fill:#fff;}.cls-1,.cls-6,.cls-7{stroke:#231815;}.cls-1,.cls-11,.cls-12,.cls-13,.cls-14,.cls-6,.cls-7,.cls-8,.cls-9{stroke-miterlimit:10;}.cls-1,.cls-6{stroke-width:2px;}.cls-3{clip-path:url(#clip-path);}.cls-4{font-size:15px;fill:#231815;font-family:NotoSansMonoCJKjp-Regular-90ms-RKSJ-H, Noto Sans Mono CJK JP;}.cls-5{letter-spacing:0.25em;}.cls-11,.cls-12,.cls-13,.cls-14,.cls-15,.cls-6,.cls-7,.cls-8,.cls-9{fill:none;}.cls-7,.cls-8,.cls-9{stroke-linecap:round;}.cls-7{stroke-width:8.79px;}.cls-8{stroke:#ef845d;}.cls-8,.cls-9{stroke-width:4.4px;}.cls-9{stroke:#ebca1b;}.cls-10{opacity:0.5;}.cls-11,.cls-12,.cls-13,.cls-14{stroke:#e60012;stroke-width:20px;}.cls-11{stroke-dasharray:9.98 9.98;}.cls-13{stroke-dasharray:10.58 10.58;}.cls-14{stroke-dasharray:10.13 10.13;}</style><clipPath id="clip-path"><rect id="_長方形_" data-name="&lt;長方形&gt;" class="cls-1" x="637" y="342.51" width="180" height="50"/></clipPath></defs><title>3231_7145</title><rect id="_長方形_2" data-name="&lt;長方形&gt;" class="cls-2" x="637" y="342.51" width="180" height="50"/><g class="cls-3"><text class="cls-4" transform="translate(667 361.25)">日置線フリー乗降<tspan x="-15" y="20">青谷中学校</tspan><tspan class="cls-5" x="60" y="20">前-</tspan><tspan x="90" y="20">小畑上</tspan></text></g><rect id="_長方形_3" data-name="&lt;長方形&gt;" class="cls-6" x="637" y="342.51" width="180" height="50"/><path class="cls-7" d="M483.39,1322.62l4-4.83,4-6.6,2.73-8.55,1.86-12,1.37-10,.14-3.4,1-5.46,2-4.35,3.21-4.86,3.85-3.37,10.9-8,3.36-3.38,3.53-4.69,3.2-5.46,1.51-1.6,3.63-5.32.79-1.63,5-8.2,7.2-9.84,4.5-5,2.72-2.26,8.43-7.15.68-1.14,1.4-7.58,8.27-36.33,2.23-6.78,1.91-4.35,30.48-57.66,9-21.59.3-.34,14.77-36.89,5.77-15.47,1.12-6.46.49-2.72v-.66l2.4-19.95,2.4-13.35,1.28-9.18,1.58-23.08,1.82-9.86.42-5.61,1.77-14,1.91-8.69,1-5.52.3-7.23-.14-29.54.44-3.67,1.78-8.8v-2.54l-1.71-1.89.26-5.12-.33-7.58-.46-3.55-2.42-12.55-3.66-11.29-1.14-4.52-1.77-13.7-.61-2.77-1-4.29-.46-2.26-5.15-14.35-2.56-8.7L633,734.74,631,716.83l-.33-10.78-.65-8.37-1.12-6.79-1.44-5.63-2.37-7.43-1.94-4.69-3.38-7.27-2.86-8-2-10.3-.3-4-.46-3.78-1.1-21.88-1.3-11-.52-6.61-.16-18.67-.3-6.47v-2.89L610,569.7,607.47,562,601.88,545l-1.79-6.75-1.77-8.55-.16-.8-6.22-12.7-5-8.55-6.1-9.35L576,492l-5.42-6.3-6.92-7.09-3.19-4.83-.49-.46-2.89-6.29-2.56-8.41-1.28-6.29-2.7-12.87-3.24-16.76-7.22-39.24-3-13.64-1.4-8.87-.48-8.35.3-4.83,1.12-8.56,1.44-6.12,1-3.52,4.49-15,4.19-13.9L553,286.07l3.65-8.69,4-8.38L572,248.18l1.28-2.23,15.42-26.12L598,203l4.47-8.7.81-1.6,2-4.5-5.14.19-2.48.49-3.71,1.1L582.73,195c-1.92.87-3.88,1.64-5.83,2.44l-6.13,2.5L565,201.57l-6.66.76c-2.06.23-4.06.27-6.1.41l-12.18.73-24.27,1.42c-11.43.68-22.85,1.46-34.29,2.24l-3-11.25-.19-1.23v-.35l0-.38,0-.76-.09-1.51-.16-3-.3-5.52-1.08-4.45-3-8.28-2.74-9.77-.59-3.93.46-18.77-1.44-12.24.17-11.29L470.77,103v-1.24l.3-3.23V94.79l-.25-3.06-.33-1.59-1.84-5.79c-.31-1-.67-2-.92-3.07l-.91-3.41-4.66-28.48-4.51-28.22L455.41,7l-1.12-7.1c-.17-1.19-.4-2.37-.53-3.56l-.36-3.57-.72-7.14c-.11-1.21-.28-2.32-.43-3.46l-.47-3.49-.95-7c-.17-1.16-.29-2.35-.52-3.47l-.66-3.66,0-.28-.26-2.83c-.1-.9-.15-1.79-.29-2.68l-.65-5-1.24-4.6-7-17.29-4.06-12.47-1.17-2.26-.67-1.28-.35-.62-1.53-1.53L431-87l-5.59-4L415.44-100c-1.62-1.47-3.2-2.86-4.85-4.4l-5.19-5.2-2.75-4.76-2.22-7-1.69-7.52c-.27-1.2-.55-2.41-.78-3.73s-.47-2.58-.64-3.9l-1-7.4-.92-7.63-.21-9.08-.11-4.39c-.05-1.47-.16-2.94-.24-4.4l-1.06-17.91.61-15.1.29-7.4.07-7.11-1.31-18.26-.66-9.24c-.23-3.08-.39-6.16-.76-9.23l-3.74-35.26-.48-.64-17-18.78-12.21-10.85c-4.16-3.68-8.43-7.24-12.64-10.87l-25.37-21.63-3.1-2.61-3.31-2.59c-2.23-1.69-4.35-3.52-6.47-5.34l-12.76-10.9-12.78-10.85-6.38-5.43-6.5-5.81-7.85-8.56-4.24-5.36-9.33-15.11-4.7-10.11-5-15.95-3.35-7.84-11.19,4.77-13.87,6.2-19.11,8.55L178-433.07l-30.8,12.72-4.46-9.86L126.91-465.1"/><path class="cls-8" d="M483.39,1322.62l4-4.83,4-6.6,2.73-8.55,1.86-12,1.37-10,.14-3.4,1-5.46,2-4.35,3.21-4.86,3.85-3.37,10.9-8,3.36-3.38,3.53-4.69,3.2-5.46,1.51-1.6,3.63-5.32.79-1.63,5-8.2,7.2-9.84,4.5-5,2.72-2.26,8.43-7.15.68-1.14,1.4-7.58,8.27-36.33,2.23-6.78,1.91-4.35,30.48-57.66,9-21.59.3-.34,14.77-36.89,5.77-15.47,1.12-6.46.49-2.72v-.66l2.4-19.95,2.4-13.35,1.28-9.18,1.58-23.08,1.82-9.86.42-5.61,1.77-14,1.91-8.69,1-5.52.3-7.23-.14-29.54.44-3.67,1.78-8.8v-2.54l-1.71-1.89.26-5.12-.33-7.58-.46-3.55-2.42-12.55-3.66-11.29-1.14-4.52-1.77-13.7-.61-2.77-1-4.29-.46-2.26-5.15-14.35-2.56-8.7L633,734.74,631,716.83l-.33-10.78-.65-8.37-1.12-6.79-1.44-5.63-2.37-7.43-1.94-4.69-3.38-7.27-2.86-8-2-10.3-.3-4-.46-3.78-1.1-21.88-1.3-11-.52-6.61-.16-18.67-.3-6.47v-2.89L610,569.7,607.47,562,601.88,545l-1.79-6.75-1.77-8.55-.16-.8-6.22-12.7-5-8.55-6.1-9.35L576,492l-5.42-6.3-6.92-7.09-3.19-4.83-.49-.46-2.89-6.29-2.56-8.41-1.28-6.29-2.7-12.87-3.24-16.76-7.22-39.24-3-13.64-1.4-8.87-.48-8.35.3-4.83,1.12-8.56,1.44-6.12,1-3.52,4.49-15,4.19-13.9L553,286.07l3.65-8.69,4-8.38L572,248.18l1.28-2.23,15.42-26.12L598,203l4.47-8.7.81-1.6,2-4.5-5.14.19-2.48.49-3.71,1.1L582.73,195c-1.92.87-3.88,1.64-5.83,2.44l-6.13,2.5L565,201.57l-6.66.76c-2.06.23-4.06.27-6.1.41l-12.18.73-24.27,1.42c-11.43.68-22.85,1.46-34.29,2.24l-3-11.25-.19-1.23v-.35l0-.38,0-.76-.09-1.51-.16-3-.3-5.52-1.08-4.45-3-8.28-2.74-9.77-.59-3.93.46-18.77-1.44-12.24.17-11.29L470.77,103v-1.24l.3-3.23V94.79l-.25-3.06-.33-1.59-1.84-5.79c-.31-1-.67-2-.92-3.07l-.91-3.41-4.66-28.48-4.51-28.22L455.41,7l-1.12-7.1c-.17-1.19-.4-2.37-.53-3.56l-.36-3.57-.72-7.14c-.11-1.21-.28-2.32-.43-3.46l-.47-3.49-.95-7c-.17-1.16-.29-2.35-.52-3.47l-.66-3.66,0-.28-.26-2.83c-.1-.9-.15-1.79-.29-2.68l-.65-5-1.24-4.6-7-17.29-4.06-12.47-1.17-2.26-.67-1.28-.35-.62-1.53-1.53L431-87l-5.59-4L415.44-100c-1.62-1.47-3.2-2.86-4.85-4.4l-5.19-5.2-2.75-4.76-2.22-7-1.69-7.52c-.27-1.2-.55-2.41-.78-3.73s-.47-2.58-.64-3.9l-1-7.4-.92-7.63-.21-9.08-.11-4.39c-.05-1.47-.16-2.94-.24-4.4l-1.06-17.91.61-15.1.29-7.4.07-7.11-1.31-18.26-.66-9.24c-.23-3.08-.39-6.16-.76-9.23l-3.74-35.26-.48-.64-17-18.78-12.21-10.85c-4.16-3.68-8.43-7.24-12.64-10.87l-25.37-21.63-3.1-2.61-3.31-2.59c-2.23-1.69-4.35-3.52-6.47-5.34l-12.76-10.9-12.78-10.85-6.38-5.43-6.5-5.81-7.85-8.56-4.24-5.36-9.33-15.11-4.7-10.11-5-15.95-3.35-7.84-11.19,4.77-13.87,6.2-19.11,8.55L178-433.07l-30.8,12.72-4.46-9.86L126.91-465.1"/><path class="cls-7" d="M116.19-460.37,123.6-444l-12.1,11.8-3.08,3-3,2-5.71,2.27-3.9.81-3.68.75-9.36,1.18-8.07,2-5.11,2.2-5.12,2.81-8,5.47-6.64,5.88-.21.19-2.72,2.44-3.74,3.88-1.67,2.42-2.61,4.65-4.45,9.41L32.72-378l-.41.7-8.87,9.09-6.72,6.08L12.47-358,8.2-354.9l-4.79,2.43-2.64.94-1.66.59h-.52l-8.9,0-9.76.47-3.64.62-2.64,1.08-2.15,1.75-2.68,2.12L-38-336.16l-2.17,2.64-3.68,2.74-4.68,2.43-3.87,1.46-3.2,1,2,9.19,1.94,10.3-.31,9.91c-.07,1.54,0,3.08,0,4.62l0,5.15-2.34,13.51-4.55,14.44-5.76,12.18L-69.28-239c-1.51,2.4-3.11,4.73-4.66,7.1l-5.14,7.77L-88.21-221l-10.63,16.08-.39.59-11.71,18.55-5.33,9.76-4.18,9.37-4.81,23.06-7.6,40.34L-138.25-88-143-78l-16.14,20-18.19,19.83L-203-12.56l-13.74,15-5.7,7.54-58.09,79.79-5.93,7.57-32.11,34.52-4.48,7.17-1.8,3.73-2.32,4.82-7.31,15.13-2.31,2.39-2.46,1.86-8.89,2.85-4.2,1.55-2.33,2.32-1.16,3.14-.83,5.2-3.37,34.72-2.41,56.54-1.9,7.77-2.86,10.47-2.69,11.57-.63,11.58.47,12.21,2.38,15.53-2.7,26.33-.95,26.8.74,8.12.69,11.86,3.8,19.35,3.81,7.92,14.91,18.4,8.88,21.56,3.15,11.68,8.17,4.47,3,2.83.49.46,10.16,7.35,3.84,2.57,6.85,5.32,19.47,15.61,3.08,13.78-.79,10-.69,13.64,1.28,23,1.79,26.77,1.9,32.19v13.31l-2.36,12.11-4.31,13.83-10.3,29.88-.81,3.28,3.13,19.33,2.13,16.49,1.14,20.18-.57,24-12.47,29-3.22,7-8.18,16.31-4.94,11.6-5.12,10.57-7.46,21.31L-333,915.48l-5.26,30.28-3.27,10.94-7.1,11.94-5.12,6-15.91,13.93L-385.34,1003l-5.26,8.17-11.91,25.33-7.38,12.91-6.24,7-10.37,13-11.21,19.72-8.94,20.87-4.54,12.91-4.54,16.89-4.65,17-.9,8.31-.91,4.56-.7,6.37-.08,7.75,1.5,7.65,1.91,5.58,8.82,15.56,1.34,2.5.49,4.16-.33,1.83-2.66,5.74.08,1.5,5.91,34.79.83,4.08-1.9,9.51-3.21,7.45-1.49,1.72"/><path class="cls-9" d="M116.19-460.37,123.6-444l-12.1,11.8-3.08,3-3,2-5.71,2.27-3.9.81-3.68.75-9.36,1.18-8.07,2-5.11,2.2-5.12,2.81-8,5.47-6.64,5.88-.21.19-2.72,2.44-3.74,3.88-1.67,2.42-2.61,4.65-4.45,9.41L32.72-378l-.41.7-8.87,9.09-6.72,6.08L12.47-358,8.2-354.9l-4.79,2.43-2.64.94-1.66.59h-.52l-8.9,0-9.76.47-3.64.62-2.64,1.08-2.15,1.75-2.68,2.12L-38-336.16l-2.17,2.64-3.68,2.74-4.68,2.43-3.87,1.46-3.2,1,2,9.19,1.94,10.3-.31,9.91c-.07,1.54,0,3.08,0,4.62l0,5.15-2.34,13.51-4.55,14.44-5.76,12.18L-69.28-239c-1.51,2.4-3.11,4.73-4.66,7.1l-5.14,7.77L-88.21-221l-10.63,16.08-.39.59-11.71,18.55-5.33,9.76-4.18,9.37-4.81,23.06-7.6,40.34L-138.25-88-143-78l-16.14,20-18.19,19.83L-203-12.56l-13.74,15-5.7,7.54-58.09,79.79-5.93,7.57-32.11,34.52-4.48,7.17-1.8,3.73-2.32,4.82-7.31,15.13-2.31,2.39-2.46,1.86-8.89,2.85-4.2,1.55-2.33,2.32-1.16,3.14-.83,5.2-3.37,34.72-2.41,56.54-1.9,7.77-2.86,10.47-2.69,11.57-.63,11.58.47,12.21,2.38,15.53-2.7,26.33-.95,26.8.74,8.12.69,11.86,3.8,19.35,3.81,7.92,14.91,18.4,8.88,21.56,3.15,11.68,8.17,4.47,3,2.83.49.46,10.16,7.35,3.84,2.57,6.85,5.32,19.47,15.61,3.08,13.78-.79,10-.69,13.64,1.28,23,1.79,26.77,1.9,32.19v13.31l-2.36,12.11-4.31,13.83-10.3,29.88-.81,3.28,3.13,19.33,2.13,16.49,1.14,20.18-.57,24-12.47,29-3.22,7-8.18,16.31-4.94,11.6-5.12,10.57-7.46,21.31L-333,915.48l-5.26,30.28-3.27,10.94-7.1,11.94-5.12,6-15.91,13.93L-385.34,1003l-5.26,8.17-11.91,25.33-7.38,12.91-6.24,7-10.37,13-11.21,19.72-8.94,20.87-4.54,12.91-4.54,16.89-4.65,17-.9,8.31-.91,4.56-.7,6.37-.08,7.75,1.5,7.65,1.91,5.58,8.82,15.56,1.34,2.5.49,4.16-.33,1.83-2.66,5.74.08,1.5,5.91,34.79.83,4.08-1.9,9.51-3.21,7.45-1.49,1.72"/><g class="cls-10"><polyline class="cls-11" points="491.7 1310.25 494.13 1302.64 495.99 1290.69 497.36 1280.74 497.5 1277.34 498.46 1271.88 500.41 1267.53 503.62 1262.67 507.47 1259.3 518.37 1251.27 521.73 1247.89 525.26 1243.2 528.46 1237.74 529.97 1236.14 533.6 1230.82 534.39 1229.19 539.38 1220.99 546.57 1211.15 551.07 1206.15 553.79 1203.89 562.22 1196.74 562.9 1195.6 564.3 1188.02 572.57 1151.69 574.8 1144.91 576.71 1140.56 607.19 1082.9 616.16 1061.31 616.46 1060.97 631.23 1024.08 637 1008.61 638.12 1002.15 638.61 999.43 638.61 998.77 641.01 978.82 643.41 965.47 644.69 956.29 646.27 933.21 648.09 923.35 648.5 917.74 650.28 903.73 652.18 895.04 653.19 889.52 653.49 882.29 653.35 852.75 653.79 849.08 655.57 840.28 655.57 837.74 653.86 835.85 654.12 830.73 653.79 823.15 653.33 819.6 650.91 807.05 647.25 795.76 646.11 791.24 644.34 777.54 643.73 774.76 642.73 770.48 642.27 768.22 637.12 753.87 634.56 745.17 632.95 734.74 631.04 716.84 630.71 706.05 630.06 697.68 628.95 690.89 627.5 685.26 625.13 677.83 623.2 673.14 619.81 665.88 616.95 657.84 614.99 647.54 614.69 643.57 614.23 639.79 613.13 617.91 611.83 606.91 611.31 600.3 611.15 581.63 610.85 575.16 610.85 572.27 610.03 569.7 607.47 561.95 601.88 545.02 600.09 538.27 598.32 529.72 598.16 528.92 591.94 516.22 586.98 507.67 580.88 498.31 576.03 492.03 570.61 485.73 563.69 478.64 560.5 473.81 560.01 473.35 557.12 467.06 554.56 458.65 553.28 452.36 550.58 439.49 547.34 422.73 540.12 383.49 537.09 369.85 535.69 360.98 535.21 352.63 535.51 347.8 536.63 339.24 538.07 333.13 539.12 329.6 543.61 314.65 547.8 300.75 552.98 286.07 556.63 277.38 560.66 269 572.03 248.18 573.31 245.95 588.73 219.83 598.02 203.04 600.99 197.26"/><polyline class="cls-12" points="603.26 192.82 603.3 192.74 605.27 188.24 600.27 188.42"/><path class="cls-13" d="M590.24,191.65l-7.51,3.3c-1.92.87-3.88,1.64-5.83,2.44l-6.13,2.5L565,201.57l-6.66.76c-2.07.23-4.07.27-6.11.41l-12.18.73-24.27,1.42c-8,.47-16,1-24,1.54"/><path class="cls-12" d="M486.52,206.79l-5,.34-1.29-4.83"/><path class="cls-14" d="M478.21,192.41l0-.76-.16-3-.3-5.52-1.08-4.45-3-8.28-2.74-9.77-.59-3.93.46-18.77-1.44-12.24.17-11.29L470.77,103v-1.24l.3-3.23V94.79l-.25-3.06-.33-1.59-1.84-5.79c-.31-1-.67-2-.92-3.07l-.91-3.41-4.66-28.48-4.51-28.22L455.41,7l-1.12-7.1c-.17-1.19-.4-2.37-.53-3.56l-.36-3.57-.72-7.14c-.11-1.21-.28-2.32-.43-3.46l-.47-3.49-.95-7c-.17-1.16-.29-2.35-.52-3.47l-.66-3.66,0-.28-.26-2.83c-.1-.9-.15-1.79-.29-2.68l-.65-5-1.24-4.6-7-17.29-4.06-12.47-1.17-2.26-.67-1.28-.35-.62-1.53-1.53L431-87l-5.59-4L415.44-100c-1.62-1.47-3.2-2.86-4.85-4.4l-5.19-5.2-2.75-4.75-2.22-7-1.69-7.52c-.27-1.2-.55-2.41-.78-3.73s-.47-2.58-.64-3.9l-1-7.4-.92-7.63-.21-9.08-.11-4.39c-.05-1.47-.16-2.94-.24-4.4l-1.06-17.91.61-15.1.29-7.4.07-7.11-1.31-18.26-.66-9.24c-.23-3.08-.39-6.16-.76-9.23l-3.74-35.26-.48-.64-17-18.78-12.21-10.85c-4.16-3.68-8.43-7.24-12.64-10.87l-25.37-21.63-3.1-2.61-3.31-2.59c-2.23-1.69-4.35-3.52-6.47-5.34l-12.76-10.9-12.78-10.85-6.38-5.43-6.5-5.81-7.85-8.56-4.24-5.36-9.33-15.11-4.7-10.11-4.53-14.48"/><polyline class="cls-11" points="491.7 1310.25 494.13 1302.64 495.99 1290.69 497.36 1280.74 497.5 1277.34 498.46 1271.88 500.41 1267.53 503.62 1262.67 507.47 1259.3 518.37 1251.27 521.73 1247.89 525.26 1243.2 528.46 1237.74 529.97 1236.14 533.6 1230.82 534.39 1229.19 539.38 1220.99 546.57 1211.15 551.07 1206.15 553.79 1203.89 562.22 1196.74 562.9 1195.6 564.3 1188.02 572.57 1151.69 574.8 1144.91 576.71 1140.56 607.19 1082.9 616.16 1061.31 616.46 1060.97 631.23 1024.08 637 1008.61 638.12 1002.15 638.61 999.43 638.61 998.77 641.01 978.82 643.41 965.47 644.69 956.29 646.27 933.21 648.09 923.35 648.5 917.74 650.28 903.73 652.18 895.04 653.19 889.52 653.49 882.29 653.35 852.75 653.79 849.08 655.57 840.28 655.57 837.74 653.86 835.85 654.12 830.73 653.79 823.15 653.33 819.6 650.91 807.05 647.25 795.76 646.11 791.24 644.34 777.54 643.73 774.76 642.73 770.48 642.27 768.22 637.12 753.87 634.56 745.17 632.95 734.74 631.04 716.84 630.71 706.05 630.06 697.68 628.95 690.89 627.5 685.26 625.13 677.83 623.2 673.14 619.81 665.88 616.95 657.84 614.99 647.54 614.69 643.57 614.23 639.79 613.13 617.91 611.83 606.91 611.31 600.3 611.15 581.63 610.85 575.16 610.85 572.27 610.03 569.7 607.47 561.95 601.88 545.02 600.09 538.27 598.32 529.72 598.16 528.92 591.94 516.22 586.98 507.67 580.88 498.31 576.03 492.03 570.61 485.73 563.69 478.64 560.5 473.81 560.01 473.35 557.12 467.06 554.56 458.65 553.28 452.36 550.58 439.49 547.34 422.73 540.12 383.49 537.09 369.85 535.69 360.98 535.21 352.63 535.51 347.8 536.63 339.24 538.07 333.13 539.12 329.6 543.61 314.65 547.8 300.75 552.98 286.07 556.63 277.38 560.66 269 572.03 248.18 573.31 245.95 588.73 219.83 598.02 203.04 600.99 197.26"/><polyline class="cls-12" points="603.26 192.82 603.3 192.74 605.27 188.24 600.27 188.42"/><path class="cls-13" d="M590.24,191.65l-7.51,3.3c-1.92.87-3.88,1.64-5.83,2.44l-6.13,2.5L565,201.57l-6.66.76c-2.07.23-4.07.27-6.11.41l-12.18.73-24.27,1.42c-8,.47-16,1-24,1.54"/><path class="cls-12" d="M486.52,206.79l-5,.34-1.29-4.83"/><path class="cls-14" d="M478.21,192.41l0-.76-.16-3-.3-5.52-1.08-4.45-3-8.28-2.74-9.77-.59-3.93.46-18.77-1.44-12.24.17-11.29L470.77,103v-1.24l.3-3.23V94.79l-.25-3.06-.33-1.59-1.84-5.79c-.31-1-.67-2-.92-3.07l-.91-3.41-4.66-28.48-4.51-28.22L455.41,7l-1.12-7.1c-.17-1.19-.4-2.37-.53-3.56l-.36-3.57-.72-7.14c-.11-1.21-.28-2.32-.43-3.46l-.47-3.49-.95-7c-.17-1.16-.29-2.35-.52-3.47l-.66-3.66,0-.28-.26-2.83c-.1-.9-.15-1.79-.29-2.68l-.65-5-1.24-4.6-7-17.29-4.06-12.47-1.17-2.26-.67-1.28-.35-.62-1.53-1.53L431-87l-5.59-4L415.44-100c-1.62-1.47-3.2-2.86-4.85-4.4l-5.19-5.2-2.75-4.75-2.22-7-1.69-7.52c-.27-1.2-.55-2.41-.78-3.73s-.47-2.58-.64-3.9l-1-7.4-.92-7.63-.21-9.08-.11-4.39c-.05-1.47-.16-2.94-.24-4.4l-1.06-17.91.61-15.1.29-7.4.07-7.11-1.31-18.26-.66-9.24c-.23-3.08-.39-6.16-.76-9.23l-3.74-35.26-.48-.64-17-18.78-12.21-10.85c-4.16-3.68-8.43-7.24-12.64-10.87l-25.37-21.63-3.1-2.61-3.31-2.59c-2.23-1.69-4.35-3.52-6.47-5.34l-12.76-10.9-12.78-10.85-6.38-5.43-6.5-5.81-7.85-8.56-4.24-5.36-9.33-15.11-4.7-10.11-4.53-14.48"/><polyline class="cls-11" points="491.7 1310.25 494.13 1302.64 495.99 1290.69 497.36 1280.74 497.5 1277.34 498.46 1271.88 500.41 1267.53 503.62 1262.67 507.47 1259.3 518.37 1251.27 521.73 1247.89 525.26 1243.2 528.46 1237.74 529.97 1236.14 533.6 1230.82 534.39 1229.19 539.38 1220.99 546.57 1211.15 551.07 1206.15 553.79 1203.89 562.22 1196.74 562.9 1195.6 564.3 1188.02 572.57 1151.69 574.8 1144.91 576.71 1140.56 607.19 1082.9 616.16 1061.31 616.46 1060.97 631.23 1024.08 637 1008.61 638.12 1002.15 638.61 999.43 638.61 998.77 641.01 978.82 643.41 965.47 644.69 956.29 646.27 933.21 648.09 923.35 648.5 917.74 650.28 903.73 652.18 895.04 653.19 889.52 653.49 882.29 653.35 852.75 653.79 849.08 655.57 840.28 655.57 837.74 653.86 835.85 654.12 830.73 653.79 823.15 653.33 819.6 650.91 807.05 647.25 795.76 646.11 791.24 644.34 777.54 643.73 774.76 642.73 770.48 642.27 768.22 637.12 753.87 634.56 745.17 632.95 734.74 631.04 716.84 630.71 706.05 630.06 697.68 628.95 690.89 627.5 685.26 625.13 677.83 623.2 673.14 619.81 665.88 616.95 657.84 614.99 647.54 614.69 643.57 614.23 639.79 613.13 617.91 611.83 606.91 611.31 600.3 611.15 581.63 610.85 575.16 610.85 572.27 610.03 569.7 607.47 561.95 601.88 545.02 600.09 538.27 598.32 529.72 598.16 528.92 591.94 516.22 586.98 507.67 580.88 498.31 576.03 492.03 570.61 485.73 563.69 478.64 560.5 473.81 560.01 473.35 557.12 467.06 554.56 458.65 553.28 452.36 550.58 439.49 547.34 422.73 540.12 383.49 537.09 369.85 535.69 360.98 535.21 352.63 535.51 347.8 536.63 339.24 538.07 333.13 539.12 329.6 543.61 314.65 547.8 300.75 552.98 286.07 556.63 277.38 560.66 269 572.03 248.18 573.31 245.95 588.73 219.83 598.02 203.04 600.99 197.26"/><polyline class="cls-12" points="603.26 192.82 603.3 192.74 605.27 188.24 600.27 188.42"/><path class="cls-13" d="M590.24,191.65l-7.51,3.3c-1.92.87-3.88,1.64-5.83,2.44l-6.13,2.5L565,201.57l-6.66.76c-2.07.23-4.07.27-6.11.41l-12.18.73-24.27,1.42c-8,.47-16,1-24,1.54"/><path class="cls-12" d="M486.52,206.79l-5,.34-1.29-4.83"/><path class="cls-14" d="M478.21,192.41l0-.76-.16-3-.3-5.52-1.08-4.45-3-8.28-2.74-9.77-.59-3.93.46-18.77-1.44-12.24.17-11.29L470.77,103v-1.24l.3-3.23V94.79l-.25-3.06-.33-1.59-1.84-5.79c-.31-1-.67-2-.92-3.07l-.91-3.41-4.66-28.48-4.51-28.22L455.41,7l-1.12-7.1c-.17-1.19-.4-2.37-.53-3.56l-.36-3.57-.72-7.14c-.11-1.21-.28-2.32-.43-3.46l-.47-3.49-.95-7c-.17-1.16-.29-2.35-.52-3.47l-.66-3.66,0-.28-.26-2.83c-.1-.9-.15-1.79-.29-2.68l-.65-5-1.24-4.6-7-17.29-4.06-12.47-1.17-2.26-.67-1.28-.35-.62-1.53-1.53L431-87l-5.59-4L415.44-100c-1.62-1.47-3.2-2.86-4.85-4.4l-5.19-5.2-2.75-4.75-2.22-7-1.69-7.52c-.27-1.2-.55-2.41-.78-3.73s-.47-2.58-.64-3.9l-1-7.4-.92-7.63-.21-9.08-.11-4.39c-.05-1.47-.16-2.94-.24-4.4l-1.06-17.91.61-15.1.29-7.4.07-7.11-1.31-18.26-.66-9.24c-.23-3.08-.39-6.16-.76-9.23l-3.74-35.26-.48-.64-17-18.78-12.21-10.85c-4.16-3.68-8.43-7.24-12.64-10.87l-25.37-21.63-3.1-2.61-3.31-2.59c-2.23-1.69-4.35-3.52-6.47-5.34l-12.76-10.9-12.78-10.85-6.38-5.43-6.5-5.81-7.85-8.56-4.24-5.36-9.33-15.11-4.7-10.11-4.53-14.48"/></g><rect class="cls-15" x="-935" y="-4092" width="11720" height="11720"/></svg>