<svg id="_13zoom" data-name="13zoom" xmlns="http://www.w3.org/2000/svg" xmlns:xlink="http://www.w3.org/1999/xlink" viewBox="0 0 1024 1024"><defs><style>.cls-1,.cls-10,.cls-3{fill:#231815;}.cls-1,.cls-13,.cls-2,.cls-7,.cls-8,.cls-9{stroke:#231815;}.cls-1,.cls-13,.cls-2,.cls-6,.cls-7,.cls-8,.cls-9{stroke-miterlimit:10;}.cls-1,.cls-13,.cls-2{stroke-width:4px;}.cls-12,.cls-2{fill:#fff;}.cls-3{font-size:30px;}.cls-12,.cls-3{font-family:NotoSansMonoCJKjp-Regular-90ms-RKSJ-H, Noto Sans Mono CJK JP;}.cls-4{letter-spacing:0.25em;}.cls-5{font-size:20px;}.cls-13,.cls-15,.cls-6,.cls-7,.cls-8,.cls-9{fill:none;}.cls-6{stroke:#718cc7;stroke-width:8.79px;}.cls-6,.cls-7,.cls-8{stroke-linecap:round;}.cls-7,.cls-8{stroke-width:4.4px;}.cls-8{stroke-dasharray:0 28.57;}.cls-9{stroke-width:5px;}.cls-11{clip-path:url(#clip-path);}.cls-12{font-size:48px;}.cls-14{letter-spacing:0.5em;}</style><clipPath id="clip-path"><path id="_クリッピングパス_" data-name="&lt;クリッピングパス&gt;" class="cls-1" d="M800,316.5a25,25,0,0,0-25,25h0a25,25,0,0,0,25,25h35v-50Z"/></clipPath></defs><title>3229_7153</title><rect id="_長方形_" data-name="&lt;長方形&gt;" class="cls-2" x="51.98" y="-59" width="400" height="100"/><text class="cls-3" transform="translate(150.73 -19.88)">岩井<tspan class="cls-4" x="60" y="0">線(</tspan><tspan x="120" y="0">普</tspan><tspan class="cls-4" x="150" y="0">通</tspan><tspan x="187.5" y="0">)</tspan><tspan class="cls-5"><tspan x="-33.75" y="27.2">(local bus)Iwai line(local)</tspan></tspan></text><line class="cls-6" x1="151.98" y1="21" x2="351.98" y2="21"/><line class="cls-7" x1="151.98" y1="21" x2="151.98" y2="21"/><line class="cls-8" x1="180.55" y1="21" x2="337.69" y2="21"/><line class="cls-7" x1="351.98" y1="21" x2="351.98" y2="21"/><line class="cls-9" x1="251.98" y1="41" x2="163.22" y2="193.36"/><path class="cls-10" d="M148,219.43c2.59-14.92,3.7-34.67,1-48.9l16.21,19.41,24.87,4.53C176.36,199.11,159.73,209.81,148,219.43Z"/><path id="_クリッピングパス_2" data-name="&lt;クリッピングパス&gt;" class="cls-10" d="M800,316.5a25,25,0,0,0-25,25h0a25,25,0,0,0,25,25h35v-50Z"/><g class="cls-11"><text class="cls-12" transform="translate(786.01 357.47)">24</text></g><path id="_クリッピングパス_3" data-name="&lt;クリッピングパス&gt;" class="cls-13" d="M800,316.5a25,25,0,0,0-25,25h0a25,25,0,0,0,25,25h35v-50Z"/><path class="cls-2" d="M1150,316.5H835v50h315a25,25,0,0,0,25-25h0A25,25,0,0,0,1150,316.5Z"/><text class="cls-3" transform="translate(855.01 352.9)"><tspan class="cls-14">長谷橋</tspan><tspan class="cls-5" x="135" y="-3.8">Nagatani Bashi</tspan></text><line class="cls-2" x1="812.89" y1="432.26" x2="995.01" y2="366.5"/><circle class="cls-2" cx="812.89" cy="432.26" r="10"/><rect class="cls-15" x="-9127" y="-2044" width="11720" height="11720"/></svg>