<svg id="_15zoom" data-name="15zoom" xmlns="http://www.w3.org/2000/svg" xmlns:xlink="http://www.w3.org/1999/xlink" viewBox="0 0 1024 1024"><defs><style>.cls-1,.cls-2,.cls-7{fill:#231815;}.cls-1,.cls-12,.cls-5,.cls-6{stroke:#231815;stroke-miterlimit:10;}.cls-1,.cls-5,.cls-6{stroke-width:2.4px;}.cls-3{clip-path:url(#clip-path);}.cls-4{font-size:28.8px;}.cls-12,.cls-4,.cls-6{fill:#fff;}.cls-4,.cls-7{font-family:NotoSansMonoCJKjp-Regular-90ms-RKSJ-H, Noto Sans Mono CJK JP;}.cls-13,.cls-5{fill:none;}.cls-7{font-size:18px;}.cls-8{letter-spacing:1.24em;}.cls-9{letter-spacing:0.74em;}.cls-10,.cls-11{font-size:12px;}.cls-10{letter-spacing:0.36em;}.cls-12{stroke-width:4px;}</style><clipPath id="clip-path"><path id="_クリッピングパス_" data-name="&lt;クリッピングパス&gt;" class="cls-1" d="M446.26,340.21a15,15,0,0,0-15,15h0a15,15,0,0,0,15,15h21v-30Z"/></clipPath></defs><title>3232_7147</title><path id="_クリッピングパス_2" data-name="&lt;クリッピングパス&gt;" class="cls-2" d="M446.26,340.21a15,15,0,0,0-15,15h0a15,15,0,0,0,15,15h21v-30Z"/><g class="cls-3"><text class="cls-4" transform="translate(437.84 364.79)">95</text></g><path id="_クリッピングパス_3" data-name="&lt;クリッピングパス&gt;" class="cls-5" d="M446.26,340.21a15,15,0,0,0-15,15h0a15,15,0,0,0,15,15h21v-30Z"/><path class="cls-6" d="M656.26,340.21h-189v30h189a15,15,0,0,0,15-15h0A15,15,0,0,0,656.26,340.21Z"/><text class="cls-7" transform="translate(497.24 362.05)"><tspan class="cls-8">矢</tspan><tspan class="cls-9" x="40.29" y="0">矯</tspan><tspan class="cls-10" x="71.57" y="-2.28">Yahag</tspan><tspan class="cls-11" x="123" y="-2.28">i</tspan></text><line class="cls-6" x1="510" y1="285" x2="563.26" y2="340.21"/><circle class="cls-12" cx="510" cy="285" r="10"/><path class="cls-2" d="M652,1019.85c5.38,7.32,13.48,16,20.78,20.72l-15.14-1-12.29,8.89C649.06,1040.56,651.34,1028.91,652,1019.85Z"/><rect class="cls-13" x="-2983" y="-5116" width="11720" height="11720"/></svg>