<svg id="_15zoom" data-name="15zoom" xmlns="http://www.w3.org/2000/svg" xmlns:xlink="http://www.w3.org/1999/xlink" viewBox="0 0 1024 1024"><defs><style>.cls-1,.cls-12,.cls-13,.cls-2{fill:#fff;}.cls-1,.cls-10,.cls-12,.cls-16,.cls-17,.cls-18,.cls-2,.cls-6,.cls-8{stroke:#231815;}.cls-1,.cls-10,.cls-12,.cls-16,.cls-17,.cls-18,.cls-19,.cls-2,.cls-21,.cls-22,.cls-23,.cls-6,.cls-7,.cls-8{stroke-miterlimit:10;}.cls-1,.cls-16{stroke-width:2px;}.cls-10,.cls-2{stroke-width:2.4px;}.cls-3{font-size:18px;}.cls-15,.cls-3,.cls-9{fill:#231815;}.cls-15,.cls-3{font-family:NotoSansMonoCJKjp-Regular-90ms-RKSJ-H, Noto Sans Mono CJK JP;}.cls-4{letter-spacing:0.25em;}.cls-5{font-size:12px;}.cls-10,.cls-16,.cls-17,.cls-18,.cls-19,.cls-21,.cls-22,.cls-23,.cls-24,.cls-6,.cls-7,.cls-8{fill:none;}.cls-18,.cls-19,.cls-6,.cls-7{stroke-linecap:round;}.cls-6{stroke-width:5.27px;}.cls-7{stroke:#a73766;stroke-width:2.64px;}.cls-8{stroke-width:3px;}.cls-11{letter-spacing:0.5em;}.cls-12{stroke-width:4px;}.cls-14{clip-path:url(#clip-path);}.cls-15{font-size:15px;}.cls-17{stroke-width:3px;}.cls-18{stroke-width:8.79px;}.cls-19{stroke:#ebca1b;stroke-width:4.4px;}.cls-20{opacity:0.5;}.cls-21,.cls-22,.cls-23{stroke:#e60012;stroke-width:20px;}.cls-21{stroke-dasharray:10.25 10.25;}.cls-23{stroke-dasharray:9.97 9.97;}</style><clipPath id="clip-path"><rect id="_長方形_" data-name="&lt;長方形&gt;" class="cls-1" x="797.1" y="502.26" width="180" height="50"/></clipPath></defs><title>3230_7144</title><rect id="_長方形_2" data-name="&lt;長方形&gt;" class="cls-2" x="784.73" y="179.09" width="240" height="60"/><text class="cls-3" transform="translate(841.73 202.56)">青<tspan class="cls-4" x="18" y="0">谷-</tspan><tspan x="54" y="0">長和瀬線</tspan><tspan class="cls-5"><tspan x="-24" y="16.32">(local bus)Aoya Nagawase line</tspan></tspan></text><line class="cls-6" x1="844.73" y1="227.09" x2="964.73" y2="227.09"/><line class="cls-7" x1="844.73" y1="227.09" x2="964.73" y2="227.09"/><line class="cls-8" x1="904.73" y1="239.09" x2="895.13" y2="261.36"/><path class="cls-9" d="M888,278c.47-9.08-.3-20.92-3-29.2l11.06,10.39,15.15.9C903.38,263.84,894.24,271.41,888,278Z"/><path id="_クリッピングパス_" data-name="&lt;クリッピングパス&gt;" class="cls-9" d="M539.43,370.53a15,15,0,0,0-15,15h0a15,15,0,0,0,15,15h21v-30Z"/><path id="_クリッピングパス_2" data-name="&lt;クリッピングパス&gt;" class="cls-10" d="M539.43,370.53a15,15,0,0,0-15,15h0a15,15,0,0,0,15,15h21v-30Z"/><path class="cls-2" d="M749.43,370.53h-189v30h189a15,15,0,0,0,15-15h0A15,15,0,0,0,749.43,370.53Z"/><text class="cls-3" transform="translate(590.43 392.37)"><tspan class="cls-11">長和瀬</tspan><tspan class="cls-5" x="81" y="-2.28">Nagawase</tspan></text><line class="cls-2" x1="630" y1="329" x2="656.43" y2="370.53"/><circle class="cls-12" cx="630" cy="329" r="10"/><path id="_クリッピングパス_3" data-name="&lt;クリッピングパス&gt;" class="cls-9" d="M888.4,387.75a15,15,0,0,0-15,15h0a15,15,0,0,0,15,15h21v-30Z"/><path id="_クリッピングパス_4" data-name="&lt;クリッピングパス&gt;" class="cls-10" d="M888.4,387.75a15,15,0,0,0-15,15h0a15,15,0,0,0,15,15h21v-30Z"/><path class="cls-2" d="M1098.4,387.75h-189v30h189a15,15,0,0,0,15-15h0A15,15,0,0,0,1098.4,387.75Z"/><text class="cls-3" transform="translate(939.4 409.59)">青谷<tspan class="cls-11" x="36" y="0">駅</tspan><tspan class="cls-5" x="63" y="-2.28">(Aoya Sta.)</tspan></text><line class="cls-2" x1="1170" y1="459" x2="1005.4" y2="417.75"/><rect id="_長方形_3" data-name="&lt;長方形&gt;" class="cls-13" x="797.1" y="502.26" width="180" height="50"/><g class="cls-14"><text class="cls-15" transform="translate(834.6 521)">勝部線栄町発着<tspan class="cls-4" x="-11.25" y="20">(</tspan><tspan x="0" y="20">青谷駅経由な</tspan><tspan class="cls-4" x="90" y="20">し</tspan><tspan x="108.75" y="20">)</tspan></text></g><rect id="_長方形_4" data-name="&lt;長方形&gt;" class="cls-16" x="797.1" y="502.26" width="180" height="50"/><line class="cls-17" x1="887.1" y1="552.26" x2="944.41" y2="595.6"/><path class="cls-9" d="M958.85,606.52c-8.7-2.61-20.39-4.69-29.06-4.08l12.72-8.27L947,579.68C948.78,588.19,954,598.87,958.85,606.52Z"/><path class="cls-18" d="M1140.19,563.63,1147.6,580l-12.1,11.8-3.08,3-3,2-5.71,2.27-3.9.81-3.68.75-9.36,1.18-8.07,2-5.11,2.2-5.12,2.81-8,5.47-6.64,5.88-.21.19-2.72,2.44-3.74,3.88-1.67,2.42-2.61,4.65-4.45,9.41-1.68,2.78-.41.7-8.87,9.09-6.72,6.08-4.25,4.08-4.27,3.12-4.79,2.43-2.64.94-1.66.59h-.52l-8.9,0-9.76.47-3.64.62-2.64,1.08-2.15,1.75-2.68,2.12L986,687.84l-2.17,2.64-3.68,2.74-4.68,2.43-3.87,1.46-3.2,1,1.95,9.19,1.94,10.3-.31,9.91c-.07,1.54,0,3.08,0,4.62l0,5.15-2.34,13.51-4.55,14.44-5.76,12.18L954.72,785c-1.51,2.4-3.11,4.73-4.66,7.1l-5.14,7.77L935.79,803l-10.63,16.08-.39.59-11.71,18.55L907.73,848l-4.18,9.37-4.81,23.06-7.6,40.34L885.75,936,881,946l-16.14,20-18.19,19.83L821,1011.44l-13.74,15-5.7,7.54-58.09,79.79-5.93,7.57-32.11,34.52-4.48,7.17-1.8,3.73-2.32,4.82-7.31,15.13-2.31,2.39-2.46,1.86-8.89,2.85-4.2,1.55-2.33,2.32-1.16,3.14-.83,5.2-3.37,34.72-2.41,56.54-1.9,7.77-2.86,10.47-2.69,11.57-.63,11.58.47,12.21,2.38,15.53-2.7,26.33-1,26.8.74,8.12.69,11.86,3.8,19.35,3.81,7.92,14.91,18.4,8.88,21.56,3.15,11.68,8.17,4.47,3,2.83.49.46,10.16,7.35,3.84,2.57,6.85,5.32,19.47,15.61,3.08,13.78-.79,10-.69,13.64,1.28,23,1.79,26.77,1.9,32.19v13.31l-2.36,12.11-4.31,13.83-10.3,29.88-.81,3.28,3.13,19.33,2.13,16.49,1.14,20.18-.57,24-12.47,29-3.22,7-8.18,16.31-4.94,11.6-5.12,10.57-7.46,21.31L691,1939.48l-5.26,30.28-3.27,10.94-7.1,11.94-5.12,6-15.91,13.93L638.66,2027l-5.26,8.17-11.91,25.33-7.38,12.91-6.24,7-10.37,13-11.21,19.72L577.35,2134l-4.54,12.91-4.54,16.89-4.65,17-.9,8.31-.91,4.56-.7,6.37-.08,7.75,1.5,7.65,1.91,5.58,8.82,15.56,1.34,2.5.49,4.16-.33,1.83-2.66,5.74.08,1.5,5.91,34.79.83,4.08-1.9,9.51-3.21,7.45-1.49,1.72"/><path class="cls-19" d="M1140.19,563.63,1147.6,580l-12.1,11.8-3.08,3-3,2-5.71,2.27-3.9.81-3.68.75-9.36,1.18-8.07,2-5.11,2.2-5.12,2.81-8,5.47-6.64,5.88-.21.19-2.72,2.44-3.74,3.88-1.67,2.42-2.61,4.65-4.45,9.41-1.68,2.78-.41.7-8.87,9.09-6.72,6.08-4.25,4.08-4.27,3.12-4.79,2.43-2.64.94-1.66.59h-.52l-8.9,0-9.76.47-3.64.62-2.64,1.08-2.15,1.75-2.68,2.12L986,687.84l-2.17,2.64-3.68,2.74-4.68,2.43-3.87,1.46-3.2,1,1.95,9.19,1.94,10.3-.31,9.91c-.07,1.54,0,3.08,0,4.62l0,5.15-2.34,13.51-4.55,14.44-5.76,12.18L954.72,785c-1.51,2.4-3.11,4.73-4.66,7.1l-5.14,7.77L935.79,803l-10.63,16.08-.39.59-11.71,18.55L907.73,848l-4.18,9.37-4.81,23.06-7.6,40.34L885.75,936,881,946l-16.14,20-18.19,19.83L821,1011.44l-13.74,15-5.7,7.54-58.09,79.79-5.93,7.57-32.11,34.52-4.48,7.17-1.8,3.73-2.32,4.82-7.31,15.13-2.31,2.39-2.46,1.86-8.89,2.85-4.2,1.55-2.33,2.32-1.16,3.14-.83,5.2-3.37,34.72-2.41,56.54-1.9,7.77-2.86,10.47-2.69,11.57-.63,11.58.47,12.21,2.38,15.53-2.7,26.33-1,26.8.74,8.12.69,11.86,3.8,19.35,3.81,7.92,14.91,18.4,8.88,21.56,3.15,11.68,8.17,4.47,3,2.83.49.46,10.16,7.35,3.84,2.57,6.85,5.32,19.47,15.61,3.08,13.78-.79,10-.69,13.64,1.28,23,1.79,26.77,1.9,32.19v13.31l-2.36,12.11-4.31,13.83-10.3,29.88-.81,3.28,3.13,19.33,2.13,16.49,1.14,20.18-.57,24-12.47,29-3.22,7-8.18,16.31-4.94,11.6-5.12,10.57-7.46,21.31L691,1939.48l-5.26,30.28-3.27,10.94-7.1,11.94-5.12,6-15.91,13.93L638.66,2027l-5.26,8.17-11.91,25.33-7.38,12.91-6.24,7-10.37,13-11.21,19.72L577.35,2134l-4.54,12.91-4.54,16.89-4.65,17-.9,8.31-.91,4.56-.7,6.37-.08,7.75,1.5,7.65,1.91,5.58,8.82,15.56,1.34,2.5.49,4.16-.33,1.83-2.66,5.74.08,1.5,5.91,34.79.83,4.08-1.9,9.51-3.21,7.45-1.49,1.72"/><g class="cls-20"><polyline class="cls-21" points="1136.68 590.66 1135.5 591.81 1132.42 594.82 1129.41 596.85 1123.7 599.13 1119.8 599.93 1116.12 600.68 1106.76 601.86 1098.69 603.9 1093.58 606.1 1088.46 608.91 1080.44 614.38 1073.8 620.26 1073.59 620.45 1070.87 622.89 1067.13 626.76 1065.46 629.19 1062.85 633.84 1058.4 643.25 1056.72 646.03 1056.31 646.73 1047.44 655.82 1040.72 661.9 1036.46 665.98 1032.2 669.1 1027.41 671.53 1024.78 672.47 1023.12 673.06 1022.59 673.06 1013.69 673.02 1003.93 673.49 1000.29 674.11 997.65 675.19 995.5 676.94 992.82 679.06 986.04 687.84 983.87 690.48 980.2 693.22 977.84 694.44"/><polyline class="cls-22" points="973.17 696.53 971.64 697.11 968.43 698.12 969.48 703.01"/><path class="cls-23" d="M971.42,712.78l.91,4.83-.31,9.91c-.07,1.54,0,3.08,0,4.62l0,5.15-2.34,13.51-4.55,14.44-5.76,12.18L954.72,785c-1.51,2.4-3.11,4.73-4.66,7.1l-5.14,7.77L935.79,803l-10.63,16.08-.39.59-11.71,18.55L907.73,848l-4.18,9.37-4.81,23.06-7.6,40.34L885.75,936,881,946l-16.14,20-18.19,19.83L821,1011.44l-13.74,15-5.7,7.54-58.09,79.79-5.93,7.57-32.11,34.52-4.48,7.17-1.8,3.73-2.32,4.82-7.31,15.13-2.31,2.39-2.46,1.86-8.89,2.85-4.2,1.55-2.33,2.32-1.16,3.14-.83,5.2-3.37,34.72-2.41,56.54-1.9,7.77-2.86,10.47-2.69,11.57-.63,11.58.47,12.21,2.38,15.53-2.7,26.33-1,26.8.74,8.12.69,11.86,3.8,19.35,3.81,7.92,14.91,18.4,8.88,21.56.55,2"/><polyline class="cls-21" points="1136.68 590.66 1135.5 591.81 1132.42 594.82 1129.41 596.85 1123.7 599.13 1119.8 599.93 1116.12 600.68 1106.76 601.86 1098.69 603.9 1093.58 606.1 1088.46 608.91 1080.44 614.38 1073.8 620.26 1073.59 620.45 1070.87 622.89 1067.13 626.76 1065.46 629.19 1062.85 633.84 1058.4 643.25 1056.72 646.03 1056.31 646.73 1047.44 655.82 1040.72 661.9 1036.46 665.98 1032.2 669.1 1027.41 671.53 1024.78 672.47 1023.12 673.06 1022.59 673.06 1013.69 673.02 1003.93 673.49 1000.29 674.11 997.65 675.19 995.5 676.94 992.82 679.06 986.04 687.84 983.87 690.48 980.2 693.22 977.84 694.44"/><polyline class="cls-22" points="973.17 696.53 971.64 697.11 968.43 698.12 969.48 703.01"/><path class="cls-23" d="M971.42,712.78l.91,4.83-.31,9.91c-.07,1.54,0,3.08,0,4.62l0,5.15-2.34,13.51-4.55,14.44-5.76,12.18L954.72,785c-1.51,2.4-3.11,4.73-4.66,7.1l-5.14,7.77L935.79,803l-10.63,16.08-.39.59-11.71,18.55L907.73,848l-4.18,9.37-4.81,23.06-7.6,40.34L885.75,936,881,946l-16.14,20-18.19,19.83L821,1011.44l-13.74,15-5.7,7.54-58.09,79.79-5.93,7.57-32.11,34.52-4.48,7.17-1.8,3.73-2.32,4.82-7.31,15.13-2.31,2.39-2.46,1.86-8.89,2.85-4.2,1.55-2.33,2.32-1.16,3.14-.83,5.2-3.37,34.72-2.41,56.54-1.9,7.77-2.86,10.47-2.69,11.57-.63,11.58.47,12.21,2.38,15.53-2.7,26.33-1,26.8.74,8.12.69,11.86,3.8,19.35,3.81,7.92,14.91,18.4,8.88,21.56.55,2"/><polyline class="cls-21" points="1136.68 590.66 1135.5 591.81 1132.42 594.82 1129.41 596.85 1123.7 599.13 1119.8 599.93 1116.12 600.68 1106.76 601.86 1098.69 603.9 1093.58 606.1 1088.46 608.91 1080.44 614.38 1073.8 620.26 1073.59 620.45 1070.87 622.89 1067.13 626.76 1065.46 629.19 1062.85 633.84 1058.4 643.25 1056.72 646.03 1056.31 646.73 1047.44 655.82 1040.72 661.9 1036.46 665.98 1032.2 669.1 1027.41 671.53 1024.78 672.47 1023.12 673.06 1022.59 673.06 1013.69 673.02 1003.93 673.49 1000.29 674.11 997.65 675.19 995.5 676.94 992.82 679.06 986.04 687.84 983.87 690.48 980.2 693.22 977.84 694.44"/><polyline class="cls-22" points="973.17 696.53 971.64 697.11 968.43 698.12 969.48 703.01"/><path class="cls-23" d="M971.42,712.78l.91,4.83-.31,9.91c-.07,1.54,0,3.08,0,4.62l0,5.15-2.34,13.51-4.55,14.44-5.76,12.18L954.72,785c-1.51,2.4-3.11,4.73-4.66,7.1l-5.14,7.77L935.79,803l-10.63,16.08-.39.59-11.71,18.55L907.73,848l-4.18,9.37-4.81,23.06-7.6,40.34L885.75,936,881,946l-16.14,20-18.19,19.83L821,1011.44l-13.74,15-5.7,7.54-58.09,79.79-5.93,7.57-32.11,34.52-4.48,7.17-1.8,3.73-2.32,4.82-7.31,15.13-2.31,2.39-2.46,1.86-8.89,2.85-4.2,1.55-2.33,2.32-1.16,3.14-.83,5.2-3.37,34.72-2.41,56.54-1.9,7.77-2.86,10.47-2.69,11.57-.63,11.58.47,12.21,2.38,15.53-2.7,26.33-1,26.8.74,8.12.69,11.86,3.8,19.35,3.81,7.92,14.91,18.4,8.88,21.56.55,2"/></g><rect class="cls-24" x="89" y="-3068" width="11720" height="11720"/></svg>