<svg id="_15zoom" data-name="15zoom" xmlns="http://www.w3.org/2000/svg" xmlns:xlink="http://www.w3.org/1999/xlink" viewBox="0 0 1024 1024"><defs><style>.cls-1,.cls-13,.cls-18,.cls-19,.cls-2{fill:#fff;}.cls-1,.cls-12,.cls-13,.cls-18,.cls-2,.cls-23,.cls-7,.cls-8,.cls-9{stroke:#231815;}.cls-1,.cls-11,.cls-12,.cls-13,.cls-18,.cls-2,.cls-23,.cls-6,.cls-7,.cls-8,.cls-9{stroke-miterlimit:10;}.cls-1,.cls-23{stroke-width:2.11px;}.cls-2{stroke-width:2.4px;}.cls-3{font-size:18px;}.cls-10,.cls-14,.cls-21,.cls-3{fill:#231815;}.cls-14,.cls-21,.cls-3{font-family:NotoSansMonoCJKjp-Regular-90ms-RKSJ-H, Noto Sans Mono CJK JP;}.cls-4{letter-spacing:0.25em;}.cls-5{font-size:12px;}.cls-11,.cls-12,.cls-23,.cls-24,.cls-6,.cls-7,.cls-8,.cls-9{fill:none;}.cls-6{stroke:#718cc7;}.cls-11,.cls-6,.cls-7,.cls-8{stroke-linecap:round;}.cls-11,.cls-6{stroke-width:5.27px;}.cls-7,.cls-8{stroke-width:2.64px;}.cls-8{stroke-dasharray:0 17.14;}.cls-9{stroke-width:3px;}.cls-11{stroke:#a97443;}.cls-12,.cls-13{stroke-width:2.4px;}.cls-14{font-size:18px;}.cls-15{letter-spacing:0.83em;}.cls-16{letter-spacing:0.5em;}.cls-17{font-size:12px;}.cls-18{stroke-width:4px;}.cls-20{clip-path:url(#clip-path);}.cls-21{font-size:15px;}.cls-22{letter-spacing:-0.5em;}</style><clipPath id="clip-path"><rect id="_長方形_" data-name="&lt;長方形&gt;" class="cls-1" x="326.5" y="910.5" width="200" height="50"/></clipPath></defs><title>3228_7152</title><rect id="_長方形_2" data-name="&lt;長方形&gt;" class="cls-2" x="237.15" y="603.35" width="240" height="60"/><text class="cls-3" transform="translate(296.39 626.82)">岩井<tspan class="cls-4" x="36" y="0">線(</tspan><tspan x="72" y="0">普</tspan><tspan class="cls-4" x="90" y="0">通</tspan><tspan x="112.5" y="0">)</tspan><tspan class="cls-5"><tspan x="-20.25" y="16.32">(local bus)Iwai line(local)</tspan></tspan></text><line class="cls-6" x1="297.15" y1="651.35" x2="417.15" y2="651.35"/><line class="cls-7" x1="297.15" y1="651.35" x2="297.15" y2="651.35"/><line class="cls-8" x1="314.29" y1="651.35" x2="408.57" y2="651.35"/><line class="cls-7" x1="417.15" y1="651.35" x2="417.15" y2="651.35"/><line class="cls-9" x1="357.15" y1="663.35" x2="310.6" y2="730.77"/><path class="cls-10" d="M300.32,745.67c2.24-8.8,3.8-20.57,2.82-29.2L312,728.82l14.68,3.85C318.2,734.82,307.76,740.46,300.32,745.67Z"/><rect id="_長方形_3" data-name="&lt;長方形&gt;" class="cls-2" x="552.18" y="892.84" width="240" height="60"/><text class="cls-3" transform="translate(611.43 916.31)">岩井<tspan class="cls-4" x="36" y="0">線(</tspan><tspan x="72" y="0">快</tspan><tspan class="cls-4" x="90" y="0">速</tspan><tspan x="112.5" y="0">)</tspan><tspan class="cls-5"><tspan x="-20.25" y="16.32">(local bus)Iwai line(Rapid)</tspan></tspan></text><line class="cls-11" x1="612.18" y1="940.84" x2="732.18" y2="940.84"/><line class="cls-7" x1="612.18" y1="940.84" x2="612.18" y2="940.84"/><line class="cls-8" x1="629.32" y1="940.84" x2="723.61" y2="940.84"/><line class="cls-7" x1="732.18" y1="940.84" x2="732.18" y2="940.84"/><line class="cls-9" x1="672.18" y1="892.84" x2="640.42" y2="842.23"/><path class="cls-10" d="M630.8,826.89c7.21,5.54,17.39,11.63,25.71,14.14l-14.82,3.21-9.34,12C633.7,847.61,632.65,835.79,630.8,826.89Z"/><path id="_クリッピングパス_" data-name="&lt;クリッピングパス&gt;" class="cls-10" d="M892.12,768.36a15,15,0,0,0-15,15h0a15,15,0,0,0,15,15h21v-30Z"/><path id="_クリッピングパス_2" data-name="&lt;クリッピングパス&gt;" class="cls-12" d="M892.12,768.36a15,15,0,0,0-15,15h0a15,15,0,0,0,15,15h21v-30Z"/><path class="cls-13" d="M1102.12,768.36h-189v30h189a15,15,0,0,0,15-15h0A15,15,0,0,0,1102.12,768.36Z"/><text class="cls-14" transform="translate(925.12 790.2)"><tspan class="cls-15">岩美</tspan><tspan class="cls-16" x="66" y="0">駅</tspan><tspan class="cls-17" x="93" y="-2.28">(Iwami Sta.)</tspan></text><line class="cls-13" x1="892" y1="867" x2="1009.12" y2="798.36"/><circle class="cls-18" cx="892" cy="867" r="10"/><rect id="_長方形_4" data-name="&lt;長方形&gt;" class="cls-19" x="326.5" y="910.5" width="200" height="50"/><g class="cls-20"><text class="cls-21" transform="translate(340.25 929.24)">鳥取<tspan class="cls-4" x="30" y="0">駅-</tspan><tspan x="60" y="0">城北団地の全て</tspan><tspan class="cls-22" x="165" y="0">、</tspan><tspan x="3.75" y="20">中央病院、岩美駅に停車</tspan></text></g><rect id="_長方形_5" data-name="&lt;長方形&gt;" class="cls-23" x="326.5" y="910.5" width="200" height="50"/><rect class="cls-24" x="-8103" y="-1020" width="11720" height="11720"/></svg>