<svg id="_15zoom" data-name="15zoom" xmlns="http://www.w3.org/2000/svg" xmlns:xlink="http://www.w3.org/1999/xlink" viewBox="0 0 1024 1024"><defs><style>.cls-1,.cls-3,.cls-8{fill:#231815;}.cls-1,.cls-11,.cls-13,.cls-2,.cls-5,.cls-7{stroke:#231815;}.cls-1,.cls-11,.cls-13,.cls-2,.cls-5,.cls-6,.cls-7{stroke-miterlimit:10;}.cls-1,.cls-11,.cls-2{stroke-width:2.4px;}.cls-10,.cls-13,.cls-2{fill:#fff;}.cls-3{font-size:18px;}.cls-10,.cls-3{font-family:NotoSansMonoCJKjp-Regular-90ms-RKSJ-H, Noto Sans Mono CJK JP;}.cls-4{font-size:12px;}.cls-11,.cls-14,.cls-5,.cls-6,.cls-7{fill:none;}.cls-5,.cls-6{stroke-linecap:round;}.cls-5{stroke-width:5.27px;}.cls-6{stroke:#00ada9;stroke-width:2.64px;}.cls-7{stroke-width:3px;}.cls-9{clip-path:url(#clip-path);}.cls-10{font-size:28.8px;}.cls-12{letter-spacing:0.5em;}.cls-13{stroke-width:4px;}</style><clipPath id="clip-path"><path id="_クリッピングパス_" data-name="&lt;クリッピングパス&gt;" class="cls-1" d="M852.79,545.75a15,15,0,0,0-15,15h0a15,15,0,0,0,15,15h21v-30Z"/></clipPath></defs><title>3232_7152</title><rect id="_長方形_" data-name="&lt;長方形&gt;" class="cls-2" x="228.48" y="340.97" width="240" height="60"/><text class="cls-3" transform="translate(312.48 364.44)">中河原線<tspan class="cls-4"><tspan x="-42" y="16.32">(local bus)Nakagawara line</tspan></tspan></text><line class="cls-5" x1="288.48" y1="388.97" x2="408.48" y2="388.97"/><line class="cls-6" x1="288.48" y1="388.97" x2="408.48" y2="388.97"/><line class="cls-7" x1="348.48" y1="340.97" x2="432.73" y2="252.16"/><path class="cls-8" d="M445.19,239c-3.57,8.36-6.93,19.74-7.29,28.43l-6.8-13.57-13.9-6.07C425.85,247,437,243,445.19,239Z"/><path id="_クリッピングパス_2" data-name="&lt;クリッピングパス&gt;" class="cls-8" d="M852.79,545.75a15,15,0,0,0-15,15h0a15,15,0,0,0,15,15h21v-30Z"/><g class="cls-9"><text class="cls-10" transform="translate(844.37 570.33)">37</text></g><path id="_クリッピングパス_3" data-name="&lt;クリッピングパス&gt;" class="cls-11" d="M852.79,545.75a15,15,0,0,0-15,15h0a15,15,0,0,0,15,15h21v-30Z"/><path class="cls-2" d="M1062.79,545.75h-189v30h189a15,15,0,0,0,15-15h0A15,15,0,0,0,1062.79,545.75Z"/><text class="cls-3" transform="translate(885.77 567.59)"><tspan class="cls-12">山崎橋</tspan><tspan class="cls-4" x="81" y="-2.28">Yamasaki Bashi</tspan></text><line class="cls-2" x1="917" y1="491" x2="969.79" y2="545.75"/><circle class="cls-13" cx="917" cy="491" r="10"/><rect class="cls-14" x="-8103" y="-5116" width="11720" height="11720"/></svg>