<svg id="routes" xmlns="http://www.w3.org/2000/svg" xmlns:xlink="http://www.w3.org/1999/xlink" viewBox="0 0 1024 1024"><defs><style>.cls-1,.cls-3,.cls-4{fill:none;}.cls-2{clip-path:url(#clip-path);}.cls-3{stroke:#718cc7;stroke-width:8.79px;}.cls-3,.cls-4{stroke-linecap:round;stroke-miterlimit:10;}.cls-4{stroke:#231815;stroke-width:4.4px;stroke-dasharray:0 29.48;}</style><clipPath id="clip-path"><rect class="cls-1" x="-9127" y="-3068" width="11720" height="11720"/></clipPath></defs><title>3230_7153</title><g class="cls-2"><g id="日交線"><g id="岩井"><path class="cls-3" d="M514.68-651.13l12.05,6.59,8.5,4.36L538-638.4,549-633.22l8.51,4.58,2,.61,36,18.88.25.13,14,6.81,15.1,7.93,1.46.76,14.18,6.72,16.59,9.34,19,13.35,1.17.81,5.51,2.84,9,4.29.45.22,1.65.6.89.36,36.19,12.06,4.42,2.11,5.5,5.14,3.81,4.35,6.36,7.64,3.83,5.12,5.21,5,6.66,5.12,26.44,19.76,8,6.56,3.17,3.54,2.6,4,1.56,2.15,2.61,5.94,1.18,5.29,1.17,14.68.77,4.59,1.37,3,1.44,2.37,2.47,2.07,1.7.88,3.3,1,6.55,1.43,22,3.82,2.1.21,10,1.42,8.67,1.57,1.91.59,3.5,1.09,6.51,3.36,6.7,4.87,11.54,8.08,5.84,4.26c-.12-.58-.24-1.15-.34-1.73l-1.11-5.68-3.64-7.87-4.59-6.25-5.45-7.16-10.63-14-13.89-15.72-25-33.7L835-515.92c-1.62-3.47-3.11-7-4.74-10.45L825-537.6l-3-11.08-.18-13.11-.9-7.15-1.07-4.77c-.22-.88-.51-1.73-.76-2.6l-.46-1.53-1.22-2.35-1.13-1.55-1-1.42-3.16-3.08-4.15-3m-1809.68-811.41-2.78,14.72-6.34,26.35-.71,2.82-.55,2.2-5.69,23.65-.19.79-2.42,10-4.52,19.87,18,4.66,5.72,1.48,5.46,1.41,20,5.55,15.38,4.26-2.4,10.83-.35,1.6-2.16,7.92-.62,2.32-2.41,8.85-3.6,13.23-1.54,5.67-5.93,21.85L-982-1200l0,2.56,1.41,14.87-.24,3.51-3.45.46-30.1,2.87-16.8,1.44-2,.16-32.31,3.55-21.18,1.56-15.36,1.3-4.12-.19-7.17,1-4.92,1.24-5.69,2.7-5.4,4-4.08,3.6-3.75,3.75-3.69,3.8-3.09,3.6-2.2,2.77-1,2.23-1.93,4.5-.43,1.59-2.19,8.17-.57,6-.07,5.6.32,4,.8,5,1.38,6,1.29,5.46,1.12,4.64,1.08,4.55,1,6,0,4.64-.29,6.32-.74,5.82-1.36,5.85-1.74,6.26-2.13,7.6-2.55,6.65-2.54,6.5-1.79,5.33-.85,4.72-.19,4.78.57,4.81,1.64,4.55,1.35,2.53.24.46,1.78,2.4,3.3,3.76,2.83,2.14,3,1.93,6.24,3.13,8.27,1.48,9.46,1.27,10.09,1.54,5.53.94,1.09.19,7.66,2.34-1.91,3.29-1.81,2.13-2.87,1.16-4.24.86-.8,0-3.45-.08-3.82-1-3.37-2.06-4.32-2.29-3.24-.57-3.88.69-3.55,1.46-3.63,1.85-.89.45-4.5,1.4-4.83,1.14-5.32.55-4.25.28-2.5.17-5.34,1.19-5.44,2.28-6.65,3.87-6.24,3.21-6.12,4.26-6,5.82-5.48,6-6.16,7.12-11.59,12.56-29.63,35.07-38.33,50-9.72,8.65-8.21,4.86-8.64,6.76-5.23,6.8-4.07,5.07-6.13,6.08-3.6,2.09-6.78,2.67-6.88,2.57-10.08,3.34-8.73,2.89-4.18,3.32-3.33,3-4.75,6.49-4.41,6.08-2.59,2.09-2,4.24L-1390-756l-5.56,9.35-9,14.57-4.72,7.63-6.75,10.94-7,11.37-5.36,10.26-3.94,9.9-3.1,7.21-1.47,5.32-.76,4.5-.18,2.91.12,1,.63,3.26,1.08,3.42,1.3,3.93,4.12,9.93,1.12,2,1.94,3.09,1.57,2.29,13.57,14.58,3.71,6.57,4.38,10.33,7.47,26.09,3.93.07,1.54.77,1.37,1.37,1.12,2.3,1.06,3.2.87,2.33,3.88,8.92,4.63,10.54,3.35,8.91.88,3.08,1.23,4.45,2.46,18.35,1.69,9.31,1.48,5.51,10.72,25.6,8.7,18.59,9.22,20.38,9.28,17.18,6.32,9.06,6.79,6.44,5.12,6.72,3.49,4.45,2.09,3.13,2.11,4.4,1.54,6.18.23,1,4,15.13,2.83,10.78,3,9-4.08-.49-19.86-6.27-17.56-5.56-1-.3-4.33-1.45-1.45-.51-11-3.89-6.58-2.61-9-6.14-10.42-9.15-1.23-1.21-6.31-4-26.58-18.43-9.68-6.22-5.65-3.7-9.43-6.25-11.17-6.74-18.91-11.39-12.43-7.59-6.9-4.22-2.9-3-.54-.56-2.9-4.15-5.44,4-7.59,3.66-7.55,3-6.86,2.44-4.88,1.38-7.16,1.28-4.65.84-30.76,6.13-9,1.93-9.81,2.11-9.92,2.15-9,1.65L-1613-419l-6.84,1.34-3.92.44-3.31.37-6.73.34-6.22-.38-7-1-9.87-.55-6,.1-4.35.29-1,.07-5.71.93-4.61,1.05-7.44,1.43-15.09,2.89-8.33,2.27-5.61,1.78-9.5,4.45-11.07,5.19-5.83,2.68-.73.34-20.36,9.92-7.31,3.54-6.67,3.08-8.82,3.85-6.57,3.1-9.54,4.42-8.64,4.27-29.05,13.56-2.5,1-1.79.69-6,1.29-5.69-.16-4.17-.43-1.37-.15-11.08-2.15-13.31.1-4.06,1.41-4.22,1.54-4.27,3.17-3.13,2.58-2.63,2.77-3.48,5.33-6.46,13.74-3.78,6.23-3.78,4.68-7.36,6.15-4.21,2.46-5.35,3.41-22.17,14.25-32.34,18.26-17.81,10.91-19.8,12-6.58,3.13-3.34,1.37-5.27,2.1-11,3.18-5.53,1.05-9.53,2.09-9.24.75-4.41-.05h-1.52l-5.09-.25-8.95-.89-6.25-.89-16.09-5.22-5.34-1.63-11.65-3.58-7.6-2.43-3.83-1.22-6.59-2.16-10.58-4-6.7-1.64-6.06-.76-6.31-.43-14,2.68-14.21,3.42-9.32,2.24-23.84,6.86L-2260-233l-6.41,4.32-3.57,5.36-3.58,7.3-4.32,13.26-3.43,8.79-4,5.81-6,4.92-6.26,3-8.64.86-10.66-.19-44.2-.13-2.9-.45-15.43-.62-9.76,5.84c-3.2,0-6.45,0-9.69.08l-18.9.31-2.39.5-5.53,1.88-4.6,2.29-4.38,2.79-3.07,2.59-2.6,2.65-7.28,9.12-.08.1-13.37,16.05-6.76,8.06-3.38,4c-1.13,1.34-2.36,2.63-3.53,4l-7.1,7.86-1.78,2-1.85,1.87-3.72,3.73c-5,5-9.9,10-14.91,14.85q-15.06,14.67-30.55,28.69l-15.42,14.08-7.58,7.24c-1.24,1.23-2.61,2.37-3.92,3.54l-3.37,3-2.69,4.11-2,3.65-3.06,6.75-4.36,14.57-4.27,15.06-4.27,15.06-4.64,15.43-5.14,11.13c-.86,1.81-1.49,3.52-2.25,5.28-.36.88-.63,1.72-1,2.58l-.75,2.26-.4,2.81.09,3,.63,3.47,1,2.86,9.8,21.17c1.63,3.6,3.37,7.12,4.91,10.77l4.78,11.08,2,5.73c.33.92.64,1.85.89,2.84l.82,3c.47,2,1,3.89,1.39,5.84l1.06,6,.85,8.8.71,8.58,1.43,17.09,1.54,17.09c.26,2.82.47,5.8.71,8.7l.36,8.94-.25,5.47-1.82,9c-1.79,4.58-2.67,6.63-4.47,11.05l-3.46,5.71-3.44,5-6.88,10.1-.27.37c-1.82,2.3-3.7,4.54-5.6,6.77l-2.86,3.37c-1,1.11-1.94,2.15-2.91,3.23-2,2.14-3.84,4.3-5.71,6.45l-5.84,6.72M-184.26-1201.26l24.85.62,22.94.56.71.12,1.39.24.74.81v1.59l-4.79,13.62-4.76,15.92-2,6.78-2.56,8-.78,2.47-1.68,6.29v3.61l.56,2.15.25,1,2,3,1.68,1.39,1.67.93,5.72,2.66,6.22,3.29,5.56,4.4,7,8,.72.91,1.45,1.82,4.85,6.12,4.19,6,1.44,1.73,6,7.23,13.25,16.83,22.45,28.67,8.16,11,13.16,15.71.24.31,12.09,15.57.18.23,7.11,9.15,4.54,5.23.93,1.17L.7-961.42l1.69,2.15,17.12,21.68.54.66L27.52-928l1.71,2,5.07,6.37,4.58,4,10.46,9.81,2.21,3.68.25,2.94-.7,3.83-9,8.46,3.08,14.34.61,7.29,2.47,18.27.59,5.33.31,2.73,1.65,7,4.76,7.5L60-820l6.8,4.34,7,3.44,8.13,2.86,12,2.18,14.66,1.39,14.31.18,13.53-.12L148-804.57l32.53,8.3,25.33,4.93,24.88,3.56,14.58,1.84,21.17,3.75,7.05-.12,8.08,1.4,8.69,1.92,19.22,6.49,6.35,2.6,16.87,9.63,8.83,4.65,1.78.68,11.29,4.31,6.08,3.34,4.31,3.47,4.57,4.46,5.77,5.49,4.5,4.69,1.77,1.75,10.72,9.76,7.25,6.87,8.16,4.68.79.45,9.19,5.12,2.43,1.22,12.51,6.5,6.54,3.36,4.57,2.86,7.51,3.56,10,5,15.55,8,10.51,5.47,13.11,6.15,9.48,5.3,4.7,2.06.37-2.07,1.66-7.9,1.92-8.46.2-1.09,3.1-10.71.4-1.19,5,.26,12.28,1.43,5,.76,4,.37,16.4,1.54,11.17,1.27,3.13.36,6.68.54,5.92,1,9.46,2.41,8.15,2.63,7.46,2.41,4.68,1.74,7.37,2.33,9.32,3.4,40,13.54,27.66,8.88,85.61,30,10.1,3.31,7.79,2.65,4.72,2.51,5.5,4,4.55,4.43,1.59,2.25,1.58,2.17,2.14,4.12L831.1-577l1.36,6,1,8.36.17,12.29,2.35,8.67,5.83,12.41,3.41,7.62,10.18,21.54,24,32.36L893.31-452l16.18,21.26,5.58,7.58L919.8-413l2.57,13.22,1.33,9,6.08,35.69L935.05-326l4.52,25,9.52,47.58,4.64,34.94.36,6,1.33,7.4,2.37,17.66L960-171l8.25,50.65,2.66,24.64,1.33,12.57,2.2,13.79,2,5.72,2.9,5.19,3.09,4.15,5.18,5.15,8.18,4.92,8.74,2.67,5,.65,11.69,1.51,4.58.6,7.9,1.9,6.18,2.58,13.2,7.34,13.79,8.54,17.6,11.22,5.4,4.15,59.6,43.56L1166,49.75l41,20.33,25.87,9.35,10.93,7,56.78,55.06,15.15,18.35,9.69,15.49,11.48,12.95,12.49,8.53,12,4.75,1.23,10,1.51,6.93,1.22,6.09,2,10,.51,5.15-.32,11.13-.65,4.52-.82,3.72-6.22,26.09-2.28,14.51-.3,3.52-.24,4.12-.11,2.87-.3,3.34-.59,6.76-.7,35.16-.56,17.77-1.46,17.11-1.17,12.85L1347.66,419l-2.26,5.64-5.47,11.93-1.75,3.86-5.94,12.1-2.4,4.52-8,15-14.65,27.38-.61,1.14-2.88,5-3.06,5.78-2.11,4.86-.89,3-.21,1.69.16,3.23.63,3.06,4.83,15,8.52,25.8.32,1.6.33,7.73V599l.82,11.59.62,2.92,2.57,4.52,5.77,8.24,1.49,3.89,1.1,5.26.41,2.69.54,3.46-.16,5.47-1.45,9.18-.63,5.81v4.52l.5,6.29.62,2.58,2.73,6.78,2.58,5,6.9,7.09,27,22.12,3,1.91,1.74,1.46,8.2,3.86,11.06,3.69,7.71,3.72,14.6,5.15,2.89,1.29,4.17,2.92,2.26,2.09,1.26,1.77,3.16,4.43,2.19,1.72,2.05.77h3l4.17-.77,6.89-2.28,2.89-1.12,3.63-.29,2.29.72m-2563.7-2232.95,9.17-7.44,1.4-1.58-4.08-4-2.69-2.26-3.94-3.43-8.84,8.36,7.48,8.77,1.5,1.61,3.5,5.14,2.13,3.76.09.28,2.59,8.22,1.36,4.3,1.38,5.07,1.18,3.82.44,4.3-.27,5.17-.1,1.64-.62,5,.12.92.8.86,6.81,4,10.58,6.26,20.57,12.19,2.22,2,2,1.49,2.92,1,4.67.74,15.26,2.58,20.13,3.46,13.35,2.6,3.41.63,8.61,1.61.38.07,1.26.3,8.12,1.9,1.31.43,6.69,2.23.3.1L-968-1392l2.18.82,11.2,5.81,10,4,.17.06,8.09,2.55,5.44,1.5L-923-1375l10.15,2.7,7.46.45,12.81.59,1.75.54,9.22,2.1,16.52,4.72,5.18,2.59,2.84,1.43,7.8,3.94,4.69,2.46,4.58,3.35.6.53,2.42,2.12,1.34,1.74,1.22,3.16-.23,2.54,2.86-.16,2.65.61,8,3.67.78.39,5,2.55,5.54,2.81,5.5,2.49,22.64,10.65,7.29,2.26,16.4,4.06,15.52,3.87,22.56,5.42,12.2,2.55,11.76,3.17,20.87,4.67,6.58,2.37.22,0,4.29-.56,5.43-.26,11-.51,13.1-1,9.59-.77,4.91-.28,13.27-.76,3-.18,2.93-.17,2.87-.17,12.91-.51,6.15.88,6.78,1,5,2.06,5.72,1.79,4.48.82,5.27.29,8.12-1.44,4.67-2,8.07-4,9.78-5.44,13-7.13,12-6.63,15.29-8.41,9-4.84.5-.28,4.3-2.39,4.12-2.13,4.29-1.72,4.17-1,4.5-.59,3.44.47,5.72,1.58,5,1.11,6.93,1.48,5.42.9,5.15.73,5,.84,4.39.51,3.95,0,4.81-.6,4.51-1,4.29-1.09,4.2-2.33,4.34-2.27,3.23-3.14,3.57-3.83,3.31-5,3.32-5.86,7.35-14.49,7.33-14.56,7.44-14.82,3.17-5.18,5.05-8.43,2.71-5.56.17-.54,1.19-3.62,1.19-4.42.68-4.93.42-6-.24-4.69-.28-5.7,0-2.2-.06-2.91-.2-5.16.06-.76.26-3.41-.54-4.31-.33-3.35-.15-1.25-.93-5.86-.94-5.94-.68-5.27-.82-4.75-.42-5,.57-3.18,1.07-3.91,1.88-5.72,2.24-5.87.61-1.9,6.44-15.57,1.25-1.74,3.2,2,11.55,4.69,2,.78,12.57,5,1.79.62,10.36,3.92,13.54,4.87,7.69,2.09,3,.44,2.42,2.75,30.58,24.37,4.25,3.14,5.18,4.22,2,2.72,1.51,2.05,2.17,4.9,16.51-1.67-.18,40.53.11,4.27.1,3.62.47,9.8.27,4.86.46,6.38.08,1.3.38,8,.2,3.72.74,13.06.59,9.36.2,4.94.87,18.08.66,7.3.76,15.23.69,12.92.41,11.19,1.33,25,.27,3.2.1,7.06.26,18.27.27,13,.07,9.63.09,14.7-.2,21.22H-175M-2858.9,278.49l7.49-2.81,3-1.15,5.47-1.74,9.85-2.93,5.47-1.9,8.46-2,17.74-5.29,32.26-10.86,7-2.64,8.56-2.63,12.65-3.13,9-1.51,8.06-.93,13.62-.59,4.05.22,7,.62,10.42,2,8.13,1.79,15.43,5.28,17,6.84,18.21,7.92,16.85,8.34,7.54,3.87m-136.42,144c20.51-22.56,5.11-6.16,26.15-28.22,22.73-23.83,45.08-48.17,67.95-71.82,12.09-12.49,25.15-24.08,37.74-36.06"/><polyline class="cls-4" points="551.63 -679.44 564.94 -678.19 576.11 -676.92 579.24 -676.56 585.92 -676.02 591.84 -675.05 601.3 -672.64 609.45 -670.01 616.91 -667.6 621.59 -665.86 628.96 -663.53 638.28 -660.13 678.28 -646.59 705.94 -637.71 791.55 -607.67 801.65 -604.36 809.44 -601.71 814.16 -599.2 819.66 -595.23 824.21 -590.8 825.8 -588.55 827.38 -586.38 829.52 -582.26 831.1 -576.99 832.46 -570.97 833.51 -562.61 833.68 -550.32 836.03 -541.65 841.86 -529.24 845.26 -521.62 855.45 -500.08 879.47 -467.72 893.31 -452.05 909.49 -430.79 915.07 -423.21 919.8 -412.98 922.37 -399.76 923.7 -390.75 929.78 -355.06 935.05 -325.99 939.57 -301 949.09 -253.42 953.73 -218.48 954.09 -212.46 955.42 -205.06 957.79 -187.4 959.95 -171.04 968.2 -120.39 970.86 -95.75 972.19 -83.18 974.39 -69.39 976.42 -63.67 979.32 -58.48 982.41 -54.33 987.59 -49.18 995.77 -44.26 1004.51 -41.59 1009.51 -40.94 1021.2 -39.43 1025.78 -38.83 1033.68 -36.92 1039.86 -34.34 1053.06 -27.01 1066.85 -18.47 1084.45 -7.25 1089.85 -3.1 1149.45 40.46 1165.99 49.75 1206.98 70.08 1232.85 79.43 1243.78 86.46 1300.56 141.52 1315.71 159.87 1325.4 175.36 1336.88 188.31 1347.84 195.79"/></g></g></g></svg>