<svg id="_15zoom" data-name="15zoom" xmlns="http://www.w3.org/2000/svg" viewBox="0 0 1024 1024"><defs><style>.cls-1,.cls-10,.cls-11,.cls-12,.cls-13,.cls-3{fill:none;}.cls-1,.cls-3,.cls-4,.cls-8{stroke:#231815;}.cls-1,.cls-10,.cls-11,.cls-12,.cls-3,.cls-4,.cls-8{stroke-miterlimit:10;}.cls-1{stroke-width:3px;}.cls-2,.cls-5{fill:#231815;}.cls-3,.cls-4{stroke-width:2.4px;}.cls-4,.cls-8{fill:#fff;}.cls-5{font-size:18px;font-family:NotoSansMonoCJKjp-Regular-90ms-RKSJ-H, Noto Sans Mono CJK JP;}.cls-6{letter-spacing:0.5em;}.cls-7{font-size:12px;}.cls-8{stroke-width:4px;}.cls-9{opacity:0.5;}.cls-10,.cls-11,.cls-12{stroke:#e60012;stroke-width:20px;}.cls-10{stroke-dasharray:9.98 9.98;}.cls-12{stroke-dasharray:10.24 10.24;}</style></defs><title>3233_7149</title><line class="cls-1" x1="1000.08" y1="1032.52" x2="853.47" y2="987.01"/><path class="cls-2" d="M836.18,981.64c9.08-.49,20.77-2.51,28.72-6l-9.16,12.09.7,15.16C851.88,995.47,843.38,987.18,836.18,981.64Z"/><path id="_クリッピングパス_" data-name="&lt;クリッピングパス&gt;" class="cls-2" d="M549,375a15,15,0,0,0-15,15h0a15,15,0,0,0,15,15h21V375Z"/><path id="_クリッピングパス_2" data-name="&lt;クリッピングパス&gt;" class="cls-3" d="M549,375a15,15,0,0,0-15,15h0a15,15,0,0,0,15,15h21V375Z"/><path class="cls-4" d="M759,375H570v30H759a15,15,0,0,0,15-15h0A15,15,0,0,0,759,375Z"/><text class="cls-5" transform="translate(582 396.84)">河原<tspan class="cls-6" x="36" y="0">口</tspan><tspan class="cls-7" x="63" y="-2.28">(Kawahara terminal)</tspan></text><line class="cls-4" x1="834" y1="460" x2="666" y2="405"/><circle class="cls-8" cx="834" cy="460" r="10"/><g id="西郷"><g class="cls-9"><polyline class="cls-10" points="159.72 1201.21 165.67 1197.02 175.01 1191.01 185.63 1184.16 198.69 1174.91 208.49 1169.1 212.16 1166.65 231.42 1153.83 237.92 1149.91 238.91 1149.3 259.63 1135.61 280.5 1121.93 291.35 1115.66 301.75 1109.07 313.29 1101.33 314.24 1100.84 330.76 1089.65 342.88 1082.01 349.36 1077.73 352.82 1075.68 353.59 1075.31 366 1069.2 368.73 1067.9 374.19 1065.49 382.15 1061.34 382.48 1061.19 383.38 1060.78 386.02 1059.6 390.96 1057.66 394.16 1056.69 396.83 1055.88 404.72 1054.55 405.04 1054.49 415.99 1052.94 418.34 1052.66 421.23 1052.05 430.98 1050.45 439.49 1048.85 441.67 1048.36 443.16 1048.02 446.03 1047.73 448.6 1047.56 451.58 1047.5 454.74 1047.5 456.92 1047.67 458.75 1047.96 461.04 1048.41 463.4 1048.88 467.01 1049.62 467.32 1049.76 468.38 1049.85 469.24 1049.97 470.73 1049.91 472.62 1049.68 473.94 1049.45 475.77 1048.99 477.09 1048.59 478.48 1048.07 489.01 1044.09 490.09 1043.68 504.35 1038.22 510.27 1035.96 513.31 1034.94 515.55 1034.19 541.37 1024.37 558.73 1017.77 568.3 1014.27 590.12 1006.32 602.37 1001.86 604.62 1000.73 616.23 996.66 620.3 996.09 623.78 996.41 626.52 996.83 628.56 997.38 632.66 998.99 646.49 1004.51 650.75 1006.1 653.41 1006.42 658.61 1006.31 659.39 1006.29 666.01 1005.55 667.48 1005.39 674.21 1005.04 675.78 1004.96 678.73 1005.05 684.37 1004.74 688.36 1004.25 690.36 1003.7 696.19 1002.08 701.37 1000.64 707.02 999.33 709.28 998.81 715.59 996.62 715.99 996.37 718.18 994.95"/><polyline class="cls-11" points="722.37 992.24 725.31 990.33 726.57 989.52"/></g></g><g id="散岐"><g class="cls-9"><polyline class="cls-12" points="796.36 1287.31 784.69 1281.9 780.6 1279.61 779.84 1278.77 774.97 1273.49 770.33 1267.51 767.67 1264.62 766.96 1263.86 764.83 1261.61 747.53 1249.33 746.4 1248.26 742.02 1244.55 736.57 1237.15 734.41 1232.36 733.78 1227.23 732.23 1214.6 731.82 1212.35 730.64 1198.34 730.52 1197.47 728.58 1183.61 728.27 1181.39 727.89 1178.66 727.87 1178.4 727.11 1169.44 724.81 1153.44 724.3 1149.31 723.74 1145.91 722.86 1139.5 722.2 1132.98 722.14 1132.53 719.77 1116.45 719.33 1113.44 717.27 1098.2 716.61 1089.04 715.02 1072.86 714.18 1058.92 713.98 1052.88 714.24 1050.57 715.21 1048.06 716.79 1046.02 717.95 1044.4 720.03 1042.66 721.61 1041.62 723.4 1040.51 734.85 1036.03 740.68 1033.76 745.25 1031.84 747.7 1030.81 750.82 1027.81 752.32 1023.57 752.53 1021.9 752.71 1020.45 752.62 1016.95 751.59 1014.08 750.72 1011.67 750.1 1010.44 745.13 998.51"/><line class="cls-11" x1="743.2" y1="993.76" x2="741.5" y2="989.06"/></g></g><rect class="cls-13" x="-5031" y="-6140" width="11720" height="11720"/></svg>