<svg id="_13zoom" data-name="13zoom" xmlns="http://www.w3.org/2000/svg" viewBox="0 0 1024 1024"><defs><style>.cls-1{fill:#fff;stroke-width:4px;}.cls-1,.cls-6,.cls-7,.cls-8{stroke:#231815;}.cls-1,.cls-5,.cls-6,.cls-7,.cls-8{stroke-miterlimit:10;}.cls-10,.cls-2{font-size:30px;font-family:NotoSansMonoCJKjp-Regular-90ms-RKSJ-H, Noto Sans Mono CJK JP;}.cls-10,.cls-2,.cls-9{fill:#231815;}.cls-3{letter-spacing:0.25em;}.cls-14,.cls-15,.cls-16,.cls-17,.cls-18,.cls-19,.cls-20,.cls-21,.cls-22,.cls-23,.cls-24,.cls-25,.cls-26,.cls-27,.cls-28,.cls-29,.cls-30,.cls-31,.cls-32,.cls-33,.cls-34,.cls-4{font-size:20px;}.cls-35,.cls-5,.cls-6,.cls-7,.cls-8{fill:none;}.cls-5{stroke:#718cc7;stroke-width:8.79px;}.cls-5,.cls-6,.cls-7{stroke-linecap:round;}.cls-6,.cls-7{stroke-width:4.4px;}.cls-7{stroke-dasharray:0 28.57;}.cls-8{stroke-width:5px;}.cls-10{letter-spacing:-0.01em;}.cls-11{letter-spacing:0em;}.cls-12{letter-spacing:-0.02em;}.cls-13{letter-spacing:0.35em;}.cls-14{letter-spacing:-0.07em;}.cls-15{letter-spacing:-0.05em;}.cls-16{letter-spacing:-0.07em;}.cls-17{letter-spacing:-0.05em;}.cls-18{letter-spacing:-0.03em;}.cls-19{letter-spacing:-0.03em;}.cls-20{letter-spacing:-0.05em;}.cls-21{letter-spacing:-0.07em;}.cls-22{letter-spacing:-0.05em;}.cls-23{letter-spacing:-0.05em;}.cls-24{letter-spacing:-0.03em;}.cls-25{letter-spacing:-0.01em;}.cls-26{letter-spacing:-0.04em;}.cls-27{letter-spacing:-0.08em;}.cls-28{letter-spacing:-0.04em;}.cls-29{letter-spacing:-0.05em;}.cls-30{letter-spacing:-0.11em;}.cls-31{letter-spacing:-0.06em;}.cls-32{letter-spacing:-0.06em;}.cls-33{letter-spacing:-0.07em;}.cls-34{letter-spacing:-0.07em;}</style></defs><title>3229_7151</title><rect id="_長方形_" data-name="&lt;長方形&gt;" class="cls-1" x="102.96" y="812.47" width="400" height="100"/><text class="cls-2" transform="translate(201.71 851.59)">岩井<tspan class="cls-3" x="60" y="0">線(</tspan><tspan x="120" y="0">普</tspan><tspan class="cls-3" x="150" y="0">通</tspan><tspan x="187.5" y="0">)</tspan><tspan class="cls-4"><tspan x="-33.75" y="27.2">(local bus)Iwai line(local)</tspan></tspan></text><line class="cls-5" x1="202.96" y1="892.47" x2="402.96" y2="892.47"/><line class="cls-6" x1="202.96" y1="892.47" x2="202.96" y2="892.47"/><line class="cls-7" x1="231.53" y1="892.47" x2="388.68" y2="892.47"/><line class="cls-6" x1="402.96" y1="892.47" x2="402.96" y2="892.47"/><line class="cls-8" x1="302.96" y1="812.47" x2="217.06" y2="701.54"/><path class="cls-9" d="M198.59,677.69c12.86,8,30.75,16.42,45,19.23l-24.06,7.76L206,726C206.8,711.57,203.12,692.14,198.59,677.69Z"/><line class="cls-8" x1="23.99" y1="1151.55" x2="-53.63" y2="983.97"/><path class="cls-1" d="M28.58,615.75h-315v50h315a25,25,0,0,0,25-25h0A25,25,0,0,0,28.58,615.75Z"/><text class="cls-10" transform="translate(-267.11 652.16)">鳥<tspan class="cls-11" x="29.59" y="0">取</tspan><tspan class="cls-12" x="59.63" y="0">砂</tspan><tspan class="cls-13" x="89.17" y="0">丘</tspan><tspan class="cls-14" x="128.23" y="-3.8">(</tspan><tspan class="cls-15" x="136.9" y="-3.8">S</tspan><tspan class="cls-16" x="145.87" y="-3.8">a</tspan><tspan class="cls-17" x="154.55" y="-3.8">n</tspan><tspan class="cls-18" x="163.54" y="-3.8">d</tspan><tspan class="cls-19" x="172.85" y="-3.8"> </tspan><tspan class="cls-20" x="182.23" y="-3.8">D</tspan><tspan class="cls-21" x="191.32" y="-3.8">u</tspan><tspan class="cls-22" x="199.93" y="-3.8">n</tspan><tspan class="cls-23" x="208.88" y="-3.8">e</tspan><tspan class="cls-24" x="217.91" y="-3.8">s</tspan><tspan class="cls-25" x="227.35" y="-3.8"> </tspan><tspan class="cls-26" x="237.07" y="-3.8">T</tspan><tspan class="cls-27" x="246.29" y="-3.8">e</tspan><tspan class="cls-28" x="254.72" y="-3.8">r</tspan><tspan class="cls-29" x="263.93" y="-3.8">m</tspan><tspan class="cls-30" x="272.97" y="-3.8">i</tspan><tspan class="cls-31" x="280.83" y="-3.8">n</tspan><tspan class="cls-32" x="289.71" y="-3.8">a</tspan><tspan class="cls-33" x="298.48" y="-3.8">l</tspan><tspan class="cls-34" x="307.1" y="-3.8">)</tspan></text><rect class="cls-35" x="-7079" y="-2044" width="11720" height="11720"/></svg>