<svg id="_13zoom" data-name="13zoom" xmlns="http://www.w3.org/2000/svg" xmlns:xlink="http://www.w3.org/1999/xlink" viewBox="0 0 1024 1024"><defs><style>.cls-1,.cls-12,.cls-13,.cls-3{fill:#231815;}.cls-1,.cls-11,.cls-2,.cls-25,.cls-6,.cls-7,.cls-9{stroke:#231815;}.cls-1,.cls-10,.cls-11,.cls-2,.cls-25,.cls-5,.cls-6,.cls-7,.cls-8,.cls-9{stroke-miterlimit:10;}.cls-1,.cls-2,.cls-25{stroke-width:4px;}.cls-2,.cls-24{fill:#fff;}.cls-3{font-size:30px;}.cls-13,.cls-24,.cls-3{font-family:NotoSansMonoCJKjp-Regular-90ms-RKSJ-H, Noto Sans Mono CJK JP;}.cls-28,.cls-4{font-size:20px;}.cls-10,.cls-11,.cls-25,.cls-29,.cls-5,.cls-6,.cls-7,.cls-8,.cls-9{fill:none;}.cls-5{stroke:#a97443;}.cls-10,.cls-5,.cls-6,.cls-7,.cls-8,.cls-9{stroke-linecap:round;}.cls-10,.cls-5,.cls-8{stroke-width:8.79px;}.cls-6,.cls-7,.cls-9{stroke-width:4.4px;}.cls-7{stroke-dasharray:0 28.57;}.cls-8{stroke:#dae24a;}.cls-9{stroke-dasharray:0 29.3;}.cls-10{stroke:#e7336e;}.cls-11{stroke-width:5px;}.cls-13{font-size:25px;}.cls-14{letter-spacing:-0.12em;}.cls-15{letter-spacing:-0.13em;}.cls-16{letter-spacing:-0.06em;}.cls-17{letter-spacing:-0.07em;}.cls-18{letter-spacing:-0.1em;}.cls-19{letter-spacing:-0.05em;}.cls-20{letter-spacing:-0.09em;}.cls-21{letter-spacing:-0.05em;}.cls-22{font-size:15px;}.cls-23{clip-path:url(#clip-path);}.cls-24{font-size:48px;}.cls-26{letter-spacing:1.24em;}.cls-27{letter-spacing:0.74em;}.cls-28{letter-spacing:0.36em;}</style><clipPath id="clip-path"><path id="_クリッピングパス_" data-name="&lt;クリッピングパス&gt;" class="cls-1" d="M-9.12,162.18a25,25,0,0,0-25,25h0a25,25,0,0,0,25,25h35v-50Z"/></clipPath></defs><title>3232_7151</title><rect id="_長方形_" data-name="&lt;長方形&gt;" class="cls-2" x="388.02" y="183.61" width="400" height="100"/><text class="cls-3" transform="translate(498.02 222.73)">面影若葉台線<tspan class="cls-4"><tspan x="-105" y="27.2">(local bus)Omokage Wakabadai line(loop)</tspan></tspan></text><line class="cls-5" x1="488.02" y1="263.61" x2="688.02" y2="263.61"/><line class="cls-6" x1="488.02" y1="263.61" x2="488.02" y2="263.61"/><line class="cls-7" x1="516.59" y1="263.61" x2="673.74" y2="263.61"/><line class="cls-6" x1="688.02" y1="263.61" x2="688.02" y2="263.61"/><rect id="_長方形_2" data-name="&lt;長方形&gt;" class="cls-2" x="268.03" y="530.8" width="400" height="100"/><text class="cls-3" transform="translate(408.03 569.92)">若葉台線<tspan class="cls-4"><tspan x="-95" y="27.2">(local bus)Wakabadai line(loop)</tspan></tspan></text><line class="cls-8" x1="368.03" y1="610.8" x2="568.03" y2="610.8"/><line class="cls-9" x1="368.03" y1="610.8" x2="568.03" y2="610.8"/><rect id="_長方形_3" data-name="&lt;長方形&gt;" class="cls-2" x="268.03" y="664.64" width="400" height="100"/><text class="cls-3" transform="translate(423.03 703.76)">若桜線<tspan class="cls-4"><tspan x="-65" y="27.2">(local bus)Wakasa line</tspan></tspan></text><line class="cls-10" x1="368.03" y1="744.64" x2="568.03" y2="744.64"/><line class="cls-9" x1="368.03" y1="744.64" x2="568.03" y2="744.64"/><line class="cls-11" x1="381.02" y1="-14.24" x2="128.16" y2="41.4"/><path class="cls-12" d="M98.69,47.88c12.73-8.19,28-20.76,36.62-32.41L132,40.55l13.51,21.37C132.82,55,113.69,50,98.69,47.88Z"/><line class="cls-11" x1="468.03" y1="764.64" x2="208.16" y2="935.09"/><path class="cls-12" d="M182.93,951.64c9-12.2,18.78-29.37,22.69-43.33l5.85,24.61,20.24,15.16C217.35,946.11,197.69,948.25,182.93,951.64Z"/><line class="cls-11" x1="468.03" y1="530.8" x2="355.33" y2="468.34"/><path class="cls-12" d="M328.93,453.71c15,2.27,34.74,3,48.91-.08l-19,16.63-4,25C349.85,481.6,338.8,465.2,328.93,453.71Z"/><line class="cls-11" x1="588.02" y1="283.61" x2="365.76" y2="383.09"/><path class="cls-12" d="M338.22,395.42c10.81-10.61,23.22-26,29.3-39.16l1.86,25.22,17.56,18.18C373.08,395.43,353.33,394.42,338.22,395.42Z"/><path class="cls-2" d="M34.85,668.08h-315v50h315a25,25,0,0,0,25-25h0A25,25,0,0,0,34.85,668.08Z"/><text class="cls-13" transform="translate(-270.91 700.08)"><tspan class="cls-14">ポ</tspan><tspan class="cls-15" x="22.05" y="0">リ</tspan><tspan class="cls-16" x="43.77" y="0">テ</tspan><tspan class="cls-17" x="67.19" y="0">ク</tspan><tspan class="cls-18" x="90.55" y="0">セ</tspan><tspan class="cls-19" x="113.08" y="0">ン</tspan><tspan class="cls-20" x="136.71" y="0">タ</tspan><tspan class="cls-21" x="159.55" y="0">ー</tspan><tspan class="cls-22" x="190.76" y="-3.8">Polytechnic Center</tspan></text><line class="cls-2" x1="93.52" y1="580.6" x2="-120.15" y2="668.08"/><circle class="cls-2" cx="93.52" cy="580.6" r="10"/><path id="_クリッピングパス_2" data-name="&lt;クリッピングパス&gt;" class="cls-12" d="M-9.12,162.18a25,25,0,0,0-25,25h0a25,25,0,0,0,25,25h35v-50Z"/><g class="cls-23"><text class="cls-24" transform="translate(-23.12 203.15)">45</text></g><path id="_クリッピングパス_3" data-name="&lt;クリッピングパス&gt;" class="cls-25" d="M-9.12,162.18a25,25,0,0,0-25,25h0a25,25,0,0,0,25,25h35v-50Z"/><path class="cls-2" d="M340.88,162.18h-315v50h315a25,25,0,0,0,25-25h0A25,25,0,0,0,340.88,162.18Z"/><text class="cls-3" transform="translate(75.88 198.58)"><tspan class="cls-26">生</tspan><tspan class="cls-27" x="67.14" y="0">山</tspan><tspan class="cls-28" x="119.29" y="-3.8">Shoza</tspan><tspan class="cls-4" x="205" y="-3.8">n</tspan></text><line class="cls-2" x1="101.02" y1="66.12" x2="185.88" y2="162.18"/><circle class="cls-2" cx="101.02" cy="66.12" r="10"/><rect class="cls-29" x="-7079" y="-5116" width="11720" height="11720"/></svg>