<svg id="_15zoom" data-name="15zoom" xmlns="http://www.w3.org/2000/svg" xmlns:xlink="http://www.w3.org/1999/xlink" viewBox="0 0 1024 1024"><defs><style>.cls-1,.cls-2,.cls-7{fill:#231815;}.cls-1,.cls-12,.cls-5,.cls-6{stroke:#231815;stroke-miterlimit:10;}.cls-1,.cls-5,.cls-6{stroke-width:2.4px;}.cls-3{clip-path:url(#clip-path);}.cls-4{font-size:28.8px;}.cls-12,.cls-4,.cls-6{fill:#fff;}.cls-4,.cls-7{font-family:NotoSansMonoCJKjp-Regular-90ms-RKSJ-H, Noto Sans Mono CJK JP;}.cls-13,.cls-5{fill:none;}.cls-7{font-size:18px;}.cls-8{letter-spacing:1.67em;}.cls-9{letter-spacing:1.17em;}.cls-10,.cls-11{font-size:12px;}.cls-10{letter-spacing:1em;}.cls-12{stroke-width:4px;}</style><clipPath id="clip-path"><path id="_クリッピングパス_" data-name="&lt;クリッピングパス&gt;" class="cls-1" d="M601.54,613.81a15,15,0,0,0-15,15h0a15,15,0,0,0,15,15h21v-30Z"/></clipPath></defs><title>3233_7146</title><path id="_クリッピングパス_2" data-name="&lt;クリッピングパス&gt;" class="cls-2" d="M601.54,613.81a15,15,0,0,0-15,15h0a15,15,0,0,0,15,15h21v-30Z"/><g class="cls-3"><text class="cls-4" transform="translate(593.13 638.4)">81</text></g><path id="_クリッピングパス_3" data-name="&lt;クリッピングパス&gt;" class="cls-5" d="M601.54,613.81a15,15,0,0,0-15,15h0a15,15,0,0,0,15,15h21v-30Z"/><path class="cls-6" d="M811.55,613.81h-189v30h189a15,15,0,0,0,15-15h0A15,15,0,0,0,811.55,613.81Z"/><text class="cls-7" transform="translate(652.53 635.65)"><tspan class="cls-8">安</tspan><tspan class="cls-9" x="48" y="0">蔵</tspan><tspan class="cls-10" x="87" y="-2.28">Az</tspan><tspan class="cls-11" x="123" y="-2.28">o</tspan></text><line class="cls-6" x1="706.25" y1="551.05" x2="718.55" y2="613.81"/><circle class="cls-12" cx="706.25" cy="551.05" r="10"/><rect class="cls-13" x="-1959" y="-6140" width="11720" height="11720"/></svg>